<svg version="1.1"
     xmlns="http://www.w3.org/2000/svg"
     width="800"
     height="803.8582803611844">

<rect x="0" y="0" width="800" height="800" fill="lightgrey"/>
<circle cx="0.09149985387590931" cy="576.2595947537264" r="4" fill="rgb(106, 183, 0)"/>
<circle cx="73.87087581503823" cy="117.40471265369044" r="3" fill="rgb(77, 37, 23)"/>
<circle cx="317.41397938453593" cy="276.4485816344382" r="2" fill="rgb(47, 88, 101)"/>
<circle cx="548.1756003174075" cy="335.35561152263585" r="5" fill="rgb(137, 106, 174)"/>
<circle cx="21.91007455834093" cy="702.4939491127564" r="2" fill="rgb(52, 223, 6)"/>
<circle cx="446.9518627566013" cy="333.84384189370155" r="6" fill="rgb(170, 106, 142)"/>
<circle cx="640.5956549404293" cy="158.48119126790303" r="2" fill="rgb(35, 50, 204)"/>
<circle cx="553.8580925354513" cy="250.73934252739429" r="8" fill="rgb(246, 79, 176)"/>
<circle cx="68.03536909582233" cy="715.6853308030778" r="8" fill="rgb(223, 228, 21)"/>
<circle cx="702.5140027435305" cy="135.86433565165513" r="1" fill="rgb(9, 43, 223)"/>
<circle cx="766.3116241204016" cy="336.88610000404174" r="1" fill="rgb(25, 107, 244)"/>
<circle cx="252.41250480485036" cy="553.5016911603786" r="5" fill="rgb(135, 176, 80)"/>
<circle cx="14.630621875353444" cy="667.7005375178983" r="6" fill="rgb(175, 212, 4)"/>
<circle cx="598.5325235038715" cy="791.0888711251957" r="7" fill="rgb(191, 252, 190)"/>
<circle cx="82.58080526211361" cy="631.4234627611908" r="3" fill="rgb(71, 201, 26)"/>
<circle cx="234.8913186989436" cy="726.8764024744764" r="4" fill="rgb(114, 231, 74)"/>
<circle cx="15.49356629623766" cy="104.02285769462213" r="3" fill="rgb(73, 33, 4)"/>
<circle cx="212.43732749778098" cy="169.30249280004722" r="6" fill="rgb(173, 53, 67)"/>
<circle cx="459.29408439361043" cy="42.690036093664304" r="4" fill="rgb(125, 13, 146)"/>
<circle cx="559.8066880167449" cy="471.4444295226274" r="2" fill="rgb(37, 150, 178)"/>
<circle cx="555.5201261821961" cy="331.24479025565466" r="1" fill="rgb(26, 105, 177)"/>
<circle cx="428.7171247324093" cy="39.96276715686973" r="4" fill="rgb(105, 12, 136)"/>
<circle cx="755.6758047926506" cy="411.9112896466469" r="6" fill="rgb(169, 131, 240)"/>
<circle cx="109.97976331699002" cy="722.7215322303068" r="5" fill="rgb(149, 230, 35)"/>
<circle cx="318.14146958842684" cy="645.9130309676191" r="2" fill="rgb(35, 205, 101)"/>
<circle cx="278.21268779640525" cy="742.0068643168271" r="2" fill="rgb(42, 236, 88)"/>
<circle cx="706.6448729646479" cy="580.7983882803612" r="7" fill="rgb(191, 185, 225)"/>
<circle cx="279.118673582274" cy="600.7539472218698" r="5" fill="rgb(159, 191, 88)"/>
<circle cx="342.47295189703595" cy="716.7089745568535" r="3" fill="rgb(68, 228, 109)"/>
<circle cx="497.3565761672974" cy="530.7531982547584" r="8" fill="rgb(246, 169, 158)"/>
<circle cx="359.92970678395244" cy="759.591406965657" r="1" fill="rgb(29, 242, 114)"/>
<circle cx="189.62158419442216" cy="326.50944220902494" r="5" fill="rgb(147, 104, 60)"/>
<circle cx="2.296261624927176" cy="458.9435893378287" r="8" fill="rgb(230, 146, 0)"/>
<circle cx="421.6464818060874" cy="261.3159214176769" r="5" fill="rgb(157, 83, 134)"/>
<circle cx="726.8281207358393" cy="285.8158080019998" r="8" fill="rgb(225, 91, 231)"/>
<circle cx="743.5497869950091" cy="12.656994277245026" r="5" fill="rgb(158, 4, 237)"/>
<circle cx="137.87240667626284" cy="797.8582803611844" r="6" fill="rgb(176, 254, 43)"/>
<circle cx="557.4545291919202" cy="746.0763704297309" r="2" fill="rgb(34, 237, 177)"/>
<circle cx="603.1009507689971" cy="604.3704420819731" r="1" fill="rgb(16, 192, 192)"/>
<circle cx="99.41676957773176" cy="569.2198069027773" r="8" fill="rgb(235, 181, 31)"/>
<circle cx="22.645190416635685" cy="20.968789502175422" r="1" fill="rgb(5, 6, 7)"/>
<circle cx="431.0648514733223" cy="688.0223589463104" r="2" fill="rgb(62, 219, 137)"/>
<circle cx="99.33865209592892" cy="673.6247138876846" r="5" fill="rgb(140, 214, 31)"/>
<circle cx="775.6765986557397" cy="468.6074171666303" r="3" fill="rgb(71, 149, 247)"/>
<circle cx="640.5061381444931" cy="14.917831498354417" r="5" fill="rgb(143, 4, 204)"/>
<circle cx="310.2885152513374" cy="645.6841564950233" r="2" fill="rgb(59, 205, 98)"/>
<circle cx="444.9921871923351" cy="597.6973141897477" r="7" fill="rgb(220, 190, 141)"/>
<circle cx="97.07476459258987" cy="47.93415160976933" r="2" fill="rgb(34, 15, 30)"/>
<circle cx="180.56747088628376" cy="85.99530328487432" r="1" fill="rgb(11, 27, 57)"/>
<circle cx="10.044784127292683" cy="447.77358564331394" r="6" fill="rgb(181, 142, 3)"/>
<circle cx="454.4803695359537" cy="773.8210640002176" r="1" fill="rgb(18, 246, 144)"/>
<circle cx="595.0606832600744" cy="201.86059565625874" r="2" fill="rgb(51, 64, 189)"/>
<circle cx="776.0159912706499" cy="465.0871418186062" r="2" fill="rgb(49, 148, 247)"/>
<circle cx="395.015771414984" cy="191.87820731806892" r="7" fill="rgb(215, 61, 125)"/>
<circle cx="125.43311571686742" cy="663.1847196401429" r="5" fill="rgb(158, 211, 39)"/>
<circle cx="389.07608874962546" cy="56.017714975377864" r="1" fill="rgb(4, 17, 124)"/>
<circle cx="253.88992745772862" cy="455.0811496691851" r="5" fill="rgb(154, 145, 80)"/>
<circle cx="304.11293809884035" cy="463.7961753966375" r="8" fill="rgb(252, 147, 96)"/>
<circle cx="535.3863147625477" cy="596.2675447252017" r="5" fill="rgb(140, 190, 170)"/>
<circle cx="296.06735833128505" cy="53.067867542753255" r="3" fill="rgb(67, 16, 94)"/>
<circle cx="602.2044429910511" cy="168.13920793187168" r="6" fill="rgb(160, 53, 191)"/>
<circle cx="643.8036509946763" cy="208.25207886283278" r="1" fill="rgb(16, 66, 205)"/>
<circle cx="419.73624729898694" cy="511.5687047039521" r="2" fill="rgb(49, 163, 133)"/>
<circle cx="52.768872547219026" cy="210.63741638968878" r="8" fill="rgb(235, 67, 16)"/>
<circle cx="726.2526820028193" cy="617.7424236345975" r="6" fill="rgb(187, 196, 231)"/>
<circle cx="187.4896688971364" cy="11.161258380477612" r="8" fill="rgb(237, 3, 59)"/>
<circle cx="760.1408953976637" cy="759.2130565500931" r="5" fill="rgb(157, 241, 242)"/>
<circle cx="513.25296715707" cy="732.4850798130196" r="5" fill="rgb(141, 233, 163)"/>
<circle cx="483.4483863359786" cy="388.7925336775278" r="4" fill="rgb(99, 123, 154)"/>
<circle cx="734.9867485068849" cy="740.945141365163" r="5" fill="rgb(140, 236, 234)"/>
<circle cx="139.16453334437148" cy="770.6100227525694" r="4" fill="rgb(100, 245, 44)"/>
<circle cx="404.5297325415174" cy="108.06332643738506" r="2" fill="rgb(32, 34, 128)"/>
<circle cx="661.692376936586" cy="758.3761689741448" r="1" fill="rgb(5, 241, 210)"/>
<circle cx="265.65085949346957" cy="140.9570044600442" r="1" fill="rgb(3, 44, 84)"/>
<circle cx="275.7893221466348" cy="647.5925537012656" r="2" fill="rgb(33, 206, 87)"/>
<circle cx="703.0655875294752" cy="465.611343957664" r="8" fill="rgb(239, 148, 224)"/>
<circle cx="367.9042126534456" cy="724.3138549669194" r="7" fill="rgb(215, 230, 117)"/>
<circle cx="228.57508138731805" cy="638.8828729216315" r="5" fill="rgb(139, 203, 72)"/>
<circle cx="12.426620440668579" cy="479.2882461167027" r="4" fill="rgb(125, 152, 3)"/>
<circle cx="645.8884231078731" cy="346.94107919156664" r="5" fill="rgb(151, 110, 205)"/>
<circle cx="462.2857722276284" cy="714.310966820121" r="3" fill="rgb(80, 227, 147)"/>
<circle cx="489.62494163594715" cy="630.3433870604034" r="2" fill="rgb(46, 200, 156)"/>
<circle cx="543.2550692523437" cy="336.1549440009058" r="1" fill="rgb(13, 107, 173)"/>
<circle cx="781.4073192248477" cy="0.3216199130859465" r="8" fill="rgb(234, 0, 249)"/>
<circle cx="483.7728807792424" cy="779.0268306866581" r="4" fill="rgb(96, 248, 154)"/>
<circle cx="502.46095864588034" cy="459.76920376648184" r="7" fill="rgb(211, 146, 160)"/>
<circle cx="600.017410962128" cy="469.46667252486634" r="3" fill="rgb(72, 149, 191)"/>
<circle cx="558.4457987578423" cy="604.0657507741441" r="7" fill="rgb(218, 192, 178)"/>
<circle cx="536.6310326300697" cy="258.14479746939713" r="7" fill="rgb(220, 82, 171)"/>
<circle cx="328.64907993774847" cy="305.6822016252138" r="4" fill="rgb(114, 97, 104)"/>
<circle cx="497.5354943362412" cy="253.9071567666215" r="4" fill="rgb(102, 80, 158)"/>
<circle cx="542.2407131474489" cy="779.0416623418018" r="4" fill="rgb(109, 248, 172)"/>
<circle cx="274.67699181953844" cy="341.36080747842624" r="2" fill="rgb(50, 108, 87)"/>
<circle cx="723.0735646610975" cy="703.9986308507454" r="7" fill="rgb(203, 224, 230)"/>
<circle cx="201.8933612036718" cy="216.16660962380624" r="6" fill="rgb(168, 68, 64)"/>
<circle cx="641.7288672036784" cy="422.17171704699734" r="7" fill="rgb(217, 134, 204)"/>
<circle cx="415.20930197124466" cy="586.5140202300089" r="5" fill="rgb(145, 186, 132)"/>
<circle cx="372.56790287358467" cy="455.08639256377245" r="7" fill="rgb(196, 145, 118)"/>
<circle cx="302.33934346247986" cy="54.567478733363295" r="3" fill="rgb(87, 17, 96)"/>
<circle cx="145.290281064611" cy="786.253690984356" r="1" fill="rgb(20, 250, 46)"/>
<circle cx="550.7306019087547" cy="699.9693159647185" r="7" fill="rgb(207, 223, 175)"/>
<circle cx="373.50401821064503" cy="128.777149452487" r="5" fill="rgb(145, 41, 119)"/>
<circle cx="474.0094950126374" cy="180.03196625126768" r="3" fill="rgb(88, 57, 151)"/>
<circle cx="727.7084199612457" cy="733.0444427746806" r="3" fill="rgb(79, 233, 231)"/>
<circle cx="154.37018561529027" cy="88.71304059522336" r="3" fill="rgb(65, 28, 49)"/>
<circle cx="166.5555507270332" cy="582.8685343796769" r="4" fill="rgb(127, 185, 53)"/>
<circle cx="332.67897461402185" cy="681.3374999490936" r="2" fill="rgb(63, 217, 106)"/>
<circle cx="81.57380754063794" cy="186.93291139140004" r="5" fill="rgb(157, 59, 26)"/>
<circle cx="122.13731527453061" cy="381.71278963982587" r="5" fill="rgb(131, 121, 38)"/>
<circle cx="523.3098775765955" cy="435.2080950511505" r="5" fill="rgb(158, 138, 166)"/>
<circle cx="177.63931183993816" cy="601.2222537081951" r="2" fill="rgb(36, 191, 56)"/>
<circle cx="17.864342393444943" cy="628.2368225772951" r="5" fill="rgb(132, 200, 5)"/>
<circle cx="675.7676860816557" cy="698.3379011200889" r="3" fill="rgb(82, 222, 215)"/>
<circle cx="759.8447930829012" cy="693.2866193332104" r="5" fill="rgb(137, 220, 242)"/>
<circle cx="78.99472145627868" cy="683.292355069231" r="7" fill="rgb(210, 217, 25)"/>
<circle cx="488.19265011730374" cy="562.8135905221224" r="6" fill="rgb(166, 179, 155)"/>
<circle cx="616.1909876439839" cy="27.6569758973074" r="7" fill="rgb(203, 8, 196)"/>
<circle cx="205.65543905771736" cy="207.75871463868248" r="6" fill="rgb(186, 66, 65)"/>
<circle cx="637.27094240583" cy="276.23796927286526" r="6" fill="rgb(161, 88, 203)"/>
<circle cx="792.3774268990726" cy="626.1995318273375" r="4" fill="rgb(113, 199, 252)"/>
<circle cx="721.0467490794191" cy="114.4046626064795" r="3" fill="rgb(76, 36, 229)"/>
<circle cx="509.2835200015178" cy="779.7922966840658" r="5" fill="rgb(138, 248, 162)"/>
<circle cx="421.14074712441703" cy="436.8566433143613" r="8" fill="rgb(253, 139, 134)"/>
<circle cx="20.974853837098628" cy="284.56413678710487" r="2" fill="rgb(34, 90, 6)"/>
<circle cx="24.319751943031065" cy="596.5097541659968" r="2" fill="rgb(40, 190, 7)"/>
<circle cx="554.1421740058835" cy="689.8770022704352" r="3" fill="rgb(93, 219, 176)"/>
<circle cx="353.5234245987387" cy="150.9094407642487" r="6" fill="rgb(176, 48, 112)"/>
<circle cx="163.12498018649748" cy="791.8013661309642" r="5" fill="rgb(148, 252, 51)"/>
<circle cx="600.1379306383942" cy="209.73846701832954" r="2" fill="rgb(63, 66, 191)"/>
<circle cx="406.8129924881917" cy="45.54355072887599" r="4" fill="rgb(116, 14, 129)"/>
<circle cx="237.86510520581777" cy="638.8833958081682" r="2" fill="rgb(54, 203, 75)"/>
<circle cx="675.0723431449511" cy="474.74595957169686" r="1" fill="rgb(7, 151, 215)"/>
<circle cx="408.91318263770256" cy="599.8866485809148" r="4" fill="rgb(97, 191, 130)"/>
<circle cx="643.1687131989174" cy="767.5474568494019" r="5" fill="rgb(137, 244, 205)"/>
<circle cx="372.00118525080484" cy="567.5098009850361" r="1" fill="rgb(8, 180, 118)"/>
<circle cx="213.65761574749263" cy="177.14618745879065" r="8" fill="rgb(241, 56, 68)"/>
<circle cx="87.21501121525463" cy="342.8950629310292" r="1" fill="rgb(20, 109, 27)"/>
<circle cx="557.4403968961428" cy="642.3705898989903" r="6" fill="rgb(161, 204, 177)"/>
<circle cx="676.6811864221421" cy="273.96329587481586" r="7" fill="rgb(195, 87, 215)"/>
<circle cx="501.196926899435" cy="659.207896329855" r="4" fill="rgb(109, 210, 159)"/>
<circle cx="14.666114330405833" cy="62.709519883958365" r="2" fill="rgb(36, 19, 4)"/>
<circle cx="90.67353821407238" cy="366.86705096674547" r="1" fill="rgb(17, 116, 28)"/>
<circle cx="315.88038436851156" cy="603.8891851123739" r="1" fill="rgb(7, 192, 100)"/>
<circle cx="360.0693976006089" cy="361.92386139716126" r="6" fill="rgb(190, 115, 114)"/>
<circle cx="642.5306736913357" cy="379.2031412497552" r="4" fill="rgb(121, 120, 204)"/>
<circle cx="29.64883836322869" cy="723.7489282748984" r="4" fill="rgb(102, 230, 9)"/>
<circle cx="494.8108535296684" cy="100.51310491019106" r="7" fill="rgb(197, 32, 157)"/>
<circle cx="2.41436529567709" cy="430.90182606107754" r="1" fill="rgb(2, 137, 0)"/>
<circle cx="636.7735535538155" cy="724.3216269622225" r="8" fill="rgb(242, 230, 202)"/>
<circle cx="126.18405589642663" cy="116.44658492671765" r="8" fill="rgb(233, 37, 40)"/>
<circle cx="724.6475968066414" cy="497.9967218399369" r="2" fill="rgb(47, 158, 230)"/>
<circle cx="585.4403273138362" cy="568.8979670126528" r="8" fill="rgb(252, 181, 186)"/>
<circle cx="199.8805441800294" cy="320.6989858968967" r="8" fill="rgb(231, 102, 63)"/>
<circle cx="650.0884704262629" cy="95.5656402669832" r="2" fill="rgb(44, 30, 207)"/>
<circle cx="655.2713429068247" cy="211.43798618152056" r="2" fill="rgb(37, 67, 208)"/>
<circle cx="213.31096172130816" cy="785.9339594343543" r="3" fill="rgb(79, 250, 67)"/>
<circle cx="728.61826493907" cy="251.5736089486797" r="5" fill="rgb(136, 80, 232)"/>
<circle cx="409.83415382268913" cy="346.8738618185316" r="3" fill="rgb(93, 110, 130)"/>
<circle cx="573.5029309053514" cy="24.75920501692057" r="8" fill="rgb(239, 7, 182)"/>
<circle cx="417.6409978020086" cy="21.829778813975054" r="8" fill="rgb(227, 6, 133)"/>
<circle cx="446.81324073801426" cy="687.5914566924687" r="3" fill="rgb(83, 219, 142)"/>
<circle cx="502.6472300170857" cy="362.28279996122995" r="6" fill="rgb(176, 115, 160)"/>
<circle cx="461.4047479896726" cy="7.478862373212625" r="3" fill="rgb(73, 2, 147)"/>
<circle cx="733.1246824431182" cy="413.8140788009038" r="3" fill="rgb(79, 131, 233)"/>
<circle cx="297.03500902324356" cy="197.91682928190832" r="4" fill="rgb(108, 63, 94)"/>
<circle cx="675.4639588525706" cy="749.4947050472749" r="8" fill="rgb(237, 238, 215)"/>
<circle cx="69.9857676428727" cy="182.32023196105357" r="8" fill="rgb(234, 58, 22)"/>
<circle cx="139.81270108504927" cy="251.50129289124035" r="2" fill="rgb(57, 80, 44)"/>
<circle cx="653.0812094617713" cy="330.8691320009291" r="5" fill="rgb(154, 105, 208)"/>
<circle cx="192.28449987931108" cy="561.5012238050483" r="2" fill="rgb(47, 178, 61)"/>
<circle cx="45.57151958626618" cy="279.1900777766311" r="5" fill="rgb(146, 88, 14)"/>
<circle cx="397.800074688425" cy="531.2820442838348" r="2" fill="rgb(58, 169, 126)"/>
<circle cx="456.5726812370051" cy="139.776120087138" r="5" fill="rgb(132, 44, 145)"/>
<circle cx="475.4980990647822" cy="653.4680870332975" r="8" fill="rgb(254, 208, 151)"/>
<circle cx="476.48634688211644" cy="721.250067735457" r="8" fill="rgb(248, 229, 151)"/>
<circle cx="52.29737203378111" cy="74.8616766539846" r="1" fill="rgb(8, 23, 16)"/>
<circle cx="780.2800274162292" cy="300.3478665342862" r="4" fill="rgb(115, 95, 248)"/>
<circle cx="613.9798950904104" cy="778.2300735461241" r="2" fill="rgb(42, 248, 195)"/>
<circle cx="534.9862161653856" cy="506.0926534223978" r="7" fill="rgb(210, 161, 170)"/>
<circle cx="282.4048684334598" cy="10.509085538457796" r="4" fill="rgb(121, 3, 90)"/>
<circle cx="374.90267419688735" cy="584.0729688720835" r="4" fill="rgb(125, 186, 119)"/>
<circle cx="8.710987042783191" cy="110.13019275648253" r="4" fill="rgb(116, 35, 2)"/>
<circle cx="787.5067601548086" cy="255.9622704621427" r="7" fill="rgb(193, 81, 251)"/>
<circle cx="419.11690853290537" cy="270.9664203853437" r="2" fill="rgb(56, 86, 133)"/>
<circle cx="99.85803448934104" cy="371.0862271202365" r="7" fill="rgb(192, 118, 31)"/>
<circle cx="539.0792064134941" cy="403.6153357607957" r="3" fill="rgb(79, 128, 171)"/>
<circle cx="18.332105057905412" cy="104.26862476348342" r="7" fill="rgb(196, 33, 5)"/>
<circle cx="10.08301362390105" cy="647.9909685299331" r="5" fill="rgb(132, 206, 3)"/>
<circle cx="359.39740286931004" cy="549.4465813255935" r="6" fill="rgb(171, 175, 114)"/>
<circle cx="4.1918701211726805" cy="515.4888678055944" r="8" fill="rgb(233, 164, 1)"/>
<circle cx="664.3196560298716" cy="687.45424487808" r="4" fill="rgb(123, 219, 211)"/>
<circle cx="462.7996638313604" cy="538.9587391189053" r="6" fill="rgb(165, 171, 147)"/>
<circle cx="537.3838278539363" cy="448.42399242884704" r="3" fill="rgb(69, 142, 171)"/>
<circle cx="156.02998880696583" cy="684.6626938031422" r="3" fill="rgb(89, 218, 49)"/>
<circle cx="619.0394297953457" cy="231.68219694950193" r="6" fill="rgb(190, 73, 197)"/>
<circle cx="282.8278901343923" cy="646.1587272897676" r="4" fill="rgb(109, 205, 90)"/>
<circle cx="246.9135581045209" cy="613.8276067374132" r="2" fill="rgb(54, 195, 78)"/>
<circle cx="177.11736072656086" cy="595.5785224621857" r="6" fill="rgb(186, 189, 56)"/>
<circle cx="114.01467021267572" cy="159.15833874165335" r="2" fill="rgb(54, 50, 36)"/>
<circle cx="88.7362952273925" cy="21.30230775329718" r="4" fill="rgb(96, 6, 28)"/>
<circle cx="64.42362170270872" cy="639.821229517909" r="6" fill="rgb(172, 203, 20)"/>
<circle cx="733.8668504653045" cy="166.1005294430515" r="2" fill="rgb(59, 52, 233)"/>
<circle cx="243.6143903364962" cy="443.10768884113145" r="6" fill="rgb(181, 141, 77)"/>
<circle cx="738.7649720950202" cy="348.244766103616" r="7" fill="rgb(212, 111, 235)"/>
<circle cx="100.96808299948697" cy="382.4250463722267" r="6" fill="rgb(180, 121, 32)"/>
<circle cx="162.08170017573008" cy="127.86692027527468" r="8" fill="rgb(248, 40, 51)"/>
<circle cx="117.4011846114353" cy="323.3615246201178" r="4" fill="rgb(109, 103, 37)"/>
<circle cx="515.1165154493302" cy="150.99605350174875" r="6" fill="rgb(185, 48, 164)"/>
<circle cx="480.763398486112" cy="168.58591366665658" r="7" fill="rgb(192, 53, 153)"/>
<circle cx="477.70184235731926" cy="510.5749684962667" r="6" fill="rgb(190, 162, 152)"/>
<circle cx="756.2467519999598" cy="585.2851769932071" r="3" fill="rgb(75, 186, 241)"/>
<circle cx="44.91283172953224" cy="625.7454534651242" r="4" fill="rgb(108, 199, 14)"/>
<circle cx="316.0774951119786" cy="153.80001345771817" r="7" fill="rgb(212, 49, 100)"/>
<circle cx="723.7048023489943" cy="64.08291504483942" r="3" fill="rgb(76, 20, 230)"/>
<circle cx="395.29301271706004" cy="424.5579507809116" r="3" fill="rgb(94, 135, 125)"/>
<circle cx="60.95104722585694" cy="165.1632471115464" r="2" fill="rgb(33, 52, 19)"/>
<circle cx="285.64928710623354" cy="209.23964146638968" r="5" fill="rgb(129, 66, 91)"/>
<circle cx="85.26710143104089" cy="630.0414717220058" r="1" fill="rgb(27, 200, 27)"/>
<circle cx="457.92408994771944" cy="141.72893155073388" r="8" fill="rgb(251, 45, 145)"/>
<circle cx="151.68475825463725" cy="629.6930317246673" r="1" fill="rgb(11, 200, 48)"/>
<circle cx="119.94518793380476" cy="592.0620345272573" r="5" fill="rgb(134, 188, 38)"/>
<circle cx="607.3568394537158" cy="173.29376666302352" r="5" fill="rgb(140, 55, 193)"/>
<circle cx="689.5732461336587" cy="141.2392274216664" r="6" fill="rgb(184, 45, 219)"/>
<circle cx="447.1230489287507" cy="688.1895979384922" r="1" fill="rgb(5, 219, 142)"/>
<circle cx="573.5432013539759" cy="606.9975448178693" r="4" fill="rgb(102, 193, 182)"/>
<circle cx="3.0349379274740684" cy="222.46803889038623" r="8" fill="rgb(251, 70, 0)"/>
<circle cx="583.0807020154048" cy="686.3176836303151" r="8" fill="rgb(238, 218, 185)"/>
<circle cx="624.4236455013942" cy="565.5649961990088" r="5" fill="rgb(131, 180, 199)"/>
<circle cx="600.4994553401402" cy="616.258020263966" r="3" fill="rgb(95, 196, 191)"/>
<circle cx="557.8464154114728" cy="321.4927391742699" r="5" fill="rgb(156, 102, 177)"/>
<circle cx="717.1332819654775" cy="619.9173173796783" r="1" fill="rgb(0, 197, 228)"/>
<circle cx="176.2271902349821" cy="96.61374744738379" r="2" fill="rgb(61, 30, 56)"/>
<circle cx="434.53314419047564" cy="706.4228068510673" r="3" fill="rgb(77, 225, 138)"/>
<circle cx="232.11557048363335" cy="110.68375183435721" r="3" fill="rgb(73, 35, 73)"/>
<circle cx="365.88814535279874" cy="259.3108239179573" r="5" fill="rgb(156, 82, 116)"/>
<circle cx="341.0785233889845" cy="662.5082885852097" r="4" fill="rgb(113, 211, 108)"/>
<circle cx="177.185644586823" cy="539.9772838472842" r="3" fill="rgb(88, 172, 56)"/>
<circle cx="501.4844817302677" cy="251.81254985921316" r="4" fill="rgb(119, 80, 159)"/>
<circle cx="627.5659350335385" cy="358.1512001165028" r="8" fill="rgb(223, 114, 200)"/>
<circle cx="105.47278002200171" cy="524.9834653737051" r="4" fill="rgb(116, 167, 33)"/>
<circle cx="484.38320082474775" cy="727.4495909239494" r="4" fill="rgb(110, 231, 154)"/>
<circle cx="398.44449986240596" cy="403.76048647671547" r="7" fill="rgb(195, 128, 127)"/>
<circle cx="458.6178172397477" cy="54.245547472763" r="7" fill="rgb(214, 17, 146)"/>
<circle cx="155.5726476223076" cy="414.2880385378575" r="8" fill="rgb(240, 132, 49)"/>
<circle cx="560.5808291860303" cy="201.31131388468225" r="7" fill="rgb(216, 64, 178)"/>
<circle cx="499.4693619221407" cy="759.0690306241756" r="5" fill="rgb(137, 241, 159)"/>
<circle cx="791.4720449333104" cy="6.346300955618478" r="7" fill="rgb(213, 2, 252)"/>
<circle cx="756.9219163654122" cy="257.7036108918157" r="1" fill="rgb(19, 82, 241)"/>
<circle cx="688.9693106934355" cy="658.1840043375485" r="1" fill="rgb(2, 209, 219)"/>
<circle cx="642.1516157066388" cy="204.59615504474496" r="4" fill="rgb(112, 65, 204)"/>
<path d=" M 71.0 453.99999999999994 L 78.57505512237549 444.9099330902099 L 76.32140350341797 444.76748657226557 L 72.74856662750244 444.08507728576654 L 69.29964447021484 442.9754629135131 L 65.99279117584229 441.4613370895385 L 62.846160888671875 439.5653915405273 L 59.87790775299072 437.3103189468383 L 57.10618495941162 434.7188129425048 L 54.549147605895996 431.81356525421137 L 52.22494983673096 428.61726856231684 L 50.1517448425293 425.1526155471801 L 48.347686767578125 421.4422988891601 L 46.83093070983887 417.50901126861567 L 45.619629859924316 413.3754444122314 L 44.73193836212158 409.06429195404047 L 44.18601036071777 404.5982465744018 L 44.0 399.99999999999994 L 44.18601036071777 395.4017534255981 L 44.73193836212158 390.9357080459594 L 45.619629859924316 386.6245555877685 L 46.83093070983887 382.4909887313842 L 48.347686767578125 378.5577011108398 L 50.1517448425293 374.84738445281977 L 52.22494983673096 371.38273143768305 L 54.549147605895996 368.1864347457885 L 57.10618495941162 365.28118705749506 L 59.87790775299072 362.68968105316156 L 62.846160888671875 360.4346084594726 L 65.99279117584229 358.53866291046137 L 69.29964447021484 357.02453708648676 L 72.74856662750244 355.91492271423334 L 76.32140350341797 355.2325134277343 L 80.0 354.99999999999994 L 83.67859649658203 355.2325134277343 L 87.25143337249756 355.91492271423334 L 90.70035552978516 357.02453708648676 L 94.00720882415771 358.53866291046137 L 97.15383911132812 360.4346084594726 L 100.12209224700928 362.68968105316156 L 102.89381504058838 365.28118705749506 L 105.450852394104 368.1864347457885 L 107.77505016326904 371.38273143768305 L 109.8482551574707 374.84738445281977 L 111.65231323242188 378.5577011108398 L 113.16906929016113 382.4909887313842 L 114.38037014007568 386.6245555877685 L 115.26806163787842 390.9357080459594 L 115.81398963928223 395.4017534255981 L 116.0 399.99999999999994 L 115.81398963928223 404.5982465744018 L 115.26806163787842 409.06429195404047 L 114.38037014007568 413.3754444122314 L 113.16906929016113 417.50901126861567 L 111.65231323242188 421.4422988891601 L 109.8482551574707 425.1526155471801 L 107.77505016326904 428.61726856231684 L 105.450852394104 431.81356525421137 L 102.89381504058838 434.7188129425048 L 100.12209224700928 437.3103189468383 L 97.15383911132812 439.5653915405273 L 94.00720882415771 441.4613370895385 L 90.70035552978516 442.9754629135131 L 87.25143337249756 444.08507728576654 L 83.67859649658203 444.76748657226557 L 81.42494487762451 444.9099330902099 L 89.0 453.99999999999994 Z" fill="white"/>
<path d=" M 86.66191478555089 355.1145618000168 L 94.23696990792638 346.0244948902268 L 91.98331828896886 345.88204837228244 L 88.41048141305333 345.1996390857834 L 84.96155925576574 344.09002471353 L 81.65470596139318 342.5758988895554 L 78.50807567422277 340.67995334054416 L 75.53982253854161 338.4248807468552 L 72.76809974496251 335.8333747425217 L 70.21106239144689 332.92812705422824 L 67.88686462228185 329.7318303623337 L 65.81365962808019 326.267177347197 L 64.00960155312902 322.556860689177 L 62.49284549538976 318.62357306863254 L 61.28154464547521 314.49000621224826 L 60.39385314767247 310.17885375405734 L 59.847925146268665 305.71280837441867 L 59.66191478555089 301.1145618000168 L 59.847925146268665 296.51631522561496 L 60.39385314767247 292.0502698459763 L 61.28154464547521 287.73911738778537 L 62.49284549538976 283.6055505314011 L 64.00960155312902 279.67226291085666 L 65.81365962808019 275.96194625283664 L 67.88686462228185 272.4972932376999 L 70.21106239144689 269.3009965458054 L 72.76809974496251 266.39574885751193 L 75.53982253854161 263.80424285317844 L 78.50807567422277 261.5491702594895 L 81.65470596139318 259.65322471047824 L 84.96155925576574 258.13909888650363 L 88.41048141305333 257.0294845142502 L 91.98331828896886 256.3470752277512 L 95.66191478555089 256.1145618000168 L 99.34051128213292 256.3470752277512 L 102.91334815804845 257.0294845142502 L 106.36227031533605 258.13909888650363 L 109.6691236097086 259.65322471047824 L 112.81575389687902 261.5491702594895 L 115.78400703256017 263.80424285317844 L 118.55572982613927 266.39574885751193 L 121.1127671796549 269.3009965458054 L 123.43696494881993 272.4972932376999 L 125.5101699430216 275.96194625283664 L 127.31422801797277 279.67226291085666 L 128.83098407571202 283.6055505314011 L 130.04228492562657 287.73911738778537 L 130.9299764234293 292.0502698459763 L 131.47590442483312 296.51631522561496 L 131.6619147855509 301.1145618000168 L 131.47590442483312 305.71280837441867 L 130.9299764234293 310.17885375405734 L 130.04228492562657 314.49000621224826 L 128.83098407571202 318.62357306863254 L 127.31422801797277 322.556860689177 L 125.5101699430216 326.267177347197 L 123.43696494881993 329.7318303623337 L 121.1127671796549 332.92812705422824 L 118.55572982613927 335.8333747425217 L 115.78400703256017 338.4248807468552 L 112.81575389687902 340.67995334054416 L 109.6691236097086 342.5758988895554 L 106.36227031533605 344.09002471353 L 102.91334815804845 345.1996390857834 L 99.34051128213292 345.88204837228244 L 97.0868596631754 346.0244948902268 L 104.66191478555089 355.1145618000168 Z" fill="purple"/>
<path d=" M 132.11456180001687 265.9087192664085 L 139.68961692239236 256.8186523566185 L 137.43596530343484 256.67620583867415 L 133.8631284275193 255.99379655217516 L 130.41420627023172 254.88418217992174 L 127.10735297585916 253.37005635594713 L 123.96072268868875 251.4741108069359 L 120.9924695530076 249.21903821324693 L 118.2207467594285 246.62753220891344 L 115.66370940591287 243.72228452061998 L 113.33951163674783 240.52598782872545 L 111.26630664254617 237.06133481358873 L 109.462248567595 233.3510181555687 L 107.94549250985574 229.41773053502428 L 106.73419165994119 225.28416367864 L 105.84650016213845 220.97301122044908 L 105.30057216073465 216.5069658408104 L 105.11456180001687 211.90871926640855 L 105.30057216073465 207.3104726920067 L 105.84650016213845 202.84442731236803 L 106.73419165994119 198.5332748541771 L 107.94549250985574 194.39970799779283 L 109.462248567595 190.4664203772484 L 111.26630664254617 186.75610371922838 L 113.33951163674783 183.29145070409166 L 115.66370940591287 180.09515401219713 L 118.2207467594285 177.18990632390367 L 120.9924695530076 174.59840031957017 L 123.96072268868875 172.3433277258812 L 127.10735297585916 170.44738217686998 L 130.41420627023172 168.93325635289537 L 133.8631284275193 167.82364198064195 L 137.43596530343484 167.14123269414293 L 141.11456180001687 166.90871926640855 L 144.7931582965989 167.14123269414293 L 148.36599517251443 167.82364198064195 L 151.81491732980203 168.93325635289537 L 155.1217706241746 170.44738217686998 L 158.268400911345 172.3433277258812 L 161.23665404702615 174.59840031957017 L 164.00837684060525 177.18990632390367 L 166.56541419412088 180.09515401219713 L 168.88961196328592 183.29145070409166 L 170.96281695748758 186.75610371922838 L 172.76687503243875 190.4664203772484 L 174.283631090178 194.39970799779283 L 175.49493194009256 198.5332748541771 L 176.3826234378953 202.84442731236803 L 176.9285514392991 207.3104726920067 L 177.11456180001687 211.90871926640855 L 176.9285514392991 216.5069658408104 L 176.3826234378953 220.97301122044908 L 175.49493194009256 225.28416367864 L 174.283631090178 229.41773053502428 L 172.76687503243875 233.3510181555687 L 170.96281695748758 237.06133481358873 L 168.88961196328592 240.52598782872545 L 166.56541419412088 243.72228452061998 L 164.00837684060525 246.62753220891344 L 161.23665404702615 249.21903821324693 L 158.268400911345 251.4741108069359 L 155.1217706241746 253.37005635594713 L 151.81491732980203 254.88418217992174 L 148.36599517251443 255.99379655217516 L 144.7931582965989 256.67620583867415 L 142.53950667764138 256.8186523566185 L 150.11456180001687 265.9087192664085 Z" fill="white"/>
<path d=" M 202.90871926640864 195.11456180001682 L 210.48377438878413 186.02449489022678 L 208.2301227698266 185.88204837228244 L 204.65728589391108 185.19963908578342 L 201.20836373662348 184.09002471353 L 197.90151044225092 182.5758988895554 L 194.7548801550805 180.67995334054416 L 191.78662701939936 178.4248807468552 L 189.01490422582026 175.8333747425217 L 186.45786687230463 172.92812705422824 L 184.1336691031396 169.7318303623337 L 182.06046410893794 166.267177347197 L 180.25640603398676 162.55686068917697 L 178.7396499762475 158.62357306863254 L 177.52834912633296 154.49000621224826 L 176.64065762853022 150.17885375405734 L 176.0947296271264 145.71280837441867 L 175.90871926640864 141.11456180001682 L 176.0947296271264 136.51631522561496 L 176.64065762853022 132.0502698459763 L 177.52834912633296 127.73911738778537 L 178.7396499762475 123.6055505314011 L 180.25640603398676 119.67226291085666 L 182.06046410893794 115.96194625283664 L 184.1336691031396 112.49729323769992 L 186.45786687230463 109.30099654580539 L 189.01490422582026 106.39574885751193 L 191.78662701939936 103.80424285317844 L 194.7548801550805 101.54917025948947 L 197.90151044225092 99.65322471047824 L 201.20836373662348 98.13909888650363 L 204.65728589391108 97.02948451425021 L 208.2301227698266 96.34707522775119 L 211.90871926640864 96.11456180001682 L 215.58731576299067 96.34707522775119 L 219.1601526389062 97.02948451425021 L 222.6090747961938 98.13909888650363 L 225.91592809056635 99.65322471047824 L 229.06255837773676 101.54917025948947 L 232.03081151341792 103.80424285317844 L 234.80253430699702 106.39574885751193 L 237.35957166051264 109.30099654580539 L 239.68376942967768 112.49729323769992 L 241.75697442387934 115.96194625283664 L 243.5610324988305 119.67226291085666 L 245.07778855656977 123.6055505314011 L 246.28908940648432 127.73911738778537 L 247.17678090428706 132.0502698459763 L 247.72270890569087 136.51631522561496 L 247.90871926640864 141.11456180001682 L 247.72270890569087 145.71280837441867 L 247.17678090428706 150.17885375405734 L 246.28908940648432 154.49000621224826 L 245.07778855656977 158.62357306863254 L 243.5610324988305 162.55686068917697 L 241.75697442387934 166.267177347197 L 239.68376942967768 169.7318303623337 L 237.35957166051264 172.92812705422824 L 234.80253430699702 175.8333747425217 L 232.03081151341792 178.4248807468552 L 229.06255837773676 180.67995334054416 L 225.91592809056635 182.5758988895554 L 222.6090747961938 184.09002471353 L 219.1601526389062 185.19963908578342 L 215.58731576299067 185.88204837228244 L 213.33366414403315 186.02449489022678 L 220.90871926640864 195.11456180001682 Z" fill="purple"/>
<path d=" M 292.1145618000169 149.66191478555083 L 299.68961692239236 140.5718478757608 L 297.43596530343484 140.42940135781646 L 293.8631284275193 139.74699207131744 L 290.4142062702317 138.63737769906402 L 287.10735297585916 137.1232518750894 L 283.96072268868875 135.22730632607818 L 280.9924695530076 132.9722337323892 L 278.2207467594285 130.38072772805572 L 275.66370940591287 127.47548003976226 L 273.33951163674783 124.27918334786773 L 271.26630664254617 120.81453033273101 L 269.462248567595 117.10421367471099 L 267.94549250985574 113.17092605416656 L 266.7341916599412 109.03735919778228 L 265.84650016213845 104.72620673959136 L 265.30057216073465 100.26016135995269 L 265.1145618000169 95.66191478555083 L 265.30057216073465 91.06366821114898 L 265.84650016213845 86.59762283151031 L 266.7341916599412 82.28647037331939 L 267.94549250985574 78.15290351693511 L 269.462248567595 74.21961589639068 L 271.26630664254617 70.50929923837066 L 273.33951163674783 67.04464622323394 L 275.66370940591287 63.84834953133941 L 278.2207467594285 60.94310184304595 L 280.9924695530076 58.351595838712456 L 283.96072268868875 56.09652324502349 L 287.10735297585916 54.20057769601226 L 290.4142062702317 52.68645187203765 L 293.8631284275193 51.57683749978423 L 297.43596530343484 50.89442821328521 L 301.1145618000169 50.661914785550834 L 304.7931582965989 50.89442821328521 L 308.36599517251443 51.57683749978423 L 311.81491732980203 52.68645187203765 L 315.1217706241746 54.20057769601226 L 318.268400911345 56.09652324502349 L 321.23665404702615 58.351595838712456 L 324.00837684060525 60.94310184304595 L 326.5654141941209 63.84834953133941 L 328.8896119632859 67.04464622323394 L 330.9628169574876 70.50929923837066 L 332.76687503243875 74.21961589639068 L 334.283631090178 78.15290351693511 L 335.49493194009256 82.28647037331939 L 336.3826234378953 86.59762283151031 L 336.9285514392991 91.06366821114898 L 337.1145618000169 95.66191478555083 L 336.9285514392991 100.26016135995269 L 336.3826234378953 104.72620673959136 L 335.49493194009256 109.03735919778228 L 334.283631090178 113.17092605416656 L 332.76687503243875 117.10421367471099 L 330.9628169574876 120.81453033273101 L 328.8896119632859 124.27918334786773 L 326.5654141941209 127.47548003976226 L 324.00837684060525 130.38072772805572 L 321.23665404702615 132.9722337323892 L 318.268400911345 135.22730632607818 L 315.1217706241746 137.1232518750894 L 311.81491732980203 138.63737769906402 L 308.36599517251443 139.74699207131744 L 304.7931582965989 140.42940135781646 L 302.5395066776414 140.5718478757608 L 310.1145618000169 149.66191478555083 Z" fill="white"/>
<path d=" M 391.0 134.0 L 398.5750551223755 124.90993309020996 L 396.32140350341797 124.76748657226562 L 392.74856662750244 124.0850772857666 L 389.29964447021484 122.97546291351318 L 385.9927911758423 121.46133708953857 L 382.8461608886719 119.56539154052734 L 379.8779077529907 117.31031894683838 L 377.1061849594116 114.71881294250488 L 374.549147605896 111.81356525421143 L 372.22494983673096 108.6172685623169 L 370.1517448425293 105.15261554718018 L 368.3476867675781 101.44229888916016 L 366.83093070983887 97.50901126861572 L 365.6196298599243 93.37544441223145 L 364.7319383621216 89.06429195404053 L 364.1860103607178 84.59824657440186 L 364.0 80.0 L 364.1860103607178 75.40175342559814 L 364.7319383621216 70.93570804595947 L 365.6196298599243 66.62455558776855 L 366.83093070983887 62.49098873138428 L 368.3476867675781 58.557701110839844 L 370.1517448425293 54.847384452819824 L 372.22494983673096 51.382731437683105 L 374.549147605896 48.186434745788574 L 377.1061849594116 45.28118705749512 L 379.8779077529907 42.68968105316162 L 382.8461608886719 40.434608459472656 L 385.9927911758423 38.538662910461426 L 389.29964447021484 37.024537086486816 L 392.74856662750244 35.9149227142334 L 396.32140350341797 35.232513427734375 L 400.0 35.0 L 403.67859649658203 35.232513427734375 L 407.25143337249756 35.9149227142334 L 410.70035552978516 37.024537086486816 L 414.0072088241577 38.538662910461426 L 417.1538391113281 40.434608459472656 L 420.1220922470093 42.68968105316162 L 422.8938150405884 45.28118705749512 L 425.450852394104 48.186434745788574 L 427.77505016326904 51.382731437683105 L 429.8482551574707 54.847384452819824 L 431.6523132324219 58.557701110839844 L 433.16906929016113 62.49098873138428 L 434.3803701400757 66.62455558776855 L 435.2680616378784 70.93570804595947 L 435.8139896392822 75.40175342559814 L 436.0 80.0 L 435.8139896392822 84.59824657440186 L 435.2680616378784 89.06429195404053 L 434.3803701400757 93.37544441223145 L 433.16906929016113 97.50901126861572 L 431.6523132324219 101.44229888916016 L 429.8482551574707 105.15261554718018 L 427.77505016326904 108.6172685623169 L 425.450852394104 111.81356525421143 L 422.8938150405884 114.71881294250488 L 420.1220922470093 117.31031894683838 L 417.1538391113281 119.56539154052734 L 414.0072088241577 121.46133708953857 L 410.70035552978516 122.97546291351318 L 407.25143337249756 124.0850772857666 L 403.67859649658203 124.76748657226562 L 401.4249448776245 124.90993309020996 L 409.0 134.0 Z" fill="purple"/>
<path d=" M 489.88543819998324 149.6619147855509 L 497.46049332235873 140.57184787576085 L 495.2068417034012 140.42940135781652 L 491.6340048274857 139.7469920713175 L 488.1850826701981 138.63737769906407 L 484.8782293758255 137.12325187508947 L 481.7315990886551 135.22730632607824 L 478.76334595297396 132.97223373238927 L 475.99162315939486 130.38072772805577 L 473.43458580587924 127.47548003976232 L 471.1103880367142 124.27918334786779 L 469.03718304251254 120.81453033273107 L 467.23312496756137 117.10421367471105 L 465.7163689098221 113.17092605416661 L 464.50506805990756 109.03735919778234 L 463.6173765621048 104.72620673959142 L 463.071448560701 100.26016135995275 L 462.88543819998324 95.66191478555089 L 463.071448560701 91.06366821114904 L 463.6173765621048 86.59762283151036 L 464.50506805990756 82.28647037331945 L 465.7163689098221 78.15290351693517 L 467.23312496756137 74.21961589639074 L 469.03718304251254 70.50929923837072 L 471.1103880367142 67.044646223234 L 473.43458580587924 63.848349531339466 L 475.99162315939486 60.94310184304601 L 478.76334595297396 58.35159583871251 L 481.7315990886551 56.09652324502355 L 484.8782293758255 54.20057769601232 L 488.1850826701981 52.68645187203771 L 491.6340048274857 51.57683749978429 L 495.2068417034012 50.894428213285266 L 498.88543819998324 50.66191478555089 L 502.5640346965653 50.894428213285266 L 506.1368715724808 51.57683749978429 L 509.5857937297684 52.68645187203771 L 512.892647024141 54.20057769601232 L 516.0392773113114 56.09652324502355 L 519.0075304469925 58.35159583871251 L 521.7792532405716 60.94310184304601 L 524.3362905940872 63.848349531339466 L 526.6604883632523 67.044646223234 L 528.733693357454 70.50929923837072 L 530.5377514324051 74.21961589639074 L 532.0545074901444 78.15290351693517 L 533.2658083400589 82.28647037331945 L 534.1534998378617 86.59762283151036 L 534.6994278392655 91.06366821114904 L 534.8854381999832 95.66191478555089 L 534.6994278392655 100.26016135995275 L 534.1534998378617 104.72620673959142 L 533.2658083400589 109.03735919778234 L 532.0545074901444 113.17092605416661 L 530.5377514324051 117.10421367471105 L 528.733693357454 120.81453033273107 L 526.6604883632523 124.27918334786779 L 524.3362905940872 127.47548003976232 L 521.7792532405716 130.38072772805577 L 519.0075304469925 132.97223373238927 L 516.0392773113114 135.22730632607824 L 512.892647024141 137.12325187508947 L 509.5857937297684 138.63737769906407 L 506.1368715724808 139.7469920713175 L 502.5640346965653 140.42940135781652 L 500.31038307760775 140.57184787576085 L 507.88543819998324 149.6619147855509 Z" fill="white"/>
<path d=" M 579.0912807335915 195.11456180001687 L 586.666335855967 186.02449489022683 L 584.4126842370094 185.8820483722825 L 580.8398473610939 185.19963908578347 L 577.3909252038063 184.09002471353006 L 574.0840719094338 182.57589888955545 L 570.9374416222633 180.67995334054422 L 567.9691884865822 178.42488074685525 L 565.1974656930031 175.83337474252176 L 562.6404283394875 172.9281270542283 L 560.3162305703224 169.73183036233377 L 558.2430255761208 166.26717734719705 L 556.4389675011696 162.55686068917703 L 554.9222114434303 158.6235730686326 L 553.7109105935158 154.49000621224832 L 552.8232190957131 150.1788537540574 L 552.2772910943092 145.71280837441873 L 552.0912807335915 141.11456180001687 L 552.2772910943092 136.51631522561502 L 552.8232190957131 132.05026984597635 L 553.7109105935158 127.73911738778543 L 554.9222114434303 123.60555053140115 L 556.4389675011696 119.67226291085672 L 558.2430255761208 115.9619462528367 L 560.3162305703224 112.49729323769998 L 562.6404283394875 109.30099654580545 L 565.1974656930031 106.39574885751199 L 567.9691884865822 103.8042428531785 L 570.9374416222633 101.54917025948953 L 574.0840719094338 99.6532247104783 L 577.3909252038063 98.13909888650369 L 580.8398473610939 97.02948451425027 L 584.4126842370094 96.34707522775125 L 588.0912807335915 96.11456180001687 L 591.7698772301735 96.34707522775125 L 595.342714106089 97.02948451425027 L 598.7916362633766 98.13909888650369 L 602.0984895577492 99.6532247104783 L 605.2451198449196 101.54917025948953 L 608.2133729806008 103.8042428531785 L 610.9850957741799 106.39574885751199 L 613.5421331276955 109.30099654580545 L 615.8663308968605 112.49729323769998 L 617.9395358910622 115.9619462528367 L 619.7435939660133 119.67226291085672 L 621.2603500237526 123.60555053140115 L 622.4716508736672 127.73911738778543 L 623.3593423714699 132.05026984597635 L 623.9052703728737 136.51631522561502 L 624.0912807335915 141.11456180001687 L 623.9052703728737 145.71280837441873 L 623.3593423714699 150.1788537540574 L 622.4716508736672 154.49000621224832 L 621.2603500237526 158.6235730686326 L 619.7435939660133 162.55686068917703 L 617.9395358910622 166.26717734719705 L 615.8663308968605 169.73183036233377 L 613.5421331276955 172.9281270542283 L 610.9850957741799 175.83337474252176 L 608.2133729806008 178.42488074685525 L 605.2451198449196 180.67995334054422 L 602.0984895577492 182.57589888955545 L 598.7916362633766 184.09002471353006 L 595.342714106089 185.19963908578347 L 591.7698772301735 185.8820483722825 L 589.516225611216 186.02449489022683 L 597.0912807335915 195.11456180001687 Z" fill="purple"/>
<path d=" M 649.8854381999831 265.90871926640864 L 657.4604933223586 256.8186523566186 L 655.2068417034011 256.67620583867426 L 651.6340048274856 255.99379655217524 L 648.185082670198 254.88418217992182 L 644.8782293758254 253.3700563559472 L 641.731599088655 251.47411080693598 L 638.7633459529739 249.21903821324702 L 635.9916231593947 246.62753220891352 L 633.4345858058791 243.72228452062006 L 631.1103880367141 240.52598782872553 L 629.0371830425124 237.06133481358881 L 627.2331249675613 233.3510181555688 L 625.716368909822 229.41773053502436 L 624.5050680599074 225.28416367864008 L 623.6173765621047 220.97301122044917 L 623.0714485607009 216.5069658408105 L 622.8854381999831 211.90871926640864 L 623.0714485607009 207.31047269200678 L 623.6173765621047 202.8444273123681 L 624.5050680599074 198.5332748541772 L 625.716368909822 194.39970799779292 L 627.2331249675613 190.46642037724848 L 629.0371830425124 186.75610371922846 L 631.1103880367141 183.29145070409174 L 633.4345858058791 180.0951540121972 L 635.9916231593947 177.18990632390376 L 638.7633459529739 174.59840031957026 L 641.731599088655 172.3433277258813 L 644.8782293758254 170.44738217687006 L 648.185082670198 168.93325635289546 L 651.6340048274856 167.82364198064204 L 655.2068417034011 167.141232694143 L 658.8854381999831 166.90871926640864 L 662.5640346965652 167.141232694143 L 666.1368715724807 167.82364198064204 L 669.5857937297683 168.93325635289546 L 672.8926470241408 170.44738217687006 L 676.0392773113113 172.3433277258813 L 679.0075304469924 174.59840031957026 L 681.7792532405715 177.18990632390376 L 684.3362905940871 180.0951540121972 L 686.6604883632522 183.29145070409174 L 688.7336933574538 186.75610371922846 L 690.537751432405 190.46642037724848 L 692.0545074901443 194.39970799779292 L 693.2658083400588 198.5332748541772 L 694.1534998378615 202.8444273123681 L 694.6994278392654 207.31047269200678 L 694.8854381999831 211.90871926640864 L 694.6994278392654 216.5069658408105 L 694.1534998378615 220.97301122044917 L 693.2658083400588 225.28416367864008 L 692.0545074901443 229.41773053502436 L 690.537751432405 233.3510181555688 L 688.7336933574538 237.06133481358881 L 686.6604883632522 240.52598782872553 L 684.3362905940871 243.72228452062006 L 681.7792532405715 246.62753220891352 L 679.0075304469924 249.21903821324702 L 676.0392773113113 251.47411080693598 L 672.8926470241408 253.3700563559472 L 669.5857937297683 254.88418217992182 L 666.1368715724807 255.99379655217524 L 662.5640346965652 256.67620583867426 L 660.3103830776076 256.8186523566186 L 667.8854381999831 265.90871926640864 Z" fill="white"/>
<path d=" M 695.3380852144492 355.1145618000169 L 702.9131403368247 346.02449489022683 L 700.6594887178671 345.8820483722825 L 697.0866518419516 345.1996390857835 L 693.637729684664 344.09002471353006 L 690.3308763902915 342.57589888955545 L 687.184246103121 340.6799533405442 L 684.2159929674399 338.42488074685525 L 681.4442701738608 335.83337474252176 L 678.8872328203452 332.9281270542283 L 676.5630350511801 329.73183036233377 L 674.4898300569785 326.26717734719705 L 672.6857719820273 322.55686068917703 L 671.169015924288 318.6235730686326 L 669.9577150743735 314.4900062122483 L 669.0700235765707 310.1788537540574 L 668.5240955751669 305.7128083744187 L 668.3380852144492 301.1145618000169 L 668.5240955751669 296.516315225615 L 669.0700235765707 292.05026984597635 L 669.9577150743735 287.7391173877854 L 671.169015924288 283.60555053140115 L 672.6857719820273 279.6722629108567 L 674.4898300569785 275.9619462528367 L 676.5630350511801 272.4972932377 L 678.8872328203452 269.30099654580545 L 681.4442701738608 266.395748857512 L 684.2159929674399 263.8042428531785 L 687.184246103121 261.54917025948953 L 690.3308763902915 259.6532247104783 L 693.637729684664 258.1390988865037 L 697.0866518419516 257.02948451425027 L 700.6594887178671 256.34707522775125 L 704.3380852144492 256.1145618000169 L 708.0166817110312 256.34707522775125 L 711.5895185869467 257.02948451425027 L 715.0384407442343 258.1390988865037 L 718.3452940386069 259.6532247104783 L 721.4919243257773 261.54917025948953 L 724.4601774614584 263.8042428531785 L 727.2319002550375 266.395748857512 L 729.7889376085532 269.30099654580545 L 732.1131353777182 272.4972932377 L 734.1863403719199 275.9619462528367 L 735.990398446871 279.6722629108567 L 737.5071545046103 283.60555053140115 L 738.7184553545248 287.7391173877854 L 739.6061468523276 292.05026984597635 L 740.1520748537314 296.516315225615 L 740.3380852144492 301.1145618000169 L 740.1520748537314 305.7128083744187 L 739.6061468523276 310.1788537540574 L 738.7184553545248 314.4900062122483 L 737.5071545046103 318.6235730686326 L 735.990398446871 322.55686068917703 L 734.1863403719199 326.26717734719705 L 732.1131353777182 329.73183036233377 L 729.7889376085532 332.9281270542283 L 727.2319002550375 335.83337474252176 L 724.4601774614584 338.42488074685525 L 721.4919243257773 340.6799533405442 L 718.3452940386069 342.57589888955545 L 715.0384407442343 344.09002471353006 L 711.5895185869467 345.1996390857835 L 708.0166817110312 345.8820483722825 L 705.7630300920737 346.02449489022683 L 713.3380852144492 355.1145618000169 Z" fill="purple"/>
<path d=" M 711.0 454.0 L 718.5750551223755 444.90993309020996 L 716.321403503418 444.7674865722656 L 712.7485666275024 444.0850772857666 L 709.2996444702148 442.9754629135132 L 705.9927911758423 441.4613370895386 L 702.8461608886719 439.56539154052734 L 699.8779077529907 437.3103189468384 L 697.1061849594116 434.7188129425049 L 694.549147605896 431.8135652542114 L 692.224949836731 428.6172685623169 L 690.1517448425293 425.1526155471802 L 688.3476867675781 421.44229888916016 L 686.8309307098389 417.5090112686157 L 685.6196298599243 413.37544441223145 L 684.7319383621216 409.0642919540405 L 684.1860103607178 404.59824657440186 L 684.0 400.0 L 684.1860103607178 395.40175342559814 L 684.7319383621216 390.9357080459595 L 685.6196298599243 386.62455558776855 L 686.8309307098389 382.4909887313843 L 688.3476867675781 378.55770111083984 L 690.1517448425293 374.8473844528198 L 692.224949836731 371.3827314376831 L 694.549147605896 368.1864347457886 L 697.1061849594116 365.2811870574951 L 699.8779077529907 362.6896810531616 L 702.8461608886719 360.43460845947266 L 705.9927911758423 358.5386629104614 L 709.2996444702148 357.0245370864868 L 712.7485666275024 355.9149227142334 L 716.321403503418 355.2325134277344 L 720.0 355.0 L 723.678596496582 355.2325134277344 L 727.2514333724976 355.9149227142334 L 730.7003555297852 357.0245370864868 L 734.0072088241577 358.5386629104614 L 737.1538391113281 360.43460845947266 L 740.1220922470093 362.6896810531616 L 742.8938150405884 365.2811870574951 L 745.450852394104 368.1864347457886 L 747.775050163269 371.3827314376831 L 749.8482551574707 374.8473844528198 L 751.6523132324219 378.55770111083984 L 753.1690692901611 382.4909887313843 L 754.3803701400757 386.62455558776855 L 755.2680616378784 390.9357080459595 L 755.8139896392822 395.40175342559814 L 756.0 400.0 L 755.8139896392822 404.59824657440186 L 755.2680616378784 409.0642919540405 L 754.3803701400757 413.37544441223145 L 753.1690692901611 417.5090112686157 L 751.6523132324219 421.44229888916016 L 749.8482551574707 425.1526155471802 L 747.775050163269 428.6172685623169 L 745.450852394104 431.8135652542114 L 742.8938150405884 434.7188129425049 L 740.1220922470093 437.3103189468384 L 737.1538391113281 439.56539154052734 L 734.0072088241577 441.4613370895386 L 730.7003555297852 442.9754629135132 L 727.2514333724976 444.0850772857666 L 723.678596496582 444.7674865722656 L 721.4249448776245 444.90993309020996 L 729.0 454.0 Z" fill="white"/>
<path d=" M 695.3380852144492 552.8854381999832 L 702.9131403368247 543.7953712901932 L 700.6594887178671 543.6529247722489 L 697.0866518419516 542.9705154857498 L 693.637729684664 541.8609011134964 L 690.3308763902915 540.3467752895218 L 687.184246103121 538.4508297405106 L 684.2159929674399 536.1957571468216 L 681.4442701738608 533.6042511424881 L 678.8872328203452 530.6990034541947 L 676.5630350511801 527.5027067623001 L 674.4898300569785 524.0380537471634 L 672.6857719820273 520.3277370891434 L 671.169015924288 516.394449468599 L 669.9577150743735 512.2608826122147 L 669.0700235765707 507.94973015402377 L 668.5240955751669 503.4836847743851 L 668.3380852144492 498.88543819998324 L 668.5240955751669 494.2871916255814 L 669.0700235765707 489.8211462459427 L 669.9577150743735 485.5099937877518 L 671.169015924288 481.3764269313675 L 672.6857719820273 477.4431393108231 L 674.4898300569785 473.73282265280307 L 676.5630350511801 470.26816963766635 L 678.8872328203452 467.0718729457718 L 681.4442701738608 464.16662525747836 L 684.2159929674399 461.57511925314486 L 687.184246103121 459.3200466594559 L 690.3308763902915 457.42410111044467 L 693.637729684664 455.90997528647006 L 697.0866518419516 454.80036091421664 L 700.6594887178671 454.1179516277176 L 704.3380852144492 453.88543819998324 L 708.0166817110312 454.1179516277176 L 711.5895185869467 454.80036091421664 L 715.0384407442343 455.90997528647006 L 718.3452940386069 457.42410111044467 L 721.4919243257773 459.3200466594559 L 724.4601774614584 461.57511925314486 L 727.2319002550375 464.16662525747836 L 729.7889376085532 467.0718729457718 L 732.1131353777182 470.26816963766635 L 734.1863403719199 473.73282265280307 L 735.990398446871 477.4431393108231 L 737.5071545046103 481.3764269313675 L 738.7184553545248 485.5099937877518 L 739.6061468523276 489.8211462459427 L 740.1520748537314 494.2871916255814 L 740.3380852144492 498.88543819998324 L 740.1520748537314 503.4836847743851 L 739.6061468523276 507.94973015402377 L 738.7184553545248 512.2608826122147 L 737.5071545046103 516.394449468599 L 735.990398446871 520.3277370891434 L 734.1863403719199 524.0380537471634 L 732.1131353777182 527.5027067623001 L 729.7889376085532 530.6990034541947 L 727.2319002550375 533.6042511424881 L 724.4601774614584 536.1957571468216 L 721.4919243257773 538.4508297405106 L 718.3452940386069 540.3467752895218 L 715.0384407442343 541.8609011134964 L 711.5895185869467 542.9705154857498 L 708.0166817110312 543.6529247722489 L 705.7630300920737 543.7953712901932 L 713.3380852144492 552.8854381999832 Z" fill="purple"/>
<path d=" M 649.8854381999831 642.0912807335915 L 657.4604933223586 633.0012138238014 L 655.2068417034011 632.8587673058571 L 651.6340048274856 632.1763580193581 L 648.185082670198 631.0667436471047 L 644.8782293758254 629.55261782313 L 641.731599088655 627.6566722741188 L 638.7633459529739 625.4015996804299 L 635.9916231593947 622.8100936760964 L 633.4345858058791 619.9048459878029 L 631.1103880367141 616.7085492959084 L 629.0371830425124 613.2438962807717 L 627.2331249675613 609.5335796227516 L 625.716368909822 605.6002920022072 L 624.5050680599074 601.4667251458229 L 623.6173765621047 597.155572687632 L 623.0714485607009 592.6895273079933 L 622.8854381999831 588.0912807335915 L 623.0714485607009 583.4930341591896 L 623.6173765621047 579.026988779551 L 624.5050680599074 574.71583632136 L 625.716368909822 570.5822694649758 L 627.2331249675613 566.6489818444313 L 629.0371830425124 562.9386651864113 L 631.1103880367141 559.4740121712746 L 633.4345858058791 556.27771547938 L 635.9916231593947 553.3724677910866 L 638.7633459529739 550.7809617867531 L 641.731599088655 548.5258891930641 L 644.8782293758254 546.6299436440529 L 648.185082670198 545.1158178200783 L 651.6340048274856 544.0062034478249 L 655.2068417034011 543.3237941613258 L 658.8854381999831 543.0912807335915 L 662.5640346965652 543.3237941613258 L 666.1368715724807 544.0062034478249 L 669.5857937297683 545.1158178200783 L 672.8926470241408 546.6299436440529 L 676.0392773113113 548.5258891930641 L 679.0075304469924 550.7809617867531 L 681.7792532405715 553.3724677910866 L 684.3362905940871 556.27771547938 L 686.6604883632522 559.4740121712746 L 688.7336933574538 562.9386651864113 L 690.537751432405 566.6489818444313 L 692.0545074901443 570.5822694649758 L 693.2658083400588 574.71583632136 L 694.1534998378615 579.026988779551 L 694.6994278392654 583.4930341591896 L 694.8854381999831 588.0912807335915 L 694.6994278392654 592.6895273079933 L 694.1534998378615 597.155572687632 L 693.2658083400588 601.4667251458229 L 692.0545074901443 605.6002920022072 L 690.537751432405 609.5335796227516 L 688.7336933574538 613.2438962807717 L 686.6604883632522 616.7085492959084 L 684.3362905940871 619.9048459878029 L 681.7792532405715 622.8100936760964 L 679.0075304469924 625.4015996804299 L 676.0392773113113 627.6566722741188 L 672.8926470241408 629.55261782313 L 669.5857937297683 631.0667436471047 L 666.1368715724807 632.1763580193581 L 662.5640346965652 632.8587673058571 L 660.3103830776076 633.0012138238014 L 667.8854381999831 642.0912807335915 Z" fill="white"/>
<path d=" M 579.0912807335915 712.8854381999831 L 586.666335855967 703.7953712901931 L 584.4126842370094 703.6529247722488 L 580.8398473610939 702.9705154857497 L 577.3909252038063 701.8609011134963 L 574.0840719094338 700.3467752895217 L 570.9374416222633 698.4508297405105 L 567.9691884865822 696.1957571468215 L 565.1974656930031 693.604251142488 L 562.6404283394875 690.6990034541946 L 560.3162305703224 687.5027067623 L 558.2430255761208 684.0380537471633 L 556.4389675011696 680.3277370891433 L 554.9222114434303 676.3944494685989 L 553.7109105935158 672.2608826122146 L 552.8232190957131 667.9497301540237 L 552.2772910943092 663.483684774385 L 552.0912807335915 658.8854381999831 L 552.2772910943092 654.2871916255813 L 552.8232190957131 649.8211462459426 L 553.7109105935158 645.5099937877517 L 554.9222114434303 641.3764269313674 L 556.4389675011696 637.443139310823 L 558.2430255761208 633.732822652803 L 560.3162305703224 630.2681696376662 L 562.6404283394875 627.0718729457717 L 565.1974656930031 624.1666252574782 L 567.9691884865822 621.5751192531447 L 570.9374416222633 619.3200466594558 L 574.0840719094338 617.4241011104446 L 577.3909252038063 615.90997528647 L 580.8398473610939 614.8003609142165 L 584.4126842370094 614.1179516277175 L 588.0912807335915 613.8854381999831 L 591.7698772301735 614.1179516277175 L 595.342714106089 614.8003609142165 L 598.7916362633766 615.90997528647 L 602.0984895577492 617.4241011104446 L 605.2451198449196 619.3200466594558 L 608.2133729806008 621.5751192531447 L 610.9850957741799 624.1666252574782 L 613.5421331276955 627.0718729457717 L 615.8663308968605 630.2681696376662 L 617.9395358910622 633.732822652803 L 619.7435939660133 637.443139310823 L 621.2603500237526 641.3764269313674 L 622.4716508736672 645.5099937877517 L 623.3593423714699 649.8211462459426 L 623.9052703728737 654.2871916255813 L 624.0912807335915 658.8854381999831 L 623.9052703728737 663.483684774385 L 623.3593423714699 667.9497301540237 L 622.4716508736672 672.2608826122146 L 621.2603500237526 676.3944494685989 L 619.7435939660133 680.3277370891433 L 617.9395358910622 684.0380537471633 L 615.8663308968605 687.5027067623 L 613.5421331276955 690.6990034541946 L 610.9850957741799 693.604251142488 L 608.2133729806008 696.1957571468215 L 605.2451198449196 698.4508297405105 L 602.0984895577492 700.3467752895217 L 598.7916362633766 701.8609011134963 L 595.342714106089 702.9705154857497 L 591.7698772301735 703.6529247722488 L 589.516225611216 703.7953712901931 L 597.0912807335915 712.8854381999831 Z" fill="purple"/>
<path d=" M 489.88543819998307 758.3380852144492 L 497.46049332235856 749.2480183046591 L 495.20684170340104 749.1055717867148 L 491.6340048274855 748.4231625002158 L 488.1850826701979 747.3135481279623 L 484.87822937582536 745.7994223039877 L 481.73159908865495 743.9034767549765 L 478.7633459529738 741.6484041612875 L 475.9916231593947 739.056898156954 L 473.43458580587907 736.1516504686606 L 471.110388036714 732.9553537767661 L 469.03718304251237 729.4907007616293 L 467.2331249675612 725.7803841036093 L 465.71636890982194 721.8470964830649 L 464.5050680599074 717.7135296266806 L 463.61737656210465 713.4023771684897 L 463.07144856070084 708.936331788851 L 462.88543819998307 704.3380852144492 L 463.07144856070084 699.7398386400473 L 463.61737656210465 695.2737932604086 L 464.5050680599074 690.9626408022177 L 465.71636890982194 686.8290739458334 L 467.2331249675612 682.895786325289 L 469.03718304251237 679.185469667269 L 471.110388036714 675.7208166521323 L 473.43458580587907 672.5245199602377 L 475.9916231593947 669.6192722719443 L 478.7633459529738 667.0277662676108 L 481.73159908865495 664.7726936739218 L 484.87822937582536 662.8767481249106 L 488.1850826701979 661.362622300936 L 491.6340048274855 660.2530079286826 L 495.20684170340104 659.5705986421835 L 498.88543819998307 659.3380852144492 L 502.5640346965651 659.5705986421835 L 506.13687157248063 660.2530079286826 L 509.5857937297682 661.362622300936 L 512.8926470241408 662.8767481249106 L 516.0392773113113 664.7726936739218 L 519.0075304469924 667.0277662676108 L 521.7792532405715 669.6192722719443 L 524.3362905940871 672.5245199602377 L 526.6604883632522 675.7208166521323 L 528.7336933574538 679.185469667269 L 530.537751432405 682.895786325289 L 532.0545074901443 686.8290739458334 L 533.2658083400588 690.9626408022177 L 534.1534998378615 695.2737932604086 L 534.6994278392654 699.7398386400473 L 534.8854381999831 704.3380852144492 L 534.6994278392654 708.936331788851 L 534.1534998378615 713.4023771684897 L 533.2658083400588 717.7135296266806 L 532.0545074901443 721.8470964830649 L 530.537751432405 725.7803841036093 L 528.7336933574538 729.4907007616293 L 526.6604883632522 732.9553537767661 L 524.3362905940871 736.1516504686606 L 521.7792532405715 739.056898156954 L 519.0075304469924 741.6484041612875 L 516.0392773113113 743.9034767549765 L 512.8926470241408 745.7994223039877 L 509.5857937297682 747.3135481279623 L 506.13687157248063 748.4231625002158 L 502.5640346965651 749.1055717867148 L 500.3103830776076 749.2480183046591 L 507.88543819998307 758.3380852144492 Z" fill="white"/>
<path d=" M 391.0 774.0 L 398.5750551223755 764.90993309021 L 396.32140350341797 764.7674865722656 L 392.74856662750244 764.0850772857666 L 389.29964447021484 762.9754629135132 L 385.9927911758423 761.4613370895386 L 382.8461608886719 759.5653915405273 L 379.8779077529907 757.3103189468384 L 377.1061849594116 754.7188129425049 L 374.549147605896 751.8135652542114 L 372.22494983673096 748.6172685623169 L 370.1517448425293 745.1526155471802 L 368.3476867675781 741.4422988891602 L 366.83093070983887 737.5090112686157 L 365.6196298599243 733.3754444122314 L 364.7319383621216 729.0642919540405 L 364.1860103607178 724.5982465744019 L 364.0 720.0 L 364.1860103607178 715.4017534255981 L 364.7319383621216 710.9357080459595 L 365.6196298599243 706.6245555877686 L 366.83093070983887 702.4909887313843 L 368.3476867675781 698.5577011108398 L 370.1517448425293 694.8473844528198 L 372.22494983673096 691.3827314376831 L 374.549147605896 688.1864347457886 L 377.1061849594116 685.2811870574951 L 379.8779077529907 682.6896810531616 L 382.8461608886719 680.4346084594727 L 385.9927911758423 678.5386629104614 L 389.29964447021484 677.0245370864868 L 392.74856662750244 675.9149227142334 L 396.32140350341797 675.2325134277344 L 400.0 675.0 L 403.67859649658203 675.2325134277344 L 407.25143337249756 675.9149227142334 L 410.70035552978516 677.0245370864868 L 414.0072088241577 678.5386629104614 L 417.1538391113281 680.4346084594727 L 420.1220922470093 682.6896810531616 L 422.8938150405884 685.2811870574951 L 425.450852394104 688.1864347457886 L 427.77505016326904 691.3827314376831 L 429.8482551574707 694.8473844528198 L 431.6523132324219 698.5577011108398 L 433.16906929016113 702.4909887313843 L 434.3803701400757 706.6245555877686 L 435.2680616378784 710.9357080459595 L 435.8139896392822 715.4017534255981 L 436.0 720.0 L 435.8139896392822 724.5982465744019 L 435.2680616378784 729.0642919540405 L 434.3803701400757 733.3754444122314 L 433.16906929016113 737.5090112686157 L 431.6523132324219 741.4422988891602 L 429.8482551574707 745.1526155471802 L 427.77505016326904 748.6172685623169 L 425.450852394104 751.8135652542114 L 422.8938150405884 754.7188129425049 L 420.1220922470093 757.3103189468384 L 417.1538391113281 759.5653915405273 L 414.0072088241577 761.4613370895386 L 410.70035552978516 762.9754629135132 L 407.25143337249756 764.0850772857666 L 403.67859649658203 764.7674865722656 L 401.4249448776245 764.90993309021 L 409.0 774.0 Z" fill="purple"/>
<path d=" M 292.11456180001676 758.3380852144492 L 299.68961692239225 749.2480183046591 L 297.4359653034347 749.1055717867148 L 293.8631284275192 748.4231625002158 L 290.4142062702316 747.3135481279623 L 287.10735297585904 745.7994223039877 L 283.96072268868863 743.9034767549765 L 280.9924695530075 741.6484041612875 L 278.2207467594284 739.056898156954 L 275.66370940591275 736.1516504686606 L 273.3395116367477 732.9553537767661 L 271.26630664254606 729.4907007616293 L 269.4622485675949 725.7803841036093 L 267.9454925098556 721.8470964830649 L 266.7341916599411 717.7135296266806 L 265.84650016213834 713.4023771684897 L 265.30057216073453 708.936331788851 L 265.11456180001676 704.3380852144492 L 265.30057216073453 699.7398386400473 L 265.84650016213834 695.2737932604086 L 266.7341916599411 690.9626408022177 L 267.9454925098556 686.8290739458334 L 269.4622485675949 682.895786325289 L 271.26630664254606 679.185469667269 L 273.3395116367477 675.7208166521323 L 275.66370940591275 672.5245199602377 L 278.2207467594284 669.6192722719443 L 280.9924695530075 667.0277662676108 L 283.96072268868863 664.7726936739218 L 287.10735297585904 662.8767481249106 L 290.4142062702316 661.362622300936 L 293.8631284275192 660.2530079286826 L 297.4359653034347 659.5705986421835 L 301.11456180001676 659.3380852144492 L 304.7931582965988 659.5705986421835 L 308.3659951725143 660.2530079286826 L 311.8149173298019 661.362622300936 L 315.1217706241745 662.8767481249106 L 318.2684009113449 664.7726936739218 L 321.23665404702604 667.0277662676108 L 324.00837684060514 669.6192722719443 L 326.56541419412076 672.5245199602377 L 328.8896119632858 675.7208166521323 L 330.96281695748746 679.185469667269 L 332.76687503243863 682.895786325289 L 334.2836310901779 686.8290739458334 L 335.49493194009244 690.9626408022177 L 336.3826234378952 695.2737932604086 L 336.928551439299 699.7398386400473 L 337.11456180001676 704.3380852144492 L 336.928551439299 708.936331788851 L 336.3826234378952 713.4023771684897 L 335.49493194009244 717.7135296266806 L 334.2836310901779 721.8470964830649 L 332.76687503243863 725.7803841036093 L 330.96281695748746 729.4907007616293 L 328.8896119632858 732.9553537767661 L 326.56541419412076 736.1516504686606 L 324.00837684060514 739.056898156954 L 321.23665404702604 741.6484041612875 L 318.2684009113449 743.9034767549765 L 315.1217706241745 745.7994223039877 L 311.8149173298019 747.3135481279623 L 308.3659951725143 748.4231625002158 L 304.7931582965988 749.1055717867148 L 302.53950667764127 749.2480183046591 L 310.11456180001676 758.3380852144492 Z" fill="white"/>
<path d=" M 202.90871926640853 712.8854381999831 L 210.483774388784 703.7953712901931 L 208.2301227698265 703.6529247722488 L 204.65728589391097 702.9705154857497 L 201.20836373662337 701.8609011134963 L 197.9015104422508 700.3467752895217 L 194.7548801550804 698.4508297405105 L 191.78662701939925 696.1957571468215 L 189.01490422582015 693.604251142488 L 186.45786687230452 690.6990034541946 L 184.13366910313948 687.5027067623 L 182.06046410893782 684.0380537471633 L 180.25640603398665 680.3277370891433 L 178.7396499762474 676.3944494685989 L 177.52834912633284 672.2608826122146 L 176.6406576285301 667.9497301540237 L 176.0947296271263 663.483684774385 L 175.90871926640853 658.8854381999831 L 176.0947296271263 654.2871916255813 L 176.6406576285301 649.8211462459426 L 177.52834912633284 645.5099937877517 L 178.7396499762474 641.3764269313674 L 180.25640603398665 637.443139310823 L 182.06046410893782 633.732822652803 L 184.13366910313948 630.2681696376662 L 186.45786687230452 627.0718729457717 L 189.01490422582015 624.1666252574782 L 191.78662701939925 621.5751192531447 L 194.7548801550804 619.3200466594558 L 197.9015104422508 617.4241011104446 L 201.20836373662337 615.90997528647 L 204.65728589391097 614.8003609142165 L 208.2301227698265 614.1179516277175 L 211.90871926640853 613.8854381999831 L 215.58731576299056 614.1179516277175 L 219.16015263890608 614.8003609142165 L 222.60907479619368 615.90997528647 L 225.91592809056624 617.4241011104446 L 229.06255837773665 619.3200466594558 L 232.0308115134178 621.5751192531447 L 234.8025343069969 624.1666252574782 L 237.35957166051253 627.0718729457717 L 239.68376942967757 630.2681696376662 L 241.75697442387923 633.732822652803 L 243.5610324988304 637.443139310823 L 245.07778855656966 641.3764269313674 L 246.2890894064842 645.5099937877517 L 247.17678090428694 649.8211462459426 L 247.72270890569075 654.2871916255813 L 247.90871926640853 658.8854381999831 L 247.72270890569075 663.483684774385 L 247.17678090428694 667.9497301540237 L 246.2890894064842 672.2608826122146 L 245.07778855656966 676.3944494685989 L 243.5610324988304 680.3277370891433 L 241.75697442387923 684.0380537471633 L 239.68376942967757 687.5027067623 L 237.35957166051253 690.6990034541946 L 234.8025343069969 693.604251142488 L 232.0308115134178 696.1957571468215 L 229.06255837773665 698.4508297405105 L 225.91592809056624 700.3467752895217 L 222.60907479619368 701.8609011134963 L 219.16015263890608 702.9705154857497 L 215.58731576299056 703.6529247722488 L 213.33366414403304 703.7953712901931 L 220.90871926640853 712.8854381999831 Z" fill="purple"/>
<path d=" M 132.11456180001687 642.0912807335915 L 139.68961692239236 633.0012138238014 L 137.43596530343484 632.8587673058571 L 133.8631284275193 632.1763580193581 L 130.41420627023172 631.0667436471047 L 127.10735297585916 629.55261782313 L 123.96072268868875 627.6566722741188 L 120.9924695530076 625.4015996804299 L 118.2207467594285 622.8100936760964 L 115.66370940591287 619.9048459878029 L 113.33951163674783 616.7085492959084 L 111.26630664254617 613.2438962807717 L 109.462248567595 609.5335796227516 L 107.94549250985574 605.6002920022072 L 106.73419165994119 601.4667251458229 L 105.84650016213845 597.155572687632 L 105.30057216073465 592.6895273079933 L 105.11456180001687 588.0912807335915 L 105.30057216073465 583.4930341591896 L 105.84650016213845 579.026988779551 L 106.73419165994119 574.71583632136 L 107.94549250985574 570.5822694649758 L 109.462248567595 566.6489818444313 L 111.26630664254617 562.9386651864113 L 113.33951163674783 559.4740121712746 L 115.66370940591287 556.27771547938 L 118.2207467594285 553.3724677910866 L 120.9924695530076 550.7809617867531 L 123.96072268868875 548.5258891930641 L 127.10735297585916 546.6299436440529 L 130.41420627023172 545.1158178200783 L 133.8631284275193 544.0062034478249 L 137.43596530343484 543.3237941613258 L 141.11456180001687 543.0912807335915 L 144.7931582965989 543.3237941613258 L 148.36599517251443 544.0062034478249 L 151.81491732980203 545.1158178200783 L 155.1217706241746 546.6299436440529 L 158.268400911345 548.5258891930641 L 161.23665404702615 550.7809617867531 L 164.00837684060525 553.3724677910866 L 166.56541419412088 556.27771547938 L 168.88961196328592 559.4740121712746 L 170.96281695748758 562.9386651864113 L 172.76687503243875 566.6489818444313 L 174.283631090178 570.5822694649758 L 175.49493194009256 574.71583632136 L 176.3826234378953 579.026988779551 L 176.9285514392991 583.4930341591896 L 177.11456180001687 588.0912807335915 L 176.9285514392991 592.6895273079933 L 176.3826234378953 597.155572687632 L 175.49493194009256 601.4667251458229 L 174.283631090178 605.6002920022072 L 172.76687503243875 609.5335796227516 L 170.96281695748758 613.2438962807717 L 168.88961196328592 616.7085492959084 L 166.56541419412088 619.9048459878029 L 164.00837684060525 622.8100936760964 L 161.23665404702615 625.4015996804299 L 158.268400911345 627.6566722741188 L 155.1217706241746 629.55261782313 L 151.81491732980203 631.0667436471047 L 148.36599517251443 632.1763580193581 L 144.7931582965989 632.8587673058571 L 142.53950667764138 633.0012138238014 L 150.11456180001687 642.0912807335915 Z" fill="white"/>
<path d=" M 86.66191478555083 552.8854381999831 L 94.23696990792632 543.7953712901931 L 91.9833182889688 543.6529247722488 L 88.41048141305328 542.9705154857497 L 84.96155925576568 541.8609011134963 L 81.65470596139312 540.3467752895217 L 78.50807567422271 538.4508297405105 L 75.53982253854156 536.1957571468215 L 72.76809974496246 533.604251142488 L 70.21106239144683 530.6990034541946 L 67.88686462228179 527.5027067623 L 65.81365962808013 524.0380537471633 L 64.00960155312896 520.3277370891433 L 62.4928454953897 516.3944494685989 L 61.28154464547515 512.2608826122146 L 60.39385314767242 507.9497301540236 L 59.84792514626861 503.4836847743849 L 59.661914785550834 498.88543819998307 L 59.84792514626861 494.2871916255812 L 60.39385314767242 489.82114624594254 L 61.28154464547515 485.5099937877516 L 62.4928454953897 481.37642693136735 L 64.00960155312896 477.4431393108229 L 65.81365962808013 473.7328226528029 L 67.88686462228179 470.2681696376662 L 70.21106239144683 467.07187294577164 L 72.76809974496246 464.1666252574782 L 75.53982253854156 461.5751192531447 L 78.50807567422271 459.3200466594557 L 81.65470596139312 457.4241011104445 L 84.96155925576568 455.9099752864699 L 88.41048141305328 454.80036091421647 L 91.9833182889688 454.11795162771745 L 95.66191478555083 453.88543819998307 L 99.34051128213287 454.11795162771745 L 102.9133481580484 454.80036091421647 L 106.36227031533599 455.9099752864699 L 109.66912360970855 457.4241011104445 L 112.81575389687896 459.3200466594557 L 115.78400703256011 461.5751192531447 L 118.55572982613921 464.1666252574782 L 121.11276717965484 467.07187294577164 L 123.43696494881988 470.2681696376662 L 125.51016994302154 473.7328226528029 L 127.31422801797271 477.4431393108229 L 128.83098407571197 481.37642693136735 L 130.04228492562652 485.5099937877516 L 130.92997642342925 489.82114624594254 L 131.47590442483306 494.2871916255812 L 131.66191478555083 498.88543819998307 L 131.47590442483306 503.4836847743849 L 130.92997642342925 507.9497301540236 L 130.04228492562652 512.2608826122146 L 128.83098407571197 516.3944494685989 L 127.31422801797271 520.3277370891433 L 125.51016994302154 524.0380537471633 L 123.43696494881988 527.5027067623 L 121.11276717965484 530.6990034541946 L 118.55572982613921 533.604251142488 L 115.78400703256011 536.1957571468215 L 112.81575389687896 538.4508297405105 L 109.66912360970855 540.3467752895217 L 106.36227031533599 541.8609011134963 L 102.9133481580484 542.9705154857497 L 99.34051128213287 543.6529247722488 L 97.08685966317535 543.7953712901931 L 104.66191478555083 552.8854381999831 Z" fill="purple"/>
<path d=" M 71.0 454.00000000000006 L 78.57505512237549 444.90993309021 L 76.32140350341797 444.7674865722657 L 72.74856662750244 444.08507728576666 L 69.29964447021484 442.97546291351324 L 65.99279117584229 441.46133708953863 L 62.846160888671875 439.5653915405274 L 59.87790775299072 437.31031894683844 L 57.10618495941162 434.71881294250494 L 54.549147605895996 431.8135652542115 L 52.22494983673096 428.61726856231695 L 50.1517448425293 425.15261554718023 L 48.347686767578125 421.4422988891602 L 46.83093070983887 417.5090112686158 L 45.619629859924316 413.3754444122315 L 44.73193836212158 409.0642919540406 L 44.18601036071777 404.5982465744019 L 44.0 400.00000000000006 L 44.18601036071777 395.4017534255982 L 44.73193836212158 390.93570804595953 L 45.619629859924316 386.6245555877686 L 46.83093070983887 382.49098873138433 L 48.347686767578125 378.5577011108399 L 50.1517448425293 374.8473844528199 L 52.22494983673096 371.38273143768316 L 54.549147605895996 368.18643474578863 L 57.10618495941162 365.2811870574952 L 59.87790775299072 362.6896810531617 L 62.846160888671875 360.4346084594727 L 65.99279117584229 358.5386629104615 L 69.29964447021484 357.0245370864869 L 72.74856662750244 355.91492271423346 L 76.32140350341797 355.23251342773443 L 80.0 355.00000000000006 L 83.67859649658203 355.23251342773443 L 87.25143337249756 355.91492271423346 L 90.70035552978516 357.0245370864869 L 94.00720882415771 358.5386629104615 L 97.15383911132812 360.4346084594727 L 100.12209224700928 362.6896810531617 L 102.89381504058838 365.2811870574952 L 105.450852394104 368.18643474578863 L 107.77505016326904 371.38273143768316 L 109.8482551574707 374.8473844528199 L 111.65231323242188 378.5577011108399 L 113.16906929016113 382.49098873138433 L 114.38037014007568 386.6245555877686 L 115.26806163787842 390.93570804595953 L 115.81398963928223 395.4017534255982 L 116.0 400.00000000000006 L 115.81398963928223 404.5982465744019 L 115.26806163787842 409.0642919540406 L 114.38037014007568 413.3754444122315 L 113.16906929016113 417.5090112686158 L 111.65231323242188 421.4422988891602 L 109.8482551574707 425.15261554718023 L 107.77505016326904 428.61726856231695 L 105.450852394104 431.8135652542115 L 102.89381504058838 434.71881294250494 L 100.12209224700928 437.31031894683844 L 97.15383911132812 439.5653915405274 L 94.00720882415771 441.46133708953863 L 90.70035552978516 442.97546291351324 L 87.25143337249756 444.08507728576666 L 83.67859649658203 444.7674865722657 L 81.42494487762451 444.90993309021 L 89.0 454.00000000000006 Z" fill="white"/>
<path d=" M 250.0 500.0 L 250.0 300.0 L 350.0 300.0 L 380.0 250.0 L 460.0 250.0 L 490.0 300.0 L 490.0 285.0 L 540.0 285.0 L 540.0 300.0 L 550.0 300.0 L 550.0 500.0 Z M 420.0 480.0 L 421.5706949234009 479.9845790863037 L 423.14078521728516 479.93832206726074 L 424.7096633911133 479.8612480163574 L 426.2767267227173 479.75338649749756 L 427.84137058258057 479.61477756500244 L 429.40299129486084 479.4454765319824 L 430.96098709106445 479.2455463409424 L 432.51475715637207 479.0150671005249 L 434.0637016296387 478.75412464141846 L 435.6072254180908 478.4628219604492 L 437.14473152160645 478.1412696838379 L 438.6756286621094 477.7895927429199 L 440.19932556152344 477.40792655944824 L 441.71523571014404 476.9964179992676 L 443.2227735519409 476.55522632598877 L 444.7213592529297 476.08452129364014 L 446.2104139328003 475.5844831466675 L 447.6893644332886 475.05530643463135 L 449.157639503479 474.49719429016113 L 450.61467456817627 473.91036224365234 L 452.0599060058594 473.29503631591797 L 453.4927787780762 472.6514530181885 L 454.9127388000488 471.97986221313477 L 456.31923961639404 471.28052139282227 L 457.7117385864258 470.5537004470825 L 459.0896987915039 469.79967975616455 L 460.4525890350342 469.01875019073486 L 461.7998847961426 468.21121311187744 L 463.13106536865234 467.3773784637451 L 464.44561862945557 466.51756858825684 L 465.7430362701416 465.6321153640747 L 467.02281951904297 464.7213592529297 L 468.2844753265381 463.78565216064453 L 469.52751541137695 462.8253536224365 L 470.75146198272705 461.84083557128906 L 471.95584297180176 460.83247661590576 L 473.1401948928833 459.8006658554077 L 474.3040590286255 458.74580001831055 L 475.4469881057739 457.6682872772217 L 476.56854248046875 456.56854248046875 L 477.6682872772217 455.4469881057739 L 478.74580001831055 454.3040590286255 L 479.8006658554077 453.1401948928833 L 480.83247661590576 451.95584297180176 L 481.84083557128906 450.75146198272705 L 482.8253536224365 449.52751541137695 L 483.78565216064453 448.2844753265381 L 484.7213592529297 447.02281951904297 L 485.6321153640747 445.7430362701416 L 486.51756858825684 444.44561862945557 L 487.3773784637451 443.13106536865234 L 488.21121311187744 441.7998847961426 L 489.01875019073486 440.4525890350342 L 489.79967975616455 439.0896987915039 L 490.5537004470825 437.7117385864258 L 491.28052139282227 436.31923961639404 L 491.97986221313477 434.9127388000488 L 492.6514530181885 433.4927787780762 L 493.29503631591797 432.0599060058594 L 493.91036224365234 430.61467456817627 L 494.49719429016113 429.157639503479 L 495.05530643463135 427.6893644332886 L 495.5844831466675 426.2104139328003 L 496.08452129364014 424.7213592529297 L 496.55522632598877 423.2227735519409 L 496.9964179992676 421.71523571014404 L 497.40792655944824 420.19932556152344 L 497.7895927429199 418.6756286621094 L 498.1412696838379 417.14473152160645 L 498.4628219604492 415.6072254180908 L 498.75412464141846 414.0637016296387 L 499.0150671005249 412.51475715637207 L 499.2455463409424 410.96098709106445 L 499.4454765319824 409.40299129486084 L 499.61477756500244 407.84137058258057 L 499.75338649749756 406.2767267227173 L 499.8612480163574 404.7096633911133 L 499.93832206726074 403.14078521728516 L 499.9845790863037 401.5706949234009 L 500.0 400.0 L 499.9845790863037 398.4293041229248 L 499.93832206726074 396.8592138290405 L 499.8612480163574 395.2903356552124 L 499.75338649749756 393.7232723236084 L 499.61477756500244 392.1586284637451 L 499.4454765319824 390.59700775146484 L 499.2455463409424 389.03901195526123 L 499.0150671005249 387.4852418899536 L 498.75412464141846 385.936297416687 L 498.4628219604492 384.39277362823486 L 498.1412696838379 382.85526752471924 L 497.7895927429199 381.3243703842163 L 497.40792655944824 379.80067348480225 L 496.9964179992676 378.28476333618164 L 496.55522632598877 376.77722549438477 L 496.08452129364014 375.278639793396 L 495.5844831466675 373.7895851135254 L 495.05530643463135 372.3106346130371 L 494.49719429016113 370.8423595428467 L 493.91036224365234 369.3853244781494 L 493.29503631591797 367.9400930404663 L 492.6514530181885 366.5072202682495 L 491.97986221313477 365.08726024627686 L 491.28052139282227 363.68075942993164 L 490.5537004470825 362.2882604598999 L 489.79967975616455 360.9103002548218 L 489.01875019073486 359.5474100112915 L 488.21121311187744 358.2001142501831 L 487.3773784637451 356.86893367767334 L 486.51756858825684 355.5543804168701 L 485.6321153640747 354.2569627761841 L 484.7213592529297 352.9771795272827 L 483.78565216064453 351.7155237197876 L 482.8253536224365 350.47248363494873 L 481.84083557128906 349.24853706359863 L 480.83247661590576 348.0441560745239 L 479.8006658554077 346.8598041534424 L 478.74580001831055 345.6959400177002 L 477.6682872772217 344.55301094055176 L 476.56854248046875 343.43145656585693 L 475.4469881057739 342.331711769104 L 474.3040590286255 341.25419902801514 L 473.1401948928833 340.19933319091797 L 471.95584297180176 339.1675224304199 L 470.75146198272705 338.1591634750366 L 469.52751541137695 337.17464542388916 L 468.2844753265381 336.21434688568115 L 467.02281951904297 335.278639793396 L 465.7430362701416 334.367883682251 L 464.44561862945557 333.48243045806885 L 463.13106536865234 332.62262058258057 L 461.7998847961426 331.78878593444824 L 460.4525890350342 330.9812488555908 L 459.0896987915039 330.20031929016113 L 457.7117385864258 329.44629859924316 L 456.31923961639404 328.7194776535034 L 454.9127388000488 328.0201368331909 L 453.4927787780762 327.3485460281372 L 452.0599060058594 326.7049627304077 L 450.61467456817627 326.08963680267334 L 449.157639503479 325.50280475616455 L 447.6893644332886 324.94469261169434 L 446.2104139328003 324.4155158996582 L 444.7213592529297 323.91547775268555 L 443.2227735519409 323.4447727203369 L 441.71523571014404 323.0035810470581 L 440.19932556152344 322.59207248687744 L 438.6756286621094 322.21040630340576 L 437.14473152160645 321.8587293624878 L 435.6072254180908 321.53717708587646 L 434.0637016296387 321.2458744049072 L 432.51475715637207 320.9849319458008 L 430.96098709106445 320.7544527053833 L 429.40299129486084 320.55452251434326 L 427.84137058258057 320.38522148132324 L 426.2767267227173 320.2466125488281 L 424.7096633911133 320.13875102996826 L 423.14078521728516 320.06167697906494 L 421.5706949234009 320.015419960022 L 420.0 320.0 L 418.4293041229248 320.015419960022 L 416.8592138290405 320.06167697906494 L 415.2903356552124 320.13875102996826 L 413.7232723236084 320.2466125488281 L 412.1586284637451 320.38522148132324 L 410.59700775146484 320.55452251434326 L 409.03901195526123 320.7544527053833 L 407.4852418899536 320.9849319458008 L 405.936297416687 321.2458744049072 L 404.39277362823486 321.53717708587646 L 402.85526752471924 321.8587293624878 L 401.3243703842163 322.21040630340576 L 399.80067348480225 322.59207248687744 L 398.28476333618164 323.0035810470581 L 396.77722549438477 323.4447727203369 L 395.278639793396 323.91547775268555 L 393.7895851135254 324.4155158996582 L 392.3106346130371 324.94469261169434 L 390.8423595428467 325.50280475616455 L 389.3853244781494 326.08963680267334 L 387.9400930404663 326.7049627304077 L 386.5072202682495 327.3485460281372 L 385.08726024627686 328.0201368331909 L 383.68075942993164 328.7194776535034 L 382.2882604598999 329.44629859924316 L 380.9103002548218 330.20031929016113 L 379.5474100112915 330.9812488555908 L 378.2001142501831 331.78878593444824 L 376.86893367767334 332.62262058258057 L 375.5543804168701 333.48243045806885 L 374.2569627761841 334.367883682251 L 372.9771795272827 335.278639793396 L 371.7155237197876 336.21434688568115 L 370.47248363494873 337.17464542388916 L 369.24853706359863 338.1591634750366 L 368.0441560745239 339.1675224304199 L 366.8598041534424 340.19933319091797 L 365.6959400177002 341.25419902801514 L 364.55301094055176 342.331711769104 L 363.43145656585693 343.43145656585693 L 362.331711769104 344.55301094055176 L 361.25419902801514 345.6959400177002 L 360.19933319091797 346.8598041534424 L 359.1675224304199 348.0441560745239 L 358.1591634750366 349.24853706359863 L 357.17464542388916 350.47248363494873 L 356.21434688568115 351.7155237197876 L 355.278639793396 352.9771795272827 L 354.367883682251 354.2569627761841 L 353.48243045806885 355.5543804168701 L 352.62262058258057 356.86893367767334 L 351.78878593444824 358.2001142501831 L 350.9812488555908 359.5474100112915 L 350.20031929016113 360.9103002548218 L 349.44629859924316 362.2882604598999 L 348.7194776535034 363.68075942993164 L 348.0201368331909 365.08726024627686 L 347.3485460281372 366.5072202682495 L 346.7049627304077 367.9400930404663 L 346.08963680267334 369.3853244781494 L 345.50280475616455 370.8423595428467 L 344.94469261169434 372.3106346130371 L 344.4155158996582 373.7895851135254 L 343.91547775268555 375.278639793396 L 343.4447727203369 376.77722549438477 L 343.0035810470581 378.28476333618164 L 342.59207248687744 379.80067348480225 L 342.21040630340576 381.3243703842163 L 341.8587293624878 382.85526752471924 L 341.53717708587646 384.39277362823486 L 341.2458744049072 385.936297416687 L 340.9849319458008 387.4852418899536 L 340.7544527053833 389.03901195526123 L 340.55452251434326 390.59700775146484 L 340.38522148132324 392.1586284637451 L 340.2466125488281 393.7232723236084 L 340.13875102996826 395.2903356552124 L 340.06167697906494 396.8592138290405 L 340.015419960022 398.4293041229248 L 340.0 400.0 L 340.015419960022 401.5706949234009 L 340.06167697906494 403.14078521728516 L 340.13875102996826 404.7096633911133 L 340.2466125488281 406.2767267227173 L 340.38522148132324 407.84137058258057 L 340.55452251434326 409.40299129486084 L 340.7544527053833 410.96098709106445 L 340.9849319458008 412.51475715637207 L 341.2458744049072 414.0637016296387 L 341.53717708587646 415.6072254180908 L 341.8587293624878 417.14473152160645 L 342.21040630340576 418.6756286621094 L 342.59207248687744 420.19932556152344 L 343.0035810470581 421.71523571014404 L 343.4447727203369 423.2227735519409 L 343.91547775268555 424.7213592529297 L 344.4155158996582 426.2104139328003 L 344.94469261169434 427.6893644332886 L 345.50280475616455 429.157639503479 L 346.08963680267334 430.61467456817627 L 346.7049627304077 432.0599060058594 L 347.3485460281372 433.4927787780762 L 348.0201368331909 434.9127388000488 L 348.7194776535034 436.31923961639404 L 349.44629859924316 437.7117385864258 L 350.20031929016113 439.0896987915039 L 350.9812488555908 440.4525890350342 L 351.78878593444824 441.7998847961426 L 352.62262058258057 443.13106536865234 L 353.48243045806885 444.44561862945557 L 354.367883682251 445.7430362701416 L 355.278639793396 447.02281951904297 L 356.21434688568115 448.2844753265381 L 357.17464542388916 449.52751541137695 L 358.1591634750366 450.75146198272705 L 359.1675224304199 451.95584297180176 L 360.19933319091797 453.1401948928833 L 361.25419902801514 454.3040590286255 L 362.331711769104 455.4469881057739 L 363.43145656585693 456.56854248046875 L 364.55301094055176 457.6682872772217 L 365.6959400177002 458.74580001831055 L 366.8598041534424 459.8006658554077 L 368.0441560745239 460.83247661590576 L 369.24853706359863 461.84083557128906 L 370.47248363494873 462.8253536224365 L 371.7155237197876 463.78565216064453 L 372.9771795272827 464.7213592529297 L 374.2569627761841 465.6321153640747 L 375.5543804168701 466.51756858825684 L 376.86893367767334 467.3773784637451 L 378.2001142501831 468.21121311187744 L 379.5474100112915 469.01875019073486 L 380.9103002548218 469.79967975616455 L 382.2882604598999 470.5537004470825 L 383.68075942993164 471.28052139282227 L 385.08726024627686 471.97986221313477 L 386.5072202682495 472.6514530181885 L 387.9400930404663 473.29503631591797 L 389.3853244781494 473.91036224365234 L 390.8423595428467 474.49719429016113 L 392.3106346130371 475.05530643463135 L 393.7895851135254 475.5844831466675 L 395.278639793396 476.08452129364014 L 396.77722549438477 476.55522632598877 L 398.28476333618164 476.9964179992676 L 399.80067348480225 477.40792655944824 L 401.3243703842163 477.7895927429199 L 402.85526752471924 478.1412696838379 L 404.39277362823486 478.4628219604492 L 405.936297416687 478.75412464141846 L 407.4852418899536 479.0150671005249 L 409.03901195526123 479.2455463409424 L 410.59700775146484 479.4454765319824 L 412.1586284637451 479.61477756500244 L 413.7232723236084 479.75338649749756 L 415.2903356552124 479.8612480163574 L 416.8592138290405 479.93832206726074 L 418.4293041229248 479.9845790863037 Z" fill="black"/>
<rect x="250" y="340" width="70" height="8" fill="darkred"/>
</svg>
