
<svg version="1.1"
     xmlns="http://www.w3.org/2000/svg"
     width="800"
     height="803.85828036">
<rect x="0" y="0" width="800" height="800" fill="lightgrey"/>
<circle cx="0.09149985" cy="576.25959475" r="4" fill="rgb(106, 183, 0)"/>
<circle cx="73.87087582" cy="117.40471265" r="3" fill="rgb(77, 37, 23)"/>
<circle cx="317.41397938" cy="276.44858163" r="2" fill="rgb(47, 88, 101)"/>
<circle cx="548.17560032" cy="335.35561152" r="5" fill="rgb(137, 106, 174)"/>
<circle cx="21.91007456" cy="702.49394911" r="2" fill="rgb(52, 223, 6)"/>
<circle cx="446.95186276" cy="333.84384189" r="6" fill="rgb(170, 106, 142)"/>
<circle cx="640.59565494" cy="158.48119127" r="2" fill="rgb(35, 50, 204)"/>
<circle cx="553.85809254" cy="250.73934253" r="8" fill="rgb(246, 79, 176)"/>
<circle cx="68.0353691" cy="715.6853308" r="8" fill="rgb(223, 228, 21)"/>
<circle cx="702.51400274" cy="135.86433565" r="1" fill="rgb(9, 43, 223)"/>
<circle cx="766.31162412" cy="336.8861" r="1" fill="rgb(25, 107, 244)"/>
<circle cx="252.4125048" cy="553.50169116" r="5" fill="rgb(135, 176, 80)"/>
<circle cx="14.63062188" cy="667.70053752" r="6" fill="rgb(175, 212, 4)"/>
<circle cx="598.5325235" cy="791.08887113" r="7" fill="rgb(191, 252, 190)"/>
<circle cx="82.58080526" cy="631.42346276" r="3" fill="rgb(71, 201, 26)"/>
<circle cx="234.8913187" cy="726.87640247" r="4" fill="rgb(114, 231, 74)"/>
<circle cx="15.4935663" cy="104.02285769" r="3" fill="rgb(73, 33, 4)"/>
<circle cx="212.4373275" cy="169.3024928" r="6" fill="rgb(173, 53, 67)"/>
<circle cx="459.29408439" cy="42.69003609" r="4" fill="rgb(125, 13, 146)"/>
<circle cx="559.80668802" cy="471.44442952" r="2" fill="rgb(37, 150, 178)"/>
<circle cx="555.52012618" cy="331.24479026" r="1" fill="rgb(26, 105, 177)"/>
<circle cx="428.71712473" cy="39.96276716" r="4" fill="rgb(105, 12, 136)"/>
<circle cx="755.67580479" cy="411.91128965" r="6" fill="rgb(169, 131, 240)"/>
<circle cx="109.97976332" cy="722.72153223" r="5" fill="rgb(149, 230, 35)"/>
<circle cx="318.14146959" cy="645.91303097" r="2" fill="rgb(35, 205, 101)"/>
<circle cx="278.2126878" cy="742.00686432" r="2" fill="rgb(42, 236, 88)"/>
<circle cx="706.64487296" cy="580.79838828" r="7" fill="rgb(191, 185, 225)"/>
<circle cx="279.11867358" cy="600.75394722" r="5" fill="rgb(159, 191, 88)"/>
<circle cx="342.4729519" cy="716.70897456" r="3" fill="rgb(68, 228, 109)"/>
<circle cx="497.35657617" cy="530.75319825" r="8" fill="rgb(246, 169, 158)"/>
<circle cx="359.92970678" cy="759.59140697" r="1" fill="rgb(29, 242, 114)"/>
<circle cx="189.62158419" cy="326.50944221" r="5" fill="rgb(147, 104, 60)"/>
<circle cx="2.29626162" cy="458.94358934" r="8" fill="rgb(230, 146, 0)"/>
<circle cx="421.64648181" cy="261.31592142" r="5" fill="rgb(157, 83, 134)"/>
<circle cx="726.82812074" cy="285.815808" r="8" fill="rgb(225, 91, 231)"/>
<circle cx="743.549787" cy="12.65699428" r="5" fill="rgb(158, 4, 237)"/>
<circle cx="137.87240668" cy="797.85828036" r="6" fill="rgb(176, 254, 43)"/>
<circle cx="557.45452919" cy="746.07637043" r="2" fill="rgb(34, 237, 177)"/>
<circle cx="603.10095077" cy="604.37044208" r="1" fill="rgb(16, 192, 192)"/>
<circle cx="99.41676958" cy="569.2198069" r="8" fill="rgb(235, 181, 31)"/>
<circle cx="22.64519042" cy="20.9687895" r="1" fill="rgb(5, 6, 7)"/>
<circle cx="431.06485147" cy="688.02235895" r="2" fill="rgb(62, 219, 137)"/>
<circle cx="99.3386521" cy="673.62471389" r="5" fill="rgb(140, 214, 31)"/>
<circle cx="775.67659866" cy="468.60741717" r="3" fill="rgb(71, 149, 247)"/>
<circle cx="640.50613814" cy="14.9178315" r="5" fill="rgb(143, 4, 204)"/>
<circle cx="310.28851525" cy="645.6841565" r="2" fill="rgb(59, 205, 98)"/>
<circle cx="444.99218719" cy="597.69731419" r="7" fill="rgb(220, 190, 141)"/>
<circle cx="97.07476459" cy="47.93415161" r="2" fill="rgb(34, 15, 30)"/>
<circle cx="180.56747089" cy="85.99530328" r="1" fill="rgb(11, 27, 57)"/>
<circle cx="10.04478413" cy="447.77358564" r="6" fill="rgb(181, 142, 3)"/>
<circle cx="454.48036954" cy="773.821064" r="1" fill="rgb(18, 246, 144)"/>
<circle cx="595.06068326" cy="201.86059566" r="2" fill="rgb(51, 64, 189)"/>
<circle cx="776.01599127" cy="465.08714182" r="2" fill="rgb(49, 148, 247)"/>
<circle cx="395.01577141" cy="191.87820732" r="7" fill="rgb(215, 61, 125)"/>
<circle cx="125.43311572" cy="663.18471964" r="5" fill="rgb(158, 211, 39)"/>
<circle cx="389.07608875" cy="56.01771498" r="1" fill="rgb(4, 17, 124)"/>
<circle cx="253.88992746" cy="455.08114967" r="5" fill="rgb(154, 145, 80)"/>
<circle cx="304.1129381" cy="463.7961754" r="8" fill="rgb(252, 147, 96)"/>
<circle cx="535.38631476" cy="596.26754473" r="5" fill="rgb(140, 190, 170)"/>
<circle cx="296.06735833" cy="53.06786754" r="3" fill="rgb(67, 16, 94)"/>
<circle cx="602.20444299" cy="168.13920793" r="6" fill="rgb(160, 53, 191)"/>
<circle cx="643.80365099" cy="208.25207886" r="1" fill="rgb(16, 66, 205)"/>
<circle cx="419.7362473" cy="511.5687047" r="2" fill="rgb(49, 163, 133)"/>
<circle cx="52.76887255" cy="210.63741639" r="8" fill="rgb(235, 67, 16)"/>
<circle cx="726.252682" cy="617.74242363" r="6" fill="rgb(187, 196, 231)"/>
<circle cx="187.4896689" cy="11.16125838" r="8" fill="rgb(237, 3, 59)"/>
<circle cx="760.1408954" cy="759.21305655" r="5" fill="rgb(157, 241, 242)"/>
<circle cx="513.25296716" cy="732.48507981" r="5" fill="rgb(141, 233, 163)"/>
<circle cx="483.44838634" cy="388.79253368" r="4" fill="rgb(99, 123, 154)"/>
<circle cx="734.98674851" cy="740.94514137" r="5" fill="rgb(140, 236, 234)"/>
<circle cx="139.16453334" cy="770.61002275" r="4" fill="rgb(100, 245, 44)"/>
<circle cx="404.52973254" cy="108.06332644" r="2" fill="rgb(32, 34, 128)"/>
<circle cx="661.69237694" cy="758.37616897" r="1" fill="rgb(5, 241, 210)"/>
<circle cx="265.65085949" cy="140.95700446" r="1" fill="rgb(3, 44, 84)"/>
<circle cx="275.78932215" cy="647.5925537" r="2" fill="rgb(33, 206, 87)"/>
<circle cx="703.06558753" cy="465.61134396" r="8" fill="rgb(239, 148, 224)"/>
<circle cx="367.90421265" cy="724.31385497" r="7" fill="rgb(215, 230, 117)"/>
<circle cx="228.57508139" cy="638.88287292" r="5" fill="rgb(139, 203, 72)"/>
<circle cx="12.42662044" cy="479.28824612" r="4" fill="rgb(125, 152, 3)"/>
<circle cx="645.88842311" cy="346.94107919" r="5" fill="rgb(151, 110, 205)"/>
<circle cx="462.28577223" cy="714.31096682" r="3" fill="rgb(80, 227, 147)"/>
<circle cx="489.62494164" cy="630.34338706" r="2" fill="rgb(46, 200, 156)"/>
<circle cx="543.25506925" cy="336.154944" r="1" fill="rgb(13, 107, 173)"/>
<circle cx="781.40731922" cy="0.32161991" r="8" fill="rgb(234, 0, 249)"/>
<circle cx="483.77288078" cy="779.02683069" r="4" fill="rgb(96, 248, 154)"/>
<circle cx="502.46095865" cy="459.76920377" r="7" fill="rgb(211, 146, 160)"/>
<circle cx="600.01741096" cy="469.46667252" r="3" fill="rgb(72, 149, 191)"/>
<circle cx="558.44579876" cy="604.06575077" r="7" fill="rgb(218, 192, 178)"/>
<circle cx="536.63103263" cy="258.14479747" r="7" fill="rgb(220, 82, 171)"/>
<circle cx="328.64907994" cy="305.68220163" r="4" fill="rgb(114, 97, 104)"/>
<circle cx="497.53549434" cy="253.90715677" r="4" fill="rgb(102, 80, 158)"/>
<circle cx="542.24071315" cy="779.04166234" r="4" fill="rgb(109, 248, 172)"/>
<circle cx="274.67699182" cy="341.36080748" r="2" fill="rgb(50, 108, 87)"/>
<circle cx="723.07356466" cy="703.99863085" r="7" fill="rgb(203, 224, 230)"/>
<circle cx="201.8933612" cy="216.16660962" r="6" fill="rgb(168, 68, 64)"/>
<circle cx="641.7288672" cy="422.17171705" r="7" fill="rgb(217, 134, 204)"/>
<circle cx="415.20930197" cy="586.51402023" r="5" fill="rgb(145, 186, 132)"/>
<circle cx="372.56790287" cy="455.08639256" r="7" fill="rgb(196, 145, 118)"/>
<circle cx="302.33934346" cy="54.56747873" r="3" fill="rgb(87, 17, 96)"/>
<circle cx="145.29028106" cy="786.25369098" r="1" fill="rgb(20, 250, 46)"/>
<circle cx="550.73060191" cy="699.96931596" r="7" fill="rgb(207, 223, 175)"/>
<circle cx="373.50401821" cy="128.77714945" r="5" fill="rgb(145, 41, 119)"/>
<circle cx="474.00949501" cy="180.03196625" r="3" fill="rgb(88, 57, 151)"/>
<circle cx="727.70841996" cy="733.04444277" r="3" fill="rgb(79, 233, 231)"/>
<circle cx="154.37018562" cy="88.7130406" r="3" fill="rgb(65, 28, 49)"/>
<circle cx="166.55555073" cy="582.86853438" r="4" fill="rgb(127, 185, 53)"/>
<circle cx="332.67897461" cy="681.33749995" r="2" fill="rgb(63, 217, 106)"/>
<circle cx="81.57380754" cy="186.93291139" r="5" fill="rgb(157, 59, 26)"/>
<circle cx="122.13731527" cy="381.71278964" r="5" fill="rgb(131, 121, 38)"/>
<circle cx="523.30987758" cy="435.20809505" r="5" fill="rgb(158, 138, 166)"/>
<circle cx="177.63931184" cy="601.22225371" r="2" fill="rgb(36, 191, 56)"/>
<circle cx="17.86434239" cy="628.23682258" r="5" fill="rgb(132, 200, 5)"/>
<circle cx="675.76768608" cy="698.33790112" r="3" fill="rgb(82, 222, 215)"/>
<circle cx="759.84479308" cy="693.28661933" r="5" fill="rgb(137, 220, 242)"/>
<circle cx="78.99472146" cy="683.29235507" r="7" fill="rgb(210, 217, 25)"/>
<circle cx="488.19265012" cy="562.81359052" r="6" fill="rgb(166, 179, 155)"/>
<circle cx="616.19098764" cy="27.6569759" r="7" fill="rgb(203, 8, 196)"/>
<circle cx="205.65543906" cy="207.75871464" r="6" fill="rgb(186, 66, 65)"/>
<circle cx="637.27094241" cy="276.23796927" r="6" fill="rgb(161, 88, 203)"/>
<circle cx="792.3774269" cy="626.19953183" r="4" fill="rgb(113, 199, 252)"/>
<circle cx="721.04674908" cy="114.40466261" r="3" fill="rgb(76, 36, 229)"/>
<circle cx="509.28352" cy="779.79229668" r="5" fill="rgb(138, 248, 162)"/>
<circle cx="421.14074712" cy="436.85664331" r="8" fill="rgb(253, 139, 134)"/>
<circle cx="20.97485384" cy="284.56413679" r="2" fill="rgb(34, 90, 6)"/>
<circle cx="24.31975194" cy="596.50975417" r="2" fill="rgb(40, 190, 7)"/>
<circle cx="554.14217401" cy="689.87700227" r="3" fill="rgb(93, 219, 176)"/>
<circle cx="353.5234246" cy="150.90944076" r="6" fill="rgb(176, 48, 112)"/>
<circle cx="163.12498019" cy="791.80136613" r="5" fill="rgb(148, 252, 51)"/>
<circle cx="600.13793064" cy="209.73846702" r="2" fill="rgb(63, 66, 191)"/>
<circle cx="406.81299249" cy="45.54355073" r="4" fill="rgb(116, 14, 129)"/>
<circle cx="237.86510521" cy="638.88339581" r="2" fill="rgb(54, 203, 75)"/>
<circle cx="675.07234314" cy="474.74595957" r="1" fill="rgb(7, 151, 215)"/>
<circle cx="408.91318264" cy="599.88664858" r="4" fill="rgb(97, 191, 130)"/>
<circle cx="643.1687132" cy="767.54745685" r="5" fill="rgb(137, 244, 205)"/>
<circle cx="372.00118525" cy="567.50980099" r="1" fill="rgb(8, 180, 118)"/>
<circle cx="213.65761575" cy="177.14618746" r="8" fill="rgb(241, 56, 68)"/>
<circle cx="87.21501122" cy="342.89506293" r="1" fill="rgb(20, 109, 27)"/>
<circle cx="557.4403969" cy="642.3705899" r="6" fill="rgb(161, 204, 177)"/>
<circle cx="676.68118642" cy="273.96329587" r="7" fill="rgb(195, 87, 215)"/>
<circle cx="501.1969269" cy="659.20789633" r="4" fill="rgb(109, 210, 159)"/>
<circle cx="14.66611433" cy="62.70951988" r="2" fill="rgb(36, 19, 4)"/>
<circle cx="90.67353821" cy="366.86705097" r="1" fill="rgb(17, 116, 28)"/>
<circle cx="315.88038437" cy="603.88918511" r="1" fill="rgb(7, 192, 100)"/>
<circle cx="360.0693976" cy="361.9238614" r="6" fill="rgb(190, 115, 114)"/>
<circle cx="642.53067369" cy="379.20314125" r="4" fill="rgb(121, 120, 204)"/>
<circle cx="29.64883836" cy="723.74892827" r="4" fill="rgb(102, 230, 9)"/>
<circle cx="494.81085353" cy="100.51310491" r="7" fill="rgb(197, 32, 157)"/>
<circle cx="2.4143653" cy="430.90182606" r="1" fill="rgb(2, 137, 0)"/>
<circle cx="636.77355355" cy="724.32162696" r="8" fill="rgb(242, 230, 202)"/>
<circle cx="126.1840559" cy="116.44658493" r="8" fill="rgb(233, 37, 40)"/>
<circle cx="724.64759681" cy="497.99672184" r="2" fill="rgb(47, 158, 230)"/>
<circle cx="585.44032731" cy="568.89796701" r="8" fill="rgb(252, 181, 186)"/>
<circle cx="199.88054418" cy="320.6989859" r="8" fill="rgb(231, 102, 63)"/>
<circle cx="650.08847043" cy="95.56564027" r="2" fill="rgb(44, 30, 207)"/>
<circle cx="655.27134291" cy="211.43798618" r="2" fill="rgb(37, 67, 208)"/>
<circle cx="213.31096172" cy="785.93395943" r="3" fill="rgb(79, 250, 67)"/>
<circle cx="728.61826494" cy="251.57360895" r="5" fill="rgb(136, 80, 232)"/>
<circle cx="409.83415382" cy="346.87386182" r="3" fill="rgb(93, 110, 130)"/>
<circle cx="573.50293091" cy="24.75920502" r="8" fill="rgb(239, 7, 182)"/>
<circle cx="417.6409978" cy="21.82977881" r="8" fill="rgb(227, 6, 133)"/>
<circle cx="446.81324074" cy="687.59145669" r="3" fill="rgb(83, 219, 142)"/>
<circle cx="502.64723002" cy="362.28279996" r="6" fill="rgb(176, 115, 160)"/>
<circle cx="461.40474799" cy="7.47886237" r="3" fill="rgb(73, 2, 147)"/>
<circle cx="733.12468244" cy="413.8140788" r="3" fill="rgb(79, 131, 233)"/>
<circle cx="297.03500902" cy="197.91682928" r="4" fill="rgb(108, 63, 94)"/>
<circle cx="675.46395885" cy="749.49470505" r="8" fill="rgb(237, 238, 215)"/>
<circle cx="69.98576764" cy="182.32023196" r="8" fill="rgb(234, 58, 22)"/>
<circle cx="139.81270109" cy="251.50129289" r="2" fill="rgb(57, 80, 44)"/>
<circle cx="653.08120946" cy="330.869132" r="5" fill="rgb(154, 105, 208)"/>
<circle cx="192.28449988" cy="561.50122381" r="2" fill="rgb(47, 178, 61)"/>
<circle cx="45.57151959" cy="279.19007778" r="5" fill="rgb(146, 88, 14)"/>
<circle cx="397.80007469" cy="531.28204428" r="2" fill="rgb(58, 169, 126)"/>
<circle cx="456.57268124" cy="139.77612009" r="5" fill="rgb(132, 44, 145)"/>
<circle cx="475.49809906" cy="653.46808703" r="8" fill="rgb(254, 208, 151)"/>
<circle cx="476.48634688" cy="721.25006774" r="8" fill="rgb(248, 229, 151)"/>
<circle cx="52.29737203" cy="74.86167665" r="1" fill="rgb(8, 23, 16)"/>
<circle cx="780.28002742" cy="300.34786653" r="4" fill="rgb(115, 95, 248)"/>
<circle cx="613.97989509" cy="778.23007355" r="2" fill="rgb(42, 248, 195)"/>
<circle cx="534.98621617" cy="506.09265342" r="7" fill="rgb(210, 161, 170)"/>
<circle cx="282.40486843" cy="10.50908554" r="4" fill="rgb(121, 3, 90)"/>
<circle cx="374.9026742" cy="584.07296887" r="4" fill="rgb(125, 186, 119)"/>
<circle cx="8.71098704" cy="110.13019276" r="4" fill="rgb(116, 35, 2)"/>
<circle cx="787.50676015" cy="255.96227046" r="7" fill="rgb(193, 81, 251)"/>
<circle cx="419.11690853" cy="270.96642039" r="2" fill="rgb(56, 86, 133)"/>
<circle cx="99.85803449" cy="371.08622712" r="7" fill="rgb(192, 118, 31)"/>
<circle cx="539.07920641" cy="403.61533576" r="3" fill="rgb(79, 128, 171)"/>
<circle cx="18.33210506" cy="104.26862476" r="7" fill="rgb(196, 33, 5)"/>
<circle cx="10.08301362" cy="647.99096853" r="5" fill="rgb(132, 206, 3)"/>
<circle cx="359.39740287" cy="549.44658133" r="6" fill="rgb(171, 175, 114)"/>
<circle cx="4.19187012" cy="515.48886781" r="8" fill="rgb(233, 164, 1)"/>
<circle cx="664.31965603" cy="687.45424488" r="4" fill="rgb(123, 219, 211)"/>
<circle cx="462.79966383" cy="538.95873912" r="6" fill="rgb(165, 171, 147)"/>
<circle cx="537.38382785" cy="448.42399243" r="3" fill="rgb(69, 142, 171)"/>
<circle cx="156.02998881" cy="684.6626938" r="3" fill="rgb(89, 218, 49)"/>
<circle cx="619.0394298" cy="231.68219695" r="6" fill="rgb(190, 73, 197)"/>
<circle cx="282.82789013" cy="646.15872729" r="4" fill="rgb(109, 205, 90)"/>
<circle cx="246.9135581" cy="613.82760674" r="2" fill="rgb(54, 195, 78)"/>
<circle cx="177.11736073" cy="595.57852246" r="6" fill="rgb(186, 189, 56)"/>
<circle cx="114.01467021" cy="159.15833874" r="2" fill="rgb(54, 50, 36)"/>
<circle cx="88.73629523" cy="21.30230775" r="4" fill="rgb(96, 6, 28)"/>
<circle cx="64.4236217" cy="639.82122952" r="6" fill="rgb(172, 203, 20)"/>
<circle cx="733.86685047" cy="166.10052944" r="2" fill="rgb(59, 52, 233)"/>
<circle cx="243.61439034" cy="443.10768884" r="6" fill="rgb(181, 141, 77)"/>
<circle cx="738.7649721" cy="348.2447661" r="7" fill="rgb(212, 111, 235)"/>
<circle cx="100.968083" cy="382.42504637" r="6" fill="rgb(180, 121, 32)"/>
<circle cx="162.08170018" cy="127.86692028" r="8" fill="rgb(248, 40, 51)"/>
<circle cx="117.40118461" cy="323.36152462" r="4" fill="rgb(109, 103, 37)"/>
<circle cx="515.11651545" cy="150.9960535" r="6" fill="rgb(185, 48, 164)"/>
<circle cx="480.76339849" cy="168.58591367" r="7" fill="rgb(192, 53, 153)"/>
<circle cx="477.70184236" cy="510.5749685" r="6" fill="rgb(190, 162, 152)"/>
<circle cx="756.246752" cy="585.28517699" r="3" fill="rgb(75, 186, 241)"/>
<circle cx="44.91283173" cy="625.74545347" r="4" fill="rgb(108, 199, 14)"/>
<circle cx="316.07749511" cy="153.80001346" r="7" fill="rgb(212, 49, 100)"/>
<circle cx="723.70480235" cy="64.08291504" r="3" fill="rgb(76, 20, 230)"/>
<circle cx="395.29301272" cy="424.55795078" r="3" fill="rgb(94, 135, 125)"/>
<circle cx="60.95104723" cy="165.16324711" r="2" fill="rgb(33, 52, 19)"/>
<circle cx="285.64928711" cy="209.23964147" r="5" fill="rgb(129, 66, 91)"/>
<circle cx="85.26710143" cy="630.04147172" r="1" fill="rgb(27, 200, 27)"/>
<circle cx="457.92408995" cy="141.72893155" r="8" fill="rgb(251, 45, 145)"/>
<circle cx="151.68475825" cy="629.69303172" r="1" fill="rgb(11, 200, 48)"/>
<circle cx="119.94518793" cy="592.06203453" r="5" fill="rgb(134, 188, 38)"/>
<circle cx="607.35683945" cy="173.29376666" r="5" fill="rgb(140, 55, 193)"/>
<circle cx="689.57324613" cy="141.23922742" r="6" fill="rgb(184, 45, 219)"/>
<circle cx="447.12304893" cy="688.18959794" r="1" fill="rgb(5, 219, 142)"/>
<circle cx="573.54320135" cy="606.99754482" r="4" fill="rgb(102, 193, 182)"/>
<circle cx="3.03493793" cy="222.46803889" r="8" fill="rgb(251, 70, 0)"/>
<circle cx="583.08070202" cy="686.31768363" r="8" fill="rgb(238, 218, 185)"/>
<circle cx="624.4236455" cy="565.5649962" r="5" fill="rgb(131, 180, 199)"/>
<circle cx="600.49945534" cy="616.25802026" r="3" fill="rgb(95, 196, 191)"/>
<circle cx="557.84641541" cy="321.49273917" r="5" fill="rgb(156, 102, 177)"/>
<circle cx="717.13328197" cy="619.91731738" r="1" fill="rgb(0, 197, 228)"/>
<circle cx="176.22719023" cy="96.61374745" r="2" fill="rgb(61, 30, 56)"/>
<circle cx="434.53314419" cy="706.42280685" r="3" fill="rgb(77, 225, 138)"/>
<circle cx="232.11557048" cy="110.68375183" r="3" fill="rgb(73, 35, 73)"/>
<circle cx="365.88814535" cy="259.31082392" r="5" fill="rgb(156, 82, 116)"/>
<circle cx="341.07852339" cy="662.50828859" r="4" fill="rgb(113, 211, 108)"/>
<circle cx="177.18564459" cy="539.97728385" r="3" fill="rgb(88, 172, 56)"/>
<circle cx="501.48448173" cy="251.81254986" r="4" fill="rgb(119, 80, 159)"/>
<circle cx="627.56593503" cy="358.15120012" r="8" fill="rgb(223, 114, 200)"/>
<circle cx="105.47278002" cy="524.98346537" r="4" fill="rgb(116, 167, 33)"/>
<circle cx="484.38320082" cy="727.44959092" r="4" fill="rgb(110, 231, 154)"/>
<circle cx="398.44449986" cy="403.76048648" r="7" fill="rgb(195, 128, 127)"/>
<circle cx="458.61781724" cy="54.24554747" r="7" fill="rgb(214, 17, 146)"/>
<circle cx="155.57264762" cy="414.28803854" r="8" fill="rgb(240, 132, 49)"/>
<circle cx="560.58082919" cy="201.31131388" r="7" fill="rgb(216, 64, 178)"/>
<circle cx="499.46936192" cy="759.06903062" r="5" fill="rgb(137, 241, 159)"/>
<circle cx="791.47204493" cy="6.34630096" r="7" fill="rgb(213, 2, 252)"/>
<circle cx="756.92191637" cy="257.70361089" r="1" fill="rgb(19, 82, 241)"/>
<circle cx="688.96931069" cy="658.18400434" r="1" fill="rgb(2, 209, 219)"/>
<circle cx="642.15161571" cy="204.59615504" r="4" fill="rgb(112, 65, 204)"/>
<path d=" M 71.0 454.0 L 78.57505512 444.90993309 L 76.3214035 444.76748657 L 72.74856663 444.08507729 L 69.29964447 442.97546291 L 65.99279118 441.46133709 L 62.84616089 439.56539154 L 59.87790775 437.31031895 L 57.10618496 434.71881294 L 54.54914761 431.81356525 L 52.22494984 428.61726856 L 50.15174484 425.15261555 L 48.34768677 421.44229889 L 46.83093071 417.50901127 L 45.61962986 413.37544441 L 44.73193836 409.06429195 L 44.18601036 404.59824657 L 44.0 400.0 L 44.18601036 395.40175343 L 44.73193836 390.93570805 L 45.61962986 386.62455559 L 46.83093071 382.49098873 L 48.34768677 378.55770111 L 50.15174484 374.84738445 L 52.22494984 371.38273144 L 54.54914761 368.18643475 L 57.10618496 365.28118706 L 59.87790775 362.68968105 L 62.84616089 360.43460846 L 65.99279118 358.53866291 L 69.29964447 357.02453709 L 72.74856663 355.91492271 L 76.3214035 355.23251343 L 80.0 355.0 L 83.6785965 355.23251343 L 87.25143337 355.91492271 L 90.70035553 357.02453709 L 94.00720882 358.53866291 L 97.15383911 360.43460846 L 100.12209225 362.68968105 L 102.89381504 365.28118706 L 105.45085239 368.18643475 L 107.77505016 371.38273144 L 109.84825516 374.84738445 L 111.65231323 378.55770111 L 113.16906929 382.49098873 L 114.38037014 386.62455559 L 115.26806164 390.93570805 L 115.81398964 395.40175343 L 116.0 400.0 L 115.81398964 404.59824657 L 115.26806164 409.06429195 L 114.38037014 413.37544441 L 113.16906929 417.50901127 L 111.65231323 421.44229889 L 109.84825516 425.15261555 L 107.77505016 428.61726856 L 105.45085239 431.81356525 L 102.89381504 434.71881294 L 100.12209225 437.31031895 L 97.15383911 439.56539154 L 94.00720882 441.46133709 L 90.70035553 442.97546291 L 87.25143337 444.08507729 L 83.6785965 444.76748657 L 81.42494488 444.90993309 L 89.0 454.0 Z" fill="white"/>
<path d=" M 86.66191479 355.1145618 L 94.23696991 346.02449489 L 91.98331829 345.88204837 L 88.41048141 345.19963909 L 84.96155926 344.09002471 L 81.65470596 342.57589889 L 78.50807567 340.67995334 L 75.53982254 338.42488075 L 72.76809974 335.83337474 L 70.21106239 332.92812705 L 67.88686462 329.73183036 L 65.81365963 326.26717735 L 64.00960155 322.55686069 L 62.4928455 318.62357307 L 61.28154465 314.49000621 L 60.39385315 310.17885375 L 59.84792515 305.71280837 L 59.66191479 301.1145618 L 59.84792515 296.51631523 L 60.39385315 292.05026985 L 61.28154465 287.73911739 L 62.4928455 283.60555053 L 64.00960155 279.67226291 L 65.81365963 275.96194625 L 67.88686462 272.49729324 L 70.21106239 269.30099655 L 72.76809974 266.39574886 L 75.53982254 263.80424285 L 78.50807567 261.54917026 L 81.65470596 259.65322471 L 84.96155926 258.13909889 L 88.41048141 257.02948451 L 91.98331829 256.34707523 L 95.66191479 256.1145618 L 99.34051128 256.34707523 L 102.91334816 257.02948451 L 106.36227032 258.13909889 L 109.66912361 259.65322471 L 112.8157539 261.54917026 L 115.78400703 263.80424285 L 118.55572983 266.39574886 L 121.11276718 269.30099655 L 123.43696495 272.49729324 L 125.51016994 275.96194625 L 127.31422802 279.67226291 L 128.83098408 283.60555053 L 130.04228493 287.73911739 L 130.92997642 292.05026985 L 131.47590442 296.51631523 L 131.66191479 301.1145618 L 131.47590442 305.71280837 L 130.92997642 310.17885375 L 130.04228493 314.49000621 L 128.83098408 318.62357307 L 127.31422802 322.55686069 L 125.51016994 326.26717735 L 123.43696495 329.73183036 L 121.11276718 332.92812705 L 118.55572983 335.83337474 L 115.78400703 338.42488075 L 112.8157539 340.67995334 L 109.66912361 342.57589889 L 106.36227032 344.09002471 L 102.91334816 345.19963909 L 99.34051128 345.88204837 L 97.08685966 346.02449489 L 104.66191479 355.1145618 Z" fill="purple"/>
<path d=" M 132.1145618 265.90871927 L 139.68961692 256.81865236 L 137.4359653 256.67620584 L 133.86312843 255.99379655 L 130.41420627 254.88418218 L 127.10735298 253.37005636 L 123.96072269 251.47411081 L 120.99246955 249.21903821 L 118.22074676 246.62753221 L 115.66370941 243.72228452 L 113.33951164 240.52598783 L 111.26630664 237.06133481 L 109.46224857 233.35101816 L 107.94549251 229.41773054 L 106.73419166 225.28416368 L 105.84650016 220.97301122 L 105.30057216 216.50696584 L 105.1145618 211.90871927 L 105.30057216 207.31047269 L 105.84650016 202.84442731 L 106.73419166 198.53327485 L 107.94549251 194.399708 L 109.46224857 190.46642038 L 111.26630664 186.75610372 L 113.33951164 183.2914507 L 115.66370941 180.09515401 L 118.22074676 177.18990632 L 120.99246955 174.59840032 L 123.96072269 172.34332773 L 127.10735298 170.44738218 L 130.41420627 168.93325635 L 133.86312843 167.82364198 L 137.4359653 167.14123269 L 141.1145618 166.90871927 L 144.7931583 167.14123269 L 148.36599517 167.82364198 L 151.81491733 168.93325635 L 155.12177062 170.44738218 L 158.26840091 172.34332773 L 161.23665405 174.59840032 L 164.00837684 177.18990632 L 166.56541419 180.09515401 L 168.88961196 183.2914507 L 170.96281696 186.75610372 L 172.76687503 190.46642038 L 174.28363109 194.399708 L 175.49493194 198.53327485 L 176.38262344 202.84442731 L 176.92855144 207.31047269 L 177.1145618 211.90871927 L 176.92855144 216.50696584 L 176.38262344 220.97301122 L 175.49493194 225.28416368 L 174.28363109 229.41773054 L 172.76687503 233.35101816 L 170.96281696 237.06133481 L 168.88961196 240.52598783 L 166.56541419 243.72228452 L 164.00837684 246.62753221 L 161.23665405 249.21903821 L 158.26840091 251.47411081 L 155.12177062 253.37005636 L 151.81491733 254.88418218 L 148.36599517 255.99379655 L 144.7931583 256.67620584 L 142.53950668 256.81865236 L 150.1145618 265.90871927 Z" fill="white"/>
<path d=" M 202.90871927 195.1145618 L 210.48377439 186.02449489 L 208.23012277 185.88204837 L 204.65728589 185.19963909 L 201.20836374 184.09002471 L 197.90151044 182.57589889 L 194.75488016 180.67995334 L 191.78662702 178.42488075 L 189.01490423 175.83337474 L 186.45786687 172.92812705 L 184.1336691 169.73183036 L 182.06046411 166.26717735 L 180.25640603 162.55686069 L 178.73964998 158.62357307 L 177.52834913 154.49000621 L 176.64065763 150.17885375 L 176.09472963 145.71280837 L 175.90871927 141.1145618 L 176.09472963 136.51631523 L 176.64065763 132.05026985 L 177.52834913 127.73911739 L 178.73964998 123.60555053 L 180.25640603 119.67226291 L 182.06046411 115.96194625 L 184.1336691 112.49729324 L 186.45786687 109.30099655 L 189.01490423 106.39574886 L 191.78662702 103.80424285 L 194.75488016 101.54917026 L 197.90151044 99.65322471 L 201.20836374 98.13909889 L 204.65728589 97.02948451 L 208.23012277 96.34707523 L 211.90871927 96.1145618 L 215.58731576 96.34707523 L 219.16015264 97.02948451 L 222.6090748 98.13909889 L 225.91592809 99.65322471 L 229.06255838 101.54917026 L 232.03081151 103.80424285 L 234.80253431 106.39574886 L 237.35957166 109.30099655 L 239.68376943 112.49729324 L 241.75697442 115.96194625 L 243.5610325 119.67226291 L 245.07778856 123.60555053 L 246.28908941 127.73911739 L 247.1767809 132.05026985 L 247.72270891 136.51631523 L 247.90871927 141.1145618 L 247.72270891 145.71280837 L 247.1767809 150.17885375 L 246.28908941 154.49000621 L 245.07778856 158.62357307 L 243.5610325 162.55686069 L 241.75697442 166.26717735 L 239.68376943 169.73183036 L 237.35957166 172.92812705 L 234.80253431 175.83337474 L 232.03081151 178.42488075 L 229.06255838 180.67995334 L 225.91592809 182.57589889 L 222.6090748 184.09002471 L 219.16015264 185.19963909 L 215.58731576 185.88204837 L 213.33366414 186.02449489 L 220.90871927 195.1145618 Z" fill="purple"/>
<path d=" M 292.1145618 149.66191479 L 299.68961692 140.57184788 L 297.4359653 140.42940136 L 293.86312843 139.74699207 L 290.41420627 138.6373777 L 287.10735298 137.12325188 L 283.96072269 135.22730633 L 280.99246955 132.97223373 L 278.22074676 130.38072773 L 275.66370941 127.47548004 L 273.33951164 124.27918335 L 271.26630664 120.81453033 L 269.46224857 117.10421367 L 267.94549251 113.17092605 L 266.73419166 109.0373592 L 265.84650016 104.72620674 L 265.30057216 100.26016136 L 265.1145618 95.66191479 L 265.30057216 91.06366821 L 265.84650016 86.59762283 L 266.73419166 82.28647037 L 267.94549251 78.15290352 L 269.46224857 74.2196159 L 271.26630664 70.50929924 L 273.33951164 67.04464622 L 275.66370941 63.84834953 L 278.22074676 60.94310184 L 280.99246955 58.35159584 L 283.96072269 56.09652325 L 287.10735298 54.2005777 L 290.41420627 52.68645187 L 293.86312843 51.5768375 L 297.4359653 50.89442821 L 301.1145618 50.66191479 L 304.7931583 50.89442821 L 308.36599517 51.5768375 L 311.81491733 52.68645187 L 315.12177062 54.2005777 L 318.26840091 56.09652325 L 321.23665405 58.35159584 L 324.00837684 60.94310184 L 326.56541419 63.84834953 L 328.88961196 67.04464622 L 330.96281696 70.50929924 L 332.76687503 74.2196159 L 334.28363109 78.15290352 L 335.49493194 82.28647037 L 336.38262344 86.59762283 L 336.92855144 91.06366821 L 337.1145618 95.66191479 L 336.92855144 100.26016136 L 336.38262344 104.72620674 L 335.49493194 109.0373592 L 334.28363109 113.17092605 L 332.76687503 117.10421367 L 330.96281696 120.81453033 L 328.88961196 124.27918335 L 326.56541419 127.47548004 L 324.00837684 130.38072773 L 321.23665405 132.97223373 L 318.26840091 135.22730633 L 315.12177062 137.12325188 L 311.81491733 138.6373777 L 308.36599517 139.74699207 L 304.7931583 140.42940136 L 302.53950668 140.57184788 L 310.1145618 149.66191479 Z" fill="white"/>
<path d=" M 391.0 134.0 L 398.57505512 124.90993309 L 396.3214035 124.76748657 L 392.74856663 124.08507729 L 389.29964447 122.97546291 L 385.99279118 121.46133709 L 382.84616089 119.56539154 L 379.87790775 117.31031895 L 377.10618496 114.71881294 L 374.54914761 111.81356525 L 372.22494984 108.61726856 L 370.15174484 105.15261555 L 368.34768677 101.44229889 L 366.83093071 97.50901127 L 365.61962986 93.37544441 L 364.73193836 89.06429195 L 364.18601036 84.59824657 L 364.0 80.0 L 364.18601036 75.40175343 L 364.73193836 70.93570805 L 365.61962986 66.62455559 L 366.83093071 62.49098873 L 368.34768677 58.55770111 L 370.15174484 54.84738445 L 372.22494984 51.38273144 L 374.54914761 48.18643475 L 377.10618496 45.28118706 L 379.87790775 42.68968105 L 382.84616089 40.43460846 L 385.99279118 38.53866291 L 389.29964447 37.02453709 L 392.74856663 35.91492271 L 396.3214035 35.23251343 L 400.0 35.0 L 403.6785965 35.23251343 L 407.25143337 35.91492271 L 410.70035553 37.02453709 L 414.00720882 38.53866291 L 417.15383911 40.43460846 L 420.12209225 42.68968105 L 422.89381504 45.28118706 L 425.45085239 48.18643475 L 427.77505016 51.38273144 L 429.84825516 54.84738445 L 431.65231323 58.55770111 L 433.16906929 62.49098873 L 434.38037014 66.62455559 L 435.26806164 70.93570805 L 435.81398964 75.40175343 L 436.0 80.0 L 435.81398964 84.59824657 L 435.26806164 89.06429195 L 434.38037014 93.37544441 L 433.16906929 97.50901127 L 431.65231323 101.44229889 L 429.84825516 105.15261555 L 427.77505016 108.61726856 L 425.45085239 111.81356525 L 422.89381504 114.71881294 L 420.12209225 117.31031895 L 417.15383911 119.56539154 L 414.00720882 121.46133709 L 410.70035553 122.97546291 L 407.25143337 124.08507729 L 403.6785965 124.76748657 L 401.42494488 124.90993309 L 409.0 134.0 Z" fill="purple"/>
<path d=" M 489.8854382 149.66191479 L 497.46049332 140.57184788 L 495.2068417 140.42940136 L 491.63400483 139.74699207 L 488.18508267 138.6373777 L 484.87822938 137.12325188 L 481.73159909 135.22730633 L 478.76334595 132.97223373 L 475.99162316 130.38072773 L 473.43458581 127.47548004 L 471.11038804 124.27918335 L 469.03718304 120.81453033 L 467.23312497 117.10421367 L 465.71636891 113.17092605 L 464.50506806 109.0373592 L 463.61737656 104.72620674 L 463.07144856 100.26016136 L 462.8854382 95.66191479 L 463.07144856 91.06366821 L 463.61737656 86.59762283 L 464.50506806 82.28647037 L 465.71636891 78.15290352 L 467.23312497 74.2196159 L 469.03718304 70.50929924 L 471.11038804 67.04464622 L 473.43458581 63.84834953 L 475.99162316 60.94310184 L 478.76334595 58.35159584 L 481.73159909 56.09652325 L 484.87822938 54.2005777 L 488.18508267 52.68645187 L 491.63400483 51.5768375 L 495.2068417 50.89442821 L 498.8854382 50.66191479 L 502.5640347 50.89442821 L 506.13687157 51.5768375 L 509.58579373 52.68645187 L 512.89264702 54.2005777 L 516.03927731 56.09652325 L 519.00753045 58.35159584 L 521.77925324 60.94310184 L 524.33629059 63.84834953 L 526.66048836 67.04464622 L 528.73369336 70.50929924 L 530.53775143 74.2196159 L 532.05450749 78.15290352 L 533.26580834 82.28647037 L 534.15349984 86.59762283 L 534.69942784 91.06366821 L 534.8854382 95.66191479 L 534.69942784 100.26016136 L 534.15349984 104.72620674 L 533.26580834 109.0373592 L 532.05450749 113.17092605 L 530.53775143 117.10421367 L 528.73369336 120.81453033 L 526.66048836 124.27918335 L 524.33629059 127.47548004 L 521.77925324 130.38072773 L 519.00753045 132.97223373 L 516.03927731 135.22730633 L 512.89264702 137.12325188 L 509.58579373 138.6373777 L 506.13687157 139.74699207 L 502.5640347 140.42940136 L 500.31038308 140.57184788 L 507.8854382 149.66191479 Z" fill="white"/>
<path d=" M 579.09128073 195.1145618 L 586.66633586 186.02449489 L 584.41268424 185.88204837 L 580.83984736 185.19963909 L 577.3909252 184.09002471 L 574.08407191 182.57589889 L 570.93744162 180.67995334 L 567.96918849 178.42488075 L 565.19746569 175.83337474 L 562.64042834 172.92812705 L 560.31623057 169.73183036 L 558.24302558 166.26717735 L 556.4389675 162.55686069 L 554.92221144 158.62357307 L 553.71091059 154.49000621 L 552.8232191 150.17885375 L 552.27729109 145.71280837 L 552.09128073 141.1145618 L 552.27729109 136.51631523 L 552.8232191 132.05026985 L 553.71091059 127.73911739 L 554.92221144 123.60555053 L 556.4389675 119.67226291 L 558.24302558 115.96194625 L 560.31623057 112.49729324 L 562.64042834 109.30099655 L 565.19746569 106.39574886 L 567.96918849 103.80424285 L 570.93744162 101.54917026 L 574.08407191 99.65322471 L 577.3909252 98.13909889 L 580.83984736 97.02948451 L 584.41268424 96.34707523 L 588.09128073 96.1145618 L 591.76987723 96.34707523 L 595.34271411 97.02948451 L 598.79163626 98.13909889 L 602.09848956 99.65322471 L 605.24511984 101.54917026 L 608.21337298 103.80424285 L 610.98509577 106.39574886 L 613.54213313 109.30099655 L 615.8663309 112.49729324 L 617.93953589 115.96194625 L 619.74359397 119.67226291 L 621.26035002 123.60555053 L 622.47165087 127.73911739 L 623.35934237 132.05026985 L 623.90527037 136.51631523 L 624.09128073 141.1145618 L 623.90527037 145.71280837 L 623.35934237 150.17885375 L 622.47165087 154.49000621 L 621.26035002 158.62357307 L 619.74359397 162.55686069 L 617.93953589 166.26717735 L 615.8663309 169.73183036 L 613.54213313 172.92812705 L 610.98509577 175.83337474 L 608.21337298 178.42488075 L 605.24511984 180.67995334 L 602.09848956 182.57589889 L 598.79163626 184.09002471 L 595.34271411 185.19963909 L 591.76987723 185.88204837 L 589.51622561 186.02449489 L 597.09128073 195.1145618 Z" fill="purple"/>
<path d=" M 649.8854382 265.90871927 L 657.46049332 256.81865236 L 655.2068417 256.67620584 L 651.63400483 255.99379655 L 648.18508267 254.88418218 L 644.87822938 253.37005636 L 641.73159909 251.47411081 L 638.76334595 249.21903821 L 635.99162316 246.62753221 L 633.43458581 243.72228452 L 631.11038804 240.52598783 L 629.03718304 237.06133481 L 627.23312497 233.35101816 L 625.71636891 229.41773054 L 624.50506806 225.28416368 L 623.61737656 220.97301122 L 623.07144856 216.50696584 L 622.8854382 211.90871927 L 623.07144856 207.31047269 L 623.61737656 202.84442731 L 624.50506806 198.53327485 L 625.71636891 194.399708 L 627.23312497 190.46642038 L 629.03718304 186.75610372 L 631.11038804 183.2914507 L 633.43458581 180.09515401 L 635.99162316 177.18990632 L 638.76334595 174.59840032 L 641.73159909 172.34332773 L 644.87822938 170.44738218 L 648.18508267 168.93325635 L 651.63400483 167.82364198 L 655.2068417 167.14123269 L 658.8854382 166.90871927 L 662.5640347 167.14123269 L 666.13687157 167.82364198 L 669.58579373 168.93325635 L 672.89264702 170.44738218 L 676.03927731 172.34332773 L 679.00753045 174.59840032 L 681.77925324 177.18990632 L 684.33629059 180.09515401 L 686.66048836 183.2914507 L 688.73369336 186.75610372 L 690.53775143 190.46642038 L 692.05450749 194.399708 L 693.26580834 198.53327485 L 694.15349984 202.84442731 L 694.69942784 207.31047269 L 694.8854382 211.90871927 L 694.69942784 216.50696584 L 694.15349984 220.97301122 L 693.26580834 225.28416368 L 692.05450749 229.41773054 L 690.53775143 233.35101816 L 688.73369336 237.06133481 L 686.66048836 240.52598783 L 684.33629059 243.72228452 L 681.77925324 246.62753221 L 679.00753045 249.21903821 L 676.03927731 251.47411081 L 672.89264702 253.37005636 L 669.58579373 254.88418218 L 666.13687157 255.99379655 L 662.5640347 256.67620584 L 660.31038308 256.81865236 L 667.8854382 265.90871927 Z" fill="white"/>
<path d=" M 695.33808521 355.1145618 L 702.91314034 346.02449489 L 700.65948872 345.88204837 L 697.08665184 345.19963909 L 693.63772968 344.09002471 L 690.33087639 342.57589889 L 687.1842461 340.67995334 L 684.21599297 338.42488075 L 681.44427017 335.83337474 L 678.88723282 332.92812705 L 676.56303505 329.73183036 L 674.48983006 326.26717735 L 672.68577198 322.55686069 L 671.16901592 318.62357307 L 669.95771507 314.49000621 L 669.07002358 310.17885375 L 668.52409558 305.71280837 L 668.33808521 301.1145618 L 668.52409558 296.51631523 L 669.07002358 292.05026985 L 669.95771507 287.73911739 L 671.16901592 283.60555053 L 672.68577198 279.67226291 L 674.48983006 275.96194625 L 676.56303505 272.49729324 L 678.88723282 269.30099655 L 681.44427017 266.39574886 L 684.21599297 263.80424285 L 687.1842461 261.54917026 L 690.33087639 259.65322471 L 693.63772968 258.13909889 L 697.08665184 257.02948451 L 700.65948872 256.34707523 L 704.33808521 256.1145618 L 708.01668171 256.34707523 L 711.58951859 257.02948451 L 715.03844074 258.13909889 L 718.34529404 259.65322471 L 721.49192433 261.54917026 L 724.46017746 263.80424285 L 727.23190026 266.39574886 L 729.78893761 269.30099655 L 732.11313538 272.49729324 L 734.18634037 275.96194625 L 735.99039845 279.67226291 L 737.5071545 283.60555053 L 738.71845535 287.73911739 L 739.60614685 292.05026985 L 740.15207485 296.51631523 L 740.33808521 301.1145618 L 740.15207485 305.71280837 L 739.60614685 310.17885375 L 738.71845535 314.49000621 L 737.5071545 318.62357307 L 735.99039845 322.55686069 L 734.18634037 326.26717735 L 732.11313538 329.73183036 L 729.78893761 332.92812705 L 727.23190026 335.83337474 L 724.46017746 338.42488075 L 721.49192433 340.67995334 L 718.34529404 342.57589889 L 715.03844074 344.09002471 L 711.58951859 345.19963909 L 708.01668171 345.88204837 L 705.76303009 346.02449489 L 713.33808521 355.1145618 Z" fill="purple"/>
<path d=" M 711.0 454.0 L 718.57505512 444.90993309 L 716.3214035 444.76748657 L 712.74856663 444.08507729 L 709.29964447 442.97546291 L 705.99279118 441.46133709 L 702.84616089 439.56539154 L 699.87790775 437.31031895 L 697.10618496 434.71881294 L 694.54914761 431.81356525 L 692.22494984 428.61726856 L 690.15174484 425.15261555 L 688.34768677 421.44229889 L 686.83093071 417.50901127 L 685.61962986 413.37544441 L 684.73193836 409.06429195 L 684.18601036 404.59824657 L 684.0 400.0 L 684.18601036 395.40175343 L 684.73193836 390.93570805 L 685.61962986 386.62455559 L 686.83093071 382.49098873 L 688.34768677 378.55770111 L 690.15174484 374.84738445 L 692.22494984 371.38273144 L 694.54914761 368.18643475 L 697.10618496 365.28118706 L 699.87790775 362.68968105 L 702.84616089 360.43460846 L 705.99279118 358.53866291 L 709.29964447 357.02453709 L 712.74856663 355.91492271 L 716.3214035 355.23251343 L 720.0 355.0 L 723.6785965 355.23251343 L 727.25143337 355.91492271 L 730.70035553 357.02453709 L 734.00720882 358.53866291 L 737.15383911 360.43460846 L 740.12209225 362.68968105 L 742.89381504 365.28118706 L 745.45085239 368.18643475 L 747.77505016 371.38273144 L 749.84825516 374.84738445 L 751.65231323 378.55770111 L 753.16906929 382.49098873 L 754.38037014 386.62455559 L 755.26806164 390.93570805 L 755.81398964 395.40175343 L 756.0 400.0 L 755.81398964 404.59824657 L 755.26806164 409.06429195 L 754.38037014 413.37544441 L 753.16906929 417.50901127 L 751.65231323 421.44229889 L 749.84825516 425.15261555 L 747.77505016 428.61726856 L 745.45085239 431.81356525 L 742.89381504 434.71881294 L 740.12209225 437.31031895 L 737.15383911 439.56539154 L 734.00720882 441.46133709 L 730.70035553 442.97546291 L 727.25143337 444.08507729 L 723.6785965 444.76748657 L 721.42494488 444.90993309 L 729.0 454.0 Z" fill="white"/>
<path d=" M 695.33808521 552.8854382 L 702.91314034 543.79537129 L 700.65948872 543.65292477 L 697.08665184 542.97051549 L 693.63772968 541.86090111 L 690.33087639 540.34677529 L 687.1842461 538.45082974 L 684.21599297 536.19575715 L 681.44427017 533.60425114 L 678.88723282 530.69900345 L 676.56303505 527.50270676 L 674.48983006 524.03805375 L 672.68577198 520.32773709 L 671.16901592 516.39444947 L 669.95771507 512.26088261 L 669.07002358 507.94973015 L 668.52409558 503.48368477 L 668.33808521 498.8854382 L 668.52409558 494.28719163 L 669.07002358 489.82114625 L 669.95771507 485.50999379 L 671.16901592 481.37642693 L 672.68577198 477.44313931 L 674.48983006 473.73282265 L 676.56303505 470.26816964 L 678.88723282 467.07187295 L 681.44427017 464.16662526 L 684.21599297 461.57511925 L 687.1842461 459.32004666 L 690.33087639 457.42410111 L 693.63772968 455.90997529 L 697.08665184 454.80036091 L 700.65948872 454.11795163 L 704.33808521 453.8854382 L 708.01668171 454.11795163 L 711.58951859 454.80036091 L 715.03844074 455.90997529 L 718.34529404 457.42410111 L 721.49192433 459.32004666 L 724.46017746 461.57511925 L 727.23190026 464.16662526 L 729.78893761 467.07187295 L 732.11313538 470.26816964 L 734.18634037 473.73282265 L 735.99039845 477.44313931 L 737.5071545 481.37642693 L 738.71845535 485.50999379 L 739.60614685 489.82114625 L 740.15207485 494.28719163 L 740.33808521 498.8854382 L 740.15207485 503.48368477 L 739.60614685 507.94973015 L 738.71845535 512.26088261 L 737.5071545 516.39444947 L 735.99039845 520.32773709 L 734.18634037 524.03805375 L 732.11313538 527.50270676 L 729.78893761 530.69900345 L 727.23190026 533.60425114 L 724.46017746 536.19575715 L 721.49192433 538.45082974 L 718.34529404 540.34677529 L 715.03844074 541.86090111 L 711.58951859 542.97051549 L 708.01668171 543.65292477 L 705.76303009 543.79537129 L 713.33808521 552.8854382 Z" fill="purple"/>
<path d=" M 649.8854382 642.09128073 L 657.46049332 633.00121382 L 655.2068417 632.85876731 L 651.63400483 632.17635802 L 648.18508267 631.06674365 L 644.87822938 629.55261782 L 641.73159909 627.65667227 L 638.76334595 625.40159968 L 635.99162316 622.81009368 L 633.43458581 619.90484599 L 631.11038804 616.7085493 L 629.03718304 613.24389628 L 627.23312497 609.53357962 L 625.71636891 605.600292 L 624.50506806 601.46672515 L 623.61737656 597.15557269 L 623.07144856 592.68952731 L 622.8854382 588.09128073 L 623.07144856 583.49303416 L 623.61737656 579.02698878 L 624.50506806 574.71583632 L 625.71636891 570.58226946 L 627.23312497 566.64898184 L 629.03718304 562.93866519 L 631.11038804 559.47401217 L 633.43458581 556.27771548 L 635.99162316 553.37246779 L 638.76334595 550.78096179 L 641.73159909 548.52588919 L 644.87822938 546.62994364 L 648.18508267 545.11581782 L 651.63400483 544.00620345 L 655.2068417 543.32379416 L 658.8854382 543.09128073 L 662.5640347 543.32379416 L 666.13687157 544.00620345 L 669.58579373 545.11581782 L 672.89264702 546.62994364 L 676.03927731 548.52588919 L 679.00753045 550.78096179 L 681.77925324 553.37246779 L 684.33629059 556.27771548 L 686.66048836 559.47401217 L 688.73369336 562.93866519 L 690.53775143 566.64898184 L 692.05450749 570.58226946 L 693.26580834 574.71583632 L 694.15349984 579.02698878 L 694.69942784 583.49303416 L 694.8854382 588.09128073 L 694.69942784 592.68952731 L 694.15349984 597.15557269 L 693.26580834 601.46672515 L 692.05450749 605.600292 L 690.53775143 609.53357962 L 688.73369336 613.24389628 L 686.66048836 616.7085493 L 684.33629059 619.90484599 L 681.77925324 622.81009368 L 679.00753045 625.40159968 L 676.03927731 627.65667227 L 672.89264702 629.55261782 L 669.58579373 631.06674365 L 666.13687157 632.17635802 L 662.5640347 632.85876731 L 660.31038308 633.00121382 L 667.8854382 642.09128073 Z" fill="white"/>
<path d=" M 579.09128073 712.8854382 L 586.66633586 703.79537129 L 584.41268424 703.65292477 L 580.83984736 702.97051549 L 577.3909252 701.86090111 L 574.08407191 700.34677529 L 570.93744162 698.45082974 L 567.96918849 696.19575715 L 565.19746569 693.60425114 L 562.64042834 690.69900345 L 560.31623057 687.50270676 L 558.24302558 684.03805375 L 556.4389675 680.32773709 L 554.92221144 676.39444947 L 553.71091059 672.26088261 L 552.8232191 667.94973015 L 552.27729109 663.48368477 L 552.09128073 658.8854382 L 552.27729109 654.28719163 L 552.8232191 649.82114625 L 553.71091059 645.50999379 L 554.92221144 641.37642693 L 556.4389675 637.44313931 L 558.24302558 633.73282265 L 560.31623057 630.26816964 L 562.64042834 627.07187295 L 565.19746569 624.16662526 L 567.96918849 621.57511925 L 570.93744162 619.32004666 L 574.08407191 617.42410111 L 577.3909252 615.90997529 L 580.83984736 614.80036091 L 584.41268424 614.11795163 L 588.09128073 613.8854382 L 591.76987723 614.11795163 L 595.34271411 614.80036091 L 598.79163626 615.90997529 L 602.09848956 617.42410111 L 605.24511984 619.32004666 L 608.21337298 621.57511925 L 610.98509577 624.16662526 L 613.54213313 627.07187295 L 615.8663309 630.26816964 L 617.93953589 633.73282265 L 619.74359397 637.44313931 L 621.26035002 641.37642693 L 622.47165087 645.50999379 L 623.35934237 649.82114625 L 623.90527037 654.28719163 L 624.09128073 658.8854382 L 623.90527037 663.48368477 L 623.35934237 667.94973015 L 622.47165087 672.26088261 L 621.26035002 676.39444947 L 619.74359397 680.32773709 L 617.93953589 684.03805375 L 615.8663309 687.50270676 L 613.54213313 690.69900345 L 610.98509577 693.60425114 L 608.21337298 696.19575715 L 605.24511984 698.45082974 L 602.09848956 700.34677529 L 598.79163626 701.86090111 L 595.34271411 702.97051549 L 591.76987723 703.65292477 L 589.51622561 703.79537129 L 597.09128073 712.8854382 Z" fill="purple"/>
<path d=" M 489.8854382 758.33808521 L 497.46049332 749.2480183 L 495.2068417 749.10557179 L 491.63400483 748.4231625 L 488.18508267 747.31354813 L 484.87822938 745.7994223 L 481.73159909 743.90347675 L 478.76334595 741.64840416 L 475.99162316 739.05689816 L 473.43458581 736.15165047 L 471.11038804 732.95535378 L 469.03718304 729.49070076 L 467.23312497 725.7803841 L 465.71636891 721.84709648 L 464.50506806 717.71352963 L 463.61737656 713.40237717 L 463.07144856 708.93633179 L 462.8854382 704.33808521 L 463.07144856 699.73983864 L 463.61737656 695.27379326 L 464.50506806 690.9626408 L 465.71636891 686.82907395 L 467.23312497 682.89578633 L 469.03718304 679.18546967 L 471.11038804 675.72081665 L 473.43458581 672.52451996 L 475.99162316 669.61927227 L 478.76334595 667.02776627 L 481.73159909 664.77269367 L 484.87822938 662.87674812 L 488.18508267 661.3626223 L 491.63400483 660.25300793 L 495.2068417 659.57059864 L 498.8854382 659.33808521 L 502.5640347 659.57059864 L 506.13687157 660.25300793 L 509.58579373 661.3626223 L 512.89264702 662.87674812 L 516.03927731 664.77269367 L 519.00753045 667.02776627 L 521.77925324 669.61927227 L 524.33629059 672.52451996 L 526.66048836 675.72081665 L 528.73369336 679.18546967 L 530.53775143 682.89578633 L 532.05450749 686.82907395 L 533.26580834 690.9626408 L 534.15349984 695.27379326 L 534.69942784 699.73983864 L 534.8854382 704.33808521 L 534.69942784 708.93633179 L 534.15349984 713.40237717 L 533.26580834 717.71352963 L 532.05450749 721.84709648 L 530.53775143 725.7803841 L 528.73369336 729.49070076 L 526.66048836 732.95535378 L 524.33629059 736.15165047 L 521.77925324 739.05689816 L 519.00753045 741.64840416 L 516.03927731 743.90347675 L 512.89264702 745.7994223 L 509.58579373 747.31354813 L 506.13687157 748.4231625 L 502.5640347 749.10557179 L 500.31038308 749.2480183 L 507.8854382 758.33808521 Z" fill="white"/>
<path d=" M 391.0 774.0 L 398.57505512 764.90993309 L 396.3214035 764.76748657 L 392.74856663 764.08507729 L 389.29964447 762.97546291 L 385.99279118 761.46133709 L 382.84616089 759.56539154 L 379.87790775 757.31031895 L 377.10618496 754.71881294 L 374.54914761 751.81356525 L 372.22494984 748.61726856 L 370.15174484 745.15261555 L 368.34768677 741.44229889 L 366.83093071 737.50901127 L 365.61962986 733.37544441 L 364.73193836 729.06429195 L 364.18601036 724.59824657 L 364.0 720.0 L 364.18601036 715.40175343 L 364.73193836 710.93570805 L 365.61962986 706.62455559 L 366.83093071 702.49098873 L 368.34768677 698.55770111 L 370.15174484 694.84738445 L 372.22494984 691.38273144 L 374.54914761 688.18643475 L 377.10618496 685.28118706 L 379.87790775 682.68968105 L 382.84616089 680.43460846 L 385.99279118 678.53866291 L 389.29964447 677.02453709 L 392.74856663 675.91492271 L 396.3214035 675.23251343 L 400.0 675.0 L 403.6785965 675.23251343 L 407.25143337 675.91492271 L 410.70035553 677.02453709 L 414.00720882 678.53866291 L 417.15383911 680.43460846 L 420.12209225 682.68968105 L 422.89381504 685.28118706 L 425.45085239 688.18643475 L 427.77505016 691.38273144 L 429.84825516 694.84738445 L 431.65231323 698.55770111 L 433.16906929 702.49098873 L 434.38037014 706.62455559 L 435.26806164 710.93570805 L 435.81398964 715.40175343 L 436.0 720.0 L 435.81398964 724.59824657 L 435.26806164 729.06429195 L 434.38037014 733.37544441 L 433.16906929 737.50901127 L 431.65231323 741.44229889 L 429.84825516 745.15261555 L 427.77505016 748.61726856 L 425.45085239 751.81356525 L 422.89381504 754.71881294 L 420.12209225 757.31031895 L 417.15383911 759.56539154 L 414.00720882 761.46133709 L 410.70035553 762.97546291 L 407.25143337 764.08507729 L 403.6785965 764.76748657 L 401.42494488 764.90993309 L 409.0 774.0 Z" fill="purple"/>
<path d=" M 292.1145618 758.33808521 L 299.68961692 749.2480183 L 297.4359653 749.10557179 L 293.86312843 748.4231625 L 290.41420627 747.31354813 L 287.10735298 745.7994223 L 283.96072269 743.90347675 L 280.99246955 741.64840416 L 278.22074676 739.05689816 L 275.66370941 736.15165047 L 273.33951164 732.95535378 L 271.26630664 729.49070076 L 269.46224857 725.7803841 L 267.94549251 721.84709648 L 266.73419166 717.71352963 L 265.84650016 713.40237717 L 265.30057216 708.93633179 L 265.1145618 704.33808521 L 265.30057216 699.73983864 L 265.84650016 695.27379326 L 266.73419166 690.9626408 L 267.94549251 686.82907395 L 269.46224857 682.89578633 L 271.26630664 679.18546967 L 273.33951164 675.72081665 L 275.66370941 672.52451996 L 278.22074676 669.61927227 L 280.99246955 667.02776627 L 283.96072269 664.77269367 L 287.10735298 662.87674812 L 290.41420627 661.3626223 L 293.86312843 660.25300793 L 297.4359653 659.57059864 L 301.1145618 659.33808521 L 304.7931583 659.57059864 L 308.36599517 660.25300793 L 311.81491733 661.3626223 L 315.12177062 662.87674812 L 318.26840091 664.77269367 L 321.23665405 667.02776627 L 324.00837684 669.61927227 L 326.56541419 672.52451996 L 328.88961196 675.72081665 L 330.96281696 679.18546967 L 332.76687503 682.89578633 L 334.28363109 686.82907395 L 335.49493194 690.9626408 L 336.38262344 695.27379326 L 336.92855144 699.73983864 L 337.1145618 704.33808521 L 336.92855144 708.93633179 L 336.38262344 713.40237717 L 335.49493194 717.71352963 L 334.28363109 721.84709648 L 332.76687503 725.7803841 L 330.96281696 729.49070076 L 328.88961196 732.95535378 L 326.56541419 736.15165047 L 324.00837684 739.05689816 L 321.23665405 741.64840416 L 318.26840091 743.90347675 L 315.12177062 745.7994223 L 311.81491733 747.31354813 L 308.36599517 748.4231625 L 304.7931583 749.10557179 L 302.53950668 749.2480183 L 310.1145618 758.33808521 Z" fill="white"/>
<path d=" M 202.90871927 712.8854382 L 210.48377439 703.79537129 L 208.23012277 703.65292477 L 204.65728589 702.97051549 L 201.20836374 701.86090111 L 197.90151044 700.34677529 L 194.75488016 698.45082974 L 191.78662702 696.19575715 L 189.01490423 693.60425114 L 186.45786687 690.69900345 L 184.1336691 687.50270676 L 182.06046411 684.03805375 L 180.25640603 680.32773709 L 178.73964998 676.39444947 L 177.52834913 672.26088261 L 176.64065763 667.94973015 L 176.09472963 663.48368477 L 175.90871927 658.8854382 L 176.09472963 654.28719163 L 176.64065763 649.82114625 L 177.52834913 645.50999379 L 178.73964998 641.37642693 L 180.25640603 637.44313931 L 182.06046411 633.73282265 L 184.1336691 630.26816964 L 186.45786687 627.07187295 L 189.01490423 624.16662526 L 191.78662702 621.57511925 L 194.75488016 619.32004666 L 197.90151044 617.42410111 L 201.20836374 615.90997529 L 204.65728589 614.80036091 L 208.23012277 614.11795163 L 211.90871927 613.8854382 L 215.58731576 614.11795163 L 219.16015264 614.80036091 L 222.6090748 615.90997529 L 225.91592809 617.42410111 L 229.06255838 619.32004666 L 232.03081151 621.57511925 L 234.80253431 624.16662526 L 237.35957166 627.07187295 L 239.68376943 630.26816964 L 241.75697442 633.73282265 L 243.5610325 637.44313931 L 245.07778856 641.37642693 L 246.28908941 645.50999379 L 247.1767809 649.82114625 L 247.72270891 654.28719163 L 247.90871927 658.8854382 L 247.72270891 663.48368477 L 247.1767809 667.94973015 L 246.28908941 672.26088261 L 245.07778856 676.39444947 L 243.5610325 680.32773709 L 241.75697442 684.03805375 L 239.68376943 687.50270676 L 237.35957166 690.69900345 L 234.80253431 693.60425114 L 232.03081151 696.19575715 L 229.06255838 698.45082974 L 225.91592809 700.34677529 L 222.6090748 701.86090111 L 219.16015264 702.97051549 L 215.58731576 703.65292477 L 213.33366414 703.79537129 L 220.90871927 712.8854382 Z" fill="purple"/>
<path d=" M 132.1145618 642.09128073 L 139.68961692 633.00121382 L 137.4359653 632.85876731 L 133.86312843 632.17635802 L 130.41420627 631.06674365 L 127.10735298 629.55261782 L 123.96072269 627.65667227 L 120.99246955 625.40159968 L 118.22074676 622.81009368 L 115.66370941 619.90484599 L 113.33951164 616.7085493 L 111.26630664 613.24389628 L 109.46224857 609.53357962 L 107.94549251 605.600292 L 106.73419166 601.46672515 L 105.84650016 597.15557269 L 105.30057216 592.68952731 L 105.1145618 588.09128073 L 105.30057216 583.49303416 L 105.84650016 579.02698878 L 106.73419166 574.71583632 L 107.94549251 570.58226946 L 109.46224857 566.64898184 L 111.26630664 562.93866519 L 113.33951164 559.47401217 L 115.66370941 556.27771548 L 118.22074676 553.37246779 L 120.99246955 550.78096179 L 123.96072269 548.52588919 L 127.10735298 546.62994364 L 130.41420627 545.11581782 L 133.86312843 544.00620345 L 137.4359653 543.32379416 L 141.1145618 543.09128073 L 144.7931583 543.32379416 L 148.36599517 544.00620345 L 151.81491733 545.11581782 L 155.12177062 546.62994364 L 158.26840091 548.52588919 L 161.23665405 550.78096179 L 164.00837684 553.37246779 L 166.56541419 556.27771548 L 168.88961196 559.47401217 L 170.96281696 562.93866519 L 172.76687503 566.64898184 L 174.28363109 570.58226946 L 175.49493194 574.71583632 L 176.38262344 579.02698878 L 176.92855144 583.49303416 L 177.1145618 588.09128073 L 176.92855144 592.68952731 L 176.38262344 597.15557269 L 175.49493194 601.46672515 L 174.28363109 605.600292 L 172.76687503 609.53357962 L 170.96281696 613.24389628 L 168.88961196 616.7085493 L 166.56541419 619.90484599 L 164.00837684 622.81009368 L 161.23665405 625.40159968 L 158.26840091 627.65667227 L 155.12177062 629.55261782 L 151.81491733 631.06674365 L 148.36599517 632.17635802 L 144.7931583 632.85876731 L 142.53950668 633.00121382 L 150.1145618 642.09128073 Z" fill="white"/>
<path d=" M 86.66191479 552.8854382 L 94.23696991 543.79537129 L 91.98331829 543.65292477 L 88.41048141 542.97051549 L 84.96155926 541.86090111 L 81.65470596 540.34677529 L 78.50807567 538.45082974 L 75.53982254 536.19575715 L 72.76809974 533.60425114 L 70.21106239 530.69900345 L 67.88686462 527.50270676 L 65.81365963 524.03805375 L 64.00960155 520.32773709 L 62.4928455 516.39444947 L 61.28154465 512.26088261 L 60.39385315 507.94973015 L 59.84792515 503.48368477 L 59.66191479 498.8854382 L 59.84792515 494.28719163 L 60.39385315 489.82114625 L 61.28154465 485.50999379 L 62.4928455 481.37642693 L 64.00960155 477.44313931 L 65.81365963 473.73282265 L 67.88686462 470.26816964 L 70.21106239 467.07187295 L 72.76809974 464.16662526 L 75.53982254 461.57511925 L 78.50807567 459.32004666 L 81.65470596 457.42410111 L 84.96155926 455.90997529 L 88.41048141 454.80036091 L 91.98331829 454.11795163 L 95.66191479 453.8854382 L 99.34051128 454.11795163 L 102.91334816 454.80036091 L 106.36227032 455.90997529 L 109.66912361 457.42410111 L 112.8157539 459.32004666 L 115.78400703 461.57511925 L 118.55572983 464.16662526 L 121.11276718 467.07187295 L 123.43696495 470.26816964 L 125.51016994 473.73282265 L 127.31422802 477.44313931 L 128.83098408 481.37642693 L 130.04228493 485.50999379 L 130.92997642 489.82114625 L 131.47590442 494.28719163 L 131.66191479 498.8854382 L 131.47590442 503.48368477 L 130.92997642 507.94973015 L 130.04228493 512.26088261 L 128.83098408 516.39444947 L 127.31422802 520.32773709 L 125.51016994 524.03805375 L 123.43696495 527.50270676 L 121.11276718 530.69900345 L 118.55572983 533.60425114 L 115.78400703 536.19575715 L 112.8157539 538.45082974 L 109.66912361 540.34677529 L 106.36227032 541.86090111 L 102.91334816 542.97051549 L 99.34051128 543.65292477 L 97.08685966 543.79537129 L 104.66191479 552.8854382 Z" fill="purple"/>
<path d=" M 71.0 454.0 L 78.57505512 444.90993309 L 76.3214035 444.76748657 L 72.74856663 444.08507729 L 69.29964447 442.97546291 L 65.99279118 441.46133709 L 62.84616089 439.56539154 L 59.87790775 437.31031895 L 57.10618496 434.71881294 L 54.54914761 431.81356525 L 52.22494984 428.61726856 L 50.15174484 425.15261555 L 48.34768677 421.44229889 L 46.83093071 417.50901127 L 45.61962986 413.37544441 L 44.73193836 409.06429195 L 44.18601036 404.59824657 L 44.0 400.0 L 44.18601036 395.40175343 L 44.73193836 390.93570805 L 45.61962986 386.62455559 L 46.83093071 382.49098873 L 48.34768677 378.55770111 L 50.15174484 374.84738445 L 52.22494984 371.38273144 L 54.54914761 368.18643475 L 57.10618496 365.28118706 L 59.87790775 362.68968105 L 62.84616089 360.43460846 L 65.99279118 358.53866291 L 69.29964447 357.02453709 L 72.74856663 355.91492271 L 76.3214035 355.23251343 L 80.0 355.0 L 83.6785965 355.23251343 L 87.25143337 355.91492271 L 90.70035553 357.02453709 L 94.00720882 358.53866291 L 97.15383911 360.43460846 L 100.12209225 362.68968105 L 102.89381504 365.28118706 L 105.45085239 368.18643475 L 107.77505016 371.38273144 L 109.84825516 374.84738445 L 111.65231323 378.55770111 L 113.16906929 382.49098873 L 114.38037014 386.62455559 L 115.26806164 390.93570805 L 115.81398964 395.40175343 L 116.0 400.0 L 115.81398964 404.59824657 L 115.26806164 409.06429195 L 114.38037014 413.37544441 L 113.16906929 417.50901127 L 111.65231323 421.44229889 L 109.84825516 425.15261555 L 107.77505016 428.61726856 L 105.45085239 431.81356525 L 102.89381504 434.71881294 L 100.12209225 437.31031895 L 97.15383911 439.56539154 L 94.00720882 441.46133709 L 90.70035553 442.97546291 L 87.25143337 444.08507729 L 83.6785965 444.76748657 L 81.42494488 444.90993309 L 89.0 454.0 Z" fill="white"/>
<path d=" M 250.0 500.0 L 250.0 300.0 L 350.0 300.0 L 380.0 250.0 L 460.0 250.0 L 490.0 300.0 L 490.0 285.0 L 540.0 285.0 L 540.0 300.0 L 550.0 300.0 L 550.0 500.0 Z M 420.0 480.0 L 421.57069492 479.98457909 L 423.14078522 479.93832207 L 424.70966339 479.86124802 L 426.27672672 479.7533865 L 427.84137058 479.61477757 L 429.40299129 479.44547653 L 430.96098709 479.24554634 L 432.51475716 479.0150671 L 434.06370163 478.75412464 L 435.60722542 478.46282196 L 437.14473152 478.14126968 L 438.67562866 477.78959274 L 440.19932556 477.40792656 L 441.71523571 476.996418 L 443.22277355 476.55522633 L 444.72135925 476.08452129 L 446.21041393 475.58448315 L 447.68936443 475.05530643 L 449.1576395 474.49719429 L 450.61467457 473.91036224 L 452.05990601 473.29503632 L 453.49277878 472.65145302 L 454.9127388 471.97986221 L 456.31923962 471.28052139 L 457.71173859 470.55370045 L 459.08969879 469.79967976 L 460.45258904 469.01875019 L 461.7998848 468.21121311 L 463.13106537 467.37737846 L 464.44561863 466.51756859 L 465.74303627 465.63211536 L 467.02281952 464.72135925 L 468.28447533 463.78565216 L 469.52751541 462.82535362 L 470.75146198 461.84083557 L 471.95584297 460.83247662 L 473.14019489 459.80066586 L 474.30405903 458.74580002 L 475.44698811 457.66828728 L 476.56854248 456.56854248 L 477.66828728 455.44698811 L 478.74580002 454.30405903 L 479.80066586 453.14019489 L 480.83247662 451.95584297 L 481.84083557 450.75146198 L 482.82535362 449.52751541 L 483.78565216 448.28447533 L 484.72135925 447.02281952 L 485.63211536 445.74303627 L 486.51756859 444.44561863 L 487.37737846 443.13106537 L 488.21121311 441.7998848 L 489.01875019 440.45258904 L 489.79967976 439.08969879 L 490.55370045 437.71173859 L 491.28052139 436.31923962 L 491.97986221 434.9127388 L 492.65145302 433.49277878 L 493.29503632 432.05990601 L 493.91036224 430.61467457 L 494.49719429 429.1576395 L 495.05530643 427.68936443 L 495.58448315 426.21041393 L 496.08452129 424.72135925 L 496.55522633 423.22277355 L 496.996418 421.71523571 L 497.40792656 420.19932556 L 497.78959274 418.67562866 L 498.14126968 417.14473152 L 498.46282196 415.60722542 L 498.75412464 414.06370163 L 499.0150671 412.51475716 L 499.24554634 410.96098709 L 499.44547653 409.40299129 L 499.61477757 407.84137058 L 499.7533865 406.27672672 L 499.86124802 404.70966339 L 499.93832207 403.14078522 L 499.98457909 401.57069492 L 500.0 400.0 L 499.98457909 398.42930412 L 499.93832207 396.85921383 L 499.86124802 395.29033566 L 499.7533865 393.72327232 L 499.61477757 392.15862846 L 499.44547653 390.59700775 L 499.24554634 389.03901196 L 499.0150671 387.48524189 L 498.75412464 385.93629742 L 498.46282196 384.39277363 L 498.14126968 382.85526752 L 497.78959274 381.32437038 L 497.40792656 379.80067348 L 496.996418 378.28476334 L 496.55522633 376.77722549 L 496.08452129 375.27863979 L 495.58448315 373.78958511 L 495.05530643 372.31063461 L 494.49719429 370.84235954 L 493.91036224 369.38532448 L 493.29503632 367.94009304 L 492.65145302 366.50722027 L 491.97986221 365.08726025 L 491.28052139 363.68075943 L 490.55370045 362.28826046 L 489.79967976 360.91030025 L 489.01875019 359.54741001 L 488.21121311 358.20011425 L 487.37737846 356.86893368 L 486.51756859 355.55438042 L 485.63211536 354.25696278 L 484.72135925 352.97717953 L 483.78565216 351.71552372 L 482.82535362 350.47248363 L 481.84083557 349.24853706 L 480.83247662 348.04415607 L 479.80066586 346.85980415 L 478.74580002 345.69594002 L 477.66828728 344.55301094 L 476.56854248 343.43145657 L 475.44698811 342.33171177 L 474.30405903 341.25419903 L 473.14019489 340.19933319 L 471.95584297 339.16752243 L 470.75146198 338.15916348 L 469.52751541 337.17464542 L 468.28447533 336.21434689 L 467.02281952 335.27863979 L 465.74303627 334.36788368 L 464.44561863 333.48243046 L 463.13106537 332.62262058 L 461.7998848 331.78878593 L 460.45258904 330.98124886 L 459.08969879 330.20031929 L 457.71173859 329.4462986 L 456.31923962 328.71947765 L 454.9127388 328.02013683 L 453.49277878 327.34854603 L 452.05990601 326.70496273 L 450.61467457 326.0896368 L 449.1576395 325.50280476 L 447.68936443 324.94469261 L 446.21041393 324.4155159 L 444.72135925 323.91547775 L 443.22277355 323.44477272 L 441.71523571 323.00358105 L 440.19932556 322.59207249 L 438.67562866 322.2104063 L 437.14473152 321.85872936 L 435.60722542 321.53717709 L 434.06370163 321.2458744 L 432.51475716 320.98493195 L 430.96098709 320.75445271 L 429.40299129 320.55452251 L 427.84137058 320.38522148 L 426.27672672 320.24661255 L 424.70966339 320.13875103 L 423.14078522 320.06167698 L 421.57069492 320.01541996 L 420.0 320.0 L 418.42930412 320.01541996 L 416.85921383 320.06167698 L 415.29033566 320.13875103 L 413.72327232 320.24661255 L 412.15862846 320.38522148 L 410.59700775 320.55452251 L 409.03901196 320.75445271 L 407.48524189 320.98493195 L 405.93629742 321.2458744 L 404.39277363 321.53717709 L 402.85526752 321.85872936 L 401.32437038 322.2104063 L 399.80067348 322.59207249 L 398.28476334 323.00358105 L 396.77722549 323.44477272 L 395.27863979 323.91547775 L 393.78958511 324.4155159 L 392.31063461 324.94469261 L 390.84235954 325.50280476 L 389.38532448 326.0896368 L 387.94009304 326.70496273 L 386.50722027 327.34854603 L 385.08726025 328.02013683 L 383.68075943 328.71947765 L 382.28826046 329.4462986 L 380.91030025 330.20031929 L 379.54741001 330.98124886 L 378.20011425 331.78878593 L 376.86893368 332.62262058 L 375.55438042 333.48243046 L 374.25696278 334.36788368 L 372.97717953 335.27863979 L 371.71552372 336.21434689 L 370.47248363 337.17464542 L 369.24853706 338.15916348 L 368.04415607 339.16752243 L 366.85980415 340.19933319 L 365.69594002 341.25419903 L 364.55301094 342.33171177 L 363.43145657 343.43145657 L 362.33171177 344.55301094 L 361.25419903 345.69594002 L 360.19933319 346.85980415 L 359.16752243 348.04415607 L 358.15916348 349.24853706 L 357.17464542 350.47248363 L 356.21434689 351.71552372 L 355.27863979 352.97717953 L 354.36788368 354.25696278 L 353.48243046 355.55438042 L 352.62262058 356.86893368 L 351.78878593 358.20011425 L 350.98124886 359.54741001 L 350.20031929 360.91030025 L 349.4462986 362.28826046 L 348.71947765 363.68075943 L 348.02013683 365.08726025 L 347.34854603 366.50722027 L 346.70496273 367.94009304 L 346.0896368 369.38532448 L 345.50280476 370.84235954 L 344.94469261 372.31063461 L 344.4155159 373.78958511 L 343.91547775 375.27863979 L 343.44477272 376.77722549 L 343.00358105 378.28476334 L 342.59207249 379.80067348 L 342.2104063 381.32437038 L 341.85872936 382.85526752 L 341.53717709 384.39277363 L 341.2458744 385.93629742 L 340.98493195 387.48524189 L 340.75445271 389.03901196 L 340.55452251 390.59700775 L 340.38522148 392.15862846 L 340.24661255 393.72327232 L 340.13875103 395.29033566 L 340.06167698 396.85921383 L 340.01541996 398.42930412 L 340.0 400.0 L 340.01541996 401.57069492 L 340.06167698 403.14078522 L 340.13875103 404.70966339 L 340.24661255 406.27672672 L 340.38522148 407.84137058 L 340.55452251 409.40299129 L 340.75445271 410.96098709 L 340.98493195 412.51475716 L 341.2458744 414.06370163 L 341.53717709 415.60722542 L 341.85872936 417.14473152 L 342.2104063 418.67562866 L 342.59207249 420.19932556 L 343.00358105 421.71523571 L 343.44477272 423.22277355 L 343.91547775 424.72135925 L 344.4155159 426.21041393 L 344.94469261 427.68936443 L 345.50280476 429.1576395 L 346.0896368 430.61467457 L 346.70496273 432.05990601 L 347.34854603 433.49277878 L 348.02013683 434.9127388 L 348.71947765 436.31923962 L 349.4462986 437.71173859 L 350.20031929 439.08969879 L 350.98124886 440.45258904 L 351.78878593 441.7998848 L 352.62262058 443.13106537 L 353.48243046 444.44561863 L 354.36788368 445.74303627 L 355.27863979 447.02281952 L 356.21434689 448.28447533 L 357.17464542 449.52751541 L 358.15916348 450.75146198 L 359.16752243 451.95584297 L 360.19933319 453.14019489 L 361.25419903 454.30405903 L 362.33171177 455.44698811 L 363.43145657 456.56854248 L 364.55301094 457.66828728 L 365.69594002 458.74580002 L 366.85980415 459.80066586 L 368.04415607 460.83247662 L 369.24853706 461.84083557 L 370.47248363 462.82535362 L 371.71552372 463.78565216 L 372.97717953 464.72135925 L 374.25696278 465.63211536 L 375.55438042 466.51756859 L 376.86893368 467.37737846 L 378.20011425 468.21121311 L 379.54741001 469.01875019 L 380.91030025 469.79967976 L 382.28826046 470.55370045 L 383.68075943 471.28052139 L 385.08726025 471.97986221 L 386.50722027 472.65145302 L 387.94009304 473.29503632 L 389.38532448 473.91036224 L 390.84235954 474.49719429 L 392.31063461 475.05530643 L 393.78958511 475.58448315 L 395.27863979 476.08452129 L 396.77722549 476.55522633 L 398.28476334 476.996418 L 399.80067348 477.40792656 L 401.32437038 477.78959274 L 402.85526752 478.14126968 L 404.39277363 478.46282196 L 405.93629742 478.75412464 L 407.48524189 479.0150671 L 409.03901196 479.24554634 L 410.59700775 479.44547653 L 412.15862846 479.61477757 L 413.72327232 479.7533865 L 415.29033566 479.86124802 L 416.85921383 479.93832207 L 418.42930412 479.98457909 Z" fill="black"/>
<rect x="250" y="340" width="70" height="8" fill="darkred"/>
</svg>
