<svg version="1.1"
     xmlns="http://www.w3.org/2000/svg"
     width="210"
     height="210">

<rect x="0" y="0" width="210" height="210" fill="none"/>
<rect x="5" y="90" width="200" height="40" fill="purple"/>
<path d=" M 5.0 205.0 L 5.0 83.96831035614014 L 5.187272071838379 84.4041976928711 L 5.844882011413574 85.8306655883789 L 6.539608001708984 87.23942947387695 L 7.270973205566406 88.62952518463135 L 8.038475036621094 90.0 L 8.84158992767334 91.34991359710693 L 9.679765701293945 92.67834186553955 L 10.552428245544434 93.98437404632568 L 11.458979606628418 95.26711463928223 L 12.398798942565918 96.52568531036377 L 13.371241569519043 97.75922298431396 L 14.375641822814941 98.96688270568848 L 15.411310195922852 100.14783573150635 L 16.477537155151367 101.30127429962158 L 17.57359218597412 102.42640686035156 L 18.6987247467041 103.52246189117432 L 19.852163314819336 104.58868885040283 L 21.033116340637207 105.62435722351074 L 22.24077606201172 106.62875747680664 L 23.474313735961914 107.60120010375977 L 24.732884407043457 108.54101943969727 L 26.015625 109.44757080078125 L 27.321657180786133 110.32023334503174 L 28.65008544921875 111.15840911865234 L 30.0 111.96152400970459 L 31.370473861694336 112.72902584075928 L 32.76056957244873 113.4603910446167 L 34.16933345794678 114.15511703491211 L 35.59580135345459 114.8127269744873 L 37.03899383544922 115.43277168273926 L 38.49792289733887 116.01482486724854 L 39.971588134765625 116.5584888458252 L 41.45897960662842 117.06339073181152 L 42.959078788757324 117.52918338775635 L 44.47085666656494 117.9555492401123 L 45.99327754974365 118.34219455718994 L 47.52529811859131 118.68885517120361 L 49.06586837768555 118.99529361724854 L 50.61393165588379 119.2613000869751 L 52.16842842102051 119.48669147491455 L 53.728291511535645 119.67131328582764 L 55.29245376586914 119.81503963470459 L 56.85984230041504 119.9177713394165 L 58.42938232421875 119.97943878173828 L 60.0 120.0 L 61.570616722106934 119.97943878173828 L 63.140156745910645 119.9177713394165 L 64.70754528045654 119.81503963470459 L 66.27170753479004 119.67131328582764 L 67.83157062530518 119.48669147491455 L 69.3860673904419 119.2613000869751 L 70.93413066864014 118.99529361724854 L 72.47470092773438 118.68885517120361 L 74.00672149658203 118.34219455718994 L 75.52914237976074 117.9555492401123 L 77.04092025756836 117.52918338775635 L 78.54101943969727 117.06339073181152 L 80.02841091156006 116.5584888458252 L 81.50207614898682 116.01482486724854 L 82.96100521087646 115.43277168273926 L 84.4041976928711 114.8127269744873 L 85.8306655883789 114.15511703491211 L 87.23942947387695 113.4603910446167 L 88.62952518463135 112.72902584075928 L 90.0 111.96152400970459 L 91.34991359710693 111.15840911865234 L 92.67834186553955 110.32023334503174 L 93.98437404632568 109.44757080078125 L 95.26711463928223 108.54101943969727 L 96.52568531036377 107.60120010375977 L 97.75922298431396 106.62875747680664 L 98.96688270568848 105.62435722351074 L 100.14783573150635 104.58868885040283 L 101.30127429962158 103.52246189117432 L 102.42640686035156 102.42640686035156 L 103.52246189117432 101.30127429962158 L 104.58868885040283 100.14783573150635 L 105.62435722351074 98.96688270568848 L 106.62875747680664 97.75922298431396 L 107.60120010375977 96.52568531036377 L 108.54101943969727 95.26711463928223 L 109.44757080078125 93.98437404632568 L 110.32023334503174 92.67834186553955 L 111.15840911865234 91.34991359710693 L 111.96152400970459 90.0 L 112.72902584075928 88.62952518463135 L 113.4603910446167 87.23942947387695 L 114.15511703491211 85.8306655883789 L 114.8127269744873 84.4041976928711 L 115.43277168273926 82.96100521087646 L 116.01482486724854 81.50207614898682 L 116.5584888458252 80.02841091156006 L 117.06339073181152 78.54101943969727 L 117.52918338775635 77.04092025756836 L 117.9555492401123 75.52914237976074 L 118.34219455718994 74.00672149658203 L 118.68885517120361 72.47470092773438 L 118.99529361724854 70.93413066864014 L 119.2613000869751 69.3860673904419 L 119.48669147491455 67.83157062530518 L 119.67131328582764 66.27170753479004 L 119.81503963470459 64.70754528045654 L 119.9177713394165 63.140156745910645 L 119.97943878173828 61.570616722106934 L 120.0 60.0 L 119.97943878173828 58.42938232421875 L 119.9177713394165 56.85984230041504 L 119.81503963470459 55.29245376586914 L 119.67131328582764 53.728291511535645 L 119.48669147491455 52.16842842102051 L 119.2613000869751 50.61393165588379 L 118.99529361724854 49.06586837768555 L 118.68885517120361 47.52529811859131 L 118.34219455718994 45.99327754974365 L 117.9555492401123 44.47085666656494 L 117.52918338775635 42.959078788757324 L 117.06339073181152 41.45897960662842 L 116.5584888458252 39.971588134765625 L 116.01482486724854 38.49792289733887 L 115.43277168273926 37.03899383544922 L 114.8127269744873 35.59580135345459 L 114.15511703491211 34.16933345794678 L 113.4603910446167 32.76056957244873 L 112.72902584075928 31.370473861694336 L 111.96152400970459 29.999999046325684 L 111.15840911865234 28.65008544921875 L 110.32023334503174 27.321657180786133 L 109.44757080078125 26.015625 L 108.54101943969727 24.732884407043457 L 107.60120010375977 23.474313735961914 L 106.62875747680664 22.24077606201172 L 105.62435722351074 21.033116340637207 L 104.58868885040283 19.852163314819336 L 103.52246189117432 18.6987247467041 L 102.42640686035156 17.57359218597412 L 101.30127429962158 16.477537155151367 L 100.14783573150635 15.411310195922852 L 98.96688270568848 14.375641822814941 L 97.75922298431396 13.371241569519043 L 96.52568531036377 12.398798942565918 L 95.26711463928223 11.458979606628418 L 93.98437404632568 10.552428245544434 L 92.67834186553955 9.679765701293945 L 91.34991359710693 8.84158992767334 L 89.99999904632568 8.038475036621094 L 88.62952518463135 7.270973205566406 L 87.23942947387695 6.539608001708984 L 85.8306655883789 5.844882011413574 L 84.4041976928711 5.187272071838379 L 83.96831035614014 5.0 L 205.0 5.0 L 205.0 205.0 Z M 120.0 165.0 L 180.0 165.0 L 180.0 105.0 L 120.0 105.0 Z M 60.0 80.0 L 58.43081760406494 79.93834590911865 L 56.871310234069824 79.75376605987549 L 55.33109188079834 79.44739818572998 L 53.81965923309326 79.0211296081543 L 52.346330642700195 78.47759056091309 L 50.92018985748291 77.82013034820557 L 49.55002784729004 77.05280303955078 L 48.24429416656494 76.18033981323242 L 47.0110387802124 75.2081184387207 L 45.857863426208496 74.14213562011719 L 44.79188060760498 72.98896026611328 L 43.81965923309326 71.75570487976074 L 42.9471960067749 70.44997119903564 L 42.17986869812012 69.07980918884277 L 41.5224084854126 67.65366840362549 L 40.97886943817139 66.18033981323242 L 40.5526008605957 64.66890716552734 L 40.246232986450195 63.12868881225586 L 40.06165313720703 61.56918144226074 L 40.0 60.0 L 40.06165313720703 58.43081760406494 L 40.246232986450195 56.871310234069824 L 40.5526008605957 55.33109188079834 L 40.97886943817139 53.81965923309326 L 41.5224084854126 52.346330642700195 L 42.17986869812012 50.92018985748291 L 42.9471960067749 49.55002784729004 L 43.81965923309326 48.24429416656494 L 44.79188060760498 47.0110387802124 L 45.857863426208496 45.857863426208496 L 47.0110387802124 44.79188060760498 L 48.24429416656494 43.81965923309326 L 49.55002784729004 42.9471960067749 L 50.92018985748291 42.17986869812012 L 52.346330642700195 41.5224084854126 L 53.81965923309326 40.97886943817139 L 55.33109188079834 40.5526008605957 L 56.871310234069824 40.246232986450195 L 58.43081760406494 40.06165313720703 L 59.999999046325684 40.0 L 61.56918144226074 40.06165313720703 L 63.12868881225586 40.246232986450195 L 64.66890716552734 40.5526008605957 L 66.18033981323242 40.97886943817139 L 67.65366840362549 41.5224084854126 L 69.07980918884277 42.17986869812012 L 70.44997119903564 42.9471960067749 L 71.75570487976074 43.81965923309326 L 72.98896026611328 44.79188060760498 L 74.14213562011719 45.857863426208496 L 75.2081184387207 47.0110387802124 L 76.18033981323242 48.24429416656494 L 77.05280303955078 49.55002784729004 L 77.82013034820557 50.92018985748291 L 78.47759056091309 52.346330642700195 L 79.0211296081543 53.81965923309326 L 79.44739818572998 55.33109188079834 L 79.75376605987549 56.871310234069824 L 79.93834590911865 58.43081760406494 L 80.0 60.0 L 79.93834590911865 61.56918144226074 L 79.75376605987549 63.12868881225586 L 79.44739818572998 64.66890716552734 L 79.0211296081543 66.18033981323242 L 78.47759056091309 67.65366840362549 L 77.82013034820557 69.07980918884277 L 77.05280303955078 70.44997119903564 L 76.18033981323242 71.75570487976074 L 75.2081184387207 72.98896026611328 L 74.14213562011719 74.14213562011719 L 72.98896026611328 75.2081184387207 L 71.75570487976074 76.18033981323242 L 70.44997119903564 77.05280303955078 L 69.07980918884277 77.82013034820557 L 67.65366840362549 78.47759056091309 L 66.18033981323242 79.0211296081543 L 64.66890716552734 79.44739818572998 L 63.12868881225586 79.75376605987549 L 61.56918144226074 79.93834590911865 Z M 5.0 36.03168869018555 L 5.0 5.0 L 36.03168869018555 5.0 L 35.59580135345459 5.187272071838379 L 34.16933345794678 5.844882011413574 L 32.76056957244873 6.539608001708984 L 31.370473861694336 7.270973205566406 L 29.999999046325684 8.038475036621094 L 28.65008544921875 8.84158992767334 L 27.321657180786133 9.679765701293945 L 26.015625 10.552428245544434 L 24.732884407043457 11.458979606628418 L 23.474313735961914 12.398798942565918 L 22.24077606201172 13.371241569519043 L 21.033116340637207 14.375641822814941 L 19.852163314819336 15.411310195922852 L 18.6987247467041 16.477537155151367 L 17.57359218597412 17.57359218597412 L 16.477537155151367 18.6987247467041 L 15.411310195922852 19.852163314819336 L 14.375641822814941 21.033116340637207 L 13.371241569519043 22.24077606201172 L 12.398798942565918 23.474313735961914 L 11.458979606628418 24.732884407043457 L 10.552428245544434 26.015625 L 9.679765701293945 27.321657180786133 L 8.84158992767334 28.65008544921875 L 8.038475036621094 30.0 L 7.270973205566406 31.370473861694336 L 6.539608001708984 32.76056957244873 L 5.844882011413574 34.16933345794678 L 5.187272071838379 35.59580135345459 Z" fill="blue"/>
<circle cx="5.0" cy="205.0" r="3" fill="green"/>
<circle cx="5.0" cy="83.96831035614014" r="3" fill="green"/>
<circle cx="5.187272071838379" cy="84.4041976928711" r="3" fill="green"/>
<circle cx="5.844882011413574" cy="85.8306655883789" r="3" fill="green"/>
<circle cx="6.539608001708984" cy="87.23942947387695" r="3" fill="green"/>
<circle cx="7.270973205566406" cy="88.62952518463135" r="3" fill="green"/>
<circle cx="8.038475036621094" cy="90.0" r="3" fill="green"/>
<circle cx="8.84158992767334" cy="91.34991359710693" r="3" fill="green"/>
<circle cx="9.679765701293945" cy="92.67834186553955" r="3" fill="green"/>
<circle cx="10.552428245544434" cy="93.98437404632568" r="3" fill="green"/>
<circle cx="11.458979606628418" cy="95.26711463928223" r="3" fill="green"/>
<circle cx="12.398798942565918" cy="96.52568531036377" r="3" fill="green"/>
<circle cx="13.371241569519043" cy="97.75922298431396" r="3" fill="green"/>
<circle cx="14.375641822814941" cy="98.96688270568848" r="3" fill="green"/>
<circle cx="15.411310195922852" cy="100.14783573150635" r="3" fill="green"/>
<circle cx="16.477537155151367" cy="101.30127429962158" r="3" fill="green"/>
<circle cx="17.57359218597412" cy="102.42640686035156" r="3" fill="green"/>
<circle cx="18.6987247467041" cy="103.52246189117432" r="3" fill="green"/>
<circle cx="19.852163314819336" cy="104.58868885040283" r="3" fill="green"/>
<circle cx="21.033116340637207" cy="105.62435722351074" r="3" fill="green"/>
<circle cx="22.24077606201172" cy="106.62875747680664" r="3" fill="green"/>
<circle cx="23.474313735961914" cy="107.60120010375977" r="3" fill="green"/>
<circle cx="24.732884407043457" cy="108.54101943969727" r="3" fill="green"/>
<circle cx="26.015625" cy="109.44757080078125" r="3" fill="green"/>
<circle cx="27.321657180786133" cy="110.32023334503174" r="3" fill="green"/>
<circle cx="28.65008544921875" cy="111.15840911865234" r="3" fill="green"/>
<circle cx="30.0" cy="111.96152400970459" r="3" fill="green"/>
<circle cx="31.370473861694336" cy="112.72902584075928" r="3" fill="green"/>
<circle cx="32.76056957244873" cy="113.4603910446167" r="3" fill="green"/>
<circle cx="34.16933345794678" cy="114.15511703491211" r="3" fill="green"/>
<circle cx="35.59580135345459" cy="114.8127269744873" r="3" fill="green"/>
<circle cx="37.03899383544922" cy="115.43277168273926" r="3" fill="green"/>
<circle cx="38.49792289733887" cy="116.01482486724854" r="3" fill="green"/>
<circle cx="39.971588134765625" cy="116.5584888458252" r="3" fill="green"/>
<circle cx="41.45897960662842" cy="117.06339073181152" r="3" fill="green"/>
<circle cx="42.959078788757324" cy="117.52918338775635" r="3" fill="green"/>
<circle cx="44.47085666656494" cy="117.9555492401123" r="3" fill="green"/>
<circle cx="45.99327754974365" cy="118.34219455718994" r="3" fill="green"/>
<circle cx="47.52529811859131" cy="118.68885517120361" r="3" fill="green"/>
<circle cx="49.06586837768555" cy="118.99529361724854" r="3" fill="green"/>
<circle cx="50.61393165588379" cy="119.2613000869751" r="3" fill="green"/>
<circle cx="52.16842842102051" cy="119.48669147491455" r="3" fill="green"/>
<circle cx="53.728291511535645" cy="119.67131328582764" r="3" fill="green"/>
<circle cx="55.29245376586914" cy="119.81503963470459" r="3" fill="green"/>
<circle cx="56.85984230041504" cy="119.9177713394165" r="3" fill="green"/>
<circle cx="58.42938232421875" cy="119.97943878173828" r="3" fill="green"/>
<circle cx="60.0" cy="120.0" r="3" fill="green"/>
<circle cx="61.570616722106934" cy="119.97943878173828" r="3" fill="green"/>
<circle cx="63.140156745910645" cy="119.9177713394165" r="3" fill="green"/>
<circle cx="64.70754528045654" cy="119.81503963470459" r="3" fill="green"/>
<circle cx="66.27170753479004" cy="119.67131328582764" r="3" fill="green"/>
<circle cx="67.83157062530518" cy="119.48669147491455" r="3" fill="green"/>
<circle cx="69.3860673904419" cy="119.2613000869751" r="3" fill="green"/>
<circle cx="70.93413066864014" cy="118.99529361724854" r="3" fill="green"/>
<circle cx="72.47470092773438" cy="118.68885517120361" r="3" fill="green"/>
<circle cx="74.00672149658203" cy="118.34219455718994" r="3" fill="green"/>
<circle cx="75.52914237976074" cy="117.9555492401123" r="3" fill="green"/>
<circle cx="77.04092025756836" cy="117.52918338775635" r="3" fill="green"/>
<circle cx="78.54101943969727" cy="117.06339073181152" r="3" fill="green"/>
<circle cx="80.02841091156006" cy="116.5584888458252" r="3" fill="green"/>
<circle cx="81.50207614898682" cy="116.01482486724854" r="3" fill="green"/>
<circle cx="82.96100521087646" cy="115.43277168273926" r="3" fill="green"/>
<circle cx="84.4041976928711" cy="114.8127269744873" r="3" fill="green"/>
<circle cx="85.8306655883789" cy="114.15511703491211" r="3" fill="green"/>
<circle cx="87.23942947387695" cy="113.4603910446167" r="3" fill="green"/>
<circle cx="88.62952518463135" cy="112.72902584075928" r="3" fill="green"/>
<circle cx="90.0" cy="111.96152400970459" r="3" fill="green"/>
<circle cx="91.34991359710693" cy="111.15840911865234" r="3" fill="green"/>
<circle cx="92.67834186553955" cy="110.32023334503174" r="3" fill="green"/>
<circle cx="93.98437404632568" cy="109.44757080078125" r="3" fill="green"/>
<circle cx="95.26711463928223" cy="108.54101943969727" r="3" fill="green"/>
<circle cx="96.52568531036377" cy="107.60120010375977" r="3" fill="green"/>
<circle cx="97.75922298431396" cy="106.62875747680664" r="3" fill="green"/>
<circle cx="98.96688270568848" cy="105.62435722351074" r="3" fill="green"/>
<circle cx="100.14783573150635" cy="104.58868885040283" r="3" fill="green"/>
<circle cx="101.30127429962158" cy="103.52246189117432" r="3" fill="green"/>
<circle cx="102.42640686035156" cy="102.42640686035156" r="3" fill="green"/>
<circle cx="103.52246189117432" cy="101.30127429962158" r="3" fill="green"/>
<circle cx="104.58868885040283" cy="100.14783573150635" r="3" fill="green"/>
<circle cx="105.62435722351074" cy="98.96688270568848" r="3" fill="green"/>
<circle cx="106.62875747680664" cy="97.75922298431396" r="3" fill="green"/>
<circle cx="107.60120010375977" cy="96.52568531036377" r="3" fill="green"/>
<circle cx="108.54101943969727" cy="95.26711463928223" r="3" fill="green"/>
<circle cx="109.44757080078125" cy="93.98437404632568" r="3" fill="green"/>
<circle cx="110.32023334503174" cy="92.67834186553955" r="3" fill="green"/>
<circle cx="111.15840911865234" cy="91.34991359710693" r="3" fill="green"/>
<circle cx="111.96152400970459" cy="90.0" r="3" fill="green"/>
<circle cx="112.72902584075928" cy="88.62952518463135" r="3" fill="green"/>
<circle cx="113.4603910446167" cy="87.23942947387695" r="3" fill="green"/>
<circle cx="114.15511703491211" cy="85.8306655883789" r="3" fill="green"/>
<circle cx="114.8127269744873" cy="84.4041976928711" r="3" fill="green"/>
<circle cx="115.43277168273926" cy="82.96100521087646" r="3" fill="green"/>
<circle cx="116.01482486724854" cy="81.50207614898682" r="3" fill="green"/>
<circle cx="116.5584888458252" cy="80.02841091156006" r="3" fill="green"/>
<circle cx="117.06339073181152" cy="78.54101943969727" r="3" fill="green"/>
<circle cx="117.52918338775635" cy="77.04092025756836" r="3" fill="green"/>
<circle cx="117.9555492401123" cy="75.52914237976074" r="3" fill="green"/>
<circle cx="118.34219455718994" cy="74.00672149658203" r="3" fill="green"/>
<circle cx="118.68885517120361" cy="72.47470092773438" r="3" fill="green"/>
<circle cx="118.99529361724854" cy="70.93413066864014" r="3" fill="green"/>
<circle cx="119.2613000869751" cy="69.3860673904419" r="3" fill="green"/>
<circle cx="119.48669147491455" cy="67.83157062530518" r="3" fill="green"/>
<circle cx="119.67131328582764" cy="66.27170753479004" r="3" fill="green"/>
<circle cx="119.81503963470459" cy="64.70754528045654" r="3" fill="green"/>
<circle cx="119.9177713394165" cy="63.140156745910645" r="3" fill="green"/>
<circle cx="119.97943878173828" cy="61.570616722106934" r="3" fill="green"/>
<circle cx="120.0" cy="60.0" r="3" fill="green"/>
<circle cx="119.97943878173828" cy="58.42938232421875" r="3" fill="green"/>
<circle cx="119.9177713394165" cy="56.85984230041504" r="3" fill="green"/>
<circle cx="119.81503963470459" cy="55.29245376586914" r="3" fill="green"/>
<circle cx="119.67131328582764" cy="53.728291511535645" r="3" fill="green"/>
<circle cx="119.48669147491455" cy="52.16842842102051" r="3" fill="green"/>
<circle cx="119.2613000869751" cy="50.61393165588379" r="3" fill="green"/>
<circle cx="118.99529361724854" cy="49.06586837768555" r="3" fill="green"/>
<circle cx="118.68885517120361" cy="47.52529811859131" r="3" fill="green"/>
<circle cx="118.34219455718994" cy="45.99327754974365" r="3" fill="green"/>
<circle cx="117.9555492401123" cy="44.47085666656494" r="3" fill="green"/>
<circle cx="117.52918338775635" cy="42.959078788757324" r="3" fill="green"/>
<circle cx="117.06339073181152" cy="41.45897960662842" r="3" fill="green"/>
<circle cx="116.5584888458252" cy="39.971588134765625" r="3" fill="green"/>
<circle cx="116.01482486724854" cy="38.49792289733887" r="3" fill="green"/>
<circle cx="115.43277168273926" cy="37.03899383544922" r="3" fill="green"/>
<circle cx="114.8127269744873" cy="35.59580135345459" r="3" fill="green"/>
<circle cx="114.15511703491211" cy="34.16933345794678" r="3" fill="green"/>
<circle cx="113.4603910446167" cy="32.76056957244873" r="3" fill="green"/>
<circle cx="112.72902584075928" cy="31.370473861694336" r="3" fill="green"/>
<circle cx="111.96152400970459" cy="29.999999046325684" r="3" fill="green"/>
<circle cx="111.15840911865234" cy="28.65008544921875" r="3" fill="green"/>
<circle cx="110.32023334503174" cy="27.321657180786133" r="3" fill="green"/>
<circle cx="109.44757080078125" cy="26.015625" r="3" fill="green"/>
<circle cx="108.54101943969727" cy="24.732884407043457" r="3" fill="green"/>
<circle cx="107.60120010375977" cy="23.474313735961914" r="3" fill="green"/>
<circle cx="106.62875747680664" cy="22.24077606201172" r="3" fill="green"/>
<circle cx="105.62435722351074" cy="21.033116340637207" r="3" fill="green"/>
<circle cx="104.58868885040283" cy="19.852163314819336" r="3" fill="green"/>
<circle cx="103.52246189117432" cy="18.6987247467041" r="3" fill="green"/>
<circle cx="102.42640686035156" cy="17.57359218597412" r="3" fill="green"/>
<circle cx="101.30127429962158" cy="16.477537155151367" r="3" fill="green"/>
<circle cx="100.14783573150635" cy="15.411310195922852" r="3" fill="green"/>
<circle cx="98.96688270568848" cy="14.375641822814941" r="3" fill="green"/>
<circle cx="97.75922298431396" cy="13.371241569519043" r="3" fill="green"/>
<circle cx="96.52568531036377" cy="12.398798942565918" r="3" fill="green"/>
<circle cx="95.26711463928223" cy="11.458979606628418" r="3" fill="green"/>
<circle cx="93.98437404632568" cy="10.552428245544434" r="3" fill="green"/>
<circle cx="92.67834186553955" cy="9.679765701293945" r="3" fill="green"/>
<circle cx="91.34991359710693" cy="8.84158992767334" r="3" fill="green"/>
<circle cx="89.99999904632568" cy="8.038475036621094" r="3" fill="green"/>
<circle cx="88.62952518463135" cy="7.270973205566406" r="3" fill="green"/>
<circle cx="87.23942947387695" cy="6.539608001708984" r="3" fill="green"/>
<circle cx="85.8306655883789" cy="5.844882011413574" r="3" fill="green"/>
<circle cx="84.4041976928711" cy="5.187272071838379" r="3" fill="green"/>
<circle cx="83.96831035614014" cy="5.0" r="3" fill="green"/>
<circle cx="205.0" cy="5.0" r="3" fill="green"/>
<circle cx="205.0" cy="205.0" r="3" fill="green"/>
<circle cx="120.0" cy="165.0" r="3" fill="green"/>
<circle cx="180.0" cy="165.0" r="3" fill="green"/>
<circle cx="180.0" cy="105.0" r="3" fill="green"/>
<circle cx="120.0" cy="105.0" r="3" fill="green"/>
<circle cx="60.0" cy="80.0" r="3" fill="green"/>
<circle cx="58.43081760406494" cy="79.93834590911865" r="3" fill="green"/>
<circle cx="56.871310234069824" cy="79.75376605987549" r="3" fill="green"/>
<circle cx="55.33109188079834" cy="79.44739818572998" r="3" fill="green"/>
<circle cx="53.81965923309326" cy="79.0211296081543" r="3" fill="green"/>
<circle cx="52.346330642700195" cy="78.47759056091309" r="3" fill="green"/>
<circle cx="50.92018985748291" cy="77.82013034820557" r="3" fill="green"/>
<circle cx="49.55002784729004" cy="77.05280303955078" r="3" fill="green"/>
<circle cx="48.24429416656494" cy="76.18033981323242" r="3" fill="green"/>
<circle cx="47.0110387802124" cy="75.2081184387207" r="3" fill="green"/>
<circle cx="45.857863426208496" cy="74.14213562011719" r="3" fill="green"/>
<circle cx="44.79188060760498" cy="72.98896026611328" r="3" fill="green"/>
<circle cx="43.81965923309326" cy="71.75570487976074" r="3" fill="green"/>
<circle cx="42.9471960067749" cy="70.44997119903564" r="3" fill="green"/>
<circle cx="42.17986869812012" cy="69.07980918884277" r="3" fill="green"/>
<circle cx="41.5224084854126" cy="67.65366840362549" r="3" fill="green"/>
<circle cx="40.97886943817139" cy="66.18033981323242" r="3" fill="green"/>
<circle cx="40.5526008605957" cy="64.66890716552734" r="3" fill="green"/>
<circle cx="40.246232986450195" cy="63.12868881225586" r="3" fill="green"/>
<circle cx="40.06165313720703" cy="61.56918144226074" r="3" fill="green"/>
<circle cx="40.0" cy="60.0" r="3" fill="green"/>
<circle cx="40.06165313720703" cy="58.43081760406494" r="3" fill="green"/>
<circle cx="40.246232986450195" cy="56.871310234069824" r="3" fill="green"/>
<circle cx="40.5526008605957" cy="55.33109188079834" r="3" fill="green"/>
<circle cx="40.97886943817139" cy="53.81965923309326" r="3" fill="green"/>
<circle cx="41.5224084854126" cy="52.346330642700195" r="3" fill="green"/>
<circle cx="42.17986869812012" cy="50.92018985748291" r="3" fill="green"/>
<circle cx="42.9471960067749" cy="49.55002784729004" r="3" fill="green"/>
<circle cx="43.81965923309326" cy="48.24429416656494" r="3" fill="green"/>
<circle cx="44.79188060760498" cy="47.0110387802124" r="3" fill="green"/>
<circle cx="45.857863426208496" cy="45.857863426208496" r="3" fill="green"/>
<circle cx="47.0110387802124" cy="44.79188060760498" r="3" fill="green"/>
<circle cx="48.24429416656494" cy="43.81965923309326" r="3" fill="green"/>
<circle cx="49.55002784729004" cy="42.9471960067749" r="3" fill="green"/>
<circle cx="50.92018985748291" cy="42.17986869812012" r="3" fill="green"/>
<circle cx="52.346330642700195" cy="41.5224084854126" r="3" fill="green"/>
<circle cx="53.81965923309326" cy="40.97886943817139" r="3" fill="green"/>
<circle cx="55.33109188079834" cy="40.5526008605957" r="3" fill="green"/>
<circle cx="56.871310234069824" cy="40.246232986450195" r="3" fill="green"/>
<circle cx="58.43081760406494" cy="40.06165313720703" r="3" fill="green"/>
<circle cx="59.999999046325684" cy="40.0" r="3" fill="green"/>
<circle cx="61.56918144226074" cy="40.06165313720703" r="3" fill="green"/>
<circle cx="63.12868881225586" cy="40.246232986450195" r="3" fill="green"/>
<circle cx="64.66890716552734" cy="40.5526008605957" r="3" fill="green"/>
<circle cx="66.18033981323242" cy="40.97886943817139" r="3" fill="green"/>
<circle cx="67.65366840362549" cy="41.5224084854126" r="3" fill="green"/>
<circle cx="69.07980918884277" cy="42.17986869812012" r="3" fill="green"/>
<circle cx="70.44997119903564" cy="42.9471960067749" r="3" fill="green"/>
<circle cx="71.75570487976074" cy="43.81965923309326" r="3" fill="green"/>
<circle cx="72.98896026611328" cy="44.79188060760498" r="3" fill="green"/>
<circle cx="74.14213562011719" cy="45.857863426208496" r="3" fill="green"/>
<circle cx="75.2081184387207" cy="47.0110387802124" r="3" fill="green"/>
<circle cx="76.18033981323242" cy="48.24429416656494" r="3" fill="green"/>
<circle cx="77.05280303955078" cy="49.55002784729004" r="3" fill="green"/>
<circle cx="77.82013034820557" cy="50.92018985748291" r="3" fill="green"/>
<circle cx="78.47759056091309" cy="52.346330642700195" r="3" fill="green"/>
<circle cx="79.0211296081543" cy="53.81965923309326" r="3" fill="green"/>
<circle cx="79.44739818572998" cy="55.33109188079834" r="3" fill="green"/>
<circle cx="79.75376605987549" cy="56.871310234069824" r="3" fill="green"/>
<circle cx="79.93834590911865" cy="58.43081760406494" r="3" fill="green"/>
<circle cx="80.0" cy="60.0" r="3" fill="green"/>
<circle cx="79.93834590911865" cy="61.56918144226074" r="3" fill="green"/>
<circle cx="79.75376605987549" cy="63.12868881225586" r="3" fill="green"/>
<circle cx="79.44739818572998" cy="64.66890716552734" r="3" fill="green"/>
<circle cx="79.0211296081543" cy="66.18033981323242" r="3" fill="green"/>
<circle cx="78.47759056091309" cy="67.65366840362549" r="3" fill="green"/>
<circle cx="77.82013034820557" cy="69.07980918884277" r="3" fill="green"/>
<circle cx="77.05280303955078" cy="70.44997119903564" r="3" fill="green"/>
<circle cx="76.18033981323242" cy="71.75570487976074" r="3" fill="green"/>
<circle cx="75.2081184387207" cy="72.98896026611328" r="3" fill="green"/>
<circle cx="74.14213562011719" cy="74.14213562011719" r="3" fill="green"/>
<circle cx="72.98896026611328" cy="75.2081184387207" r="3" fill="green"/>
<circle cx="71.75570487976074" cy="76.18033981323242" r="3" fill="green"/>
<circle cx="70.44997119903564" cy="77.05280303955078" r="3" fill="green"/>
<circle cx="69.07980918884277" cy="77.82013034820557" r="3" fill="green"/>
<circle cx="67.65366840362549" cy="78.47759056091309" r="3" fill="green"/>
<circle cx="66.18033981323242" cy="79.0211296081543" r="3" fill="green"/>
<circle cx="64.66890716552734" cy="79.44739818572998" r="3" fill="green"/>
<circle cx="63.12868881225586" cy="79.75376605987549" r="3" fill="green"/>
<circle cx="61.56918144226074" cy="79.93834590911865" r="3" fill="green"/>
<circle cx="5.0" cy="36.03168869018555" r="3" fill="green"/>
<circle cx="5.0" cy="5.0" r="3" fill="green"/>
<circle cx="36.03168869018555" cy="5.0" r="3" fill="green"/>
<circle cx="35.59580135345459" cy="5.187272071838379" r="3" fill="green"/>
<circle cx="34.16933345794678" cy="5.844882011413574" r="3" fill="green"/>
<circle cx="32.76056957244873" cy="6.539608001708984" r="3" fill="green"/>
<circle cx="31.370473861694336" cy="7.270973205566406" r="3" fill="green"/>
<circle cx="29.999999046325684" cy="8.038475036621094" r="3" fill="green"/>
<circle cx="28.65008544921875" cy="8.84158992767334" r="3" fill="green"/>
<circle cx="27.321657180786133" cy="9.679765701293945" r="3" fill="green"/>
<circle cx="26.015625" cy="10.552428245544434" r="3" fill="green"/>
<circle cx="24.732884407043457" cy="11.458979606628418" r="3" fill="green"/>
<circle cx="23.474313735961914" cy="12.398798942565918" r="3" fill="green"/>
<circle cx="22.24077606201172" cy="13.371241569519043" r="3" fill="green"/>
<circle cx="21.033116340637207" cy="14.375641822814941" r="3" fill="green"/>
<circle cx="19.852163314819336" cy="15.411310195922852" r="3" fill="green"/>
<circle cx="18.6987247467041" cy="16.477537155151367" r="3" fill="green"/>
<circle cx="17.57359218597412" cy="17.57359218597412" r="3" fill="green"/>
<circle cx="16.477537155151367" cy="18.6987247467041" r="3" fill="green"/>
<circle cx="15.411310195922852" cy="19.852163314819336" r="3" fill="green"/>
<circle cx="14.375641822814941" cy="21.033116340637207" r="3" fill="green"/>
<circle cx="13.371241569519043" cy="22.24077606201172" r="3" fill="green"/>
<circle cx="12.398798942565918" cy="23.474313735961914" r="3" fill="green"/>
<circle cx="11.458979606628418" cy="24.732884407043457" r="3" fill="green"/>
<circle cx="10.552428245544434" cy="26.015625" r="3" fill="green"/>
<circle cx="9.679765701293945" cy="27.321657180786133" r="3" fill="green"/>
<circle cx="8.84158992767334" cy="28.65008544921875" r="3" fill="green"/>
<circle cx="8.038475036621094" cy="30.0" r="3" fill="green"/>
<circle cx="7.270973205566406" cy="31.370473861694336" r="3" fill="green"/>
<circle cx="6.539608001708984" cy="32.76056957244873" r="3" fill="green"/>
<circle cx="5.844882011413574" cy="34.16933345794678" r="3" fill="green"/>
<circle cx="5.187272071838379" cy="35.59580135345459" r="3" fill="green"/>
</svg>
