<svg version="1.1"
     xmlns="http://www.w3.org/2000/svg"
     width="210"
     height="210">

<rect x="0" y="0" width="210" height="210" fill="none"/>
<rect x="5" y="90" width="200" height="40" fill="purple"/>
<path d=" M 5.0 205.0 L 5.0 83.95208263397217 L 5.187272071838379 84.4041976928711 L 6.539608001708984 87.23942947387695 L 8.038475036621094 90.0 L 9.679765701293945 92.67834186553955 L 11.458979606628418 95.26711463928223 L 13.371241569519043 97.75922298431396 L 15.411310195922852 100.14783573150635 L 17.57359218597412 102.42640686035156 L 19.852163314819336 104.58868885040283 L 22.24077606201172 106.62875747680664 L 24.732884407043457 108.54101943969727 L 27.321657180786133 110.32023334503174 L 30.0 111.96152400970459 L 32.76056957244873 113.4603910446167 L 35.59580135345459 114.8127269744873 L 38.49792289733887 116.01482486724854 L 41.45897960662842 117.06339073181152 L 44.47085666656494 117.9555492401123 L 47.52529811859131 118.68885517120361 L 50.61393165588379 119.2613000869751 L 53.728291511535645 119.67131328582764 L 56.85984230041504 119.9177713394165 L 60.0 120.0 L 63.140156745910645 119.9177713394165 L 66.27170753479004 119.67131328582764 L 69.3860673904419 119.2613000869751 L 72.47470092773438 118.68885517120361 L 75.52914237976074 117.9555492401123 L 78.54101943969727 117.06339073181152 L 81.50207614898682 116.01482486724854 L 84.4041976928711 114.8127269744873 L 87.23942947387695 113.4603910446167 L 90.0 111.96152400970459 L 92.67834186553955 110.32023334503174 L 95.26711463928223 108.54101943969727 L 97.75922298431396 106.62875747680664 L 100.14783573150635 104.58868885040283 L 102.42640686035156 102.42640686035156 L 104.58868885040283 100.14783573150635 L 106.62875747680664 97.75922298431396 L 108.54101943969727 95.26711463928223 L 110.32023334503174 92.67834186553955 L 111.96152400970459 90.0 L 113.4603910446167 87.23942947387695 L 114.8127269744873 84.4041976928711 L 116.01482486724854 81.50207614898682 L 117.06339073181152 78.54101943969727 L 117.9555492401123 75.52914237976074 L 118.68885517120361 72.47470092773438 L 119.2613000869751 69.3860673904419 L 119.67131328582764 66.27170753479004 L 119.9177713394165 63.140156745910645 L 120.0 60.0 L 119.9177713394165 56.85984230041504 L 119.67131328582764 53.728291511535645 L 119.2613000869751 50.61393165588379 L 118.68885517120361 47.52529811859131 L 117.9555492401123 44.47085666656494 L 117.06339073181152 41.45897960662842 L 116.01482486724854 38.49792289733887 L 114.8127269744873 35.59580135345459 L 113.4603910446167 32.76056957244873 L 111.96152400970459 29.999999046325684 L 110.32023334503174 27.321657180786133 L 108.54101943969727 24.732884407043457 L 106.62875747680664 22.24077606201172 L 104.58868885040283 19.852163314819336 L 102.42640686035156 17.57359218597412 L 100.14783573150635 15.411310195922852 L 97.75922298431396 13.371241569519043 L 95.26711463928223 11.458979606628418 L 92.67834186553955 9.679765701293945 L 89.99999904632568 8.038475036621094 L 87.23942947387695 6.539608001708984 L 84.4041976928711 5.187272071838379 L 83.95208263397217 5.0 L 205.0 5.0 L 205.0 205.0 Z M 120.0 165.0 L 180.0 165.0 L 180.0 105.0 L 120.0 105.0 Z M 60.0 80.0 L 56.871310234069824 79.75376605987549 L 53.81965923309326 79.0211296081543 L 50.92018985748291 77.82013034820557 L 48.24429416656494 76.18033981323242 L 45.857863426208496 74.14213562011719 L 43.81965923309326 71.75570487976074 L 42.17986869812012 69.07980918884277 L 40.97886943817139 66.18033981323242 L 40.246232986450195 63.12868881225586 L 40.0 60.0 L 40.246232986450195 56.871310234069824 L 40.97886943817139 53.81965923309326 L 42.17986869812012 50.92018985748291 L 43.81965923309326 48.24429416656494 L 45.857863426208496 45.857863426208496 L 48.24429416656494 43.81965923309326 L 50.92018985748291 42.17986869812012 L 53.81965923309326 40.97886943817139 L 56.871310234069824 40.246232986450195 L 59.999999046325684 40.0 L 63.12868881225586 40.246232986450195 L 66.18033981323242 40.97886943817139 L 69.07980918884277 42.17986869812012 L 71.75570487976074 43.81965923309326 L 74.14213562011719 45.857863426208496 L 76.18033981323242 48.24429416656494 L 77.82013034820557 50.92018985748291 L 79.0211296081543 53.81965923309326 L 79.75376605987549 56.871310234069824 L 80.0 60.0 L 79.75376605987549 63.12868881225586 L 79.0211296081543 66.18033981323242 L 77.82013034820557 69.07980918884277 L 76.18033981323242 71.75570487976074 L 74.14213562011719 74.14213562011719 L 71.75570487976074 76.18033981323242 L 69.07980918884277 77.82013034820557 L 66.18033981323242 79.0211296081543 L 63.12868881225586 79.75376605987549 Z M 5.0 36.047916412353516 L 5.0 5.0 L 36.047916412353516 5.0 L 35.59580135345459 5.187272071838379 L 32.76056957244873 6.539608001708984 L 29.999999046325684 8.038475036621094 L 27.321657180786133 9.679765701293945 L 24.732884407043457 11.458979606628418 L 22.24077606201172 13.371241569519043 L 19.852163314819336 15.411310195922852 L 17.57359218597412 17.57359218597412 L 15.411310195922852 19.852163314819336 L 13.371241569519043 22.24077606201172 L 11.458979606628418 24.732884407043457 L 9.679765701293945 27.321657180786133 L 8.038475036621094 30.0 L 6.539608001708984 32.76056957244873 L 5.187272071838379 35.59580135345459 Z" fill="blue"/>
<circle cx="5.0" cy="205.0" r="3" fill="green"/>
<circle cx="5.0" cy="83.95208263397217" r="3" fill="green"/>
<circle cx="5.187272071838379" cy="84.4041976928711" r="3" fill="green"/>
<circle cx="6.539608001708984" cy="87.23942947387695" r="3" fill="green"/>
<circle cx="8.038475036621094" cy="90.0" r="3" fill="green"/>
<circle cx="9.679765701293945" cy="92.67834186553955" r="3" fill="green"/>
<circle cx="11.458979606628418" cy="95.26711463928223" r="3" fill="green"/>
<circle cx="13.371241569519043" cy="97.75922298431396" r="3" fill="green"/>
<circle cx="15.411310195922852" cy="100.14783573150635" r="3" fill="green"/>
<circle cx="17.57359218597412" cy="102.42640686035156" r="3" fill="green"/>
<circle cx="19.852163314819336" cy="104.58868885040283" r="3" fill="green"/>
<circle cx="22.24077606201172" cy="106.62875747680664" r="3" fill="green"/>
<circle cx="24.732884407043457" cy="108.54101943969727" r="3" fill="green"/>
<circle cx="27.321657180786133" cy="110.32023334503174" r="3" fill="green"/>
<circle cx="30.0" cy="111.96152400970459" r="3" fill="green"/>
<circle cx="32.76056957244873" cy="113.4603910446167" r="3" fill="green"/>
<circle cx="35.59580135345459" cy="114.8127269744873" r="3" fill="green"/>
<circle cx="38.49792289733887" cy="116.01482486724854" r="3" fill="green"/>
<circle cx="41.45897960662842" cy="117.06339073181152" r="3" fill="green"/>
<circle cx="44.47085666656494" cy="117.9555492401123" r="3" fill="green"/>
<circle cx="47.52529811859131" cy="118.68885517120361" r="3" fill="green"/>
<circle cx="50.61393165588379" cy="119.2613000869751" r="3" fill="green"/>
<circle cx="53.728291511535645" cy="119.67131328582764" r="3" fill="green"/>
<circle cx="56.85984230041504" cy="119.9177713394165" r="3" fill="green"/>
<circle cx="60.0" cy="120.0" r="3" fill="green"/>
<circle cx="63.140156745910645" cy="119.9177713394165" r="3" fill="green"/>
<circle cx="66.27170753479004" cy="119.67131328582764" r="3" fill="green"/>
<circle cx="69.3860673904419" cy="119.2613000869751" r="3" fill="green"/>
<circle cx="72.47470092773438" cy="118.68885517120361" r="3" fill="green"/>
<circle cx="75.52914237976074" cy="117.9555492401123" r="3" fill="green"/>
<circle cx="78.54101943969727" cy="117.06339073181152" r="3" fill="green"/>
<circle cx="81.50207614898682" cy="116.01482486724854" r="3" fill="green"/>
<circle cx="84.4041976928711" cy="114.8127269744873" r="3" fill="green"/>
<circle cx="87.23942947387695" cy="113.4603910446167" r="3" fill="green"/>
<circle cx="90.0" cy="111.96152400970459" r="3" fill="green"/>
<circle cx="92.67834186553955" cy="110.32023334503174" r="3" fill="green"/>
<circle cx="95.26711463928223" cy="108.54101943969727" r="3" fill="green"/>
<circle cx="97.75922298431396" cy="106.62875747680664" r="3" fill="green"/>
<circle cx="100.14783573150635" cy="104.58868885040283" r="3" fill="green"/>
<circle cx="102.42640686035156" cy="102.42640686035156" r="3" fill="green"/>
<circle cx="104.58868885040283" cy="100.14783573150635" r="3" fill="green"/>
<circle cx="106.62875747680664" cy="97.75922298431396" r="3" fill="green"/>
<circle cx="108.54101943969727" cy="95.26711463928223" r="3" fill="green"/>
<circle cx="110.32023334503174" cy="92.67834186553955" r="3" fill="green"/>
<circle cx="111.96152400970459" cy="90.0" r="3" fill="green"/>
<circle cx="113.4603910446167" cy="87.23942947387695" r="3" fill="green"/>
<circle cx="114.8127269744873" cy="84.4041976928711" r="3" fill="green"/>
<circle cx="116.01482486724854" cy="81.50207614898682" r="3" fill="green"/>
<circle cx="117.06339073181152" cy="78.54101943969727" r="3" fill="green"/>
<circle cx="117.9555492401123" cy="75.52914237976074" r="3" fill="green"/>
<circle cx="118.68885517120361" cy="72.47470092773438" r="3" fill="green"/>
<circle cx="119.2613000869751" cy="69.3860673904419" r="3" fill="green"/>
<circle cx="119.67131328582764" cy="66.27170753479004" r="3" fill="green"/>
<circle cx="119.9177713394165" cy="63.140156745910645" r="3" fill="green"/>
<circle cx="120.0" cy="60.0" r="3" fill="green"/>
<circle cx="119.9177713394165" cy="56.85984230041504" r="3" fill="green"/>
<circle cx="119.67131328582764" cy="53.728291511535645" r="3" fill="green"/>
<circle cx="119.2613000869751" cy="50.61393165588379" r="3" fill="green"/>
<circle cx="118.68885517120361" cy="47.52529811859131" r="3" fill="green"/>
<circle cx="117.9555492401123" cy="44.47085666656494" r="3" fill="green"/>
<circle cx="117.06339073181152" cy="41.45897960662842" r="3" fill="green"/>
<circle cx="116.01482486724854" cy="38.49792289733887" r="3" fill="green"/>
<circle cx="114.8127269744873" cy="35.59580135345459" r="3" fill="green"/>
<circle cx="113.4603910446167" cy="32.76056957244873" r="3" fill="green"/>
<circle cx="111.96152400970459" cy="29.999999046325684" r="3" fill="green"/>
<circle cx="110.32023334503174" cy="27.321657180786133" r="3" fill="green"/>
<circle cx="108.54101943969727" cy="24.732884407043457" r="3" fill="green"/>
<circle cx="106.62875747680664" cy="22.24077606201172" r="3" fill="green"/>
<circle cx="104.58868885040283" cy="19.852163314819336" r="3" fill="green"/>
<circle cx="102.42640686035156" cy="17.57359218597412" r="3" fill="green"/>
<circle cx="100.14783573150635" cy="15.411310195922852" r="3" fill="green"/>
<circle cx="97.75922298431396" cy="13.371241569519043" r="3" fill="green"/>
<circle cx="95.26711463928223" cy="11.458979606628418" r="3" fill="green"/>
<circle cx="92.67834186553955" cy="9.679765701293945" r="3" fill="green"/>
<circle cx="89.99999904632568" cy="8.038475036621094" r="3" fill="green"/>
<circle cx="87.23942947387695" cy="6.539608001708984" r="3" fill="green"/>
<circle cx="84.4041976928711" cy="5.187272071838379" r="3" fill="green"/>
<circle cx="83.95208263397217" cy="5.0" r="3" fill="green"/>
<circle cx="205.0" cy="5.0" r="3" fill="green"/>
<circle cx="205.0" cy="205.0" r="3" fill="green"/>
<circle cx="120.0" cy="165.0" r="3" fill="green"/>
<circle cx="180.0" cy="165.0" r="3" fill="green"/>
<circle cx="180.0" cy="105.0" r="3" fill="green"/>
<circle cx="120.0" cy="105.0" r="3" fill="green"/>
<circle cx="60.0" cy="80.0" r="3" fill="green"/>
<circle cx="56.871310234069824" cy="79.75376605987549" r="3" fill="green"/>
<circle cx="53.81965923309326" cy="79.0211296081543" r="3" fill="green"/>
<circle cx="50.92018985748291" cy="77.82013034820557" r="3" fill="green"/>
<circle cx="48.24429416656494" cy="76.18033981323242" r="3" fill="green"/>
<circle cx="45.857863426208496" cy="74.14213562011719" r="3" fill="green"/>
<circle cx="43.81965923309326" cy="71.75570487976074" r="3" fill="green"/>
<circle cx="42.17986869812012" cy="69.07980918884277" r="3" fill="green"/>
<circle cx="40.97886943817139" cy="66.18033981323242" r="3" fill="green"/>
<circle cx="40.246232986450195" cy="63.12868881225586" r="3" fill="green"/>
<circle cx="40.0" cy="60.0" r="3" fill="green"/>
<circle cx="40.246232986450195" cy="56.871310234069824" r="3" fill="green"/>
<circle cx="40.97886943817139" cy="53.81965923309326" r="3" fill="green"/>
<circle cx="42.17986869812012" cy="50.92018985748291" r="3" fill="green"/>
<circle cx="43.81965923309326" cy="48.24429416656494" r="3" fill="green"/>
<circle cx="45.857863426208496" cy="45.857863426208496" r="3" fill="green"/>
<circle cx="48.24429416656494" cy="43.81965923309326" r="3" fill="green"/>
<circle cx="50.92018985748291" cy="42.17986869812012" r="3" fill="green"/>
<circle cx="53.81965923309326" cy="40.97886943817139" r="3" fill="green"/>
<circle cx="56.871310234069824" cy="40.246232986450195" r="3" fill="green"/>
<circle cx="59.999999046325684" cy="40.0" r="3" fill="green"/>
<circle cx="63.12868881225586" cy="40.246232986450195" r="3" fill="green"/>
<circle cx="66.18033981323242" cy="40.97886943817139" r="3" fill="green"/>
<circle cx="69.07980918884277" cy="42.17986869812012" r="3" fill="green"/>
<circle cx="71.75570487976074" cy="43.81965923309326" r="3" fill="green"/>
<circle cx="74.14213562011719" cy="45.857863426208496" r="3" fill="green"/>
<circle cx="76.18033981323242" cy="48.24429416656494" r="3" fill="green"/>
<circle cx="77.82013034820557" cy="50.92018985748291" r="3" fill="green"/>
<circle cx="79.0211296081543" cy="53.81965923309326" r="3" fill="green"/>
<circle cx="79.75376605987549" cy="56.871310234069824" r="3" fill="green"/>
<circle cx="80.0" cy="60.0" r="3" fill="green"/>
<circle cx="79.75376605987549" cy="63.12868881225586" r="3" fill="green"/>
<circle cx="79.0211296081543" cy="66.18033981323242" r="3" fill="green"/>
<circle cx="77.82013034820557" cy="69.07980918884277" r="3" fill="green"/>
<circle cx="76.18033981323242" cy="71.75570487976074" r="3" fill="green"/>
<circle cx="74.14213562011719" cy="74.14213562011719" r="3" fill="green"/>
<circle cx="71.75570487976074" cy="76.18033981323242" r="3" fill="green"/>
<circle cx="69.07980918884277" cy="77.82013034820557" r="3" fill="green"/>
<circle cx="66.18033981323242" cy="79.0211296081543" r="3" fill="green"/>
<circle cx="63.12868881225586" cy="79.75376605987549" r="3" fill="green"/>
<circle cx="5.0" cy="36.047916412353516" r="3" fill="green"/>
<circle cx="5.0" cy="5.0" r="3" fill="green"/>
<circle cx="36.047916412353516" cy="5.0" r="3" fill="green"/>
<circle cx="35.59580135345459" cy="5.187272071838379" r="3" fill="green"/>
<circle cx="32.76056957244873" cy="6.539608001708984" r="3" fill="green"/>
<circle cx="29.999999046325684" cy="8.038475036621094" r="3" fill="green"/>
<circle cx="27.321657180786133" cy="9.679765701293945" r="3" fill="green"/>
<circle cx="24.732884407043457" cy="11.458979606628418" r="3" fill="green"/>
<circle cx="22.24077606201172" cy="13.371241569519043" r="3" fill="green"/>
<circle cx="19.852163314819336" cy="15.411310195922852" r="3" fill="green"/>
<circle cx="17.57359218597412" cy="17.57359218597412" r="3" fill="green"/>
<circle cx="15.411310195922852" cy="19.852163314819336" r="3" fill="green"/>
<circle cx="13.371241569519043" cy="22.24077606201172" r="3" fill="green"/>
<circle cx="11.458979606628418" cy="24.732884407043457" r="3" fill="green"/>
<circle cx="9.679765701293945" cy="27.321657180786133" r="3" fill="green"/>
<circle cx="8.038475036621094" cy="30.0" r="3" fill="green"/>
<circle cx="6.539608001708984" cy="32.76056957244873" r="3" fill="green"/>
<circle cx="5.187272071838379" cy="35.59580135345459" r="3" fill="green"/>
</svg>
