
<svg version="1.1"
     xmlns="http://www.w3.org/2000/svg"
     width="210"
     height="210">
<rect x="0" y="0" width="210" height="210" fill="none"/>
<rect x="5" y="90" width="200" height="40" fill="purple"/>
<path d=" M 5.0 205.0 L 5.0 83.96831036 L 5.18727207 84.40419769 L 5.84488201 85.83066559 L 6.539608 87.23942947 L 7.27097321 88.62952518 L 8.03847504 90.0 L 8.84158993 91.3499136 L 9.6797657 92.67834187 L 10.55242825 93.98437405 L 11.45897961 95.26711464 L 12.39879894 96.52568531 L 13.37124157 97.75922298 L 14.37564182 98.96688271 L 15.4113102 100.14783573 L 16.47753716 101.3012743 L 17.57359219 102.42640686 L 18.69872475 103.52246189 L 19.85216331 104.58868885 L 21.03311634 105.62435722 L 22.24077606 106.62875748 L 23.47431374 107.6012001 L 24.73288441 108.54101944 L 26.015625 109.4475708 L 27.32165718 110.32023335 L 28.65008545 111.15840912 L 30.0 111.96152401 L 31.37047386 112.72902584 L 32.76056957 113.46039104 L 34.16933346 114.15511703 L 35.59580135 114.81272697 L 37.03899384 115.43277168 L 38.4979229 116.01482487 L 39.97158813 116.55848885 L 41.45897961 117.06339073 L 42.95907879 117.52918339 L 44.47085667 117.95554924 L 45.99327755 118.34219456 L 47.52529812 118.68885517 L 49.06586838 118.99529362 L 50.61393166 119.26130009 L 52.16842842 119.48669147 L 53.72829151 119.67131329 L 55.29245377 119.81503963 L 56.8598423 119.91777134 L 58.42938232 119.97943878 L 60.0 120.0 L 61.57061672 119.97943878 L 63.14015675 119.91777134 L 64.70754528 119.81503963 L 66.27170753 119.67131329 L 67.83157063 119.48669147 L 69.38606739 119.26130009 L 70.93413067 118.99529362 L 72.47470093 118.68885517 L 74.0067215 118.34219456 L 75.52914238 117.95554924 L 77.04092026 117.52918339 L 78.54101944 117.06339073 L 80.02841091 116.55848885 L 81.50207615 116.01482487 L 82.96100521 115.43277168 L 84.40419769 114.81272697 L 85.83066559 114.15511703 L 87.23942947 113.46039104 L 88.62952518 112.72902584 L 90.0 111.96152401 L 91.3499136 111.15840912 L 92.67834187 110.32023335 L 93.98437405 109.4475708 L 95.26711464 108.54101944 L 96.52568531 107.6012001 L 97.75922298 106.62875748 L 98.96688271 105.62435722 L 100.14783573 104.58868885 L 101.3012743 103.52246189 L 102.42640686 102.42640686 L 103.52246189 101.3012743 L 104.58868885 100.14783573 L 105.62435722 98.96688271 L 106.62875748 97.75922298 L 107.6012001 96.52568531 L 108.54101944 95.26711464 L 109.4475708 93.98437405 L 110.32023335 92.67834187 L 111.15840912 91.3499136 L 111.96152401 90.0 L 112.72902584 88.62952518 L 113.46039104 87.23942947 L 114.15511703 85.83066559 L 114.81272697 84.40419769 L 115.43277168 82.96100521 L 116.01482487 81.50207615 L 116.55848885 80.02841091 L 117.06339073 78.54101944 L 117.52918339 77.04092026 L 117.95554924 75.52914238 L 118.34219456 74.0067215 L 118.68885517 72.47470093 L 118.99529362 70.93413067 L 119.26130009 69.38606739 L 119.48669147 67.83157063 L 119.67131329 66.27170753 L 119.81503963 64.70754528 L 119.91777134 63.14015675 L 119.97943878 61.57061672 L 120.0 60.0 L 119.97943878 58.42938232 L 119.91777134 56.8598423 L 119.81503963 55.29245377 L 119.67131329 53.72829151 L 119.48669147 52.16842842 L 119.26130009 50.61393166 L 118.99529362 49.06586838 L 118.68885517 47.52529812 L 118.34219456 45.99327755 L 117.95554924 44.47085667 L 117.52918339 42.95907879 L 117.06339073 41.45897961 L 116.55848885 39.97158813 L 116.01482487 38.4979229 L 115.43277168 37.03899384 L 114.81272697 35.59580135 L 114.15511703 34.16933346 L 113.46039104 32.76056957 L 112.72902584 31.37047386 L 111.96152401 29.99999905 L 111.15840912 28.65008545 L 110.32023335 27.32165718 L 109.4475708 26.015625 L 108.54101944 24.73288441 L 107.6012001 23.47431374 L 106.62875748 22.24077606 L 105.62435722 21.03311634 L 104.58868885 19.85216331 L 103.52246189 18.69872475 L 102.42640686 17.57359219 L 101.3012743 16.47753716 L 100.14783573 15.4113102 L 98.96688271 14.37564182 L 97.75922298 13.37124157 L 96.52568531 12.39879894 L 95.26711464 11.45897961 L 93.98437405 10.55242825 L 92.67834187 9.6797657 L 91.3499136 8.84158993 L 89.99999905 8.03847504 L 88.62952518 7.27097321 L 87.23942947 6.539608 L 85.83066559 5.84488201 L 84.40419769 5.18727207 L 83.96831036 5.0 L 205.0 5.0 L 205.0 205.0 Z M 120.0 165.0 L 180.0 165.0 L 180.0 105.0 L 120.0 105.0 Z M 60.0 80.0 L 58.4308176 79.93834591 L 56.87131023 79.75376606 L 55.33109188 79.44739819 L 53.81965923 79.02112961 L 52.34633064 78.47759056 L 50.92018986 77.82013035 L 49.55002785 77.05280304 L 48.24429417 76.18033981 L 47.01103878 75.20811844 L 45.85786343 74.14213562 L 44.79188061 72.98896027 L 43.81965923 71.75570488 L 42.94719601 70.4499712 L 42.1798687 69.07980919 L 41.52240849 67.6536684 L 40.97886944 66.18033981 L 40.55260086 64.66890717 L 40.24623299 63.12868881 L 40.06165314 61.56918144 L 40.0 60.0 L 40.06165314 58.4308176 L 40.24623299 56.87131023 L 40.55260086 55.33109188 L 40.97886944 53.81965923 L 41.52240849 52.34633064 L 42.1798687 50.92018986 L 42.94719601 49.55002785 L 43.81965923 48.24429417 L 44.79188061 47.01103878 L 45.85786343 45.85786343 L 47.01103878 44.79188061 L 48.24429417 43.81965923 L 49.55002785 42.94719601 L 50.92018986 42.1798687 L 52.34633064 41.52240849 L 53.81965923 40.97886944 L 55.33109188 40.55260086 L 56.87131023 40.24623299 L 58.4308176 40.06165314 L 59.99999905 40.0 L 61.56918144 40.06165314 L 63.12868881 40.24623299 L 64.66890717 40.55260086 L 66.18033981 40.97886944 L 67.6536684 41.52240849 L 69.07980919 42.1798687 L 70.4499712 42.94719601 L 71.75570488 43.81965923 L 72.98896027 44.79188061 L 74.14213562 45.85786343 L 75.20811844 47.01103878 L 76.18033981 48.24429417 L 77.05280304 49.55002785 L 77.82013035 50.92018986 L 78.47759056 52.34633064 L 79.02112961 53.81965923 L 79.44739819 55.33109188 L 79.75376606 56.87131023 L 79.93834591 58.4308176 L 80.0 60.0 L 79.93834591 61.56918144 L 79.75376606 63.12868881 L 79.44739819 64.66890717 L 79.02112961 66.18033981 L 78.47759056 67.6536684 L 77.82013035 69.07980919 L 77.05280304 70.4499712 L 76.18033981 71.75570488 L 75.20811844 72.98896027 L 74.14213562 74.14213562 L 72.98896027 75.20811844 L 71.75570488 76.18033981 L 70.4499712 77.05280304 L 69.07980919 77.82013035 L 67.6536684 78.47759056 L 66.18033981 79.02112961 L 64.66890717 79.44739819 L 63.12868881 79.75376606 L 61.56918144 79.93834591 Z M 5.0 36.03168869 L 5.0 5.0 L 36.03168869 5.0 L 35.59580135 5.18727207 L 34.16933346 5.84488201 L 32.76056957 6.539608 L 31.37047386 7.27097321 L 29.99999905 8.03847504 L 28.65008545 8.84158993 L 27.32165718 9.6797657 L 26.015625 10.55242825 L 24.73288441 11.45897961 L 23.47431374 12.39879894 L 22.24077606 13.37124157 L 21.03311634 14.37564182 L 19.85216331 15.4113102 L 18.69872475 16.47753716 L 17.57359219 17.57359219 L 16.47753716 18.69872475 L 15.4113102 19.85216331 L 14.37564182 21.03311634 L 13.37124157 22.24077606 L 12.39879894 23.47431374 L 11.45897961 24.73288441 L 10.55242825 26.015625 L 9.6797657 27.32165718 L 8.84158993 28.65008545 L 8.03847504 30.0 L 7.27097321 31.37047386 L 6.539608 32.76056957 L 5.84488201 34.16933346 L 5.18727207 35.59580135 Z" fill="blue"/>
<circle cx="5.0" cy="205.0" r="3" fill="green"/>
<circle cx="5.0" cy="83.96831036" r="3" fill="green"/>
<circle cx="5.18727207" cy="84.40419769" r="3" fill="green"/>
<circle cx="5.84488201" cy="85.83066559" r="3" fill="green"/>
<circle cx="6.539608" cy="87.23942947" r="3" fill="green"/>
<circle cx="7.27097321" cy="88.62952518" r="3" fill="green"/>
<circle cx="8.03847504" cy="90.0" r="3" fill="green"/>
<circle cx="8.84158993" cy="91.3499136" r="3" fill="green"/>
<circle cx="9.6797657" cy="92.67834187" r="3" fill="green"/>
<circle cx="10.55242825" cy="93.98437405" r="3" fill="green"/>
<circle cx="11.45897961" cy="95.26711464" r="3" fill="green"/>
<circle cx="12.39879894" cy="96.52568531" r="3" fill="green"/>
<circle cx="13.37124157" cy="97.75922298" r="3" fill="green"/>
<circle cx="14.37564182" cy="98.96688271" r="3" fill="green"/>
<circle cx="15.4113102" cy="100.14783573" r="3" fill="green"/>
<circle cx="16.47753716" cy="101.3012743" r="3" fill="green"/>
<circle cx="17.57359219" cy="102.42640686" r="3" fill="green"/>
<circle cx="18.69872475" cy="103.52246189" r="3" fill="green"/>
<circle cx="19.85216331" cy="104.58868885" r="3" fill="green"/>
<circle cx="21.03311634" cy="105.62435722" r="3" fill="green"/>
<circle cx="22.24077606" cy="106.62875748" r="3" fill="green"/>
<circle cx="23.47431374" cy="107.6012001" r="3" fill="green"/>
<circle cx="24.73288441" cy="108.54101944" r="3" fill="green"/>
<circle cx="26.015625" cy="109.4475708" r="3" fill="green"/>
<circle cx="27.32165718" cy="110.32023335" r="3" fill="green"/>
<circle cx="28.65008545" cy="111.15840912" r="3" fill="green"/>
<circle cx="30.0" cy="111.96152401" r="3" fill="green"/>
<circle cx="31.37047386" cy="112.72902584" r="3" fill="green"/>
<circle cx="32.76056957" cy="113.46039104" r="3" fill="green"/>
<circle cx="34.16933346" cy="114.15511703" r="3" fill="green"/>
<circle cx="35.59580135" cy="114.81272697" r="3" fill="green"/>
<circle cx="37.03899384" cy="115.43277168" r="3" fill="green"/>
<circle cx="38.4979229" cy="116.01482487" r="3" fill="green"/>
<circle cx="39.97158813" cy="116.55848885" r="3" fill="green"/>
<circle cx="41.45897961" cy="117.06339073" r="3" fill="green"/>
<circle cx="42.95907879" cy="117.52918339" r="3" fill="green"/>
<circle cx="44.47085667" cy="117.95554924" r="3" fill="green"/>
<circle cx="45.99327755" cy="118.34219456" r="3" fill="green"/>
<circle cx="47.52529812" cy="118.68885517" r="3" fill="green"/>
<circle cx="49.06586838" cy="118.99529362" r="3" fill="green"/>
<circle cx="50.61393166" cy="119.26130009" r="3" fill="green"/>
<circle cx="52.16842842" cy="119.48669147" r="3" fill="green"/>
<circle cx="53.72829151" cy="119.67131329" r="3" fill="green"/>
<circle cx="55.29245377" cy="119.81503963" r="3" fill="green"/>
<circle cx="56.8598423" cy="119.91777134" r="3" fill="green"/>
<circle cx="58.42938232" cy="119.97943878" r="3" fill="green"/>
<circle cx="60.0" cy="120.0" r="3" fill="green"/>
<circle cx="61.57061672" cy="119.97943878" r="3" fill="green"/>
<circle cx="63.14015675" cy="119.91777134" r="3" fill="green"/>
<circle cx="64.70754528" cy="119.81503963" r="3" fill="green"/>
<circle cx="66.27170753" cy="119.67131329" r="3" fill="green"/>
<circle cx="67.83157063" cy="119.48669147" r="3" fill="green"/>
<circle cx="69.38606739" cy="119.26130009" r="3" fill="green"/>
<circle cx="70.93413067" cy="118.99529362" r="3" fill="green"/>
<circle cx="72.47470093" cy="118.68885517" r="3" fill="green"/>
<circle cx="74.0067215" cy="118.34219456" r="3" fill="green"/>
<circle cx="75.52914238" cy="117.95554924" r="3" fill="green"/>
<circle cx="77.04092026" cy="117.52918339" r="3" fill="green"/>
<circle cx="78.54101944" cy="117.06339073" r="3" fill="green"/>
<circle cx="80.02841091" cy="116.55848885" r="3" fill="green"/>
<circle cx="81.50207615" cy="116.01482487" r="3" fill="green"/>
<circle cx="82.96100521" cy="115.43277168" r="3" fill="green"/>
<circle cx="84.40419769" cy="114.81272697" r="3" fill="green"/>
<circle cx="85.83066559" cy="114.15511703" r="3" fill="green"/>
<circle cx="87.23942947" cy="113.46039104" r="3" fill="green"/>
<circle cx="88.62952518" cy="112.72902584" r="3" fill="green"/>
<circle cx="90.0" cy="111.96152401" r="3" fill="green"/>
<circle cx="91.3499136" cy="111.15840912" r="3" fill="green"/>
<circle cx="92.67834187" cy="110.32023335" r="3" fill="green"/>
<circle cx="93.98437405" cy="109.4475708" r="3" fill="green"/>
<circle cx="95.26711464" cy="108.54101944" r="3" fill="green"/>
<circle cx="96.52568531" cy="107.6012001" r="3" fill="green"/>
<circle cx="97.75922298" cy="106.62875748" r="3" fill="green"/>
<circle cx="98.96688271" cy="105.62435722" r="3" fill="green"/>
<circle cx="100.14783573" cy="104.58868885" r="3" fill="green"/>
<circle cx="101.3012743" cy="103.52246189" r="3" fill="green"/>
<circle cx="102.42640686" cy="102.42640686" r="3" fill="green"/>
<circle cx="103.52246189" cy="101.3012743" r="3" fill="green"/>
<circle cx="104.58868885" cy="100.14783573" r="3" fill="green"/>
<circle cx="105.62435722" cy="98.96688271" r="3" fill="green"/>
<circle cx="106.62875748" cy="97.75922298" r="3" fill="green"/>
<circle cx="107.6012001" cy="96.52568531" r="3" fill="green"/>
<circle cx="108.54101944" cy="95.26711464" r="3" fill="green"/>
<circle cx="109.4475708" cy="93.98437405" r="3" fill="green"/>
<circle cx="110.32023335" cy="92.67834187" r="3" fill="green"/>
<circle cx="111.15840912" cy="91.3499136" r="3" fill="green"/>
<circle cx="111.96152401" cy="90.0" r="3" fill="green"/>
<circle cx="112.72902584" cy="88.62952518" r="3" fill="green"/>
<circle cx="113.46039104" cy="87.23942947" r="3" fill="green"/>
<circle cx="114.15511703" cy="85.83066559" r="3" fill="green"/>
<circle cx="114.81272697" cy="84.40419769" r="3" fill="green"/>
<circle cx="115.43277168" cy="82.96100521" r="3" fill="green"/>
<circle cx="116.01482487" cy="81.50207615" r="3" fill="green"/>
<circle cx="116.55848885" cy="80.02841091" r="3" fill="green"/>
<circle cx="117.06339073" cy="78.54101944" r="3" fill="green"/>
<circle cx="117.52918339" cy="77.04092026" r="3" fill="green"/>
<circle cx="117.95554924" cy="75.52914238" r="3" fill="green"/>
<circle cx="118.34219456" cy="74.0067215" r="3" fill="green"/>
<circle cx="118.68885517" cy="72.47470093" r="3" fill="green"/>
<circle cx="118.99529362" cy="70.93413067" r="3" fill="green"/>
<circle cx="119.26130009" cy="69.38606739" r="3" fill="green"/>
<circle cx="119.48669147" cy="67.83157063" r="3" fill="green"/>
<circle cx="119.67131329" cy="66.27170753" r="3" fill="green"/>
<circle cx="119.81503963" cy="64.70754528" r="3" fill="green"/>
<circle cx="119.91777134" cy="63.14015675" r="3" fill="green"/>
<circle cx="119.97943878" cy="61.57061672" r="3" fill="green"/>
<circle cx="120.0" cy="60.0" r="3" fill="green"/>
<circle cx="119.97943878" cy="58.42938232" r="3" fill="green"/>
<circle cx="119.91777134" cy="56.8598423" r="3" fill="green"/>
<circle cx="119.81503963" cy="55.29245377" r="3" fill="green"/>
<circle cx="119.67131329" cy="53.72829151" r="3" fill="green"/>
<circle cx="119.48669147" cy="52.16842842" r="3" fill="green"/>
<circle cx="119.26130009" cy="50.61393166" r="3" fill="green"/>
<circle cx="118.99529362" cy="49.06586838" r="3" fill="green"/>
<circle cx="118.68885517" cy="47.52529812" r="3" fill="green"/>
<circle cx="118.34219456" cy="45.99327755" r="3" fill="green"/>
<circle cx="117.95554924" cy="44.47085667" r="3" fill="green"/>
<circle cx="117.52918339" cy="42.95907879" r="3" fill="green"/>
<circle cx="117.06339073" cy="41.45897961" r="3" fill="green"/>
<circle cx="116.55848885" cy="39.97158813" r="3" fill="green"/>
<circle cx="116.01482487" cy="38.4979229" r="3" fill="green"/>
<circle cx="115.43277168" cy="37.03899384" r="3" fill="green"/>
<circle cx="114.81272697" cy="35.59580135" r="3" fill="green"/>
<circle cx="114.15511703" cy="34.16933346" r="3" fill="green"/>
<circle cx="113.46039104" cy="32.76056957" r="3" fill="green"/>
<circle cx="112.72902584" cy="31.37047386" r="3" fill="green"/>
<circle cx="111.96152401" cy="29.99999905" r="3" fill="green"/>
<circle cx="111.15840912" cy="28.65008545" r="3" fill="green"/>
<circle cx="110.32023335" cy="27.32165718" r="3" fill="green"/>
<circle cx="109.4475708" cy="26.015625" r="3" fill="green"/>
<circle cx="108.54101944" cy="24.73288441" r="3" fill="green"/>
<circle cx="107.6012001" cy="23.47431374" r="3" fill="green"/>
<circle cx="106.62875748" cy="22.24077606" r="3" fill="green"/>
<circle cx="105.62435722" cy="21.03311634" r="3" fill="green"/>
<circle cx="104.58868885" cy="19.85216331" r="3" fill="green"/>
<circle cx="103.52246189" cy="18.69872475" r="3" fill="green"/>
<circle cx="102.42640686" cy="17.57359219" r="3" fill="green"/>
<circle cx="101.3012743" cy="16.47753716" r="3" fill="green"/>
<circle cx="100.14783573" cy="15.4113102" r="3" fill="green"/>
<circle cx="98.96688271" cy="14.37564182" r="3" fill="green"/>
<circle cx="97.75922298" cy="13.37124157" r="3" fill="green"/>
<circle cx="96.52568531" cy="12.39879894" r="3" fill="green"/>
<circle cx="95.26711464" cy="11.45897961" r="3" fill="green"/>
<circle cx="93.98437405" cy="10.55242825" r="3" fill="green"/>
<circle cx="92.67834187" cy="9.6797657" r="3" fill="green"/>
<circle cx="91.3499136" cy="8.84158993" r="3" fill="green"/>
<circle cx="89.99999905" cy="8.03847504" r="3" fill="green"/>
<circle cx="88.62952518" cy="7.27097321" r="3" fill="green"/>
<circle cx="87.23942947" cy="6.539608" r="3" fill="green"/>
<circle cx="85.83066559" cy="5.84488201" r="3" fill="green"/>
<circle cx="84.40419769" cy="5.18727207" r="3" fill="green"/>
<circle cx="83.96831036" cy="5.0" r="3" fill="green"/>
<circle cx="205.0" cy="5.0" r="3" fill="green"/>
<circle cx="205.0" cy="205.0" r="3" fill="green"/>
<circle cx="120.0" cy="165.0" r="3" fill="green"/>
<circle cx="180.0" cy="165.0" r="3" fill="green"/>
<circle cx="180.0" cy="105.0" r="3" fill="green"/>
<circle cx="120.0" cy="105.0" r="3" fill="green"/>
<circle cx="60.0" cy="80.0" r="3" fill="green"/>
<circle cx="58.4308176" cy="79.93834591" r="3" fill="green"/>
<circle cx="56.87131023" cy="79.75376606" r="3" fill="green"/>
<circle cx="55.33109188" cy="79.44739819" r="3" fill="green"/>
<circle cx="53.81965923" cy="79.02112961" r="3" fill="green"/>
<circle cx="52.34633064" cy="78.47759056" r="3" fill="green"/>
<circle cx="50.92018986" cy="77.82013035" r="3" fill="green"/>
<circle cx="49.55002785" cy="77.05280304" r="3" fill="green"/>
<circle cx="48.24429417" cy="76.18033981" r="3" fill="green"/>
<circle cx="47.01103878" cy="75.20811844" r="3" fill="green"/>
<circle cx="45.85786343" cy="74.14213562" r="3" fill="green"/>
<circle cx="44.79188061" cy="72.98896027" r="3" fill="green"/>
<circle cx="43.81965923" cy="71.75570488" r="3" fill="green"/>
<circle cx="42.94719601" cy="70.4499712" r="3" fill="green"/>
<circle cx="42.1798687" cy="69.07980919" r="3" fill="green"/>
<circle cx="41.52240849" cy="67.6536684" r="3" fill="green"/>
<circle cx="40.97886944" cy="66.18033981" r="3" fill="green"/>
<circle cx="40.55260086" cy="64.66890717" r="3" fill="green"/>
<circle cx="40.24623299" cy="63.12868881" r="3" fill="green"/>
<circle cx="40.06165314" cy="61.56918144" r="3" fill="green"/>
<circle cx="40.0" cy="60.0" r="3" fill="green"/>
<circle cx="40.06165314" cy="58.4308176" r="3" fill="green"/>
<circle cx="40.24623299" cy="56.87131023" r="3" fill="green"/>
<circle cx="40.55260086" cy="55.33109188" r="3" fill="green"/>
<circle cx="40.97886944" cy="53.81965923" r="3" fill="green"/>
<circle cx="41.52240849" cy="52.34633064" r="3" fill="green"/>
<circle cx="42.1798687" cy="50.92018986" r="3" fill="green"/>
<circle cx="42.94719601" cy="49.55002785" r="3" fill="green"/>
<circle cx="43.81965923" cy="48.24429417" r="3" fill="green"/>
<circle cx="44.79188061" cy="47.01103878" r="3" fill="green"/>
<circle cx="45.85786343" cy="45.85786343" r="3" fill="green"/>
<circle cx="47.01103878" cy="44.79188061" r="3" fill="green"/>
<circle cx="48.24429417" cy="43.81965923" r="3" fill="green"/>
<circle cx="49.55002785" cy="42.94719601" r="3" fill="green"/>
<circle cx="50.92018986" cy="42.1798687" r="3" fill="green"/>
<circle cx="52.34633064" cy="41.52240849" r="3" fill="green"/>
<circle cx="53.81965923" cy="40.97886944" r="3" fill="green"/>
<circle cx="55.33109188" cy="40.55260086" r="3" fill="green"/>
<circle cx="56.87131023" cy="40.24623299" r="3" fill="green"/>
<circle cx="58.4308176" cy="40.06165314" r="3" fill="green"/>
<circle cx="59.99999905" cy="40.0" r="3" fill="green"/>
<circle cx="61.56918144" cy="40.06165314" r="3" fill="green"/>
<circle cx="63.12868881" cy="40.24623299" r="3" fill="green"/>
<circle cx="64.66890717" cy="40.55260086" r="3" fill="green"/>
<circle cx="66.18033981" cy="40.97886944" r="3" fill="green"/>
<circle cx="67.6536684" cy="41.52240849" r="3" fill="green"/>
<circle cx="69.07980919" cy="42.1798687" r="3" fill="green"/>
<circle cx="70.4499712" cy="42.94719601" r="3" fill="green"/>
<circle cx="71.75570488" cy="43.81965923" r="3" fill="green"/>
<circle cx="72.98896027" cy="44.79188061" r="3" fill="green"/>
<circle cx="74.14213562" cy="45.85786343" r="3" fill="green"/>
<circle cx="75.20811844" cy="47.01103878" r="3" fill="green"/>
<circle cx="76.18033981" cy="48.24429417" r="3" fill="green"/>
<circle cx="77.05280304" cy="49.55002785" r="3" fill="green"/>
<circle cx="77.82013035" cy="50.92018986" r="3" fill="green"/>
<circle cx="78.47759056" cy="52.34633064" r="3" fill="green"/>
<circle cx="79.02112961" cy="53.81965923" r="3" fill="green"/>
<circle cx="79.44739819" cy="55.33109188" r="3" fill="green"/>
<circle cx="79.75376606" cy="56.87131023" r="3" fill="green"/>
<circle cx="79.93834591" cy="58.4308176" r="3" fill="green"/>
<circle cx="80.0" cy="60.0" r="3" fill="green"/>
<circle cx="79.93834591" cy="61.56918144" r="3" fill="green"/>
<circle cx="79.75376606" cy="63.12868881" r="3" fill="green"/>
<circle cx="79.44739819" cy="64.66890717" r="3" fill="green"/>
<circle cx="79.02112961" cy="66.18033981" r="3" fill="green"/>
<circle cx="78.47759056" cy="67.6536684" r="3" fill="green"/>
<circle cx="77.82013035" cy="69.07980919" r="3" fill="green"/>
<circle cx="77.05280304" cy="70.4499712" r="3" fill="green"/>
<circle cx="76.18033981" cy="71.75570488" r="3" fill="green"/>
<circle cx="75.20811844" cy="72.98896027" r="3" fill="green"/>
<circle cx="74.14213562" cy="74.14213562" r="3" fill="green"/>
<circle cx="72.98896027" cy="75.20811844" r="3" fill="green"/>
<circle cx="71.75570488" cy="76.18033981" r="3" fill="green"/>
<circle cx="70.4499712" cy="77.05280304" r="3" fill="green"/>
<circle cx="69.07980919" cy="77.82013035" r="3" fill="green"/>
<circle cx="67.6536684" cy="78.47759056" r="3" fill="green"/>
<circle cx="66.18033981" cy="79.02112961" r="3" fill="green"/>
<circle cx="64.66890717" cy="79.44739819" r="3" fill="green"/>
<circle cx="63.12868881" cy="79.75376606" r="3" fill="green"/>
<circle cx="61.56918144" cy="79.93834591" r="3" fill="green"/>
<circle cx="5.0" cy="36.03168869" r="3" fill="green"/>
<circle cx="5.0" cy="5.0" r="3" fill="green"/>
<circle cx="36.03168869" cy="5.0" r="3" fill="green"/>
<circle cx="35.59580135" cy="5.18727207" r="3" fill="green"/>
<circle cx="34.16933346" cy="5.84488201" r="3" fill="green"/>
<circle cx="32.76056957" cy="6.539608" r="3" fill="green"/>
<circle cx="31.37047386" cy="7.27097321" r="3" fill="green"/>
<circle cx="29.99999905" cy="8.03847504" r="3" fill="green"/>
<circle cx="28.65008545" cy="8.84158993" r="3" fill="green"/>
<circle cx="27.32165718" cy="9.6797657" r="3" fill="green"/>
<circle cx="26.015625" cy="10.55242825" r="3" fill="green"/>
<circle cx="24.73288441" cy="11.45897961" r="3" fill="green"/>
<circle cx="23.47431374" cy="12.39879894" r="3" fill="green"/>
<circle cx="22.24077606" cy="13.37124157" r="3" fill="green"/>
<circle cx="21.03311634" cy="14.37564182" r="3" fill="green"/>
<circle cx="19.85216331" cy="15.4113102" r="3" fill="green"/>
<circle cx="18.69872475" cy="16.47753716" r="3" fill="green"/>
<circle cx="17.57359219" cy="17.57359219" r="3" fill="green"/>
<circle cx="16.47753716" cy="18.69872475" r="3" fill="green"/>
<circle cx="15.4113102" cy="19.85216331" r="3" fill="green"/>
<circle cx="14.37564182" cy="21.03311634" r="3" fill="green"/>
<circle cx="13.37124157" cy="22.24077606" r="3" fill="green"/>
<circle cx="12.39879894" cy="23.47431374" r="3" fill="green"/>
<circle cx="11.45897961" cy="24.73288441" r="3" fill="green"/>
<circle cx="10.55242825" cy="26.015625" r="3" fill="green"/>
<circle cx="9.6797657" cy="27.32165718" r="3" fill="green"/>
<circle cx="8.84158993" cy="28.65008545" r="3" fill="green"/>
<circle cx="8.03847504" cy="30.0" r="3" fill="green"/>
<circle cx="7.27097321" cy="31.37047386" r="3" fill="green"/>
<circle cx="6.539608" cy="32.76056957" r="3" fill="green"/>
<circle cx="5.84488201" cy="34.16933346" r="3" fill="green"/>
<circle cx="5.18727207" cy="35.59580135" r="3" fill="green"/>
</svg>
