<svg version="1.1"
     xmlns="http://www.w3.org/2000/svg"
     width="600"
     height="600">

<rect x="0" y="0" width="600" height="600" fill="none"/>
<path d="M 300.0 300.0 C 265.45776045126786 331.65325224102, 245.0 378.14816235753784, 245.0 425.0 C 245.0 471.85183764246216, 265.45776045126786 518.34674775898, 300.0 550.0 C 333.98206155644914 518.0090355317843, 354.0 471.67121506060175, 354.0 425.0 C 354.0 378.32878493939825, 333.98206155644914 331.99096446821574, 300.0 300.0 Z" fill="rgb(50, 155, 0)" opacity="0.6"/>
<path d="M 300.0 300.0 C 257.0262491312171 317.93012183466186, 222.1247681135892 354.3167722572952, 206.0 398.0 C 189.81967049259805 441.8337477999563, 192.79212991955075 492.36555805815254, 214.0 534.0 C 256.9737508687829 516.0698781653382, 291.8752318864108 479.6832277427048, 308.0 436.0 C 324.18032950740195 392.1662522000437, 321.20787008044925 341.6344419418474, 300.0 300.0 Z" fill="rgb(50, 155, 0)" opacity="0.6"/>
<path d="M 300.0 300.0 C 253.4291718237913 302.14595875918235, 208.1299535476503 324.4242628294156, 178.0 360.0 C 147.6992931974004 395.7773529118596, 133.20136696610234 444.4755153810916, 139.0 491.0 C 185.6889916891148 488.44224826570024, 230.9404035990913 465.81654231071195, 261.0 430.0 C 290.90175694247404 394.37152620377924, 305.3518482017605 346.2045553394911, 300.0 300.0 Z" fill="rgb(50, 155, 0)" opacity="0.6"/>
<path d="M 300.0 300.0 C 255.21257774498042 285.9679552659953, 204.65275623667128 291.54440616764697, 164.0 315.0 C 123.41641875440484 338.41568164326077, 93.31429132219901 379.2951139586021, 83.0 425.0 C 127.68489039988634 438.103595292568, 177.61607792155922 432.185824919629, 218.0 409.0 C 258.52705935617405 385.731994952979, 288.87713984838706 345.38859527430554, 300.0 300.0 Z" fill="rgb(50, 155, 0)" opacity="0.6"/>
<path d="M 300.0 300.0 C 262.5419107707812 271.7800421910465, 213.19501618525857 259.9071051479133, 167.0 268.0 C 120.92546577836609 276.0717876430476, 78.65076851102403 303.88408847682535, 53.0 343.0 C 90.4580892292188 371.2199578089535, 139.80498381474146 383.0928948520867, 186.0 375.0 C 232.0745342216339 366.9282123569524, 274.349231488976 339.1159115231747, 300.0 300.0 Z" fill="rgb(50, 155, 0)" opacity="0.6"/>
<path d="M 300.0 300.0 C 274.6266380369102 260.44813233303415, 232.26840167838762 232.20930809401912, 186.0 224.0 C 139.80878096050648 215.80438626410017, 90.40798381730241 227.69029234366806, 53.0 256.0 C 78.76423650755285 295.01673135536663, 120.97162915665423 322.7847528350386, 167.0 331.0 C 213.0663011718155 339.2220170553077, 262.3164432512567 327.74266063077624, 300.0 300.0 Z" fill="rgb(50, 155, 0)" opacity="0.6"/>
<path d="M 300.0 300.0 C 289.3357249589069 254.17126253116035, 258.8743774605265 213.30847930162568, 218.0 190.0 C 177.5580684757833 166.93812157114073, 127.51790650800979 161.37810357472142, 83.0 175.0 C 93.77028688632355 220.26829753626632, 123.76305868885427 260.6289410730052, 164.0 284.0 C 204.5937482448365 307.57830519376154, 255.04251534827924 313.5134542647548, 300.0 300.0 Z" fill="rgb(50, 155, 0)" opacity="0.6"/>
<path d="M 300.0 300.0 C 305.6090603034777 253.47851380672907, 291.1403623310798 204.87852830970036, 261.0 169.0 C 230.9255250939143 133.19990285900755, 185.6847626564454 110.57952164027311, 139.0 108.0 C 133.39093969652228 154.52148619327093, 147.85963766892013 203.12147169029964, 178.0 239.0 C 208.0744749060857 274.8000971409925, 253.3152373435546 297.4204783597269, 300.0 300.0 Z" fill="rgb(50, 155, 0)" opacity="0.6"/>
<path d="M 300.0 300.0 C 321.4072429318363 258.0727523037565, 324.38177412466587 207.13390562655022, 308.0 163.0 C 291.8003941728442 119.35687140341469, 256.93056963059826 83.0032245402221, 214.0 65.0 C 192.95674889595486 106.69115004384497, 189.98980270181286 157.129235344259, 206.0 201.0 C 222.0453599262387 244.96711645898222, 256.9226700002277 281.69960260073657, 300.0 300.0 Z" fill="rgb(50, 155, 0)" opacity="0.6"/>
<path d="M 300.0 300.0 C 334.0818140538851 268.0896795494267, 354.1270939392744 221.68856870361822, 354.0 175.0 C 353.87251044408583 128.16609962461646, 333.4428826679359 81.73512740609397, 299.0 50.0 C 264.9181859461149 81.91032045057331, 244.8729060607256 128.31143129638178, 245.0 175.0 C 245.12748955591417 221.83390037538354, 265.5571173320641 268.26487259390603, 300.0 300.0 Z" fill="rgb(50, 155, 0)" opacity="0.6"/>
<path d="M 300.0 300.0 C 342.67121925475203 281.4121125295603, 377.112730878092 244.74856789826288, 393.0 201.0 C 408.937352200684 157.11351897421497, 405.9727509954265 106.71529848483735, 385.0 65.0 C 341.9855123463699 82.86097401537124, 307.0539836627555 119.27895072807559, 291.0 163.0 C 274.75751039778766 207.23442200483453, 278.11025303182674 258.27061543409593, 300.0 300.0 Z" fill="rgb(50, 155, 0)" opacity="0.6"/>
<path d="M 300.0 300.0 C 346.3421397751762 297.1433762934502, 391.1434677322181 274.55758286056135, 421.0 239.0 C 451.1309767951961 203.1155679281293, 465.59797399456653 154.52129528409012, 460.0 108.0 C 413.2797885447531 110.39590827975626, 367.9488534969531 133.06137580365623, 338.0 169.0 C 308.0511465030469 204.93862419634377, 293.9316749307813 253.61364461652244, 300.0 300.0 Z" fill="rgb(50, 155, 0)" opacity="0.6"/>
<path d="M 300.0 300.0 C 344.6508447877039 313.3261869320647, 394.70121192339525 307.39429156783456, 435.0 284.0 C 475.50629565391864 260.4852459319784, 505.5681610918445 219.66049039899264, 516.0 174.0 C 471.3491552122961 160.67381306793533, 421.29878807660475 166.60570843216544, 381.0 190.0 C 340.49370434608136 213.51475406802163, 310.4318389081555 254.33950960100736, 300.0 300.0 Z" fill="rgb(50, 155, 0)" opacity="0.6"/>
<path d="M 300.0 300.0 C 337.3844890029483 327.5785800785554, 386.24726995820316 339.05393015138037, 432.0 331.0 C 478.0627513114916 322.8914962822055, 520.3201786428607 295.09055724841, 546.0 256.0 C 508.6701353390723 227.5509644603414, 459.18502565531634 215.64477265673096, 413.0 224.0 C 367.0354812751456 232.31533593888778, 325.03392232565346 260.56417204651086, 300.0 300.0 Z" fill="rgb(50, 155, 0)" opacity="0.6"/>
<path d="M 300.0 300.0 C 325.3118029839557 339.0008355028341, 367.23009229692195 366.8227089406435, 413.0 375.0 C 459.1890649980282 383.2521780620285, 508.6196639486906 371.3591016227714, 546.0 343.0 C 520.435033814044 303.80937037079303, 478.10918492111705 275.96341715176214, 432.0 268.0 C 386.1183627191818 260.0758821068281, 337.1593616350771 271.9447308544898, 300.0 300.0 Z" fill="rgb(50, 155, 0)" opacity="0.6"/>
<path d="M 300.0 300.0 C 310.7203195509563 345.2876224553791, 340.7301411286196 385.67120951667914, 381.0 409.0 C 421.31493297381724 432.3549024271281, 471.3426649482325 438.28411510557726, 516.0 425.0 C 505.738535372788 379.2752390783272, 475.61824055806665 338.3711350089525, 435.0 315.0 C 394.62603708207206 291.7694187331326, 344.4886280029006 286.19859550211356, 300.0 300.0 Z" fill="rgb(50, 155, 0)" opacity="0.6"/>
<path d="M 300.0 300.0 C 294.1896104768875 346.0708136027688, 308.29082976098 394.3118269430853, 338.0 430.0 C 367.93256782894514 465.9565296547463, 413.27523557883586 488.6278635296917, 460.0 491.0 C 465.78921878521083 444.4756524249758, 451.2927505257625 395.78238724580314, 421.0 360.0 C 391.0884573307376 324.6679029030174, 346.2296690126371 302.4238756378436, 300.0 300.0 Z" fill="rgb(50, 155, 0)" opacity="0.6"/>
<path d="M 300.0 300.0 C 278.31019149359963 341.43736638983484, 274.9597808729586 392.06579354618736, 291.0 436.0 C 306.97731108453803 479.7619011439502, 341.9415026158778 516.2139306127938, 385.0 534.0 C 406.1378029719539 492.3413662858577, 409.10790934359267 441.84955796799795, 393.0 398.0 C 377.0338252472004 354.5362772774384, 342.56884023984713 318.21833608689406, 300.0 300.0 Z" fill="rgb(50, 155, 0)" opacity="0.6"/>
</svg>
