
<svg version="1.1"
     xmlns="http://www.w3.org/2000/svg"
     width="600"
     height="600">
<rect x="0" y="0" width="600" height="600" fill="none"/>
<path d="M 300.0 300.0 C 265.45776045 331.65325224, 245.0 378.14816236, 245.0 425.0 C 245.0 471.85183764, 265.45776045 518.34674776, 300.0 550.0 C 333.98206156 518.00903553, 354.0 471.67121506, 354.0 425.0 C 354.0 378.32878494, 333.98206156 331.99096447, 300.0 300.0 Z" fill="rgb(50, 155, 0)" opacity="0.6"/>
<path d="M 300.0 300.0 C 257.02624913 317.93012183, 222.12476811 354.31677226, 206.0 398.0 C 189.81967049 441.8337478, 192.79212992 492.36555806, 214.0 534.0 C 256.97375087 516.06987817, 291.87523189 479.68322774, 308.0 436.0 C 324.18032951 392.1662522, 321.20787008 341.63444194, 300.0 300.0 Z" fill="rgb(50, 155, 0)" opacity="0.6"/>
<path d="M 300.0 300.0 C 253.42917182 302.14595876, 208.12995355 324.42426283, 178.0 360.0 C 147.6992932 395.77735291, 133.20136697 444.47551538, 139.0 491.0 C 185.68899169 488.44224827, 230.9404036 465.81654231, 261.0 430.0 C 290.90175694 394.3715262, 305.3518482 346.20455534, 300.0 300.0 Z" fill="rgb(50, 155, 0)" opacity="0.6"/>
<path d="M 300.0 300.0 C 255.21257774 285.96795527, 204.65275624 291.54440617, 164.0 315.0 C 123.41641875 338.41568164, 93.31429132 379.29511396, 83.0 425.0 C 127.6848904 438.10359529, 177.61607792 432.18582492, 218.0 409.0 C 258.52705936 385.73199495, 288.87713985 345.38859527, 300.0 300.0 Z" fill="rgb(50, 155, 0)" opacity="0.6"/>
<path d="M 300.0 300.0 C 262.54191077 271.78004219, 213.19501619 259.90710515, 167.0 268.0 C 120.92546578 276.07178764, 78.65076851 303.88408848, 53.0 343.0 C 90.45808923 371.21995781, 139.80498381 383.09289485, 186.0 375.0 C 232.07453422 366.92821236, 274.34923149 339.11591152, 300.0 300.0 Z" fill="rgb(50, 155, 0)" opacity="0.6"/>
<path d="M 300.0 300.0 C 274.62663804 260.44813233, 232.26840168 232.20930809, 186.0 224.0 C 139.80878096 215.80438626, 90.40798382 227.69029234, 53.0 256.0 C 78.76423651 295.01673136, 120.97162916 322.78475284, 167.0 331.0 C 213.06630117 339.22201706, 262.31644325 327.74266063, 300.0 300.0 Z" fill="rgb(50, 155, 0)" opacity="0.6"/>
<path d="M 300.0 300.0 C 289.33572496 254.17126253, 258.87437746 213.3084793, 218.0 190.0 C 177.55806848 166.93812157, 127.51790651 161.37810357, 83.0 175.0 C 93.77028689 220.26829754, 123.76305869 260.62894107, 164.0 284.0 C 204.59374824 307.57830519, 255.04251535 313.51345426, 300.0 300.0 Z" fill="rgb(50, 155, 0)" opacity="0.6"/>
<path d="M 300.0 300.0 C 305.6090603 253.47851381, 291.14036233 204.87852831, 261.0 169.0 C 230.92552509 133.19990286, 185.68476266 110.57952164, 139.0 108.0 C 133.3909397 154.52148619, 147.85963767 203.12147169, 178.0 239.0 C 208.07447491 274.80009714, 253.31523734 297.42047836, 300.0 300.0 Z" fill="rgb(50, 155, 0)" opacity="0.6"/>
<path d="M 300.0 300.0 C 321.40724293 258.0727523, 324.38177412 207.13390563, 308.0 163.0 C 291.80039417 119.3568714, 256.93056963 83.00322454, 214.0 65.0 C 192.9567489 106.69115004, 189.9898027 157.12923534, 206.0 201.0 C 222.04535993 244.96711646, 256.92267 281.6996026, 300.0 300.0 Z" fill="rgb(50, 155, 0)" opacity="0.6"/>
<path d="M 300.0 300.0 C 334.08181405 268.08967955, 354.12709394 221.6885687, 354.0 175.0 C 353.87251044 128.16609962, 333.44288267 81.73512741, 299.0 50.0 C 264.91818595 81.91032045, 244.87290606 128.3114313, 245.0 175.0 C 245.12748956 221.83390038, 265.55711733 268.26487259, 300.0 300.0 Z" fill="rgb(50, 155, 0)" opacity="0.6"/>
<path d="M 300.0 300.0 C 342.67121925 281.41211253, 377.11273088 244.7485679, 393.0 201.0 C 408.9373522 157.11351897, 405.972751 106.71529848, 385.0 65.0 C 341.98551235 82.86097402, 307.05398366 119.27895073, 291.0 163.0 C 274.7575104 207.234422, 278.11025303 258.27061543, 300.0 300.0 Z" fill="rgb(50, 155, 0)" opacity="0.6"/>
<path d="M 300.0 300.0 C 346.34213978 297.14337629, 391.14346773 274.55758286, 421.0 239.0 C 451.1309768 203.11556793, 465.59797399 154.52129528, 460.0 108.0 C 413.27978854 110.39590828, 367.9488535 133.0613758, 338.0 169.0 C 308.0511465 204.9386242, 293.93167493 253.61364462, 300.0 300.0 Z" fill="rgb(50, 155, 0)" opacity="0.6"/>
<path d="M 300.0 300.0 C 344.65084479 313.32618693, 394.70121192 307.39429157, 435.0 284.0 C 475.50629565 260.48524593, 505.56816109 219.6604904, 516.0 174.0 C 471.34915521 160.67381307, 421.29878808 166.60570843, 381.0 190.0 C 340.49370435 213.51475407, 310.43183891 254.3395096, 300.0 300.0 Z" fill="rgb(50, 155, 0)" opacity="0.6"/>
<path d="M 300.0 300.0 C 337.384489 327.57858008, 386.24726996 339.05393015, 432.0 331.0 C 478.06275131 322.89149628, 520.32017864 295.09055725, 546.0 256.0 C 508.67013534 227.55096446, 459.18502566 215.64477266, 413.0 224.0 C 367.03548128 232.31533594, 325.03392233 260.56417205, 300.0 300.0 Z" fill="rgb(50, 155, 0)" opacity="0.6"/>
<path d="M 300.0 300.0 C 325.31180298 339.0008355, 367.2300923 366.82270894, 413.0 375.0 C 459.189065 383.25217806, 508.61966395 371.35910162, 546.0 343.0 C 520.43503381 303.80937037, 478.10918492 275.96341715, 432.0 268.0 C 386.11836272 260.07588211, 337.15936164 271.94473085, 300.0 300.0 Z" fill="rgb(50, 155, 0)" opacity="0.6"/>
<path d="M 300.0 300.0 C 310.72031955 345.28762246, 340.73014113 385.67120952, 381.0 409.0 C 421.31493297 432.35490243, 471.34266495 438.28411511, 516.0 425.0 C 505.73853537 379.27523908, 475.61824056 338.37113501, 435.0 315.0 C 394.62603708 291.76941873, 344.488628 286.1985955, 300.0 300.0 Z" fill="rgb(50, 155, 0)" opacity="0.6"/>
<path d="M 300.0 300.0 C 294.18961048 346.0708136, 308.29082976 394.31182694, 338.0 430.0 C 367.93256783 465.95652965, 413.27523558 488.62786353, 460.0 491.0 C 465.78921879 444.47565242, 451.29275053 395.78238725, 421.0 360.0 C 391.08845733 324.6679029, 346.22966901 302.42387564, 300.0 300.0 Z" fill="rgb(50, 155, 0)" opacity="0.6"/>
<path d="M 300.0 300.0 C 278.31019149 341.43736639, 274.95978087 392.06579355, 291.0 436.0 C 306.97731108 479.76190114, 341.94150262 516.21393061, 385.0 534.0 C 406.13780297 492.34136629, 409.10790934 441.84955797, 393.0 398.0 C 377.03382525 354.53627728, 342.56884024 318.21833609, 300.0 300.0 Z" fill="rgb(50, 155, 0)" opacity="0.6"/>
</svg>
