
<svg version="1.1"
     xmlns="http://www.w3.org/2000/svg"
     width="610.13468051"
     height="805.0">
<rect x="0" y="0" width="600" height="800" fill="skyblue"/>
<circle cx="0" cy="0" r="200" fill="yellow"/>
<path d="M 0.0 800.0 L 8.0 800.0 C 11.16506294 764.42441082, 12.83369345 728.71571799, 13.0 693.0 C 13.16624128 657.2983004, 11.8313381 621.58964056, 9.0 586.0 C 7.8330149 621.67262635, 6.49966223 657.33981018, 5.0 693.0 C 3.49974927 728.67418376, 1.83305841 764.341368, 0.0 800.0 Z" fill="green"/>
<path d="M 8.0 800.0 L 16.0 800.0 C 14.43862226 763.23453019, 11.43554972 726.53031029, 7.0 690.0 C 2.48071599 652.78007065, -3.52566331 615.74073162, -11.0 579.0 C -7.51403745 615.98603799, -4.18066629 652.98645784, -1.0 690.0 C 2.14978763 726.65420594, 5.14982102 763.32128063, 8.0 800.0 Z" fill="green"/>
<path d="M 16.0 800.0 L 24.0 800.0 C 31.31316615 765.24209422, 37.31882167 730.20910369, 42.0 695.0 C 46.63472934 660.14025865, 49.97114258 625.10791962, 52.0 590.0 L 34.0 695.0 L 16.0 800.0 Z" fill="green"/>
<path d="M 24.0 800.0 L 32.0 800.0 C 29.10892446 752.88187675, 24.77287575 705.85242536, 19.0 659.0 C 13.14164012 611.45378886, 5.80357442 564.08991029, -3.0 517.0 C 1.81716135 564.31833475, 6.48385948 611.65198714, 11.0 659.0 C 15.4816273 705.98617018, 19.8149894 752.98648218, 24.0 800.0 Z" fill="green"/>
<path d="M 32.0 800.0 L 40.0 800.0 C 37.63031087 745.25663357, 33.96226967 690.56947384, 29.0 636.0 C 23.98573799 580.85877269, 17.64998044 525.83772034, 10.0 471.0 C 13.65550384 526.00074343, 17.32217061 581.00074494, 21.0 636.0 C 24.65563844 690.66740562, 28.32230521 745.33407377, 32.0 800.0 Z" fill="green"/>
<path d="M 40.0 800.0 L 48.0 800.0 C 52.99804256 744.43170056, 56.66610902 688.74378248, 59.0 633.0 C 61.3292193 577.36779815, 62.32959953 521.67996506, 62.0 466.0 L 51.0 633.0 L 40.0 800.0 Z" fill="green"/>
<path d="M 48.0 800.0 L 56.0 800.0 C 55.62761852 764.2885264, 53.95949021 728.59058067, 51.0 693.0 C 47.99454729 656.85667826, 43.65729473 620.82411853, 38.0 585.0 C 39.65885922 621.00036089, 41.32552594 657.00036202, 43.0 693.0 C 44.65900298 728.66702423, 46.3256697 764.333692, 48.0 800.0 Z" fill="green"/>
<path d="M 56.0 800.0 L 64.0 800.0 C 65.30817063 767.35079755, 65.30817063 734.64920245, 64.0 702.0 C 62.67416335 668.90989063, 60.00456784 635.87364624, 56.0 603.0 L 56.0 702.0 L 56.0 800.0 Z" fill="green"/>
<path d="M 64.0 800.0 L 72.0 800.0 C 70.990775 749.28390501, 68.65638007 698.59418654, 65.0 648.0 C 61.32974589 597.21383505, 56.32745374 546.5239413, 50.0 496.0 L 57.0 648.0 L 64.0 800.0 Z" fill="green"/>
<path d="M 72.0 800.0 L 80.0 800.0 C 79.11337797 763.92566084, 76.77753658 727.88696507, 73.0 692.0 C 69.15466208 655.46891567, 63.81538839 619.09511361, 57.0 583.0 C 59.82253341 619.32166944, 62.4892328 655.65544864, 65.0 692.0 C 67.48626499 727.98987026, 69.81962641 763.99030345, 72.0 800.0 Z" fill="green"/>
<path d="M 80.0 800.0 L 88.0 800.0 C 86.12160217 751.58097522, 82.78625786 703.21848271, 78.0 655.0 C 73.15159339 606.15540843, 66.81433932 557.45861402, 59.0 509.0 C 62.82158832 557.65482914, 66.48827976 606.32182464, 70.0 655.0 C 73.48607122 703.32263801, 76.81942675 751.65629317, 80.0 800.0 Z" fill="green"/>
<path d="M 88.0 800.0 L 96.0 800.0 C 103.15950213 744.83313896, 108.82892371 689.47290465, 113.0 634.0 C 117.15418595 578.7517271, 119.82213857 523.39171023, 121.0 468.0 C 115.8316692 523.34907169, 110.49830426 578.68273298, 105.0 634.0 C 99.49843473 689.35007541, 93.83173443 744.68373709, 88.0 800.0 Z" fill="green"/>
<path d="M 96.0 800.0 L 104.0 800.0 C 110.49695038 741.47375816, 115.49912388 682.78158908, 119.0 624.0 C 122.51006679 565.0640946, 124.51094076 506.03831244, 125.0 447.0 C 120.51346971 506.01406363, 115.84677405 565.01443023, 111.0 624.0 C 106.17819686 682.6816722, 101.17816611 741.34869965, 96.0 800.0 Z" fill="green"/>
<path d="M 104.0 800.0 L 112.0 800.0 C 108.64347085 750.88698811, 103.97458373 701.86367336, 98.0 653.0 C 91.98608016 603.8146127, 84.64921145 554.79098992, 76.0 506.0 L 90.0 653.0 L 104.0 800.0 Z" fill="green"/>
<path d="M 112.0 800.0 L 120.0 800.0 C 117.93861516 764.56203668, 114.60240831 729.19824412, 110.0 694.0 C 105.3096807 658.1294313, 99.30430888 622.43083214, 92.0 587.0 C 95.31767474 622.66812778, 98.6510085 658.33479903, 102.0 694.0 C 105.31796479 729.33478095, 108.65129855 764.66811874, 112.0 800.0 Z" fill="green"/>
<path d="M 120.0 800.0 L 128.0 800.0 C 132.82530949 761.48132909, 136.16195906 722.77619406, 138.0 684.0 C 139.84710759 645.03253155, 140.18077583 605.99334779, 139.0 567.0 C 136.18056243 606.01360918, 133.18051957 645.01416636, 130.0 684.0 C 126.84429166 722.68170523, 123.51091144 761.34891573, 120.0 800.0 Z" fill="green"/>
<path d="M 128.0 800.0 L 136.0 800.0 C 137.65195608 753.02168651, 137.98546437 705.9970186, 137.0 659.0 C 136.00636421 611.61328422, 133.67178583 564.2546943, 130.0 517.0 C 129.66785282 564.33334168, 129.33451948 611.66667503, 129.0 659.0 C 128.66783617 706.00000828, 128.33450284 753.0000083, 128.0 800.0 Z" fill="green"/>
<path d="M 136.0 800.0 L 144.0 800.0 C 141.41399625 765.85345833, 137.40939851 731.81437758, 132.0 698.0 C 126.46329992 663.38985497, 119.45487068 629.01517821, 111.0 595.0 C 115.47899245 629.31473983, 119.8123778 663.64848528, 124.0 698.0 C 128.14269955 731.98300935, 132.14274654 765.98340876, 136.0 800.0 Z" fill="green"/>
<path d="M 144.0 800.0 L 152.0 800.0 C 157.16138432 750.79296352, 160.83029847 701.42939128, 163.0 652.0 C 165.17855219 602.36897592, 165.84563083 552.67161714, 165.0 503.0 C 161.845398 552.67844673, 158.5120359 602.34554212, 155.0 652.0 C 151.50976456 701.34623502, 147.84306663 750.67998892, 144.0 800.0 Z" fill="green"/>
<path d="M 152.0 800.0 L 160.0 800.0 C 157.48175766 744.90559609, 153.47982457 689.87901611, 148.0 635.0 C 142.49051575 579.82394986, 135.48709612 524.79708136, 127.0 470.0 C 131.49907314 524.98677417, 135.83243271 579.98710719, 140.0 635.0 C 144.16566517 689.98778439, 148.16568937 744.9881171, 152.0 800.0 Z" fill="green"/>
<path d="M 160.0 800.0 L 168.0 800.0 C 172.16548306 753.76916582, 174.83401249 707.40346701, 176.0 661.0 C 177.16409061 614.67202479, 176.83052519 568.30643121, 175.0 522.0 C 172.83282665 568.341502, 170.49947332 614.67523254, 168.0 661.0 C 165.49955908 707.34270087, 162.83286953 753.67643171, 160.0 800.0 Z" fill="green"/>
<path d="M 168.0 800.0 L 176.0 800.0 C 176.99714144 749.6695782, 176.66365285 699.31280064, 175.0 649.0 C 173.33343059 598.59899571, 170.33202835 548.24213588, 166.0 498.0 L 167.0 649.0 L 168.0 800.0 Z" fill="green"/>
<path d="M 176.0 800.0 L 184.0 800.0 C 187.82631601 743.74172844, 190.1607428 687.38199588, 191.0 631.0 C 191.84355935 574.32898202, 191.17657705 517.63548696, 189.0 461.0 C 187.17381168 517.67262328, 185.17379914 574.33964534, 183.0 631.0 C 180.83848086 687.34027494, 178.50513306 743.67395759, 176.0 800.0 Z" fill="green"/>
<path d="M 184.0 800.0 L 192.0 800.0 C 199.33102648 745.49037432, 205.33340211 690.80206296, 210.0 636.0 C 214.67559161 581.09231948, 218.01024984 526.07045878, 220.0 471.0 C 214.01813076 526.00197588, 208.01813032 581.00197987, 202.0 636.0 C 196.01791294 690.66863074, 190.01791251 745.33530132, 184.0 800.0 Z" fill="green"/>
<path d="M 192.0 800.0 L 200.0 800.0 C 198.15191208 745.25625631, 194.81694011 690.56271612, 190.0 636.0 C 185.15982482 581.1740943, 178.82334798 526.48029422, 171.0 472.0 C 174.83267343 526.65536325, 178.49936264 581.32236604, 182.0 636.0 C 185.49927659 690.65637962, 188.8326304 745.32338215, 192.0 800.0 Z" fill="green"/>
<path d="M 200.0 800.0 L 208.0 800.0 C 209.16090736 758.33924071, 208.82728826 716.63685373, 207.0 675.0 C 205.16692991 633.23140067, 201.83072084 591.52878727, 197.0 550.0 C 197.83331289 591.66377809, 198.49998667 633.33088911, 199.0 675.0 C 199.49996534 716.66511146, 199.83330223 758.3322224, 200.0 800.0 Z" fill="green"/>
<path d="M 208.0 800.0 L 216.0 800.0 C 216.31545237 742.65378401, 215.3151015 685.30033423, 213.0 628.0 C 210.66708795 570.25884262, 206.99911489 512.57163003, 202.0 455.0 C 202.99708548 512.66671716, 203.99708548 570.33338392, 205.0 628.0 C 205.99711907 685.33338353, 206.99711907 742.66671696, 208.0 800.0 Z" fill="green"/>
<path d="M 216.0 800.0 L 224.0 800.0 C 224.80253079 761.99315833, 224.13519999 723.95530253, 222.0 686.0 C 219.83655767 647.54266178, 216.16614097 609.17012357, 211.0 571.0 C 212.16438761 609.3288098, 213.16439987 647.66261314, 214.0 686.0 C 214.82817971 723.99693753, 215.4948544 761.99739521, 216.0 800.0 Z" fill="green"/>
<path d="M 224.0 800.0 L 232.0 800.0 C 233.46865074 768.68961615, 233.46865074 737.31038385, 232.0 706.0 C 230.50906276 674.21448701, 227.50453378 642.50001437, 223.0 611.0 C 223.50087716 642.66460752, 223.83421671 674.33186518, 224.0 706.0 C 224.16402909 737.3330471, 224.16402909 768.6669529, 224.0 800.0 Z" fill="green"/>
<path d="M 232.0 800.0 L 240.0 800.0 C 246.49428013 755.18281767, 251.49796498 710.149654, 255.0 665.0 C 258.50981157 619.7500876, 260.51129206 574.38319639, 261.0 529.0 C 256.51704236 574.35199384, 251.85032462 619.68582335, 247.0 665.0 C 242.18117573 710.01988456, 237.18112171 755.02037071, 232.0 800.0 Z" fill="green"/>
<path d="M 240.0 800.0 L 248.0 800.0 C 250.99899033 763.74412169, 252.66715286 727.37817846, 253.0 691.0 C 253.33262332 654.64628432, 252.331727 618.28038494, 250.0 582.0 L 245.0 691.0 L 240.0 800.0 Z" fill="green"/>
<path d="M 248.0 800.0 L 256.0 800.0 C 257.99711394 768.04617688, 258.66454941 736.00927444, 258.0 704.0 C 257.33429769 671.93519402, 255.33198328 639.89816342, 252.0 608.0 L 250.0 704.0 L 248.0 800.0 Z" fill="green"/>
<path d="M 256.0 800.0 L 264.0 800.0 C 262.3021333 744.93927271, 259.3010132 689.91873748, 255.0 635.0 C 250.65673684 579.54178166, 244.98791265 524.18738074, 238.0 469.0 C 240.99090857 524.33382574, 243.99090862 579.66716007, 247.0 635.0 C 249.99101761 690.00048946, 252.99101766 745.00049044, 256.0 800.0 Z" fill="green"/>
<path d="M 264.0 800.0 L 272.0 800.0 C 271.46311006 755.61677506, 269.46165917 711.25128046, 266.0 667.0 C 262.49407925 622.18291243, 257.49035868 577.4830087, 251.0 533.0 C 253.49271657 577.65815056, 255.82606971 622.32519642, 258.0 667.0 C 260.15696033 711.32606678, 262.15697704 755.65977063, 264.0 800.0 Z" fill="green"/>
<path d="M 272.0 800.0 L 280.0 800.0 C 281.16142084 756.338978, 280.82782714 712.63820331, 279.0 669.0 C 277.16690641 625.2360636, 273.83095438 581.53509207, 269.0 538.0 C 269.83331472 581.66391037, 270.49998786 625.33100104, 271.0 669.0 C 271.49996844 712.66518266, 271.83330501 756.33227327, 272.0 800.0 Z" fill="green"/>
<path d="M 280.0 800.0 L 288.0 800.0 C 294.99189777 748.82452402, 300.66108714 697.46833795, 305.0 646.0 C 309.32006975 594.75517962, 312.32139373 543.39919162, 314.0 492.0 L 297.0 646.0 L 280.0 800.0 Z" fill="green"/>
<path d="M 288.0 800.0 L 296.0 800.0 C 297.98114364 766.37648728, 298.64848824 732.67558464, 298.0 699.0 C 297.34408374 664.93868326, 295.34200306 630.90331163, 292.0 597.0 C 291.33664863 631.0000649, 290.66998196 665.00006511, 290.0 699.0 C 289.33658395 732.66673093, 288.66991728 766.33339781, 288.0 800.0 Z" fill="green"/>
<path d="M 296.0 800.0 L 304.0 800.0 C 310.16181188 752.16106484, 314.83150341 704.12995193, 318.0 656.0 C 321.17741783 607.73453309, 322.8451709 559.36969411, 323.0 511.0 C 318.84853763 559.34940911, 314.5151634 607.68319857, 310.0 656.0 C 305.51283172 704.01722542, 300.84612155 752.01767281, 296.0 800.0 Z" fill="green"/>
<path d="M 304.0 800.0 L 312.0 800.0 C 309.46164268 762.1971836, 305.4576378 724.49280431, 300.0 687.0 C 294.47992416 649.07825968, 287.47275432 611.37301246, 279.0 574.0 C 283.49803619 611.64747523, 287.83142478 649.31462218, 292.0 687.0 C 296.1645458 724.64895039, 300.1645967 762.31609642, 304.0 800.0 Z" fill="green"/>
<path d="M 312.0 800.0 L 320.0 800.0 C 317.6507424 749.58223715, 313.98240319 699.2259443, 309.0 649.0 C 303.99157515 598.51173997, 297.65532261 548.15520667, 290.0 498.0 L 301.0 649.0 L 312.0 800.0 Z" fill="green"/>
<path d="M 320.0 800.0 L 328.0 800.0 C 324.97661494 753.55658533, 320.6409764 707.19860397, 315.0 661.0 C 309.31978706 614.48005566, 302.31601127 568.12173021, 294.0 522.0 L 307.0 661.0 L 320.0 800.0 Z" fill="green"/>
<path d="M 328.0 800.0 L 336.0 800.0 C 336.47969921 742.32033054, 335.47926038 684.62835802, 333.0 627.0 C 330.50085692 568.90948514, 326.49907334 510.88362312, 321.0 453.0 C 322.49752037 510.99607057, 323.83086082 568.99638044, 325.0 627.0 C 326.16228765 684.66370014, 327.16229293 742.33067129, 328.0 800.0 Z" fill="green"/>
<path d="M 336.0 800.0 L 344.0 800.0 C 348.16584662 744.41865182, 350.83380387 688.72504402, 352.0 633.0 C 353.16488089 577.33780267, 352.8313866 521.64425561, 351.0 466.0 C 348.83298199 521.67347206, 346.49963477 577.34046996, 344.0 633.0 C 341.49969429 688.67446996, 338.83301175 744.34146805, 336.0 800.0 Z" fill="green"/>
<path d="M 344.0 800.0 L 352.0 800.0 C 353.66520938 747.01953523, 353.99868307 693.99721881, 353.0 641.0 C 352.00036914 587.95248461, 349.66605146 534.93012581, 346.0 482.0 L 345.0 641.0 L 344.0 800.0 Z" fill="green"/>
<path d="M 352.0 800.0 L 360.0 800.0 C 358.12517894 748.58581339, 354.79005377 697.22488578, 350.0 646.0 C 345.15294822 594.16557684, 338.81612889 542.47047177, 331.0 491.0 C 334.82231666 542.65546343, 338.48900552 594.32244274, 342.0 646.0 C 345.48691974 697.32320635, 348.82027296 748.65684607, 352.0 800.0 Z" fill="green"/>
<path d="M 360.0 800.0 L 368.0 800.0 C 374.49173013 757.19098889, 379.49575293 714.15639287, 383.0 671.0 C 386.48454965 628.0861899, 388.48614072 585.05198175, 389.0 542.0 C 384.49787172 585.0176446, 379.83115951 628.01806422, 375.0 671.0 C 370.16468167 714.01893602, 365.1646328 757.01935636, 360.0 800.0 Z" fill="green"/>
<path d="M 368.0 800.0 L 376.0 800.0 C 375.15758477 742.6189261, 372.82320022 685.25976288, 369.0 628.0 C 365.1634666 570.54054718, 359.8277137 513.18120349, 353.0 456.0 C 355.83303014 513.32543422, 358.49971177 570.65908941, 361.0 628.0 C 363.49965565 685.32640329, 365.83300208 742.66005831, 368.0 800.0 Z" fill="green"/>
<path d="M 376.0 800.0 L 384.0 800.0 C 384.82485098 761.66007087, 384.1575117 723.28806195, 382.0 685.0 C 379.83296373 646.54291118, 376.16256492 608.17056, 371.0 570.0 C 372.16659633 608.32874582, 373.16660893 646.66256187, 374.0 685.0 C 374.83323362 723.33019517, 375.49990868 761.66401105, 376.0 800.0 Z" fill="green"/>
<path d="M 384.0 800.0 L 392.0 800.0 C 390.10509633 761.22726356, 386.76869395 722.5249959, 382.0 684.0 C 377.14515379 644.77900313, 370.80577664 605.74178595, 363.0 567.0 C 366.81842065 605.98553391, 370.48512434 644.98592767, 374.0 684.0 C 377.48240187 722.6536229, 380.81576824 761.32067278, 384.0 800.0 Z" fill="green"/>
<path d="M 392.0 800.0 L 400.0 800.0 C 400.65884094 765.65798622, 399.99151209 731.29055061, 398.0 697.0 C 395.99949657 662.55463335, 392.66282236 628.18688908, 388.0 594.0 L 390.0 697.0 L 392.0 800.0 Z" fill="green"/>
<path d="M 400.0 800.0 L 408.0 800.0 C 409.99767567 764.37478391, 410.66496163 728.67498502, 410.0 693.0 C 409.33410963 657.27518811, 407.33224655 621.57529659, 404.0 586.0 L 402.0 693.0 L 400.0 800.0 Z" fill="green"/>
<path d="M 408.0 800.0 L 416.0 800.0 C 422.65082458 766.55973709, 427.98962616 732.85855213, 432.0 699.0 C 435.97336751 665.45388274, 438.64271807 631.75333196, 440.0 598.0 L 424.0 699.0 L 408.0 800.0 Z" fill="green"/>
<path d="M 416.0 800.0 L 424.0 800.0 C 420.93926175 758.21405271, 416.6032391 716.5215272, 411.0 675.0 C 405.3047148 632.79638614, 398.30022661 590.76945696, 390.0 549.0 C 394.31611618 591.001774, 398.64945 633.0017787, 403.0 675.0 C 407.31638695 716.66842677, 411.64972076 758.33509803, 416.0 800.0 Z" fill="green"/>
<path d="M 424.0 800.0 L 432.0 800.0 C 430.31638355 756.92163939, 427.31451171 713.89480977, 423.0 671.0 C 418.65872932 627.83915302, 412.98848297 584.81198955, 406.0 542.0 L 415.0 671.0 L 424.0 800.0 Z" fill="green"/>
<path d="M 432.0 800.0 L 440.0 800.0 C 444.66485158 750.10065466, 447.9997628 700.0769863, 450.0 650.0 C 451.99598338 600.02951021, 452.66296428 550.00594242, 452.0 500.0 L 442.0 650.0 L 432.0 800.0 Z" fill="green"/>
<path d="M 440.0 800.0 L 448.0 800.0 C 447.45243138 763.273319, 445.45034204 726.56834791, 442.0 690.0 C 438.49182829 652.81874611, 433.48642838 615.77878678, 427.0 579.0 C 429.49110075 615.98982553, 431.82446237 652.99027409, 434.0 690.0 C 436.15486223 726.65800093, 438.15488602 763.32510371, 440.0 800.0 Z" fill="green"/>
<path d="M 448.0 800.0 L 456.0 800.0 C 455.81027413 769.27680747, 454.14103434 738.56279533, 451.0 708.0 C 447.82746265 677.13067511, 443.15344597 646.41570836, 437.0 616.0 C 439.16610572 646.65553243, 441.16614485 677.32279905, 443.0 708.0 C 444.83266814 738.65734438, 446.49936737 769.32461022, 448.0 800.0 Z" fill="green"/>
<path d="M 456.0 800.0 L 464.0 800.0 C 463.99087363 760.63664556, 462.65653351 721.27361183, 460.0 682.0 C 457.33129331 642.54642251, 453.32824519 603.18311594, 448.0 564.0 L 452.0 682.0 L 456.0 800.0 Z" fill="green"/>
<path d="M 464.0 800.0 L 472.0 800.0 C 476.66518428 744.75763393, 479.99980635 689.40290768, 482.0 634.0 C 483.99671841 578.69335226, 484.66364193 523.33870028, 484.0 468.0 L 474.0 634.0 L 464.0 800.0 Z" fill="green"/>
<path d="M 472.0 800.0 L 480.0 800.0 C 479.14813098 759.93190824, 476.81266675 719.89537856, 473.0 680.0 C 469.1601072 639.81973061, 463.82183343 599.7826773, 457.0 560.0 C 459.83271163 599.98869951, 462.49940893 639.98915912, 465.0 680.0 C 467.49929409 719.99008861, 469.83265421 759.99054774, 472.0 800.0 Z" fill="green"/>
<path d="M 480.0 800.0 L 488.0 800.0 C 493.82839019 755.16071595, 498.16491934 710.12752868, 501.0 665.0 C 503.82326071 620.06061599, 505.15756919 575.02770489, 505.0 530.0 C 501.16521097 575.01448168, 497.16517504 620.01488596, 493.0 665.0 C 488.83199154 710.01571588, 484.49861922 755.01612071, 480.0 800.0 Z" fill="green"/>
<path d="M 488.0 800.0 L 496.0 800.0 C 494.31638355 756.92163939, 491.31451171 713.89480977, 487.0 671.0 C 482.65872932 627.83915302, 476.98848297 584.81198955, 470.0 542.0 L 479.0 671.0 L 488.0 800.0 Z" fill="green"/>
<path d="M 496.0 800.0 L 504.0 800.0 C 510.16195085 751.49220318, 514.83156046 702.79484585, 518.0 654.0 C 521.17741419 605.06694204, 522.84513787 556.03586585, 523.0 507.0 C 518.8483522 556.01584117, 514.51497916 605.01629018, 510.0 654.0 C 505.51267902 702.68364192, 500.84597012 751.3507491, 496.0 800.0 Z" fill="green"/>
<path d="M 504.0 800.0 L 512.0 800.0 C 517.99255428 766.19960908, 522.66396959 732.16501184, 526.0 698.0 C 529.34310772 663.7625079, 531.3451515 629.39408973, 532.0 595.0 C 527.35589839 629.33639539, 522.68923038 663.66973861, 518.0 698.0 C 513.35546632 732.00303297, 508.68879833 766.00304257, 504.0 800.0 Z" fill="green"/>
<path d="M 512.0 800.0 L 520.0 800.0 C 521.15867099 764.67359067, 520.82494147 729.29826204, 519.0 694.0 C 517.16703232 658.54649403, 513.82970224 623.17079516, 509.0 588.0 C 509.83330491 623.32992714, 510.49998146 658.66378444, 511.0 694.0 C 511.49995181 729.33149953, 511.83329008 764.66535668, 512.0 800.0 Z" fill="green"/>
<path d="M 520.0 800.0 L 528.0 800.0 C 527.14782221 760.26468048, 524.81232297 720.56119334, 521.0 681.0 C 517.15999699 641.15156567, 511.82164085 601.44754185, 505.0 562.0 C 507.83270117 601.65527193, 510.49939899 641.32240201, 513.0 681.0 C 515.49928223 720.65667271, 517.83264279 760.32380229, 520.0 800.0 Z" fill="green"/>
<path d="M 528.0 800.0 L 536.0 800.0 C 540.16477704 763.4628408, 542.83441765 726.75528245, 544.0 690.0 C 545.16255835 653.34007588, 544.8288552 616.63272945, 543.0 580.0 C 540.83252575 616.67697029, 538.49916059 653.34413703, 536.0 690.0 C 533.49929706 726.67848509, 530.83259398 763.34565244, 528.0 800.0 Z" fill="green"/>
<path d="M 536.0 800.0 L 544.0 800.0 C 549.99305782 765.19396473, 554.66420813 730.1603374, 558.0 695.0 C 561.34336759 659.75981196, 563.34529789 624.39237665, 564.0 589.0 C 559.35527329 624.33622644, 554.68860542 659.66956886, 550.0 695.0 C 545.35486481 730.00286637, 540.68819697 765.0028752, 536.0 800.0 Z" fill="green"/>
<path d="M 544.0 800.0 L 552.0 800.0 C 552.63840005 763.99160219, 551.97114951 727.96007282, 550.0 692.0 C 548.00257518 655.56058146, 544.66624411 619.19457273, 540.0 583.0 C 540.66356708 619.33339012, 541.33023375 655.66672363, 542.0 692.0 C 542.66362368 728.00005627, 543.33029035 764.00005644, 544.0 800.0 Z" fill="green"/>
<path d="M 552.0 800.0 L 560.0 800.0 C 565.82827583 752.81942964, 570.1644966 705.45455657, 573.0 658.0 C 575.8446955 610.39160576, 577.17892305 562.69297098, 577.0 515.0 C 573.18112717 562.68163516, 569.18108868 610.34876057, 565.0 658.0 C 560.84538977 705.34946853, 556.51201526 752.68325165, 552.0 800.0 Z" fill="green"/>
<path d="M 560.0 800.0 L 568.0 800.0 C 570.65529019 758.05586064, 571.98950478 716.02810111, 572.0 674.0 C 572.01057846 631.63856557, 570.67634983 589.27680677, 568.0 547.0 C 566.67197327 589.33350025, 565.33863992 631.66683403, 564.0 674.0 C 562.67189007 716.00016561, 561.33855672 758.00016604, 560.0 800.0 Z" fill="green"/>
<path d="M 568.0 800.0 L 576.0 800.0 C 576.49440865 747.65233645, 575.4938652 695.29056278, 573.0 643.0 C 570.49931543 590.56645089, 566.49712974 538.20452146, 561.0 486.0 C 562.49992397 538.32891209, 563.83326631 590.66259898, 565.0 643.0 C 566.16656812 695.32997371, 567.16657487 747.6636605, 568.0 800.0 Z" fill="green"/>
<path d="M 576.0 800.0 L 584.0 800.0 C 589.15945078 760.1556092, 592.82953006 720.11838071, 595.0 680.0 C 597.17972178 639.71061075, 597.84701423 599.33941795, 597.0 559.0 C 593.84793953 599.34804121, 590.51456132 639.68191754, 587.0 680.0 C 583.51176374 720.01608865, 579.84504844 760.01661913, 576.0 800.0 Z" fill="green"/>
<path d="M 584.0 800.0 L 592.0 800.0 C 596.82861877 769.18519132, 600.16714113 738.1369334, 602.0 707.0 C 603.82245141 676.03987046, 604.15629777 644.9921591, 603.0 614.0 C 600.16488263 645.01566142, 597.16482607 676.01624587, 594.0 707.0 C 590.8317318 738.01745269, 587.49833549 769.01803842, 584.0 800.0 Z" fill="green"/>
<path d="M 592.0 800.0 L 600.0 800.0 C 604.49268098 755.78453136, 607.49495187 711.41763928, 609.0 667.0 C 610.51290735 622.3504159, 610.51290735 577.6495841, 609.0 533.0 C 606.51119156 577.67704819, 603.84449671 622.34418693, 601.0 667.0 C 598.17530384 711.34496392, 595.17527257 755.6787593, 592.0 800.0 Z" fill="green"/>
<path d="M 200.0 409.0 L 200.0 244.0 C 200.0 230.19176133, 199.29972644 216.05032288, 203.46448408 202.88513207 C 205.54686289 196.30253667, 209.03534926 190.05734642, 214.16887633 185.44066324 C 219.3024034 180.82398005, 226.09588067 178.0, 233.0 178.0 C 239.90411933 178.0, 246.6975966 180.82398005, 251.83112367 185.44066324 C 256.96465073 190.05734642, 260.45313711 196.30253667, 262.53551592 202.88513207 C 266.70027356 216.05032288, 266.0 230.19176133, 266.0 244.0 L 266.0 277.0 C 266.0 290.80823867, 265.29972644 304.94967712, 269.46448408 318.11486793 C 271.54686289 324.69746333, 275.03534926 330.94265358, 280.16887633 335.55933676 C 285.3024034 340.17601995, 292.09588067 343.0, 299.0 343.0 C 305.90411933 343.0, 312.6975966 340.17601995, 317.83112367 335.55933676 C 322.96465073 330.94265358, 326.45313711 324.69746333, 328.53551592 318.11486793 C 332.70027356 304.94967712, 332.0 290.80823867, 332.0 277.0 L 332.0 244.0 C 332.0 230.19176133, 331.29972644 216.05032288, 335.46448408 202.88513207 C 337.54686289 196.30253667, 341.03534926 190.05734642, 346.16887633 185.44066324 C 351.3024034 180.82398005, 358.09588067 178.0, 365.0 178.0 C 371.90411933 178.0, 378.6975966 180.82398005, 383.83112367 185.44066324 C 388.96465073 190.05734642, 392.45313711 196.30253667, 394.53551592 202.88513207 C 398.70027356 216.05032288, 398.0 230.19176133, 398.0 244.0 L 398.0 409.0 C 398.0 434.91813939, 387.33046346 460.67667922, 369.00357134 479.00357134 C 350.67667922 497.33046346, 324.91813939 508.0, 299.0 508.0 C 273.08186061 508.0, 247.32332078 497.33046346, 228.99642866 479.00357134 C 210.66953654 460.67667922, 200.0 434.91813939, 200.0 409.0 Z" fill="white" stroke="#222" stroke-width="8"/>
<path d="M 216.0 310.0 L 216.0 244.0 C 216.0 234.22834906, 215.10209244 224.41226815, 216.18414372 214.70071178 C 216.72516936 209.84493359, 217.98088817 204.95096087, 220.76278043 200.93444919 C 222.15372656 198.92619336, 223.92588457 197.16377632, 226.02493951 195.91405995 C 228.12399444 194.66434358, 230.55779331 193.94127079, 233.0 194.0 C 235.41232856 194.05801072, 237.77996892 194.87710791, 239.80187905 196.19414008 C 241.82378917 197.51117226, 243.50829249 199.31323879, 244.81698665 201.34055571 C 247.43437497 205.39518955, 248.55214957 210.25006315, 249.00287521 215.05502139 C 249.90432648 224.66493786, 249.0 234.34789614, 249.0 244.0 L 249.0 310.0" fill="lightpink"/>
<path d="M 348.0 310.0 L 348.0 244.0 C 348.0 234.22834906, 347.10209244 224.41226815, 348.18414372 214.70071178 C 348.72516936 209.84493359, 349.98088817 204.95096087, 352.76278043 200.93444919 C 354.15372656 198.92619336, 355.92588457 197.16377632, 358.02493951 195.91405995 C 360.12399444 194.66434358, 362.55779331 193.94127079, 365.0 194.0 C 367.41232856 194.05801072, 369.77996892 194.87710791, 371.80187905 196.19414008 C 373.82378917 197.51117226, 375.50829249 199.31323879, 376.81698665 201.34055571 C 379.43437497 205.39518955, 380.55214957 210.25006315, 381.00287521 215.05502139 C 381.90432648 224.66493786, 381.0 234.34789614, 381.0 244.0 L 381.0 310.0" fill="lightpink"/>
<circle cx="266" cy="392.5" r="8"/>
<circle cx="332" cy="392.5" r="8"/>
<circle cx="299" cy="425.5" r="11"/>
<path d="M 322.0 455.0 C 315.70636618 455.05219613, 309.43209893 452.46867432, 305.0 448.0 C 302.07726953 445.05315003, 299.95078981 441.32393279, 298.90312404 437.30788069 C 297.85545827 433.29182858, 297.88924685 428.99906308, 299.0 425.0 C 299.87197228 429.09088014, 299.68769048 433.40230513, 298.46982593 437.40386007 C 297.25196139 441.405415, 295.00313166 445.08849932, 292.0 448.0 C 287.49276132 452.36971466, 281.27730583 454.92901986, 275.0 455.0" fill="none" stroke="black" stroke-width="6.8" stroke-linecap="round"/>
<circle cx="299" cy="706.0" r="33" fill="white" stroke="#222" stroke-width="8"/>
<path d="M 299.0 508.0 C 285.61686877 508.0, 272.17980375 509.68638533, 259.40804821 513.6851929 C 246.63629266 517.68400046, 234.53468505 524.16464081, 224.79689554 533.34525393 C 215.05910603 542.52586704, 207.92552977 554.38194928, 204.13900899 567.21824399 C 200.35248822 580.05453871, 200.0 593.61686877, 200.0 607.0 L 200.0 706.0 C 200.0 710.48032954, 199.90571519 715.01672621, 198.70087076 719.3320133 C 197.49602632 723.64730039, 195.18402559 727.66846307, 191.93767221 730.75626853 C 188.69131883 733.84407399, 184.59476388 735.95952565, 180.2862838 737.18848952 C 175.97780372 738.4174534, 171.4760098 738.8033046, 167.0 739.0 C 153.26484493 739.60358265, 139.17520048 738.61663481, 126.08261538 742.81222919 C 119.53632283 744.91002638, 113.31886678 748.34786461, 108.63549109 753.37983155 C 103.95211539 758.41179849, 100.90620359 765.12643459, 101.0 772.0 C 101.09329595 778.83689055, 104.2774109 785.42424773, 108.99732322 790.37138875 C 113.71723554 795.31852977, 119.8822345 798.72973401, 126.36592229 800.9008096 C 139.33329787 805.24296077, 153.32494584 805.0, 167.0 805.0 L 200.0 805.0 C 209.08875049 805.0, 218.27486273 804.87646633, 227.09123476 802.6680801 C 235.90760679 800.45969387, 244.25768351 796.11111772, 250.68440062 789.68440062 C 257.11111772 783.25768351, 261.45969387 774.90760679, 263.6680801 766.09123476 C 265.87646633 757.27486273, 266.0 748.08875049, 266.0 739.0 L 266.0 722.0 C 266.0 716.44567849, 266.02590136 710.86968195, 266.82522073 705.37317615 C 267.62454009 699.87667035, 269.21190276 694.45468978, 271.92810197 689.60982143 C 274.64430118 684.76495309, 278.49874363 680.52966124, 283.20520257 677.58013048 C 287.91166152 674.63059973, 293.44567849 673.0, 299.0 673.0 C 304.55432151 673.0, 310.08833848 674.63059973, 314.79479743 677.58013048 C 319.50125637 680.52966124, 323.35569882 684.76495309, 326.07189803 689.60982143 C 328.78809724 694.45468978, 330.37545991 699.87667035, 331.17477927 705.37317615 C 331.97409864 710.86968195, 332.0 716.44567849, 332.0 722.0 L 332.0 739.0 C 332.0 748.08875049, 332.12353367 757.27486273, 334.3319199 766.09123476 C 336.54030613 774.90760679, 340.88888228 783.25768351, 347.31559938 789.68440062 C 353.74231649 796.11111772, 362.09239321 800.45969387, 370.90876524 802.6680801 C 379.72513727 804.87646633, 388.91124951 805.0, 398.0 805.0 L 431.0 805.0 C 444.67505416 805.0, 458.66670213 805.24296077, 471.63407771 800.9008096 C 478.1177655 798.72973401, 484.28276446 795.31852977, 489.00267678 790.37138875 C 493.7225891 785.42424773, 496.90670405 778.83689055, 497.0 772.0 C 497.09379641 765.12643459, 494.04788461 758.41179849, 489.36450891 753.37983155 C 484.68113322 748.34786461, 478.46367717 744.91002638, 471.91738462 742.81222919 C 458.82479952 738.61663481, 444.73515507 739.60358265, 431.0 739.0 C 426.5239902 738.8033046, 422.02219628 738.4174534, 417.7137162 737.18848952 C 413.40523612 735.95952564, 409.30868117 733.84407399, 406.06232779 730.75626853 C 402.81597441 727.66846307, 400.50397368 723.64730039, 399.29912924 719.3320133 C 398.09428481 715.01672621, 398.0 710.48032954, 398.0 706.0 L 398.0 607.0 C 398.0 593.61686877, 397.64751178 580.05453871, 393.86099101 567.21824399 C 390.07447023 554.38194927, 382.94089397 542.52586703, 373.20310446 533.34525392 C 363.46531495 524.16464081, 351.36370734 517.68400046, 338.59195179 513.68519289 C 325.82019625 509.68638533, 312.38313123 508.0, 299.0 508.0 Z" fill="white" stroke="#222" stroke-width="8"/>
<path d="M 104.3 762.1 L 134 762.1" fill="none" stroke="#222" stroke-linecap="round" stroke-width="8"/>
<path d="M 104.3 781.9 L 134 781.9" fill="none" stroke="#222" stroke-linecap="round" stroke-width="8"/>
<path d="M 493.7 762.1 L 464 762.1" fill="none" stroke="#222" stroke-linecap="round" stroke-width="8"/>
<path d="M 493.7 781.9 L 464 781.9" fill="none" stroke="#222" stroke-linecap="round" stroke-width="8"/>
<path d="M 249.0 574.0 L 249.0 607.0 C 249.0 611.28602415, 249.01412611 615.58691061, 249.59094227 619.83394324 C 250.16775844 624.08097586, 251.3202691 628.28152478, 253.3406869 632.06146062 C 255.3611047 635.84139646, 258.26234906 639.17714323, 261.85500039 641.5144193 C 265.44765172 643.85169537, 269.71397586 645.15814064, 274.00000001 645.15814064 C 278.28602416 645.15814064, 282.5523483 643.85169537, 286.14499962 641.5144193 C 289.73765095 639.17714323, 292.63889531 635.84139645, 294.65931311 632.06146062 C 296.6797309 628.28152478, 297.83224157 624.08097586, 298.40905773 619.83394323 C 298.9858739 615.58691061, 299.0 611.28602415, 299.0 607.0 L 299.0 574.0 L 299.0 607.0 C 299.0 611.20030367, 299.01384358 615.4151724, 299.57912343 619.57726437 C 300.14440327 623.73935634, 301.27386372 627.85589429, 303.25387316 631.56023141 C 305.2338826 635.26456853, 308.07710208 638.53360037, 311.59790038 640.82413091 C 315.11869869 643.11466146, 319.29969634 644.39497783, 323.50000001 644.39497783 C 327.70030367 644.39497783, 331.88130133 643.11466146, 335.40209963 640.82413091 C 338.92289793 638.53360036, 341.76611741 635.26456852, 343.74612685 631.5602314 C 345.72613629 627.85589428, 346.85559674 623.73935634, 347.42087658 619.57726437 C 347.98615642 615.4151724, 348.0 611.20030367, 348.0 607.0 L 348.0 574.0" fill="none" stroke="black" stroke-width="6.8"/>
<path d="M 266 623.5 L 266 640.0" fill="none" stroke="black" stroke-linecap="round" stroke-width="6.8"/>
<path d="M 282.5 623.5 L 282.5 640.0" fill="none" stroke="black" stroke-linecap="round" stroke-width="6.8"/>
<path d="M 332 623.5 L 332 640.0" fill="none" stroke="black" stroke-linecap="round" stroke-width="6.8"/>
<path d="M 315.5 623.5 L 315.5 640.0" fill="none" stroke="black" stroke-linecap="round" stroke-width="6.8"/>
<path d="M 0.0 800.0 L 9.0 800.0 C 9.74900115 782.31771923, 9.07948516 764.57554544, 7.0 747.0 C 4.83912128 728.73652647, 1.15553195 710.65345158, -4.0 693.0 C -3.3396725 711.00023404, -2.67300578 729.00023553, -2.0 747.0 C -1.33944005 764.6668964, -0.67277333 782.33356448, 0.0 800.0 Z" fill="green"/>
<path d="M 15.0 800.0 L 24.0 800.0 C 31.09922431 782.83631457, 36.79118273 765.09079712, 41.0 747.0 C 45.05276955 729.57994417, 47.73047166 711.84016771, 49.0 694.0 L 32.0 747.0 L 15.0 800.0 Z" fill="green"/>
<path d="M 36.0 800.0 L 45.0 800.0 C 46.21846809 785.35277576, 45.88264919 770.5767443, 44.0 756.0 C 42.01798393 740.65389007, 38.32101129 725.5299111, 33.0 711.0 C 33.83121611 725.9920836, 34.49793628 740.9932874, 35.0 756.0 C 35.49054881 770.66253146, 35.82390768 785.3303218, 36.0 800.0 Z" fill="green"/>
<path d="M 51.0 800.0 L 60.0 800.0 C 65.30683674 780.68682666, 68.99069196 760.92796683, 71.0 741.0 C 73.00902845 721.0748061, 73.34392394 700.98107644, 72.0 681.0 C 68.85981438 701.03155293, 65.52627401 721.03279514, 62.0 741.0 C 58.52074011 760.70099167, 54.85385174 780.36884749, 51.0 800.0 Z" fill="green"/>
<path d="M 70.0 800.0 L 79.0 800.0 C 83.15716148 783.95705433, 85.83878984 767.53208058, 87.0 751.0 C 88.14623391 734.68113531, 87.81107832 718.25851138, 86.0 702.0 L 78.0 751.0 L 70.0 800.0 Z" fill="green"/>
<path d="M 90.0 800.0 L 99.0 800.0 C 99.73667185 783.98254822, 99.06659272 767.90064909, 97.0 752.0 C 94.83946547 735.37654974, 91.15228416 718.95183299, 86.0 703.0 C 86.65966262 719.33361821, 87.32632937 735.66695355, 88.0 752.0 C 88.65994535 768.00027911, 89.3266121 784.00028099, 90.0 800.0 Z" fill="green"/>
<path d="M 106.0 800.0 L 115.0 800.0 C 116.64180365 779.37682775, 116.64180365 758.62317225, 115.0 738.0 C 113.33693243 717.10972548, 109.9892027 696.35380112, 105.0 676.0 C 105.49998916 696.66353054, 105.83333695 717.33109323, 106.0 738.0 C 106.16664138 758.66621877, 106.16664138 779.33378123, 106.0 800.0 Z" fill="green"/>
<path d="M 118.0 800.0 L 127.0 800.0 C 128.48646843 776.03069658, 128.48646843 751.96930342, 127.0 728.0 C 125.50194856 703.84392053, 122.49415432 679.78156661, 118.0 656.0 L 118.0 728.0 L 118.0 800.0 Z" fill="green"/>
<path d="M 140.0 800.0 L 149.0 800.0 C 153.47669349 781.94939654, 156.48979015 763.53602805, 158.0 745.0 C 159.51750171 726.3744731, 159.51750171 707.6255269, 158.0 689.0 C 155.02680913 707.67096211, 152.026805 726.33765444, 149.0 745.0 C 146.02587215 763.33755446, 143.02586817 781.67091213, 140.0 800.0 Z" fill="green"/>
<path d="M 162.0 800.0 L 171.0 800.0 C 171.12936663 777.94380953, 169.79211339 755.87913108, 167.0 734.0 C 164.15937795 711.74075278, 159.81285828 689.67380675, 154.0 668.0 L 158.0 734.0 L 162.0 800.0 Z" fill="green"/>
<path d="M 177.0 800.0 L 186.0 800.0 C 185.59667392 778.88858859, 183.58900014 757.80801388, 180.0 737.0 C 176.31354869 715.62699164, 170.95862512 694.54198008, 164.0 674.0 C 166.49832681 694.98122969, 168.83175622 715.98209442, 171.0 737.0 C 173.16473326 757.98387625, 175.16481534 778.98473817, 177.0 800.0 Z" fill="green"/>
<path d="M 192.0 800.0 L 201.0 800.0 C 198.37633145 783.37004781, 194.35764395 766.96040719, 189.0 751.0 C 183.19747387 733.71428995, 175.82395088 716.95628316, 167.0 701.0 C 171.4529746 717.63525392, 175.78645699 734.30249387, 180.0 751.0 C 184.11449808 767.30500907, 188.11462928 783.63887811, 192.0 800.0 Z" fill="green"/>
<path d="M 213.0 800.0 L 222.0 800.0 C 223.81840457 780.0615626, 224.15296461 759.98796022, 223.0 740.0 C 221.83697473 719.83762667, 219.16032234 699.76273372, 215.0 680.0 L 214.0 740.0 L 213.0 800.0 Z" fill="green"/>
<path d="M 231.0 800.0 L 240.0 800.0 C 247.61069289 779.16406476, 253.6338323 757.74845795, 258.0 736.0 C 262.23556419 714.90209537, 264.91190876 693.49133874, 266.0 672.0 C 260.48819463 693.37406772, 254.82132915 714.70814953, 249.0 736.0 C 243.1554844 757.37665626, 237.15527221 778.71074404, 231.0 800.0 Z" fill="green"/>
<path d="M 249.0 800.0 L 258.0 800.0 C 260.45647956 782.79177726, 261.46120417 765.37655065, 261.0 748.0 C 260.52768201 730.20471985, 258.51777167 712.45051181, 255.0 695.0 C 254.00967516 712.66721255, 253.00967496 730.33388274, 252.0 748.0 C 251.00931408 765.33386901, 250.00931389 782.66720568, 249.0 800.0 Z" fill="green"/>
<path d="M 263.0 800.0 L 272.0 800.0 C 268.97034687 784.98945524, 264.61456823 770.24681985, 259.0 756.0 C 252.81384067 740.30278272, 245.09896062 725.20845218, 236.0 711.0 C 240.77555851 725.9658331, 245.44238938 740.96636089, 250.0 756.0 C 254.43699347 770.6357739, 258.77047132 785.30292968, 263.0 800.0 Z" fill="green"/>
<path d="M 287.0 800.0 L 296.0 800.0 C 297.47697901 781.70634688, 297.47697901 763.29365312, 296.0 745.0 C 294.50333373 726.4625032, 291.48999882 708.04767875, 287.0 690.0 L 287.0 745.0 L 287.0 800.0 Z" fill="green"/>
<path d="M 304.0 800.0 L 313.0 800.0 C 314.11233069 777.67627836, 313.77806656 755.28058138, 312.0 733.0 C 310.17612273 710.1453741, 306.83299544 687.41210852, 302.0 665.0 C 302.3308279 687.66670342, 302.66416123 710.33337027, 303.0 733.0 C 303.33090104 755.33336955, 303.66423437 777.66670306, 304.0 800.0 Z" fill="green"/>
<path d="M 320.0 800.0 L 329.0 800.0 C 335.75839881 785.2129575, 341.12314301 769.78931792, 345.0 754.0 C 348.70335578 738.91730236, 351.04922823 723.50156912, 352.0 708.0 L 336.0 754.0 L 320.0 800.0 Z" fill="green"/>
<path d="M 338.0 800.0 L 347.0 800.0 C 346.17563364 781.18574994, 343.83219877 762.43827101, 340.0 744.0 C 335.96052946 724.56445997, 330.26660367 705.47306173, 323.0 687.0 C 325.81133482 705.97932102, 328.47810463 724.9800559, 331.0 744.0 C 333.472697 762.64889374, 335.8061171 781.31625449, 338.0 800.0 Z" fill="green"/>
<path d="M 357.0 800.0 L 366.0 800.0 C 366.80712576 778.32139757, 366.13840494 756.58797071, 364.0 735.0 C 361.83216993 713.11497189, 358.15389222 691.37969452, 353.0 670.0 L 355.0 735.0 L 357.0 800.0 Z" fill="green"/>
<path d="M 372.0 800.0 L 381.0 800.0 C 384.31524851 787.28304673, 386.0 774.14198513, 386.0 761.0 C 386.0 747.85801487, 384.31524851 734.71695327, 381.0 722.0 C 379.83096598 735.01615237, 378.49749079 748.01753551, 377.0 761.0 C 375.49813105 774.02042086, 373.83128602 787.0218121, 372.0 800.0 Z" fill="green"/>
<path d="M 390.0 800.0 L 399.0 800.0 C 399.60321832 782.6236192, 398.59753195 765.19172213, 396.0 748.0 C 393.32674532 730.30710825, 388.96731258 712.86937728, 383.0 696.0 C 384.49930947 713.32003277, 385.83272434 730.65442617, 387.0 748.0 C 388.16577263 765.3232391, 389.16583364 782.65762977, 390.0 800.0 Z" fill="green"/>
<path d="M 412.0 800.0 L 421.0 800.0 C 427.45398868 782.44671831, 432.47607998 764.36718965, 436.0 746.0 C 439.41602726 728.19516333, 441.42433074 710.120432, 442.0 692.0 L 427.0 746.0 L 412.0 800.0 Z" fill="green"/>
<path d="M 423.0 800.0 L 432.0 800.0 C 437.15730385 774.91244379, 440.83248419 749.52028869, 443.0 724.0 C 445.14588094 698.73443988, 445.81406479 673.34345343, 445.0 648.0 L 434.0 724.0 L 423.0 800.0 Z" fill="green"/>
<path d="M 444.0 800.0 L 453.0 800.0 C 451.71590909 777.86166227, 449.04225486 755.80401483, 445.0 734.0 C 440.79700662 711.32895793, 435.11428666 688.93235572, 428.0 667.0 C 430.64660457 689.33572271, 433.31327267 711.66906806, 436.0 734.0 C 438.6471948 756.0023544, 441.31386285 778.00236589, 444.0 800.0 Z" fill="green"/>
<path d="M 459.0 800.0 L 468.0 800.0 C 472.99175895 776.60669584, 476.33608035 752.86201392, 478.0 729.0 C 479.64763089 705.37158073, 479.64763089 681.62841927, 478.0 658.0 C 475.16362902 681.68702543, 472.16353347 705.35444587, 469.0 729.0 C 465.83060432 752.68937069, 462.49716443 776.35679392, 459.0 800.0 Z" fill="green"/>
<path d="M 482.0 800.0 L 491.0 800.0 C 491.28988126 776.94412329, 489.95213116 753.86793396, 487.0 731.0 C 483.99267017 707.70448351, 479.3099611 684.6254174, 473.0 662.0 C 474.83267375 684.98756887, 476.49939832 707.98836794, 478.0 731.0 C 479.49919006 753.98998499, 480.83256963 776.99078256, 482.0 800.0 Z" fill="green"/>
<path d="M 499.0 800.0 L 508.0 800.0 C 511.81556543 775.50362084, 514.15453843 750.77733493, 515.0 726.0 C 515.85339148 700.99026901, 515.18508311 675.928705, 513.0 651.0 C 510.68239872 676.001465, 508.34906477 701.0014716, 506.0 726.0 C 503.6819838 750.66811239, 501.34864987 775.33478539, 499.0 800.0 Z" fill="green"/>
<path d="M 514.0 800.0 L 523.0 800.0 C 526.82568763 783.92667372, 529.17212877 767.50158577, 530.0 751.0 C 530.82021188 734.65108464, 530.14986914 718.22768756, 528.0 702.0 L 521.0 751.0 L 514.0 800.0 Z" fill="green"/>
<path d="M 533.0 800.0 L 542.0 800.0 C 540.37717783 777.17929558, 537.36983232 754.45712955, 533.0 732.0 C 528.45690376 708.65244492, 522.44102434 685.59157383, 515.0 663.0 C 517.97815905 686.00284179, 520.97816086 709.00285561, 524.0 732.0 C 526.97878228 754.66946816, 529.97878403 777.33614806, 533.0 800.0 Z" fill="green"/>
<path d="M 549.0 800.0 L 558.0 800.0 C 563.3089587 784.77928588, 567.00295595 768.99584308, 569.0 753.0 C 570.94475096 737.42301204, 571.28044038 721.64560905, 570.0 706.0 C 566.82516014 721.69983081, 563.4915997 737.3675649, 560.0 753.0 C 556.49255792 768.70336393, 552.82563915 784.37110772, 549.0 800.0 Z" fill="green"/>
<path d="M 571.0 800.0 L 580.0 800.0 C 581.29291988 782.01884893, 580.95777366 763.92095304, 579.0 746.0 C 577.00225054 727.71311877, 573.31481895 709.61118189, 568.0 692.0 C 568.83322386 709.99331666, 569.49992859 727.99434436, 570.0 746.0 C 570.49981445 763.99640352, 570.8331668 781.99743016, 571.0 800.0 Z" fill="green"/>
</svg>
