<svg version="1.1"
     xmlns="http://www.w3.org/2000/svg"
     width="610.0"
     height="805.0">

<rect x="0" y="0" width="600" height="800" fill="skyblue"/>
<circle cx="0" cy="0" r="200" fill="yellow"/>
<path d="M 0.0 800.0 L 8.0 800.0 C 5.055573334185301 769.8211674457687, 0.7160745302122233 739.7784834182628, -5.0 710.0 C -10.885137582000734 679.3407650698883, -18.22953121125987 648.9616823306801, -27.0 619.0 C -22.19301149101285 649.311523754757, -17.526278215401632 679.6452900462299, -13.0 710.0 C -8.529597663215377 739.9799879397631, -4.1962039963728275 769.9804056332885, 0.0 800.0 Z" fill="green"/>
<path d="M 8.0 800.0 L 16.0 800.0 C 22.324375257390756 759.1760203157309, 27.32786269383866 718.1474233368581, 31.0 677.0 C 34.651022836855056 636.0891707593433, 36.98596497742545 595.0609017178922, 38.0 554.0 L 23.0 677.0 L 8.0 800.0 Z" fill="green"/>
<path d="M 16.0 800.0 L 24.0 800.0 C 28.996887931964086 746.1013094943895, 32.6650396542652 692.0794386750458, 35.0 638.0 C 37.344375237290755 583.7025053517712, 38.34478352533955 529.3469883677865, 38.0 475.0 C 34.34463314151044 529.3340951101676, 30.677966369116874 583.6674300101815, 27.0 638.0 C 23.34449523217239 692.000757134111, 19.677828461066238 746.00075867222, 16.0 800.0 Z" fill="green"/>
<path d="M 24.0 800.0 L 32.0 800.0 C 34.665951644351935 753.0504171852382, 36.0 706.0252126486441, 36.0 659.0 C 36.0 611.9747873513559, 34.66595164435195 564.9495828147618, 32.0 518.0 L 28.0 659.0 L 24.0 800.0 Z" fill="green"/>
<path d="M 32.0 800.0 L 40.0 800.0 C 39.82665919405873 742.6362262725017, 38.15923908029582 685.2769743590577, 35.0 628.0 C 31.8316492539291 570.5578312274448, 27.162860748257017 513.1984295863307, 21.0 456.0 C 23.166505793107113 513.3273635974896, 25.166517039483807 570.6610193269549, 27.0 628.0 C 28.83314247702382 685.32833264587, 30.499818512190586 742.6619882556064, 32.0 800.0 Z" fill="green"/>
<path d="M 40.0 800.0 L 48.0 800.0 C 49.83012391827985 756.6954195935475, 50.16372245366152 713.3276099939291, 49.0 670.0 C 47.83410975890755 626.591679138921, 45.165313563547045 583.2237409643126, 41.0 540.0 C 41.16666091409857 583.3331196726589, 41.166660914098564 626.6668803273411, 41.0 670.0 C 40.833334155153786 713.3344017049765, 40.49999753453865 756.6681623849443, 40.0 800.0 Z" fill="green"/>
<path d="M 48.0 800.0 L 56.0 800.0 C 57.14260596593045 757.3388206128611, 56.80900674171169 714.6381199128605, 55.0 672.0 C 53.17143861939124 628.9009790750422, 49.835388578325166 585.8659335452899, 45.0 543.0 C 45.83265541795181 585.9972128874584, 46.49932870763207 628.9976400718349, 47.0 672.0 C 47.49674556306459 714.665181369985, 47.83008215617767 757.3322652884584, 48.0 800.0 Z" fill="green"/>
<path d="M 56.0 800.0 L 64.0 800.0 C 70.16001669429782 756.844886954875, 74.83038765660365 713.4771565906066, 78.0 670.0 C 81.15371447317999 626.7409124089965, 82.82169086361048 583.3735262578032, 83.0 540.0 C 78.83151014478861 583.3496066182652, 74.49813501682551 626.6833578978961, 70.0 670.0 C 65.49830876307264 713.3508881869393, 60.831597015607414 756.6846401276878, 56.0 800.0 Z" fill="green"/>
<path d="M 64.0 800.0 L 72.0 800.0 C 79.4907294351994 747.5174423186863, 85.49394120499848 694.8225834504501, 90.0 642.0 C 94.48435072766055 589.4318908586597, 97.48594117621904 536.7373029839664, 99.0 484.0 C 93.49794108905928 536.6842041893331, 87.83123752732884 589.3512137630631, 82.0 642.0 C 76.16472288707155 694.6852586457048, 70.16468376756612 747.3522686946969, 64.0 800.0 Z" fill="green"/>
<path d="M 72.0 800.0 L 80.0 800.0 C 77.11571426726496 748.5580552505312, 72.78008250484241 697.1974943726026, 67.0 646.0 C 61.14488114222611 594.1378657621825, 53.80755650867275 542.4430785712383, 45.0 491.0 C 49.81862306477406 542.6527913580495, 54.48531664739549 594.3197560227868, 59.0 646.0 C 63.48325947282896 697.320530206241, 67.81661745283294 748.6541555078265, 72.0 800.0 Z" fill="green"/>
<path d="M 80.0 800.0 L 88.0 800.0 C 90.49899751641016 742.0387667942169, 91.49944297052495 684.0129304555578, 91.0 626.0 C 90.50033439514362 567.9612093947393, 88.49944269242965 509.9353500160341, 85.0 452.0 C 84.49996009904997 510.00175566655287, 83.83328976427879 568.0020747916464, 83.0 626.0 C 82.16664143967922 684.0027134919354, 81.1666359366139 742.0030326697248, 80.0 800.0 Z" fill="green"/>
<path d="M 88.0 800.0 L 96.0 800.0 C 101.99330331440838 757.1578116799025, 106.66293810021105 714.1304625821492, 110.0 671.0 C 113.32116318042186 628.0750233037462, 115.32242313876021 585.0479341994716, 116.0 542.0 L 102.0 671.0 L 88.0 800.0 Z" fill="green"/>
<path d="M 96.0 800.0 L 104.0 800.0 C 106.99180184557673 749.7221944033771, 108.65923913011282 699.3655884103874, 109.0 649.0 C 109.34289693467667 598.3186941187608, 108.3424287487582 547.628306032224, 106.0 497.0 C 104.33886427313112 547.666848404, 102.6721975932238 598.3335154731827, 101.0 649.0 C 99.33879177620234 699.3335138789436, 97.67212509646848 749.6668476069065, 96.0 800.0 Z" fill="green"/>
<path d="M 104.0 800.0 L 112.0 800.0 C 114.31782756528118 764.3865377938355, 115.31873840202995 728.687384616463, 115.0 693.0 C 114.67806317545478 656.9545056178429, 113.00984782546392 620.9210540580405, 110.0 585.0 C 109.0046909668459 621.0001301007263, 108.0046909555264 657.0001305082285, 107.0 693.0 C 106.00460453259765 728.6667955674093, 105.00460452148664 764.3334626303688, 104.0 800.0 Z" fill="green"/>
<path d="M 112.0 800.0 L 120.0 800.0 C 119.32744901805879 741.2980982662392, 117.32676670580555 682.6114171068109, 114.0 624.0 C 110.66466098455606 565.2375548048932, 105.99639404036063 506.5507703635794, 100.0 448.0 L 106.0 624.0 L 112.0 800.0 Z" fill="green"/>
<path d="M 120.0 800.0 L 128.0 800.0 C 129.4694481314345 768.0224956397799, 129.46944813143446 735.9775043602201, 128.0 704.0 C 126.50885225560569 671.5502779049757, 123.50450881119097 639.1701318929504, 119.0 607.0 C 119.50085907580973 639.3313168936487, 119.83419837490436 671.6652289058285, 120.0 704.0 C 120.16408359558416 735.9997195471507, 120.16408359558415 768.0002804528493, 120.0 800.0 Z" fill="green"/>
<path d="M 128.0 800.0 L 136.0 800.0 C 141.4972703495491 746.4589529903418, 145.49934901803215 692.7643975215276, 148.0 639.0 C 150.49416501127396 585.3750518895312, 151.4946819860169 531.6806409116606, 151.0 478.0 C 147.4991285234888 531.677822782191, 143.83243853008724 585.3448308674322, 140.0 639.0 C 136.16586945484315 692.6788577981581, 132.1658439850211 746.3458661849373, 128.0 800.0 Z" fill="green"/>
<path d="M 136.0 800.0 L 144.0 800.0 C 144.494113718309 748.9852952009325, 143.49354172064116 697.9561233198724, 141.0 647.0 C 138.4992791659055 595.8971697742729, 134.4969779808798 544.8678296651949, 129.0 494.0 C 130.49991994120572 544.9954632804048, 131.83326275899296 595.9958260607665, 133.0 647.0 C 134.16656290162686 697.9965526550582, 135.16657001284162 748.9969153270112, 136.0 800.0 Z" fill="green"/>
<path d="M 144.0 800.0 L 152.0 800.0 C 149.4465572502664 752.5592391620695, 145.44407076452632 705.1964824141452, 140.0 658.0 C 134.4784458050757 610.1317876399484, 127.47396970332335 562.4346408518252, 119.0 515.0 C 123.48530897516645 562.6526878181546, 127.8186716804965 610.3196775767851, 132.0 658.0 C 136.1497751770413 705.3205171433839, 140.14980188200286 752.6541664854293, 144.0 800.0 Z" fill="green"/>
<path d="M 152.0 800.0 L 160.0 800.0 C 159.64041280088085 751.3002792045329, 157.9729450965248 702.6102222373368, 155.0 654.0 C 151.99676323742165 604.8944828375994, 147.66130454610226 555.8704499434494, 142.0 507.0 C 143.66094610247546 556.0001943541383, 145.32761278428615 605.0001947993733, 147.0 654.0 C 148.6610236237332 702.6668597031972, 150.32769030533882 751.3335268060811, 152.0 800.0 Z" fill="green"/>
<path d="M 160.0 800.0 L 168.0 800.0 C 169.4952553214481 759.3516611203055, 169.4952553214481 718.6483388796945, 168.0 678.0 C 166.50067970591618 637.2411553204844, 163.49796088225148 596.5376334885852, 159.0 556.0 C 159.49999720060154 596.6650728696882, 159.83333426646615 637.332194905172, 160.0 678.0 C 160.1666601349626 718.6664389975545, 160.1666601349626 759.3335610024455, 160.0 800.0 Z" fill="green"/>
<path d="M 168.0 800.0 L 176.0 800.0 C 180.99804256170876 744.431700563103, 184.66610902257656 688.7437824753828, 187.0 633.0 C 189.32921929908065 577.3677981527848, 190.32959953428414 521.6799650597907, 190.0 466.0 L 179.0 633.0 L 168.0 800.0 Z" fill="green"/>
<path d="M 176.0 800.0 L 184.0 800.0 C 185.30656057012973 769.0183580937795, 185.3065605701297 737.9816419062205, 184.0 707.0 C 182.67460497318828 675.5717485712207, 180.0046881992912 644.20022647793, 176.0 613.0 L 176.0 707.0 L 176.0 800.0 Z" fill="green"/>
<path d="M 184.0 800.0 L 192.0 800.0 C 195.9911506977547 767.1249050957176, 198.6606876853172 734.0893848746316, 200.0 701.0 C 201.34845021682298 667.6848518306166, 201.34845021682298 634.3151481693834, 200.0 601.0 C 197.34678179372833 634.3344073900181, 194.68011483769013 667.6677443404953, 192.0 701.0 C 189.34651502029294 734.0010634202822, 186.67984806997663 767.0010669304465, 184.0 800.0 Z" fill="green"/>
<path d="M 192.0 800.0 L 200.0 800.0 C 198.12173750491033 768.8664961038306, 194.78352396575076 737.8211101896467, 190.0 707.0 C 185.14559633486064 675.7221990859614, 178.80271374623055 644.6754579942458, 171.0 614.0 C 174.83129821305346 644.980231813946, 178.49803385057996 675.9808149312156, 182.0 707.0 C 185.4977708212037 737.9820243262717, 188.8311667051783 768.9826060472357, 192.0 800.0 Z" fill="green"/>
<path d="M 200.0 800.0 L 208.0 800.0 C 214.49370892165388 750.8333185638796, 219.49677121135886 701.4697706387906, 223.0 652.0 C 226.48823190663015 602.7420032298724, 228.48944635690253 553.378713456487, 229.0 504.0 C 224.49837811385737 553.3487600169742, 219.83167663375372 602.68246137807, 215.0 652.0 C 210.1651542891199 701.3498857956799, 205.16511694006277 750.6835876397103, 200.0 800.0 Z" fill="green"/>
<path d="M 208.0 800.0 L 216.0 800.0 C 214.4882546831839 742.268736321734, 211.48692372135267 684.5764856109781, 207.0 627.0 C 202.49494287173724 569.1908253782706, 196.4922593878925 511.4983674502073, 189.0 454.0 C 192.49951554099127 511.65690057436, 195.83286733107806 569.3238865428614, 199.0 627.0 C 202.16613055082183 684.657864055146, 205.16614715138974 742.3248498216176, 208.0 800.0 Z" fill="green"/>
<path d="M 216.0 800.0 L 224.0 800.0 C 223.44582643418164 766.6008627741352, 221.44332196704102 733.2257883217915, 218.0 700.0 C 214.4903690277053 666.1343734657278, 209.48386436017964 632.4239087043883, 203.0 599.0 C 205.49015279944757 632.6555532796242, 207.82351989098566 666.3227070289596, 210.0 700.0 C 212.153639774057 733.3238780012789, 214.153668105537 766.6576835259455, 216.0 800.0 Z" fill="green"/>
<path d="M 224.0 800.0 L 232.0 800.0 C 232.13219560955838 759.3028944964044, 230.79770867747806 718.6010430679551, 228.0 678.0 C 225.16515580807044 636.8600371246562, 220.82797307910076 595.8236159197891, 215.0 555.0 C 216.82832263271285 595.9932157846416, 218.49500657446126 636.993640751652, 220.0 678.0 C 221.49232727518248 718.6612463043382, 222.82567419693817 759.3283274178874, 224.0 800.0 Z" fill="green"/>
<path d="M 232.0 800.0 L 240.0 800.0 C 240.6606950188828 760.6591000037306, 239.9935223622263 721.2959132609964, 238.0 682.0 C 235.99961655183333 642.5688423880508, 232.6637358226429 603.2054497836037, 228.0 564.0 L 230.0 682.0 L 232.0 800.0 Z" fill="green"/>
<path d="M 240.0 800.0 L 248.0 800.0 C 253.8269773623072 760.5155299499579, 258.16441848699037 720.8112611932427, 261.0 681.0 C 263.8203961379586 641.401939848484, 265.1549799045765 601.6980727916012, 265.0 562.0 C 261.16479789433635 601.683054463702, 257.1647518792901 641.3501774462436, 253.0 681.0 C 248.83161044348046 720.6844544504058, 244.49822717339387 760.3515782304291, 240.0 800.0 Z" fill="green"/>
<path d="M 248.0 800.0 L 256.0 800.0 C 256.6476165971727 749.9939917135611, 255.98064290534398 699.9709648264054, 254.0 650.0 C 252.001958848139 599.590083173515, 248.66706329975057 549.2331603928499, 244.0 499.0 C 244.66443745619932 549.3333628263842, 245.33110412373776 599.6666962255372, 246.0 650.0 C 246.66446688181682 700.0000292981986, 247.33113354934378 750.0000293627193, 248.0 800.0 Z" fill="green"/>
<path d="M 256.0 800.0 L 264.0 800.0 C 266.9918588200207 749.3884983640642, 268.6592860573581 698.6987103490076, 269.0 648.0 C 269.342836456824 596.9854565773794, 268.34237441078005 545.9618922291381, 266.0 495.0 C 264.33882784525485 546.0001793616848, 262.67216116569165 597.00017975632, 261.0 648.0 C 259.3387562944738 698.6668448598604, 257.6720896150784 749.3335119134802, 256.0 800.0 Z" fill="green"/>
<path d="M 264.0 800.0 L 272.0 800.0 C 278.3286834216041 743.1269691757121, 283.3304971843028 686.1062922809464, 287.0 629.0 C 290.65852547600184 572.06454153513, 292.99270017516375 515.0439881698884, 294.0 458.0 L 279.0 629.0 L 264.0 800.0 Z" fill="green"/>
<path d="M 272.0 800.0 L 280.0 800.0 C 277.3188809174099 743.9161896252178, 273.3174033979128 687.8955043522592, 268.0 632.0 C 262.658653240542 575.8528077148708, 255.98950181389424 519.8319357310297, 248.0 464.0 L 260.0 632.0 L 272.0 800.0 Z" fill="green"/>
<path d="M 280.0 800.0 L 288.0 800.0 C 288.79344282301884 768.9915221775514, 288.1257907032184 737.9456986068305, 286.0 707.0 C 283.8371615512318 675.5149875434521, 280.16488430044956 644.1337092185852, 275.0 613.0 C 276.1638497047498 644.3278181607327, 277.16386793682005 675.6617227656002, 278.0 707.0 C 278.8270071568557 737.9962752269191, 279.4936857143885 768.9968281521939, 280.0 800.0 Z" fill="green"/>
<path d="M 288.0 800.0 L 296.0 800.0 C 301.49622665003875 742.1161312284785, 305.4980034657822 684.0903674001988, 308.0 626.0 C 310.5107836521963 567.7056167649351, 311.51123098187713 509.34618920022046, 311.0 451.0 C 307.51120716583335 509.34433248812724, 303.84451777355986 567.678027365206, 300.0 626.0 C 296.17591832558134 684.0119536193873, 292.1758937968763 742.0123092856097, 288.0 800.0 Z" fill="green"/>
<path d="M 296.0 800.0 L 304.0 800.0 C 304.97161588126295 767.3373929145392, 304.63792798506176 734.6359790868248, 303.0 702.0 C 301.33860891478673 668.896514861114, 298.3353257609008 635.860400168369, 294.0 603.0 C 294.3316241969274 636.0000172344945, 294.66495753085684 669.0000172935077, 295.0 702.0 C 295.3316585487994 734.6666837276804, 295.66499188271683 767.3333504515899, 296.0 800.0 Z" fill="green"/>
<path d="M 304.0 800.0 L 312.0 800.0 C 311.9896959419764 762.9681009680892, 310.6552269519621 725.9365864951924, 308.0 689.0 C 305.33102831327426 651.872211926323, 301.32758597665594 614.8403703126035, 296.0 578.0 L 300.0 689.0 L 304.0 800.0 Z" fill="green"/>
<path d="M 312.0 800.0 L 320.0 800.0 C 321.83136310643806 744.6892121976608, 322.1648593405496 689.3288373351523, 321.0 634.0 C 319.833809560276 578.6079377181637, 317.1658367071566 523.2475010159359, 313.0 468.0 C 313.1666631385828 523.3331660043059, 313.1666631385828 578.6668339956941, 313.0 634.0 C 312.8333338373547 689.3341700112614, 312.49999848793584 744.6678380147945, 312.0 800.0 Z" fill="green"/>
<path d="M 320.0 800.0 L 328.0 800.0 C 325.2979273337132 741.2544451172141, 321.2966233733269 682.568653698215, 316.0 624.0 C 310.6517933013014 564.8609515979608, 303.9829108292852 505.8413417206169, 296.0 447.0 C 299.9886567055337 506.000768306627, 303.98865680410245 565.0007697605164, 308.0 624.0 C 311.98878422389623 682.6674306606208, 315.98878432135945 741.3340987567482, 320.0 800.0 Z" fill="green"/>
<path d="M 328.0 800.0 L 336.0 800.0 C 340.6648271642976 750.4346623579873, 343.99975960651733 700.744168968913, 346.0 651.0 C 347.9959294624101 601.363039986763, 348.6629145737099 551.6726491949298, 348.0 502.0 L 338.0 651.0 L 328.0 800.0 Z" fill="green"/>
<path d="M 336.0 800.0 L 344.0 800.0 C 346.65412077696215 761.727808190213, 347.98851029966687 723.3641094124524, 348.0 685.0 C 348.01158953061866 646.3025572641803, 346.67718157291836 607.6047264908701, 344.0 569.0 C 342.67248186886485 607.6668668990126, 341.33914851542664 646.3335341487216, 340.0 685.0 C 338.6723820982031 723.3335318465557, 337.3390487451096 761.6668657479943, 336.0 800.0 Z" fill="green"/>
<path d="M 344.0 800.0 L 352.0 800.0 C 349.77084914704204 759.5531670202424, 346.10108379671897 719.1857481666884, 341.0 679.0 C 335.8094710476669 638.1096132424788, 329.13697108290444 597.4073634574276, 321.0 557.0 C 325.1508217159168 597.6516434415499, 329.1508584040295 638.3186831040291, 333.0 679.0 C 336.81492388330304 719.3196722077273, 340.481623585462 759.6533689314758, 344.0 800.0 Z" fill="green"/>
<path d="M 352.0 800.0 L 360.0 800.0 C 366.6535234669406 763.2063823098854, 371.9913994269978 726.1748678369886, 376.0 689.0 C 379.9778723901861 652.1100984783761, 382.6467756789752 615.0790653464283, 384.0 578.0 L 368.0 689.0 L 352.0 800.0 Z" fill="green"/>
<path d="M 360.0 800.0 L 368.0 800.0 C 364.95542491972947 747.9033098973374, 360.6203194895532 695.8820447352224, 355.0 644.0 C 349.31297625776926 591.5021979171967, 342.31004528426 539.1469520676275, 334.0 487.0 C 338.3194957569082 539.3344778919638, 342.65282929221195 591.6678136644784, 347.0 644.0 C 351.31967087212604 696.0011373335853, 355.6530044048826 748.0011397266638, 360.0 800.0 Z" fill="green"/>
<path d="M 368.0 800.0 L 376.0 800.0 C 378.32217231669296 751.7060884076425, 379.32267140450074 703.3486324969339, 379.0 655.0 C 378.67498177166283 606.2997226977916, 377.0074711476359 557.6084124762051, 374.0 509.0 C 373.0034586518566 557.6667376528876, 372.00345864848947 606.3334044834208, 371.0 655.0 C 370.00341144528375 703.3334038346638, 369.00341144196256 751.6667373285205, 368.0 800.0 Z" fill="green"/>
<path d="M 376.0 800.0 L 384.0 800.0 C 381.10586712502186 754.5444353374585, 376.76962783000386 709.1807011741935, 371.0 664.0 C 365.140166143258 618.1129150419213, 357.8017600403454 572.4146588556023, 349.0 527.0 C 353.81651996887126 572.6511875291785, 358.4832201434177 618.3181820943832, 363.0 664.0 C 367.4809127255547 709.3190648380724, 371.81427668115816 754.6527185274624, 376.0 800.0 Z" fill="green"/>
<path d="M 384.0 800.0 L 392.0 800.0 C 395.4984098953765 765.7758649620447, 397.5009541490749 731.3988552735543, 398.0 697.0 C 398.4984121563327 662.6448248182271, 397.4971432585668 628.2679259949311, 395.0 594.0 C 393.49949489321256 628.3411307834691, 391.83280220582424 662.6750001436686, 390.0 697.0 C 388.16625009007845 731.3427486035235, 386.1662188329126 765.676618518204, 384.0 800.0 Z" fill="green"/>
<path d="M 392.0 800.0 L 400.0 800.0 C 403.99782548088547 767.1256253175334, 406.6673915063715 734.0897457521439, 408.0 701.0 C 409.3282764125623 668.0178233214028, 409.3282764125622 634.9821766785972, 408.0 602.0 L 400.0 701.0 L 392.0 800.0 Z" fill="green"/>
<path d="M 400.0 800.0 L 408.0 800.0 C 414.98931962756643 755.5144321268364, 420.6593073516077 710.8215877138052, 425.0 666.0 C 429.31587173232674 621.4347107520581, 432.31760988796947 576.7421648791559, 434.0 532.0 L 417.0 666.0 L 400.0 800.0 Z" fill="green"/>
<path d="M 408.0 800.0 L 416.0 800.0 C 414.4297387926129 766.5585469273484, 411.42606830817385 733.1844304335808, 407.0 700.0 C 402.4774517235176 666.0922113682063, 396.4697871865449 632.3825381329706, 389.0 599.0 C 392.48444537452104 632.6514767065172, 395.8178234910079 666.3185956830345, 399.0 700.0 C 402.1480117743557 733.3197913651325, 405.1480512183906 766.6535629655203, 408.0 800.0 Z" fill="green"/>
<path d="M 416.0 800.0 L 424.0 800.0 C 422.121602171469 751.5809752174599, 418.7862578607032 703.2184827113558, 414.0 655.0 C 409.1515933892366 606.1554084333497, 402.8143393220108 557.4586140220358, 395.0 509.0 C 398.8215883154193 557.6548291394769, 402.48827975693024 606.321824635894, 406.0 655.0 C 409.48607121823983 703.3226380085739, 412.8194267463576 751.6562931662814, 416.0 800.0 Z" fill="green"/>
<path d="M 424.0 800.0 L 432.0 800.0 C 435.9988471957447 754.7581405501041, 438.6670509347518 709.3986769869839, 440.0 664.0 C 441.33064823119787 618.679686713908, 441.33064823119787 573.320313286092, 440.0 528.0 L 432.0 664.0 L 424.0 800.0 Z" fill="green"/>
<path d="M 432.0 800.0 L 440.0 800.0 C 441.8191277839934 744.021986868622, 442.1526175743314 687.9957020918442, 441.0 632.0 C 439.8392418760929 575.6088191309286, 437.17130581006074 519.248669735999, 433.0 463.0 C 433.1681527643281 519.3331660234579, 433.1681527643281 575.6668339765421, 433.0 632.0 C 432.83283926411946 688.000824753547, 432.49950397408094 744.0011534800137, 432.0 800.0 Z" fill="green"/>
<path d="M 440.0 800.0 L 448.0 800.0 C 449.4798646978256 754.6827707484492, 449.4798646978256 709.3172292515508, 448.0 664.0 C 446.5060355748185 618.2510011563288, 443.50386334062074 572.5512682579854, 439.0 527.0 C 439.50060826163207 572.6652414269254, 439.83394457662934 618.3323165815544, 440.0 664.0 C 440.1648389434103 709.3331335399421, 440.1648389434103 754.6668664600579, 440.0 800.0 Z" fill="green"/>
<path d="M 448.0 800.0 L 456.0 800.0 C 452.57957715203423 765.8444100445704, 447.9087441962899 731.8140556527185, 442.0 698.0 C 435.9553484167658 663.4081851833905, 428.61516338849975 629.042773460145, 420.0 595.0 C 424.64410160657155 629.3363953943351, 429.3107696170261 663.6697386141079, 434.0 698.0 C 438.6445336816373 732.0030329678676, 443.31120166659656 766.0030425725708, 448.0 800.0 Z" fill="green"/>
<path d="M 456.0 800.0 L 464.0 800.0 C 460.6380206507942 755.8746381450785, 455.9686241309689 711.848899529583, 450.0 668.0 C 443.98278042504256 623.7940907652836, 436.6450871808942 579.7679313003936, 428.0 536.0 L 442.0 668.0 L 456.0 800.0 Z" fill="green"/>
<path d="M 464.0 800.0 L 472.0 800.0 C 469.8140951080245 749.2406542666927, 466.14534337997446 698.5451758427284, 461.0 648.0 C 455.82383474821125 597.1520461275842, 449.15333150390046 546.4562214708221, 441.0 496.0 C 445.1657442333421 546.6533997064688, 449.1657727747908 597.3204278981523, 453.0 648.0 C 456.83233008646465 698.6544963371256, 460.499022890242 749.3215241711391, 464.0 800.0 Z" fill="green"/>
<path d="M 472.0 800.0 L 480.0 800.0 C 483.165121211778 763.7560745743903, 484.8336803605682 727.3814851307633, 485.0 691.0 C 485.166256729565 654.6322760485482, 483.8314105557666 618.2577178125406, 481.0 582.0 C 479.83302645413266 618.3391840614597, 478.49967448767563 654.673025147414, 477.0 691.0 C 475.499758368797 727.3407129062936, 473.83306839310575 763.6745543763625, 472.0 800.0 Z" fill="green"/>
<path d="M 480.0 800.0 L 488.0 800.0 C 495.32600177130007 741.8132252441483, 501.32807194773005 683.4597651955233, 506.0 625.0 C 510.65498740361056 566.7522128854333, 513.9894625091694 508.39889853815407, 516.0 450.0 L 498.0 625.0 L 480.0 800.0 Z" fill="green"/>
<path d="M 488.0 800.0 L 496.0 800.0 C 502.49045125448595 760.2051680630559, 507.49509412371555 720.1680251092192, 511.0 680.0 C 514.4821746966797 640.0924859074395, 516.4840078311042 600.0558232189497, 517.0 560.0 C 512.4975453819095 600.0189303728718, 507.8308262988142 640.019379656546, 503.0 680.0 C 498.16437700233007 720.0203185201199, 493.16432073028784 760.0207686964574, 488.0 800.0 Z" fill="green"/>
<path d="M 496.0 800.0 L 504.0 800.0 C 502.4645726097688 745.2660667219436, 499.46313843525127 690.5732662085126, 495.0 636.0 C 490.489781810452 580.8510635537073, 484.486852625284 525.824212689667, 477.0 471.0 C 480.4908237451064 525.9903042342646, 483.8241753014799 580.9906049144271, 487.0 636.0 C 490.1555368415048 690.657983138145, 493.1555530333672 745.3249448565266, 496.0 800.0 Z" fill="green"/>
<path d="M 504.0 800.0 L 512.0 800.0 C 510.3231663038105 744.272530490812, 507.32203725137583 688.5849136289684, 503.0 633.0 C 498.661918979786 577.2087504573676, 492.99310379534245 521.5209777631283, 486.0 466.0 L 495.0 633.0 L 504.0 800.0 Z" fill="green"/>
<path d="M 512.0 800.0 L 520.0 800.0 C 517.2988998950689 763.8714515609208, 513.2954373598651 727.8402887440865, 508.0 692.0 C 502.6474422013643 655.7731118346372, 495.97487946208014 619.7412730425027, 488.0 584.0 L 500.0 692.0 L 512.0 800.0 Z" fill="green"/>
<path d="M 520.0 800.0 L 528.0 800.0 C 528.3158138170185 741.6540040709153, 527.315474686537 683.3008881261666, 525.0 625.0 C 522.6670899881113 566.2601111977804, 518.9991610452895 507.57324811263214, 514.0 449.0 C 514.9971355557398 507.66671544578804, 515.997135557329 566.3333822056937, 517.0 625.0 C 517.9971680090557 683.3333818359065, 518.997168010627 741.666715260899, 520.0 800.0 Z" fill="green"/>
<path d="M 528.0 800.0 L 536.0 800.0 C 533.111811851099 766.8316134492432, 528.7729587493915 733.7895782900864, 523.0 701.0 C 517.1364937072922 667.6961246415592, 509.793523863122 634.6527603427933, 501.0 602.0 C 505.83036180559213 634.9765749823738, 510.49710506067544 667.9771165718914, 515.0 701.0 C 519.496810045826 733.978258640859, 523.8302143048971 766.9787987676318, 528.0 800.0 Z" fill="green"/>
<path d="M 536.0 800.0 L 544.0 800.0 C 545.4821775842253 749.6812161858726, 545.4821775842253 699.3187838141274, 544.0 649.0 C 542.5053899397856 598.2591432317042, 539.5036263403813 547.5626913306543, 535.0 497.0 C 535.5005482376572 547.6653826050625, 535.8338839914588 598.3324171829038, 536.0 649.0 C 536.1650195649273 699.3331529924305, 536.1650195649273 749.6668470075695, 536.0 800.0 Z" fill="green"/>
<path d="M 544.0 800.0 L 552.0 800.0 C 550.6358439745483 747.61112199976, 547.9680769494142 695.2561941315031, 544.0 643.0 C 539.9914176372638 590.2103840702517, 534.6558384267375 537.5215393663051, 528.0 485.0 C 530.6581691074825 537.6670964646428, 533.3248358204291 590.3337640453364, 536.0 643.0 C 538.6582761940389 695.3337604237702, 541.3249429064028 747.6670946539143, 544.0 800.0 Z" fill="green"/>
<path d="M 552.0 800.0 L 560.0 800.0 C 565.1624188019448 762.4989778190159, 568.8329504937992 724.7926068026937, 571.0 687.0 C 573.1571869827605 649.3793922538088, 573.8245499987207 611.6733818520581, 573.0 574.0 C 569.8318595969594 611.6810421884948, 566.4984835325104 649.348191716768, 563.0 687.0 C 559.4986631502913 724.6825166033152, 555.831949402694 762.3496669195417, 552.0 800.0 Z" fill="green"/>
<path d="M 560.0 800.0 L 568.0 800.0 C 566.4828734647726 752.255424435432, 563.4809402938961 704.5580418315049, 559.0 657.0 C 554.4926101595769 609.1612383736191, 548.4886980365906 561.4634920632269, 541.0 514.0 C 544.4992919042321 561.6548675956219, 547.8326521794609 609.3219195313926, 551.0 657.0 C 554.1658831806802 704.6560332477122, 557.1659074059661 752.323084827254, 560.0 800.0 Z" fill="green"/>
<path d="M 568.0 800.0 L 576.0 800.0 C 573.0891950334368 761.523632338274, 568.7518941066979 723.1552010632761, 563.0 685.0 C 557.1319855323303 646.0745142899224, 549.7916639447363 607.371000464427, 541.0 569.0 C 545.8131735713924 607.6487970093388, 550.4798849157876 646.3158338628982, 555.0 685.0 C 559.4771998459183 723.3168878317816, 563.8105738816846 761.650581225098, 568.0 800.0 Z" fill="green"/>
<path d="M 576.0 800.0 L 584.0 800.0 C 590.1539979636378 768.9123573877135, 594.8277089293947 737.5317266176318, 598.0 706.0 C 601.1420951140316 674.7684131319843, 602.8112299282019 643.3886786255813, 603.0 612.0 C 598.8298807272375 643.3556168167049, 594.496469046418 674.6895166626305, 590.0 706.0 C 585.4967949793094 737.3573882772337, 580.830043685442 768.6912898217718, 576.0 800.0 Z" fill="green"/>
<path d="M 584.0 800.0 L 592.0 800.0 C 597.6591899735014 767.1922308648234, 601.9972036179358 734.1565884956684, 605.0 701.0 C 608.0110720159987 667.75203275133, 609.6795487392436 634.3824982864321, 610.0 601.0 C 605.6882917704313 634.3361398416068, 601.354957221289 667.6694825273169, 597.0 701.0 C 592.6878650065722 734.002779003296, 588.3545304812225 767.0027880809598, 584.0 800.0 Z" fill="green"/>
<path d="M 592.0 800.0 L 600.0 800.0 C 602.3321307992493 758.0458173381724, 603.3328018444663 716.017633439059, 603.0 674.0 C 602.6670305358472 631.9612038700938, 600.9992443335259 589.9329915715978, 598.0 548.0 L 595.0 674.0 L 592.0 800.0 Z" fill="green"/>
<path d="M 200.0 409.0 L 200.0 244.0 C 200.0 230.19176133042762, 199.29972644087232 216.05032287883216, 203.46448407559444 202.88513207125564 C 205.54686289304456 196.30253666744866, 209.03534926486037 190.05734642171515, 214.1688763314286 185.44066323501096 C 219.30240339799687 180.82398004830677, 226.0958806651691 177.9999999999207, 233.0 178.0 C 239.9041193347862 178.0, 246.69759660188197 180.8239800484458, 251.83112366836394 185.44066323517904 C 256.9646507348459 190.05734642191226, 260.4531371065675 196.30253666764537, 262.5355159239286 202.88513207143362 C 266.70027355879324 216.05032287891686, 265.99999999983595 230.19176133047358, 266.0 244.0 L 266.0 277.0 C 266.0 290.8082386695724, 265.2997264408723 304.94967712116784, 269.46448407559444 318.1148679287444 C 271.5468628930446 324.69746333255137, 275.03534926486043 330.9426535782849, 280.16887633142863 335.55933676498904 C 285.3024033979969 340.1760199516932, 292.0958806651691 343.0000000000793, 299.0 343.0 C 305.9041193347862 343.0, 312.69759660188197 340.1760199515542, 317.83112366836394 335.55933676482096 C 322.9646507348459 330.94265357808774, 326.4531371065675 324.69746333235463, 328.5355159239286 318.11486792856635 C 332.70027355879324 304.94967712108314, 331.99999999983595 290.8082386695264, 332.0 277.0 L 332.0 244.0 C 332.0 230.19176133042762, 331.2997264408723 216.05032287883216, 335.46448407559444 202.88513207125564 C 337.5468628930446 196.30253666744866, 341.03534926486043 190.05734642171515, 346.16887633142863 185.44066323501096 C 351.3024033979969 180.82398004830677, 358.0958806651691 177.9999999999207, 365.0 178.0 C 371.9041193347862 178.0, 378.6975966018819 180.8239800484458, 383.8311236683639 185.44066323517904 C 388.9646507348459 190.05734642191226, 392.45313710656745 196.30253666764537, 394.5355159239286 202.88513207143362 C 398.70027355879324 216.05032287891686, 397.99999999983595 230.19176133047358, 398.0 244.0 L 398.0 409.0 C 398.0 434.9181393921158, 387.3304634573715 460.6766792175649, 369.0035713374682 479.0035713374682 C 350.6766792175649 497.3304634573715, 324.9181393921158 508.0, 299.0 508.0 C 273.0818606078842 508.0, 247.32332078243505 497.3304634573715, 228.9964286625318 479.0035713374682 C 210.66953654262855 460.6766792175649, 200.0 434.9181393921158, 200.0 409.0 Z" fill="white" stroke="#222" stroke-width="8"/>
<path d="M 216.0 310.0 L 216.0 244.0 C 216.0 234.22834905515546, 215.1020924443995 224.4122681509689, 216.1841437241162 214.70071177642498 C 216.72516936379034 209.844933589686, 217.9808881723563 204.95096086504498, 220.76278042847377 200.93444919234338 C 222.15372655653243 198.92619335599267, 223.92588456807474 197.1637763205271, 226.02493950620254 195.91405995185806 C 228.12399444433038 194.664343583189, 230.55779331036828 193.94127078651735, 233.0 194.0 C 235.41232855641024 194.0580107160999, 237.77996892273725 194.8771079083559, 239.8018790488464 196.1941400830548 C 241.82378917495552 197.5111722577537, 243.50829248740763 199.31323878994007, 244.81698664953686 201.3405557107158 C 247.43437497379512 205.39518955226723, 248.5521495726032 210.25006315410437, 249.0028752097118 215.05502138795725 C 249.9043264831478 224.66493785507254, 249.00000000072285 234.3478961410834, 249.0 244.0 L 249.0 310.0" fill="lightpink"/>
<path d="M 348.0 310.0 L 348.0 244.0 C 348.0 234.22834905515546, 347.1020924443995 224.4122681509689, 348.1841437241162 214.70071177642498 C 348.72516936379037 209.844933589686, 349.9808881723563 204.95096086504498, 352.7627804284738 200.93444919234338 C 354.15372655653243 198.92619335599267, 355.9258845680747 197.1637763205271, 358.02493950620254 195.91405995185806 C 360.1239944443304 194.664343583189, 362.5577933103683 193.94127078651735, 365.0 194.0 C 367.4123285564103 194.0580107160999, 369.7799689227372 194.8771079083559, 371.8018790488464 196.19414008305478 C 373.82378917495555 197.51117225775369, 375.50829248740763 199.31323878994004, 376.8169866495369 201.3405557107158 C 379.4343749737951 205.39518955226723, 380.55214957260324 210.25006315410437, 381.00287520971176 215.05502138795725 C 381.90432648314777 224.66493785507254, 381.0000000007229 234.3478961410834, 381.0 244.0 L 381.0 310.0" fill="lightpink"/>
<circle cx="266" cy="392.5" r="8"/>
<circle cx="332" cy="392.5" r="8"/>
<circle cx="299" cy="425.5" r="11"/>
<path d="M 322.0 455.0 C 315.7063661758018 455.0521961277266, 309.4320989331617 452.4686743219336, 305.0 448.0 C 302.0772695333536 445.0531500349613, 299.9507898076094 441.3239327935063, 298.90312404021506 437.3078806851613 C 297.8554582728207 433.29182857681633, 297.8892468500779 428.99906308240446, 299.0 425.0 C 299.8719722839633 429.09088013900083, 299.68769047885155 433.40230512834063, 298.4698259324832 437.4038600664079 C 297.2519613861149 441.40541500447523, 295.0031316627347 445.0884993230377, 292.0 448.0 C 287.49276132443146 452.36971466086123, 281.27730583260774 454.9290198633769, 275.0 455.0" fill="none" stroke="black" stroke-width="6.8" stroke-linecap="round"/>
<circle cx="299" cy="706.0" r="33" fill="white" stroke="#222" stroke-width="8"/>
<path d="M 299.0 508.0 C 285.6168687650313 508.0, 272.1798037521314 509.686385334832, 259.4080482065763 513.6851928992162 C 246.63629266102126 517.6840004636003, 234.5346850468751 524.164640813866, 224.7968955388809 533.3452539279446 C 215.05910603136724 542.5258670405552, 207.9255297722978 554.3819492776137, 204.1390089945377 567.2182439928216 C 200.3524882167781 580.0545387080286, 200.00000000073817 593.616868766389, 200.0 607.0 L 200.0 706.0 C 200.0 710.4803295401729, 199.9057151881855 715.0167262087557, 198.70087075556614 719.3320133002169 C 197.49602632294682 723.647300391678, 195.18402558593164 727.6684630743459, 191.93767221017092 730.7562685326336 C 188.69131883433857 733.8440739907251, 184.59476387883424 735.9595256454222, 180.28628380138116 737.1884895220222 C 175.9778037239281 738.4174533986222, 171.47600979743478 738.8033045982604, 167.0 739.0 C 153.26484493211893 739.6035826481465, 139.17520048289057 738.6166348120972, 126.08261538347331 742.8122291879157 C 119.53632283377183 744.9100263758216, 113.31886678251624 748.3478646059922, 108.63549108832545 753.3798315469534 C 103.95211539413467 758.4117984879146, 100.90620358737455 765.1264345917972, 101.0 772.0 C 101.09329594894974 778.8368905533837, 104.27741090358944 785.4242477310315, 108.9973232212972 790.371388752489 C 113.71723553900495 795.3185297739465, 119.88223449568491 798.7297340092009, 126.36592228611502 800.9008095973056 C 139.33329786696706 805.2429607734878, 153.32494583953329 805.0000000000233, 167.0 805.0 L 200.0 805.0 C 209.08875049282324 805.0, 218.27486273270944 804.8764663336966, 227.0912347632353 802.6680801038545 C 235.90760679376112 800.4596938740125, 244.2576835112966 796.1111177224899, 250.68440061728444 789.684400616502 C 257.1111177230905 783.2576835105691, 261.45969387445064 774.9076067931444, 263.668080104165 766.0912347627592 C 265.87646633387936 757.274862732374, 266.00000000008976 748.0887504926558, 266.0 739.0 L 266.0 722.0 C 266.0 716.4456784896975, 266.0259013637569 710.8696819505433, 266.82522072908733 705.3731761521276 C 267.6245400944178 699.8766703537119, 269.21190275919724 694.454689775414, 271.9281019712079 689.6098214304037 C 274.6443011832178 684.7649530853961, 278.49874363441177 680.5296612408371, 283.20520257470935 677.5801304844161 C 287.9116615150069 674.6305997279952, 293.44567848970013 672.9999999999994, 299.0 673.0 C 304.55432151030254 673.0, 310.0883384849983 674.6305997279973, 314.7947974252978 677.5801304844201 C 319.5012563655973 680.529661240843, 323.35569881679277 684.7649530854045, 326.07189802880345 689.6098214304147 C 328.78809724081174 694.4546897754238, 330.3754599055891 699.8766703537201, 331.17477927091767 705.3731761521339 C 331.97409863624625 710.8696819505476, 332.00000000000153 716.4456784896996, 332.0 722.0 L 332.0 739.0 C 332.0 748.0887504928232, 332.12353366630344 757.2748627327095, 334.3319198961455 766.0912347632353 C 336.54030612598757 774.9076067937611, 340.88888227751016 783.2576835112966, 347.315599383498 789.6844006172844 C 353.74231648943095 796.1111177230905, 362.0923932068556 800.4596938744506, 370.90876523724086 802.668080104165 C 379.72513726762605 804.8764663338793, 388.9112495073442 805.0000000000897, 398.0 805.0 L 431.0 805.0 C 444.6750541604831 805.0, 458.6667021330666 805.242960773441, 471.63407771392684 800.9008095972316 C 478.1177655043439 798.7297340091345, 484.28276446101205 795.3185297738903, 489.0026767787118 790.3713887524457 C 493.7225890964116 785.4242477310011, 496.90670405104737 778.8368905533688, 497.0 772.0 C 497.0937964126265 765.1264345917893, 494.04788460586377 758.4117984878987, 489.36450891166834 753.3798315469312 C 484.6811332174729 748.3478646059637, 478.4636771662107 744.9100263757884, 471.9173846165021 742.8122291878792 C 458.82479951709024 738.6166348120744, 444.73515506787226 739.6035826481346, 431.0 739.0 C 426.52399020249027 738.8033045980654, 422.0221962759296 738.4174533982276, 417.7137161984488 737.1884895214207 C 413.405236120968 735.9595256446137, 409.3086811654778 733.8440739897021, 406.062327789717 730.7562685314143 C 402.81597441407297 727.668463073302, 400.5039736771219 723.6473003908422, 399.29912924451287 719.3320132995915 C 398.09428481190395 715.0167262083409, 398.0000000000466 710.4803295399672, 398.0 706.0 L 398.0 607.0 C 398.0 593.6168687650313, 397.64751178467236 580.0545387052758, 393.8609910072367 567.2182439885579 C 390.0744702298011 554.381949271841, 382.94089397066307 542.5258670331881, 373.20310446266944 533.3452539191104 C 363.4653149538102 524.1646408062948, 351.36370733914595 517.6840004575114, 338.5919517933651 513.6851928946413 C 325.82019624758425 509.68638533177125, 312.3831312347317 507.9999999984876, 299.0 508.0 Z" fill="white" stroke="#222" stroke-width="8"/>
<path d="M 104.3 762.0999999999999 L 134 762.0999999999999" fill="none" stroke="#222" stroke-linecap="round" stroke-width="8"/>
<path d="M 104.3 781.9000000000001 L 134 781.9000000000001" fill="none" stroke="#222" stroke-linecap="round" stroke-width="8"/>
<path d="M 493.7 762.0999999999999 L 464 762.0999999999999" fill="none" stroke="#222" stroke-linecap="round" stroke-width="8"/>
<path d="M 493.7 781.9000000000001 L 464 781.9000000000001" fill="none" stroke="#222" stroke-linecap="round" stroke-width="8"/>
<path d="M 249.0 574.0 L 249.0 607.0 C 249.0 611.2860241495455, 249.01412610551617 615.5869106100391, 249.59094227224065 619.8339432353308 C 250.16775843896514 624.0809758606225, 251.32026910276159 628.2815247837416, 253.34068690081475 632.0614606207363 C 255.3611046988676 635.8413964577301, 258.26234905805234 639.1771432303532, 261.85500038880525 641.5144193000799 C 265.44765171955817 643.8516953698066, 269.71397585903725 645.1581406414942, 274.0000000085817 645.158140641494 C 278.28602415724345 645.1581406401451, 282.55234829543264 643.8516953673839, 286.14499962471 641.5144192970076 C 289.7376509539874 639.1771432266314, 292.63889531152466 635.8413964537821, 294.6593131079716 632.0614606169308 C 296.67973090441774 628.2815247800801, 297.83224156665375 624.0809758574651, 298.409057731922 619.8339432328683 C 298.9858738971903 615.5869106082714, 299.00000000134946 611.2860241486609, 299.0 607.0 L 299.0 574.0 L 299.0 607.0 C 299.0 611.2003036665545, 299.0138435834059 615.4151723978383, 299.5791234267959 619.5772643706242 C 300.1444032701859 623.7393563434101, 301.2738637207064 627.8558942880667, 303.25387316279847 631.5602314083216 C 305.23388260489025 635.2645685285754, 308.07710207689126 638.5336003657461, 311.59790038102915 640.8241309140783 C 315.11869868516703 643.1146614624105, 319.2996963418565 644.3949778286643, 323.50000000841004 644.3949778286641 C 327.70030367409856 644.3949778273421, 331.881301329524 643.114661460036, 335.40209963221577 640.8241309110673 C 338.9228979349076 638.5336003620986, 341.7661174052941 635.2645685247063, 343.74612684581217 631.5602314045922 C 345.72613628632934 627.8558942844785, 346.85559673532066 623.7393563403158, 347.4208765772836 619.5772643682109 C 347.98615641924647 615.415172396106, 348.00000000132246 611.2003036656877, 348.0 607.0 L 348.0 574.0" fill="none" stroke="black" stroke-width="6.8"/>
<path d="M 266 623.5 L 266 640.0" fill="none" stroke="black" stroke-linecap="round" stroke-width="6.8"/>
<path d="M 282.5 623.5 L 282.5 640.0" fill="none" stroke="black" stroke-linecap="round" stroke-width="6.8"/>
<path d="M 332 623.5 L 332 640.0" fill="none" stroke="black" stroke-linecap="round" stroke-width="6.8"/>
<path d="M 315.5 623.5 L 315.5 640.0" fill="none" stroke="black" stroke-linecap="round" stroke-width="6.8"/>
<path d="M -3.0 800.0 L 6.0 800.0 C 13.619618391807467 777.1235874872226, 19.639129829385894 753.7143763410843, 24.0 730.0 C 28.250792053862654 706.8842275580073, 30.92569807361966 683.4787998851335, 32.0 660.0 C 26.490015613684143 683.3710137571425, 20.823178789110912 706.7050477406792, 15.0 730.0 C 9.15721514001531 753.3733840749214, 3.1570337575635863 776.707422784456, -3.0 800.0 Z" fill="green"/>
<path d="M 10.0 800.0 L 19.0 800.0 C 25.31061552431832 777.0360042317283, 29.992877496189323 753.6246943723733, 33.0 730.0 C 35.95344924199414 706.7969759801904, 37.29108068486698 683.388425729916, 37.0 660.0 C 32.827209303842416 683.3627678192187, 28.49373932678172 706.6968369264686, 24.0 730.0 C 19.494308439877283 753.365143714237, 14.827493834593277 776.6992167406571, 10.0 800.0 Z" fill="green"/>
<path d="M 31.0 800.0 L 40.0 800.0 C 43.99229486458677 781.9290795637934, 46.33847130160414 763.4948361300854, 47.0 745.0 C 47.657198780140355 726.6262185252702, 46.65176644942786 708.1932924622078, 44.0 690.0 C 42.16424601075577 708.350755076835, 40.16413906463903 726.6850687495718, 38.0 745.0 C 35.83127015555 763.3537826431125, 33.49781152183262 781.6881004794634, 31.0 800.0 Z" fill="green"/>
<path d="M 49.0 800.0 L 58.0 800.0 C 61.321354894625365 784.2304837398933, 63.0 768.1154907282969, 63.0 752.0 C 63.0 735.8845092717031, 61.32135489462537 719.7695162601067, 58.0 704.0 C 56.831762909450156 720.0131865509658, 55.49833498810035 736.0143216071634, 54.0 752.0 C 52.49876146851097 768.0166561856397, 50.83197610813377 784.0177956452608, 49.0 800.0 Z" fill="green"/>
<path d="M 70.0 800.0 L 79.0 800.0 C 78.44002102166998 779.5592014261948, 76.43336226267749 759.1581707097711, 73.0 739.0 C 69.4811902304697 718.3401445572815, 64.46370413225974 697.9357010912277, 58.0 678.0 L 64.0 739.0 L 70.0 800.0 Z" fill="green"/>
<path d="M 83.0 800.0 L 92.0 800.0 C 94.14035284163282 787.131671906484, 94.81275808404492 774.0197696794481, 94.0 761.0 C 93.17528498160821 747.7886892773749, 90.8212707945736 734.6734673781822, 87.0 722.0 L 85.0 761.0 L 83.0 800.0 Z" fill="green"/>
<path d="M 103.0 800.0 L 112.0 800.0 C 112.79281673946504 782.6514875360283, 112.12300435342014 765.2363654988608, 110.0 748.0 C 107.83150727095637 730.3943209540741, 104.14678941926351 712.9756547460717, 99.0 696.0 L 101.0 748.0 L 103.0 800.0 Z" fill="green"/>
<path d="M 125.0 800.0 L 134.0 800.0 C 140.45889096399367 782.4483717344449, 145.48113269465384 764.3683015040683, 149.0 746.0 C 152.4736676086353 727.8676385257863, 154.48233711507018 709.4548347167997, 155.0 691.0 C 150.04341203782272 709.3451361816168, 145.04339335556043 727.6785380165786, 140.0 746.0 C 135.0419018924665 764.0116044066039, 130.04188383677987 782.0116694070757, 125.0 800.0 Z" fill="green"/>
<path d="M 144.0 800.0 L 153.0 800.0 C 151.76329138229502 778.1891105331488, 149.0889206078934 756.4598479911357, 145.0 735.0 C 140.8050391422152 712.9836218480149, 135.1211408461777 691.2510695396362, 128.0 670.0 L 136.0 735.0 L 144.0 800.0 Z" fill="green"/>
<path d="M 157.0 800.0 L 166.0 800.0 C 173.88426951960093 786.0700240337065, 180.26634944611618 771.2904705196713, 185.0 756.0 C 189.53184605548242 741.3613912302444, 192.5530083705393 726.25557965496, 194.0 711.0 C 188.2049490731321 726.0809007702342, 182.20420503242957 741.0827608719906, 176.0 756.0 C 169.86485498089206 770.7511929178154, 163.53075365846422 785.4196380855429, 157.0 800.0 Z" fill="green"/>
<path d="M 172.0 800.0 L 181.0 800.0 C 181.41030087417835 787.2743972014459, 180.40207790262647 774.503572895122, 178.0 762.0 C 175.48832837901173 748.9259572442269, 171.45236390804806 736.1454030861753, 166.0 724.0 L 169.0 762.0 L 172.0 800.0 Z" fill="green"/>
<path d="M 197.0 800.0 L 206.0 800.0 C 205.59875184025123 778.5568995870894, 203.59129564098143 757.1440334615451, 200.0 736.0 C 196.31415524377195 714.299301240917, 190.95987757230847 692.882190555063, 184.0 672.0 C 186.49837817866282 693.3148505949508, 188.83180466971592 714.6490356560078, 191.0 736.0 C 193.1647925273601 757.3174557744992, 195.1648721263956 778.6516381642112, 197.0 800.0 Z" fill="green"/>
<path d="M 211.0 800.0 L 220.0 800.0 C 226.896807035696 788.0701991659873, 232.28633467308677 775.2700710271843, 236.0 762.0 C 239.553251250212 749.3031379198251, 241.57254120298202 736.1777532268202, 242.0 723.0 C 237.2055411305848 736.0778157703282, 232.20471120075715 749.0799735878802, 227.0 762.0 C 221.86431352964314 774.7486813930665, 216.5301182630499 787.4173951512254, 211.0 800.0 Z" fill="green"/>
<path d="M 225.0 800.0 L 234.0 800.0 C 230.21652648191687 784.9554771391887, 225.1940060096394 770.2227504205081, 219.0 756.0 C 212.32065774173836 740.6628147010889, 204.27875393314665 725.9193243853375, 195.0 712.0 L 210.0 756.0 L 225.0 800.0 Z" fill="green"/>
<path d="M 249.0 800.0 L 258.0 800.0 C 263.63393736902316 782.4157178730906, 267.65622377465934 764.3154290477278, 270.0 746.0 C 272.3318409388736 727.7778391960953, 273.00218425205617 709.3433980835748, 272.0 691.0 C 268.52983084679346 709.3719037679022, 264.86288376931014 727.7066391553186, 261.0 746.0 C 257.19028254329874 764.0415824844151, 253.18998500321118 782.0429214148093, 249.0 800.0 Z" fill="green"/>
<path d="M 269.0 800.0 L 278.0 800.0 C 284.63536412400674 778.4147912439873, 289.6540004058867 756.3327916037157, 293.0 734.0 C 296.27201032479326 712.1610479459196, 297.9446172930807 690.0826359645255, 298.0 668.0 C 293.492152133859 690.0332898733518, 288.82532349798055 712.034053442493, 284.0 734.0 C 279.1593299894601 756.0358072984218, 274.15915534541256 778.0365757322311, 269.0 800.0 Z" fill="green"/>
<path d="M 282.0 800.0 L 291.0 800.0 C 298.6669487792081 788.060841543719, 305.0488425025 775.2970540971351, 310.0 762.0 C 314.57794975639104 749.7052496117453, 317.93313094398707 736.9555610988805, 320.0 724.0 L 301.0 762.0 L 282.0 800.0 Z" fill="green"/>
<path d="M 306.0 800.0 L 315.0 800.0 C 313.70767220480457 778.8557862277403, 311.03343105435147 757.7961371679224, 307.0 737.0 C 302.79397079141177 715.3139567342492, 297.10980090061076 693.9147289100572, 290.0 673.0 C 292.6456710202367 694.3359507943206, 295.31233940870436 715.6692979020618, 298.0 737.0 C 300.646317001208 758.0025774059013, 303.312985337111 779.0025905511376, 306.0 800.0 Z" fill="green"/>
<path d="M 324.0 800.0 L 333.0 800.0 C 332.86402884355545 786.2041851722593, 331.1835380095554 772.424160333459, 328.0 759.0 C 324.63420200757844 744.8072962330953, 319.5878403758274 731.0139077729758, 313.0 718.0 C 315.1638801595634 731.6420143440969, 317.16407210552484 745.3099926415, 319.0 759.0 C 320.8300372065997 772.6460821255948, 322.4968628034204 786.3140520195248, 324.0 800.0 Z" fill="green"/>
<path d="M 338.0 800.0 L 347.0 800.0 C 346.29296440421166 786.8445486406364, 344.2798994068314 773.7596261576647, 341.0 761.0 C 337.4480224667035 747.1819221190472, 332.4097119719785 733.7464274664471, 326.0 721.0 C 327.9746249555293 734.3371231336199, 329.9746297838082 747.6704886554795, 332.0 761.0 C 333.97586406679386 774.0036979328551, 335.9758686619221 787.0037278011886, 338.0 800.0 Z" fill="green"/>
<path d="M 360.0 800.0 L 369.0 800.0 C 369.57215152350034 779.9625987827138, 368.56804116351145 759.8803915829355, 366.0 740.0 C 363.33364380566996 719.3585063993343, 358.9811083929037 698.9350710009697, 353.0 679.0 C 354.4924842750426 699.3224800462249, 355.82587208361656 719.6566441269778, 357.0 740.0 C 358.1538441545606 759.9919122360488, 359.1538836115405 779.9927013756461, 360.0 800.0 Z" fill="green"/>
<path d="M 373.0 800.0 L 382.0 800.0 C 385.3062188008659 775.4807263425715, 386.97781061207473 750.7411675366811, 387.0 726.0 C 387.0224883415073 700.9254992193587, 385.35076288458794 675.8496173655683, 382.0 651.0 C 380.8450802712293 676.0090898726719, 379.51170167788126 701.0099384979474, 378.0 726.0 C 376.5071754236209 750.6780026253437, 374.8404535860592 775.3454858212563, 373.0 800.0 Z" fill="green"/>
<path d="M 396.0 800.0 L 405.0 800.0 C 411.1210557462802 784.1297338127071, 415.81283123280014 767.7085196098874, 419.0 751.0 C 422.08017876810345 734.85236832186, 423.7552206227227 718.4369581465916, 424.0 702.0 L 410.0 751.0 L 396.0 800.0 Z" fill="green"/>
<path d="M 413.0 800.0 L 422.0 800.0 C 430.2769773873734 775.8066140017564, 436.9628173355184 751.0690061936198, 442.0 726.0 C 446.9067307243624 701.5802258697473, 450.2491604486008 676.8462459103829, 452.0 652.0 C 445.8223344539626 676.7062867449591, 439.4888331435401 701.3736076381834, 433.0 726.0 C 426.4895250410917 750.708527288835, 419.8226803750056 775.3758525533535, 413.0 800.0 Z" fill="green"/>
<path d="M 424.0 800.0 L 433.0 800.0 C 430.3162609977542 779.4369917778009, 426.30517713486836 759.0473154747979, 421.0 739.0 C 415.41358368996197 717.8899319864713, 408.39207524017957 697.1597641823518, 400.0 677.0 C 403.96816526149763 697.6728112740112, 407.96817158771626 718.3395106261409, 412.0 739.0 C 415.9691655201198 759.3393829463776, 419.96917165122176 779.6727474461454, 424.0 800.0 Z" fill="green"/>
<path d="M 444.0 800.0 L 453.0 800.0 C 455.1550326677835 780.4214547510275, 455.82425018855827 760.6795378881706, 455.0 741.0 C 454.17043505576925 721.1935686793805, 451.8280581819353 701.4506778856376, 448.0 682.0 L 446.0 741.0 L 444.0 800.0 Z" fill="green"/>
<path d="M 459.0 800.0 L 468.0 800.0 C 466.43711690808465 783.4458360320918, 463.42179042967416 767.0290585385239, 459.0 751.0 C 454.25166721045383 733.78722036819, 447.8810197356168 717.0223585923031, 440.0 701.0 C 443.4660092761499 717.6397649469702, 446.799483582996 734.3071364812006, 450.0 751.0 C 453.12704452766826 767.3096577915506, 456.12716564546446 783.6436505439964, 459.0 800.0 Z" fill="green"/>
<path d="M 484.0 800.0 L 493.0 800.0 C 501.24941195188586 782.2949158219499, 507.94993319182197 763.8684824121257, 513.0 745.0 C 517.9084073084581 726.6607976707929, 521.2577311433148 707.9045841955951, 523.0 689.0 C 516.8702497122954 707.7349162033515, 510.5364153938667 726.4030594576677, 504.0 745.0 C 497.5312265865597 763.4044904282628, 490.86404342537145 781.7392441215304, 484.0 800.0 Z" fill="green"/>
<path d="M 495.0 800.0 L 504.0 800.0 C 504.1626459571671 785.5797019837767, 502.81968501719473 771.1428718790734, 500.0 757.0 C 496.9844433814947 741.8746825835026, 492.2792319610345 727.0868752620563, 486.0 713.0 C 487.81804499983076 727.6489366369062, 489.4848301246496 742.3166457353119, 491.0 757.0 C 492.4776159504341 771.3194230695483, 493.8110394108424 785.6537252689376, 495.0 800.0 Z" fill="green"/>
<path d="M 516.0 800.0 L 525.0 800.0 C 526.4577886651399 775.3620582360136, 526.4577886651399 750.6379417639864, 525.0 726.0 C 523.5118751566876 700.8493494950079, 520.504594120297 675.7886741917539, 516.0 651.0 L 516.0 726.0 L 516.0 800.0 Z" fill="green"/>
<path d="M 535.0 800.0 L 544.0 800.0 C 544.5624307089917 781.2932395176947, 543.5577718121054 762.539606775818, 541.0 744.0 C 538.3332547994022 724.6705167535306, 533.9779751180299 705.5742904582831, 528.0 687.0 C 529.4919063340864 705.9884285751024, 530.8253016073061 724.9893112184841, 532.0 744.0 C 533.1529087127041 762.6580562866451, 534.1529534601948 781.3255582398067, 535.0 800.0 Z" fill="green"/>
<path d="M 557.0 800.0 L 566.0 800.0 C 566.3678007293466 785.9468929808315, 565.3614626332959 771.8581596361225, 563.0 758.0 C 560.495817038892 743.3042911864092, 556.4673053421659 728.8687909398072, 551.0 715.0 C 551.9880153773412 729.3341661134095, 552.988015843406 743.6675061270034, 554.0 758.0 C 554.9885649857252 772.0008136576486, 555.9885654304684 786.0008198840519, 557.0 800.0 Z" fill="green"/>
<path d="M 569.0 800.0 L 578.0 800.0 C 584.3097000637621 776.3587518690314, 588.9910832130134 752.2830671014527, 592.0 728.0 C 594.9990980419592 703.7961737886186, 596.3366086790426 679.3866046618472, 596.0 655.0 C 591.8601969012652 679.3672687797988, 587.5266810030168 703.7016272853473, 583.0 728.0 C 578.5221600922431 752.0362028962744, 573.8553010369884 776.0371923232984, 569.0 800.0 Z" fill="green"/>
</svg>
