<svg version="1.1"
     xmlns="http://www.w3.org/2000/svg"
     width="600"
     height="800">

<rect x="0" y="0" width="600" height="800" fill="skyblue"/>
<circle cx="0" cy="0" r="200" fill="yellow"/>
<path d="M 0.0 800.0 L 8.0 800.0 C 7.151081061026575 756.2708629107524, 4.815952152118943 712.5705933297666, 1.0 669.0 C -2.8388413714374954 625.1680572542009, -8.176328265129523 581.4673833120974, -15.0 538.0 C -12.167188660840587 581.6563088903473, -9.500496253617381 625.3233970586273, -7.0 669.0 C -4.50059273894965 712.6575813188098, -2.167236902243093 756.3246691200326, 0.0 800.0 Z" fill="green"/>
<path d="M 8.0 800.0 L 16.0 800.0 C 16.489791611684527 761.3139396604497, 15.48880251011131 722.6090277329521, 13.0 684.0 C 10.498746043247609 645.1978118026367, 6.494749946262618 606.4925161984485, 1.0 568.0 C 2.499860773747818 606.6606849691849, 3.8332105958853218 645.3278298111726, 5.0 684.0 C 6.16648623318431 722.6621218649618, 7.166498593361744 761.3292664584895, 8.0 800.0 Z" fill="green"/>
<path d="M 16.0 800.0 L 24.0 800.0 C 29.99388268689104 755.1508534391119, 34.66326133010161 710.1247022367244, 38.0 665.0 C 41.32221185190392 620.0717525657932, 43.32336402885194 575.0458285844626, 44.0 530.0 L 30.0 665.0 L 16.0 800.0 Z" fill="green"/>
<path d="M 24.0 800.0 L 32.0 800.0 C 31.808720591658716 770.2749400949704, 30.139310484169847 740.5594401816685, 27.0 711.0 C 23.827061806987206 681.1239246040059, 19.152548028310143 651.4073727252731, 13.0 622.0 C 15.166067407317247 651.6551597543285, 17.166109198073872 681.3224463172182, 19.0 711.0 C 20.832622736943506 740.6570327954119, 22.499324181096064 770.3243185013275, 24.0 800.0 Z" fill="green"/>
<path d="M 32.0 800.0 L 40.0 800.0 C 43.33222595114843 764.758898511519, 45.33412433991436 729.3920269766544, 46.0 694.0 C 46.66492936534811 658.6582696340885, 45.99763169988759 623.2914933646806, 44.0 588.0 L 38.0 694.0 L 32.0 800.0 Z" fill="green"/>
<path d="M 40.0 800.0 L 48.0 800.0 C 45.411469626435874 766.5174338806255, 41.4067037977771 733.1443853084689, 36.0 700.0 C 30.462089413629332 666.0512857475227, 23.453339460254753 632.3425359717687, 15.0 599.0 C 19.47853431244584 632.6477651488207, 23.81192140228096 666.314849462155, 28.0 700.0 C 32.14219019406907 733.3160653478649, 36.14223873401706 766.6498031807647, 40.0 800.0 Z" fill="green"/>
<path d="M 48.0 800.0 L 56.0 800.0 C 57.99744274148753 766.043473394712, 58.6647907048917 732.0087272610994, 58.0 698.0 C 57.33418758735924 663.9390051907498, 55.332137409220586 629.9041521623926, 52.0 596.0 L 50.0 698.0 L 48.0 800.0 Z" fill="green"/>
<path d="M 56.0 800.0 L 64.0 800.0 C 61.08919503343681 761.523632338274, 56.751894106697925 723.1552010632761, 51.0 685.0 C 45.13198553233032 646.0745142899224, 37.79166394473637 607.371000464427, 29.0 569.0 C 33.81317357139245 607.6487970093388, 38.47988491578755 646.3158338628982, 43.0 685.0 C 47.47719984591836 723.3168878317816, 51.81057388168456 761.650581225098, 56.0 800.0 Z" fill="green"/>
<path d="M 64.0 800.0 L 72.0 800.0 C 70.08470322417452 768.2054033129313, 66.74692712122611 736.4965303349213, 62.0 705.0 C 57.13684575404099 672.7322863150075, 50.794652675669354 640.6875212874456, 43.0 609.0 C 46.81482790146603 640.9827914432551, 50.48154698893421 672.9832489338866, 54.0 705.0 C 57.478279501271054 736.6511855012176, 60.811659407839 768.318294613613, 64.0 800.0 Z" fill="green"/>
<path d="M 72.0 800.0 L 80.0 800.0 C 79.81652600379532 763.9517227952495, 78.14797549313923 727.9110317650776, 75.0 692.0 C 71.82906890898333 655.827098596369, 67.15705026077579 619.7858118816251, 61.0 584.0 C 63.166259239963445 619.9905065956195, 65.16628768327965 655.9910185753114, 67.0 692.0 C 68.83285010637475 727.9920500249069, 70.49954045352008 763.9925615232462, 72.0 800.0 Z" fill="green"/>
<path d="M 80.0 800.0 L 88.0 800.0 C 93.16397424182276 752.7985653279665, 96.83309114189896 705.4336017088008, 99.0 658.0 C 101.16064858047761 610.7034356724744, 101.82775817356179 563.338654563498, 101.0 516.0 C 97.83239704114942 563.3448101325299, 94.49903646910813 610.6785302555164, 91.0 658.0 C 87.49915093123381 705.3459836015511, 83.83245427093739 752.6797041253776, 80.0 800.0 Z" fill="green"/>
<path d="M 88.0 800.0 L 96.0 800.0 C 102.65748440614671 755.8393700411567, 107.9939974671228 711.479605221793, 112.0 667.0 C 115.9845077140578 622.7590568977524, 118.65274722800011 578.3995749784616, 120.0 534.0 L 104.0 667.0 L 88.0 800.0 Z" fill="green"/>
<path d="M 96.0 800.0 L 104.0 800.0 C 108.1603435993196 744.7521348503512, 110.82830689337537 689.3918964986943, 112.0 634.0 C 113.17740753568972 578.3379533557318, 112.8439105390642 522.6439549192697, 111.0 467.0 C 108.84151762185282 522.6738123719487, 106.5081689425871 578.3408451487164, 104.0 634.0 C 101.50614638017326 689.3414813673579, 98.83946237492492 744.6751744762613, 96.0 800.0 Z" fill="green"/>
<path d="M 104.0 800.0 L 112.0 800.0 C 117.49672676076 751.1375492386074, 121.49921912533998 702.1070177725028, 124.0 653.0 C 126.49300641290785 604.0456467953144, 127.4936256356868 555.0153048791468, 127.0 506.0 C 123.49895571349727 555.0122058941438, 119.83226112440362 604.0125790393046, 116.0 653.0 C 112.16571128630441 702.0133394372701, 108.16568079323373 751.013712977386, 104.0 800.0 Z" fill="green"/>
<path d="M 112.0 800.0 L 120.0 800.0 C 118.13308531567978 763.884254028764, 114.7960736049295 727.8445275526611, 110.0 692.0 C 105.15098492970668 655.759802578561, 98.81050751584701 619.7191941208323, 91.0 584.0 C 94.83181948613834 619.9829236292165, 98.49853761438068 655.9834288883231, 102.0 692.0 C 105.49834129900778 727.9844671432458, 108.83172133222672 763.9849715020104, 112.0 800.0 Z" fill="green"/>
<path d="M 120.0 800.0 L 128.0 800.0 C 128.64564036845485 753.9934602621038, 127.97861206167046 707.9685070939813, 126.0 662.0 C 124.00210385550051 615.5834715300756, 120.66692690144508 569.2245118687052, 116.0 523.0 C 116.66424299428526 569.3333681640481, 117.33090966216805 615.6667015819021, 118.0 662.0 C 118.66427773823067 708.0000345807877, 119.33094440609602 754.0000346634974, 120.0 800.0 Z" fill="green"/>
<path d="M 128.0 800.0 L 136.0 800.0 C 138.8234214855896 742.7142417360941, 140.1573555106344 685.3550786591669, 140.0 628.0 C 139.84170612926735 570.3028950779499, 138.17427961556913 512.6099377039912, 135.0 455.0 C 134.17095872390115 512.6694622821717, 133.1709528648546 570.3364668205235, 132.0 628.0 C 130.83567594580222 685.3370976288056, 129.50233488860528 742.6707630882737, 128.0 800.0 Z" fill="green"/>
<path d="M 136.0 800.0 L 144.0 800.0 C 146.82247635708939 747.3850847150688, 148.15652070602533 694.6903329320987, 148.0 642.0 C 147.8424609983822 588.9668732283278, 146.17489395961826 535.9382413956345, 143.0 483.0 C 142.1713322555273 536.0030480047051, 141.17132528897486 589.0034172319837, 140.0 642.0 C 138.83587581235065 694.6707691225575, 137.5025333041408 747.3377981968473, 136.0 800.0 Z" fill="green"/>
<path d="M 144.0 800.0 L 152.0 800.0 C 158.32766496392057 761.1855727617229, 163.33153956215855 722.1553508954667, 167.0 683.0 C 170.67623297914156 643.7616888035808, 173.01138212904206 604.3977459909726, 174.0 565.0 C 169.02111337851315 604.3360133987587, 164.02111241811136 643.6693542872529, 159.0 683.0 C 154.02075987409714 722.0026577784214, 149.02075892964663 761.0026651451356, 144.0 800.0 Z" fill="green"/>
<path d="M 152.0 800.0 L 160.0 800.0 C 157.29889989506887 763.8714515609208, 153.29543735986505 727.8402887440865, 148.0 692.0 C 142.6474422013643 655.7731118346372, 135.97487946208017 619.7412730425027, 128.0 584.0 L 140.0 692.0 L 152.0 800.0 Z" fill="green"/>
<path d="M 160.0 800.0 L 168.0 800.0 C 165.4531645489793 747.9018158923691, 161.45108488839367 695.8747803047561, 156.0 644.0 C 150.48139924336917 591.482710744531, 143.47766912052782 539.1214903023363, 135.0 487.0 C 139.48671569672737 539.3204819828767, 143.82007384969714 591.6541150610499, 148.0 644.0 C 152.15136497637494 695.9882087814312, 156.15138757478692 747.9885025607871, 160.0 800.0 Z" fill="green"/>
<path d="M 168.0 800.0 L 176.0 800.0 C 177.47688524018346 759.6846946419348, 177.47688524018344 719.3153053580652, 176.0 679.0 C 174.50685532641813 638.2408524228031, 171.5041140979948 597.5370268819534, 167.0 557.0 C 167.50068304469855 597.6650653701066, 167.8340201413465 638.3321911611554, 168.0 679.0 C 168.16461383059297 719.3331093850414, 168.16461383059297 759.6668906149586, 168.0 800.0 Z" fill="green"/>
<path d="M 176.0 800.0 L 184.0 800.0 C 182.96174978595604 758.2742539472268, 180.62691529018784 716.5807808085091, 177.0 675.0 C 173.32399731678652 632.8564566325244, 168.3206928721249 590.828699297367, 162.0 549.0 C 164.3239919548163 591.000518270791, 166.65732536509904 633.0005196558805, 169.0 675.0 C 171.32413941506115 716.6671808477498, 173.65747282413108 758.3338488668554, 176.0 800.0 Z" fill="green"/>
<path d="M 184.0 800.0 L 192.0 800.0 C 195.32319657160318 763.7556376814921, 197.32496748158357 727.3901328168486, 198.0 691.0 C 198.68031052783115 654.3253365000068, 198.01304428987464 617.6256934123986, 196.0 581.0 C 194.00918853100177 617.667167089453, 192.00918844727119 654.3338352911802, 190.0 691.0 C 188.00902247284225 727.3338292341234, 186.00902239062262 763.6671640611132, 184.0 800.0 Z" fill="green"/>
<path d="M 192.0 800.0 L 200.0 800.0 C 197.79283666091644 744.9156524911951, 194.12445060756383 689.8898616909062, 189.0 635.0 C 183.81869618526852 579.5011628467273, 177.1488336065561 524.1413034434144, 169.0 469.0 C 173.15529515643559 524.3219611177813, 177.1553161637174 579.6555850518462, 181.0 635.0 C 184.8200376626775 689.989632053911, 188.48672333992226 744.9899172125823, 192.0 800.0 Z" fill="green"/>
<path d="M 200.0 800.0 L 208.0 800.0 C 214.66396465898143 749.4851997099415, 219.99975496222444 698.7951918291328, 224.0 648.0 C 228.00991085010486 597.0820714917849, 230.67781194596293 546.0584630334997, 232.0 495.0 C 226.68407598732642 546.0018185799927, 221.35074223968783 597.0018225417866, 216.0 648.0 C 210.68385038505633 698.6684735150177, 205.3505166427574 749.3351440668574, 200.0 800.0 Z" fill="green"/>
<path d="M 208.0 800.0 L 216.0 800.0 C 221.15666000215023 767.8589011731873, 224.82853653762362 735.4796262694674, 227.0 703.0 C 229.1803380636724 670.3876320388675, 229.84795973881046 637.6741699571014, 229.0 605.0 C 225.85096832090355 637.685122879517, 222.51756427923752 670.3524824878443, 219.0 703.0 C 215.51411498454706 735.3534932279987, 211.84737193337065 767.687500133827, 208.0 800.0 Z" fill="green"/>
<path d="M 216.0 800.0 L 224.0 800.0 C 228.99797039683108 745.4334961150471, 232.66608843906585 690.7451907580923, 235.0 636.0 C 237.32906792166756 581.3684236393217, 238.3294621100527 526.6802080076001, 238.0 472.0 L 227.0 636.0 L 216.0 800.0 Z" fill="green"/>
<path d="M 224.0 800.0 L 232.0 800.0 C 233.47796904397032 758.0173378797434, 233.4779690439703 715.9826621202566, 232.0 674.0 C 230.50655859831875 631.5778355988044, 227.504029624118 589.2088156295268, 223.0 547.0 C 223.5006561543217 589.3317953640945, 223.8339929593565 631.6655696035142, 224.0 674.0 C 224.16469478636873 715.9997847269805, 224.1646947863687 758.0002152730195, 224.0 800.0 Z" fill="green"/>
<path d="M 232.0 800.0 L 240.0 800.0 C 243.66594693274243 751.0755769214514, 246.00043185770957 702.0513934971416, 247.0 653.0 C 247.99845959778708 604.0030056481921, 247.66496211607657 554.9788758367475, 246.0 506.0 L 239.0 653.0 L 232.0 800.0 Z" fill="green"/>
<path d="M 240.0 800.0 L 248.0 800.0 C 248.31557445474215 742.3205248755842, 247.3152275658036 684.633854280129, 245.0 627.0 C 242.66708867218523 568.9259370000332, 238.99913057451784 510.905508909658, 234.0 453.0 C 234.9971023655712 511.00004991094545, 235.99710236723516 569.0000500074544, 237.0 627.0 C 237.99713557107208 684.666716291403, 238.99713557271696 742.3333830529244, 240.0 800.0 Z" fill="green"/>
<path d="M 248.0 800.0 L 256.0 800.0 C 257.8109516977141 762.3657393075445, 258.144627122938 724.6604162572402, 257.0 687.0 C 255.84244215054605 648.9141381689655, 253.17297655977555 610.8742535004857, 249.0 573.0 C 249.16887460943897 610.999749836217, 249.16887460943897 649.000250163783, 249.0 687.0 C 248.83260020182118 724.6678914287974, 248.49926255597188 762.3350454097672, 248.0 800.0 Z" fill="green"/>
<path d="M 256.0 800.0 L 264.0 800.0 C 261.79766670839484 762.8743445441886, 258.1271808765077 725.8358056951454, 253.0 689.0 C 247.8156214651916 651.7532624734779, 241.14185505104217 614.7138588749484, 233.0 578.0 C 237.16494528622607 614.9819200248348, 241.164998299576 651.9824103983217, 245.0 689.0 C 248.8314619351249 725.9834217995848, 252.49817710769472 762.9839112682439, 256.0 800.0 Z" fill="green"/>
<path d="M 264.0 800.0 L 272.0 800.0 C 275.6658731747852 753.4126881466564, 278.0004761162233 706.7206293178941, 279.0 660.0 C 279.9983019507784 613.336487354947, 279.66478768807303 566.644490576204, 278.0 520.0 L 271.0 660.0 L 264.0 800.0 Z" fill="green"/>
<path d="M 272.0 800.0 L 280.0 800.0 C 277.2688537039745 761.880683345907, 273.26588722747937 723.8525018192032, 268.0 686.0 C 262.6377741717644 647.4549924542491, 255.9659808046483 609.0921805933312, 248.0 571.0 C 251.98257152221396 609.3351492871064, 255.9825720734286 647.6684879029135, 260.0 686.0 C 263.9828716830963 724.0018003787916, 267.9828722248691 762.0018055256331, 272.0 800.0 Z" fill="green"/>
<path d="M 280.0 800.0 L 288.0 800.0 C 294.82750919637823 754.5243973664453, 300.1646589123283 708.8250529236225, 304.0 663.0 C 307.8421916547636 617.0930957905678, 310.1772006258635 571.0600617888844, 311.0 525.0 C 306.18440660213264 571.0197949378411, 301.18435304832616 617.0202876328609, 296.0 663.0 C 290.84857598261857 708.6876667912974, 285.5151862485816 754.3548163889888, 280.0 800.0 Z" fill="green"/>
<path d="M 288.0 800.0 L 296.0 800.0 C 296.99672273828855 753.003113048311, 296.6632114554649 705.9780221701731, 295.0 659.0 C 293.3334448433108 611.9275337531402, 290.3318368516223 564.9023418833534, 286.0 518.0 L 287.0 659.0 L 288.0 800.0 Z" fill="green"/>
<path d="M 296.0 800.0 L 304.0 800.0 C 306.987535207996 766.0819179344534, 308.65588112157764 732.0476612973885, 309.0 698.0 C 309.34722461818257 663.6450519419502, 308.34619879945467 629.2764988322933, 306.0 595.0 C 304.3415235683547 629.3337302647664, 302.6748568384593 663.6670649006129, 301.0 698.0 C 299.3413654927029 732.0003930992817, 297.67469876402635 766.0003943642835, 296.0 800.0 Z" fill="green"/>
<path d="M 304.0 800.0 L 312.0 800.0 C 315.9935822648702 757.0960090893595, 318.66194408651256 714.0686747153774, 320.0 671.0 C 321.34584541704737 627.680600638787, 321.34584541704737 584.319399361213, 320.0 541.0 C 317.34366960920005 584.3339685869087, 314.6770028413854 627.6673035638967, 312.0 671.0 C 309.34351149999344 714.0006303979907, 306.6768447337231 757.0006320041002, 304.0 800.0 Z" fill="green"/>
<path d="M 312.0 800.0 L 320.0 800.0 C 319.3141623123967 767.6032228206147, 317.31196315414496 735.2343364288776, 314.0 703.0 C 310.6600864663829 670.4936309749586, 305.98820144578843 638.1241419036971, 300.0 606.0 L 306.0 703.0 L 312.0 800.0 Z" fill="green"/>
<path d="M 320.0 800.0 L 328.0 800.0 C 333.996135758135 743.4533004144928, 338.66451714237326 686.7658121773138, 342.0 630.0 C 345.3262975614657 573.3905102560268, 347.3270283984117 516.7031365425571, 348.0 460.0 L 334.0 630.0 L 320.0 800.0 Z" fill="green"/>
<path d="M 328.0 800.0 L 336.0 800.0 C 339.3239501137783 761.0829344655359, 341.32548858965595 722.0529341859223, 342.0 683.0 C 342.67948322448285 643.6592071843066, 342.0122961440127 604.2951694365663, 340.0 565.0 C 338.0085609920151 604.3337680153041, 336.00856092885215 643.6671025908416, 334.0 683.0 C 332.00841669159104 722.000431018146, 330.0084166294914 761.0004322290891, 328.0 800.0 Z" fill="green"/>
<path d="M 336.0 800.0 L 344.0 800.0 C 348.325179333356 767.4731510173971, 351.32847921386036 734.7705523185718, 353.0 702.0 C 354.68159250003794 669.0319893967462, 355.01529691909076 635.9952519105177, 354.0 603.0 C 351.0152560170287 636.0013845403056, 348.01525558959156 669.0013892421144, 345.0 702.0 C 342.0149506279413 734.668037383517, 339.0149502090252 767.3347086117146, 336.0 800.0 Z" fill="green"/>
<path d="M 344.0 800.0 L 352.0 800.0 C 353.98855556416964 747.0276219036313, 354.6554987750138 694.0056366415157, 354.0 641.0 C 353.33996622109316 587.6276490675032, 351.3391250689039 534.2718850091219, 348.0 481.0 C 347.33543600999036 534.3333595891544, 346.66876934263286 587.6666929777533, 346.0 641.0 C 345.33540981071457 694.0000260920901, 344.6687431433657 747.000026146326, 344.0 800.0 Z" fill="green"/>
<path d="M 352.0 800.0 L 360.0 800.0 C 364.99675556559504 747.437199485406, 368.66498321416583 694.7481114422989, 371.0 642.0 C 373.34454054068215 589.0367466002137, 374.34496974301 536.013998876837, 374.0 483.0 C 370.3449174004375 536.0008005654505, 366.6782506169968 589.0008022533657, 363.0 642.0 C 359.3447724930595 694.6674622316647, 355.67810571107606 747.3341305546992, 352.0 800.0 Z" fill="green"/>
<path d="M 360.0 800.0 L 368.0 800.0 C 373.8290397388441 748.4733387413273, 378.1647981787804 696.7777573420864, 381.0 645.0 C 383.8444470617788 593.0534018301951, 385.1785314564119 541.0241104395021, 385.0 489.0 C 381.18002762281986 541.0136393302237, 377.17999566599735 593.0140547689161, 373.0 645.0 C 368.8444936263115 696.6813757744519, 364.51112607755346 748.3484503942593, 360.0 800.0 Z" fill="green"/>
<path d="M 368.0 800.0 L 376.0 800.0 C 383.32959813558455 751.5095771670151, 389.3325906493541 702.8186378886622, 394.0 654.0 C 398.6748463976734 605.1035745254379, 402.0098475412199 556.0790577153032, 404.0 507.0 C 398.0203107555709 556.002484183009, 392.02031006833585 605.0024897954286, 386.0 654.0 C 380.02003739272243 702.6691342384679, 374.02003671466804 751.3358064049089, 368.0 800.0 Z" fill="green"/>
<path d="M 376.0 800.0 L 384.0 800.0 C 386.9995896737562 743.0493783259412, 388.666864239931 686.0285881627631, 389.0 629.0 C 389.3330446667722 571.9870058464377, 388.3326801265176 514.9662270519256, 386.0 458.0 L 381.0 629.0 L 376.0 800.0 Z" fill="green"/>
<path d="M 384.0 800.0 L 392.0 800.0 C 390.4596808019365 750.2595005158805, 387.45795525335444 700.5642664337998, 383.0 651.0 C 378.48813580791534 600.8363652795001, 372.48460073462275 550.8069063353953, 365.0 501.0 C 368.48984445041316 550.9894018719322, 371.8231995607725 600.9897285273221, 375.0 651.0 C 378.1543711317335 700.6571816962888, 381.15439045527773 750.3241682749656, 384.0 800.0 Z" fill="green"/>
<path d="M 392.0 800.0 L 400.0 800.0 C 402.31566465822294 768.3931376577223, 403.3168165843967 736.6899933288868, 403.0 705.0 C 402.67957217862175 672.9487879676411, 401.01094161289654 640.9110811057174, 398.0 609.0 C 397.0052854795077 641.0001648799483, 396.00528546132006 673.0001654619525, 395.0 705.0 C 394.0051759922963 736.6668298367653, 393.0051759744852 768.3334970674489, 392.0 800.0 Z" fill="green"/>
<path d="M 400.0 800.0 L 408.0 800.0 C 414.1587371303314 760.5278961284963, 418.82981917707235 720.8236987311982, 422.0 681.0 C 425.15123606322584 641.4142846662925, 426.8194608587797 601.7105345321112, 427.0 562.0 C 422.831162101698 601.6844067273257, 418.497779102673 641.351528026093, 414.0 681.0 C 409.49798560133604 720.685806625202, 404.8312653477628 760.3529287805744, 400.0 800.0 Z" fill="green"/>
<path d="M 408.0 800.0 L 416.0 800.0 C 420.8270465070778 753.7902888918464, 424.1626931688314 707.4248002934708, 426.0 661.0 C 427.8458045345792 614.360480979586, 428.1793713457223 567.661127419559, 427.0 521.0 C 424.1784370205348 567.6779092883719, 421.1784077846916 614.3450307348212, 418.0 661.0 C 414.842656629944 707.3457705455729, 411.5092912414832 753.6795494451773, 408.0 800.0 Z" fill="green"/>
<path d="M 416.0 800.0 L 424.0 800.0 C 426.14293287988875 767.7195995936286, 426.8105267584916 735.3412964813896, 426.0 703.0 C 425.1791981365329 670.2487106184273, 422.84253674775607 637.5354511755521, 419.0 605.0 C 418.83758934741707 637.6681126468977, 418.50424993045687 670.3353755089989, 418.0 703.0 C 417.50081543061776 735.3364972917301, 416.83413683991836 767.6704089406521, 416.0 800.0 Z" fill="green"/>
<path d="M 424.0 800.0 L 432.0 800.0 C 434.6658867086214 755.0526564099202, 436.0 710.0263328258908, 436.0 665.0 C 436.0 619.9736671741092, 434.6658867086214 574.9473435900798, 432.0 530.0 L 428.0 665.0 L 424.0 800.0 Z" fill="green"/>
<path d="M 432.0 800.0 L 440.0 800.0 C 437.7419608660136 768.8549482289405, 434.07026433169347 737.8124229842339, 429.0 707.0 C 423.7966781907174 675.3789755282528, 417.1203799513492 644.0003738032224, 409.0 613.0 C 413.1455909497952 644.3145179916461, 417.14564854637706 675.6483024982042, 421.0 707.0 C 424.8090169428535 737.9829418537605, 428.4757351717059 768.9833777886034, 432.0 800.0 Z" fill="green"/>
<path d="M 440.0 800.0 L 448.0 800.0 C 453.66336083462505 745.1155917924166, 457.9983857607901 690.094121575707, 461.0 635.0 C 463.9937131271345 580.0509019998012, 465.6610269856048 525.0295446702818, 466.0 470.0 L 453.0 635.0 L 440.0 800.0 Z" fill="green"/>
<path d="M 448.0 800.0 L 456.0 800.0 C 454.7869574651817 757.5917810528379, 452.11819752848623 715.2252170577973, 448.0 673.0 C 443.8211871822595 630.1532746905762, 438.14994039735376 587.4521224277564, 431.0 545.0 C 434.1561106741558 587.6554987657493, 437.15613745305046 630.3225462878065, 440.0 673.0 C 442.82027447041804 715.3234706951826, 445.48696454731396 757.6571756659052, 448.0 800.0 Z" fill="green"/>
<path d="M 456.0 800.0 L 464.0 800.0 C 468.99541373816 763.8171651049952, 472.6653580638677 727.4513531502553, 475.0 691.0 C 477.32371837538994 654.719199157624, 478.324603936225 618.3536904472828, 478.0 582.0 L 467.0 691.0 L 456.0 800.0 Z" fill="green"/>
<path d="M 464.0 800.0 L 472.0 800.0 C 475.8325586155067 748.7494525197116, 478.16722004568464 697.3869010557971, 479.0 646.0 C 479.83199090502103 594.6617874336499, 479.16494550087396 543.2992913143255, 477.0 492.0 C 475.16635394135386 543.3396346990479, 473.16633994000927 594.673327400226, 471.0 646.0 C 468.8330672958993 697.3407168445797, 466.4997176187234 748.6744097424487, 464.0 800.0 Z" fill="green"/>
<path d="M 472.0 800.0 L 480.0 800.0 C 481.1634339078977 744.3377853858577, 480.8299399248682 688.6442902199341, 479.0 633.0 C 477.1668143362733 577.2570142805223, 473.83186880180625 521.563423854922, 469.0 466.0 C 469.8333218799858 521.6645044567813, 470.4999925302504 577.3315037538745, 471.0 633.0 C 471.4999805800779 688.6655024756734, 471.83331590499597 744.3325017369908, 472.0 800.0 Z" fill="green"/>
<path d="M 480.0 800.0 L 488.0 800.0 C 494.991694204493 763.554514990628, 500.66331312569343 726.8558043240371, 505.0 690.0 C 509.3389625545943 653.1248555599207, 512.3415870889337 616.0924863030681, 514.0 579.0 C 508.3586074347472 616.0038649189752, 502.69193900547907 653.0038764277261, 497.0 690.0 C 491.3581592913105 726.6704976692199, 485.6914908929333 763.3371755410724, 480.0 800.0 Z" fill="green"/>
<path d="M 488.0 800.0 L 496.0 800.0 C 502.663405194923 752.1602490230117, 507.9994743659518 704.1356264837522, 512.0 656.0 C 516.0097601883205 607.7532603536644, 518.6778010966801 559.395018889646, 520.0 511.0 C 514.6850236762376 559.3353565821595, 509.35168983003615 607.6686945633603, 504.0 656.0 C 498.6847728668464 704.0020094953495, 493.3514390276098 752.002014048479, 488.0 800.0 Z" fill="green"/>
<path d="M 496.0 800.0 L 504.0 800.0 C 503.9718186541623 757.3058606589259, 502.63765404979193 714.6125933190755, 500.0 672.0 C 497.3315555155195 628.8899721247874, 493.32900313620394 585.8625340471453, 488.0 543.0 C 489.32810980882186 586.0001617580363, 490.66144315527225 629.0001621810617, 492.0 672.0 C 493.3281904410589 714.6668271752135, 494.6615237873069 757.3334942551501, 496.0 800.0 Z" fill="green"/>
<path d="M 504.0 800.0 L 512.0 800.0 C 515.9976875934644 768.1295461298803, 518.6674374688452 736.0925476253121, 520.0 704.0 C 521.3279568892754 672.0183715832868, 521.3279568892752 639.9816284167132, 520.0 608.0 L 512.0 704.0 L 504.0 800.0 Z" fill="green"/>
<path d="M 512.0 800.0 L 520.0 800.0 C 522.322004901339 752.373300110798, 523.3225179234742 704.6821793890232, 523.0 657.0 C 522.6751018583977 608.9659208264725, 521.0075674870747 560.9409309323653, 518.0 513.0 C 517.0035071500233 561.0000729801711, 516.0035071464644 609.0000731510057, 515.0 657.0 C 514.0034586192693 704.6667391414254, 513.0034586157594 752.3334059753934, 512.0 800.0 Z" fill="green"/>
<path d="M 520.0 800.0 L 528.0 800.0 C 525.2598561114484 765.2033886774573, 521.256343638909 730.5062805821168, 516.0 696.0 C 510.6332591551494 660.76899568873, 503.9604898582754 625.7369568801415, 496.0 591.0 C 499.9809295007175 626.0021759768817, 503.98093029237754 661.0021829039074, 508.0 696.0 C 511.9812886881926 730.6688222530315, 515.9812894650387 765.3354956523648, 520.0 800.0 Z" fill="green"/>
<path d="M 528.0 800.0 L 536.0 800.0 C 533.0608369053485 768.8263384854611, 528.7216841119881 737.7847069637285, 523.0 707.0 C 517.117592687615 675.3505447332105, 509.77384990454954 643.9727346601127, 501.0 613.0 C 505.80791841709714 644.3120787769424, 510.4746483373347 675.6458368128232, 515.0 707.0 C 519.471419140765 737.9804885605813, 523.8048098178954 768.9808987892834, 528.0 800.0 Z" fill="green"/>
<path d="M 536.0 800.0 L 544.0 800.0 C 550.8267613786248 747.1644789280069, 556.1629232989695 694.1363698445812, 560.0 641.0 C 563.8214894974697 588.0794839101867, 566.1560503033647 535.0516027477116, 567.0 482.0 C 562.1650632220732 535.0153991530927, 557.1650308967505 588.0157418015133, 552.0 641.0 C 546.831831256194 694.0164470666458, 541.4984634006089 747.016790131523, 536.0 800.0 Z" fill="green"/>
<path d="M 544.0 800.0 L 552.0 800.0 C 558.6565758813191 767.5677995959244, 563.9957698652524 734.8652364443323, 568.0 702.0 C 572.0052458356766 669.1264270589961, 574.6748443145902 636.0901458824395, 576.0 603.0 C 570.6933102659101 636.0042986790696, 565.3599746150347 669.0043130188608, 560.0 702.0 C 554.692781545199 734.6709231763787, 549.3594459397204 767.3376037599346, 544.0 800.0 Z" fill="green"/>
<path d="M 552.0 800.0 L 560.0 800.0 C 566.8268253747209 756.5330750854454, 572.1643298913615 712.8322568554502, 576.0 669.0 C 579.8418338943193 625.0973062640284, 582.1769979905981 581.0627833056263, 583.0 537.0 C 578.1850980671303 581.0207710477526, 573.185039096021 625.0212899935145, 568.0 669.0 C 562.8491530822218 712.6886971707897, 557.5157576732452 756.3558720817864, 552.0 800.0 Z" fill="green"/>
<path d="M 560.0 800.0 L 568.0 800.0 C 569.6645211423978 756.3570259814236, 569.9980610424589 712.6632990734226, 569.0 669.0 C 568.0005437719949 625.2756641751382, 565.6657604258671 581.581861554747, 562.0 538.0 L 561.0 669.0 L 560.0 800.0 Z" fill="green"/>
<path d="M 568.0 800.0 L 576.0 800.0 C 574.6537277444165 753.9361181382479, 571.9855978511499 707.9108774794004, 568.0 662.0 C 563.994422738556 615.8589758042529, 558.6581335368088 569.8334814391832, 552.0 524.0 L 560.0 662.0 L 568.0 800.0 Z" fill="green"/>
<path d="M 576.0 800.0 L 584.0 800.0 C 583.1374075265398 743.6185609936401, 580.8030146132734 687.2596463733498, 577.0 631.0 C 573.1608597557697 574.2059314828174, 567.8250582925552 517.5130409361639, 561.0 461.0 C 563.8266006199934 517.6589895524016, 566.4932814492335 574.3259571737524, 569.0 631.0 C 571.4913527724568 687.3266401321073, 573.8246983465824 743.6602689931397, 576.0 800.0 Z" fill="green"/>
<path d="M 584.0 800.0 L 592.0 800.0 C 598.3297117109299 754.492011581219, 603.3325440437135 708.7994762751288, 607.0 663.0 C 610.6770039555245 617.0812875650406, 613.0116659357275 571.0550942410374, 614.0 525.0 C 609.018098617717 571.001964839458, 604.0180981017268 617.0019695865685, 599.0 663.0 C 594.0178387950725 708.6686174688408, 589.0178382864462 754.3352887809606, 584.0 800.0 Z" fill="green"/>
<path d="M 592.0 800.0 L 600.0 800.0 C 600.1541600831816 761.634175976336, 598.8194893618697 723.2623927386187, 596.0 685.0 C 593.1642595782338 646.5170692999372, 588.8265294793645 608.1448415022472, 583.0 570.0 C 584.8330952793016 608.3258559643414, 586.4997828926632 646.6596710716601, 588.0 685.0 C 589.4997075098897 723.3273053908487, 590.8330575891966 761.6611201709222, 592.0 800.0 Z" fill="green"/>
<path d="M 200.0 409.0 L 200.0 244.0 C 200.0 230.19176133042762, 199.29972644087232 216.05032287883216, 203.46448407559444 202.88513207125564 C 205.54686289304456 196.30253666744866, 209.03534926486037 190.05734642171515, 214.1688763314286 185.44066323501096 C 219.30240339799687 180.82398004830677, 226.0958806651691 177.9999999999207, 233.0 178.0 C 239.9041193347862 178.0, 246.69759660188197 180.8239800484458, 251.83112366836394 185.44066323517904 C 256.9646507348459 190.05734642191226, 260.4531371065675 196.30253666764537, 262.5355159239286 202.88513207143362 C 266.70027355879324 216.05032287891686, 265.99999999983595 230.19176133047358, 266.0 244.0 L 266.0 277.0 C 266.0 290.8082386695724, 265.2997264408723 304.94967712116784, 269.46448407559444 318.1148679287444 C 271.5468628930446 324.69746333255137, 275.03534926486043 330.9426535782849, 280.16887633142863 335.55933676498904 C 285.3024033979969 340.1760199516932, 292.0958806651691 343.0000000000793, 299.0 343.0 C 305.9041193347862 343.0, 312.69759660188197 340.1760199515542, 317.83112366836394 335.55933676482096 C 322.9646507348459 330.94265357808774, 326.4531371065675 324.69746333235463, 328.5355159239286 318.11486792856635 C 332.70027355879324 304.94967712108314, 331.99999999983595 290.8082386695264, 332.0 277.0 L 332.0 244.0 C 332.0 230.19176133042762, 331.2997264408723 216.05032287883216, 335.46448407559444 202.88513207125564 C 337.5468628930446 196.30253666744866, 341.03534926486043 190.05734642171515, 346.16887633142863 185.44066323501096 C 351.3024033979969 180.82398004830677, 358.0958806651691 177.9999999999207, 365.0 178.0 C 371.9041193347862 178.0, 378.6975966018819 180.8239800484458, 383.8311236683639 185.44066323517904 C 388.9646507348459 190.05734642191226, 392.45313710656745 196.30253666764537, 394.5355159239286 202.88513207143362 C 398.70027355879324 216.05032287891686, 397.99999999983595 230.19176133047358, 398.0 244.0 L 398.0 409.0 C 398.0 434.9181393921158, 387.3304634573715 460.6766792175649, 369.0035713374682 479.0035713374682 C 350.6766792175649 497.3304634573715, 324.9181393921158 508.0, 299.0 508.0 C 273.0818606078842 508.0, 247.32332078243505 497.3304634573715, 228.9964286625318 479.0035713374682 C 210.66953654262855 460.6766792175649, 200.0 434.9181393921158, 200.0 409.0 Z" fill="white" stroke="#222" stroke-width="8"/>
<path d="M 216.0 310.0 L 216.0 244.0 C 216.0 234.22834905515546, 215.1020924443995 224.4122681509689, 216.1841437241162 214.70071177642498 C 216.72516936379034 209.844933589686, 217.9808881723563 204.95096086504498, 220.76278042847377 200.93444919234338 C 222.15372655653243 198.92619335599267, 223.92588456807474 197.1637763205271, 226.02493950620254 195.91405995185806 C 228.12399444433038 194.664343583189, 230.55779331036828 193.94127078651735, 233.0 194.0 C 235.41232855641024 194.0580107160999, 237.77996892273725 194.8771079083559, 239.8018790488464 196.1941400830548 C 241.82378917495552 197.5111722577537, 243.50829248740763 199.31323878994007, 244.81698664953686 201.3405557107158 C 247.43437497379512 205.39518955226723, 248.5521495726032 210.25006315410437, 249.0028752097118 215.05502138795725 C 249.9043264831478 224.66493785507254, 249.00000000072285 234.3478961410834, 249.0 244.0 L 249.0 310.0" fill="lightpink"/>
<path d="M 348.0 310.0 L 348.0 244.0 C 348.0 234.22834905515546, 347.1020924443995 224.4122681509689, 348.1841437241162 214.70071177642498 C 348.72516936379037 209.844933589686, 349.9808881723563 204.95096086504498, 352.7627804284738 200.93444919234338 C 354.15372655653243 198.92619335599267, 355.9258845680747 197.1637763205271, 358.02493950620254 195.91405995185806 C 360.1239944443304 194.664343583189, 362.5577933103683 193.94127078651735, 365.0 194.0 C 367.4123285564103 194.0580107160999, 369.7799689227372 194.8771079083559, 371.8018790488464 196.19414008305478 C 373.82378917495555 197.51117225775369, 375.50829248740763 199.31323878994004, 376.8169866495369 201.3405557107158 C 379.4343749737951 205.39518955226723, 380.55214957260324 210.25006315410437, 381.00287520971176 215.05502138795725 C 381.90432648314777 224.66493785507254, 381.0000000007229 234.3478961410834, 381.0 244.0 L 381.0 310.0" fill="lightpink"/>
<circle cx="266" cy="392.5" r="8"/>
<circle cx="332" cy="392.5" r="8"/>
<circle cx="299" cy="425.5" r="11"/>
<path d="M 322.0 455.0 C 315.7063661758018 455.0521961277266, 309.4320989331617 452.4686743219336, 305.0 448.0 C 302.0772695333536 445.0531500349613, 299.9507898076094 441.3239327935063, 298.90312404021506 437.3078806851613 C 297.8554582728207 433.29182857681633, 297.8892468500779 428.99906308240446, 299.0 425.0 C 299.8719722839633 429.09088013900083, 299.68769047885155 433.40230512834063, 298.4698259324832 437.4038600664079 C 297.2519613861149 441.40541500447523, 295.0031316627347 445.0884993230377, 292.0 448.0 C 287.49276132443146 452.36971466086123, 281.27730583260774 454.9290198633769, 275.0 455.0" fill="none" stroke="black" stroke-width="6.8" stroke-linecap="round"/>
<circle cx="299" cy="706.0" r="33" fill="white" stroke="#222" stroke-width="8"/>
<path d="M 299.0 508.0 C 285.6168687650313 508.0, 272.1798037521314 509.686385334832, 259.4080482065763 513.6851928992162 C 246.63629266102126 517.6840004636003, 234.5346850468751 524.164640813866, 224.7968955388809 533.3452539279446 C 215.05910603136724 542.5258670405552, 207.9255297722978 554.3819492776137, 204.1390089945377 567.2182439928216 C 200.3524882167781 580.0545387080286, 200.00000000073817 593.616868766389, 200.0 607.0 L 200.0 706.0 C 200.0 710.4803295401729, 199.9057151881855 715.0167262087557, 198.70087075556614 719.3320133002169 C 197.49602632294682 723.647300391678, 195.18402558593164 727.6684630743459, 191.93767221017092 730.7562685326336 C 188.69131883433857 733.8440739907251, 184.59476387883424 735.9595256454222, 180.28628380138116 737.1884895220222 C 175.9778037239281 738.4174533986222, 171.47600979743478 738.8033045982604, 167.0 739.0 C 153.26484493211893 739.6035826481465, 139.17520048289057 738.6166348120972, 126.08261538347331 742.8122291879157 C 119.53632283377183 744.9100263758216, 113.31886678251624 748.3478646059922, 108.63549108832545 753.3798315469534 C 103.95211539413467 758.4117984879146, 100.90620358737455 765.1264345917972, 101.0 772.0 C 101.09329594894974 778.8368905533837, 104.27741090358944 785.4242477310315, 108.9973232212972 790.371388752489 C 113.71723553900495 795.3185297739465, 119.88223449568491 798.7297340092009, 126.36592228611502 800.9008095973056 C 139.33329786696706 805.2429607734878, 153.32494583953329 805.0000000000233, 167.0 805.0 L 200.0 805.0 C 209.08875049282324 805.0, 218.27486273270944 804.8764663336966, 227.0912347632353 802.6680801038545 C 235.90760679376112 800.4596938740125, 244.2576835112966 796.1111177224899, 250.68440061728444 789.684400616502 C 257.1111177230905 783.2576835105691, 261.45969387445064 774.9076067931444, 263.668080104165 766.0912347627592 C 265.87646633387936 757.274862732374, 266.00000000008976 748.0887504926558, 266.0 739.0 L 266.0 722.0 C 266.0 716.4456784896975, 266.0259013637569 710.8696819505433, 266.82522072908733 705.3731761521276 C 267.6245400944178 699.8766703537119, 269.21190275919724 694.454689775414, 271.9281019712079 689.6098214304037 C 274.6443011832178 684.7649530853961, 278.49874363441177 680.5296612408371, 283.20520257470935 677.5801304844161 C 287.9116615150069 674.6305997279952, 293.44567848970013 672.9999999999994, 299.0 673.0 C 304.55432151030254 673.0, 310.0883384849983 674.6305997279973, 314.7947974252978 677.5801304844201 C 319.5012563655973 680.529661240843, 323.35569881679277 684.7649530854045, 326.07189802880345 689.6098214304147 C 328.78809724081174 694.4546897754238, 330.3754599055891 699.8766703537201, 331.17477927091767 705.3731761521339 C 331.97409863624625 710.8696819505476, 332.00000000000153 716.4456784896996, 332.0 722.0 L 332.0 739.0 C 332.0 748.0887504928232, 332.12353366630344 757.2748627327095, 334.3319198961455 766.0912347632353 C 336.54030612598757 774.9076067937611, 340.88888227751016 783.2576835112966, 347.315599383498 789.6844006172844 C 353.74231648943095 796.1111177230905, 362.0923932068556 800.4596938744506, 370.90876523724086 802.668080104165 C 379.72513726762605 804.8764663338793, 388.9112495073442 805.0000000000897, 398.0 805.0 L 431.0 805.0 C 444.6750541604831 805.0, 458.6667021330666 805.242960773441, 471.63407771392684 800.9008095972316 C 478.1177655043439 798.7297340091345, 484.28276446101205 795.3185297738903, 489.0026767787118 790.3713887524457 C 493.7225890964116 785.4242477310011, 496.90670405104737 778.8368905533688, 497.0 772.0 C 497.0937964126265 765.1264345917893, 494.04788460586377 758.4117984878987, 489.36450891166834 753.3798315469312 C 484.6811332174729 748.3478646059637, 478.4636771662107 744.9100263757884, 471.9173846165021 742.8122291878792 C 458.82479951709024 738.6166348120744, 444.73515506787226 739.6035826481346, 431.0 739.0 C 426.52399020249027 738.8033045980654, 422.0221962759296 738.4174533982276, 417.7137161984488 737.1884895214207 C 413.405236120968 735.9595256446137, 409.3086811654778 733.8440739897021, 406.062327789717 730.7562685314143 C 402.81597441407297 727.668463073302, 400.5039736771219 723.6473003908422, 399.29912924451287 719.3320132995915 C 398.09428481190395 715.0167262083409, 398.0000000000466 710.4803295399672, 398.0 706.0 L 398.0 607.0 C 398.0 593.6168687650313, 397.64751178467236 580.0545387052758, 393.8609910072367 567.2182439885579 C 390.0744702298011 554.381949271841, 382.94089397066307 542.5258670331881, 373.20310446266944 533.3452539191104 C 363.4653149538102 524.1646408062948, 351.36370733914595 517.6840004575114, 338.5919517933651 513.6851928946413 C 325.82019624758425 509.68638533177125, 312.3831312347317 507.9999999984876, 299.0 508.0 Z" fill="white" stroke="#222" stroke-width="8"/>
<path d="M 104.3 762.0999999999999 L 134 762.0999999999999" fill="none" stroke="#222" stroke-linecap="round" stroke-width="8"/>
<path d="M 104.3 781.9000000000001 L 134 781.9000000000001" fill="none" stroke="#222" stroke-linecap="round" stroke-width="8"/>
<path d="M 493.7 762.0999999999999 L 464 762.0999999999999" fill="none" stroke="#222" stroke-linecap="round" stroke-width="8"/>
<path d="M 493.7 781.9000000000001 L 464 781.9000000000001" fill="none" stroke="#222" stroke-linecap="round" stroke-width="8"/>
<path d="M 249.0 574.0 L 249.0 607.0 C 249.0 611.2860241495455, 249.01412610551617 615.5869106100391, 249.59094227224065 619.8339432353308 C 250.16775843896514 624.0809758606225, 251.32026910276159 628.2815247837416, 253.34068690081475 632.0614606207363 C 255.3611046988676 635.8413964577301, 258.26234905805234 639.1771432303532, 261.85500038880525 641.5144193000799 C 265.44765171955817 643.8516953698066, 269.71397585903725 645.1581406414942, 274.0000000085817 645.158140641494 C 278.28602415724345 645.1581406401451, 282.55234829543264 643.8516953673839, 286.14499962471 641.5144192970076 C 289.7376509539874 639.1771432266314, 292.63889531152466 635.8413964537821, 294.6593131079716 632.0614606169308 C 296.67973090441774 628.2815247800801, 297.83224156665375 624.0809758574651, 298.409057731922 619.8339432328683 C 298.9858738971903 615.5869106082714, 299.00000000134946 611.2860241486609, 299.0 607.0 L 299.0 574.0 L 299.0 607.0 C 299.0 611.2003036665545, 299.0138435834059 615.4151723978383, 299.5791234267959 619.5772643706242 C 300.1444032701859 623.7393563434101, 301.2738637207064 627.8558942880667, 303.25387316279847 631.5602314083216 C 305.23388260489025 635.2645685285754, 308.07710207689126 638.5336003657461, 311.59790038102915 640.8241309140783 C 315.11869868516703 643.1146614624105, 319.2996963418565 644.3949778286643, 323.50000000841004 644.3949778286641 C 327.70030367409856 644.3949778273421, 331.881301329524 643.114661460036, 335.40209963221577 640.8241309110673 C 338.9228979349076 638.5336003620986, 341.7661174052941 635.2645685247063, 343.74612684581217 631.5602314045922 C 345.72613628632934 627.8558942844785, 346.85559673532066 623.7393563403158, 347.4208765772836 619.5772643682109 C 347.98615641924647 615.415172396106, 348.00000000132246 611.2003036656877, 348.0 607.0 L 348.0 574.0" fill="none" stroke="black" stroke-width="6.8"/>
<path d="M 266 623.5 L 266 640.0" fill="none" stroke="black" stroke-linecap="round" stroke-width="6.8"/>
<path d="M 282.5 623.5 L 282.5 640.0" fill="none" stroke="black" stroke-linecap="round" stroke-width="6.8"/>
<path d="M 332 623.5 L 332 640.0" fill="none" stroke="black" stroke-linecap="round" stroke-width="6.8"/>
<path d="M 315.5 623.5 L 315.5 640.0" fill="none" stroke="black" stroke-linecap="round" stroke-width="6.8"/>
<path d="M -8.0 800.0 L 1.0 800.0 C -0.08554398673394381 778.1775585508668, -2.761624952600009 756.434400703205, -7.0 735.0 C -11.365184548370188 712.9242955833739, -17.387653679553104 691.1764903874356, -25.0 670.0 C -21.836033733253327 691.6435418047166, -18.83591911335817 713.3110362817372, -16.0 735.0 C -13.169684604931433 756.6461067686065, -10.502916456160035 778.313597977374, -8.0 800.0 Z" fill="green"/>
<path d="M 9.0 800.0 L 18.0 800.0 C 14.446798685220553 777.0461762001755, 9.433340475959396 754.3184989848583, 3.0 732.0 C -3.780723447557726 708.4763624828432, -12.13897563032079 685.4075864584172, -22.0 663.0 C -16.542090701076617 685.9708756111694, -11.20865297145949 708.9713258201433, -6.0 732.0 C -0.8792992852668302 754.6398166624464, 4.1207953088720455 777.3069121558759, 9.0 800.0 Z" fill="green"/>
<path d="M 32.0 800.0 L 41.0 800.0 C 45.64026966664948 780.9691408702528, 48.654800692062175 761.5421631509266, 50.0 742.0 C 51.352421503961885 722.3529175763847, 51.017456220497984 702.5899658520143, 49.0 683.0 C 46.523303174942285 702.6918029126571, 43.85647077526828 722.3596918602528, 41.0 742.0 C 38.18410738945983 761.3613038292863, 35.18392619952728 780.6958048310738, 32.0 800.0 Z" fill="green"/>
<path d="M 53.0 800.0 L 62.0 800.0 C 61.230693916218726 774.8868050316428, 58.891294323865125 749.8218093992828, 55.0 725.0 C 50.97668259230776 699.3360410354777, 45.29426666913739 673.9322992613043, 38.0 649.0 C 40.81734792225889 674.3171699635449, 43.484077509635654 699.6511010436241, 46.0 725.0 C 48.479907184252085 749.9860307205621, 50.81329400824804 774.9866038348046, 53.0 800.0 Z" fill="green"/>
<path d="M 68.0 800.0 L 77.0 800.0 C 82.12712620871628 786.4378223605403, 85.82091046263133 772.3342824819555, 88.0 758.0 C 90.16044605525022 743.7883563240919, 90.83195912556958 729.3508253122254, 90.0 715.0 C 86.37470401131606 729.3438741430268, 82.70801699028299 743.6772870434288, 79.0 758.0 C 75.37286054406971 772.0103126325694, 71.70617440127351 786.0103869959729, 68.0 800.0 Z" fill="green"/>
<path d="M 83.0 800.0 L 92.0 800.0 C 100.08700338716312 782.5694008684568, 106.78190784015953 764.4931588453665, 112.0 746.0 C 117.08229909209673 727.9880980383681, 120.76369840746165 709.5811014615435, 123.0 691.0 C 116.3881940153698 709.3532207594775, 109.72148757991134 727.6866634569883, 103.0 746.0 C 96.38633256436744 764.0195702353576, 89.7196273945479 782.0196741938703, 83.0 800.0 Z" fill="green"/>
<path d="M 105.0 800.0 L 114.0 800.0 C 111.7419813639314 777.135216657095, 108.06593423872894 754.4105617012981, 103.0 732.0 C 97.78706140385165 708.9391238518382, 91.10233489109666 686.2110537084711, 83.0 664.0 L 94.0 732.0 L 105.0 800.0 Z" fill="green"/>
<path d="M 122.0 800.0 L 131.0 800.0 C 135.99017293253556 778.6318235965784, 139.33660902248815 756.8799890118868, 141.0 735.0 C 142.64401113771888 713.3749304192362, 142.64401113771888 691.6250695807638, 141.0 670.0 C 138.1630550639765 691.6888269376267, 135.16294187230417 713.3563110997045, 132.0 735.0 C 128.83008751864173 756.6913880676857, 125.49662786182394 778.3588758370013, 122.0 800.0 Z" fill="green"/>
<path d="M 143.0 800.0 L 152.0 800.0 C 153.6256487797236 784.0550948855445, 153.6256487797236 767.9449051144555, 152.0 752.0 C 150.33932255268732 735.7115220376081, 146.98203234193807 719.5965290260116, 142.0 704.0 C 142.49998191668655 719.9959492373257, 142.8333393611045 735.9971065693869, 143.0 752.0 C 143.16662448168395 767.9994215850285, 143.16662448168395 784.0005784149715, 143.0 800.0 Z" fill="green"/>
<path d="M 154.0 800.0 L 163.0 800.0 C 166.15838103723385 784.5402627510972, 167.83519591689097 768.7782028823203, 168.0 753.0 C 168.16447076756143 737.2537084649894, 166.82305169007918 721.4920343045732, 164.0 706.0 L 159.0 753.0 L 154.0 800.0 Z" fill="green"/>
<path d="M 179.0 800.0 L 188.0 800.0 C 184.98656920263676 778.0970097077557, 180.64259860714327 756.3771567302883, 175.0 735.0 C 169.07758411429444 712.5627469849793, 161.72441910044796 690.5032519434399, 153.0 669.0 C 157.3010248087396 691.0063473740894, 161.63436437132714 713.0063789995338, 166.0 735.0 C 170.30197829751356 756.6729219466506, 174.6353176797623 778.3396188578943, 179.0 800.0 Z" fill="green"/>
<path d="M 189.0 800.0 L 198.0 800.0 C 200.48639552270154 784.4756292928145, 201.49242453134224 768.7145081574437, 201.0 753.0 C 200.50457824339054 737.1898428285172, 198.49237290316435 721.427567663412, 195.0 706.0 L 192.0 753.0 L 189.0 800.0 Z" fill="green"/>
<path d="M 213.0 800.0 L 222.0 800.0 C 223.25389586765533 787.3578309805749, 222.9170772197252 774.5587223592308, 221.0 762.0 C 219.00447271151756 748.927353307181, 215.29626200161945 736.1171708548056, 210.0 724.0 C 210.83311240576836 736.6571749418849, 211.49985585161596 749.3253004129896, 212.0 762.0 C 212.4996257448185 774.661562155573, 212.83299738820037 787.3296846040844, 213.0 800.0 Z" fill="green"/>
<path d="M 227.0 800.0 L 236.0 800.0 C 234.65202719093165 783.4875032640595, 231.9738681485536 767.083779129494, 228.0 751.0 C 223.77242906611394 733.889387716691, 218.0781217449994 717.1414250075305, 211.0 701.0 C 213.63988525587288 717.670936982804, 216.3065565121151 734.3376323343178, 219.0 751.0 C 221.6409325663205 767.337520946044, 224.30760364535192 783.6708813051115, 227.0 800.0 Z" fill="green"/>
<path d="M 243.0 800.0 L 252.0 800.0 C 259.93508898020065 779.1864865025875, 266.29259423723187 757.7717319525877, 271.0 736.0 C 275.55686829196344 714.9245032198935, 278.56759729508036 693.5148747532845, 280.0 672.0 C 274.1535953582622 693.3761347865948, 268.1533882895202 714.710204364344, 262.0 736.0 C 255.8209098071026 757.3787203458487, 249.48735607149027 778.7127960868586, 243.0 800.0 Z" fill="green"/>
<path d="M 263.0 800.0 L 272.0 800.0 C 278.7868754424209 780.76649470363, 284.13990240895396 761.0272077645394, 288.0 741.0 C 291.7514731494178 721.5363645829168, 294.09294419101735 701.8011086608636, 295.0 682.0 L 279.0 741.0 L 263.0 800.0 Z" fill="green"/>
<path d="M 285.0 800.0 L 294.0 800.0 C 293.80969827567014 785.5460006597696, 292.13132837306375 771.1120194973544, 289.0 757.0 C 285.6365231382368 741.8417523181505, 280.5960101941529 727.0562476821711, 274.0 713.0 C 276.14674950802635 727.6461563702862, 278.146883114472 742.3138028175549, 280.0 757.0 C 281.8064826335073 771.3166145479228, 283.4732551056086 785.650857807994, 285.0 800.0 Z" fill="green"/>
<path d="M 303.0 800.0 L 312.0 800.0 C 308.81499449640245 775.4134585613397, 304.1368791765892 751.0204286794564, 298.0 727.0 C 291.5767277087323 701.8585967685816, 283.55522637983916 677.1256343378277, 274.0 653.0 C 279.13062752908263 677.6399478780304, 284.1307210780539 702.3070760529555, 289.0 727.0 C 293.7935273592801 751.3087751632586, 298.46027864280256 775.6425497130542, 303.0 800.0 Z" fill="green"/>
<path d="M 323.0 800.0 L 332.0 800.0 C 339.12333022915897 780.4514736927032, 344.81032469062995 760.3797285345703, 349.0 740.0 C 353.1331760486534 719.8950993484481, 355.8091523841508 699.4907797902803, 357.0 679.0 C 351.3774435363051 699.3455919803256, 345.71075909820314 719.6789890817505, 340.0 740.0 C 334.37606082050246 760.0120732646733, 328.70937691864674 780.0121340947524, 323.0 800.0 Z" fill="green"/>
<path d="M 342.0 800.0 L 351.0 800.0 C 355.32530471131025 781.2824383974822, 358.0056381901681 762.18506236062, 359.0 743.0 C 359.9852935662741 723.989898922524, 359.31527226198097 704.8942917501688, 357.0 686.0 C 354.8303649202257 705.0196264131617, 352.49691619843094 724.0205660049189, 350.0 743.0 C 347.4974118517693 762.0225473350141, 344.83061271277336 781.0234912003604, 342.0 800.0 Z" fill="green"/>
<path d="M 357.0 800.0 L 366.0 800.0 C 367.1411938511255 780.3451858873991, 366.80661190901884 760.6048513031069, 365.0 741.0 C 363.1678364811206 721.1178697144121, 359.82166123419785 701.3754357575677, 355.0 682.0 L 356.0 741.0 L 357.0 800.0 Z" fill="green"/>
<path d="M 374.0 800.0 L 383.0 800.0 C 382.02802512716124 785.8180029917619, 379.6801309067433 771.7306376692541, 376.0 758.0 C 372.11476152191807 743.5041021221725, 366.7443302588379 729.4067200565871, 360.0 716.0 L 367.0 758.0 L 374.0 800.0 Z" fill="green"/>
<path d="M 395.0 800.0 L 404.0 800.0 C 407.6125842485279 787.6591253077587, 409.6345133528819 774.8535743135166, 410.0 762.0 C 410.3724977924197 748.8998550446595, 409.0239781416122 735.751788449286, 406.0 723.0 C 404.52461615475556 736.023571019317, 402.85770922706854 749.0254450552758, 401.0 762.0 C 399.1823796228657 774.6945676471621, 397.18210361898707 787.3629823383936, 395.0 800.0 Z" fill="green"/>
<path d="M 410.0 800.0 L 419.0 800.0 C 419.1314748240073 777.2787599601912, 417.7944376229917 754.5491275429265, 415.0 732.0 C 412.1597988196117 709.0815930414004, 407.8140303033954 686.3498808027306, 402.0 664.0 L 406.0 732.0 L 410.0 800.0 Z" fill="green"/>
<path d="M 431.0 800.0 L 440.0 800.0 C 437.3470684500287 786.6354300609474, 433.3190094406263 773.5442382803895, 428.0 761.0 C 422.16101946741395 747.2294730000159, 414.7656865434818 734.1195646348634, 406.0 722.0 C 410.4848353232277 734.9488437042714, 414.8185620360193 747.9500238426463, 419.0 761.0 C 423.1503935431018 773.9530886856805, 427.15075129072324 786.9542513654502, 431.0 800.0 Z" fill="green"/>
<path d="M 446.0 800.0 L 455.0 800.0 C 461.45398868070714 782.4467183149194, 466.47607997769893 764.367189645749, 470.0 746.0 C 473.4160272552296 728.1951633309545, 475.42433073628723 710.1204320014363, 476.0 692.0 L 461.0 746.0 L 446.0 800.0 Z" fill="green"/>
<path d="M 462.0 800.0 L 471.0 800.0 C 470.07312358756775 782.5158032210497, 467.729618009469 765.1069046408876, 464.0 748.0 C 460.1323890836147 730.2601534616467, 454.77405172855026 712.8455570576872, 448.0 696.0 L 455.0 748.0 L 462.0 800.0 Z" fill="green"/>
<path d="M 479.0 800.0 L 488.0 800.0 C 485.10173743466356 779.7246473898639, 480.7536776890801 759.656679333325, 475.0 740.0 C 468.8895371730326 719.1244114011008, 461.1934833564308 698.713138235331, 452.0 679.0 C 456.79216962927813 699.3042573028808, 461.45895493231683 719.6381075518351, 466.0 740.0 C 470.4544284843119 759.9735066187916, 474.7878678175535 779.9739958491375, 479.0 800.0 Z" fill="green"/>
<path d="M 497.0 800.0 L 506.0 800.0 C 505.7226421105344 781.243889759546, 504.04984540984714 762.5085667118485, 501.0 744.0 C 497.8158307598802 724.6762635862495, 493.13045417307984 705.600087482848, 487.0 687.0 C 488.6517713768952 706.0013026821443, 490.3184387264166 725.001310466688, 492.0 744.0 C 493.652287456285 762.6679468033001, 495.3189547822381 781.3346208539746, 497.0 800.0 Z" fill="green"/>
<path d="M 521.0 800.0 L 530.0 800.0 C 537.3974908076231 785.2636967964858, 543.4315514025577 769.8433197205414, 548.0 754.0 C 552.3343833602803 738.9684154470375, 555.349712393408 723.5567337221623, 557.0 708.0 L 539.0 754.0 L 521.0 800.0 Z" fill="green"/>
<path d="M 535.0 800.0 L 544.0 800.0 C 549.6235433755836 787.2274387523282, 553.6641171772276 773.7588594135151, 556.0 760.0 C 558.2397068389898 746.807638112354, 558.9125899083568 733.3499767250133, 558.0 720.0 C 554.4869214624206 733.3749370679543, 550.8199311230214 746.7094473930423, 547.0 760.0 C 543.1546270632497 773.3790714186564, 539.1542692465606 786.7135974742868, 535.0 800.0 Z" fill="green"/>
<path d="M 551.0 800.0 L 560.0 800.0 C 560.7694193415516 778.3208706260505, 560.1008022411719 756.5908148637119, 558.0 735.0 C 555.8383840636336 712.7841775994582, 552.160359757667 690.7160317636584, 547.0 669.0 C 547.6615041530581 691.0001560356261, 548.3281708441981 713.0001568432449, 549.0 735.0 C 549.6616593364984 756.6668203522569, 550.328326026903 778.3334877904077, 551.0 800.0 Z" fill="green"/>
<path d="M 575.0 800.0 L 584.0 800.0 C 584.087919854413 777.9445098883206, 582.750885395041 755.8834413086822, 580.0 734.0 C 577.160434389937 711.4111028100311, 572.8142841282639 689.0117129998702, 567.0 667.0 C 568.3231932499782 689.3339371713558, 569.6565267665496 711.6672735739261, 571.0 734.0 C 572.3234931466744 756.0005949024766, 573.6568266578361 778.000597836644, 575.0 800.0 Z" fill="green"/>
</svg>
