<svg version="1.1"
     xmlns="http://www.w3.org/2000/svg"
     width="610.1346805130312"
     height="805.0">

<rect x="0" y="0" width="600" height="800" fill="skyblue"/>
<circle cx="0" cy="0" r="200" fill="yellow"/>
<path d="M 0.0 800.0 L 8.0 800.0 C 11.16506294210472 764.4244108180085, 12.833693448306914 728.7157179852818, 13.0 693.0 C 13.166241276524024 657.2983004012816, 11.831338104753781 621.5896405564276, 9.0 586.0 C 7.8330148969870494 621.6726263460737, 6.499662230221722 657.3398101820462, 5.0 693.0 C 3.499749265188978 728.6741837593495, 1.8330584127612763 764.3413680013024, 0.0 800.0 Z" fill="green"/>
<path d="M 8.0 800.0 L 16.0 800.0 C 14.438622255659602 763.2345301858286, 11.43554971864642 726.5303102890009, 7.0 690.0 C 2.480715990298437 652.7800706495296, -3.5256633119739247 615.7407316188501, -11.0 579.0 C -7.51403745164094 615.9860379932667, -4.18066629430448 652.9864578397014, -1.0 690.0 C 2.14978763347344 726.6542059367628, 5.149821017316069 763.3212806281726, 8.0 800.0 Z" fill="green"/>
<path d="M 16.0 800.0 L 24.0 800.0 C 31.313166148036977 765.2420942244325, 37.31882166873723 730.2091036870145, 42.0 695.0 C 46.63472933812224 660.1402586529589, 49.97114257889431 625.1079196248522, 52.0 590.0 L 34.0 695.0 L 16.0 800.0 Z" fill="green"/>
<path d="M 24.0 800.0 L 32.0 800.0 C 29.108924455717684 752.8818767510205, 24.772875745728985 705.8524253580661, 19.0 659.0 C 13.141640118621966 611.4537888649304, 5.803574423982726 564.0899102904407, -3.0 517.0 C 1.817161353291441 564.3183347473421, 6.483859476772658 611.6519871426516, 11.0 659.0 C 15.481627303794806 705.9861701845982, 19.814989402277618 752.9864821758348, 24.0 800.0 Z" fill="green"/>
<path d="M 32.0 800.0 L 40.0 800.0 C 37.63031086775715 745.2566335681702, 33.962269666145005 690.5694738350437, 29.0 636.0 C 23.985737988810996 580.858772692577, 17.64998044475318 525.8377203362853, 10.0 471.0 C 13.65550384293939 526.000743429695, 17.322170610298993 581.0007449400891, 21.0 636.0 C 24.655638441431655 690.6674056197751, 28.322305207579817 745.3340737696204, 32.0 800.0 Z" fill="green"/>
<path d="M 40.0 800.0 L 48.0 800.0 C 52.99804256170876 744.431700563103, 56.666109022576556 688.7437824753828, 59.0 633.0 C 61.329219299080656 577.3677981527848, 62.32959953428413 521.6799650597907, 62.0 466.0 L 51.0 633.0 L 40.0 800.0 Z" fill="green"/>
<path d="M 48.0 800.0 L 56.0 800.0 C 55.627618518193536 764.2885263970531, 53.959490213264424 728.5905806715703, 51.0 693.0 C 47.99454729486314 656.8566782625797, 43.65729473448219 620.8241185301843, 38.0 585.0 C 39.65885922361301 621.000360890082, 41.325525942539414 657.0003620188924, 43.0 693.0 C 44.65900298263371 728.6670242326504, 46.32566970059889 764.3336919971051, 48.0 800.0 Z" fill="green"/>
<path d="M 56.0 800.0 L 64.0 800.0 C 65.30817063012121 767.3507975515546, 65.30817063012121 734.6492024484454, 64.0 702.0 C 62.67416334924548 668.9098906309781, 60.00456784309519 635.8736462423681, 56.0 603.0 L 56.0 702.0 L 56.0 800.0 Z" fill="green"/>
<path d="M 64.0 800.0 L 72.0 800.0 C 70.99077499648709 749.2839050074545, 68.65638006686594 698.5941865356806, 65.0 648.0 C 61.32974588772085 597.2138350515713, 56.32745374126625 546.5239413008313, 50.0 496.0 L 57.0 648.0 L 64.0 800.0 Z" fill="green"/>
<path d="M 72.0 800.0 L 80.0 800.0 C 79.11337797486598 763.9256608368883, 76.77753658265972 727.8869650714203, 73.0 692.0 C 69.1546620849476 655.4689156741056, 63.81538838808895 619.095113614256, 57.0 583.0 C 59.822533408665485 619.3216694397216, 62.48923279927381 655.65544863676, 65.0 692.0 C 67.4862649945769 727.9898702563465, 69.81962640522623 763.9903034492218, 72.0 800.0 Z" fill="green"/>
<path d="M 80.0 800.0 L 88.0 800.0 C 86.12160217146901 751.5809752174599, 82.7862578607032 703.2184827113558, 78.0 655.0 C 73.15159338923661 606.1554084333497, 66.81433932201084 557.4586140220358, 59.0 509.0 C 62.82158831541934 557.6548291394769, 66.48827975693023 606.321824635894, 70.0 655.0 C 73.48607121823984 703.3226380085739, 76.8194267463576 751.6562931662814, 80.0 800.0 Z" fill="green"/>
<path d="M 88.0 800.0 L 96.0 800.0 C 103.15950212613267 744.8331389583269, 108.82892371176358 689.4729046515781, 113.0 634.0 C 117.15418594916524 578.7517270990975, 119.82213856950231 523.3917102271033, 121.0 468.0 C 115.83166920002805 523.349071688832, 110.49830425614272 578.6827329816422, 105.0 634.0 C 99.49843472724903 689.3500754112853, 93.83173443451942 744.6837370932333, 88.0 800.0 Z" fill="green"/>
<path d="M 96.0 800.0 L 104.0 800.0 C 110.49695038271494 741.4737581617952, 115.4991238842712 682.7815890768684, 119.0 624.0 C 122.51006678822233 565.0640945988755, 124.51094075982316 506.03831243665144, 125.0 447.0 C 120.5134697085403 506.01406362919255, 115.84677404543262 565.0144302270539, 111.0 624.0 C 106.1781968564801 682.681672198341, 101.17816610816512 741.3486996452368, 96.0 800.0 Z" fill="green"/>
<path d="M 104.0 800.0 L 112.0 800.0 C 108.64347084704723 750.886988108486, 103.97458372819509 701.8636733605385, 98.0 653.0 C 91.98608016070067 603.8146126972497, 84.64921144566111 554.7909899194854, 76.0 506.0 L 90.0 653.0 L 104.0 800.0 Z" fill="green"/>
<path d="M 112.0 800.0 L 120.0 800.0 C 117.93861515993127 764.5620366842232, 114.60240831425911 729.1982441200984, 110.0 694.0 C 105.30968070242078 658.1294312966714, 99.30430888130917 622.4308321378413, 92.0 587.0 C 95.31767473636465 622.6681277754815, 98.65100849800605 658.3347990250446, 102.0 694.0 C 105.3179647915622 729.3347809477677, 108.65129854530426 764.6681187374335, 112.0 800.0 Z" fill="green"/>
<path d="M 120.0 800.0 L 128.0 800.0 C 132.82530948500306 761.4813290919924, 136.16195905688429 722.7761940581704, 138.0 684.0 C 139.84710759263118 645.0325315513514, 140.1807758298723 605.99334779414, 139.0 567.0 C 136.18056242856034 606.0136091785292, 133.18051956847 645.0141663597038, 130.0 684.0 C 126.84429165846296 722.6817052283194, 123.51091144291327 761.3489157286958, 120.0 800.0 Z" fill="green"/>
<path d="M 128.0 800.0 L 136.0 800.0 C 137.6519560842388 753.0216865117625, 137.98546436731638 705.9970185978231, 137.0 659.0 C 136.00636420608407 611.613284219198, 133.67178582979346 564.2546943001602, 130.0 517.0 C 129.66785281717682 564.3333416765973, 129.33451948370393 611.6666750297469, 129.0 659.0 C 128.66783617006956 706.0000082846497, 128.33450283659863 753.0000083040502, 128.0 800.0 Z" fill="green"/>
<path d="M 136.0 800.0 L 144.0 800.0 C 141.41399624592194 765.8534583336536, 137.40939850989523 731.8143775774267, 132.0 698.0 C 126.46329992209527 663.3898549672829, 119.45487068048861 629.0151782108311, 111.0 595.0 C 115.47899244856048 629.3147398306451, 119.81237779704063 663.6484852839878, 124.0 698.0 C 128.14269954760024 731.9830093490378, 132.14274653696756 765.9834087586601, 136.0 800.0 Z" fill="green"/>
<path d="M 144.0 800.0 L 152.0 800.0 C 157.16138432135477 750.7929635181155, 160.8302984738731 701.4293912842325, 163.0 652.0 C 165.17855219125695 602.3689759176283, 165.84563083252587 552.6716171430936, 165.0 503.0 C 161.84539800436806 552.6784467319986, 158.51203589775767 602.3455421204931, 155.0 652.0 C 151.50976455696613 701.3462350160878, 147.84306663140862 750.6799889235888, 144.0 800.0 Z" fill="green"/>
<path d="M 152.0 800.0 L 160.0 800.0 C 157.48175765808665 744.9055960904984, 153.47982456868246 689.8790161111912, 148.0 635.0 C 142.49051574557882 579.8239498595062, 135.4870961180946 524.7970813578444, 127.0 470.0 C 131.49907313726072 524.9867741694236, 135.83243270843613 579.9871071881881, 140.0 635.0 C 144.16566517286248 689.987784386461, 148.16568937030593 744.9881171013086, 152.0 800.0 Z" fill="green"/>
<path d="M 160.0 800.0 L 168.0 800.0 C 172.1654830638889 753.7691658230822, 174.8340124917123 707.4034670146503, 176.0 661.0 C 177.16409061335807 614.6720247900838, 176.83052519192807 568.306431211317, 175.0 522.0 C 172.83282665349554 568.341501995602, 170.49947331696478 614.6752325352844, 168.0 661.0 C 165.499559078365 707.3427008673413, 162.8328695331979 753.6764317146192, 160.0 800.0 Z" fill="green"/>
<path d="M 168.0 800.0 L 176.0 800.0 C 176.99714144166708 749.6695782021711, 176.66365284856388 699.312800643589, 175.0 649.0 C 173.33343059253144 598.5989957105219, 170.3320283507174 548.242135875642, 166.0 498.0 L 167.0 649.0 L 168.0 800.0 Z" fill="green"/>
<path d="M 176.0 800.0 L 184.0 800.0 C 187.82631600894064 743.7417284445077, 190.16074280134987 687.3819958849127, 191.0 631.0 C 191.84355934982653 574.3289820247016, 191.17657705493323 517.6354869587718, 189.0 461.0 C 187.17381168201442 517.6726232791531, 185.17379913875922 574.3396453380507, 183.0 631.0 C 180.83848085902954 687.3402749372161, 178.505133056767 743.6739575918405, 176.0 800.0 Z" fill="green"/>
<path d="M 184.0 800.0 L 192.0 800.0 C 199.331026475063 745.4903743241014, 205.33340211259622 690.8020629599099, 210.0 636.0 C 214.67559161197744 581.0923194848128, 218.01024983622216 526.070458784775, 220.0 471.0 C 214.01813075656366 526.001975884786, 208.01813032189727 581.0019798692279, 202.0 636.0 C 196.0179129441496 690.6686307414443, 190.01791251467415 745.3353013211095, 184.0 800.0 Z" fill="green"/>
<path d="M 192.0 800.0 L 200.0 800.0 C 198.15191207754248 745.2562563101569, 194.8169401145545 690.5627161171542, 190.0 636.0 C 185.159824816888 581.1740943020094, 178.82334797762044 526.4802942156999, 171.0 472.0 C 174.8326734264171 526.6553632498532, 178.499362637852 581.322366038519, 182.0 636.0 C 185.499276591127 690.6563796206012, 188.83263040377344 745.3233821480025, 192.0 800.0 Z" fill="green"/>
<path d="M 200.0 800.0 L 208.0 800.0 C 209.1609073579742 758.3392407080349, 208.82728826212596 716.6368537270042, 207.0 675.0 C 205.16692990843742 633.2314006740573, 201.83072083582496 591.5287872664017, 197.0 550.0 C 197.8333128914059 591.6637780927642, 198.4999866677503 633.3308891142893, 199.0 675.0 C 199.499965340696 716.6651114616094, 199.83330222818586 758.3322223978396, 200.0 800.0 Z" fill="green"/>
<path d="M 208.0 800.0 L 216.0 800.0 C 216.31545237268944 742.6537840114859, 215.31510150449216 685.3003342348425, 213.0 628.0 C 210.66708794809057 570.258842622874, 206.9991148929792 512.5716300288499, 202.0 455.0 C 202.99708548046777 512.6667171583523, 203.9970854821707 570.3333839232204, 205.0 628.0 C 205.9971190719042 685.3333835338102, 206.99711907358747 742.6667169636521, 208.0 800.0 Z" fill="green"/>
<path d="M 216.0 800.0 L 224.0 800.0 C 224.80253079305908 761.9931583307207, 224.13519998958577 723.9553025327417, 222.0 686.0 C 219.83655766936997 647.5426617779569, 216.16614097116687 609.17012356947, 211.0 571.0 C 212.1643876132861 609.3288097979636, 213.16439987430817 647.6626131371427, 214.0 686.0 C 214.82817970581098 723.9969375272115, 215.4948544019606 761.9973952077398, 216.0 800.0 Z" fill="green"/>
<path d="M 224.0 800.0 L 232.0 800.0 C 233.46865073969937 768.6896161451338, 233.46865073969937 737.3103838548662, 232.0 706.0 C 230.5090627639878 674.2144870109751, 227.5045337768877 642.500014369363, 223.0 611.0 C 223.50087716027528 642.6646075196556, 223.8342167145568 674.3318651763988, 224.0 706.0 C 224.16402909488417 737.3330471036193, 224.16402909488417 768.6669528963807, 224.0 800.0 Z" fill="green"/>
<path d="M 232.0 800.0 L 240.0 800.0 C 246.49428012932663 755.1828176740668, 251.49796498145525 710.149654004909, 255.0 665.0 C 258.509811565842 619.7500875973403, 260.5112920604524 574.3831963861727, 261.0 529.0 C 256.51704236122976 574.351993842112, 251.8503246180862 619.6858233469352, 247.0 665.0 C 242.18117572638147 710.0198845620741, 237.18112171009574 755.0203707086456, 232.0 800.0 Z" fill="green"/>
<path d="M 240.0 800.0 L 248.0 800.0 C 250.99899032576528 763.7441216880973, 252.66715285925574 727.3781784580046, 253.0 691.0 C 253.33262331519347 654.6462843203493, 252.33172700188967 618.2803849369787, 250.0 582.0 L 245.0 691.0 L 240.0 800.0 Z" fill="green"/>
<path d="M 248.0 800.0 L 256.0 800.0 C 257.9971139449417 768.0461768809329, 258.6645494124817 736.0092744390134, 258.0 704.0 C 257.3342976888426 671.9351940242499, 255.33198327579322 639.8981634154604, 252.0 608.0 L 250.0 704.0 L 248.0 800.0 Z" fill="green"/>
<path d="M 256.0 800.0 L 264.0 800.0 C 262.3021333014141 744.9392727086635, 259.30101319815617 689.9187374822691, 255.0 635.0 C 250.65673684483585 579.5417816580692, 244.9879126546955 524.1873807425811, 238.0 469.0 C 240.9909085661091 524.3338257430223, 243.99090862009976 579.6671600721832, 247.0 635.0 C 249.99101761150033 690.000489458022, 252.99101766484435 745.0004904359956, 256.0 800.0 Z" fill="green"/>
<path d="M 264.0 800.0 L 272.0 800.0 C 271.4631100586416 755.6167750592434, 269.4616591746487 711.2512804640668, 266.0 667.0 C 262.494079250388 622.1829124276458, 257.4903586837629 577.4830086991284, 251.0 533.0 C 253.49271657253757 577.658150560689, 255.82606971466691 622.3251964243078, 258.0 667.0 C 260.15696032874916 711.3260667821581, 262.15697704367193 755.6597706296124, 264.0 800.0 Z" fill="green"/>
<path d="M 272.0 800.0 L 280.0 800.0 C 281.1614208427973 756.3389780003785, 280.82782714289146 712.6382033127078, 279.0 669.0 C 277.1669064086096 625.2360635996604, 273.8309543830704 581.5350920650968, 269.0 538.0 C 269.8333147208611 581.6639103669601, 270.49998786096864 625.3310010440043, 271.0 669.0 C 271.4999684422866 712.6651826624469, 271.83330501177466 756.3322732653846, 272.0 800.0 Z" fill="green"/>
<path d="M 280.0 800.0 L 288.0 800.0 C 294.99189776989164 748.8245240193446, 300.6610871410348 697.468337951342, 305.0 646.0 C 309.3200697544845 594.7551796211442, 312.3213937284974 543.3991916213677, 314.0 492.0 L 297.0 646.0 L 280.0 800.0 Z" fill="green"/>
<path d="M 288.0 800.0 L 296.0 800.0 C 297.9811436363108 766.3764872802617, 298.64848824308547 732.6755846381421, 298.0 699.0 C 297.34408374241326 664.9386832630884, 295.34200305817245 630.9033116309948, 292.0 597.0 C 291.33664862966805 631.0000648980124, 290.6699819587756 665.0000651135257, 290.0 699.0 C 289.33658395494365 732.6667309307513, 288.66991728413365 766.3333978066562, 288.0 800.0 Z" fill="green"/>
<path d="M 296.0 800.0 L 304.0 800.0 C 310.16181187764164 752.1610648355214, 314.8315034102609 704.1299519285802, 318.0 656.0 C 321.17741782776557 607.734533089725, 322.84517089611296 559.36969410765, 323.0 511.0 C 318.84853763151403 559.3494091063378, 314.5151634034986 607.6831985726633, 310.0 656.0 C 305.5128317155704 704.0172254235214, 300.8461215529073 752.017672810914, 296.0 800.0 Z" fill="green"/>
<path d="M 304.0 800.0 L 312.0 800.0 C 309.46164267985137 762.1971835994834, 305.4576377999942 724.4928043141613, 300.0 687.0 C 294.47992415569973 649.0782596767598, 287.4727543198762 611.3730124649474, 279.0 574.0 C 283.49803618838087 611.6474752291979, 287.83142477587074 649.3146221819944, 292.0 687.0 C 296.16454579777877 724.6489503946669, 300.16459670306045 762.3160964194033, 304.0 800.0 Z" fill="green"/>
<path d="M 312.0 800.0 L 320.0 800.0 C 317.65074240256394 749.5822371450942, 313.9824031888207 699.2259443018911, 309.0 649.0 C 303.9915751458299 598.5117399711492, 297.6553226110858 548.1552066687092, 290.0 498.0 L 301.0 649.0 L 312.0 800.0 Z" fill="green"/>
<path d="M 320.0 800.0 L 328.0 800.0 C 324.97661494131063 753.5565853251339, 320.6409763976884 707.1986039740964, 315.0 661.0 C 309.3197870606971 614.480055655094, 302.3160112737335 568.1217302080496, 294.0 522.0 L 307.0 661.0 L 320.0 800.0 Z" fill="green"/>
<path d="M 328.0 800.0 L 336.0 800.0 C 336.4796992086874 742.3203305422028, 335.47926037882024 684.6283580198636, 333.0 627.0 C 330.5008569247961 568.9094851387711, 326.4990733372271 510.88362311902046, 321.0 453.0 C 322.497520367462 510.99607056925566, 323.8308608242109 568.9963804378323, 325.0 627.0 C 326.16228765315094 684.6637001404654, 327.1622929332779 742.330671294452, 328.0 800.0 Z" fill="green"/>
<path d="M 336.0 800.0 L 344.0 800.0 C 348.16584661504794 744.4186518159447, 350.8338038749298 688.7250440159105, 352.0 633.0 C 353.16488088945664 577.3378026707489, 352.83138659566646 521.6442556077833, 351.0 466.0 C 348.8329819861199 521.6734720567765, 346.4996347684989 577.3404699628782, 344.0 633.0 C 341.49969428866825 688.6744699648389, 338.8330117457247 744.3414680487847, 336.0 800.0 Z" fill="green"/>
<path d="M 344.0 800.0 L 352.0 800.0 C 353.6652093806434 747.0195352306409, 353.998683068824 693.9972188099217, 353.0 641.0 C 352.00036913907445 587.9524846075489, 349.6660514560096 534.9301258065041, 346.0 482.0 L 345.0 641.0 L 344.0 800.0 Z" fill="green"/>
<path d="M 352.0 800.0 L 360.0 800.0 C 358.1251789371374 748.5858133947249, 354.79005376736995 697.2248857803071, 350.0 646.0 C 345.1529482173587 594.1655768399945, 338.81612888657463 542.4704717730717, 331.0 491.0 C 334.82231666328767 542.6554634254597, 338.4890055180324 594.3224427423175, 342.0 646.0 C 345.4869197356805 697.3232063505228, 348.8202729643189 748.6568460715552, 352.0 800.0 Z" fill="green"/>
<path d="M 360.0 800.0 L 368.0 800.0 C 374.4917301327853 757.190988885427, 379.49575292579186 714.1563928655703, 383.0 671.0 C 386.4845496461819 628.0861898988124, 388.4861407230444 585.0519817462679, 389.0 542.0 C 384.49787171667464 585.0176445982415, 379.8311595099817 628.0180642170545, 375.0 671.0 C 370.164681672136 714.0189360191782, 365.16463279520957 757.0193563607457, 360.0 800.0 Z" fill="green"/>
<path d="M 368.0 800.0 L 376.0 800.0 C 375.1575847712271 742.6189260991841, 372.8232002217581 685.2597628836595, 369.0 628.0 C 365.1634666005418 570.5405471840037, 359.82771369838923 513.1812034858632, 353.0 456.0 C 355.83303013737236 513.3254342231264, 358.49971177392024 570.6590894089065, 361.0 628.0 C 363.49965565097295 685.3264032905895, 365.8330020763252 742.6600583135321, 368.0 800.0 Z" fill="green"/>
<path d="M 376.0 800.0 L 384.0 800.0 C 384.8248509831477 761.6600708707217, 384.1575116976086 723.2880619522216, 382.0 685.0 C 379.8329637291629 646.5429111774973, 376.1625649204168 608.1705599951516, 371.0 570.0 C 372.1665963331471 608.3287458171625, 373.166608925875 646.6625618717326, 374.0 685.0 C 374.8332336245534 723.3301951742726, 375.4999086832002 761.6640110464621, 376.0 800.0 Z" fill="green"/>
<path d="M 384.0 800.0 L 392.0 800.0 C 390.1050963317979 761.2272635605045, 386.7686939471173 722.5249958982097, 382.0 684.0 C 377.1451537888585 644.7790031306736, 370.8057766390699 605.741785945133, 363.0 567.0 C 366.81842064838685 605.9855339117781, 370.48512433514816 644.9859276709665, 374.0 684.0 C 377.48240187139913 722.6536228999878, 380.81576824036847 761.3206727800323, 384.0 800.0 Z" fill="green"/>
<path d="M 392.0 800.0 L 400.0 800.0 C 400.65884094081883 765.6579862220295, 399.9915120940269 731.2905506122454, 398.0 697.0 C 395.9994965656696 662.5546333508981, 392.66282236490537 628.1868890830267, 388.0 594.0 L 390.0 697.0 L 392.0 800.0 Z" fill="green"/>
<path d="M 400.0 800.0 L 408.0 800.0 C 409.9976756688113 764.3747839061982, 410.66496162938955 728.6749850152635, 410.0 693.0 C 409.33410962568456 657.2751881077398, 407.332246550074 621.5752965926849, 404.0 586.0 L 402.0 693.0 L 400.0 800.0 Z" fill="green"/>
<path d="M 408.0 800.0 L 416.0 800.0 C 422.65082458153285 766.5597370924448, 427.9896261591399 732.8585521338003, 432.0 699.0 C 435.9733675135763 665.4538827441787, 438.64271807108776 631.7533319555967, 440.0 598.0 L 424.0 699.0 L 408.0 800.0 Z" fill="green"/>
<path d="M 416.0 800.0 L 424.0 800.0 C 420.93926174906545 758.2140527128864, 416.60323909564863 716.5215271992632, 411.0 675.0 C 405.3047148046361 632.7963861419894, 398.30022660698353 590.769456956074, 390.0 549.0 C 394.3161161773744 591.0017739956345, 398.6494499961559 633.0017787007473, 403.0 675.0 C 407.3163869475911 716.6684267685603, 411.64972075877847 758.3350980299773, 416.0 800.0 Z" fill="green"/>
<path d="M 424.0 800.0 L 432.0 800.0 C 430.3163835482061 756.921639393486, 427.3145117143056 713.8948097742457, 423.0 671.0 C 418.65872932224755 627.8391530185769, 412.98848297329675 584.8119895471265, 406.0 542.0 L 415.0 671.0 L 424.0 800.0 Z" fill="green"/>
<path d="M 432.0 800.0 L 440.0 800.0 C 444.66485157968884 750.1006546559556, 447.99976280322556 700.0769863029053, 450.0 650.0 C 451.9959833807169 600.0295102110049, 452.66296428453654 550.0059424245318, 452.0 500.0 L 442.0 650.0 L 432.0 800.0 Z" fill="green"/>
<path d="M 440.0 800.0 L 448.0 800.0 C 447.45243137720354 763.273318998697, 445.4503420448503 726.5683479055546, 442.0 690.0 C 438.4918282902669 652.818746105066, 433.48642838109345 615.7787867771826, 427.0 579.0 C 429.49110074914086 615.9898255318221, 431.8244623700085 652.9902740912946, 434.0 690.0 C 436.15486222906935 726.6580009324823, 438.15488601686025 763.3251037086488, 440.0 800.0 Z" fill="green"/>
<path d="M 448.0 800.0 L 456.0 800.0 C 455.8102741334411 769.2768074686448, 454.1410343433804 738.5627953315279, 451.0 708.0 C 447.82746265254195 677.1306751114223, 443.15344597277056 646.4157083586389, 437.0 616.0 C 439.16610572264597 646.6555324342542, 441.1661448497698 677.3227990501535, 443.0 708.0 C 444.83266814232184 738.657344376044, 446.4993673727286 769.3246102155294, 448.0 800.0 Z" fill="green"/>
<path d="M 456.0 800.0 L 464.0 800.0 C 463.9908736323873 760.6366455579692, 462.6565335059197 721.2736118271729, 460.0 682.0 C 457.3312933126565 642.5464225142439, 453.3282451868118 603.1831159434373, 448.0 564.0 L 452.0 682.0 L 456.0 800.0 Z" fill="green"/>
<path d="M 464.0 800.0 L 472.0 800.0 C 476.66518428469493 744.7576339291955, 479.99980634818894 689.402907675195, 482.0 634.0 C 483.99671840997064 578.6933522557665, 484.66364192776996 523.3387002784231, 484.0 468.0 L 474.0 634.0 L 464.0 800.0 Z" fill="green"/>
<path d="M 472.0 800.0 L 480.0 800.0 C 479.1481309765252 759.9319082409476, 476.8126667450565 719.8953785586268, 473.0 680.0 C 469.16010719940965 639.8197306117222, 463.82183342517993 599.7826773049992, 457.0 560.0 C 459.8327116276966 599.988699514191, 462.4994089344173 639.9891591150015, 465.0 680.0 C 467.4992940934062 719.9900886124262, 469.8326542089831 759.990547736601, 472.0 800.0 Z" fill="green"/>
<path d="M 480.0 800.0 L 488.0 800.0 C 493.8283901934646 755.1607159455114, 498.1649193379331 710.1275286760306, 501.0 665.0 C 503.82326070811473 620.0606159923248, 505.1575691851199 575.0277048934007, 505.0 530.0 C 501.1652109716081 575.0144816836405, 497.16517503580167 620.0148859614626, 493.0 665.0 C 488.8319915372745 710.0157158817234, 484.4986192205 755.016120709766, 480.0 800.0 Z" fill="green"/>
<path d="M 488.0 800.0 L 496.0 800.0 C 494.3163835482061 756.921639393486, 491.3145117143056 713.8948097742457, 487.0 671.0 C 482.65872932224755 627.8391530185769, 476.98848297329675 584.8119895471265, 470.0 542.0 L 479.0 671.0 L 488.0 800.0 Z" fill="green"/>
<path d="M 496.0 800.0 L 504.0 800.0 C 510.1619508541877 751.4922031825992, 514.831560461645 702.7948458476861, 518.0 654.0 C 521.1774141893864 605.066942042436, 522.8451378693767 556.0358658507191, 523.0 507.0 C 518.8483522008146 556.0158411659073, 514.5149791588558 605.0162901788253, 510.0 654.0 C 505.51267902252596 702.683641917577, 500.84597011504286 751.3507490956146, 496.0 800.0 Z" fill="green"/>
<path d="M 504.0 800.0 L 512.0 800.0 C 517.9925542790882 766.1996090819388, 522.6639695866933 732.1650118408155, 526.0 698.0 C 529.343107722708 663.7625078968546, 531.3451514995495 629.3940897277429, 532.0 595.0 C 527.3558983934284 629.3363953943351, 522.689230382974 663.6697386141079, 518.0 698.0 C 513.3554663183627 732.0030329678676, 508.68879833340344 766.0030425725708, 504.0 800.0 Z" fill="green"/>
<path d="M 512.0 800.0 L 520.0 800.0 C 521.1586709859295 764.6735906677717, 520.8249414706194 729.2982620449025, 519.0 694.0 C 517.1670323248566 658.5464940335365, 513.8297022422817 623.1707951582429, 509.0 588.0 C 509.8333049077587 623.3299271412554, 510.499981460503 658.6637844367019, 511.0 694.0 C 511.4999518060964 729.3314995265066, 511.8332900811492 764.6653566821043, 512.0 800.0 Z" fill="green"/>
<path d="M 520.0 800.0 L 528.0 800.0 C 527.1478222128018 760.2646804769377, 524.8123229692105 720.5611933358852, 521.0 681.0 C 517.159996989831 641.1515656667625, 511.82164084654005 601.4475418510364, 505.0 562.0 C 507.8327011747932 601.6552719327062, 510.4993989948111 641.3224020054716, 513.0 681.0 C 515.4992822309387 720.6566727071912, 517.8326427947097 760.3238022913, 520.0 800.0 Z" fill="green"/>
<path d="M 528.0 800.0 L 536.0 800.0 C 540.1647770429588 763.4628408040727, 542.8344176507909 726.7552824463819, 544.0 690.0 C 545.1625583489758 653.3400758805252, 544.8288551996152 616.6327294508512, 543.0 580.0 C 540.8325257453928 616.6769702864632, 538.4991605892569 653.3441370257418, 536.0 690.0 C 533.4992970574372 726.6784850865328, 530.8325939769493 763.3456524432409, 528.0 800.0 Z" fill="green"/>
<path d="M 536.0 800.0 L 544.0 800.0 C 549.9930578214692 765.1939647321957, 554.6642081330848 730.1603373950782, 558.0 695.0 C 561.3433675940313 659.7598119631418, 563.3452978948072 624.3923766494339, 564.0 589.0 C 559.3552732865627 624.3362264428955, 554.6886054204134 659.6695688580259, 550.0 695.0 C 545.3548648095257 730.0028663699634, 540.6881969655152 765.002875200042, 536.0 800.0 Z" fill="green"/>
<path d="M 544.0 800.0 L 552.0 800.0 C 552.6384000517429 763.9916021923532, 551.9711495077328 727.9600728158047, 550.0 692.0 C 548.0025751816718 655.5605814630494, 544.666244105319 619.1945727308046, 540.0 583.0 C 540.6635670802307 619.3333901183078, 541.3302337501319 655.6667236279242, 542.0 692.0 C 542.6636236829637 728.0000562657823, 543.3302903528058 764.000056437259, 544.0 800.0 Z" fill="green"/>
<path d="M 552.0 800.0 L 560.0 800.0 C 565.8282758278037 752.8194296363841, 570.1644966013115 705.4545565719152, 573.0 658.0 C 575.8446955026512 610.3916057646512, 577.1789230491294 562.6929709780559, 577.0 515.0 C 573.1811271724699 562.6816351630466, 569.1810886765686 610.348760572537, 565.0 658.0 C 560.8453897716852 705.3494685311697, 556.5120152610006 752.683251647879, 552.0 800.0 Z" fill="green"/>
<path d="M 560.0 800.0 L 568.0 800.0 C 570.6552901934341 758.0558606400815, 571.9895047818442 716.0281011051654, 572.0 674.0 C 572.0105784578428 631.6385655684301, 570.6763498342333 589.2768067688273, 568.0 547.0 C 566.6719732650777 589.3335002483396, 565.338639917777 631.6668340251362, 564.0 674.0 C 562.6718900668542 716.0001656054716, 561.3385567197723 758.0001660385483, 560.0 800.0 Z" fill="green"/>
<path d="M 568.0 800.0 L 576.0 800.0 C 576.4944086505252 747.6523364481939, 575.4938652045885 695.2905627775046, 573.0 643.0 C 570.4993154263304 590.5664508869146, 566.4971297374393 538.2045214572559, 561.0 486.0 C 562.499923966824 538.328912094429, 563.8332663078927 590.6625989813743, 565.0 643.0 C 566.1665681185623 695.3299737118788, 567.1665748724465 747.6636604984841, 568.0 800.0 Z" fill="green"/>
<path d="M 576.0 800.0 L 584.0 800.0 C 589.1594507797503 760.1556092008649, 592.8295300581459 720.1183807092756, 595.0 680.0 C 597.1797217834649 639.7106107469777, 597.847014226433 599.3394179474006, 597.0 559.0 C 593.8479395285132 599.3480412050376, 590.5145613187912 639.6819175426734, 587.0 680.0 C 583.5117637364428 720.0160886517426, 579.8450484424811 760.0166191313255, 576.0 800.0 Z" fill="green"/>
<path d="M 584.0 800.0 L 592.0 800.0 C 596.8286187712476 769.1851913240829, 600.167141129065 738.1369333963809, 602.0 707.0 C 603.8224514069019 676.0398704588213, 604.1562977655755 644.9921591021731, 603.0 614.0 C 600.1648826270759 645.0156614206168, 597.1648260672279 676.0162458723804, 594.0 707.0 C 590.8317318032996 738.0174526914544, 587.4983354889146 769.0180384152353, 584.0 800.0 Z" fill="green"/>
<path d="M 592.0 800.0 L 600.0 800.0 C 604.4926809794689 755.7845313603941, 607.4949518718779 711.417639283682, 609.0 667.0 C 610.5129073507082 622.350415898502, 610.5129073507082 577.649584101498, 609.0 533.0 C 606.5111915576551 577.6770481927331, 603.8444967078128 622.3441869275933, 601.0 667.0 C 598.1753038362543 711.3449639186132, 595.1752725700577 755.6787592968516, 592.0 800.0 Z" fill="green"/>
<path d="M 200.0 409.0 L 200.0 244.0 C 200.0 230.19176133042762, 199.29972644087232 216.05032287883216, 203.46448407559444 202.88513207125564 C 205.54686289304456 196.30253666744866, 209.03534926486037 190.05734642171515, 214.1688763314286 185.44066323501096 C 219.30240339799687 180.82398004830677, 226.0958806651691 177.9999999999207, 233.0 178.0 C 239.9041193347862 178.0, 246.69759660188197 180.8239800484458, 251.83112366836394 185.44066323517904 C 256.9646507348459 190.05734642191226, 260.4531371065675 196.30253666764537, 262.5355159239286 202.88513207143362 C 266.70027355879324 216.05032287891686, 265.99999999983595 230.19176133047358, 266.0 244.0 L 266.0 277.0 C 266.0 290.8082386695724, 265.2997264408723 304.94967712116784, 269.46448407559444 318.1148679287444 C 271.5468628930446 324.69746333255137, 275.03534926486043 330.9426535782849, 280.16887633142863 335.55933676498904 C 285.3024033979969 340.1760199516932, 292.0958806651691 343.0000000000793, 299.0 343.0 C 305.9041193347862 343.0, 312.69759660188197 340.1760199515542, 317.83112366836394 335.55933676482096 C 322.9646507348459 330.94265357808774, 326.4531371065675 324.69746333235463, 328.5355159239286 318.11486792856635 C 332.70027355879324 304.94967712108314, 331.99999999983595 290.8082386695264, 332.0 277.0 L 332.0 244.0 C 332.0 230.19176133042762, 331.2997264408723 216.05032287883216, 335.46448407559444 202.88513207125564 C 337.5468628930446 196.30253666744866, 341.03534926486043 190.05734642171515, 346.16887633142863 185.44066323501096 C 351.3024033979969 180.82398004830677, 358.0958806651691 177.9999999999207, 365.0 178.0 C 371.9041193347862 178.0, 378.6975966018819 180.8239800484458, 383.8311236683639 185.44066323517904 C 388.9646507348459 190.05734642191226, 392.45313710656745 196.30253666764537, 394.5355159239286 202.88513207143362 C 398.70027355879324 216.05032287891686, 397.99999999983595 230.19176133047358, 398.0 244.0 L 398.0 409.0 C 398.0 434.9181393921158, 387.3304634573715 460.6766792175649, 369.0035713374682 479.0035713374682 C 350.6766792175649 497.3304634573715, 324.9181393921158 508.0, 299.0 508.0 C 273.0818606078842 508.0, 247.32332078243505 497.3304634573715, 228.9964286625318 479.0035713374682 C 210.66953654262855 460.6766792175649, 200.0 434.9181393921158, 200.0 409.0 Z" fill="white" stroke="#222" stroke-width="8"/>
<path d="M 216.0 310.0 L 216.0 244.0 C 216.0 234.22834905515546, 215.1020924443995 224.4122681509689, 216.1841437241162 214.70071177642498 C 216.72516936379034 209.844933589686, 217.9808881723563 204.95096086504498, 220.76278042847377 200.93444919234338 C 222.15372655653243 198.92619335599267, 223.92588456807474 197.1637763205271, 226.02493950620254 195.91405995185806 C 228.12399444433038 194.664343583189, 230.55779331036828 193.94127078651735, 233.0 194.0 C 235.41232855641024 194.0580107160999, 237.77996892273725 194.8771079083559, 239.8018790488464 196.1941400830548 C 241.82378917495552 197.5111722577537, 243.50829248740763 199.31323878994007, 244.81698664953686 201.3405557107158 C 247.43437497379512 205.39518955226723, 248.5521495726032 210.25006315410437, 249.0028752097118 215.05502138795725 C 249.9043264831478 224.66493785507254, 249.00000000072285 234.3478961410834, 249.0 244.0 L 249.0 310.0" fill="lightpink"/>
<path d="M 348.0 310.0 L 348.0 244.0 C 348.0 234.22834905515546, 347.1020924443995 224.4122681509689, 348.1841437241162 214.70071177642498 C 348.72516936379037 209.844933589686, 349.9808881723563 204.95096086504498, 352.7627804284738 200.93444919234338 C 354.15372655653243 198.92619335599267, 355.9258845680747 197.1637763205271, 358.02493950620254 195.91405995185806 C 360.1239944443304 194.664343583189, 362.5577933103683 193.94127078651735, 365.0 194.0 C 367.4123285564103 194.0580107160999, 369.7799689227372 194.8771079083559, 371.8018790488464 196.19414008305478 C 373.82378917495555 197.51117225775369, 375.50829248740763 199.31323878994004, 376.8169866495369 201.3405557107158 C 379.4343749737951 205.39518955226723, 380.55214957260324 210.25006315410437, 381.00287520971176 215.05502138795725 C 381.90432648314777 224.66493785507254, 381.0000000007229 234.3478961410834, 381.0 244.0 L 381.0 310.0" fill="lightpink"/>
<circle cx="266" cy="392.5" r="8"/>
<circle cx="332" cy="392.5" r="8"/>
<circle cx="299" cy="425.5" r="11"/>
<path d="M 322.0 455.0 C 315.7063661758018 455.0521961277266, 309.4320989331617 452.4686743219336, 305.0 448.0 C 302.0772695333536 445.0531500349613, 299.9507898076094 441.3239327935063, 298.90312404021506 437.3078806851613 C 297.8554582728207 433.29182857681633, 297.8892468500779 428.99906308240446, 299.0 425.0 C 299.8719722839633 429.09088013900083, 299.68769047885155 433.40230512834063, 298.4698259324832 437.4038600664079 C 297.2519613861149 441.40541500447523, 295.0031316627347 445.0884993230377, 292.0 448.0 C 287.49276132443146 452.36971466086123, 281.27730583260774 454.9290198633769, 275.0 455.0" fill="none" stroke="black" stroke-width="6.8" stroke-linecap="round"/>
<circle cx="299" cy="706.0" r="33" fill="white" stroke="#222" stroke-width="8"/>
<path d="M 299.0 508.0 C 285.6168687650313 508.0, 272.1798037521314 509.686385334832, 259.4080482065763 513.6851928992162 C 246.63629266102126 517.6840004636003, 234.5346850468751 524.164640813866, 224.7968955388809 533.3452539279446 C 215.05910603136724 542.5258670405552, 207.9255297722978 554.3819492776137, 204.1390089945377 567.2182439928216 C 200.3524882167781 580.0545387080286, 200.00000000073817 593.616868766389, 200.0 607.0 L 200.0 706.0 C 200.0 710.4803295401729, 199.9057151881855 715.0167262087557, 198.70087075556614 719.3320133002169 C 197.49602632294682 723.647300391678, 195.18402558593164 727.6684630743459, 191.93767221017092 730.7562685326336 C 188.69131883433857 733.8440739907251, 184.59476387883424 735.9595256454222, 180.28628380138116 737.1884895220222 C 175.9778037239281 738.4174533986222, 171.47600979743478 738.8033045982604, 167.0 739.0 C 153.26484493211893 739.6035826481465, 139.17520048289057 738.6166348120972, 126.08261538347331 742.8122291879157 C 119.53632283377183 744.9100263758216, 113.31886678251624 748.3478646059922, 108.63549108832545 753.3798315469534 C 103.95211539413467 758.4117984879146, 100.90620358737455 765.1264345917972, 101.0 772.0 C 101.09329594894974 778.8368905533837, 104.27741090358944 785.4242477310315, 108.9973232212972 790.371388752489 C 113.71723553900495 795.3185297739465, 119.88223449568491 798.7297340092009, 126.36592228611502 800.9008095973056 C 139.33329786696706 805.2429607734878, 153.32494583953329 805.0000000000233, 167.0 805.0 L 200.0 805.0 C 209.08875049282324 805.0, 218.27486273270944 804.8764663336966, 227.0912347632353 802.6680801038545 C 235.90760679376112 800.4596938740125, 244.2576835112966 796.1111177224899, 250.68440061728444 789.684400616502 C 257.1111177230905 783.2576835105691, 261.45969387445064 774.9076067931444, 263.668080104165 766.0912347627592 C 265.87646633387936 757.274862732374, 266.00000000008976 748.0887504926558, 266.0 739.0 L 266.0 722.0 C 266.0 716.4456784896975, 266.0259013637569 710.8696819505433, 266.82522072908733 705.3731761521276 C 267.6245400944178 699.8766703537119, 269.21190275919724 694.454689775414, 271.9281019712079 689.6098214304037 C 274.6443011832178 684.7649530853961, 278.49874363441177 680.5296612408371, 283.20520257470935 677.5801304844161 C 287.9116615150069 674.6305997279952, 293.44567848970013 672.9999999999994, 299.0 673.0 C 304.55432151030254 673.0, 310.0883384849983 674.6305997279973, 314.7947974252978 677.5801304844201 C 319.5012563655973 680.529661240843, 323.35569881679277 684.7649530854045, 326.07189802880345 689.6098214304147 C 328.78809724081174 694.4546897754238, 330.3754599055891 699.8766703537201, 331.17477927091767 705.3731761521339 C 331.97409863624625 710.8696819505476, 332.00000000000153 716.4456784896996, 332.0 722.0 L 332.0 739.0 C 332.0 748.0887504928232, 332.12353366630344 757.2748627327095, 334.3319198961455 766.0912347632353 C 336.54030612598757 774.9076067937611, 340.88888227751016 783.2576835112966, 347.315599383498 789.6844006172844 C 353.74231648943095 796.1111177230905, 362.0923932068556 800.4596938744506, 370.90876523724086 802.668080104165 C 379.72513726762605 804.8764663338793, 388.9112495073442 805.0000000000897, 398.0 805.0 L 431.0 805.0 C 444.6750541604831 805.0, 458.6667021330666 805.242960773441, 471.63407771392684 800.9008095972316 C 478.1177655043439 798.7297340091345, 484.28276446101205 795.3185297738903, 489.0026767787118 790.3713887524457 C 493.7225890964116 785.4242477310011, 496.90670405104737 778.8368905533688, 497.0 772.0 C 497.0937964126265 765.1264345917893, 494.04788460586377 758.4117984878987, 489.36450891166834 753.3798315469312 C 484.6811332174729 748.3478646059637, 478.4636771662107 744.9100263757884, 471.9173846165021 742.8122291878792 C 458.82479951709024 738.6166348120744, 444.73515506787226 739.6035826481346, 431.0 739.0 C 426.52399020249027 738.8033045980654, 422.0221962759296 738.4174533982276, 417.7137161984488 737.1884895214207 C 413.405236120968 735.9595256446137, 409.3086811654778 733.8440739897021, 406.062327789717 730.7562685314143 C 402.81597441407297 727.668463073302, 400.5039736771219 723.6473003908422, 399.29912924451287 719.3320132995915 C 398.09428481190395 715.0167262083409, 398.0000000000466 710.4803295399672, 398.0 706.0 L 398.0 607.0 C 398.0 593.6168687650313, 397.64751178467236 580.0545387052758, 393.8609910072367 567.2182439885579 C 390.0744702298011 554.381949271841, 382.94089397066307 542.5258670331881, 373.20310446266944 533.3452539191104 C 363.4653149538102 524.1646408062948, 351.36370733914595 517.6840004575114, 338.5919517933651 513.6851928946413 C 325.82019624758425 509.68638533177125, 312.3831312347317 507.9999999984876, 299.0 508.0 Z" fill="white" stroke="#222" stroke-width="8"/>
<path d="M 104.3 762.0999999999999 L 134 762.0999999999999" fill="none" stroke="#222" stroke-linecap="round" stroke-width="8"/>
<path d="M 104.3 781.9000000000001 L 134 781.9000000000001" fill="none" stroke="#222" stroke-linecap="round" stroke-width="8"/>
<path d="M 493.7 762.0999999999999 L 464 762.0999999999999" fill="none" stroke="#222" stroke-linecap="round" stroke-width="8"/>
<path d="M 493.7 781.9000000000001 L 464 781.9000000000001" fill="none" stroke="#222" stroke-linecap="round" stroke-width="8"/>
<path d="M 249.0 574.0 L 249.0 607.0 C 249.0 611.2860241495455, 249.01412610551617 615.5869106100391, 249.59094227224065 619.8339432353308 C 250.16775843896514 624.0809758606225, 251.32026910276159 628.2815247837416, 253.34068690081475 632.0614606207363 C 255.3611046988676 635.8413964577301, 258.26234905805234 639.1771432303532, 261.85500038880525 641.5144193000799 C 265.44765171955817 643.8516953698066, 269.71397585903725 645.1581406414942, 274.0000000085817 645.158140641494 C 278.28602415724345 645.1581406401451, 282.55234829543264 643.8516953673839, 286.14499962471 641.5144192970076 C 289.7376509539874 639.1771432266314, 292.63889531152466 635.8413964537821, 294.6593131079716 632.0614606169308 C 296.67973090441774 628.2815247800801, 297.83224156665375 624.0809758574651, 298.409057731922 619.8339432328683 C 298.9858738971903 615.5869106082714, 299.00000000134946 611.2860241486609, 299.0 607.0 L 299.0 574.0 L 299.0 607.0 C 299.0 611.2003036665545, 299.0138435834059 615.4151723978383, 299.5791234267959 619.5772643706242 C 300.1444032701859 623.7393563434101, 301.2738637207064 627.8558942880667, 303.25387316279847 631.5602314083216 C 305.23388260489025 635.2645685285754, 308.07710207689126 638.5336003657461, 311.59790038102915 640.8241309140783 C 315.11869868516703 643.1146614624105, 319.2996963418565 644.3949778286643, 323.50000000841004 644.3949778286641 C 327.70030367409856 644.3949778273421, 331.881301329524 643.114661460036, 335.40209963221577 640.8241309110673 C 338.9228979349076 638.5336003620986, 341.7661174052941 635.2645685247063, 343.74612684581217 631.5602314045922 C 345.72613628632934 627.8558942844785, 346.85559673532066 623.7393563403158, 347.4208765772836 619.5772643682109 C 347.98615641924647 615.415172396106, 348.00000000132246 611.2003036656877, 348.0 607.0 L 348.0 574.0" fill="none" stroke="black" stroke-width="6.8"/>
<path d="M 266 623.5 L 266 640.0" fill="none" stroke="black" stroke-linecap="round" stroke-width="6.8"/>
<path d="M 282.5 623.5 L 282.5 640.0" fill="none" stroke="black" stroke-linecap="round" stroke-width="6.8"/>
<path d="M 332 623.5 L 332 640.0" fill="none" stroke="black" stroke-linecap="round" stroke-width="6.8"/>
<path d="M 315.5 623.5 L 315.5 640.0" fill="none" stroke="black" stroke-linecap="round" stroke-width="6.8"/>
<path d="M 0.0 800.0 L 9.0 800.0 C 9.749001151793411 782.3177192273345, 9.079485159824252 764.5755454401517, 7.0 747.0 C 4.839121277384692 728.7365264663913, 1.155531948705086 710.653451580146, -4.0 693.0 C -3.339672504848342 711.0002340389474, -2.67300578305857 729.0002355272713, -2.0 747.0 C -1.3394400539613334 764.6668964043354, -0.6727733341914763 782.3335644782364, 0.0 800.0 Z" fill="green"/>
<path d="M 15.0 800.0 L 24.0 800.0 C 31.09922430905256 782.8363145685821, 36.791182734473054 765.0907971246241, 41.0 747.0 C 45.05276955134224 729.5799441694204, 47.73047165823285 711.8401677112702, 49.0 694.0 L 32.0 747.0 L 15.0 800.0 Z" fill="green"/>
<path d="M 36.0 800.0 L 45.0 800.0 C 46.21846808865671 785.3527757603978, 45.882649191861496 770.5767443014087, 44.0 756.0 C 42.01798392950781 740.6538900684515, 38.32101129264487 725.5299110994667, 33.0 711.0 C 33.831216113079535 725.9920836013932, 34.497936282051725 740.9932874032677, 35.0 756.0 C 35.490548813480466 770.662531458463, 35.82390768494577 785.3303218029364, 36.0 800.0 Z" fill="green"/>
<path d="M 51.0 800.0 L 60.0 800.0 C 65.3068367366102 780.68682666052, 68.99069196012357 760.9279668253118, 71.0 741.0 C 73.00902844971435 721.0748061011703, 73.34392394408843 700.9810764387264, 72.0 681.0 C 68.85981438197857 701.0315529280753, 65.52627401367981 721.0327951378679, 62.0 741.0 C 58.520740111133435 760.7009916699872, 54.85385173821534 780.368847488366, 51.0 800.0 Z" fill="green"/>
<path d="M 70.0 800.0 L 79.0 800.0 C 83.15716147517013 783.9570543328354, 85.83878984357627 767.5320805763478, 87.0 751.0 C 88.14623391387485 734.6811353063928, 87.81107832359415 718.2585113826385, 86.0 702.0 L 78.0 751.0 L 70.0 800.0 Z" fill="green"/>
<path d="M 90.0 800.0 L 99.0 800.0 C 99.7366718544412 783.9825482150317, 99.06659272440584 767.900649094183, 97.0 752.0 C 94.83946547380484 735.3765497423915, 91.1522841625603 718.9518329923021, 86.0 703.0 C 86.65966262394595 719.3336182098164, 87.32632937233863 735.6669535454372, 88.0 752.0 C 88.65994535080449 768.0002791120361, 89.32661209590096 784.0002809943511, 90.0 800.0 Z" fill="green"/>
<path d="M 106.0 800.0 L 115.0 800.0 C 116.64180364578367 779.3768277526399, 116.64180364578367 758.6231722473601, 115.0 738.0 C 113.33693243384714 717.1097254754864, 109.98920269845857 696.3538011160772, 105.0 676.0 C 105.49998916101956 696.663530541706, 105.83333694632681 717.3310932307561, 106.0 738.0 C 106.1666413790953 758.6662187719958, 106.1666413790953 779.3337812280042, 106.0 800.0 Z" fill="green"/>
<path d="M 118.0 800.0 L 127.0 800.0 C 128.48646842921937 776.0306965788388, 128.48646842921937 751.9693034211612, 127.0 728.0 C 125.50194856009696 703.8439205315645, 122.49415431970887 679.7815666084598, 118.0 656.0 L 118.0 728.0 L 118.0 800.0 Z" fill="green"/>
<path d="M 140.0 800.0 L 149.0 800.0 C 153.47669348658943 781.949396544033, 156.48979014910236 763.5360280508984, 158.0 745.0 C 159.5175017070855 726.3744730951768, 159.5175017070855 707.6255269048232, 158.0 689.0 C 155.0268091286638 707.6709621126989, 152.02680500393797 726.3376544443264, 149.0 745.0 C 146.02587215277117 763.3375544640382, 143.0258681703658 781.6709121342933, 140.0 800.0 Z" fill="green"/>
<path d="M 162.0 800.0 L 171.0 800.0 C 171.1293666286994 777.9438095261761, 169.79211338946348 755.8791310787838, 167.0 734.0 C 164.15937794933825 711.7407527838064, 159.8128582755508 689.6738067476548, 154.0 668.0 L 158.0 734.0 L 162.0 800.0 Z" fill="green"/>
<path d="M 177.0 800.0 L 186.0 800.0 C 185.59667391948196 778.8885885913915, 183.5890001373859 757.808013879383, 180.0 737.0 C 176.31354869484568 715.626991644756, 170.95862512381865 694.5419800838372, 164.0 674.0 C 166.49832680522312 694.9812296920991, 168.83175621902518 715.9820944163178, 171.0 737.0 C 173.16473325521616 757.9838762463946, 175.1648153434434 778.9847381727806, 177.0 800.0 Z" fill="green"/>
<path d="M 192.0 800.0 L 201.0 800.0 C 198.3763314454711 783.3700478135348, 194.35764394644846 766.9604071925257, 189.0 751.0 C 183.19747386723924 733.7142899472586, 175.82395088216666 716.9562831630028, 167.0 701.0 C 171.45297460253875 717.6352539214979, 175.7864569878496 734.3024938650012, 180.0 751.0 C 184.1144980849609 767.3050090667078, 188.11462927909955 783.6388781094406, 192.0 800.0 Z" fill="green"/>
<path d="M 213.0 800.0 L 222.0 800.0 C 223.81840456678833 780.0615625950448, 224.1529646062973 759.9879602245065, 223.0 740.0 C 221.8369747305375 719.8376266720207, 219.16032233680147 699.7627337190007, 215.0 680.0 L 214.0 740.0 L 213.0 800.0 Z" fill="green"/>
<path d="M 231.0 800.0 L 240.0 800.0 C 247.61069289118495 779.1640647575219, 253.63383230472402 757.7484579538275, 258.0 736.0 C 262.23556418628453 714.9020953739788, 264.91190876491675 693.4913387449213, 266.0 672.0 C 260.4881946293813 693.3740677205438, 254.82132914799502 714.7081495328217, 249.0 736.0 C 243.15548440280966 757.3766562557844, 237.15527221283378 778.7107440423653, 231.0 800.0 Z" fill="green"/>
<path d="M 249.0 800.0 L 258.0 800.0 C 260.4564795588609 782.7917772606486, 261.46120417119516 765.3765506468546, 261.0 748.0 C 260.5276820123117 730.2047198462706, 258.51777166886194 712.4505118124645, 255.0 695.0 C 254.0096751628964 712.667212545571, 253.009674962953 730.3338827445714, 252.0 748.0 C 251.00931408424515 765.3338690105184, 250.0093138917517 782.6672056804045, 249.0 800.0 Z" fill="green"/>
<path d="M 263.0 800.0 L 272.0 800.0 C 268.9703468702111 784.9894552376345, 264.61456823173825 770.2468198458805, 259.0 756.0 C 252.813840671877 740.3027827166693, 245.09896061927273 725.2084521789653, 236.0 711.0 C 240.7755585094311 725.9658330982501, 245.44238937863773 740.9663608921285, 250.0 756.0 C 254.43699347285516 770.635773903596, 258.7704713163046 785.302929681425, 263.0 800.0 Z" fill="green"/>
<path d="M 287.0 800.0 L 296.0 800.0 C 297.4769790077957 781.7063468751604, 297.4769790077957 763.2936531248396, 296.0 745.0 C 294.50333372763373 726.462503200247, 291.48999881709886 708.0476787469785, 287.0 690.0 L 287.0 745.0 L 287.0 800.0 Z" fill="green"/>
<path d="M 304.0 800.0 L 313.0 800.0 C 314.1123306900209 777.6762783640926, 313.7780665559077 755.2805813785055, 312.0 733.0 C 310.1761227293316 710.1453741039583, 306.8329954373652 687.4121085185864, 302.0 665.0 C 302.33082789740365 687.6667034189809, 302.66416123345203 710.3333702702712, 303.0 733.0 C 303.33090103695497 755.3333695479453, 303.6642343729241 777.6667030578774, 304.0 800.0 Z" fill="green"/>
<path d="M 320.0 800.0 L 329.0 800.0 C 335.7583988088552 785.21295749803, 341.12314301078027 769.7893179174954, 345.0 754.0 C 348.7033557795409 738.9173023592665, 351.0492282289509 723.5015691202866, 352.0 708.0 L 336.0 754.0 L 320.0 800.0 Z" fill="green"/>
<path d="M 338.0 800.0 L 347.0 800.0 C 346.1756336362853 781.1857499382301, 343.83219877037374 762.4382710109376, 340.0 744.0 C 335.9605294570908 724.5644599683445, 330.2666036671388 705.4730617314466, 323.0 687.0 C 325.81133482236135 705.9793210230553, 328.4781046290958 724.9800558960385, 331.0 744.0 C 333.47269700397385 762.6488937424688, 335.80611709801315 781.3162544947829, 338.0 800.0 Z" fill="green"/>
<path d="M 357.0 800.0 L 366.0 800.0 C 366.807125762223 778.3213975717332, 366.138404935846 756.58797071448, 364.0 735.0 C 361.8321699266024 713.1149718867615, 358.15389221829435 691.3796945194867, 353.0 670.0 L 355.0 735.0 L 357.0 800.0 Z" fill="green"/>
<path d="M 372.0 800.0 L 381.0 800.0 C 384.3152485135962 787.2830467273336, 386.0 774.1419851333839, 386.0 761.0 C 386.0 747.8580148666161, 384.3152485135962 734.7169532726664, 381.0 722.0 C 379.8309659833537 735.0161523665554, 378.4974907894031 748.0175355075735, 377.0 761.0 C 375.49813105044893 774.0204208585458, 373.83128601960186 787.0218120991531, 372.0 800.0 Z" fill="green"/>
<path d="M 390.0 800.0 L 399.0 800.0 C 399.60321832024647 782.623619203513, 398.59753195044897 765.1917221270237, 396.0 748.0 C 393.32674532084616 730.3071082491073, 388.9673125776373 712.8693772762718, 383.0 696.0 C 384.49930946541946 713.320032768011, 385.83272434248346 730.6544261698427, 387.0 748.0 C 388.16577263491473 765.3232390977054, 389.16583363531555 782.6576297713198, 390.0 800.0 Z" fill="green"/>
<path d="M 412.0 800.0 L 421.0 800.0 C 427.45398868070714 782.4467183149194, 432.47607997769893 764.367189645749, 436.0 746.0 C 439.4160272552296 728.1951633309545, 441.42433073628723 710.1204320014363, 442.0 692.0 L 427.0 746.0 L 412.0 800.0 Z" fill="green"/>
<path d="M 423.0 800.0 L 432.0 800.0 C 437.15730384781494 774.9124437886876, 440.8324841909579 749.5202886906085, 443.0 724.0 C 445.1458809364065 698.7344398761406, 445.81406479018773 673.343453432454, 445.0 648.0 L 434.0 724.0 L 423.0 800.0 Z" fill="green"/>
<path d="M 444.0 800.0 L 453.0 800.0 C 451.7159090905724 777.8616622683865, 449.0422548555024 755.804014829059, 445.0 734.0 C 440.7970066242788 711.328957929034, 435.11428665961313 688.9323557153516, 428.0 667.0 C 430.64660457298686 689.335722714717, 433.3132726741248 711.6690680617472, 436.0 734.0 C 438.64719479502634 756.0023543981237, 441.3138628542612 778.0023658868112, 444.0 800.0 Z" fill="green"/>
<path d="M 459.0 800.0 L 468.0 800.0 C 472.99175895242234 776.6066958389297, 476.33608034919257 752.8620139218611, 478.0 729.0 C 479.64763088611335 705.3715807290056, 479.64763088611335 681.6284192709944, 478.0 658.0 C 475.1636290217985 681.6870254317065, 472.16353347322166 705.3544458704791, 469.0 729.0 C 465.83060431900424 752.6893706885721, 462.49716442675987 776.3567939235073, 459.0 800.0 Z" fill="green"/>
<path d="M 482.0 800.0 L 491.0 800.0 C 491.2898812615054 776.9441232876964, 489.95213115575353 753.8679339634771, 487.0 731.0 C 483.99267016695745 707.7044835069809, 479.3099611008016 684.6254173952129, 473.0 662.0 C 474.8326737506861 684.9875688660733, 476.4993983212827 707.9883679403058, 478.0 731.0 C 479.4991900610141 753.9899849912839, 480.83256963037957 776.9907825628383, 482.0 800.0 Z" fill="green"/>
<path d="M 499.0 800.0 L 508.0 800.0 C 511.81556543293823 775.5036208445551, 514.1545384252515 750.7773349258141, 515.0 726.0 C 515.8533914809447 700.9902690107564, 515.1850831073303 675.9287050002229, 513.0 651.0 C 510.6823987237438 676.0014649967428, 508.3490647744405 701.0014715964211, 506.0 726.0 C 503.6819837983278 750.6681123858154, 501.34864986519995 775.334785393167, 499.0 800.0 Z" fill="green"/>
<path d="M 514.0 800.0 L 523.0 800.0 C 526.825687634192 783.9266737206929, 529.1721287706184 767.5015857657087, 530.0 751.0 C 530.820211878501 734.6510846387937, 530.1498691407747 718.2276875645011, 528.0 702.0 L 521.0 751.0 L 514.0 800.0 Z" fill="green"/>
<path d="M 533.0 800.0 L 542.0 800.0 C 540.3771778269293 777.1792955756295, 537.3698323237342 754.4571295514886, 533.0 732.0 C 528.4569037584794 708.6524449218393, 522.4410243442526 685.5915738339697, 515.0 663.0 C 517.9781590542428 686.0028417885386, 520.9781608575985 709.0028556142647, 524.0 732.0 C 526.9787822813569 754.6694681582529, 529.9787840336882 777.3361480647558, 533.0 800.0 Z" fill="green"/>
<path d="M 549.0 800.0 L 558.0 800.0 C 563.3089586966277 784.7792858830375, 567.0029559491928 768.9958430766227, 569.0 753.0 C 570.9447509575283 737.4230120376357, 571.280440382697 721.6456090547096, 570.0 706.0 C 566.825160142176 721.6998308120257, 563.491599698204 737.3675648986934, 560.0 753.0 C 556.4925579154569 768.7033639298381, 552.8256391549041 784.3711077249272, 549.0 800.0 Z" fill="green"/>
<path d="M 571.0 800.0 L 580.0 800.0 C 581.292919875407 782.0188489340054, 580.9577736551042 763.9209530376519, 579.0 746.0 C 577.0022505368672 727.7131187681184, 573.3148189509448 709.6111818917718, 568.0 692.0 C 568.833223856714 709.9933166622427, 569.4999285862009 727.9943443583901, 570.0 746.0 C 570.4998144544542 763.9964035201103, 570.8331667996441 781.9974301603694, 571.0 800.0 Z" fill="green"/>
</svg>
