<svg version="1.1"
     xmlns="http://www.w3.org/2000/svg"
     width="600"
     height="800">

<rect x="0" y="0" width="600" height="800" fill="skyblue"/>
<circle cx="0" cy="0" r="200" fill="yellow"/>
<path d="M 0.0 800.0 L 8.0 800.0 C 5.113885969572543 766.1680633659665, 0.7752333315066187 732.4600697933005, -5.0 699.0 C -10.86234632611869 665.0352221347812, -18.204955209907602 631.3259722592047, -27.0 598.0 C -22.169523673263598 631.6436894709396, -17.50278331969026 665.3108877360045, -13.0 699.0 C -8.503067172788356 732.64533980507, -4.169665593589838 766.3125366896123, 0.0 800.0 Z" fill="green"/>
<path d="M 8.0 800.0 L 16.0 800.0 C 15.314545875375767 767.2705228873552, 13.312390043575268 734.5686443012804, 10.0 702.0 C 6.660219420627023 669.1620418178416, 1.988438934806303 636.4595784170965, -4.0 604.0 L 2.0 702.0 L 8.0 800.0 Z" fill="green"/>
<path d="M 16.0 800.0 L 24.0 800.0 C 23.976259110177594 750.9760352548411, 22.642291121681918 701.9527116776253, 20.0 653.0 C 17.33198529630063 603.5707174087903, 13.330044077080846 554.2134423717464, 8.0 505.0 C 9.328786164251685 554.3334560899855, 10.662119505136772 603.6667897027338, 12.0 653.0 C 13.328847382536672 702.0001219296909, 14.662180723320127 751.0001222034831, 16.0 800.0 Z" fill="green"/>
<path d="M 24.0 800.0 L 32.0 800.0 C 33.1615768351449 755.67222880393, 32.827990853487705 711.3052932435239, 31.0 667.0 C 29.16689927071681 622.5708579171207, 25.831025308510707 578.2037342197794, 21.0 534.0 C 21.83331527636547 578.3306184736978, 22.499988223281303 622.6643694436008, 23.0 667.0 C 23.49996938407792 711.3318716360154, 23.833305857003396 755.6656225351043, 24.0 800.0 Z" fill="green"/>
<path d="M 32.0 800.0 L 40.0 800.0 C 37.98313711692986 753.9172114538626, 34.64798610167459 707.89212744334, 30.0 662.0 C 25.324892956651485 615.8400925580851, 19.321582833537242 569.8147149475425, 12.0 524.0 L 22.0 662.0 L 32.0 800.0 Z" fill="green"/>
<path d="M 40.0 800.0 L 48.0 800.0 C 47.98626207911391 767.9631684935991, 46.651418731018616 735.926928139312, 44.0 704.0 C 41.33025333718612 671.8523769721273, 37.32566044136442 639.8156338055538, 32.0 608.0 L 36.0 704.0 L 40.0 800.0 Z" fill="green"/>
<path d="M 48.0 800.0 L 56.0 800.0 C 54.95776439594116 761.2698264339514, 52.62269893577535 722.5744559512036, 49.0 684.0 C 45.32283268962032 644.8455654322573, 40.31900852851983 605.8157369756734, 34.0 567.0 C 36.32326913666201 606.0006012626251, 38.65660257358349 645.000602994027, 41.0 684.0 C 43.32344013351751 722.6672628232866, 45.656773568682105 761.3339311774428, 48.0 800.0 Z" fill="green"/>
<path d="M 56.0 800.0 L 64.0 800.0 C 67.48963989121037 756.0845750436226, 69.49116983376082 712.0509163075125, 70.0 668.0 C 70.51228773589253 623.6497517708899, 69.51151233232058 579.282042212534, 67.0 535.0 C 65.50791160948117 579.339666970268, 63.84122771482058 623.6734585682395, 62.0 668.0 C 60.17202064374617 712.0075945083651, 58.1720002665927 756.0080428057413, 56.0 800.0 Z" fill="green"/>
<path d="M 64.0 800.0 L 72.0 800.0 C 69.25332598283424 767.1960848403196, 65.24941241825815 734.4974573962813, 60.0 702.0 C 54.62993865531982 668.7556431349951, 47.95644608215672 635.7218548978378, 40.0 603.0 C 43.97978923397948 636.0024456033962, 47.97979023417503 669.0024538550094, 52.0 702.0 C 55.98019252926388 734.6690880079937, 59.98019350964661 767.3357626811193, 64.0 800.0 Z" fill="green"/>
<path d="M 72.0 800.0 L 80.0 800.0 C 86.49440692930047 747.8238257303391, 91.49713009693383 695.46198990911, 95.0 643.0 C 98.48953299589049 590.737755074013, 100.49061398368617 538.3761358933593, 101.0 486.0 C 96.49855716880866 538.3478914406871, 91.83185949777175 590.6815724658869, 87.0 643.0 C 82.16532135299141 695.3489527294595, 77.16528809524871 747.6826341604998, 72.0 800.0 Z" fill="green"/>
<path d="M 80.0 800.0 L 88.0 800.0 C 94.49330207094079 758.1957752561498, 99.49752817716544 716.1602759638628, 103.0 674.0 C 106.50942887041762 631.7559800230995, 108.51112603568416 589.3867233582911, 109.0 547.0 C 104.51808619381941 589.3534278425245, 99.85136028999337 631.6872985415179, 95.0 674.0 C 90.18203833473756 716.021404594739, 85.18197573722694 758.0219304138282, 80.0 800.0 Z" fill="green"/>
<path d="M 88.0 800.0 L 96.0 800.0 C 98.66555369468607 762.3962320040582, 100.0 724.6981238789396, 100.0 687.0 C 100.0 649.3018761210604, 98.66555369468607 611.6037679959418, 96.0 574.0 L 92.0 687.0 L 88.0 800.0 Z" fill="green"/>
<path d="M 96.0 800.0 L 104.0 800.0 C 107.99458766373064 750.4165118871693, 110.6625264518759 700.7261519579638, 112.0 651.0 C 113.34451501821665 601.0120520518866, 113.34451501821665 550.9879479481134, 112.0 501.0 C 109.34228611358816 551.0004769457486, 106.67561938992468 601.0004780144388, 104.0 651.0 C 101.34216730980982 700.6671404488694, 98.67550058690162 750.3338081630346, 96.0 800.0 Z" fill="green"/>
<path d="M 104.0 800.0 L 112.0 800.0 C 114.48216701277045 762.7260120926085, 115.48321864345657 725.3534178803262, 115.0 688.0 C 114.5119526014684 650.2733131893419, 112.50980709017958 612.5662393934024, 109.0 575.0 C 108.50512604342258 612.6694460028394, 107.8384501321203 650.336634991418, 107.0 688.0 C 106.16880194196212 725.337600240027, 105.16878831385272 762.6714423561109, 104.0 800.0 Z" fill="green"/>
<path d="M 112.0 800.0 L 120.0 800.0 C 125.82317188745908 768.8968825183365, 130.1630662546832 737.5161078630235, 133.0 706.0 C 135.81271184534333 674.7529784395633, 137.14802962748303 643.3730105592804, 137.0 612.0 C 133.16369179124837 643.3539405872327, 129.1636190439118 674.6878437747025, 125.0 706.0 C 120.83058924792641 737.3557122924738, 116.4971768855729 768.6896170664145, 112.0 800.0 Z" fill="green"/>
<path d="M 120.0 800.0 L 128.0 800.0 C 131.32081509143921 770.1075651300016, 133.3234050193913 740.0687162107204, 134.0 710.0 C 134.6827663904876 679.6570187155116, 134.01522059162576 649.283684867299, 132.0 619.0 C 130.01112342370465 649.3340653803199, 128.01112324440953 679.6674014329623, 126.0 710.0 C 124.01088082227358 740.0007240668564, 122.01088064688042 770.0007266977539, 120.0 800.0 Z" fill="green"/>
<path d="M 128.0 800.0 L 136.0 800.0 C 135.3106245218468 770.2643288612085, 133.30802703669616 740.559132831474, 130.0 711.0 C 126.65885763123909 681.1449625436842, 121.98600819791314 651.4389911461121, 116.0 622.0 L 122.0 711.0 L 128.0 800.0 Z" fill="green"/>
<path d="M 136.0 800.0 L 144.0 800.0 C 145.14369174913577 755.6719636475173, 144.81011177662373 711.3058273034169, 143.0 667.0 C 141.1712517933818 622.2380116685456, 137.8354010163338 577.5376112561025, 133.0 533.0 C 133.83268186694715 577.6639830947867, 134.4993546735317 622.3310611359525, 135.0 667.0 C 135.4968678558874 711.3319026559402, 135.83020421302746 755.6656381555717, 136.0 800.0 Z" fill="green"/>
<path d="M 144.0 800.0 L 152.0 800.0 C 150.8029227087226 741.9448618188666, 148.13511554292035 683.9200559626671, 144.0 626.0 C 139.8259433321947 567.5345004797889, 134.1568072417259 509.17574660731594, 127.0 451.0 C 130.15909527392344 509.32500625845745, 133.15911015217148 567.6586288910577, 136.0 626.0 C 138.8239080654115 683.99262810124, 141.49058779955044 741.9929123187617, 144.0 800.0 Z" fill="green"/>
<path d="M 152.0 800.0 L 160.0 800.0 C 161.99880014118548 750.3631298272272, 162.66578662962945 700.6726364381528, 162.0 651.0 C 161.33373368973182 601.2915758170727, 159.3327728412996 551.6010480810065, 156.0 502.0 L 154.0 651.0 L 152.0 800.0 Z" fill="green"/>
<path d="M 160.0 800.0 L 168.0 800.0 C 168.49426402282538 748.3188182404408, 167.4937065743765 696.6233500705811, 165.0 645.0 C 162.49929764697785 593.2318271448331, 158.49705532412176 541.5361971412754, 153.0 490.0 C 154.49992199294587 541.6621884314297, 155.8332645677661 593.3292132057131, 157.0 645.0 C 158.16656556053726 696.6632637483789, 159.1665724896343 748.330288418392, 160.0 800.0 Z" fill="green"/>
<path d="M 168.0 800.0 L 176.0 800.0 C 181.4910974197066 765.5271209066477, 185.49604794216253 730.8175497120294, 188.0 696.0 C 190.512396211957 661.0650340000217, 191.51364220508717 626.0214242404652, 191.0 591.0 C 187.51781041639282 626.0189986210888, 183.85107586533846 661.0196466084259, 180.0 696.0 C 176.18119222258545 730.6872537076629, 172.18111940271518 765.3545514798718, 168.0 800.0 Z" fill="green"/>
<path d="M 176.0 800.0 L 184.0 800.0 C 187.48900791565572 758.4226056145694, 189.4907127781758 716.7204209787345, 190.0 675.0 C 190.51291803389472 632.9821456642411, 189.5120534039434 590.9458312062866, 187.0 549.0 C 185.50833639907606 591.0067011458254, 183.8416504437139 633.007187220952, 182.0 675.0 C 180.17230085356766 716.6746990909869, 178.1722780564936 758.341840696696, 176.0 800.0 Z" fill="green"/>
<path d="M 184.0 800.0 L 192.0 800.0 C 194.33200767941102 760.0481041157411, 195.33274741326517 720.0185147615758, 195.0 680.0 C 194.6670678253892 639.9592645558823, 192.99916689933528 599.9296423305874, 190.0 560.0 L 187.0 680.0 L 184.0 800.0 Z" fill="green"/>
<path d="M 192.0 800.0 L 200.0 800.0 C 202.65642017900467 753.7173530819292, 203.99047878072042 707.3588166723075, 204.0 661.0 C 204.00958967960585 614.307849999046, 202.67552061003616 567.6154325641071, 200.0 521.0 C 198.67147605654174 567.6668039124555, 197.3381427137675 614.3334709095534, 196.0 661.0 C 194.67140762426908 707.3334696019316, 193.33807428162913 753.6668032586698, 192.0 800.0 Z" fill="green"/>
<path d="M 200.0 800.0 L 208.0 800.0 C 212.33215627742675 747.0866131987444, 215.33342106955132 694.0642685378771, 217.0 641.0 C 218.6639478349954 588.0195061655762, 218.99742125739013 534.9972320048162, 218.0 482.0 L 209.0 641.0 L 200.0 800.0 Z" fill="green"/>
<path d="M 208.0 800.0 L 216.0 800.0 C 220.497492187116 763.4764262420704, 223.50083593762798 726.7688915135906, 225.0 690.0 C 226.49416848236058 653.3536313937406, 226.49416848236058 616.6463686062594, 225.0 580.0 C 222.49896990996052 616.6784622850838, 219.83226697287344 653.3456276700314, 217.0 690.0 C 214.16575456382247 726.6799770244709, 211.16571370257242 763.3471431064161, 208.0 800.0 Z" fill="green"/>
<path d="M 216.0 800.0 L 224.0 800.0 C 228.99557700770274 763.1477996253859, 232.66540477247756 726.1159012717492, 235.0 689.0 C 237.3240592199333 652.0516024620317, 238.32491357303584 615.0199913972377, 238.0 578.0 L 227.0 689.0 L 216.0 800.0 Z" fill="green"/>
<path d="M 224.0 800.0 L 232.0 800.0 C 236.83181477339912 745.4384628320842, 240.16681977912427 690.7443807381917, 242.0 636.0 C 243.8298149636394 581.3561161585843, 244.1633148509907 526.6621346329683, 243.0 472.0 C 240.16608877011407 526.6756126022341, 237.16607031072408 581.342615640007, 234.0 636.0 C 230.8328149446256 690.6766287294594, 227.49946108641333 745.3436320041405, 224.0 800.0 Z" fill="green"/>
<path d="M 232.0 800.0 L 240.0 800.0 C 238.48694202802827 745.2652423695233, 235.48546372861125 690.5716378023684, 231.0 636.0 C 226.49437476372256 581.1830706156504, 220.49139152486538 526.4892233282851, 213.0 472.0 C 216.4994610864133 526.6563679958595, 219.8328149446256 581.3233712705406, 223.0 636.0 C 226.16607031072408 690.657384359993, 229.16608877011407 745.3243873977659, 232.0 800.0 Z" fill="green"/>
<path d="M 240.0 800.0 L 248.0 800.0 C 248.3137029974823 746.9860682613097, 247.3132935164525 693.9643657667292, 245.0 641.0 C 242.66707375701432 587.5861301380462, 238.99888006566795 534.2305855366444, 234.0 481.0 C 234.99684660598476 534.3333923973, 235.99684660831537 587.6667258549319, 237.0 641.0 C 237.99688589332575 694.0000586957165, 238.99688589562732 747.0000588176995, 240.0 800.0 Z" fill="green"/>
<path d="M 248.0 800.0 L 256.0 800.0 C 257.30987047456824 765.3498326024371, 257.30987047456824 730.6501673975629, 256.0 696.0 C 254.67369375289218 660.9150550569759, 252.0044246306909 625.8808978280844, 248.0 591.0 L 248.0 696.0 L 248.0 800.0 Z" fill="green"/>
<path d="M 256.0 800.0 L 264.0 800.0 C 263.9712577846132 757.9720976117727, 262.6370673339604 715.945098416209, 260.0 674.0 C 257.3314986494875 631.554913244125, 253.32886562674153 589.1937137533967, 248.0 547.0 C 249.32802673492233 589.3335002483396, 250.661360082223 631.6668340251362, 252.0 674.0 C 253.32810993314584 716.0001656054716, 254.66144328022767 758.0001660385483, 256.0 800.0 Z" fill="green"/>
<path d="M 264.0 800.0 L 272.0 800.0 C 278.49545322909626 750.4990753319743, 283.49848153467155 700.802327496593, 287.0 651.0 C 290.5100980790496 601.0756440929995, 292.5113153450111 551.045212443963, 293.0 501.0 C 288.5156321305996 551.0167911225883, 283.8489241168384 601.0172341271726, 279.0 651.0 C 274.1800046001377 700.6845683236852, 269.17996082669663 750.351669806533, 264.0 800.0 Z" fill="green"/>
<path d="M 272.0 800.0 L 280.0 800.0 C 278.99318412499906 740.9574903608819, 276.65906489628736 681.9376184348864, 273.0 623.0 C 269.3306858259732 563.897293479015, 264.3289923165843 504.8773100682258, 258.0 446.0 L 265.0 623.0 L 272.0 800.0 Z" fill="green"/>
<path d="M 280.0 800.0 L 288.0 800.0 C 292.66405433093365 758.4540735370471, 295.9996583357941 716.7590234762912, 298.0 675.0 C 299.9942242711044 633.3686828884322, 300.66134229849234 591.6738061766813, 300.0 550.0 L 290.0 675.0 L 280.0 800.0 Z" fill="green"/>
<path d="M 288.0 800.0 L 296.0 800.0 C 298.99864253720244 768.7564747644376, 300.6673203559262 737.385331772431, 301.0 706.0 C 301.33237897316343 674.6430338232545, 300.3311744623853 643.2719591522066, 298.0 612.0 L 293.0 706.0 L 288.0 800.0 Z" fill="green"/>
<path d="M 296.0 800.0 L 304.0 800.0 C 302.6311914726684 752.9383355743105, 299.9631705368877 705.9144665811757, 296.0 659.0 C 291.98990258632483 611.5300313599768, 286.6537961894623 564.1720870878219, 280.0 517.0 C 282.6572072956106 564.3338656235123, 285.32387403327823 611.6672002171136, 288.0 659.0 C 290.6573398470455 706.0005285623264, 293.3240065837198 753.0005297962117, 296.0 800.0 Z" fill="green"/>
<path d="M 304.0 800.0 L 312.0 800.0 C 317.66266866588313 750.1270972623404, 321.99804725841295 700.1034981177652, 325.0 650.0 C 327.9924006750777 600.0559287578619, 329.6598489815389 550.0324795640253, 330.0 500.0 L 317.0 650.0 L 304.0 800.0 Z" fill="green"/>
<path d="M 312.0 800.0 L 320.0 800.0 C 324.3289883433225 747.4202612530886, 327.3302631244032 694.7312150963388, 329.0 642.0 C 330.6776202923752 589.0198222366009, 331.01109660875267 535.9970879325886, 330.0 483.0 C 327.00949294712035 536.0005367680498, 324.0094928829584 589.0005379015773, 321.0 642.0 C 318.0093741045564 694.6672000766835, 315.0093740411964 747.3338678556696, 312.0 800.0 Z" fill="green"/>
<path d="M 320.0 800.0 L 328.0 800.0 C 330.9863817932765 768.7554748835055, 332.65502272554505 737.3850253568573, 333.0 706.0 C 333.3483306370109 674.309895507086, 332.3471229338335 642.6049849064663, 330.0 611.0 C 328.3422205195003 642.6671335796219, 326.6755537653197 674.3338019090528, 325.0 706.0 C 323.34203466263244 737.3337953622683, 321.6753679102795 768.6671303065035, 320.0 800.0 Z" fill="green"/>
<path d="M 328.0 800.0 L 336.0 800.0 C 340.4934676802657 751.4407518237646, 343.49535364692696 702.7434905868158, 345.0 654.0 C 346.5120843020857 605.0155547217753, 346.5120843020857 555.9844452782247, 345.0 507.0 C 342.5102559401757 556.0094149022023, 339.8435660998046 605.0098407190212, 337.0 654.0 C 334.1745980284281 702.6772199983723, 331.17457229001224 751.3443041993398, 328.0 800.0 Z" fill="green"/>
<path d="M 336.0 800.0 L 344.0 800.0 C 343.97500934307624 752.9750280461308, 342.64098753400884 705.9507592765052, 340.0 659.0 C 337.3318681507562 611.5666764577, 333.3297600458094 564.2083972158297, 328.0 517.0 C 329.32859229137097 564.3334667253937, 330.66192563362216 611.6668003753107, 332.0 659.0 C 333.3286588051073 706.0001324556322, 334.66199214723343 753.000132765578, 336.0 800.0 Z" fill="green"/>
<path d="M 344.0 800.0 L 352.0 800.0 C 349.65210683003704 747.2525683299477, 345.98390920724387 694.5639115661909, 341.0 642.0 C 335.9923008432024 589.1851824175659, 329.65629782468875 536.4963152109789, 322.0 484.0 L 333.0 642.0 L 344.0 800.0 Z" fill="green"/>
<path d="M 352.0 800.0 L 360.0 800.0 C 356.9289895812288 762.534529522279, 352.59236184211676 725.1728136160827, 347.0 688.0 C 341.29933031566384 650.1072567109729, 334.2938004376402 612.4108340339883, 326.0 575.0 C 330.31415891939685 612.6688692761493, 334.6474930013196 650.335542449786, 339.0 688.0 C 343.31449458134796 725.3355167628857, 347.6478286502523 762.6688564334463, 352.0 800.0 Z" fill="green"/>
<path d="M 360.0 800.0 L 368.0 800.0 C 367.2975683939654 758.9504118485356, 365.2962342157389 717.9230611948935, 362.0 677.0 C 358.6598113353425 635.5312401425862, 353.9899480025328 594.169593480557, 348.0 553.0 C 349.9918562773818 594.3337268483384, 351.99185632914026 635.667061251346, 354.0 677.0 C 355.9919869453216 718.0003903574524, 357.99198699625055 759.0003914014953, 360.0 800.0 Z" fill="green"/>
<path d="M 368.0 800.0 L 376.0 800.0 C 377.99869746108493 752.3643771774753, 378.66571130579365 704.6728872808028, 378.0 657.0 C 377.3337679884762 609.2898239645048, 375.33272482429464 561.5982952181762, 372.0 514.0 L 370.0 657.0 L 368.0 800.0 Z" fill="green"/>
<path d="M 376.0 800.0 L 384.0 800.0 C 385.47409561480237 763.3530896247314, 385.47409561480237 726.6469103752686, 384.0 690.0 C 382.50761197911055 652.8983293231006, 379.50429839032074 615.8574617280266, 375.0 579.0 C 375.50075073027443 615.9982391976878, 375.8340886134633 652.998744231648, 376.0 690.0 C 376.1644100074452 726.6664209331504, 376.1644100074452 763.3335790668496, 376.0 800.0 Z" fill="green"/>
<path d="M 384.0 800.0 L 392.0 800.0 C 389.6315992718853 766.2087785896293, 385.96130736625145 732.5088256379003, 381.0 699.0 C 375.9813167662799 665.1036559527569, 369.64157597363317 631.4029285813189, 362.0 598.0 L 373.0 699.0 L 384.0 800.0 Z" fill="green"/>
<path d="M 392.0 800.0 L 400.0 800.0 C 405.495403655401 758.8296303857984, 409.49890261000024 717.4601411882727, 412.0 676.0 C 414.49019105270656 634.7206507656241, 415.49105817852234 593.3514762319056, 415.0 552.0 C 411.49853610879916 593.3477666419803, 407.8318304019522 634.6815400646186, 404.0 676.0 C 400.16532711587286 717.3491102965775, 396.16528446337566 758.6828843723821, 392.0 800.0 Z" fill="green"/>
<path d="M 400.0 800.0 L 408.0 800.0 C 405.0817514288365 763.8484185300708, 400.74396800828504 727.8114485747201, 395.0 692.0 C 389.1282621735039 655.3919553670037, 381.7870591226264 619.0196311603829, 373.0 583.0 C 377.8117483553694 619.3145026276586, 382.47846464460355 655.6482223081247, 387.0 692.0 C 391.475626193336 727.9826819042573, 395.8090046738141 763.983056972845, 400.0 800.0 Z" fill="green"/>
<path d="M 408.0 800.0 L 416.0 800.0 C 418.8146039680272 768.0846479224839, 420.14984468266005 736.0388707712947, 420.0 704.0 C 419.8485236696878 671.6122603376376, 418.17942056273495 639.231660062753, 415.0 607.0 C 414.174255317202 639.3384093674481, 413.1742359559942 671.6723687131662, 412.0 704.0 C 410.837417214529 736.0068104176772, 409.50405857608786 768.0074177402652, 408.0 800.0 Z" fill="green"/>
<path d="M 416.0 800.0 L 424.0 800.0 C 426.83240590029493 747.7191901408569, 428.16646897866946 695.3572143146581, 428.0 643.0 C 427.8335006443927 590.6332316419564, 426.16592146346983 538.2712453609779, 423.0 486.0 C 422.1665748724465 538.3363395015159, 421.16656811856234 590.6700262881212, 420.0 643.0 C 418.83326630789264 695.3374010186257, 417.499923966824 747.671087905571, 416.0 800.0 Z" fill="green"/>
<path d="M 424.0 800.0 L 432.0 800.0 C 430.10866306159875 759.5647629932582, 426.77249461603844 719.1971248019784, 422.0 679.0 C 417.14656914133394 638.1211763156442, 410.80766482389413 597.4187380668203, 403.0 557.0 C 406.81908183355296 597.6527323111709, 410.4857828447557 638.3197798899652, 414.0 679.0 C 417.4831650163456 719.3207637106482, 420.81652902265193 759.6544681869553, 424.0 800.0 Z" fill="green"/>
<path d="M 432.0 800.0 L 440.0 800.0 C 447.4914949618017 745.1763788008517, 453.49444248591556 690.1493598298084, 458.0 635.0 C 462.48563767477174 580.094464909433, 465.48709843349525 525.067684332836, 467.0 470.0 C 461.49811013963546 525.0168107377048, 455.83140957184503 580.0171397780235, 450.0 635.0 C 444.1648825870646 690.0178205014568, 438.16484664609527 745.0181499603425, 432.0 800.0 Z" fill="green"/>
<path d="M 440.0 800.0 L 448.0 800.0 C 449.81379396279584 757.6955874659059, 450.14739914744644 715.3277290152771, 449.0 673.0 C 447.84134101377674 630.2568938201491, 445.17245663917623 587.5547438265413, 441.0 545.0 C 441.16863165863856 587.6664445052143, 441.1686316586385 630.3335554947857, 441.0 673.0 C 440.83268059627693 715.3344235076258, 440.4993438454861 757.6681908580574, 440.0 800.0 Z" fill="green"/>
<path d="M 448.0 800.0 L 456.0 800.0 C 454.97448569422403 742.9564766763534, 452.6403339440968 685.9364839232475, 449.0 629.0 C 445.32754977837465 571.5612028419625, 440.3257649461161 514.2074034320644, 434.0 457.0 C 436.32650223292444 514.3336110714832, 438.6598355883404 571.6669449474188, 441.0 629.0 C 443.3265813679383 686.0002761291958, 445.6599147230986 743.0002766623992, 448.0 800.0 Z" fill="green"/>
<path d="M 456.0 800.0 L 464.0 800.0 C 468.8308417070313 757.4679866346551, 472.1669177470283 714.7662133226933, 474.0 672.0 C 475.82756711990015 629.3624559484525, 476.1611730758699 586.6608935843269, 475.0 544.0 C 472.16572009794885 586.6781032834867, 469.1656899314919 629.3451989842083, 466.0 672.0 C 462.83248404150794 714.6794050736836, 459.49911715121 757.3465012694975, 456.0 800.0 Z" fill="green"/>
<path d="M 464.0 800.0 L 472.0 800.0 C 474.8325694291177 742.3810030329455, 476.1665038414024 684.688339701633, 476.0 627.0 C 475.8334711333864 569.3029898504631, 474.16605289215084 511.6103187037122, 471.0 454.0 C 470.16659105917194 511.66939506645076, 469.1665854956711 569.3363825616678, 468.0 627.0 C 466.8332781284204 684.6703584172395, 465.4999373753514 742.337345987472, 464.0 800.0 Z" fill="green"/>
<path d="M 472.0 800.0 L 480.0 800.0 C 476.9324608632929 761.2054298228999, 472.59603898309774 722.5112038150047, 467.0 684.0 C 461.30116049869844 644.7813365477781, 454.2959863050938 605.7525088976951, 446.0 567.0 C 450.3148063698716 606.0020555816343, 454.6481403551257 645.0020614489215, 459.0 684.0 C 463.3151197939147 722.668704943605, 467.6484537682078 761.3353773296053, 472.0 800.0 Z" fill="green"/>
<path d="M 480.0 800.0 L 488.0 800.0 C 486.48877551424454 740.9368440609627, 483.48750309108203 681.9118197387666, 479.0 623.0 C 474.49516812022506 563.8606883899082, 468.492603580927 504.83547042014413, 461.0 446.0 C 464.499537129868 504.99045337403606, 467.832888099671 563.9907655395493, 471.0 623.0 C 474.16615443457243 681.9913950777276, 477.1661702977994 740.9917070545247, 480.0 800.0 Z" fill="green"/>
<path d="M 488.0 800.0 L 496.0 800.0 C 497.3130814086907 760.681279470911, 497.3130814086907 721.318720529089, 496.0 682.0 C 494.67279647274137 642.2584087870564, 492.00410555681407 602.5616314126373, 488.0 563.0 L 488.0 682.0 L 488.0 800.0 Z" fill="green"/>
<path d="M 496.0 800.0 L 504.0 800.0 C 506.3175042489583 765.0542015086004, 507.3184496788964 730.0211114607669, 507.0 695.0 C 506.6782897356592 659.6203096683977, 505.0100149167901 624.2528835083737, 502.0 589.0 C 501.0047805950775 624.3334684174173, 500.0047805828735 659.6668021819587, 499.0 695.0 C 498.004690856567 730.0001338147396, 497.004690844592 765.000134233865, 496.0 800.0 Z" fill="green"/>
<path d="M 504.0 800.0 L 512.0 800.0 C 517.4943466194438 754.8151016303707, 521.4972500472942 709.4488627814003, 524.0 664.0 C 526.5120007160564 618.3831473346374, 527.5127319492112 572.6830876872297, 527.0 527.0 C 523.5140452125163 572.6809365227383, 519.8473402754123 618.3480798303071, 516.0 664.0 C 512.1782034949601 709.3488219037749, 508.1781622979308 754.6826221367743, 504.0 800.0 Z" fill="green"/>
<path d="M 512.0 800.0 L 520.0 800.0 C 516.9565778931411 746.905056574201, 512.6215355667903 693.884154274987, 507.0 641.0 C 501.3135543481618 587.5052091985889, 494.31072954306234 534.150353540688, 486.0 481.0 C 490.31975417786003 534.3344354796643, 494.65308769846536 587.6677711178842, 499.0 641.0 C 503.3199228320181 694.0010953174581, 507.6532563503052 747.0010975795847, 512.0 800.0 Z" fill="green"/>
<path d="M 520.0 800.0 L 528.0 800.0 C 526.1330853156798 763.884254028764, 522.7960736049295 727.8445275526611, 518.0 692.0 C 513.1509849297066 655.759802578561, 506.810507515847 619.7191941208323, 499.0 584.0 C 502.83181948613833 619.9829236292165, 506.49853761438067 655.9834288883231, 510.0 692.0 C 513.4983412990077 727.9844671432458, 516.8317213322267 763.9849715020104, 520.0 800.0 Z" fill="green"/>
<path d="M 528.0 800.0 L 536.0 800.0 C 537.9967890179944 769.7153665604193, 538.6643109390383 739.3431191529221, 538.0 709.0 C 537.3344065543989 678.5983009755673, 535.3318308735961 648.2259031500594, 532.0 618.0 L 530.0 709.0 L 528.0 800.0 Z" fill="green"/>
<path d="M 536.0 800.0 L 544.0 800.0 C 547.4849571006423 768.7850563934228, 549.4879583067441 737.4047041644955, 550.0 706.0 C 550.5166989498334 674.3096554922296, 549.51517092109 642.5946012486886, 547.0 611.0 C 545.5109323135684 642.6756811117968, 543.844230704787 674.3430116786428, 542.0 706.0 C 540.173996184989 737.3441161653516, 538.1739550791727 768.6780934898077, 536.0 800.0 Z" fill="green"/>
<path d="M 544.0 800.0 L 552.0 800.0 C 559.1503140451945 769.2958116678973, 564.8256860496439 738.2481883494387, 569.0 707.0 C 573.1654241224957 675.8183593560481, 575.8361699858459 644.4370954616832, 577.0 613.0 C 571.8587244742613 644.3656205282311, 566.5252576482711 675.6997381309234, 561.0 707.0 C 555.5217360914463 738.034045078295, 549.85492999128 769.0348078615583, 544.0 800.0 Z" fill="green"/>
<path d="M 552.0 800.0 L 560.0 800.0 C 561.646803359395 764.0281422534478, 561.980432602432 727.996184005458, 561.0 692.0 C 560.0084884323775 655.597056296219, 557.6730366491081 619.2307356710251, 554.0 583.0 C 553.6682168560195 619.3333475332055, 553.3348835222816 655.6666809106322, 553.0 692.0 C 552.668188543846 728.0000140700081, 552.3348552101155 764.000014112899, 552.0 800.0 Z" fill="green"/>
<path d="M 560.0 800.0 L 568.0 800.0 C 570.8229703022802 745.0495754632706, 572.15695600625 690.022665174512, 572.0 635.0 C 571.842067291387 579.6349410020517, 570.1745749804493 524.2741962789171, 567.0 469.0 C 566.171137707371 524.3362496978785, 565.1711313304567 579.6699358871424, 564.0 635.0 C 562.8357717960143 690.0039261125471, 561.5024300600681 745.0042727203275, 560.0 800.0 Z" fill="green"/>
<path d="M 568.0 800.0 L 576.0 800.0 C 583.4949751685165 749.1907241342233, 589.4984203554757 698.16144004507, 594.0 647.0 C 598.50764693436 595.7696038751365, 601.509374174706 544.4067155403285, 603.0 493.0 C 597.5177648067029 544.3534691427349, 591.8510493879604 595.6872441125201, 586.0 647.0 C 580.182194232828 698.0212147150809, 574.182143197889 749.0216485120624, 568.0 800.0 Z" fill="green"/>
<path d="M 576.0 800.0 L 584.0 800.0 C 589.4940565347422 763.8519422585673, 593.4985798334038 727.4775222957239, 596.0 691.0 C 598.4873314002853 654.7279303083966, 599.4884495210999 618.3539719187975, 599.0 582.0 C 595.4981103645796 618.3497106515185, 591.8313934369103 654.683542025696, 588.0 691.0 C 584.1649371548289 727.3512390306188, 580.1648822195697 763.6850713592233, 576.0 800.0 Z" fill="green"/>
<path d="M 584.0 800.0 L 592.0 800.0 C 590.083438548708 768.5374755044508, 586.7455757848194 737.1615655238974, 582.0 706.0 C 577.1363194438098 674.0629059125234, 570.7939464433155 642.3510409100514, 563.0 611.0 C 566.8146139794468 642.6493023472351, 570.4813340222253 674.3164299894133, 574.0 706.0 C 577.4780353121835 737.3177141589747, 580.8114160550988 768.6514931423782, 584.0 800.0 Z" fill="green"/>
<path d="M 592.0 800.0 L 600.0 800.0 C 604.4922529709173 757.7900698160232, 607.4947424600068 715.4216070255383, 609.0 673.0 C 610.5133181508273 630.3512264889226, 610.5133181508273 587.6487735110774, 609.0 545.0 C 606.5116828985593 587.677564082491, 603.8449851742115 630.3447276720572, 601.0 673.0 C 598.1756731938376 715.3455384414638, 595.1756387595244 757.6793576812154, 592.0 800.0 Z" fill="green"/>
<path d="M 200.0 409.0 L 200.0 244.0 C 200.0 230.19176133042762, 199.29972644087232 216.05032287883216, 203.46448407559444 202.88513207125564 C 205.54686289304456 196.30253666744866, 209.03534926486037 190.05734642171515, 214.1688763314286 185.44066323501096 C 219.30240339799687 180.82398004830677, 226.0958806651691 177.9999999999207, 233.0 178.0 C 239.9041193347862 178.0, 246.69759660188197 180.8239800484458, 251.83112366836394 185.44066323517904 C 256.9646507348459 190.05734642191226, 260.4531371065675 196.30253666764537, 262.5355159239286 202.88513207143362 C 266.70027355879324 216.05032287891686, 265.99999999983595 230.19176133047358, 266.0 244.0 L 266.0 277.0 C 266.0 290.8082386695724, 265.2997264408723 304.94967712116784, 269.46448407559444 318.1148679287444 C 271.5468628930446 324.69746333255137, 275.03534926486043 330.9426535782849, 280.16887633142863 335.55933676498904 C 285.3024033979969 340.1760199516932, 292.0958806651691 343.0000000000793, 299.0 343.0 C 305.9041193347862 343.0, 312.69759660188197 340.1760199515542, 317.83112366836394 335.55933676482096 C 322.9646507348459 330.94265357808774, 326.4531371065675 324.69746333235463, 328.5355159239286 318.11486792856635 C 332.70027355879324 304.94967712108314, 331.99999999983595 290.8082386695264, 332.0 277.0 L 332.0 244.0 C 332.0 230.19176133042762, 331.2997264408723 216.05032287883216, 335.46448407559444 202.88513207125564 C 337.5468628930446 196.30253666744866, 341.03534926486043 190.05734642171515, 346.16887633142863 185.44066323501096 C 351.3024033979969 180.82398004830677, 358.0958806651691 177.9999999999207, 365.0 178.0 C 371.9041193347862 178.0, 378.6975966018819 180.8239800484458, 383.8311236683639 185.44066323517904 C 388.9646507348459 190.05734642191226, 392.45313710656745 196.30253666764537, 394.5355159239286 202.88513207143362 C 398.70027355879324 216.05032287891686, 397.99999999983595 230.19176133047358, 398.0 244.0 L 398.0 409.0 C 398.0 434.9181393921158, 387.3304634573715 460.6766792175649, 369.0035713374682 479.0035713374682 C 350.6766792175649 497.3304634573715, 324.9181393921158 508.0, 299.0 508.0 C 273.0818606078842 508.0, 247.32332078243505 497.3304634573715, 228.9964286625318 479.0035713374682 C 210.66953654262855 460.6766792175649, 200.0 434.9181393921158, 200.0 409.0 Z" fill="white" stroke="#222" stroke-width="8"/>
<path d="M 216.0 310.0 L 216.0 244.0 C 216.0 234.22834905515546, 215.1020924443995 224.4122681509689, 216.1841437241162 214.70071177642498 C 216.72516936379034 209.844933589686, 217.9808881723563 204.95096086504498, 220.76278042847377 200.93444919234338 C 222.15372655653243 198.92619335599267, 223.92588456807474 197.1637763205271, 226.02493950620254 195.91405995185806 C 228.12399444433038 194.664343583189, 230.55779331036828 193.94127078651735, 233.0 194.0 C 235.41232855641024 194.0580107160999, 237.77996892273725 194.8771079083559, 239.8018790488464 196.1941400830548 C 241.82378917495552 197.5111722577537, 243.50829248740763 199.31323878994007, 244.81698664953686 201.3405557107158 C 247.43437497379512 205.39518955226723, 248.5521495726032 210.25006315410437, 249.0028752097118 215.05502138795725 C 249.9043264831478 224.66493785507254, 249.00000000072285 234.3478961410834, 249.0 244.0 L 249.0 310.0" fill="lightpink"/>
<path d="M 348.0 310.0 L 348.0 244.0 C 348.0 234.22834905515546, 347.1020924443995 224.4122681509689, 348.1841437241162 214.70071177642498 C 348.72516936379037 209.844933589686, 349.9808881723563 204.95096086504498, 352.7627804284738 200.93444919234338 C 354.15372655653243 198.92619335599267, 355.9258845680747 197.1637763205271, 358.02493950620254 195.91405995185806 C 360.1239944443304 194.664343583189, 362.5577933103683 193.94127078651735, 365.0 194.0 C 367.4123285564103 194.0580107160999, 369.7799689227372 194.8771079083559, 371.8018790488464 196.19414008305478 C 373.82378917495555 197.51117225775369, 375.50829248740763 199.31323878994004, 376.8169866495369 201.3405557107158 C 379.4343749737951 205.39518955226723, 380.55214957260324 210.25006315410437, 381.00287520971176 215.05502138795725 C 381.90432648314777 224.66493785507254, 381.0000000007229 234.3478961410834, 381.0 244.0 L 381.0 310.0" fill="lightpink"/>
<circle cx="266" cy="392.5" r="8"/>
<circle cx="332" cy="392.5" r="8"/>
<circle cx="299" cy="425.5" r="11"/>
<path d="M 322.0 455.0 C 315.7063661758018 455.0521961277266, 309.4320989331617 452.4686743219336, 305.0 448.0 C 302.0772695333536 445.0531500349613, 299.9507898076094 441.3239327935063, 298.90312404021506 437.3078806851613 C 297.8554582728207 433.29182857681633, 297.8892468500779 428.99906308240446, 299.0 425.0 C 299.8719722839633 429.09088013900083, 299.68769047885155 433.40230512834063, 298.4698259324832 437.4038600664079 C 297.2519613861149 441.40541500447523, 295.0031316627347 445.0884993230377, 292.0 448.0 C 287.49276132443146 452.36971466086123, 281.27730583260774 454.9290198633769, 275.0 455.0" fill="none" stroke="black" stroke-width="6.8" stroke-linecap="round"/>
<circle cx="299" cy="706.0" r="33" fill="white" stroke="#222" stroke-width="8"/>
<path d="M 299.0 508.0 C 285.6168687650313 508.0, 272.1798037521314 509.686385334832, 259.4080482065763 513.6851928992162 C 246.63629266102126 517.6840004636003, 234.5346850468751 524.164640813866, 224.7968955388809 533.3452539279446 C 215.05910603136724 542.5258670405552, 207.9255297722978 554.3819492776137, 204.1390089945377 567.2182439928216 C 200.3524882167781 580.0545387080286, 200.00000000073817 593.616868766389, 200.0 607.0 L 200.0 706.0 C 200.0 710.4803295401729, 199.9057151881855 715.0167262087557, 198.70087075556614 719.3320133002169 C 197.49602632294682 723.647300391678, 195.18402558593164 727.6684630743459, 191.93767221017092 730.7562685326336 C 188.69131883433857 733.8440739907251, 184.59476387883424 735.9595256454222, 180.28628380138116 737.1884895220222 C 175.9778037239281 738.4174533986222, 171.47600979743478 738.8033045982604, 167.0 739.0 C 153.26484493211893 739.6035826481465, 139.17520048289057 738.6166348120972, 126.08261538347331 742.8122291879157 C 119.53632283377183 744.9100263758216, 113.31886678251624 748.3478646059922, 108.63549108832545 753.3798315469534 C 103.95211539413467 758.4117984879146, 100.90620358737455 765.1264345917972, 101.0 772.0 C 101.09329594894974 778.8368905533837, 104.27741090358944 785.4242477310315, 108.9973232212972 790.371388752489 C 113.71723553900495 795.3185297739465, 119.88223449568491 798.7297340092009, 126.36592228611502 800.9008095973056 C 139.33329786696706 805.2429607734878, 153.32494583953329 805.0000000000233, 167.0 805.0 L 200.0 805.0 C 209.08875049282324 805.0, 218.27486273270944 804.8764663336966, 227.0912347632353 802.6680801038545 C 235.90760679376112 800.4596938740125, 244.2576835112966 796.1111177224899, 250.68440061728444 789.684400616502 C 257.1111177230905 783.2576835105691, 261.45969387445064 774.9076067931444, 263.668080104165 766.0912347627592 C 265.87646633387936 757.274862732374, 266.00000000008976 748.0887504926558, 266.0 739.0 L 266.0 722.0 C 266.0 716.4456784896975, 266.0259013637569 710.8696819505433, 266.82522072908733 705.3731761521276 C 267.6245400944178 699.8766703537119, 269.21190275919724 694.454689775414, 271.9281019712079 689.6098214304037 C 274.6443011832178 684.7649530853961, 278.49874363441177 680.5296612408371, 283.20520257470935 677.5801304844161 C 287.9116615150069 674.6305997279952, 293.44567848970013 672.9999999999994, 299.0 673.0 C 304.55432151030254 673.0, 310.0883384849983 674.6305997279973, 314.7947974252978 677.5801304844201 C 319.5012563655973 680.529661240843, 323.35569881679277 684.7649530854045, 326.07189802880345 689.6098214304147 C 328.78809724081174 694.4546897754238, 330.3754599055891 699.8766703537201, 331.17477927091767 705.3731761521339 C 331.97409863624625 710.8696819505476, 332.00000000000153 716.4456784896996, 332.0 722.0 L 332.0 739.0 C 332.0 748.0887504928232, 332.12353366630344 757.2748627327095, 334.3319198961455 766.0912347632353 C 336.54030612598757 774.9076067937611, 340.88888227751016 783.2576835112966, 347.315599383498 789.6844006172844 C 353.74231648943095 796.1111177230905, 362.0923932068556 800.4596938744506, 370.90876523724086 802.668080104165 C 379.72513726762605 804.8764663338793, 388.9112495073442 805.0000000000897, 398.0 805.0 L 431.0 805.0 C 444.6750541604831 805.0, 458.6667021330666 805.242960773441, 471.63407771392684 800.9008095972316 C 478.1177655043439 798.7297340091345, 484.28276446101205 795.3185297738903, 489.0026767787118 790.3713887524457 C 493.7225890964116 785.4242477310011, 496.90670405104737 778.8368905533688, 497.0 772.0 C 497.0937964126265 765.1264345917893, 494.04788460586377 758.4117984878987, 489.36450891166834 753.3798315469312 C 484.6811332174729 748.3478646059637, 478.4636771662107 744.9100263757884, 471.9173846165021 742.8122291878792 C 458.82479951709024 738.6166348120744, 444.73515506787226 739.6035826481346, 431.0 739.0 C 426.52399020249027 738.8033045980654, 422.0221962759296 738.4174533982276, 417.7137161984488 737.1884895214207 C 413.405236120968 735.9595256446137, 409.3086811654778 733.8440739897021, 406.062327789717 730.7562685314143 C 402.81597441407297 727.668463073302, 400.5039736771219 723.6473003908422, 399.29912924451287 719.3320132995915 C 398.09428481190395 715.0167262083409, 398.0000000000466 710.4803295399672, 398.0 706.0 L 398.0 607.0 C 398.0 593.6168687650313, 397.64751178467236 580.0545387052758, 393.8609910072367 567.2182439885579 C 390.0744702298011 554.381949271841, 382.94089397066307 542.5258670331881, 373.20310446266944 533.3452539191104 C 363.4653149538102 524.1646408062948, 351.36370733914595 517.6840004575114, 338.5919517933651 513.6851928946413 C 325.82019624758425 509.68638533177125, 312.3831312347317 507.9999999984876, 299.0 508.0 Z" fill="white" stroke="#222" stroke-width="8"/>
<path d="M 104.3 762.0999999999999 L 134 762.0999999999999" fill="none" stroke="#222" stroke-linecap="round" stroke-width="8"/>
<path d="M 104.3 781.9000000000001 L 134 781.9000000000001" fill="none" stroke="#222" stroke-linecap="round" stroke-width="8"/>
<path d="M 493.7 762.0999999999999 L 464 762.0999999999999" fill="none" stroke="#222" stroke-linecap="round" stroke-width="8"/>
<path d="M 493.7 781.9000000000001 L 464 781.9000000000001" fill="none" stroke="#222" stroke-linecap="round" stroke-width="8"/>
<path d="M 249.0 574.0 L 249.0 607.0 C 249.0 611.2860241495455, 249.01412610551617 615.5869106100391, 249.59094227224065 619.8339432353308 C 250.16775843896514 624.0809758606225, 251.32026910276159 628.2815247837416, 253.34068690081475 632.0614606207363 C 255.3611046988676 635.8413964577301, 258.26234905805234 639.1771432303532, 261.85500038880525 641.5144193000799 C 265.44765171955817 643.8516953698066, 269.71397585903725 645.1581406414942, 274.0000000085817 645.158140641494 C 278.28602415724345 645.1581406401451, 282.55234829543264 643.8516953673839, 286.14499962471 641.5144192970076 C 289.7376509539874 639.1771432266314, 292.63889531152466 635.8413964537821, 294.6593131079716 632.0614606169308 C 296.67973090441774 628.2815247800801, 297.83224156665375 624.0809758574651, 298.409057731922 619.8339432328683 C 298.9858738971903 615.5869106082714, 299.00000000134946 611.2860241486609, 299.0 607.0 L 299.0 574.0 L 299.0 607.0 C 299.0 611.2003036665545, 299.0138435834059 615.4151723978383, 299.5791234267959 619.5772643706242 C 300.1444032701859 623.7393563434101, 301.2738637207064 627.8558942880667, 303.25387316279847 631.5602314083216 C 305.23388260489025 635.2645685285754, 308.07710207689126 638.5336003657461, 311.59790038102915 640.8241309140783 C 315.11869868516703 643.1146614624105, 319.2996963418565 644.3949778286643, 323.50000000841004 644.3949778286641 C 327.70030367409856 644.3949778273421, 331.881301329524 643.114661460036, 335.40209963221577 640.8241309110673 C 338.9228979349076 638.5336003620986, 341.7661174052941 635.2645685247063, 343.74612684581217 631.5602314045922 C 345.72613628632934 627.8558942844785, 346.85559673532066 623.7393563403158, 347.4208765772836 619.5772643682109 C 347.98615641924647 615.415172396106, 348.00000000132246 611.2003036656877, 348.0 607.0 L 348.0 574.0" fill="none" stroke="black" stroke-width="6.8"/>
<path d="M 266 623.5 L 266 640.0" fill="none" stroke="black" stroke-linecap="round" stroke-width="6.8"/>
<path d="M 282.5 623.5 L 282.5 640.0" fill="none" stroke="black" stroke-linecap="round" stroke-width="6.8"/>
<path d="M 332 623.5 L 332 640.0" fill="none" stroke="black" stroke-linecap="round" stroke-width="6.8"/>
<path d="M 315.5 623.5 L 315.5 640.0" fill="none" stroke="black" stroke-linecap="round" stroke-width="6.8"/>
<path d="M -5.0 800.0 L 4.0 800.0 C 7.821270794573612 787.3265326218178, 10.175284981608222 774.2113107226251, 11.0 761.0 C 11.81275808404492 747.9802303205519, 11.140352841632822 734.868328093516, 9.0 722.0 L 2.0 761.0 L -5.0 800.0 Z" fill="green"/>
<path d="M 18.0 800.0 L 27.0 800.0 C 28.428073166830725 783.7083081579924, 28.42807316683072 767.2916918420076, 27.0 751.0 C 25.519221842387832 734.1070410182612, 22.502774397637005 717.3489996585344, 18.0 701.0 L 18.0 751.0 L 18.0 800.0 Z" fill="green"/>
<path d="M 33.0 800.0 L 42.0 800.0 C 45.46966980796334 783.2161555485427, 47.4797080975101 766.1308300873953, 48.0 749.0 C 48.52775535091151 731.6234327289877, 47.5225911018291 714.2005857448926, 45.0 697.0 C 43.01953135455895 714.3355795181068, 41.01952966177442 731.6689275222394, 39.0 749.0 C 37.01879225865355 766.0022038342366, 35.018790629502924 783.0022176820171, 33.0 800.0 Z" fill="green"/>
<path d="M 52.0 800.0 L 61.0 800.0 C 60.41250178042737 783.2040578227611, 58.402984894840834 766.4580837762066, 55.0 750.0 C 51.47217321668249 732.9381350367407, 46.4466023900336 716.1862322812444, 40.0 700.0 L 46.0 750.0 L 52.0 800.0 Z" fill="green"/>
<path d="M 71.0 800.0 L 80.0 800.0 C 80.10291873234938 783.2597841596313, 78.76301131450847 766.5109414366201, 76.0 750.0 C 73.15400409070465 732.9931670780744, 68.7980016238051 716.2393114361531, 63.0 700.0 L 67.0 750.0 L 71.0 800.0 Z" fill="green"/>
<path d="M 81.0 800.0 L 90.0 800.0 C 89.15743348083657 782.5091875152691, 86.812676128044 765.0909900373815, 83.0 748.0 C 78.95485290649036 729.8669180509743, 73.25695384005815 712.1028797850385, 66.0 695.0 C 68.80946257601947 712.644718749743, 71.47624548255878 730.3121555055659, 74.0 748.0 C 76.47048490335247 765.3145020620506, 78.80391569823028 782.6485593954287, 81.0 800.0 Z" fill="green"/>
<path d="M 101.0 800.0 L 110.0 800.0 C 117.08194127295174 784.8945410894195, 122.78014567852668 769.140681850477, 127.0 753.0 C 131.0248193766353 737.6053147537984, 133.7049864750282 721.85933305074, 135.0 706.0 L 118.0 753.0 L 101.0 800.0 Z" fill="green"/>
<path d="M 119.0 800.0 L 128.0 800.0 C 135.10597193948288 781.8113270760288, 140.79546536188806 763.0694663904588, 145.0 744.0 C 149.06381426367804 725.568764158624, 151.74051565754564 706.8318544015508, 153.0 688.0 L 136.0 744.0 L 119.0 800.0 Z" fill="green"/>
<path d="M 142.0 800.0 L 151.0 800.0 C 159.11197733790806 775.7545797562123, 165.79406961293557 751.0308383386104, 171.0 726.0 C 176.08069559020907 701.571308006305, 179.75544297299163 676.8502801584951, 182.0 652.0 L 162.0 726.0 L 142.0 800.0 Z" fill="green"/>
<path d="M 160.0 800.0 L 169.0 800.0 C 165.31122024872366 781.0146222093366, 160.29497079213004 762.2872909047204, 154.0 744.0 C 147.38392585968063 724.7798834265475, 139.35520569779712 706.0462030488193, 130.0 688.0 L 145.0 744.0 L 160.0 800.0 Z" fill="green"/>
<path d="M 177.0 800.0 L 186.0 800.0 C 186.89117907635304 783.3195421598556, 186.22063679816537 766.5559852051637, 184.0 750.0 C 181.67462773001256 732.663158184978, 177.6491274004473 715.5547817843257, 172.0 699.0 C 173.1612299909687 715.9900042177609, 174.16128997929354 732.9910240192826, 175.0 750.0 C 175.82150171792443 766.6599928978137, 176.4882067525466 783.3276187633675, 177.0 800.0 Z" fill="green"/>
<path d="M 195.0 800.0 L 204.0 800.0 C 211.53809138741173 787.7863536535727, 217.59627963162495 774.6602791244442, 222.0 761.0 C 226.1811376294207 748.0301694254309, 228.87111528309254 734.5802811570718, 230.0 721.0 C 224.53855934781362 734.4193166313503, 218.87100154770778 747.7547467492464, 213.0 761.0 C 207.1977825156667 774.0900731964465, 201.19686094258205 787.0920699381298, 195.0 800.0 Z" fill="green"/>
<path d="M 216.0 800.0 L 225.0 800.0 C 229.30760465728844 779.9271127059061, 231.98593718168246 759.5048272074016, 233.0 739.0 C 234.02248600487033 718.3248519981854, 233.35285420040336 697.5662660597089, 231.0 677.0 C 228.8537907386109 697.6872220004183, 226.5203299638817 718.3550174337341, 224.0 739.0 C 221.51487648803422 759.3565931107421, 218.8480682147491 779.6910061945409, 216.0 800.0 Z" fill="green"/>
<path d="M 234.0 800.0 L 243.0 800.0 C 247.1365426856772 784.9712621164358, 249.81974060032405 769.5428741072166, 251.0 754.0 C 252.18837812676836 738.3502101138092, 251.85294984307984 722.5850807804494, 250.0 707.0 C 247.3617822909506 722.6714913271034, 244.69510976333953 738.3381924268184, 242.0 754.0 C 239.36060143338705 769.3380589620223, 236.69392914557733 784.6714246169281, 234.0 800.0 Z" fill="green"/>
<path d="M 243.0 800.0 L 252.0 800.0 C 254.1097031523573 784.4392664625634, 254.7801525286533 768.6837061196072, 254.0 753.0 C 253.19547625070715 736.8263498652825, 250.84806282867606 720.7298006856408, 247.0 705.0 C 246.3404874126069 721.0002970185308, 245.67382065708568 737.0002991510397, 245.0 753.0 C 244.34019268664366 768.666957551162, 243.6735259347798 784.3336262199624, 243.0 800.0 Z" fill="green"/>
<path d="M 267.0 800.0 L 276.0 800.0 C 277.1972630317239 787.0207979260622, 276.86085254269875 773.9007888540808, 275.0 761.0 C 273.02063077370127 747.2775669394459, 269.3156618289319 733.80495259483, 264.0 721.0 C 264.83091342011494 734.3244446000847, 265.49764755766205 747.6591273510264, 266.0 761.0 C 266.48934268491496 773.9953751409557, 266.82270802895937 786.9966235586885, 267.0 800.0 Z" fill="green"/>
<path d="M 286.0 800.0 L 295.0 800.0 C 295.45570397546254 781.6258128183, 294.4515111931299 763.2156118088677, 292.0 745.0 C 289.4944243943764 726.3826701188591, 285.4769050562652 707.9690398191827, 280.0 690.0 L 283.0 745.0 L 286.0 800.0 Z" fill="green"/>
<path d="M 304.0 800.0 L 313.0 800.0 C 320.63129988652395 775.7686506043902, 326.6489900388736 751.0292577558416, 331.0 726.0 C 335.30911329302796 701.2117535298866, 337.9834915201955 676.1394576501907, 339.0 651.0 C 333.5307701731068 676.0442065448691, 327.86386816589686 701.0452448119718, 322.0 726.0 C 316.1929248341812 750.7130622690803, 310.1926804535399 775.3807336117168, 304.0 800.0 Z" fill="green"/>
<path d="M 320.0 800.0 L 329.0 800.0 C 329.27986870903914 779.2712810652413, 327.94113523571036 758.5209122286458, 325.0 738.0 C 321.9909280388873 717.0050791089318, 317.3044772655335 696.2507971126506, 311.0 676.0 C 312.83251717709203 696.6528448939889, 314.49925543164676 717.3203992504676, 316.0 738.0 C 317.4989980117791 758.6555339673489, 318.83238848219827 779.3230862588462, 320.0 800.0 Z" fill="green"/>
<path d="M 333.0 800.0 L 342.0 800.0 C 350.24909852359787 780.5747034766889, 356.9441009048916 760.4896963328076, 362.0 740.0 C 366.86221978041925 720.2952145740903, 370.20865587037184 700.2165980343749, 372.0 680.0 C 365.8171591148488 700.0472412810395, 359.4835870976434 720.0479950195829, 353.0 740.0 C 346.48457178699 760.0499899512071, 339.8176514003162 780.0507511112284, 333.0 800.0 Z" fill="green"/>
<path d="M 357.0 800.0 L 366.0 800.0 C 371.29666139439945 784.4327661985458, 374.9891187338715 768.3202250808496, 377.0 752.0 C 379.00128891423356 735.7576260308083, 379.33694452338875 719.3105011822045, 378.0 703.0 C 374.8640088447721 719.3727807213274, 371.5303516428315 735.7077010108366, 368.0 752.0 C 364.52370462408044 768.0428335104042, 360.8566925283936 784.0443408370378, 357.0 800.0 Z" fill="green"/>
<path d="M 377.0 800.0 L 386.0 800.0 C 391.81640484880506 775.2874896211289, 396.15997749676933 750.228416652104, 399.0 725.0 C 401.8395317151072 699.7759431046413, 403.17601451772094 674.3827698549812, 403.0 649.0 C 398.69490589562287 674.3381529293059, 394.3615689730977 699.6715072456068, 390.0 725.0 C 385.6941781387909 750.0047582615401, 381.3608413074295 775.0047784424714, 377.0 800.0 Z" fill="green"/>
<path d="M 391.0 800.0 L 400.0 800.0 C 406.5889895884865 786.9866183443064, 411.6354194146555 773.1930434861114, 415.0 759.0 C 418.25921115838895 745.2514436708916, 419.94039941096304 731.1294623492694, 420.0 717.0 C 415.53792302601056 731.0670928035579, 410.8705941029432 745.0690795727601, 406.0 759.0 C 401.1969741221636 772.7376611353592, 396.19628411246697 786.4062138285301, 391.0 800.0 Z" fill="green"/>
<path d="M 405.0 800.0 L 414.0 800.0 C 418.97079458335196 782.3552040127151, 422.3227380240224 764.2547094330948, 424.0 746.0 C 425.6797696738345 727.7179976953205, 425.6797696738345 709.2820023046795, 424.0 691.0 C 421.1932133024318 709.3642539232889, 418.1929914186784 727.6989432128928, 415.0 746.0 C 411.8536106632465 764.0339507301612, 408.52003793643115 782.0352434549642, 405.0 800.0 Z" fill="green"/>
<path d="M 429.0 800.0 L 438.0 800.0 C 436.49206279999646 784.0961636715565, 433.4741288961815 768.3358421738562, 429.0 753.0 C 424.2593603781808 736.7506467224499, 417.88351865081034 720.9788277126387, 410.0 706.0 C 413.4936673426067 721.6319804944889, 416.8272337638536 737.2997426743493, 420.0 753.0 C 423.15968499280945 768.6355255202659, 426.15989304565653 784.3032786851343, 429.0 800.0 Z" fill="green"/>
<path d="M 441.0 800.0 L 450.0 800.0 C 446.6637903516492 776.0967059455344, 441.98736162574335 752.3805316927262, 436.0 729.0 C 429.7461568902184 704.578863250734, 422.0619928649634 680.5240889108052, 413.0 657.0 C 417.6348005011211 681.0061815646316, 422.3014726515418 705.0062097667951, 427.0 729.0 C 431.6356635163967 752.6727659019887, 436.3023355210595 776.3394596399214, 441.0 800.0 Z" fill="green"/>
<path d="M 465.0 800.0 L 474.0 800.0 C 479.62747214872184 786.5348229087685, 483.6643639271322 772.4057016843326, 486.0 758.0 C 488.2479328342643 744.1352330557793, 488.9202946502693 730.0156349196747, 488.0 716.0 C 484.48805016796865 730.0399132132331, 480.82108553580895 744.0410508996611, 477.0 758.0 C 473.1556725280783 772.0438550780121, 469.1553435084503 786.0450066467102, 465.0 800.0 Z" fill="green"/>
<path d="M 480.0 800.0 L 489.0 800.0 C 490.6491249632996 775.3700958183961, 490.6491249632996 750.6299041816039, 489.0 726.0 C 487.3358627284597 701.1458849661303, 483.99241181462094 676.4043482037237, 479.0 652.0 C 479.4999923912481 676.6640390835947, 479.83333586958395 701.3314564804481, 480.0 726.0 C 480.1666489145794 750.6662913701094, 480.1666489145794 775.3337086298906, 480.0 800.0 Z" fill="green"/>
<path d="M 499.0 800.0 L 508.0 800.0 C 512.3282996273728 776.2236598516304, 515.0035347258436 752.1465439653937, 516.0 728.0 C 516.9907435284589 703.9921065100698, 516.321959291156 679.9158739671632, 514.0 656.0 C 511.8314604579986 680.0156410411234, 509.49805381641033 704.0163950688885, 507.0 728.0 C 504.49836844774705 752.0179544725156, 501.83161776006153 776.0187106616853, 499.0 800.0 Z" fill="green"/>
<path d="M 513.0 800.0 L 522.0 800.0 C 518.8511206900009 777.3850765724864, 514.1702150420896 754.9835995431962, 508.0 733.0 C 501.584032692953 710.1408200527491, 493.5576392177461 687.7338049344633, 484.0 666.0 C 489.15936814293303 688.2972553944354, 494.1595380608085 710.6313476942792, 499.0 733.0 C 503.8255497275764 755.2997402719277, 508.4923740086124 777.6338279025999, 513.0 800.0 Z" fill="green"/>
<path d="M 531.0 800.0 L 540.0 800.0 C 545.1382096720198 783.3624113500815, 548.8234333289496 766.2763743952256, 551.0 749.0 C 553.1709479494727 731.7682238883423, 553.8409712084016 714.3476191561913, 553.0 697.0 C 549.3680363952575 714.340650176462, 545.7013599330345 731.6740298160613, 542.0 749.0 C 538.3667427969676 766.0071830649313, 534.700066691893 783.007226824823, 531.0 800.0 Z" fill="green"/>
<path d="M 549.0 800.0 L 558.0 800.0 C 558.4524133622165 782.290945194587, 557.447919390464 764.5448850269594, 555.0 747.0 C 552.4939959313188 729.0388067379253, 548.4751564464353 711.2889323463568, 543.0 694.0 L 546.0 747.0 L 549.0 800.0 Z" fill="green"/>
<path d="M 576.0 800.0 L 585.0 800.0 C 590.1512788125443 775.5846522618456, 593.8268558019402 750.8580434240913, 596.0 726.0 C 598.1793552343715 701.0709101122256, 598.847651235756 676.0098100603111, 598.0 651.0 C 594.3577398861656 676.0035715152752, 590.6910708899512 701.0035873985553, 587.0 726.0 C 583.3571001900173 750.6701917765812, 579.6904312542106 775.3368737083716, 576.0 800.0 Z" fill="green"/>
</svg>
