<svg version="1.1"
     xmlns="http://www.w3.org/2000/svg"
     width="807"
     height="200">

<path d="M 767 97 L 759 0 L 775 0 Z" fill="rgb(170.1, 170.1, 243)" opacity="0.56016224"/>
<path d="M 144 197 L 128 0 L 160 0 Z" fill="rgb(147.7, 147.7, 211)" opacity="0.69952026"/>
<path d="M 508 189 L 493 0 L 523 0 Z" fill="rgb(148.4, 148.4, 212)" opacity="0.39395537"/>
<path d="M 254 194 L 238 0 L 270 0 Z" fill="rgb(157.5, 157.5, 225)" opacity="0.46940837"/>
<path d="M 252 161 L 239 0 L 265 0 Z" fill="rgb(152.6, 152.6, 218)" opacity="0.46227408"/>
<path d="M 753 110 L 744 0 L 762 0 Z" fill="rgb(142.8, 142.8, 204)" opacity="0.4086524"/>
<path d="M 393 156 L 380 0 L 406 0 Z" fill="rgb(155.4, 155.4, 222)" opacity="0.60037228"/>
<path d="M 316 67 L 311 0 L 321 0 Z" fill="rgb(155.4, 155.4, 222)" opacity="0.45907627"/>
<path d="M 431 68 L 426 0 L 436 0 Z" fill="rgb(156.8, 156.8, 224)" opacity="0.21952739"/>
<path d="M 387 181 L 372 0 L 402 0 Z" fill="rgb(145.6, 145.6, 208)" opacity="0.24917342"/>
<path d="M 497 109 L 488 0 L 506 0 Z" fill="rgb(142.1, 142.1, 203)" opacity="0.54593856"/>
<path d="M 336 103 L 328 0 L 344 0 Z" fill="rgb(148.4, 148.4, 212)" opacity="0.59165724"/>
<path d="M 64 169 L 50 0 L 78 0 Z" fill="rgb(168.7, 168.7, 241)" opacity="0.51201499"/>
<path d="M 282 85 L 275 0 L 289 0 Z" fill="rgb(172.9, 172.9, 247)" opacity="0.42306725"/>
<path d="M 126 164 L 113 0 L 139 0 Z" fill="rgb(155.4, 155.4, 222)" opacity="0.65429775"/>
<path d="M 313 83 L 307 0 L 319 0 Z" fill="rgb(165.2, 165.2, 236)" opacity="0.46239969"/>
<path d="M 418 143 L 407 0 L 429 0 Z" fill="rgb(166.6, 166.6, 238)" opacity="0.30581406"/>
<path d="M 87 70 L 82 0 L 92 0 Z" fill="rgb(156.1, 156.1, 223)" opacity="0.49219456"/>
<path d="M 586 85 L 579 0 L 593 0 Z" fill="rgb(144.9, 144.9, 207)" opacity="0.27336429"/>
<path d="M 695 106 L 687 0 L 703 0 Z" fill="rgb(162.4, 162.4, 232)" opacity="0.25116722"/>
<path d="M 253 125 L 243 0 L 263 0 Z" fill="rgb(174.3, 174.3, 249)" opacity="0.4465298"/>
<path d="M 588 66 L 583 0 L 593 0 Z" fill="rgb(154.7, 154.7, 221)" opacity="0.45744455"/>
<path d="M 332 67 L 327 0 L 337 0 Z" fill="rgb(149.1, 149.1, 213)" opacity="0.26873735"/>
<path d="M 775 103 L 767 0 L 783 0 Z" fill="rgb(154.0, 154.0, 220)" opacity="0.38879217"/>
<path d="M 508 105 L 500 0 L 516 0 Z" fill="rgb(142.8, 142.8, 204)" opacity="0.38063051"/>
<path d="M 152 156 L 139 0 L 165 0 Z" fill="rgb(149.1, 149.1, 213)" opacity="0.26315744"/>
<path d="M 489 200 L 473 0 L 505 0 Z" fill="rgb(140.7, 140.7, 201)" opacity="0.4140456"/>
<path d="M 732 142 L 721 0 L 743 0 Z" fill="rgb(163.1, 163.1, 233)" opacity="0.23689601"/>
<path d="M 489 163 L 476 0 L 502 0 Z" fill="rgb(163.8, 163.8, 234)" opacity="0.42495607"/>
<path d="M 327 142 L 316 0 L 338 0 Z" fill="rgb(155.4, 155.4, 222)" opacity="0.31851349"/>
<path d="M 170 114 L 161 0 L 179 0 Z" fill="rgb(150.5, 150.5, 215)" opacity="0.58636957"/>
<path d="M 626 80 L 620 0 L 632 0 Z" fill="rgb(173.6, 173.6, 248)" opacity="0.204504"/>
<path d="M 183 157 L 170 0 L 196 0 Z" fill="rgb(154.0, 154.0, 220)" opacity="0.43369634"/>
<path d="M 96 121 L 86 0 L 106 0 Z" fill="rgb(157.5, 157.5, 225)" opacity="0.47566247"/>
<path d="M 212 85 L 205 0 L 219 0 Z" fill="rgb(174.3, 174.3, 249)" opacity="0.66629773"/>
<path d="M 696 176 L 682 0 L 710 0 Z" fill="rgb(170.1, 170.1, 243)" opacity="0.3151814"/>
<path d="M 325 84 L 318 0 L 332 0 Z" fill="rgb(146.3, 146.3, 209)" opacity="0.45943094"/>
<path d="M 219 161 L 206 0 L 232 0 Z" fill="rgb(154.7, 154.7, 221)" opacity="0.45490514"/>
<path d="M 462 173 L 448 0 L 476 0 Z" fill="rgb(172.9, 172.9, 247)" opacity="0.31587923"/>
<path d="M 234 105 L 226 0 L 242 0 Z" fill="rgb(156.1, 156.1, 223)" opacity="0.26208666"/>
<path d="M 302 105 L 294 0 L 310 0 Z" fill="rgb(142.1, 142.1, 203)" opacity="0.48503333"/>
<path d="M 547 188 L 532 0 L 562 0 Z" fill="rgb(160.3, 160.3, 229)" opacity="0.60649749"/>
<path d="M 48 93 L 41 0 L 55 0 Z" fill="rgb(141.4, 141.4, 202)" opacity="0.39393032"/>
<path d="M 55 114 L 46 0 L 64 0 Z" fill="rgb(162.4, 162.4, 232)" opacity="0.41390632"/>
<path d="M 136 91 L 129 0 L 143 0 Z" fill="rgb(159.6, 159.6, 228)" opacity="0.27666924"/>
<path d="M 596 169 L 582 0 L 610 0 Z" fill="rgb(164.5, 164.5, 235)" opacity="0.25374706"/>
<path d="M 620 110 L 611 0 L 629 0 Z" fill="rgb(150.5, 150.5, 215)" opacity="0.47985849"/>
<path d="M 44 84 L 37 0 L 51 0 Z" fill="rgb(174.3, 174.3, 249)" opacity="0.68363816"/>
<path d="M 499 75 L 493 0 L 505 0 Z" fill="rgb(161.0, 161.0, 230)" opacity="0.2369845"/>
<path d="M 391 79 L 385 0 L 397 0 Z" fill="rgb(158.2, 158.2, 226)" opacity="0.66935585"/>
<path d="M 755 113 L 746 0 L 764 0 Z" fill="rgb(172.9, 172.9, 247)" opacity="0.57047778"/>
<path d="M 451 94 L 444 0 L 458 0 Z" fill="rgb(165.2, 165.2, 236)" opacity="0.50997786"/>
<path d="M 166 84 L 159 0 L 173 0 Z" fill="rgb(153.3, 153.3, 219)" opacity="0.2092881"/>
<path d="M 87 193 L 71 0 L 103 0 Z" fill="rgb(150.5, 150.5, 215)" opacity="0.58128657"/>
<path d="M 738 102 L 730 0 L 746 0 Z" fill="rgb(147.0, 147.0, 210)" opacity="0.25466803"/>
<path d="M 206 128 L 196 0 L 216 0 Z" fill="rgb(140.0, 140.0, 200)" opacity="0.57266722"/>
<path d="M 326 98 L 318 0 L 334 0 Z" fill="rgb(168.7, 168.7, 241)" opacity="0.23712922"/>
<path d="M 617 108 L 608 0 L 626 0 Z" fill="rgb(175.0, 175.0, 250)" opacity="0.24765391"/>
<path d="M 275 60 L 270 0 L 280 0 Z" fill="rgb(155.4, 155.4, 222)" opacity="0.48829211"/>
<path d="M 138 69 L 133 0 L 143 0 Z" fill="rgb(173.6, 173.6, 248)" opacity="0.33164839"/>
<path d="M 703 183 L 688 0 L 718 0 Z" fill="rgb(142.8, 142.8, 204)" opacity="0.58608901"/>
<path d="M 440 81 L 434 0 L 446 0 Z" fill="rgb(172.2, 172.2, 246)" opacity="0.54352915"/>
<path d="M 583 148 L 571 0 L 595 0 Z" fill="rgb(151.2, 151.2, 216)" opacity="0.50838918"/>
<path d="M 724 74 L 718 0 L 730 0 Z" fill="rgb(149.1, 149.1, 213)" opacity="0.30175516"/>
<path d="M 37 174 L 23 0 L 51 0 Z" fill="rgb(172.2, 172.2, 246)" opacity="0.50215524"/>
<path d="M 727 136 L 716 0 L 738 0 Z" fill="rgb(148.4, 148.4, 212)" opacity="0.39743781"/>
<path d="M 603 185 L 588 0 L 618 0 Z" fill="rgb(170.1, 170.1, 243)" opacity="0.5465926"/>
<path d="M 171 172 L 157 0 L 185 0 Z" fill="rgb(143.5, 143.5, 205)" opacity="0.61355773"/>
<path d="M 1 133 L -10 0 L 12 0 Z" fill="rgb(157.5, 157.5, 225)" opacity="0.64284493"/>
<path d="M 542 142 L 531 0 L 553 0 Z" fill="rgb(161.0, 161.0, 230)" opacity="0.37729234"/>
<path d="M 643 163 L 630 0 L 656 0 Z" fill="rgb(140.0, 140.0, 200)" opacity="0.21194205"/>
<path d="M 83 130 L 73 0 L 93 0 Z" fill="rgb(148.4, 148.4, 212)" opacity="0.37314426"/>
<path d="M 279 121 L 269 0 L 289 0 Z" fill="rgb(144.2, 144.2, 206)" opacity="0.49955515"/>
<path d="M 351 182 L 336 0 L 366 0 Z" fill="rgb(159.6, 159.6, 228)" opacity="0.3243501"/>
<path d="M 365 113 L 356 0 L 374 0 Z" fill="rgb(146.3, 146.3, 209)" opacity="0.64644435"/>
<path d="M 36 142 L 25 0 L 47 0 Z" fill="rgb(169.4, 169.4, 242)" opacity="0.22695464"/>
<path d="M 618 172 L 604 0 L 632 0 Z" fill="rgb(151.2, 151.2, 216)" opacity="0.39970765"/>
<path d="M 213 95 L 206 0 L 220 0 Z" fill="rgb(168.7, 168.7, 241)" opacity="0.38829016"/>
<path d="M 795 153 L 783 0 L 807 0 Z" fill="rgb(165.2, 165.2, 236)" opacity="0.278878"/>
<path d="M 397 132 L 386 0 L 408 0 Z" fill="rgb(159.6, 159.6, 228)" opacity="0.37384501"/>
</svg>
