<svg version="1.1"
     xmlns="http://www.w3.org/2000/svg"
     width="807"
     height="200">

<path d="M 767 97 L 759 0 L 775 0 Z" fill="rgb(170.1, 170.1, 243)" opacity="0.56016224475258"/>
<path d="M 144 197 L 128 0 L 160 0 Z" fill="rgb(147.7, 147.7, 211)" opacity="0.6995202577145253"/>
<path d="M 508 189 L 493 0 L 523 0 Z" fill="rgb(148.39999999999998, 148.39999999999998, 212)" opacity="0.39395537014882553"/>
<path d="M 254 194 L 238 0 L 270 0 Z" fill="rgb(157.5, 157.5, 225)" opacity="0.46940836604292396"/>
<path d="M 252 161 L 239 0 L 265 0 Z" fill="rgb(152.6, 152.6, 218)" opacity="0.46227408137689946"/>
<path d="M 753 110 L 744 0 L 762 0 Z" fill="rgb(142.79999999999998, 142.79999999999998, 204)" opacity="0.40865240221112087"/>
<path d="M 393 156 L 380 0 L 406 0 Z" fill="rgb(155.39999999999998, 155.39999999999998, 222)" opacity="0.6003722832673195"/>
<path d="M 316 67 L 311 0 L 321 0 Z" fill="rgb(155.39999999999998, 155.39999999999998, 222)" opacity="0.45907627421854863"/>
<path d="M 431 68 L 426 0 L 436 0 Z" fill="rgb(156.79999999999998, 156.79999999999998, 224)" opacity="0.21952739214443717"/>
<path d="M 387 181 L 372 0 L 402 0 Z" fill="rgb(145.6, 145.6, 208)" opacity="0.2491734182686854"/>
<path d="M 497 109 L 488 0 L 506 0 Z" fill="rgb(142.1, 142.1, 203)" opacity="0.5459385563956608"/>
<path d="M 336 103 L 328 0 L 344 0 Z" fill="rgb(148.39999999999998, 148.39999999999998, 212)" opacity="0.5916572363621817"/>
<path d="M 64 169 L 50 0 L 78 0 Z" fill="rgb(168.7, 168.7, 241)" opacity="0.5120149917654764"/>
<path d="M 282 85 L 275 0 L 289 0 Z" fill="rgb(172.89999999999998, 172.89999999999998, 247)" opacity="0.4230672504274733"/>
<path d="M 126 164 L 113 0 L 139 0 Z" fill="rgb(155.39999999999998, 155.39999999999998, 222)" opacity="0.654297752247212"/>
<path d="M 313 83 L 307 0 L 319 0 Z" fill="rgb(165.2, 165.2, 236)" opacity="0.4623996915085435"/>
<path d="M 418 143 L 407 0 L 429 0 Z" fill="rgb(166.6, 166.6, 238)" opacity="0.3058140556456577"/>
<path d="M 87 70 L 82 0 L 92 0 Z" fill="rgb(156.1, 156.1, 223)" opacity="0.4921945619226156"/>
<path d="M 586 85 L 579 0 L 593 0 Z" fill="rgb(144.89999999999998, 144.89999999999998, 207)" opacity="0.2733642862127786"/>
<path d="M 695 106 L 687 0 L 703 0 Z" fill="rgb(162.39999999999998, 162.39999999999998, 232)" opacity="0.2511672152827317"/>
<path d="M 253 125 L 243 0 L 263 0 Z" fill="rgb(174.29999999999998, 174.29999999999998, 249)" opacity="0.446529796791051"/>
<path d="M 588 66 L 583 0 L 593 0 Z" fill="rgb(154.7, 154.7, 221)" opacity="0.45744455386796073"/>
<path d="M 332 67 L 327 0 L 337 0 Z" fill="rgb(149.1, 149.1, 213)" opacity="0.26873735138773686"/>
<path d="M 775 103 L 767 0 L 783 0 Z" fill="rgb(154.0, 154.0, 220)" opacity="0.38879217263284105"/>
<path d="M 508 105 L 500 0 L 516 0 Z" fill="rgb(142.79999999999998, 142.79999999999998, 204)" opacity="0.38063051176115004"/>
<path d="M 152 156 L 139 0 L 165 0 Z" fill="rgb(149.1, 149.1, 213)" opacity="0.26315744049885614"/>
<path d="M 489 200 L 473 0 L 505 0 Z" fill="rgb(140.7, 140.7, 201)" opacity="0.41404559524745466"/>
<path d="M 732 142 L 721 0 L 743 0 Z" fill="rgb(163.1, 163.1, 233)" opacity="0.2368960055190541"/>
<path d="M 489 163 L 476 0 L 502 0 Z" fill="rgb(163.79999999999998, 163.79999999999998, 234)" opacity="0.4249560666218528"/>
<path d="M 327 142 L 316 0 L 338 0 Z" fill="rgb(155.39999999999998, 155.39999999999998, 222)" opacity="0.31851348806672264"/>
<path d="M 170 114 L 161 0 L 179 0 Z" fill="rgb(150.5, 150.5, 215)" opacity="0.5863695717436663"/>
<path d="M 626 80 L 620 0 L 632 0 Z" fill="rgb(173.6, 173.6, 248)" opacity="0.20450399784440432"/>
<path d="M 183 157 L 170 0 L 196 0 Z" fill="rgb(154.0, 154.0, 220)" opacity="0.43369634268058244"/>
<path d="M 96 121 L 86 0 L 106 0 Z" fill="rgb(157.5, 157.5, 225)" opacity="0.47566246944448476"/>
<path d="M 212 85 L 205 0 L 219 0 Z" fill="rgb(174.29999999999998, 174.29999999999998, 249)" opacity="0.6662977324556508"/>
<path d="M 696 176 L 682 0 L 710 0 Z" fill="rgb(170.1, 170.1, 243)" opacity="0.3151814021583953"/>
<path d="M 325 84 L 318 0 L 332 0 Z" fill="rgb(146.29999999999998, 146.29999999999998, 209)" opacity="0.4594309377163032"/>
<path d="M 219 161 L 206 0 L 232 0 Z" fill="rgb(154.7, 154.7, 221)" opacity="0.45490513912474395"/>
<path d="M 462 173 L 448 0 L 476 0 Z" fill="rgb(172.89999999999998, 172.89999999999998, 247)" opacity="0.31587923177900046"/>
<path d="M 234 105 L 226 0 L 242 0 Z" fill="rgb(156.1, 156.1, 223)" opacity="0.26208665857948626"/>
<path d="M 302 105 L 294 0 L 310 0 Z" fill="rgb(142.1, 142.1, 203)" opacity="0.48503332903720386"/>
<path d="M 547 188 L 532 0 L 562 0 Z" fill="rgb(160.29999999999998, 160.29999999999998, 229)" opacity="0.6064974859124785"/>
<path d="M 48 93 L 41 0 L 55 0 Z" fill="rgb(141.39999999999998, 141.39999999999998, 202)" opacity="0.3939303228197282"/>
<path d="M 55 114 L 46 0 L 64 0 Z" fill="rgb(162.39999999999998, 162.39999999999998, 232)" opacity="0.4139063176648039"/>
<path d="M 136 91 L 129 0 L 143 0 Z" fill="rgb(159.6, 159.6, 228)" opacity="0.2766692420143335"/>
<path d="M 596 169 L 582 0 L 610 0 Z" fill="rgb(164.5, 164.5, 235)" opacity="0.2537470617310561"/>
<path d="M 620 110 L 611 0 L 629 0 Z" fill="rgb(150.5, 150.5, 215)" opacity="0.47985848971343636"/>
<path d="M 44 84 L 37 0 L 51 0 Z" fill="rgb(174.29999999999998, 174.29999999999998, 249)" opacity="0.6836381648621539"/>
<path d="M 499 75 L 493 0 L 505 0 Z" fill="rgb(161.0, 161.0, 230)" opacity="0.23698449899120322"/>
<path d="M 391 79 L 385 0 L 397 0 Z" fill="rgb(158.2, 158.2, 226)" opacity="0.6693558490347767"/>
<path d="M 755 113 L 746 0 L 764 0 Z" fill="rgb(172.89999999999998, 172.89999999999998, 247)" opacity="0.570477778632176"/>
<path d="M 451 94 L 444 0 L 458 0 Z" fill="rgb(165.2, 165.2, 236)" opacity="0.5099778561133141"/>
<path d="M 166 84 L 159 0 L 173 0 Z" fill="rgb(153.29999999999998, 153.29999999999998, 219)" opacity="0.20928809932096865"/>
<path d="M 87 193 L 71 0 L 103 0 Z" fill="rgb(150.5, 150.5, 215)" opacity="0.5812865688894935"/>
<path d="M 738 102 L 730 0 L 746 0 Z" fill="rgb(147.0, 147.0, 210)" opacity="0.25466803193322207"/>
<path d="M 206 128 L 196 0 L 216 0 Z" fill="rgb(140.0, 140.0, 200)" opacity="0.5726672154055493"/>
<path d="M 326 98 L 318 0 L 334 0 Z" fill="rgb(168.7, 168.7, 241)" opacity="0.23712921708475027"/>
<path d="M 617 108 L 608 0 L 626 0 Z" fill="rgb(175.0, 175.0, 250)" opacity="0.2476539059081993"/>
<path d="M 275 60 L 270 0 L 280 0 Z" fill="rgb(155.39999999999998, 155.39999999999998, 222)" opacity="0.4882921089796198"/>
<path d="M 138 69 L 133 0 L 143 0 Z" fill="rgb(173.6, 173.6, 248)" opacity="0.3316483873320414"/>
<path d="M 703 183 L 688 0 L 718 0 Z" fill="rgb(142.79999999999998, 142.79999999999998, 204)" opacity="0.5860890147901153"/>
<path d="M 440 81 L 434 0 L 446 0 Z" fill="rgb(172.2, 172.2, 246)" opacity="0.5435291494259089"/>
<path d="M 583 148 L 571 0 L 595 0 Z" fill="rgb(151.2, 151.2, 216)" opacity="0.5083891774011234"/>
<path d="M 724 74 L 718 0 L 730 0 Z" fill="rgb(149.1, 149.1, 213)" opacity="0.30175515896589566"/>
<path d="M 37 174 L 23 0 L 51 0 Z" fill="rgb(172.2, 172.2, 246)" opacity="0.5021552447490512"/>
<path d="M 727 136 L 716 0 L 738 0 Z" fill="rgb(148.39999999999998, 148.39999999999998, 212)" opacity="0.39743780705719334"/>
<path d="M 603 185 L 588 0 L 618 0 Z" fill="rgb(170.1, 170.1, 243)" opacity="0.5465925991192533"/>
<path d="M 171 172 L 157 0 L 185 0 Z" fill="rgb(143.5, 143.5, 205)" opacity="0.6135577346121642"/>
<path d="M 1 133 L -10 0 L 12 0 Z" fill="rgb(157.5, 157.5, 225)" opacity="0.6428449305483943"/>
<path d="M 542 142 L 531 0 L 553 0 Z" fill="rgb(161.0, 161.0, 230)" opacity="0.3772923432968107"/>
<path d="M 643 163 L 630 0 L 656 0 Z" fill="rgb(140.0, 140.0, 200)" opacity="0.21194204656702842"/>
<path d="M 83 130 L 73 0 L 93 0 Z" fill="rgb(148.39999999999998, 148.39999999999998, 212)" opacity="0.3731442557413368"/>
<path d="M 279 121 L 269 0 L 289 0 Z" fill="rgb(144.2, 144.2, 206)" opacity="0.4995551542045561"/>
<path d="M 351 182 L 336 0 L 366 0 Z" fill="rgb(159.6, 159.6, 228)" opacity="0.3243501000347734"/>
<path d="M 365 113 L 356 0 L 374 0 Z" fill="rgb(146.29999999999998, 146.29999999999998, 209)" opacity="0.6464443523687193"/>
<path d="M 36 142 L 25 0 L 47 0 Z" fill="rgb(169.39999999999998, 169.39999999999998, 242)" opacity="0.22695463726016146"/>
<path d="M 618 172 L 604 0 L 632 0 Z" fill="rgb(151.2, 151.2, 216)" opacity="0.3997076457970079"/>
<path d="M 213 95 L 206 0 L 220 0 Z" fill="rgb(168.7, 168.7, 241)" opacity="0.38829015843275727"/>
<path d="M 795 153 L 783 0 L 807 0 Z" fill="rgb(165.2, 165.2, 236)" opacity="0.2788779982632079"/>
<path d="M 397 132 L 386 0 L 408 0 Z" fill="rgb(159.6, 159.6, 228)" opacity="0.37384500828170875"/>
</svg>
