<svg version="1.1"
     xmlns="http://www.w3.org/2000/svg"
     width="805"
     height="195">

<path d="M 352 159 L 339 0 L 365 0 Z" fill="rgb(160.29999999999998, 160.29999999999998, 229)" opacity="0.28891185839793754"/>
<path d="M 397 144 L 385 0 L 409 0 Z" fill="rgb(151.89999999999998, 151.89999999999998, 217)" opacity="0.5584353291675697"/>
<path d="M 2 174 L -12 0 L 16 0 Z" fill="rgb(170.79999999999998, 170.79999999999998, 244)" opacity="0.5769507888311034"/>
<path d="M 146 187 L 131 0 L 161 0 Z" fill="rgb(149.1, 149.1, 213)" opacity="0.3137443844897627"/>
<path d="M 37 99 L 29 0 L 45 0 Z" fill="rgb(161.0, 161.0, 230)" opacity="0.386570407067405"/>
<path d="M 483 76 L 477 0 L 489 0 Z" fill="rgb(169.39999999999998, 169.39999999999998, 242)" opacity="0.35446818274013203"/>
<path d="M 170 72 L 164 0 L 176 0 Z" fill="rgb(154.0, 154.0, 220)" opacity="0.21476998743128434"/>
<path d="M 151 179 L 137 0 L 165 0 Z" fill="rgb(154.7, 154.7, 221)" opacity="0.2637431192444464"/>
<path d="M 84 180 L 69 0 L 99 0 Z" fill="rgb(158.2, 158.2, 226)" opacity="0.2716171530850471"/>
<path d="M 43 69 L 38 0 L 48 0 Z" fill="rgb(151.89999999999998, 151.89999999999998, 217)" opacity="0.5847285267673443"/>
<path d="M 636 148 L 624 0 L 648 0 Z" fill="rgb(147.0, 147.0, 210)" opacity="0.4917241466430015"/>
<path d="M 394 125 L 384 0 L 404 0 Z" fill="rgb(172.89999999999998, 172.89999999999998, 247)" opacity="0.6431812577502214"/>
<path d="M 72 85 L 65 0 L 79 0 Z" fill="rgb(160.29999999999998, 160.29999999999998, 229)" opacity="0.48284187875976636"/>
<path d="M 315 177 L 301 0 L 329 0 Z" fill="rgb(166.6, 166.6, 238)" opacity="0.479925899495657"/>
<path d="M 756 195 L 740 0 L 772 0 Z" fill="rgb(144.89999999999998, 144.89999999999998, 207)" opacity="0.47127323398541016"/>
<path d="M 307 83 L 301 0 L 313 0 Z" fill="rgb(156.79999999999998, 156.79999999999998, 224)" opacity="0.509185083995686"/>
<path d="M 723 97 L 715 0 L 731 0 Z" fill="rgb(156.1, 156.1, 223)" opacity="0.6033519372437472"/>
<path d="M 201 190 L 186 0 L 216 0 Z" fill="rgb(161.7, 161.7, 231)" opacity="0.6919120049048855"/>
<path d="M 792 166 L 779 0 L 805 0 Z" fill="rgb(160.29999999999998, 160.29999999999998, 229)" opacity="0.20633610051922352"/>
<path d="M 680 151 L 668 0 L 692 0 Z" fill="rgb(164.5, 164.5, 235)" opacity="0.6594278875032077"/>
<path d="M 706 192 L 690 0 L 722 0 Z" fill="rgb(155.39999999999998, 155.39999999999998, 222)" opacity="0.6302555280049273"/>
<path d="M 63 163 L 50 0 L 76 0 Z" fill="rgb(168.7, 168.7, 241)" opacity="0.5234032416232139"/>
<path d="M 228 178 L 214 0 L 242 0 Z" fill="rgb(150.5, 150.5, 215)" opacity="0.6562519961864921"/>
<path d="M 225 72 L 219 0 L 231 0 Z" fill="rgb(165.89999999999998, 165.89999999999998, 237)" opacity="0.6733843919083932"/>
<path d="M 154 104 L 146 0 L 162 0 Z" fill="rgb(140.0, 140.0, 200)" opacity="0.323107721428243"/>
<path d="M 511 130 L 501 0 L 521 0 Z" fill="rgb(171.5, 171.5, 245)" opacity="0.41732929588424983"/>
<path d="M 144 77 L 138 0 L 150 0 Z" fill="rgb(165.89999999999998, 165.89999999999998, 237)" opacity="0.5045227528610761"/>
<path d="M 437 140 L 426 0 L 448 0 Z" fill="rgb(161.7, 161.7, 231)" opacity="0.3813591899644989"/>
<path d="M 124 159 L 111 0 L 137 0 Z" fill="rgb(158.2, 158.2, 226)" opacity="0.6659979610485451"/>
<path d="M 148 85 L 141 0 L 155 0 Z" fill="rgb(156.79999999999998, 156.79999999999998, 224)" opacity="0.5248284194765881"/>
<path d="M 23 148 L 11 0 L 35 0 Z" fill="rgb(148.39999999999998, 148.39999999999998, 212)" opacity="0.6125637074007152"/>
<path d="M 272 183 L 257 0 L 287 0 Z" fill="rgb(174.29999999999998, 174.29999999999998, 249)" opacity="0.2007802049395751"/>
<path d="M 166 96 L 158 0 L 174 0 Z" fill="rgb(161.7, 161.7, 231)" opacity="0.4376306720580754"/>
<path d="M 711 169 L 697 0 L 725 0 Z" fill="rgb(140.7, 140.7, 201)" opacity="0.22236814248730696"/>
<path d="M 636 143 L 625 0 L 647 0 Z" fill="rgb(159.6, 159.6, 228)" opacity="0.5128255053940591"/>
<path d="M 788 87 L 781 0 L 795 0 Z" fill="rgb(168.0, 168.0, 240)" opacity="0.5645934178504538"/>
<path d="M 463 84 L 456 0 L 470 0 Z" fill="rgb(172.2, 172.2, 246)" opacity="0.41062473833743374"/>
<path d="M 371 177 L 357 0 L 385 0 Z" fill="rgb(149.79999999999998, 149.79999999999998, 214)" opacity="0.31287710294804344"/>
<path d="M 726 133 L 715 0 L 737 0 Z" fill="rgb(168.7, 168.7, 241)" opacity="0.3150317304907215"/>
<path d="M 40 127 L 30 0 L 50 0 Z" fill="rgb(148.39999999999998, 148.39999999999998, 212)" opacity="0.4408264827107259"/>
<path d="M 467 112 L 458 0 L 476 0 Z" fill="rgb(158.2, 158.2, 226)" opacity="0.3638179554052412"/>
<path d="M 383 63 L 378 0 L 388 0 Z" fill="rgb(146.29999999999998, 146.29999999999998, 209)" opacity="0.6167915885531863"/>
<path d="M 364 111 L 355 0 L 373 0 Z" fill="rgb(167.29999999999998, 167.29999999999998, 239)" opacity="0.312206813446029"/>
<path d="M 132 104 L 124 0 L 140 0 Z" fill="rgb(156.1, 156.1, 223)" opacity="0.21916416062074362"/>
<path d="M 220 184 L 205 0 L 235 0 Z" fill="rgb(142.79999999999998, 142.79999999999998, 204)" opacity="0.23913666316121135"/>
<path d="M 529 77 L 523 0 L 535 0 Z" fill="rgb(153.29999999999998, 153.29999999999998, 219)" opacity="0.6412684687855591"/>
<path d="M 115 151 L 103 0 L 127 0 Z" fill="rgb(159.6, 159.6, 228)" opacity="0.6664341221213768"/>
<path d="M 703 93 L 696 0 L 710 0 Z" fill="rgb(156.1, 156.1, 223)" opacity="0.571662544242904"/>
<path d="M 19 112 L 10 0 L 28 0 Z" fill="rgb(142.79999999999998, 142.79999999999998, 204)" opacity="0.5332916086113584"/>
<path d="M 328 140 L 317 0 L 339 0 Z" fill="rgb(151.2, 151.2, 216)" opacity="0.22569465081564832"/>
<path d="M 319 192 L 303 0 L 335 0 Z" fill="rgb(172.89999999999998, 172.89999999999998, 247)" opacity="0.3886381914032917"/>
<path d="M 692 112 L 683 0 L 701 0 Z" fill="rgb(144.2, 144.2, 206)" opacity="0.3708259132083651"/>
<path d="M 378 172 L 364 0 L 392 0 Z" fill="rgb(163.79999999999998, 163.79999999999998, 234)" opacity="0.3860626226447502"/>
<path d="M 66 167 L 53 0 L 79 0 Z" fill="rgb(160.29999999999998, 160.29999999999998, 229)" opacity="0.3174237615003258"/>
<path d="M 497 63 L 492 0 L 502 0 Z" fill="rgb(174.29999999999998, 174.29999999999998, 249)" opacity="0.3131129059487786"/>
<path d="M 717 116 L 708 0 L 726 0 Z" fill="rgb(144.2, 144.2, 206)" opacity="0.22879732480162163"/>
<path d="M 500 116 L 491 0 L 509 0 Z" fill="rgb(143.5, 143.5, 205)" opacity="0.30482434435262323"/>
<path d="M 690 131 L 680 0 L 700 0 Z" fill="rgb(171.5, 171.5, 245)" opacity="0.5403195537038948"/>
<path d="M 566 144 L 554 0 L 578 0 Z" fill="rgb(162.39999999999998, 162.39999999999998, 232)" opacity="0.6324631030581522"/>
<path d="M 482 87 L 475 0 L 489 0 Z" fill="rgb(150.5, 150.5, 215)" opacity="0.646501586746536"/>
<path d="M 485 146 L 473 0 L 497 0 Z" fill="rgb(155.39999999999998, 155.39999999999998, 222)" opacity="0.4924276184463742"/>
<path d="M 736 107 L 728 0 L 744 0 Z" fill="rgb(142.1, 142.1, 203)" opacity="0.21124353617890196"/>
<path d="M 585 160 L 572 0 L 598 0 Z" fill="rgb(147.7, 147.7, 211)" opacity="0.28475486631107577"/>
<path d="M 395 116 L 386 0 L 404 0 Z" fill="rgb(144.2, 144.2, 206)" opacity="0.5418284931775745"/>
<path d="M 528 191 L 513 0 L 543 0 Z" fill="rgb(161.0, 161.0, 230)" opacity="0.6786289006124457"/>
<path d="M 510 96 L 502 0 L 518 0 Z" fill="rgb(148.39999999999998, 148.39999999999998, 212)" opacity="0.2080726852205082"/>
<path d="M 332 139 L 321 0 L 343 0 Z" fill="rgb(154.7, 154.7, 221)" opacity="0.6111331752173137"/>
<path d="M 448 89 L 441 0 L 455 0 Z" fill="rgb(164.5, 164.5, 235)" opacity="0.3003586733087359"/>
<path d="M 235 162 L 222 0 L 248 0 Z" fill="rgb(151.89999999999998, 151.89999999999998, 217)" opacity="0.5406031624731559"/>
<path d="M 107 168 L 93 0 L 121 0 Z" fill="rgb(153.29999999999998, 153.29999999999998, 219)" opacity="0.5459625149339611"/>
<path d="M 708 125 L 698 0 L 718 0 Z" fill="rgb(156.1, 156.1, 223)" opacity="0.6315778902832145"/>
<path d="M 123 130 L 113 0 L 133 0 Z" fill="rgb(158.2, 158.2, 226)" opacity="0.27902466996959185"/>
<path d="M 35 75 L 29 0 L 41 0 Z" fill="rgb(161.0, 161.0, 230)" opacity="0.691161465490454"/>
<path d="M 74 169 L 60 0 L 88 0 Z" fill="rgb(147.7, 147.7, 211)" opacity="0.6841705607529122"/>
<path d="M 791 88 L 784 0 L 798 0 Z" fill="rgb(145.6, 145.6, 208)" opacity="0.5090352208891169"/>
<path d="M 692 78 L 686 0 L 698 0 Z" fill="rgb(149.1, 149.1, 213)" opacity="0.5597253153721037"/>
<path d="M 484 63 L 479 0 L 489 0 Z" fill="rgb(151.89999999999998, 151.89999999999998, 217)" opacity="0.5648609718291923"/>
<path d="M 365 142 L 354 0 L 376 0 Z" fill="rgb(158.89999999999998, 158.89999999999998, 227)" opacity="0.5762213521830202"/>
<path d="M 517 137 L 506 0 L 528 0 Z" fill="rgb(152.6, 152.6, 218)" opacity="0.47417661291093066"/>
<path d="M 234 62 L 229 0 L 239 0 Z" fill="rgb(167.29999999999998, 167.29999999999998, 239)" opacity="0.6834800005026658"/>
</svg>
