<svg version="1.1"
     xmlns="http://www.w3.org/2000/svg"
     width="280"
     height="240">

<path d="M 104.99921782421188 -0.08843724375060463 L 99.86977568749371 5.142733812305303 L 102.4832505644089 10.20024046078941 L 98.84689167535035 15.22047369505336 L 94.9185209703295 22.73280663124738 L 93.66179970748834 27.39559796595341 L 96.63878299653484 28.078366056143686 L 91.94847109469724 29.777037181766904 L 89.323674292425 39.95251862357353 L 94.07353027633819 44.02295297657855 L 89.63790089748528 46.62026663463596 L 84.60737602675843 52.25902095386583 L 82.91182193490039 55.894703224833975 L 81.10285477728168 59.617610005239534 L 75.38033334825931 58.918684589350775 L 74.67027234866572 66.47304097194561 L 71.55741401980757 71.2060938963288 L 66.50146031480229 78.95651930943168 L 65.03579168843903 75.76690321748303 L 58.397848135248836 77.47887448408152 L 54.91633664552668 82.7049431382717 L 50.85147603075108 89.39070018147586 L 46.484128741777724 85.15871585011493 L 39.926949035945434 92.22177002951939 L 38.91163532269199 89.13630626521949 L 34.36854460596847 93.92787998967118 L 30.2118147681441 93.56163099364271 L 26.770471113159765 97.73906793667742 L 20.965790913693244 98.53499892280172 L 18.642554898469403 102.49234915517735 L 14.543895899437597 101.99118204248983 L 5.142733812305303 99.86977568749371 L -1.9971972282718726 100.10584531819192 L -5.897239600882523 99.21348229654461 L -13.604957917376177 97.35475494638878 L -15.22047369505336 98.84689167535035 L -20.485154381698653 97.02724155347381 L -27.88213375546531 96.09242242798042 L -34.596574927822715 94.38284758050501 L -31.81819262188758 97.00939013200313 L -37.02888464968298 91.45404003832613 L -39.62666826943397 86.78210521940781 L -44.40171039594204 91.72460678511028 L -48.72122577630956 83.00595693364235 L -59.77869199302119 81.95545838028552 L -55.325452880017195 77.9232190038668 L -63.593932047468115 77.15291937025297 L -67.22306791242819 74.00886506978958 L -73.54873876541775 67.89208137860555 L -74.61649146516648 68.0172909060775 L -77.65245431780517 67.56261757748608 L -80.0525975218892 55.81632318521239 L -79.00903379490362 55.018207512180126 L -87.51392204906992 51.86097883271406 L -86.420761854919 48.96978243501605 L -92.03437978824041 43.957103717624356 L -92.13630503194688 38.90891509584062 L -92.28525042331877 33.22759407779257 L -95.50102962884264 29.72321172498471 L -100.55510435981627 21.62241653987741 L -101.4884764308408 18.246014956572626 L -100.11945345855003 10.38512608521809 L -97.80458406276072 9.131175923384127 L -103.78611909975929 5.956523881797421 L -97.544771753871 -4.355669209135415 L -94.87048303756978 -5.226834944382293 L -100.46838743286283 -10.04624262700051 L -97.93524172660919 -15.631441298351044 L -101.86669481554765 -19.253421051637538 L -101.84273846542425 -25.238208037187636 L -95.50102962884264 -29.72321172498471 L -92.50720322907966 -32.96082391566261 L -96.11223272634811 -35.87708413602553 L -90.13260825163869 -43.3380196986322 L -83.91779984102341 -44.65662565903674 L -86.48444676224813 -52.078786619713654 L -82.91182193490039 -55.894703224833975 L -80.12267282394623 -59.81570931961372 L -81.44443835732093 -66.15964145884641 L -75.7487775346338 -66.23681002795796 L -70.696813418525 -70.696813418525 L -67.96475499240901 -71.10199385224493 L -61.838165826106305 -81.83450937536074 L -63.40126943566557 -78.3496080608374 L -55.894703224833975 -82.91182193490039 L -53.130413467218105 -83.9884015253496 L -45.80328855466685 -88.69205381616932 L -40.996659220003174 -88.2569667322875 L -41.88716722929478 -94.80651368101829 L -34.9341370561207 -94.75256488727196 L -27.02478411314054 -94.19011833373646 L -26.261940099015778 -95.31497040592569 L -20.18671050639686 -94.96715927588747 L -13.638835220775093 -96.29769185252698 L -12.834810342890268 -100.95095993743736 L -2.2896696219975614 -98.94240050668304 L -1.2044801419269653 -96.1856550250792 L 2.22609746452032 -102.6071526098008 L 12.565747630875336 -101.35135558036357 L 18.20006235119029 -98.4975330627184 L 16.217834051613732 -101.06426871362387 L 24.018432619208063 -96.5721641264158 L 31.71809782244888 -95.6439612843434 L 34.36854460596847 -93.92787998967118 L 37.9597165193372 -92.45098274384253 L 46.79931607032559 -92.13745922547744 L 47.55594980380817 -86.92748374212485 L 51.92658058103475 -86.5100623018712 L 56.78781539083031 -82.46198790000604 L 60.339784652414025 -79.27100091202813 L 63.593932047468115 -77.15291937025297 L 69.70904396679882 -70.87518942334883 L 70.696813418525 -70.696813418525 L 74.00886506978958 -67.22306791242819 L 77.15291937025297 -63.593932047468115 L 79.93528148525705 -61.806911088944055 L 87.46198809312708 -57.96737973903695 L 82.82572065425316 -50.50574652404473 L 87.92309314471558 -47.649554918374264 L 93.69891476931022 -45.149499155323205 L 93.13504113258874 -38.85865376602635 L 93.1573358365251 -33.73115798228359 L 96.49792723621094 -27.98937345097431 L 93.04172868152074 -26.20447702688473 L 99.04203803581332 -22.943577499841076 L 95.6881886353703 -12.766376079794195 L 101.43555513971006 -9.783907394358556 L 103.17446926904262 -1.3905344130103439 L 101.99362321003638 0.1595822559191756 Z"/>
<circle cx="200" cy="100" r="50"/>
<circle cx="60" cy="140" r="30" fill="cyan" stroke="magenta" stroke-width="3"/>
<path d="M 190 200 C 190 177.92339902024, 172.07660097976 160, 150 160 C 127.92339902024 160, 110 177.92339902024, 110 200 C 110 222.07660097976, 127.92339902024 240, 150 240 C 172.07660097976 240, 190 222.07660097976, 190 200 Z" fill="magenta"/>
<path d="M 280 130 C 280 146.55745073482, 266.55745073482 160, 250 160 C 233.44254926518 160, 220 146.55745073482, 220 130 C 220 113.44254926518, 233.44254926518 100, 250 100 C 266.55745073482 100, 280 113.44254926518, 280 130 Z" fill="lightblue"/>
</svg>
