
<svg version="1.1"
     xmlns="http://www.w3.org/2000/svg"
     width="240"
     height="240">
<rect x="0" y="0" width="240" height="240" fill="none"/>
<path d="M 220.0 120.0 L 215.10565163 150.90169944 L 200.90169944 178.77852523 L 178.77852523 200.90169944 L 150.90169944 215.10565163 L 120.0 220.0 L 89.09830056 215.10565163 L 61.22147477 200.90169944 L 39.09830056 178.77852523 L 24.89434837 150.90169944 L 20.0 120.0 L 24.89434837 89.09830056 L 39.09830056 61.22147477 L 61.22147477 39.09830056 L 89.09830056 24.89434837 L 120.0 20.0 L 150.90169944 24.89434837 L 178.77852523 39.09830056 L 200.90169944 61.22147477 L 215.10565163 89.09830056 Z" fill="red" stroke="black" stroke-width="4"/>
<circle cx="220.0" cy="120.0" r="4" fill="green"/>
<circle cx="215.10565163" cy="150.90169944" r="4" fill="green"/>
<circle cx="200.90169944" cy="178.77852523" r="4" fill="green"/>
<circle cx="178.77852523" cy="200.90169944" r="4" fill="green"/>
<circle cx="150.90169944" cy="215.10565163" r="4" fill="green"/>
<circle cx="120.0" cy="220.0" r="4" fill="green"/>
<circle cx="89.09830056" cy="215.10565163" r="4" fill="green"/>
<circle cx="61.22147477" cy="200.90169944" r="4" fill="green"/>
<circle cx="39.09830056" cy="178.77852523" r="4" fill="green"/>
<circle cx="24.89434837" cy="150.90169944" r="4" fill="green"/>
<circle cx="20.0" cy="120.0" r="4" fill="green"/>
<circle cx="24.89434837" cy="89.09830056" r="4" fill="green"/>
<circle cx="39.09830056" cy="61.22147477" r="4" fill="green"/>
<circle cx="61.22147477" cy="39.09830056" r="4" fill="green"/>
<circle cx="89.09830056" cy="24.89434837" r="4" fill="green"/>
<circle cx="120.0" cy="20.0" r="4" fill="green"/>
<circle cx="150.90169944" cy="24.89434837" r="4" fill="green"/>
<circle cx="178.77852523" cy="39.09830056" r="4" fill="green"/>
<circle cx="200.90169944" cy="61.22147477" r="4" fill="green"/>
<circle cx="215.10565163" cy="89.09830056" r="4" fill="green"/>
</svg>
