<svg version="1.1"
     xmlns="http://www.w3.org/2000/svg"
     width="280"
     height="240">

<path d="M 107.32605871909354 3.213854950739601 L 103.20529716630207 12.755462087107755 L 101.93902017190938 28.06060997603223 L 92.97764858882513 36.8124552684678 L 87.63066800438637 48.17536741017153 L 84.57043208149139 65.88770245216654 L 73.27563008066235 72.43673712508455 L 60.94155026551145 75.97650033511655 L 50.693886161849 83.62355027400157 L 51.67266680443291 94.64031839784678 L 29.2606295122668 97.6170037554651 L 18.53827293787034 97.24890030705471 L 7.152611267316113 99.315955137939 L -5.325935973808309 101.56095892033 L -20.303782529031825 91.40606161014628 L -30.034921691076907 94.60695699518007 L -42.811954710970426 91.45493569246251 L -51.68452434113604 85.06287746578955 L -63.182304816945795 85.03169360075316 L -75.48185006702485 74.95992700204316 L -81.61621080339438 62.71419207337936 L -88.35320285233777 50.040291910921034 L -90.02093671742247 39.50649589724576 L -96.85831611286311 24.86898871648548 L -100.26422921629496 19.453706171656147 L -95.09209689547723 6.317633031176731 L -99.38856470496975 -15.528091713420514 L -96.74238611294302 -25.86224610262392 L -93.97343989214419 -36.90410503788443 L -91.38463193407715 -49.55658238785618 L -78.77159551483302 -64.3876835688435 L -70.40354017268403 -62.997298883584364 L -67.8604630384683 -79.88708667384768 L -49.59710547461526 -84.09338172992496 L -46.08588791669315 -97.67257487941416 L -30.08910008432543 -90.17212527494615 L -18.738131458572465 -98.22872507286887 L -6.872666629062371 -104.7673099510438 L 5.9866739249674 -89.80694800223836 L 18.738131458572514 -98.22872507286885 L 27.522664750215696 -87.8542983363593 L 40.678021572606575 -91.1074861463073 L 59.582630451387814 -84.45705271789828 L 62.270890069443695 -75.69682749232837 L 74.48014997373919 -71.00288671359885 L 85.71598639428115 -51.17440522113871 L 83.29221431676223 -50.66088940772869 L 88.61361880541497 -39.252792140604285 L 94.10353547619077 -16.300956057594895 L 90.71204394538763 -17.802076008407404"/>
<circle cx="200" cy="100" r="50"/>
<circle cx="60" cy="140" r="30" fill="cyan" stroke="magenta" stroke-width="3"/>
<path d="M 190 200 C 190 177.92339902024, 172.07660097976 160, 150 160 C 127.92339902024 160, 110 177.92339902024, 110 200 C 110 222.07660097976, 127.92339902024 240, 150 240 C 172.07660097976 240, 190 222.07660097976, 190 200" fill="magenta"/>
<path d="M 280 130 C 280 146.55745073482, 266.55745073482 160, 250 160 C 233.44254926518 160, 220 146.55745073482, 220 130 C 220 113.44254926518, 233.44254926518 100, 250 100 C 266.55745073482 100, 280 113.44254926518, 280 130 Z" fill="lightblue"/>
</svg>
