<svg version="1.1"
     xmlns="http://www.w3.org/2000/svg"
     width="280"
     height="240">

<path d="M 104.0 1.0 L 106.21147013144778 21.533323356430426 L 104.85831611286311 28.86898871648548 L 97.97764858882513 39.8124552684678 L 92.63066800438637 56.17536741017153 L 84.90169943749474 68.77852522924732 L 78.89686274214115 74.45471059286888 L 63.74239897486896 85.05132427757893 L 57.58267949789967 92.43279255020151 L 48.57792915650727 93.48270524660195 L 39.90169943749474 99.10565162951535 L 22.73813145857245 98.22872507286887 L 6.279051952931329 101.80267284282715 L -4.27905195293134 101.80267284282715 L -12.738131458572482 102.22872507286885 L -27.901699437494756 98.10565162951535 L -40.577929156507274 98.48270524660195 L -44.582679497899676 84.4327925502015 L -60.74239897486896 83.05132427757893 L -72.89686274214117 70.45471059286885 L -70.90169943749473 61.77852522924732 L -77.63066800438637 53.17536741017152 L -87.97764858882515 40.81245526846777 L -91.85831611286311 27.86898871648548 L -95.21147013144778 15.53332335643041 L -96.0 8.999999999999968 L -98.21147013144778 -4.533323356430431 L -89.85831611286311 -15.8689887164855 L -85.97764858882512 -29.812455268467836 L -84.63066800438635 -45.17536741017154 L -74.90169943749473 -53.778525229247336 L -70.89686274214115 -63.45471059286888 L -58.74239897486896 -72.05132427757894 L -47.58267949789963 -81.43279255020153 L -34.57792915650722 -84.48270524660198 L -30.901699437494756 -88.10565162951535 L -15.738131458572465 -96.22872507286887 L -5.27905195293132 -91.80267284282715 L 8.279051952931372 -97.80267284282715 L 19.738131458572514 -88.22872507286885 L 37.90169943749473 -92.10565162951536 L 44.57792915650727 -85.48270524660195 L 61.58267949789967 -83.43279255020151 L 71.74239897486899 -72.0513242775789 L 72.8968627421412 -59.45471059286882 L 88.90169943749478 -54.77852522924726 L 97.63066800438637 -41.17536741017153 L 97.97764858882515 -32.81245526846778 L 97.85831611286312 -17.86898871648545 L 108.21147013144778 -9.533323356430378"/>
<circle cx="200" cy="100" r="50"/>
<circle cx="60" cy="140" r="30" fill="cyan" stroke="magenta" stroke-width="3"/>
<path d="M 190 200 C 190 177.92339902024, 172.07660097976 160, 150 160 C 127.92339902024 160, 110 177.92339902024, 110 200 C 110 222.07660097976, 127.92339902024 240, 150 240 C 172.07660097976 240, 190 222.07660097976, 190 200" fill="magenta"/>
<path d="M 280 130 C 280 146.55745073482, 266.55745073482 160, 250 160 C 233.44254926518 160, 220 146.55745073482, 220 130 C 220 113.44254926518, 233.44254926518 100, 250 100 C 266.55745073482 100, 280 113.44254926518, 280 130 Z" fill="lightblue"/>
</svg>
