
<svg version="1.1"
     xmlns="http://www.w3.org/2000/svg"
     width="280"
     height="240">
<path d="M 104.99921782 -0.08843724 L 99.86977569 5.14273381 L 102.48325056 10.20024046 L 98.84689168 15.2204737 L 94.91852097 22.73280663 L 93.66179971 27.39559797 L 96.638783 28.07836606 L 91.94847109 29.77703718 L 89.32367429 39.95251862 L 94.07353028 44.02295298 L 89.6379009 46.62026663 L 84.60737603 52.25902095 L 82.91182193 55.89470322 L 81.10285478 59.61761001 L 75.38033335 58.91868459 L 74.67027235 66.47304097 L 71.55741402 71.2060939 L 66.50146031 78.95651931 L 65.03579169 75.76690322 L 58.39784814 77.47887448 L 54.91633665 82.70494314 L 50.85147603 89.39070018 L 46.48412874 85.15871585 L 39.92694904 92.22177003 L 38.91163532 89.13630627 L 34.36854461 93.92787999 L 30.21181477 93.56163099 L 26.77047111 97.73906794 L 20.96579091 98.53499892 L 18.6425549 102.49234916 L 14.5438959 101.99118204 L 5.14273381 99.86977569 L -1.99719723 100.10584532 L -5.8972396 99.2134823 L -13.60495792 97.35475495 L -15.2204737 98.84689168 L -20.48515438 97.02724155 L -27.88213376 96.09242243 L -34.59657493 94.38284758 L -31.81819262 97.00939013 L -37.02888465 91.45404004 L -39.62666827 86.78210522 L -44.4017104 91.72460679 L -48.72122578 83.00595693 L -59.77869199 81.95545838 L -55.32545288 77.923219 L -63.59393205 77.15291937 L -67.22306791 74.00886507 L -73.54873877 67.89208138 L -74.61649147 68.01729091 L -77.65245432 67.56261758 L -80.05259752 55.81632319 L -79.00903379 55.01820751 L -87.51392205 51.86097883 L -86.42076185 48.96978244 L -92.03437979 43.95710372 L -92.13630503 38.9089151 L -92.28525042 33.22759408 L -95.50102963 29.72321172 L -100.55510436 21.62241654 L -101.48847643 18.24601496 L -100.11945346 10.38512609 L -97.80458406 9.13117592 L -103.7861191 5.95652388 L -97.54477175 -4.35566921 L -94.87048304 -5.22683494 L -100.46838743 -10.04624263 L -97.93524173 -15.6314413 L -101.86669482 -19.25342105 L -101.84273847 -25.23820804 L -95.50102963 -29.72321172 L -92.50720323 -32.96082392 L -96.11223273 -35.87708414 L -90.13260825 -43.3380197 L -83.91779984 -44.65662566 L -86.48444676 -52.07878662 L -82.91182193 -55.89470322 L -80.12267282 -59.81570932 L -81.44443836 -66.15964146 L -75.74877753 -66.23681003 L -70.69681342 -70.69681342 L -67.96475499 -71.10199385 L -61.83816583 -81.83450938 L -63.40126944 -78.34960806 L -55.89470322 -82.91182193 L -53.13041347 -83.98840153 L -45.80328855 -88.69205382 L -40.99665922 -88.25696673 L -41.88716723 -94.80651368 L -34.93413706 -94.75256489 L -27.02478411 -94.19011833 L -26.2619401 -95.31497041 L -20.18671051 -94.96715928 L -13.63883522 -96.29769185 L -12.83481034 -100.95095994 L -2.28966962 -98.94240051 L -1.20448014 -96.18565503 L 2.22609746 -102.60715261 L 12.56574763 -101.35135558 L 18.20006235 -98.49753306 L 16.21783405 -101.06426871 L 24.01843262 -96.57216413 L 31.71809782 -95.64396128 L 34.36854461 -93.92787999 L 37.95971652 -92.45098274 L 46.79931607 -92.13745923 L 47.5559498 -86.92748374 L 51.92658058 -86.5100623 L 56.78781539 -82.4619879 L 60.33978465 -79.27100091 L 63.59393205 -77.15291937 L 69.70904397 -70.87518942 L 70.69681342 -70.69681342 L 74.00886507 -67.22306791 L 77.15291937 -63.59393205 L 79.93528149 -61.80691109 L 87.46198809 -57.96737974 L 82.82572065 -50.50574652 L 87.92309314 -47.64955492 L 93.69891477 -45.14949916 L 93.13504113 -38.85865377 L 93.15733584 -33.73115798 L 96.49792724 -27.98937345 L 93.04172868 -26.20447703 L 99.04203804 -22.9435775 L 95.68818864 -12.76637608 L 101.43555514 -9.78390739 L 103.17446927 -1.39053441 L 101.99362321 0.15958226 Z"/>
<circle cx="200" cy="100" r="50"/>
<circle cx="60" cy="140" r="30" fill="cyan" stroke="magenta" stroke-width="3"/>
<path d="M 190 200 C 190 177.92339902, 172.07660098 160, 150 160 C 127.92339902 160, 110 177.92339902, 110 200 C 110 222.07660098, 127.92339902 240, 150 240 C 172.07660098 240, 190 222.07660098, 190 200 Z" fill="magenta"/>
<path d="M 280 130 C 280 146.55745073, 266.55745073 160, 250 160 C 233.44254927 160, 220 146.55745073, 220 130 C 220 113.44254927, 233.44254927 100, 250 100 C 266.55745073 100, 280 113.44254927, 280 130 Z" fill="lightblue"/>
</svg>
