<svg version="1.1"
     xmlns="http://www.w3.org/2000/svg"
     width="280"
     height="240">

<path d="M 108.94055427126249 -1.032709699097504 L 94.36084016597377 0.8239805871561963 L 107.18561409653948 8.056281847302913 L 97.27079794438174 25.095489064722486 L 95.17641401446326 25.454513629322662 L 93.1865662101554 26.58647817948413 L 85.63035887810123 28.120133769781653 L 93.92787998967118 34.36854460596847 L 92.63375433734402 45.89121730847506 L 88.28338214977336 40.975740539815455 L 80.95890980353656 48.356768033668786 L 86.84160009372025 47.01667311815419 L 78.8692713164549 61.60940221054669 L 81.65683834700866 57.23766041630591 L 71.5927607063218 65.84884571142757 L 73.02695438662678 67.03372322596785 L 63.19208977741891 67.92569034824766 L 71.31898361952544 80.8807988966213 L 63.593932047468115 77.15291937025297 L 67.6909624165038 81.5299356494068 L 57.24733271447241 88.7573666882797 L 45.56861253990675 79.05615372539197 L 42.653972979999786 88.13323856338243 L 43.3380196986322 90.13260825163869 L 38.58159385584845 91.19139191115217 L 38.9143074010509 87.34486847435053 L 30.630446213574324 95.92165485717963 L 25.911963022851154 95.08027257721236 L 16.538053425609547 99.70041257977587 L 24.1072611668821 100.26991958461556 L 14.187408306401128 99.97967924047657 L 3.640913769912974 93.03277805986002 L -6.749912592990437 107.37825724592123 L -6.028183131739397 104.79074911789483 L -15.019168379445475 100.8804144025693 L -17.92777228291034 97.55440014493801 L -23.635537602930473 106.26149341432138 L -25.246379986260916 94.86737439177945 L -33.816135322035315 86.376996725093 L -39.71755023031029 98.44320266150312 L -38.66191401044673 91.16728982885962 L -43.3380196986322 90.13260825163869 L -47.57661482916378 84.92397998523226 L -56.134113735591555 79.98806278457181 L -63.470944717326546 80.34266548823663 L -54.843173142273216 79.5993335792493 L -57.13042634732648 74.46533791767585 L -67.37168528119396 77.00518162144115 L -63.32045720456794 67.60014278624634 L -80.32260287131822 60.809276913841764 L -76.61612016523081 57.61799307409434 L -82.15629778884201 62.02124088868105 L -81.32778043150586 54.67371488929444 L -85.5140632071465 51.837217259097834 L -89.40385243429117 48.99393281403293 L -95.42632146201913 49.33606941885323 L -94.93584696860002 39.987138145548045 L -92.60812959036545 43.271255366379165 L -103.31108729190471 35.968449854923826 L -100.61127551017582 34.24467580612231 L -97.33773651227678 25.103137897585533 L -93.5152487452668 9.256114243604268 L -106.02024045327296 16.40447815812305 L -102.54619328215185 6.498015649785762 L -100.0 0.0 L -93.44918565276467 -0.37031056976509635 L -99.42483433573263 -5.218668103802705 L -96.70408112112952 -17.320083879997174 L -89.70550788455975 -14.50812266946772 L -99.27850825863634 -30.465537309280386 L -100.54453851649527 -23.51329883508287 L -98.86183587771018 -35.178531824932634 L -86.30352096185212 -40.315552928279644 L -90.73837425173082 -42.542376843368366 L -86.7507631031089 -37.71851054864424 L -84.51473583444236 -51.80054571475834 L -84.88365318691936 -56.22919016562729 L -81.28680767200652 -66.71822987775272 L -81.23929795660851 -56.71632272089432 L -81.7233934184668 -60.86020280640438 L -70.01794887757895 -71.43107695094787 L -67.22306791242819 -74.00886506978958 L -64.96213012674106 -81.96208083727338 L -53.582108282097785 -75.10847118210131 L -61.93120265168953 -88.16164809102904 L -61.83602647998856 -85.66838159305851 L -49.05407533545893 -91.66839986085944 L -45.357582851578016 -99.92655355837098 L -48.70592922293998 -94.14092823679499 L -33.65801607499511 -89.99149215224043 L -34.08128146769034 -93.05006489680065 L -24.679242104442917 -98.82682580806204 L -21.54807433976259 -104.82434642724148 L -15.22047369505336 -98.84689167535035 L -2.426947587686052 -94.97837232036143 L -5.168711044710923 -100.8694382222506 L 3.1615098721475015 -105.09949559547941 L 4.274396108425822 -105.80660898749645 L 10.569521788236395 -96.50393238400424 L 24.21540967497614 -99.14876369639677 L 17.163831972115922 -95.29751023118162 L 26.294055096710718 -100.62717576563078 L 33.32604056791125 -98.96796261472176 L 31.804432606556155 -95.48522698198529 L 29.93344320008911 -91.47229882069972 L 42.390612194094 -87.28613341065648 L 44.33763772714119 -85.6800584774813 L 51.837217259097834 -85.5140632071465 L 58.30539938660643 -76.34002278888143 L 59.100018880314025 -75.17415918901554 L 64.4012948458365 -84.10620386837404 L 66.22528750401607 -73.94227485587685 L 79.90523914866122 -66.79746788721272 L 71.83245074624065 -65.158311100537 L 73.44164954895163 -54.30811079603872 L 78.21911919453619 -55.19223837453794 L 83.55724879064424 -57.787696667475714 L 88.12563172205328 -48.807413652929995 L 92.65516556702245 -51.338388147193754 L 95.5783028948941 -45.85683089688016 L 93.23396101071886 -47.84172827827459 L 97.0297729608427 -41.74270625292174 L 95.3259764734393 -28.738652741082106 L 92.86952693998313 -24.57895900070449 L 92.46535167196991 -24.471110005441137 L 102.26987307275961 -11.575861458753021 L 100.45137786474646 -13.057839386713983 L 102.12713923901042 -7.118666451917257 L 104.31309469210171 7.899190729243349 Z"/>
<circle cx="200" cy="100" r="50"/>
<circle cx="60" cy="140" r="30" fill="cyan" stroke="magenta" stroke-width="3"/>
<path d="M 190 200 C 190 177.92339902024, 172.07660097976 160, 150 160 C 127.92339902024 160, 110 177.92339902024, 110 200 C 110 222.07660097976, 127.92339902024 240, 150 240 C 172.07660097976 240, 190 222.07660097976, 190 200 Z" fill="magenta"/>
<path d="M 280 130 C 280 146.55745073482, 266.55745073482 160, 250 160 C 233.44254926518 160, 220 146.55745073482, 220 130 C 220 113.44254926518, 233.44254926518 100, 250 100 C 266.55745073482 100, 280 113.44254926518, 280 130 Z" fill="lightblue"/>
</svg>
