<svg version="1.1"
     xmlns="http://www.w3.org/2000/svg"
     width="240"
     height="240">

<rect x="0" y="0" width="240" height="240" fill="none"/>
<path d="M 220.0 120.0 L 215.10565162951536 150.90169943749473 L 200.90169943749476 178.77852522924732 L 178.77852522924732 200.90169943749473 L 150.90169943749476 215.10565162951536 L 120.0 220.0 L 89.09830056250527 215.10565162951536 L 61.2214747707527 200.90169943749476 L 39.09830056250527 178.77852522924732 L 24.89434837048465 150.90169943749476 L 20.0 120.00000000000001 L 24.894348370484636 89.09830056250527 L 39.09830056250526 61.2214747707527 L 61.22147477075268 39.09830056250527 L 89.09830056250524 24.89434837048465 L 119.99999999999999 20.0 L 150.90169943749473 24.894348370484636 L 178.7785252292473 39.098300562505244 L 200.90169943749473 61.22147477075268 L 215.10565162951536 89.09830056250524 Z" fill="red" stroke="black" stroke-width="4"/>
<circle cx="220.0" cy="120.0" r="4" fill="green"/>
<circle cx="215.10565162951536" cy="150.90169943749473" r="4" fill="green"/>
<circle cx="200.90169943749476" cy="178.77852522924732" r="4" fill="green"/>
<circle cx="178.77852522924732" cy="200.90169943749473" r="4" fill="green"/>
<circle cx="150.90169943749476" cy="215.10565162951536" r="4" fill="green"/>
<circle cx="120.0" cy="220.0" r="4" fill="green"/>
<circle cx="89.09830056250527" cy="215.10565162951536" r="4" fill="green"/>
<circle cx="61.2214747707527" cy="200.90169943749476" r="4" fill="green"/>
<circle cx="39.09830056250527" cy="178.77852522924732" r="4" fill="green"/>
<circle cx="24.89434837048465" cy="150.90169943749476" r="4" fill="green"/>
<circle cx="20.0" cy="120.00000000000001" r="4" fill="green"/>
<circle cx="24.894348370484636" cy="89.09830056250527" r="4" fill="green"/>
<circle cx="39.09830056250526" cy="61.2214747707527" r="4" fill="green"/>
<circle cx="61.22147477075268" cy="39.09830056250527" r="4" fill="green"/>
<circle cx="89.09830056250524" cy="24.89434837048465" r="4" fill="green"/>
<circle cx="119.99999999999999" cy="20.0" r="4" fill="green"/>
<circle cx="150.90169943749473" cy="24.894348370484636" r="4" fill="green"/>
<circle cx="178.7785252292473" cy="39.098300562505244" r="4" fill="green"/>
<circle cx="200.90169943749473" cy="61.22147477075268" r="4" fill="green"/>
<circle cx="215.10565162951536" cy="89.09830056250524" r="4" fill="green"/>
</svg>
