<svg version="1.1"
     xmlns="http://www.w3.org/2000/svg"
     width="200"
     height="200.0">

<rect x="0" y="85" width="200" height="40" fill="purple"/>
<path d=" M 0.0 200.0 L 0.0 78.95208263397217 L 0.1872720718383789 79.4041976928711 L 1.5396080017089844 82.23942947387695 L 3.0384750366210938 85.0 L 4.679765701293945 87.67834186553955 L 6.458979606628418 90.26711463928223 L 8.371241569519043 92.75922298431396 L 10.411310195922852 95.14783573150635 L 12.573592185974121 97.42640686035156 L 14.852163314819336 99.58868885040283 L 17.24077606201172 101.62875747680664 L 19.732884407043457 103.54101943969727 L 22.321657180786133 105.32023334503174 L 25.0 106.96152400970459 L 27.76056957244873 108.4603910446167 L 30.59580135345459 109.8127269744873 L 33.49792289733887 111.01482486724854 L 36.45897960662842 112.06339073181152 L 39.47085666656494 112.9555492401123 L 42.52529811859131 113.68885517120361 L 45.61393165588379 114.2613000869751 L 48.728291511535645 114.67131328582764 L 51.85984230041504 114.9177713394165 L 55.0 115.0 L 58.140156745910645 114.9177713394165 L 61.27170753479004 114.67131328582764 L 64.3860673904419 114.2613000869751 L 67.47470092773438 113.68885517120361 L 70.52914237976074 112.9555492401123 L 73.54101943969727 112.06339073181152 L 76.50207614898682 111.01482486724854 L 79.4041976928711 109.8127269744873 L 82.23942947387695 108.4603910446167 L 85.0 106.96152400970459 L 87.67834186553955 105.32023334503174 L 90.26711463928223 103.54101943969727 L 92.75922298431396 101.62875747680664 L 95.14783573150635 99.58868885040283 L 97.42640686035156 97.42640686035156 L 99.58868885040283 95.14783573150635 L 101.62875747680664 92.75922298431396 L 103.54101943969727 90.26711463928223 L 105.32023334503174 87.67834186553955 L 106.96152400970459 85.0 L 108.4603910446167 82.23942947387695 L 109.8127269744873 79.4041976928711 L 111.01482486724854 76.50207614898682 L 112.06339073181152 73.54101943969727 L 112.9555492401123 70.52914237976074 L 113.68885517120361 67.47470092773438 L 114.2613000869751 64.3860673904419 L 114.67131328582764 61.27170753479004 L 114.9177713394165 58.140156745910645 L 115.0 55.0 L 114.9177713394165 51.85984230041504 L 114.67131328582764 48.728291511535645 L 114.2613000869751 45.61393165588379 L 113.68885517120361 42.52529811859131 L 112.9555492401123 39.47085666656494 L 112.06339073181152 36.45897960662842 L 111.01482486724854 33.49792289733887 L 109.8127269744873 30.59580135345459 L 108.4603910446167 27.76056957244873 L 106.96152400970459 24.999999046325684 L 105.32023334503174 22.321657180786133 L 103.54101943969727 19.732884407043457 L 101.62875747680664 17.24077606201172 L 99.58868885040283 14.852163314819336 L 97.42640686035156 12.573592185974121 L 95.14783573150635 10.411310195922852 L 92.75922298431396 8.371241569519043 L 90.26711463928223 6.458979606628418 L 87.67834186553955 4.679765701293945 L 84.99999904632568 3.0384750366210938 L 82.23942947387695 1.5396080017089844 L 79.4041976928711 0.1872720718383789 L 78.95208263397217 0.0 L 200.0 0.0 L 200.0 200.0 Z M 120.0 160.0 L 180.0 160.0 L 180.0 100.0 L 120.0 100.0 Z M 55.0 75.0 L 51.871310234069824 74.75376605987549 L 48.81965923309326 74.0211296081543 L 45.92018985748291 72.82013034820557 L 43.24429416656494 71.18033981323242 L 40.857863426208496 69.14213562011719 L 38.81965923309326 66.75570487976074 L 37.17986869812012 64.07980918884277 L 35.97886943817139 61.18033981323242 L 35.246232986450195 58.12868881225586 L 35.0 55.0 L 35.246232986450195 51.871310234069824 L 35.97886943817139 48.81965923309326 L 37.17986869812012 45.92018985748291 L 38.81965923309326 43.24429416656494 L 40.857863426208496 40.857863426208496 L 43.24429416656494 38.81965923309326 L 45.92018985748291 37.17986869812012 L 48.81965923309326 35.97886943817139 L 51.871310234069824 35.246232986450195 L 54.999999046325684 35.0 L 58.12868881225586 35.246232986450195 L 61.18033981323242 35.97886943817139 L 64.07980918884277 37.17986869812012 L 66.75570487976074 38.81965923309326 L 69.14213562011719 40.857863426208496 L 71.18033981323242 43.24429416656494 L 72.82013034820557 45.92018985748291 L 74.0211296081543 48.81965923309326 L 74.75376605987549 51.871310234069824 L 75.0 55.0 L 74.75376605987549 58.12868881225586 L 74.0211296081543 61.18033981323242 L 72.82013034820557 64.07980918884277 L 71.18033981323242 66.75570487976074 L 69.14213562011719 69.14213562011719 L 66.75570487976074 71.18033981323242 L 64.07980918884277 72.82013034820557 L 61.18033981323242 74.0211296081543 L 58.12868881225586 74.75376605987549 Z M 0.0 31.047916412353516 L 0.0 0.0 L 31.047916412353516 0.0 L 30.59580135345459 0.1872720718383789 L 27.76056957244873 1.5396080017089844 L 24.999999046325684 3.0384750366210938 L 22.321657180786133 4.679765701293945 L 19.732884407043457 6.458979606628418 L 17.24077606201172 8.371241569519043 L 14.852163314819336 10.411310195922852 L 12.573592185974121 12.573592185974121 L 10.411310195922852 14.852163314819336 L 8.371241569519043 17.24077606201172 L 6.458979606628418 19.732884407043457 L 4.679765701293945 22.321657180786133 L 3.0384750366210938 25.0 L 1.5396080017089844 27.76056957244873 L 0.1872720718383789 30.59580135345459 Z" fill="red"/>
</svg>
