<svg version="1.1"
     xmlns="http://www.w3.org/2000/svg"
     width="200"
     height="200.0">

<rect x="0" y="85" width="200" height="40" fill="purple"/>
<path d=" M 0.0 200.0 L 0.0 78.96830940246582 L 0.1872720718383789 79.4041976928711 L 0.8448820114135742 80.8306655883789 L 1.5396080017089844 82.23942947387695 L 2.2709732055664062 83.62952518463135 L 3.0384750366210938 85.0 L 3.84158992767334 86.34991359710693 L 4.679765701293945 87.67834186553955 L 5.552428245544434 88.98437404632568 L 6.458979606628418 90.26711463928223 L 7.398798942565918 91.52568531036377 L 8.371241569519043 92.75922298431396 L 9.375641822814941 93.96688270568848 L 10.411310195922852 95.14783573150635 L 11.477537155151367 96.30127429962158 L 12.573592185974121 97.42640686035156 L 13.698724746704102 98.52246189117432 L 14.852163314819336 99.58868885040283 L 16.033116340637207 100.62435722351074 L 17.24077606201172 101.62875747680664 L 18.474313735961914 102.60120010375977 L 19.732884407043457 103.54101943969727 L 21.015625 104.44757080078125 L 22.321657180786133 105.32023334503174 L 23.65008544921875 106.15840911865234 L 25.0 106.96152400970459 L 26.370473861694336 107.72902584075928 L 27.76056957244873 108.4603910446167 L 29.169333457946777 109.15511703491211 L 30.59580135345459 109.8127269744873 L 32.03899383544922 110.43277168273926 L 33.49792289733887 111.01482486724854 L 34.971588134765625 111.5584888458252 L 36.45897960662842 112.06339073181152 L 37.959078788757324 112.52918338775635 L 39.47085666656494 112.9555492401123 L 40.99327754974365 113.34219455718994 L 42.52529811859131 113.68885517120361 L 44.06586837768555 113.99529361724854 L 45.61393165588379 114.2613000869751 L 47.16842842102051 114.48669147491455 L 48.728291511535645 114.67131328582764 L 50.29245376586914 114.81503963470459 L 51.85984230041504 114.9177713394165 L 53.42938232421875 114.97943878173828 L 55.0 115.0 L 56.570616722106934 114.97943878173828 L 58.140156745910645 114.9177713394165 L 59.70754528045654 114.81503963470459 L 61.27170753479004 114.67131328582764 L 62.831570625305176 114.48669147491455 L 64.3860673904419 114.2613000869751 L 65.93413066864014 113.99529361724854 L 67.47470092773438 113.68885517120361 L 69.00672149658203 113.34219455718994 L 70.52914237976074 112.9555492401123 L 72.04092025756836 112.52918338775635 L 73.54101943969727 112.06339073181152 L 75.02841091156006 111.5584888458252 L 76.50207614898682 111.01482486724854 L 77.96100521087646 110.43277168273926 L 79.4041976928711 109.8127269744873 L 80.8306655883789 109.15511703491211 L 82.23942947387695 108.4603910446167 L 83.62952518463135 107.72902584075928 L 85.0 106.96152400970459 L 86.34991359710693 106.15840911865234 L 87.67834186553955 105.32023334503174 L 88.98437404632568 104.44757080078125 L 90.26711463928223 103.54101943969727 L 91.52568531036377 102.60120010375977 L 92.75922298431396 101.62875747680664 L 93.96688270568848 100.62435722351074 L 95.14783573150635 99.58868885040283 L 96.30127429962158 98.52246189117432 L 97.42640686035156 97.42640686035156 L 98.52246189117432 96.30127429962158 L 99.58868885040283 95.14783573150635 L 100.62435722351074 93.96688270568848 L 101.62875747680664 92.75922298431396 L 102.60120010375977 91.52568531036377 L 103.54101943969727 90.26711463928223 L 104.44757080078125 88.98437404632568 L 105.32023334503174 87.67834186553955 L 106.15840911865234 86.34991359710693 L 106.96152400970459 85.0 L 107.72902584075928 83.62952518463135 L 108.4603910446167 82.23942947387695 L 109.15511703491211 80.8306655883789 L 109.8127269744873 79.4041976928711 L 110.43277168273926 77.96100521087646 L 111.01482486724854 76.50207614898682 L 111.5584888458252 75.02841091156006 L 112.06339073181152 73.54101943969727 L 112.52918338775635 72.04092025756836 L 112.9555492401123 70.52914237976074 L 113.34219455718994 69.00672149658203 L 113.68885517120361 67.47470092773438 L 113.99529361724854 65.93413066864014 L 114.2613000869751 64.3860673904419 L 114.48669147491455 62.831570625305176 L 114.67131328582764 61.27170753479004 L 114.81503963470459 59.70754528045654 L 114.9177713394165 58.140156745910645 L 114.97943878173828 56.570616722106934 L 115.0 55.0 L 114.97943878173828 53.42938232421875 L 114.9177713394165 51.85984230041504 L 114.81503963470459 50.29245376586914 L 114.67131328582764 48.728291511535645 L 114.48669147491455 47.16842842102051 L 114.2613000869751 45.61393165588379 L 113.99529361724854 44.06586837768555 L 113.68885517120361 42.52529811859131 L 113.34219455718994 40.99327754974365 L 112.9555492401123 39.47085666656494 L 112.52918338775635 37.959078788757324 L 112.06339073181152 36.45897960662842 L 111.5584888458252 34.971588134765625 L 111.01482486724854 33.49792289733887 L 110.43277168273926 32.03899383544922 L 109.8127269744873 30.59580135345459 L 109.15511703491211 29.169333457946777 L 108.4603910446167 27.76056957244873 L 107.72902584075928 26.370473861694336 L 106.96152400970459 24.999999046325684 L 106.15840911865234 23.65008544921875 L 105.32023334503174 22.321657180786133 L 104.44757080078125 21.015625 L 103.54101943969727 19.732884407043457 L 102.60120010375977 18.474313735961914 L 101.62875747680664 17.24077606201172 L 100.62435722351074 16.033116340637207 L 99.58868885040283 14.852163314819336 L 98.52246189117432 13.698724746704102 L 97.42640686035156 12.573592185974121 L 96.30127429962158 11.477537155151367 L 95.14783573150635 10.411310195922852 L 93.96688270568848 9.375641822814941 L 92.75922298431396 8.371241569519043 L 91.52568531036377 7.398798942565918 L 90.26711463928223 6.458979606628418 L 88.98437404632568 5.552428245544434 L 87.67834186553955 4.679765701293945 L 86.34991359710693 3.84158992767334 L 84.99999904632568 3.0384750366210938 L 83.62952518463135 2.2709732055664062 L 82.23942947387695 1.5396080017089844 L 80.8306655883789 0.8448820114135742 L 79.4041976928711 0.1872720718383789 L 78.96830940246582 0.0 L 200.0 0.0 L 200.0 200.0 Z M 120.0 160.0 L 180.0 160.0 L 180.0 100.0 L 120.0 100.0 Z M 55.0 75.0 L 53.43081760406494 74.93834590911865 L 51.871310234069824 74.75376605987549 L 50.33109188079834 74.44739818572998 L 48.81965923309326 74.0211296081543 L 47.346330642700195 73.47759056091309 L 45.92018985748291 72.82013034820557 L 44.55002784729004 72.05280303955078 L 43.24429416656494 71.18033981323242 L 42.0110387802124 70.2081184387207 L 40.857863426208496 69.14213562011719 L 39.79188060760498 67.98896026611328 L 38.81965923309326 66.75570487976074 L 37.9471960067749 65.44997119903564 L 37.17986869812012 64.07980918884277 L 36.5224084854126 62.65366840362549 L 35.97886943817139 61.18033981323242 L 35.5526008605957 59.668907165527344 L 35.246232986450195 58.12868881225586 L 35.06165313720703 56.56918144226074 L 35.0 55.0 L 35.06165313720703 53.43081760406494 L 35.246232986450195 51.871310234069824 L 35.5526008605957 50.33109188079834 L 35.97886943817139 48.81965923309326 L 36.5224084854126 47.346330642700195 L 37.17986869812012 45.92018985748291 L 37.9471960067749 44.55002784729004 L 38.81965923309326 43.24429416656494 L 39.79188060760498 42.0110387802124 L 40.857863426208496 40.857863426208496 L 42.0110387802124 39.79188060760498 L 43.24429416656494 38.81965923309326 L 44.55002784729004 37.9471960067749 L 45.92018985748291 37.17986869812012 L 47.346330642700195 36.5224084854126 L 48.81965923309326 35.97886943817139 L 50.33109188079834 35.5526008605957 L 51.871310234069824 35.246232986450195 L 53.43081760406494 35.06165313720703 L 54.999999046325684 35.0 L 56.56918144226074 35.06165313720703 L 58.12868881225586 35.246232986450195 L 59.668907165527344 35.5526008605957 L 61.18033981323242 35.97886943817139 L 62.65366840362549 36.5224084854126 L 64.07980918884277 37.17986869812012 L 65.44997119903564 37.9471960067749 L 66.75570487976074 38.81965923309326 L 67.98896026611328 39.79188060760498 L 69.14213562011719 40.857863426208496 L 70.2081184387207 42.0110387802124 L 71.18033981323242 43.24429416656494 L 72.05280303955078 44.55002784729004 L 72.82013034820557 45.92018985748291 L 73.47759056091309 47.346330642700195 L 74.0211296081543 48.81965923309326 L 74.44739818572998 50.33109188079834 L 74.75376605987549 51.871310234069824 L 74.93834590911865 53.43081760406494 L 75.0 55.0 L 74.93834590911865 56.56918144226074 L 74.75376605987549 58.12868881225586 L 74.44739818572998 59.668907165527344 L 74.0211296081543 61.18033981323242 L 73.47759056091309 62.65366840362549 L 72.82013034820557 64.07980918884277 L 72.05280303955078 65.44997119903564 L 71.18033981323242 66.75570487976074 L 70.2081184387207 67.98896026611328 L 69.14213562011719 69.14213562011719 L 67.98896026611328 70.2081184387207 L 66.75570487976074 71.18033981323242 L 65.44997119903564 72.05280303955078 L 64.07980918884277 72.82013034820557 L 62.65366840362549 73.47759056091309 L 61.18033981323242 74.0211296081543 L 59.668907165527344 74.44739818572998 L 58.12868881225586 74.75376605987549 L 56.56918144226074 74.93834590911865 Z M 0.0 31.031689643859863 L 0.0 0.0 L 31.031689643859863 0.0 L 30.59580135345459 0.1872720718383789 L 29.169333457946777 0.8448820114135742 L 27.76056957244873 1.5396080017089844 L 26.370473861694336 2.2709732055664062 L 24.999999046325684 3.0384750366210938 L 23.65008544921875 3.84158992767334 L 22.321657180786133 4.679765701293945 L 21.015625 5.552428245544434 L 19.732884407043457 6.458979606628418 L 18.474313735961914 7.398798942565918 L 17.24077606201172 8.371241569519043 L 16.033116340637207 9.375641822814941 L 14.852163314819336 10.411310195922852 L 13.698724746704102 11.477537155151367 L 12.573592185974121 12.573592185974121 L 11.477537155151367 13.698724746704102 L 10.411310195922852 14.852163314819336 L 9.375641822814941 16.033116340637207 L 8.371241569519043 17.24077606201172 L 7.398798942565918 18.474313735961914 L 6.458979606628418 19.732884407043457 L 5.552428245544434 21.015625 L 4.679765701293945 22.321657180786133 L 3.84158992767334 23.65008544921875 L 3.0384750366210938 25.0 L 2.2709732055664062 26.370473861694336 L 1.5396080017089844 27.76056957244873 L 0.8448820114135742 29.169333457946777 L 0.1872720718383789 30.59580135345459 Z" fill="red"/>
</svg>
