
<svg version="1.1"
     xmlns="http://www.w3.org/2000/svg"
     width="200"
     height="200.0">
<rect x="0" y="85" width="200" height="40" fill="purple"/>
<path d=" M 200.0 200.0 L 0.0 200.0 L 0.0 78.9683094 L 0.18727207 79.40419769 L 0.84488201 80.83066559 L 1.539608 82.23942947 L 2.27097321 83.62952518 L 3.03847504 85.0 L 3.84158993 86.3499136 L 4.6797657 87.67834187 L 5.55242825 88.98437405 L 6.45897961 90.26711464 L 7.39879894 91.52568531 L 8.37124157 92.75922298 L 9.37564182 93.96688271 L 10.4113102 95.14783573 L 11.47753716 96.3012743 L 12.57359219 97.42640686 L 13.69872475 98.52246189 L 14.85216331 99.58868885 L 16.03311634 100.62435722 L 17.24077606 101.62875748 L 18.47431374 102.6012001 L 19.73288441 103.54101944 L 21.015625 104.4475708 L 22.32165718 105.32023335 L 23.65008545 106.15840912 L 25.0 106.96152401 L 26.37047386 107.72902584 L 27.76056957 108.46039104 L 29.16933346 109.15511703 L 30.59580135 109.81272697 L 32.03899384 110.43277168 L 33.4979229 111.01482487 L 34.97158813 111.55848885 L 36.45897961 112.06339073 L 37.95907879 112.52918339 L 39.47085667 112.95554924 L 40.99327755 113.34219456 L 42.52529812 113.68885517 L 44.06586838 113.99529362 L 45.61393166 114.26130009 L 47.16842842 114.48669147 L 48.72829151 114.67131329 L 50.29245377 114.81503963 L 51.8598423 114.91777134 L 53.42938232 114.97943878 L 55.0 115.0 L 56.57061672 114.97943878 L 58.14015675 114.91777134 L 59.70754528 114.81503963 L 61.27170753 114.67131329 L 62.83157063 114.48669147 L 64.38606739 114.26130009 L 65.93413067 113.99529362 L 67.47470093 113.68885517 L 69.0067215 113.34219456 L 70.52914238 112.95554924 L 72.04092026 112.52918339 L 73.54101944 112.06339073 L 75.02841091 111.55848885 L 76.50207615 111.01482487 L 77.96100521 110.43277168 L 79.40419769 109.81272697 L 80.83066559 109.15511703 L 82.23942947 108.46039104 L 83.62952518 107.72902584 L 85.0 106.96152401 L 86.3499136 106.15840912 L 87.67834187 105.32023335 L 88.98437405 104.4475708 L 90.26711464 103.54101944 L 91.52568531 102.6012001 L 92.75922298 101.62875748 L 93.96688271 100.62435722 L 95.14783573 99.58868885 L 96.3012743 98.52246189 L 97.42640686 97.42640686 L 98.52246189 96.3012743 L 99.58868885 95.14783573 L 100.62435722 93.96688271 L 101.62875748 92.75922298 L 102.6012001 91.52568531 L 103.54101944 90.26711464 L 104.4475708 88.98437405 L 105.32023335 87.67834187 L 106.15840912 86.3499136 L 106.96152401 85.0 L 107.72902584 83.62952518 L 108.46039104 82.23942947 L 109.15511703 80.83066559 L 109.81272697 79.40419769 L 110.43277168 77.96100521 L 111.01482487 76.50207615 L 111.55848885 75.02841091 L 112.06339073 73.54101944 L 112.52918339 72.04092026 L 112.95554924 70.52914238 L 113.34219456 69.0067215 L 113.68885517 67.47470093 L 113.99529362 65.93413067 L 114.26130009 64.38606739 L 114.48669147 62.83157063 L 114.67131329 61.27170753 L 114.81503963 59.70754528 L 114.91777134 58.14015675 L 114.97943878 56.57061672 L 115.0 55.0 L 114.97943878 53.42938232 L 114.91777134 51.8598423 L 114.81503963 50.29245377 L 114.67131329 48.72829151 L 114.48669147 47.16842842 L 114.26130009 45.61393166 L 113.99529362 44.06586838 L 113.68885517 42.52529812 L 113.34219456 40.99327755 L 112.95554924 39.47085667 L 112.52918339 37.95907879 L 112.06339073 36.45897961 L 111.55848885 34.97158813 L 111.01482487 33.4979229 L 110.43277168 32.03899384 L 109.81272697 30.59580135 L 109.15511703 29.16933346 L 108.46039104 27.76056957 L 107.72902584 26.37047386 L 106.96152401 24.99999905 L 106.15840912 23.65008545 L 105.32023335 22.32165718 L 104.4475708 21.015625 L 103.54101944 19.73288441 L 102.6012001 18.47431374 L 101.62875748 17.24077606 L 100.62435722 16.03311634 L 99.58868885 14.85216331 L 98.52246189 13.69872475 L 97.42640686 12.57359219 L 96.3012743 11.47753716 L 95.14783573 10.4113102 L 93.96688271 9.37564182 L 92.75922298 8.37124157 L 91.52568531 7.39879894 L 90.26711464 6.45897961 L 88.98437405 5.55242825 L 87.67834187 4.6797657 L 86.3499136 3.84158993 L 84.99999905 3.03847504 L 83.62952518 2.27097321 L 82.23942947 1.539608 L 80.83066559 0.84488201 L 79.40419769 0.18727207 L 78.9683094 0.0 L 200.0 0.0 Z M 120.0 100.0 L 120.0 160.0 L 180.0 160.0 L 180.0 100.0 Z M 56.56918144 35.06165314 L 58.12868881 35.24623299 L 59.66890717 35.55260086 L 61.18033981 35.97886944 L 62.6536684 36.52240849 L 64.07980919 37.1798687 L 65.4499712 37.94719601 L 66.75570488 38.81965923 L 67.98896027 39.79188061 L 69.14213562 40.85786343 L 70.20811844 42.01103878 L 71.18033981 43.24429417 L 72.05280304 44.55002785 L 72.82013035 45.92018986 L 73.47759056 47.34633064 L 74.02112961 48.81965923 L 74.44739819 50.33109188 L 74.75376606 51.87131023 L 74.93834591 53.4308176 L 75.0 55.0 L 74.93834591 56.56918144 L 74.75376606 58.12868881 L 74.44739819 59.66890717 L 74.02112961 61.18033981 L 73.47759056 62.6536684 L 72.82013035 64.07980919 L 72.05280304 65.4499712 L 71.18033981 66.75570488 L 70.20811844 67.98896027 L 69.14213562 69.14213562 L 67.98896027 70.20811844 L 66.75570488 71.18033981 L 65.4499712 72.05280304 L 64.07980919 72.82013035 L 62.6536684 73.47759056 L 61.18033981 74.02112961 L 59.66890717 74.44739819 L 58.12868881 74.75376606 L 56.56918144 74.93834591 L 55.0 75.0 L 53.4308176 74.93834591 L 51.87131023 74.75376606 L 50.33109188 74.44739819 L 48.81965923 74.02112961 L 47.34633064 73.47759056 L 45.92018986 72.82013035 L 44.55002785 72.05280304 L 43.24429417 71.18033981 L 42.01103878 70.20811844 L 40.85786343 69.14213562 L 39.79188061 67.98896027 L 38.81965923 66.75570488 L 37.94719601 65.4499712 L 37.1798687 64.07980919 L 36.52240849 62.6536684 L 35.97886944 61.18033981 L 35.55260086 59.66890717 L 35.24623299 58.12868881 L 35.06165314 56.56918144 L 35.0 55.0 L 35.06165314 53.4308176 L 35.24623299 51.87131023 L 35.55260086 50.33109188 L 35.97886944 48.81965923 L 36.52240849 47.34633064 L 37.1798687 45.92018986 L 37.94719601 44.55002785 L 38.81965923 43.24429417 L 39.79188061 42.01103878 L 40.85786343 40.85786343 L 42.01103878 39.79188061 L 43.24429417 38.81965923 L 44.55002785 37.94719601 L 45.92018986 37.1798687 L 47.34633064 36.52240849 L 48.81965923 35.97886944 L 50.33109188 35.55260086 L 51.87131023 35.24623299 L 53.4308176 35.06165314 L 54.99999905 35.0 Z M 30.59580135 0.18727207 L 29.16933346 0.84488201 L 27.76056957 1.539608 L 26.37047386 2.27097321 L 24.99999905 3.03847504 L 23.65008545 3.84158993 L 22.32165718 4.6797657 L 21.015625 5.55242825 L 19.73288441 6.45897961 L 18.47431374 7.39879894 L 17.24077606 8.37124157 L 16.03311634 9.37564182 L 14.85216331 10.4113102 L 13.69872475 11.47753716 L 12.57359219 12.57359219 L 11.47753716 13.69872475 L 10.4113102 14.85216331 L 9.37564182 16.03311634 L 8.37124157 17.24077606 L 7.39879894 18.47431374 L 6.45897961 19.73288441 L 5.55242825 21.015625 L 4.6797657 22.32165718 L 3.84158993 23.65008545 L 3.03847504 25.0 L 2.27097321 26.37047386 L 1.539608 27.76056957 L 0.84488201 29.16933346 L 0.18727207 30.59580135 L 0.0 31.03168964 L 0.0 0.0 L 31.03168964 0.0 Z" fill="red"/>
</svg>
