<svg version="1.1"
     xmlns="http://www.w3.org/2000/svg"
     width="320.0"
     height="320.0">

<path d=" M 140.0 320.0 L 140.0 278.31161403656006 L 138.1317377090454 277.9905881881714 L 135.05059719085693 277.37771129608154 L 131.98655700683594 276.6843900680542 L 128.94171524047852 275.9110984802246 L 125.91815948486328 275.058367729187 L 122.91796112060547 274.12678146362305 L 119.94317722320557 273.1169786453247 L 116.99584674835205 272.0296506881714 L 114.07798862457275 270.8655433654785 L 111.1916036605835 269.6254549026489 L 108.33866882324219 268.3102340698242 L 105.52114009857178 266.9207820892334 L 102.7409496307373 265.45805263519287 L 100.00000095367432 263.9230480194092 L 97.30017280578613 262.316819190979 L 94.6433162689209 260.6404676437378 L 92.03125190734863 258.8951425552368 L 90.48319053649902 257.80108070373535 L 61.00505065917969 287.2792205810547 L 32.72077941894531 258.9949493408203 L 62.19891929626465 229.51680946350098 L 61.104857444763184 227.96874809265137 L 59.35953235626221 225.3566837310791 L 57.683180809020996 222.69982719421387 L 56.07695198059082 220.0 L 54.54194736480713 217.2590503692627 L 53.0792179107666 214.47885990142822 L 51.68976593017578 211.6613311767578 L 50.374545097351074 208.8083963394165 L 49.134456634521484 205.92201137542725 L 47.97034931182861 203.00415325164795 L 46.88302135467529 200.05682277679443 L 45.87321853637695 197.08203887939453 L 44.94163227081299 194.08184051513672 L 44.08890151977539 191.05828475952148 L 43.3156099319458 188.01344299316406 L 42.62228870391846 184.94940280914307 L 42.00941181182861 181.8682622909546 L 41.68838596343994 180.0 L 0.0 180.0 L 0.0 140.00000095367432 L 41.688385009765625 140.00000095367432 L 42.00941181182861 138.1317377090454 L 42.62228870391846 135.05059719085693 L 43.3156099319458 131.98655700683594 L 44.08890151977539 128.94171524047852 L 44.94163227081299 125.91815948486328 L 45.87321853637695 122.91796112060547 L 46.88302135467529 119.94317722320557 L 47.97034931182861 116.99584674835205 L 49.134456634521484 114.07798862457275 L 50.374545097351074 111.1916036605835 L 51.68976593017578 108.33866882324219 L 53.0792179107666 105.52114009857178 L 54.54194736480713 102.7409496307373 L 56.07695198059082 100.00000095367432 L 57.683180809020996 97.30017280578613 L 59.35953235626221 94.6433162689209 L 61.104857444763184 92.03125190734863 L 62.19891929626465 90.48319053649902 L 32.72077941894531 61.00505065917969 L 61.00505065917969 32.72077941894531 L 90.48319053649902 62.19891929626465 L 92.03125190734863 61.104857444763184 L 94.6433162689209 59.35953235626221 L 97.30017280578613 57.683180809020996 L 100.0 56.07695198059082 L 102.7409496307373 54.54194736480713 L 105.52114009857178 53.0792179107666 L 108.33866882324219 51.68976593017578 L 111.1916036605835 50.374545097351074 L 114.07798862457275 49.134456634521484 L 116.99584674835205 47.97034931182861 L 119.94317722320557 46.88302135467529 L 122.91796112060547 45.87321853637695 L 125.91815948486328 44.94163227081299 L 128.94171524047852 44.08890151977539 L 131.98655700683594 43.3156099319458 L 135.05059719085693 42.62228870391846 L 138.1317377090454 42.00941181182861 L 140.0 41.68838596343994 L 140.0 0.0 L 180.0 0.0 L 180.0 41.68838596343994 L 181.8682622909546 42.00941181182861 L 184.94940280914307 42.62228870391846 L 188.01344299316406 43.3156099319458 L 191.05828475952148 44.08890151977539 L 194.08184051513672 44.94163227081299 L 197.08203887939453 45.87321853637695 L 200.05682277679443 46.88302135467529 L 203.00415325164795 47.97034931182861 L 205.92201137542725 49.134456634521484 L 208.8083963394165 50.374545097351074 L 211.6613311767578 51.68976593017578 L 214.47885990142822 53.0792179107666 L 217.2590503692627 54.54194736480713 L 219.99999904632568 56.07695198059082 L 222.69982719421387 57.683180809020996 L 225.3566837310791 59.35953235626221 L 227.96874809265137 61.104857444763184 L 229.51680946350098 62.19891929626465 L 258.9949493408203 32.72077941894531 L 287.2792205810547 61.00505065917969 L 257.80108070373535 90.48319053649902 L 258.8951425552368 92.03125190734863 L 260.6404676437378 94.6433162689209 L 262.316819190979 97.30017280578613 L 263.9230480194092 100.0 L 265.45805263519287 102.7409496307373 L 266.9207820892334 105.52114009857178 L 268.3102340698242 108.33866882324219 L 269.6254549026489 111.1916036605835 L 270.8655433654785 114.07798862457275 L 272.0296506881714 116.99584674835205 L 273.1169786453247 119.94317722320557 L 274.12678146362305 122.91796112060547 L 275.058367729187 125.91815948486328 L 275.9110984802246 128.94171524047852 L 276.6843900680542 131.98655700683594 L 277.37771129608154 135.05059719085693 L 277.9905881881714 138.1317377090454 L 278.31161403656006 140.0 L 320.0 140.0 L 320.0 179.99999904632568 L 278.3116149902344 179.99999904632568 L 277.9905881881714 181.8682622909546 L 277.37771129608154 184.94940280914307 L 276.6843900680542 188.01344299316406 L 275.9110984802246 191.05828475952148 L 275.058367729187 194.08184051513672 L 274.12678146362305 197.08203887939453 L 273.1169786453247 200.05682277679443 L 272.0296506881714 203.00415325164795 L 270.8655433654785 205.92201137542725 L 269.6254549026489 208.8083963394165 L 268.3102340698242 211.6613311767578 L 266.9207820892334 214.47885990142822 L 265.45805263519287 217.2590503692627 L 263.9230480194092 219.99999904632568 L 262.316819190979 222.69982719421387 L 260.6404676437378 225.3566837310791 L 258.8951425552368 227.96874809265137 L 257.80108070373535 229.51680946350098 L 287.2792205810547 258.9949493408203 L 258.9949493408203 287.2792205810547 L 229.51680946350098 257.80108070373535 L 227.96874809265137 258.8951425552368 L 225.3566837310791 260.6404676437378 L 222.69982719421387 262.316819190979 L 220.0 263.9230480194092 L 217.2590503692627 265.45805263519287 L 214.47885990142822 266.9207820892334 L 211.6613311767578 268.3102340698242 L 208.8083963394165 269.6254549026489 L 205.92201137542725 270.8655433654785 L 203.00415325164795 272.0296506881714 L 200.05682277679443 273.1169786453247 L 197.08203887939453 274.12678146362305 L 194.08184051513672 275.058367729187 L 191.05828475952148 275.9110984802246 L 188.01344299316406 276.6843900680542 L 184.94940280914307 277.37771129608154 L 181.8682622909546 277.9905881881714 L 180.0 278.31161403656006 L 180.0 320.0 Z M 160.0 240.0 L 163.14078521728516 239.93832206726074 L 166.27672672271729 239.75338649749756 L 169.40299129486084 239.44547653198242 L 172.51475715637207 239.0150671005249 L 175.60722541809082 238.46282196044922 L 178.67562866210938 237.78959274291992 L 181.71523571014404 236.99641799926758 L 184.7213592529297 236.08452129364014 L 187.68936443328857 235.05530643463135 L 190.61467456817627 233.91036224365234 L 193.49277877807617 232.65145301818848 L 196.31923961639404 231.28052139282227 L 199.0896987915039 229.79967975616455 L 201.79988479614258 228.21121311187744 L 204.44561862945557 226.51756858825684 L 207.02281951904297 224.7213592529297 L 209.52751541137695 222.82535362243652 L 211.95584297180176 220.83247661590576 L 214.3040590286255 218.74580001831055 L 216.56854248046875 216.56854248046875 L 218.74580001831055 214.3040590286255 L 220.83247661590576 211.95584297180176 L 222.82535362243652 209.52751541137695 L 224.7213592529297 207.02281951904297 L 226.51756858825684 204.44561862945557 L 228.21121311187744 201.79988479614258 L 229.79967975616455 199.0896987915039 L 231.28052139282227 196.31923961639404 L 232.65145301818848 193.49277877807617 L 233.91036224365234 190.61467456817627 L 235.05530643463135 187.68936443328857 L 236.08452129364014 184.7213592529297 L 236.99641799926758 181.71523571014404 L 237.78959274291992 178.67562866210938 L 238.46282196044922 175.60722541809082 L 239.0150671005249 172.51475715637207 L 239.44547653198242 169.40299129486084 L 239.75338649749756 166.27672672271729 L 239.93832206726074 163.14078521728516 L 240.0 160.0 L 239.93832206726074 156.85921478271484 L 239.75338649749756 153.72327327728271 L 239.44547653198242 150.59700870513916 L 239.0150671005249 147.48524284362793 L 238.46282196044922 144.39277458190918 L 237.78959274291992 141.32437133789062 L 236.99641799926758 138.28476428985596 L 236.08452129364014 135.2786407470703 L 235.05530643463135 132.31063556671143 L 233.91036224365234 129.38532543182373 L 232.65145301818848 126.50722122192383 L 231.28052139282227 123.68076038360596 L 229.79967975616455 120.9103012084961 L 228.21121311187744 118.20011520385742 L 226.51756858825684 115.55438137054443 L 224.7213592529297 112.97718048095703 L 222.82535362243652 110.47248458862305 L 220.83247661590576 108.04415702819824 L 218.74580001831055 105.69594097137451 L 216.56854248046875 103.43145751953125 L 214.3040590286255 101.25419998168945 L 211.95584297180176 99.16752338409424 L 209.52751541137695 97.17464637756348 L 207.02281951904297 95.27864074707031 L 204.44561862945557 93.48243141174316 L 201.79988479614258 91.78878688812256 L 199.0896987915039 90.20032024383545 L 196.31923961639404 88.71947860717773 L 193.49277877807617 87.34854698181152 L 190.61467456817627 86.08963775634766 L 187.68936443328857 84.94469356536865 L 184.7213592529297 83.91547870635986 L 181.71523571014404 83.00358200073242 L 178.67562866210938 82.21040725708008 L 175.60722541809082 81.53717803955078 L 172.51475715637207 80.9849328994751 L 169.40299129486084 80.55452346801758 L 166.27672672271729 80.24661350250244 L 163.14078521728516 80.06167793273926 L 160.0 80.0 L 156.85921478271484 80.06167793273926 L 153.72327327728271 80.24661350250244 L 150.59700870513916 80.55452346801758 L 147.48524284362793 80.9849328994751 L 144.39277458190918 81.53717803955078 L 141.32437133789062 82.21040725708008 L 138.28476428985596 83.00358200073242 L 135.2786407470703 83.91547870635986 L 132.31063556671143 84.94469356536865 L 129.38532543182373 86.08963775634766 L 126.50722122192383 87.34854698181152 L 123.68076038360596 88.71947860717773 L 120.9103012084961 90.20032024383545 L 118.20011520385742 91.78878688812256 L 115.55438137054443 93.48243141174316 L 112.97718048095703 95.27864074707031 L 110.47248458862305 97.17464637756348 L 108.04415702819824 99.16752338409424 L 105.69594097137451 101.25419998168945 L 103.43145751953125 103.43145751953125 L 101.25419998168945 105.69594097137451 L 99.16752338409424 108.04415702819824 L 97.17464637756348 110.47248458862305 L 95.27864074707031 112.97718048095703 L 93.48243141174316 115.55438137054443 L 91.78878688812256 118.20011520385742 L 90.20032024383545 120.9103012084961 L 88.71947860717773 123.68076038360596 L 87.34854698181152 126.50722122192383 L 86.08963775634766 129.38532543182373 L 84.94469356536865 132.31063556671143 L 83.91547870635986 135.2786407470703 L 83.00358200073242 138.28476428985596 L 82.21040725708008 141.32437133789062 L 81.53717803955078 144.39277458190918 L 80.9849328994751 147.48524284362793 L 80.55452346801758 150.59700870513916 L 80.24661350250244 153.72327327728271 L 80.06167793273926 156.85921478271484 L 80.0 160.0 L 80.06167793273926 163.14078521728516 L 80.24661350250244 166.27672672271729 L 80.55452346801758 169.40299129486084 L 80.9849328994751 172.51475715637207 L 81.53717803955078 175.60722541809082 L 82.21040725708008 178.67562866210938 L 83.00358200073242 181.71523571014404 L 83.91547870635986 184.7213592529297 L 84.94469356536865 187.68936443328857 L 86.08963775634766 190.61467456817627 L 87.34854698181152 193.49277877807617 L 88.71947860717773 196.31923961639404 L 90.20032024383545 199.0896987915039 L 91.78878688812256 201.79988479614258 L 93.48243141174316 204.44561862945557 L 95.27864074707031 207.02281951904297 L 97.17464637756348 209.52751541137695 L 99.16752338409424 211.95584297180176 L 101.25419998168945 214.3040590286255 L 103.43145751953125 216.56854248046875 L 105.69594097137451 218.74580001831055 L 108.04415702819824 220.83247661590576 L 110.47248458862305 222.82535362243652 L 112.97718048095703 224.7213592529297 L 115.55438137054443 226.51756858825684 L 118.20011520385742 228.21121311187744 L 120.9103012084961 229.79967975616455 L 123.68076038360596 231.28052139282227 L 126.50722122192383 232.65145301818848 L 129.38532543182373 233.91036224365234 L 132.31063556671143 235.05530643463135 L 135.2786407470703 236.08452129364014 L 138.28476428985596 236.99641799926758 L 141.32437133789062 237.78959274291992 L 144.39277458190918 238.46282196044922 L 147.48524284362793 239.0150671005249 L 150.59700870513916 239.44547653198242 L 153.72327327728271 239.75338649749756 L 156.85921478271484 239.93832206726074 Z M 160.0 200.0 L 100.0 140.0 L 220.0 140.0 Z"/>
<path d="M 20 0 L 20 320 Z" stroke="orange" opacity="0.6"/>
<path d="M 0 20 L 320 20 Z" stroke="orange" opacity="0.6"/>
<path d="M 40 0 L 40 320 Z" stroke="orange" opacity="0.6"/>
<path d="M 0 40 L 320 40 Z" stroke="orange" opacity="0.6"/>
<path d="M 60 0 L 60 320 Z" stroke="orange" opacity="0.6"/>
<path d="M 0 60 L 320 60 Z" stroke="orange" opacity="0.6"/>
<path d="M 80 0 L 80 320 Z" stroke="orange" opacity="0.6"/>
<path d="M 0 80 L 320 80 Z" stroke="orange" opacity="0.6"/>
<path d="M 100 0 L 100 320 Z" stroke="orange" opacity="0.6"/>
<path d="M 0 100 L 320 100 Z" stroke="orange" opacity="0.6"/>
<path d="M 120 0 L 120 320 Z" stroke="orange" opacity="0.6"/>
<path d="M 0 120 L 320 120 Z" stroke="orange" opacity="0.6"/>
<path d="M 140 0 L 140 320 Z" stroke="orange" opacity="0.6"/>
<path d="M 0 140 L 320 140 Z" stroke="orange" opacity="0.6"/>
<path d="M 160 0 L 160 320 Z" stroke="orange" opacity="0.6"/>
<path d="M 0 160 L 320 160 Z" stroke="orange" opacity="0.6"/>
<path d="M 180 0 L 180 320 Z" stroke="orange" opacity="0.6"/>
<path d="M 0 180 L 320 180 Z" stroke="orange" opacity="0.6"/>
<path d="M 200 0 L 200 320 Z" stroke="orange" opacity="0.6"/>
<path d="M 0 200 L 320 200 Z" stroke="orange" opacity="0.6"/>
<path d="M 220 0 L 220 320 Z" stroke="orange" opacity="0.6"/>
<path d="M 0 220 L 320 220 Z" stroke="orange" opacity="0.6"/>
<path d="M 240 0 L 240 320 Z" stroke="orange" opacity="0.6"/>
<path d="M 0 240 L 320 240 Z" stroke="orange" opacity="0.6"/>
<path d="M 260 0 L 260 320 Z" stroke="orange" opacity="0.6"/>
<path d="M 0 260 L 320 260 Z" stroke="orange" opacity="0.6"/>
<path d="M 280 0 L 280 320 Z" stroke="orange" opacity="0.6"/>
<path d="M 0 280 L 320 280 Z" stroke="orange" opacity="0.6"/>
<path d="M 300 0 L 300 320 Z" stroke="orange" opacity="0.6"/>
<path d="M 0 300 L 320 300 Z" stroke="orange" opacity="0.6"/>
</svg>
