<svg version="1.1"
     xmlns="http://www.w3.org/2000/svg"
     width="320.0"
     height="320.0">

<path d=" M 140.0 320.0 L 140.0 278.31987857818604 L 139.6780595779419 278.26672649383545 L 138.1317377090454 277.9905881881714 L 136.58916187286377 277.6942329406738 L 135.05059719085693 277.37771129608154 L 133.51630783081055 277.04107761383057 L 131.98655700683594 276.6843900680542 L 130.46160507202148 276.3077087402344 L 128.94171524047852 275.9110984802246 L 127.4271469116211 275.4946279525757 L 125.91815948486328 275.058367729187 L 124.41501140594482 274.6023931503296 L 122.91796112060547 274.12678146362305 L 121.42726421356201 273.6316146850586 L 119.94317722320557 273.1169786453247 L 118.4659538269043 272.5829601287842 L 116.99584674835205 272.0296506881714 L 115.53310775756836 271.45714569091797 L 114.07798862457275 270.8655433654785 L 112.6307373046875 270.25494480133057 L 111.1916036605835 269.6254549026489 L 109.76083183288574 268.97718048095703 L 108.33866882324219 268.3102340698242 L 106.92535781860352 267.6247282028198 L 105.52114009857178 266.9207820892334 L 104.12625789642334 266.1985158920288 L 102.7409496307373 265.45805263519287 L 101.36545181274414 264.699520111084 L 100.00000095367432 263.9230480194092 L 98.64482975006104 263.12876892089844 L 97.30017280578613 262.316819190979 L 95.96625900268555 261.4873380661011 L 94.6433162689209 260.6404676437378 L 93.33157253265381 259.77635288238525 L 92.03125190734863 258.8951425552368 L 90.74257755279541 257.99698638916016 L 90.47734642028809 257.8069248199463 L 61.00505065917969 287.2792205810547 L 32.72077941894531 258.9949493408203 L 62.19307518005371 229.5226535797119 L 62.003013610839844 229.2574224472046 L 61.104857444763184 227.96874809265137 L 60.223647117614746 226.6684274673462 L 59.35953235626221 225.3566837310791 L 58.512661933898926 224.03374099731445 L 57.683180809020996 222.69982719421387 L 56.87123107910156 221.35517024993896 L 56.07695198059082 220.0 L 55.300479888916016 218.63454818725586 L 54.54194736480713 217.2590503692627 L 53.80148410797119 215.87374210357666 L 53.0792179107666 214.47885990142822 L 52.375271797180176 213.07464218139648 L 51.68976593017578 211.6613311767578 L 51.02281951904297 210.23916816711426 L 50.374545097351074 208.8083963394165 L 49.745055198669434 207.3692626953125 L 49.134456634521484 205.92201137542725 L 48.54285430908203 204.46689224243164 L 47.97034931182861 203.00415325164795 L 47.41703987121582 201.5340461730957 L 46.88302135467529 200.05682277679443 L 46.368385314941406 198.572735786438 L 45.87321853637695 197.08203887939453 L 45.39760684967041 195.58498859405518 L 44.94163227081299 194.08184051513672 L 44.505372047424316 192.5728530883789 L 44.08890151977539 191.05828475952148 L 43.692291259765625 189.53839492797852 L 43.3156099319458 188.01344299316406 L 42.958922386169434 186.48369216918945 L 42.62228870391846 184.94940280914307 L 42.30576705932617 183.41083812713623 L 42.00941181182861 181.8682622909546 L 41.73327350616455 180.3219404220581 L 41.680121421813965 180.0 L 0.0 180.0 L 0.0 140.00000095367432 L 41.68012046813965 140.00000095367432 L 41.73327350616455 139.6780595779419 L 42.00941181182861 138.1317377090454 L 42.30576705932617 136.58916187286377 L 42.62228870391846 135.05059719085693 L 42.958922386169434 133.51630783081055 L 43.3156099319458 131.98655700683594 L 43.692291259765625 130.46160507202148 L 44.08890151977539 128.94171524047852 L 44.505372047424316 127.4271469116211 L 44.94163227081299 125.91815948486328 L 45.39760684967041 124.41501140594482 L 45.87321853637695 122.91796112060547 L 46.368385314941406 121.42726421356201 L 46.88302135467529 119.94317722320557 L 47.41703987121582 118.4659538269043 L 47.97034931182861 116.99584674835205 L 48.54285430908203 115.53310775756836 L 49.134456634521484 114.07798862457275 L 49.745055198669434 112.6307373046875 L 50.374545097351074 111.1916036605835 L 51.02281951904297 109.76083183288574 L 51.68976593017578 108.33866882324219 L 52.375271797180176 106.92535781860352 L 53.0792179107666 105.52114009857178 L 53.80148410797119 104.12625789642334 L 54.54194736480713 102.7409496307373 L 55.300479888916016 101.36545181274414 L 56.07695198059082 100.00000095367432 L 56.87123107910156 98.64482975006104 L 57.683180809020996 97.30017280578613 L 58.512661933898926 95.96625900268555 L 59.35953235626221 94.6433162689209 L 60.223647117614746 93.33157253265381 L 61.104857444763184 92.03125190734863 L 62.003013610839844 90.74257755279541 L 62.19307518005371 90.47734642028809 L 32.72077941894531 61.00505065917969 L 61.00505065917969 32.72077941894531 L 90.47734642028809 62.19307518005371 L 90.74257755279541 62.003013610839844 L 92.03125190734863 61.104857444763184 L 93.33157253265381 60.223647117614746 L 94.6433162689209 59.35953235626221 L 95.96625900268555 58.512661933898926 L 97.30017280578613 57.683180809020996 L 98.64482975006104 56.87123107910156 L 100.0 56.07695198059082 L 101.36545181274414 55.300479888916016 L 102.7409496307373 54.54194736480713 L 104.12625789642334 53.80148410797119 L 105.52114009857178 53.0792179107666 L 106.92535781860352 52.375271797180176 L 108.33866882324219 51.68976593017578 L 109.76083183288574 51.02281951904297 L 111.1916036605835 50.374545097351074 L 112.6307373046875 49.745055198669434 L 114.07798862457275 49.134456634521484 L 115.53310775756836 48.54285430908203 L 116.99584674835205 47.97034931182861 L 118.4659538269043 47.41703987121582 L 119.94317722320557 46.88302135467529 L 121.42726421356201 46.368385314941406 L 122.91796112060547 45.87321853637695 L 124.41501140594482 45.39760684967041 L 125.91815948486328 44.94163227081299 L 127.4271469116211 44.505372047424316 L 128.94171524047852 44.08890151977539 L 130.46160507202148 43.692291259765625 L 131.98655700683594 43.3156099319458 L 133.51630783081055 42.958922386169434 L 135.05059719085693 42.62228870391846 L 136.58916187286377 42.30576705932617 L 138.1317377090454 42.00941181182861 L 139.6780595779419 41.73327350616455 L 140.0 41.680121421813965 L 140.0 0.0 L 180.0 0.0 L 180.0 41.680121421813965 L 180.3219404220581 41.73327350616455 L 181.8682622909546 42.00941181182861 L 183.41083812713623 42.30576705932617 L 184.94940280914307 42.62228870391846 L 186.48369216918945 42.958922386169434 L 188.01344299316406 43.3156099319458 L 189.53839492797852 43.692291259765625 L 191.05828475952148 44.08890151977539 L 192.5728530883789 44.505372047424316 L 194.08184051513672 44.94163227081299 L 195.58498859405518 45.39760684967041 L 197.08203887939453 45.87321853637695 L 198.572735786438 46.368385314941406 L 200.05682277679443 46.88302135467529 L 201.5340461730957 47.41703987121582 L 203.00415325164795 47.97034931182861 L 204.46689224243164 48.54285430908203 L 205.92201137542725 49.134456634521484 L 207.3692626953125 49.745055198669434 L 208.8083963394165 50.374545097351074 L 210.23916816711426 51.02281951904297 L 211.6613311767578 51.68976593017578 L 213.07464218139648 52.375271797180176 L 214.47885990142822 53.0792179107666 L 215.87374210357666 53.80148410797119 L 217.2590503692627 54.54194736480713 L 218.63454818725586 55.300479888916016 L 219.99999904632568 56.07695198059082 L 221.35517024993896 56.87123107910156 L 222.69982719421387 57.683180809020996 L 224.03374099731445 58.512661933898926 L 225.3566837310791 59.35953235626221 L 226.6684274673462 60.223647117614746 L 227.96874809265137 61.104857444763184 L 229.2574224472046 62.003013610839844 L 229.5226535797119 62.19307518005371 L 258.9949493408203 32.72077941894531 L 287.2792205810547 61.00505065917969 L 257.8069248199463 90.47734642028809 L 257.99698638916016 90.74257755279541 L 258.8951425552368 92.03125190734863 L 259.77635288238525 93.33157253265381 L 260.6404676437378 94.6433162689209 L 261.4873380661011 95.96625900268555 L 262.316819190979 97.30017280578613 L 263.12876892089844 98.64482975006104 L 263.9230480194092 100.0 L 264.699520111084 101.36545181274414 L 265.45805263519287 102.7409496307373 L 266.1985158920288 104.12625789642334 L 266.9207820892334 105.52114009857178 L 267.6247282028198 106.92535781860352 L 268.3102340698242 108.33866882324219 L 268.97718048095703 109.76083183288574 L 269.6254549026489 111.1916036605835 L 270.25494480133057 112.6307373046875 L 270.8655433654785 114.07798862457275 L 271.45714569091797 115.53310775756836 L 272.0296506881714 116.99584674835205 L 272.5829601287842 118.4659538269043 L 273.1169786453247 119.94317722320557 L 273.6316146850586 121.42726421356201 L 274.12678146362305 122.91796112060547 L 274.6023931503296 124.41501140594482 L 275.058367729187 125.91815948486328 L 275.4946279525757 127.4271469116211 L 275.9110984802246 128.94171524047852 L 276.3077087402344 130.46160507202148 L 276.6843900680542 131.98655700683594 L 277.04107761383057 133.51630783081055 L 277.37771129608154 135.05059719085693 L 277.6942329406738 136.58916187286377 L 277.9905881881714 138.1317377090454 L 278.26672649383545 139.6780595779419 L 278.31987857818604 140.0 L 320.0 140.0 L 320.0 179.99999904632568 L 278.31987953186035 179.99999904632568 L 278.26672649383545 180.3219404220581 L 277.9905881881714 181.8682622909546 L 277.6942329406738 183.41083812713623 L 277.37771129608154 184.94940280914307 L 277.04107761383057 186.48369216918945 L 276.6843900680542 188.01344299316406 L 276.3077087402344 189.53839492797852 L 275.9110984802246 191.05828475952148 L 275.4946279525757 192.5728530883789 L 275.058367729187 194.08184051513672 L 274.6023931503296 195.58498859405518 L 274.12678146362305 197.08203887939453 L 273.6316146850586 198.572735786438 L 273.1169786453247 200.05682277679443 L 272.5829601287842 201.5340461730957 L 272.0296506881714 203.00415325164795 L 271.45714569091797 204.46689224243164 L 270.8655433654785 205.92201137542725 L 270.25494480133057 207.3692626953125 L 269.6254549026489 208.8083963394165 L 268.97718048095703 210.23916816711426 L 268.3102340698242 211.6613311767578 L 267.6247282028198 213.07464218139648 L 266.9207820892334 214.47885990142822 L 266.1985158920288 215.87374210357666 L 265.45805263519287 217.2590503692627 L 264.699520111084 218.63454818725586 L 263.9230480194092 219.99999904632568 L 263.12876892089844 221.35517024993896 L 262.316819190979 222.69982719421387 L 261.4873380661011 224.03374099731445 L 260.6404676437378 225.3566837310791 L 259.77635288238525 226.6684274673462 L 258.8951425552368 227.96874809265137 L 257.99698638916016 229.2574224472046 L 257.8069248199463 229.5226535797119 L 287.2792205810547 258.9949493408203 L 258.9949493408203 287.2792205810547 L 229.5226535797119 257.8069248199463 L 229.2574224472046 257.99698638916016 L 227.96874809265137 258.8951425552368 L 226.6684274673462 259.77635288238525 L 225.3566837310791 260.6404676437378 L 224.03374099731445 261.4873380661011 L 222.69982719421387 262.316819190979 L 221.35517024993896 263.12876892089844 L 220.0 263.9230480194092 L 218.63454818725586 264.699520111084 L 217.2590503692627 265.45805263519287 L 215.87374210357666 266.1985158920288 L 214.47885990142822 266.9207820892334 L 213.07464218139648 267.6247282028198 L 211.6613311767578 268.3102340698242 L 210.23916816711426 268.97718048095703 L 208.8083963394165 269.6254549026489 L 207.3692626953125 270.25494480133057 L 205.92201137542725 270.8655433654785 L 204.46689224243164 271.45714569091797 L 203.00415325164795 272.0296506881714 L 201.5340461730957 272.5829601287842 L 200.05682277679443 273.1169786453247 L 198.572735786438 273.6316146850586 L 197.08203887939453 274.12678146362305 L 195.58498859405518 274.6023931503296 L 194.08184051513672 275.058367729187 L 192.5728530883789 275.4946279525757 L 191.05828475952148 275.9110984802246 L 189.53839492797852 276.3077087402344 L 188.01344299316406 276.6843900680542 L 186.48369216918945 277.04107761383057 L 184.94940280914307 277.37771129608154 L 183.41083812713623 277.6942329406738 L 181.8682622909546 277.9905881881714 L 180.3219404220581 278.26672649383545 L 180.0 278.31987857818604 L 180.0 320.0 Z M 160.0 240.0 L 161.57069492340088 239.9845790863037 L 163.14078521728516 239.93832206726074 L 164.70966339111328 239.86124801635742 L 166.27672672271729 239.75338649749756 L 167.84137058258057 239.61477756500244 L 169.40299129486084 239.44547653198242 L 170.96098709106445 239.24554634094238 L 172.51475715637207 239.0150671005249 L 174.06370162963867 238.75412464141846 L 175.60722541809082 238.46282196044922 L 177.14473152160645 238.1412696838379 L 178.67562866210938 237.78959274291992 L 180.19932556152344 237.40792655944824 L 181.71523571014404 236.99641799926758 L 183.22277355194092 236.55522632598877 L 184.7213592529297 236.08452129364014 L 186.2104139328003 235.58448314666748 L 187.68936443328857 235.05530643463135 L 189.157639503479 234.49719429016113 L 190.61467456817627 233.91036224365234 L 192.05990600585938 233.29503631591797 L 193.49277877807617 232.65145301818848 L 194.91273880004883 231.97986221313477 L 196.31923961639404 231.28052139282227 L 197.71173858642578 230.55370044708252 L 199.0896987915039 229.79967975616455 L 200.45258903503418 229.01875019073486 L 201.79988479614258 228.21121311187744 L 203.13106536865234 227.37737846374512 L 204.44561862945557 226.51756858825684 L 205.7430362701416 225.6321153640747 L 207.02281951904297 224.7213592529297 L 208.2844753265381 223.78565216064453 L 209.52751541137695 222.82535362243652 L 210.75146198272705 221.84083557128906 L 211.95584297180176 220.83247661590576 L 213.1401948928833 219.80066585540771 L 214.3040590286255 218.74580001831055 L 215.44698810577393 217.66828727722168 L 216.56854248046875 216.56854248046875 L 217.66828727722168 215.44698810577393 L 218.74580001831055 214.3040590286255 L 219.80066585540771 213.1401948928833 L 220.83247661590576 211.95584297180176 L 221.84083557128906 210.75146198272705 L 222.82535362243652 209.52751541137695 L 223.78565216064453 208.2844753265381 L 224.7213592529297 207.02281951904297 L 225.6321153640747 205.7430362701416 L 226.51756858825684 204.44561862945557 L 227.37737846374512 203.13106536865234 L 228.21121311187744 201.79988479614258 L 229.01875019073486 200.45258903503418 L 229.79967975616455 199.0896987915039 L 230.55370044708252 197.71173858642578 L 231.28052139282227 196.31923961639404 L 231.97986221313477 194.91273880004883 L 232.65145301818848 193.49277877807617 L 233.29503631591797 192.05990600585938 L 233.91036224365234 190.61467456817627 L 234.49719429016113 189.157639503479 L 235.05530643463135 187.68936443328857 L 235.58448314666748 186.2104139328003 L 236.08452129364014 184.7213592529297 L 236.55522632598877 183.22277355194092 L 236.99641799926758 181.71523571014404 L 237.40792655944824 180.19932556152344 L 237.78959274291992 178.67562866210938 L 238.1412696838379 177.14473152160645 L 238.46282196044922 175.60722541809082 L 238.75412464141846 174.06370162963867 L 239.0150671005249 172.51475715637207 L 239.24554634094238 170.96098709106445 L 239.44547653198242 169.40299129486084 L 239.61477756500244 167.84137058258057 L 239.75338649749756 166.27672672271729 L 239.86124801635742 164.70966339111328 L 239.93832206726074 163.14078521728516 L 239.9845790863037 161.57069492340088 L 240.0 160.0 L 239.9845790863037 158.42930507659912 L 239.93832206726074 156.85921478271484 L 239.86124801635742 155.29033660888672 L 239.75338649749756 153.72327327728271 L 239.61477756500244 152.15862941741943 L 239.44547653198242 150.59700870513916 L 239.24554634094238 149.03901290893555 L 239.0150671005249 147.48524284362793 L 238.75412464141846 145.93629837036133 L 238.46282196044922 144.39277458190918 L 238.1412696838379 142.85526847839355 L 237.78959274291992 141.32437133789062 L 237.40792655944824 139.80067443847656 L 236.99641799926758 138.28476428985596 L 236.55522632598877 136.77722644805908 L 236.08452129364014 135.2786407470703 L 235.58448314666748 133.7895860671997 L 235.05530643463135 132.31063556671143 L 234.49719429016113 130.842360496521 L 233.91036224365234 129.38532543182373 L 233.29503631591797 127.94009399414062 L 232.65145301818848 126.50722122192383 L 231.97986221313477 125.08726119995117 L 231.28052139282227 123.68076038360596 L 230.55370044708252 122.28826141357422 L 229.79967975616455 120.9103012084961 L 229.01875019073486 119.54741096496582 L 228.21121311187744 118.20011520385742 L 227.37737846374512 116.86893463134766 L 226.51756858825684 115.55438137054443 L 225.6321153640747 114.2569637298584 L 224.7213592529297 112.97718048095703 L 223.78565216064453 111.71552467346191 L 222.82535362243652 110.47248458862305 L 221.84083557128906 109.24853801727295 L 220.83247661590576 108.04415702819824 L 219.80066585540771 106.8598051071167 L 218.74580001831055 105.69594097137451 L 217.66828727722168 104.55301189422607 L 216.56854248046875 103.43145751953125 L 215.44698810577393 102.33171272277832 L 214.3040590286255 101.25419998168945 L 213.1401948928833 100.19933414459229 L 211.95584297180176 99.16752338409424 L 210.75146198272705 98.15916442871094 L 209.52751541137695 97.17464637756348 L 208.2844753265381 96.21434783935547 L 207.02281951904297 95.27864074707031 L 205.7430362701416 94.3678846359253 L 204.44561862945557 93.48243141174316 L 203.13106536865234 92.62262153625488 L 201.79988479614258 91.78878688812256 L 200.45258903503418 90.98124980926514 L 199.0896987915039 90.20032024383545 L 197.71173858642578 89.44629955291748 L 196.31923961639404 88.71947860717773 L 194.91273880004883 88.02013778686523 L 193.49277877807617 87.34854698181152 L 192.05990600585938 86.70496368408203 L 190.61467456817627 86.08963775634766 L 189.157639503479 85.50280570983887 L 187.68936443328857 84.94469356536865 L 186.2104139328003 84.41551685333252 L 184.7213592529297 83.91547870635986 L 183.22277355194092 83.44477367401123 L 181.71523571014404 83.00358200073242 L 180.19932556152344 82.59207344055176 L 178.67562866210938 82.21040725708008 L 177.14473152160645 81.85873031616211 L 175.60722541809082 81.53717803955078 L 174.06370162963867 81.24587535858154 L 172.51475715637207 80.9849328994751 L 170.96098709106445 80.75445365905762 L 169.40299129486084 80.55452346801758 L 167.84137058258057 80.38522243499756 L 166.27672672271729 80.24661350250244 L 164.70966339111328 80.13875198364258 L 163.14078521728516 80.06167793273926 L 161.57069492340088 80.01542091369629 L 160.0 80.0 L 158.42930507659912 80.01542091369629 L 156.85921478271484 80.06167793273926 L 155.29033660888672 80.13875198364258 L 153.72327327728271 80.24661350250244 L 152.15862941741943 80.38522243499756 L 150.59700870513916 80.55452346801758 L 149.03901290893555 80.75445365905762 L 147.48524284362793 80.9849328994751 L 145.93629837036133 81.24587535858154 L 144.39277458190918 81.53717803955078 L 142.85526847839355 81.85873031616211 L 141.32437133789062 82.21040725708008 L 139.80067443847656 82.59207344055176 L 138.28476428985596 83.00358200073242 L 136.77722644805908 83.44477367401123 L 135.2786407470703 83.91547870635986 L 133.7895860671997 84.41551685333252 L 132.31063556671143 84.94469356536865 L 130.842360496521 85.50280570983887 L 129.38532543182373 86.08963775634766 L 127.94009399414062 86.70496368408203 L 126.50722122192383 87.34854698181152 L 125.08726119995117 88.02013778686523 L 123.68076038360596 88.71947860717773 L 122.28826141357422 89.44629955291748 L 120.9103012084961 90.20032024383545 L 119.54741096496582 90.98124980926514 L 118.20011520385742 91.78878688812256 L 116.86893463134766 92.62262153625488 L 115.55438137054443 93.48243141174316 L 114.2569637298584 94.3678846359253 L 112.97718048095703 95.27864074707031 L 111.71552467346191 96.21434783935547 L 110.47248458862305 97.17464637756348 L 109.24853801727295 98.15916442871094 L 108.04415702819824 99.16752338409424 L 106.8598051071167 100.19933414459229 L 105.69594097137451 101.25419998168945 L 104.55301189422607 102.33171272277832 L 103.43145751953125 103.43145751953125 L 102.33171272277832 104.55301189422607 L 101.25419998168945 105.69594097137451 L 100.19933414459229 106.8598051071167 L 99.16752338409424 108.04415702819824 L 98.15916442871094 109.24853801727295 L 97.17464637756348 110.47248458862305 L 96.21434783935547 111.71552467346191 L 95.27864074707031 112.97718048095703 L 94.3678846359253 114.2569637298584 L 93.48243141174316 115.55438137054443 L 92.62262153625488 116.86893463134766 L 91.78878688812256 118.20011520385742 L 90.98124980926514 119.54741096496582 L 90.20032024383545 120.9103012084961 L 89.44629955291748 122.28826141357422 L 88.71947860717773 123.68076038360596 L 88.02013778686523 125.08726119995117 L 87.34854698181152 126.50722122192383 L 86.70496368408203 127.94009399414062 L 86.08963775634766 129.38532543182373 L 85.50280570983887 130.842360496521 L 84.94469356536865 132.31063556671143 L 84.41551685333252 133.7895860671997 L 83.91547870635986 135.2786407470703 L 83.44477367401123 136.77722644805908 L 83.00358200073242 138.28476428985596 L 82.59207344055176 139.80067443847656 L 82.21040725708008 141.32437133789062 L 81.85873031616211 142.85526847839355 L 81.53717803955078 144.39277458190918 L 81.24587535858154 145.93629837036133 L 80.9849328994751 147.48524284362793 L 80.75445365905762 149.03901290893555 L 80.55452346801758 150.59700870513916 L 80.38522243499756 152.15862941741943 L 80.24661350250244 153.72327327728271 L 80.13875198364258 155.29033660888672 L 80.06167793273926 156.85921478271484 L 80.01542091369629 158.42930507659912 L 80.0 160.0 L 80.01542091369629 161.57069492340088 L 80.06167793273926 163.14078521728516 L 80.13875198364258 164.70966339111328 L 80.24661350250244 166.27672672271729 L 80.38522243499756 167.84137058258057 L 80.55452346801758 169.40299129486084 L 80.75445365905762 170.96098709106445 L 80.9849328994751 172.51475715637207 L 81.24587535858154 174.06370162963867 L 81.53717803955078 175.60722541809082 L 81.85873031616211 177.14473152160645 L 82.21040725708008 178.67562866210938 L 82.59207344055176 180.19932556152344 L 83.00358200073242 181.71523571014404 L 83.44477367401123 183.22277355194092 L 83.91547870635986 184.7213592529297 L 84.41551685333252 186.2104139328003 L 84.94469356536865 187.68936443328857 L 85.50280570983887 189.157639503479 L 86.08963775634766 190.61467456817627 L 86.70496368408203 192.05990600585938 L 87.34854698181152 193.49277877807617 L 88.02013778686523 194.91273880004883 L 88.71947860717773 196.31923961639404 L 89.44629955291748 197.71173858642578 L 90.20032024383545 199.0896987915039 L 90.98124980926514 200.45258903503418 L 91.78878688812256 201.79988479614258 L 92.62262153625488 203.13106536865234 L 93.48243141174316 204.44561862945557 L 94.3678846359253 205.7430362701416 L 95.27864074707031 207.02281951904297 L 96.21434783935547 208.2844753265381 L 97.17464637756348 209.52751541137695 L 98.15916442871094 210.75146198272705 L 99.16752338409424 211.95584297180176 L 100.19933414459229 213.1401948928833 L 101.25419998168945 214.3040590286255 L 102.33171272277832 215.44698810577393 L 103.43145751953125 216.56854248046875 L 104.55301189422607 217.66828727722168 L 105.69594097137451 218.74580001831055 L 106.8598051071167 219.80066585540771 L 108.04415702819824 220.83247661590576 L 109.24853801727295 221.84083557128906 L 110.47248458862305 222.82535362243652 L 111.71552467346191 223.78565216064453 L 112.97718048095703 224.7213592529297 L 114.2569637298584 225.6321153640747 L 115.55438137054443 226.51756858825684 L 116.86893463134766 227.37737846374512 L 118.20011520385742 228.21121311187744 L 119.54741096496582 229.01875019073486 L 120.9103012084961 229.79967975616455 L 122.28826141357422 230.55370044708252 L 123.68076038360596 231.28052139282227 L 125.08726119995117 231.97986221313477 L 126.50722122192383 232.65145301818848 L 127.94009399414062 233.29503631591797 L 129.38532543182373 233.91036224365234 L 130.842360496521 234.49719429016113 L 132.31063556671143 235.05530643463135 L 133.7895860671997 235.58448314666748 L 135.2786407470703 236.08452129364014 L 136.77722644805908 236.55522632598877 L 138.28476428985596 236.99641799926758 L 139.80067443847656 237.40792655944824 L 141.32437133789062 237.78959274291992 L 142.85526847839355 238.1412696838379 L 144.39277458190918 238.46282196044922 L 145.93629837036133 238.75412464141846 L 147.48524284362793 239.0150671005249 L 149.03901290893555 239.24554634094238 L 150.59700870513916 239.44547653198242 L 152.15862941741943 239.61477756500244 L 153.72327327728271 239.75338649749756 L 155.29033660888672 239.86124801635742 L 156.85921478271484 239.93832206726074 L 158.42930507659912 239.9845790863037 Z M 160.0 200.0 L 100.0 140.0 L 220.0 140.0 Z"/>
<path d="M 20 0 L 20 320 Z" stroke="orange" opacity="0.6"/>
<path d="M 0 20 L 320 20 Z" stroke="orange" opacity="0.6"/>
<path d="M 40 0 L 40 320 Z" stroke="orange" opacity="0.6"/>
<path d="M 0 40 L 320 40 Z" stroke="orange" opacity="0.6"/>
<path d="M 60 0 L 60 320 Z" stroke="orange" opacity="0.6"/>
<path d="M 0 60 L 320 60 Z" stroke="orange" opacity="0.6"/>
<path d="M 80 0 L 80 320 Z" stroke="orange" opacity="0.6"/>
<path d="M 0 80 L 320 80 Z" stroke="orange" opacity="0.6"/>
<path d="M 100 0 L 100 320 Z" stroke="orange" opacity="0.6"/>
<path d="M 0 100 L 320 100 Z" stroke="orange" opacity="0.6"/>
<path d="M 120 0 L 120 320 Z" stroke="orange" opacity="0.6"/>
<path d="M 0 120 L 320 120 Z" stroke="orange" opacity="0.6"/>
<path d="M 140 0 L 140 320 Z" stroke="orange" opacity="0.6"/>
<path d="M 0 140 L 320 140 Z" stroke="orange" opacity="0.6"/>
<path d="M 160 0 L 160 320 Z" stroke="orange" opacity="0.6"/>
<path d="M 0 160 L 320 160 Z" stroke="orange" opacity="0.6"/>
<path d="M 180 0 L 180 320 Z" stroke="orange" opacity="0.6"/>
<path d="M 0 180 L 320 180 Z" stroke="orange" opacity="0.6"/>
<path d="M 200 0 L 200 320 Z" stroke="orange" opacity="0.6"/>
<path d="M 0 200 L 320 200 Z" stroke="orange" opacity="0.6"/>
<path d="M 220 0 L 220 320 Z" stroke="orange" opacity="0.6"/>
<path d="M 0 220 L 320 220 Z" stroke="orange" opacity="0.6"/>
<path d="M 240 0 L 240 320 Z" stroke="orange" opacity="0.6"/>
<path d="M 0 240 L 320 240 Z" stroke="orange" opacity="0.6"/>
<path d="M 260 0 L 260 320 Z" stroke="orange" opacity="0.6"/>
<path d="M 0 260 L 320 260 Z" stroke="orange" opacity="0.6"/>
<path d="M 280 0 L 280 320 Z" stroke="orange" opacity="0.6"/>
<path d="M 0 280 L 320 280 Z" stroke="orange" opacity="0.6"/>
<path d="M 300 0 L 300 320 Z" stroke="orange" opacity="0.6"/>
<path d="M 0 300 L 320 300 Z" stroke="orange" opacity="0.6"/>
</svg>
