
<svg version="1.1"
     xmlns="http://www.w3.org/2000/svg"
     width="320.0"
     height="320.0">
<path d=" M 140.0 320.0 L 140.0 278.31987858 L 139.67805958 278.26672649 L 138.13173771 277.99058819 L 136.58916187 277.69423294 L 135.05059719 277.3777113 L 133.51630783 277.04107761 L 131.98655701 276.68439007 L 130.46160507 276.30770874 L 128.94171524 275.91109848 L 127.42714691 275.49462795 L 125.91815948 275.05836773 L 124.41501141 274.60239315 L 122.91796112 274.12678146 L 121.42726421 273.63161469 L 119.94317722 273.11697865 L 118.46595383 272.58296013 L 116.99584675 272.02965069 L 115.53310776 271.45714569 L 114.07798862 270.86554337 L 112.6307373 270.2549448 L 111.19160366 269.6254549 L 109.76083183 268.97718048 L 108.33866882 268.31023407 L 106.92535782 267.6247282 L 105.5211401 266.92078209 L 104.1262579 266.19851589 L 102.74094963 265.45805264 L 101.36545181 264.69952011 L 100.00000095 263.92304802 L 98.64482975 263.12876892 L 97.30017281 262.31681919 L 95.966259 261.48733807 L 94.64331627 260.64046764 L 93.33157253 259.77635288 L 92.03125191 258.89514256 L 90.74257755 257.99698639 L 90.47734642 257.80692482 L 61.00505066 287.27922058 L 32.72077942 258.99494934 L 62.19307518 229.52265358 L 62.00301361 229.25742245 L 61.10485744 227.96874809 L 60.22364712 226.66842747 L 59.35953236 225.35668373 L 58.51266193 224.033741 L 57.68318081 222.69982719 L 56.87123108 221.35517025 L 56.07695198 220.0 L 55.30047989 218.63454819 L 54.54194736 217.25905037 L 53.80148411 215.8737421 L 53.07921791 214.4788599 L 52.3752718 213.07464218 L 51.68976593 211.66133118 L 51.02281952 210.23916817 L 50.3745451 208.80839634 L 49.7450552 207.3692627 L 49.13445663 205.92201138 L 48.54285431 204.46689224 L 47.97034931 203.00415325 L 47.41703987 201.53404617 L 46.88302135 200.05682278 L 46.36838531 198.57273579 L 45.87321854 197.08203888 L 45.39760685 195.58498859 L 44.94163227 194.08184052 L 44.50537205 192.57285309 L 44.08890152 191.05828476 L 43.69229126 189.53839493 L 43.31560993 188.01344299 L 42.95892239 186.48369217 L 42.6222887 184.94940281 L 42.30576706 183.41083813 L 42.00941181 181.86826229 L 41.73327351 180.32194042 L 41.68012142 180.0 L 0.0 180.0 L 0.0 140.00000095 L 41.68012047 140.00000095 L 41.73327351 139.67805958 L 42.00941181 138.13173771 L 42.30576706 136.58916187 L 42.6222887 135.05059719 L 42.95892239 133.51630783 L 43.31560993 131.98655701 L 43.69229126 130.46160507 L 44.08890152 128.94171524 L 44.50537205 127.42714691 L 44.94163227 125.91815948 L 45.39760685 124.41501141 L 45.87321854 122.91796112 L 46.36838531 121.42726421 L 46.88302135 119.94317722 L 47.41703987 118.46595383 L 47.97034931 116.99584675 L 48.54285431 115.53310776 L 49.13445663 114.07798862 L 49.7450552 112.6307373 L 50.3745451 111.19160366 L 51.02281952 109.76083183 L 51.68976593 108.33866882 L 52.3752718 106.92535782 L 53.07921791 105.5211401 L 53.80148411 104.1262579 L 54.54194736 102.74094963 L 55.30047989 101.36545181 L 56.07695198 100.00000095 L 56.87123108 98.64482975 L 57.68318081 97.30017281 L 58.51266193 95.966259 L 59.35953236 94.64331627 L 60.22364712 93.33157253 L 61.10485744 92.03125191 L 62.00301361 90.74257755 L 62.19307518 90.47734642 L 32.72077942 61.00505066 L 61.00505066 32.72077942 L 90.47734642 62.19307518 L 90.74257755 62.00301361 L 92.03125191 61.10485744 L 93.33157253 60.22364712 L 94.64331627 59.35953236 L 95.966259 58.51266193 L 97.30017281 57.68318081 L 98.64482975 56.87123108 L 100.0 56.07695198 L 101.36545181 55.30047989 L 102.74094963 54.54194736 L 104.1262579 53.80148411 L 105.5211401 53.07921791 L 106.92535782 52.3752718 L 108.33866882 51.68976593 L 109.76083183 51.02281952 L 111.19160366 50.3745451 L 112.6307373 49.7450552 L 114.07798862 49.13445663 L 115.53310776 48.54285431 L 116.99584675 47.97034931 L 118.46595383 47.41703987 L 119.94317722 46.88302135 L 121.42726421 46.36838531 L 122.91796112 45.87321854 L 124.41501141 45.39760685 L 125.91815948 44.94163227 L 127.42714691 44.50537205 L 128.94171524 44.08890152 L 130.46160507 43.69229126 L 131.98655701 43.31560993 L 133.51630783 42.95892239 L 135.05059719 42.6222887 L 136.58916187 42.30576706 L 138.13173771 42.00941181 L 139.67805958 41.73327351 L 140.0 41.68012142 L 140.0 0.0 L 180.0 0.0 L 180.0 41.68012142 L 180.32194042 41.73327351 L 181.86826229 42.00941181 L 183.41083813 42.30576706 L 184.94940281 42.6222887 L 186.48369217 42.95892239 L 188.01344299 43.31560993 L 189.53839493 43.69229126 L 191.05828476 44.08890152 L 192.57285309 44.50537205 L 194.08184052 44.94163227 L 195.58498859 45.39760685 L 197.08203888 45.87321854 L 198.57273579 46.36838531 L 200.05682278 46.88302135 L 201.53404617 47.41703987 L 203.00415325 47.97034931 L 204.46689224 48.54285431 L 205.92201138 49.13445663 L 207.3692627 49.7450552 L 208.80839634 50.3745451 L 210.23916817 51.02281952 L 211.66133118 51.68976593 L 213.07464218 52.3752718 L 214.4788599 53.07921791 L 215.8737421 53.80148411 L 217.25905037 54.54194736 L 218.63454819 55.30047989 L 219.99999905 56.07695198 L 221.35517025 56.87123108 L 222.69982719 57.68318081 L 224.033741 58.51266193 L 225.35668373 59.35953236 L 226.66842747 60.22364712 L 227.96874809 61.10485744 L 229.25742245 62.00301361 L 229.52265358 62.19307518 L 258.99494934 32.72077942 L 287.27922058 61.00505066 L 257.80692482 90.47734642 L 257.99698639 90.74257755 L 258.89514256 92.03125191 L 259.77635288 93.33157253 L 260.64046764 94.64331627 L 261.48733807 95.966259 L 262.31681919 97.30017281 L 263.12876892 98.64482975 L 263.92304802 100.0 L 264.69952011 101.36545181 L 265.45805264 102.74094963 L 266.19851589 104.1262579 L 266.92078209 105.5211401 L 267.6247282 106.92535782 L 268.31023407 108.33866882 L 268.97718048 109.76083183 L 269.6254549 111.19160366 L 270.2549448 112.6307373 L 270.86554337 114.07798862 L 271.45714569 115.53310776 L 272.02965069 116.99584675 L 272.58296013 118.46595383 L 273.11697865 119.94317722 L 273.63161469 121.42726421 L 274.12678146 122.91796112 L 274.60239315 124.41501141 L 275.05836773 125.91815948 L 275.49462795 127.42714691 L 275.91109848 128.94171524 L 276.30770874 130.46160507 L 276.68439007 131.98655701 L 277.04107761 133.51630783 L 277.3777113 135.05059719 L 277.69423294 136.58916187 L 277.99058819 138.13173771 L 278.26672649 139.67805958 L 278.31987858 140.0 L 320.0 140.0 L 320.0 179.99999905 L 278.31987953 179.99999905 L 278.26672649 180.32194042 L 277.99058819 181.86826229 L 277.69423294 183.41083813 L 277.3777113 184.94940281 L 277.04107761 186.48369217 L 276.68439007 188.01344299 L 276.30770874 189.53839493 L 275.91109848 191.05828476 L 275.49462795 192.57285309 L 275.05836773 194.08184052 L 274.60239315 195.58498859 L 274.12678146 197.08203888 L 273.63161469 198.57273579 L 273.11697865 200.05682278 L 272.58296013 201.53404617 L 272.02965069 203.00415325 L 271.45714569 204.46689224 L 270.86554337 205.92201138 L 270.2549448 207.3692627 L 269.6254549 208.80839634 L 268.97718048 210.23916817 L 268.31023407 211.66133118 L 267.6247282 213.07464218 L 266.92078209 214.4788599 L 266.19851589 215.8737421 L 265.45805264 217.25905037 L 264.69952011 218.63454819 L 263.92304802 219.99999905 L 263.12876892 221.35517025 L 262.31681919 222.69982719 L 261.48733807 224.033741 L 260.64046764 225.35668373 L 259.77635288 226.66842747 L 258.89514256 227.96874809 L 257.99698639 229.25742245 L 257.80692482 229.52265358 L 287.27922058 258.99494934 L 258.99494934 287.27922058 L 229.52265358 257.80692482 L 229.25742245 257.99698639 L 227.96874809 258.89514256 L 226.66842747 259.77635288 L 225.35668373 260.64046764 L 224.033741 261.48733807 L 222.69982719 262.31681919 L 221.35517025 263.12876892 L 220.0 263.92304802 L 218.63454819 264.69952011 L 217.25905037 265.45805264 L 215.8737421 266.19851589 L 214.4788599 266.92078209 L 213.07464218 267.6247282 L 211.66133118 268.31023407 L 210.23916817 268.97718048 L 208.80839634 269.6254549 L 207.3692627 270.2549448 L 205.92201138 270.86554337 L 204.46689224 271.45714569 L 203.00415325 272.02965069 L 201.53404617 272.58296013 L 200.05682278 273.11697865 L 198.57273579 273.63161469 L 197.08203888 274.12678146 L 195.58498859 274.60239315 L 194.08184052 275.05836773 L 192.57285309 275.49462795 L 191.05828476 275.91109848 L 189.53839493 276.30770874 L 188.01344299 276.68439007 L 186.48369217 277.04107761 L 184.94940281 277.3777113 L 183.41083813 277.69423294 L 181.86826229 277.99058819 L 180.32194042 278.26672649 L 180.0 278.31987858 L 180.0 320.0 Z M 160.0 240.0 L 161.57069492 239.98457909 L 163.14078522 239.93832207 L 164.70966339 239.86124802 L 166.27672672 239.7533865 L 167.84137058 239.61477757 L 169.40299129 239.44547653 L 170.96098709 239.24554634 L 172.51475716 239.0150671 L 174.06370163 238.75412464 L 175.60722542 238.46282196 L 177.14473152 238.14126968 L 178.67562866 237.78959274 L 180.19932556 237.40792656 L 181.71523571 236.996418 L 183.22277355 236.55522633 L 184.72135925 236.08452129 L 186.21041393 235.58448315 L 187.68936443 235.05530643 L 189.1576395 234.49719429 L 190.61467457 233.91036224 L 192.05990601 233.29503632 L 193.49277878 232.65145302 L 194.9127388 231.97986221 L 196.31923962 231.28052139 L 197.71173859 230.55370045 L 199.08969879 229.79967976 L 200.45258904 229.01875019 L 201.7998848 228.21121311 L 203.13106537 227.37737846 L 204.44561863 226.51756859 L 205.74303627 225.63211536 L 207.02281952 224.72135925 L 208.28447533 223.78565216 L 209.52751541 222.82535362 L 210.75146198 221.84083557 L 211.95584297 220.83247662 L 213.14019489 219.80066586 L 214.30405903 218.74580002 L 215.44698811 217.66828728 L 216.56854248 216.56854248 L 217.66828728 215.44698811 L 218.74580002 214.30405903 L 219.80066586 213.14019489 L 220.83247662 211.95584297 L 221.84083557 210.75146198 L 222.82535362 209.52751541 L 223.78565216 208.28447533 L 224.72135925 207.02281952 L 225.63211536 205.74303627 L 226.51756859 204.44561863 L 227.37737846 203.13106537 L 228.21121311 201.7998848 L 229.01875019 200.45258904 L 229.79967976 199.08969879 L 230.55370045 197.71173859 L 231.28052139 196.31923962 L 231.97986221 194.9127388 L 232.65145302 193.49277878 L 233.29503632 192.05990601 L 233.91036224 190.61467457 L 234.49719429 189.1576395 L 235.05530643 187.68936443 L 235.58448315 186.21041393 L 236.08452129 184.72135925 L 236.55522633 183.22277355 L 236.996418 181.71523571 L 237.40792656 180.19932556 L 237.78959274 178.67562866 L 238.14126968 177.14473152 L 238.46282196 175.60722542 L 238.75412464 174.06370163 L 239.0150671 172.51475716 L 239.24554634 170.96098709 L 239.44547653 169.40299129 L 239.61477757 167.84137058 L 239.7533865 166.27672672 L 239.86124802 164.70966339 L 239.93832207 163.14078522 L 239.98457909 161.57069492 L 240.0 160.0 L 239.98457909 158.42930508 L 239.93832207 156.85921478 L 239.86124802 155.29033661 L 239.7533865 153.72327328 L 239.61477757 152.15862942 L 239.44547653 150.59700871 L 239.24554634 149.03901291 L 239.0150671 147.48524284 L 238.75412464 145.93629837 L 238.46282196 144.39277458 L 238.14126968 142.85526848 L 237.78959274 141.32437134 L 237.40792656 139.80067444 L 236.996418 138.28476429 L 236.55522633 136.77722645 L 236.08452129 135.27864075 L 235.58448315 133.78958607 L 235.05530643 132.31063557 L 234.49719429 130.8423605 L 233.91036224 129.38532543 L 233.29503632 127.94009399 L 232.65145302 126.50722122 L 231.97986221 125.0872612 L 231.28052139 123.68076038 L 230.55370045 122.28826141 L 229.79967976 120.91030121 L 229.01875019 119.54741096 L 228.21121311 118.2001152 L 227.37737846 116.86893463 L 226.51756859 115.55438137 L 225.63211536 114.25696373 L 224.72135925 112.97718048 L 223.78565216 111.71552467 L 222.82535362 110.47248459 L 221.84083557 109.24853802 L 220.83247662 108.04415703 L 219.80066586 106.85980511 L 218.74580002 105.69594097 L 217.66828728 104.55301189 L 216.56854248 103.43145752 L 215.44698811 102.33171272 L 214.30405903 101.25419998 L 213.14019489 100.19933414 L 211.95584297 99.16752338 L 210.75146198 98.15916443 L 209.52751541 97.17464638 L 208.28447533 96.21434784 L 207.02281952 95.27864075 L 205.74303627 94.36788464 L 204.44561863 93.48243141 L 203.13106537 92.62262154 L 201.7998848 91.78878689 L 200.45258904 90.98124981 L 199.08969879 90.20032024 L 197.71173859 89.44629955 L 196.31923962 88.71947861 L 194.9127388 88.02013779 L 193.49277878 87.34854698 L 192.05990601 86.70496368 L 190.61467457 86.08963776 L 189.1576395 85.50280571 L 187.68936443 84.94469357 L 186.21041393 84.41551685 L 184.72135925 83.91547871 L 183.22277355 83.44477367 L 181.71523571 83.003582 L 180.19932556 82.59207344 L 178.67562866 82.21040726 L 177.14473152 81.85873032 L 175.60722542 81.53717804 L 174.06370163 81.24587536 L 172.51475716 80.9849329 L 170.96098709 80.75445366 L 169.40299129 80.55452347 L 167.84137058 80.38522243 L 166.27672672 80.2466135 L 164.70966339 80.13875198 L 163.14078522 80.06167793 L 161.57069492 80.01542091 L 160.0 80.0 L 158.42930508 80.01542091 L 156.85921478 80.06167793 L 155.29033661 80.13875198 L 153.72327328 80.2466135 L 152.15862942 80.38522243 L 150.59700871 80.55452347 L 149.03901291 80.75445366 L 147.48524284 80.9849329 L 145.93629837 81.24587536 L 144.39277458 81.53717804 L 142.85526848 81.85873032 L 141.32437134 82.21040726 L 139.80067444 82.59207344 L 138.28476429 83.003582 L 136.77722645 83.44477367 L 135.27864075 83.91547871 L 133.78958607 84.41551685 L 132.31063557 84.94469357 L 130.8423605 85.50280571 L 129.38532543 86.08963776 L 127.94009399 86.70496368 L 126.50722122 87.34854698 L 125.0872612 88.02013779 L 123.68076038 88.71947861 L 122.28826141 89.44629955 L 120.91030121 90.20032024 L 119.54741096 90.98124981 L 118.2001152 91.78878689 L 116.86893463 92.62262154 L 115.55438137 93.48243141 L 114.25696373 94.36788464 L 112.97718048 95.27864075 L 111.71552467 96.21434784 L 110.47248459 97.17464638 L 109.24853802 98.15916443 L 108.04415703 99.16752338 L 106.85980511 100.19933414 L 105.69594097 101.25419998 L 104.55301189 102.33171272 L 103.43145752 103.43145752 L 102.33171272 104.55301189 L 101.25419998 105.69594097 L 100.19933414 106.85980511 L 99.16752338 108.04415703 L 98.15916443 109.24853802 L 97.17464638 110.47248459 L 96.21434784 111.71552467 L 95.27864075 112.97718048 L 94.36788464 114.25696373 L 93.48243141 115.55438137 L 92.62262154 116.86893463 L 91.78878689 118.2001152 L 90.98124981 119.54741096 L 90.20032024 120.91030121 L 89.44629955 122.28826141 L 88.71947861 123.68076038 L 88.02013779 125.0872612 L 87.34854698 126.50722122 L 86.70496368 127.94009399 L 86.08963776 129.38532543 L 85.50280571 130.8423605 L 84.94469357 132.31063557 L 84.41551685 133.78958607 L 83.91547871 135.27864075 L 83.44477367 136.77722645 L 83.003582 138.28476429 L 82.59207344 139.80067444 L 82.21040726 141.32437134 L 81.85873032 142.85526848 L 81.53717804 144.39277458 L 81.24587536 145.93629837 L 80.9849329 147.48524284 L 80.75445366 149.03901291 L 80.55452347 150.59700871 L 80.38522243 152.15862942 L 80.2466135 153.72327328 L 80.13875198 155.29033661 L 80.06167793 156.85921478 L 80.01542091 158.42930508 L 80.0 160.0 L 80.01542091 161.57069492 L 80.06167793 163.14078522 L 80.13875198 164.70966339 L 80.2466135 166.27672672 L 80.38522243 167.84137058 L 80.55452347 169.40299129 L 80.75445366 170.96098709 L 80.9849329 172.51475716 L 81.24587536 174.06370163 L 81.53717804 175.60722542 L 81.85873032 177.14473152 L 82.21040726 178.67562866 L 82.59207344 180.19932556 L 83.003582 181.71523571 L 83.44477367 183.22277355 L 83.91547871 184.72135925 L 84.41551685 186.21041393 L 84.94469357 187.68936443 L 85.50280571 189.1576395 L 86.08963776 190.61467457 L 86.70496368 192.05990601 L 87.34854698 193.49277878 L 88.02013779 194.9127388 L 88.71947861 196.31923962 L 89.44629955 197.71173859 L 90.20032024 199.08969879 L 90.98124981 200.45258904 L 91.78878689 201.7998848 L 92.62262154 203.13106537 L 93.48243141 204.44561863 L 94.36788464 205.74303627 L 95.27864075 207.02281952 L 96.21434784 208.28447533 L 97.17464638 209.52751541 L 98.15916443 210.75146198 L 99.16752338 211.95584297 L 100.19933414 213.14019489 L 101.25419998 214.30405903 L 102.33171272 215.44698811 L 103.43145752 216.56854248 L 104.55301189 217.66828728 L 105.69594097 218.74580002 L 106.85980511 219.80066586 L 108.04415703 220.83247662 L 109.24853802 221.84083557 L 110.47248459 222.82535362 L 111.71552467 223.78565216 L 112.97718048 224.72135925 L 114.25696373 225.63211536 L 115.55438137 226.51756859 L 116.86893463 227.37737846 L 118.2001152 228.21121311 L 119.54741096 229.01875019 L 120.91030121 229.79967976 L 122.28826141 230.55370045 L 123.68076038 231.28052139 L 125.0872612 231.97986221 L 126.50722122 232.65145302 L 127.94009399 233.29503632 L 129.38532543 233.91036224 L 130.8423605 234.49719429 L 132.31063557 235.05530643 L 133.78958607 235.58448315 L 135.27864075 236.08452129 L 136.77722645 236.55522633 L 138.28476429 236.996418 L 139.80067444 237.40792656 L 141.32437134 237.78959274 L 142.85526848 238.14126968 L 144.39277458 238.46282196 L 145.93629837 238.75412464 L 147.48524284 239.0150671 L 149.03901291 239.24554634 L 150.59700871 239.44547653 L 152.15862942 239.61477757 L 153.72327328 239.7533865 L 155.29033661 239.86124802 L 156.85921478 239.93832207 L 158.42930508 239.98457909 Z M 160.0 200.0 L 100.0 140.0 L 220.0 140.0 Z"/>
<path d="M 20 0 L 20 320 Z" stroke="orange" opacity="0.6"/>
<path d="M 0 20 L 320 20 Z" stroke="orange" opacity="0.6"/>
<path d="M 40 0 L 40 320 Z" stroke="orange" opacity="0.6"/>
<path d="M 0 40 L 320 40 Z" stroke="orange" opacity="0.6"/>
<path d="M 60 0 L 60 320 Z" stroke="orange" opacity="0.6"/>
<path d="M 0 60 L 320 60 Z" stroke="orange" opacity="0.6"/>
<path d="M 80 0 L 80 320 Z" stroke="orange" opacity="0.6"/>
<path d="M 0 80 L 320 80 Z" stroke="orange" opacity="0.6"/>
<path d="M 100 0 L 100 320 Z" stroke="orange" opacity="0.6"/>
<path d="M 0 100 L 320 100 Z" stroke="orange" opacity="0.6"/>
<path d="M 120 0 L 120 320 Z" stroke="orange" opacity="0.6"/>
<path d="M 0 120 L 320 120 Z" stroke="orange" opacity="0.6"/>
<path d="M 140 0 L 140 320 Z" stroke="orange" opacity="0.6"/>
<path d="M 0 140 L 320 140 Z" stroke="orange" opacity="0.6"/>
<path d="M 160 0 L 160 320 Z" stroke="orange" opacity="0.6"/>
<path d="M 0 160 L 320 160 Z" stroke="orange" opacity="0.6"/>
<path d="M 180 0 L 180 320 Z" stroke="orange" opacity="0.6"/>
<path d="M 0 180 L 320 180 Z" stroke="orange" opacity="0.6"/>
<path d="M 200 0 L 200 320 Z" stroke="orange" opacity="0.6"/>
<path d="M 0 200 L 320 200 Z" stroke="orange" opacity="0.6"/>
<path d="M 220 0 L 220 320 Z" stroke="orange" opacity="0.6"/>
<path d="M 0 220 L 320 220 Z" stroke="orange" opacity="0.6"/>
<path d="M 240 0 L 240 320 Z" stroke="orange" opacity="0.6"/>
<path d="M 0 240 L 320 240 Z" stroke="orange" opacity="0.6"/>
<path d="M 260 0 L 260 320 Z" stroke="orange" opacity="0.6"/>
<path d="M 0 260 L 320 260 Z" stroke="orange" opacity="0.6"/>
<path d="M 280 0 L 280 320 Z" stroke="orange" opacity="0.6"/>
<path d="M 0 280 L 320 280 Z" stroke="orange" opacity="0.6"/>
<path d="M 300 0 L 300 320 Z" stroke="orange" opacity="0.6"/>
<path d="M 0 300 L 320 300 Z" stroke="orange" opacity="0.6"/>
</svg>
