<svg version="1.1"
     xmlns="http://www.w3.org/2000/svg"
     width="600"
     height="600">

<rect x="0" y="0" width="600" height="600" fill="rgb(25, 0, 45)"/>
<path d="M 300.0 300.0 C 283.55037001 339.47911197, 275.0 382.23096203, 275.0 425.0 C 275.0 467.76903797, 283.55037001 510.52088803, 300.0 550.0 C 316.44962999 510.52088803, 325.0 467.76903797, 325.0 425.0 C 325.0 382.23096203, 316.44962999 339.47911197, 300.0 300.0 Z" fill="rgb(53.75, 0, 77.8125)"/>
<path d="M 300.0 300.0 C 273.98130525 333.75758396, 254.81530509 372.77408428, 244.0 414.0 C 233.08288118 455.61401056, 230.68594724 499.44365975, 237.0 542.0 C 263.06999249 507.90332299, 282.233846 468.54898097, 293.0 427.0 C 303.70496629 385.687156, 306.09974171 342.23908775, 300.0 300.0 Z" fill="rgb(53.75, 0, 77.8125)"/>
<path d="M 300.0 300.0 C 266.15594876 326.27746439, 237.72847727 359.49993108, 217.0 397.0 C 196.25218766 434.53504818, 183.2365488 476.32209925, 179.0 519.0 C 212.29686208 492.01428939, 240.31042515 458.53466523, 261.0 421.0 C 281.58281684 383.65901329, 294.90300237 342.33228382, 300.0 300.0 Z" fill="rgb(53.75, 0, 77.8125)"/>
<path d="M 300.0 300.0 C 260.95910916 317.58429683, 225.40927166 342.87937351, 196.0 374.0 C 166.59438541 405.11675661, 143.35040486 442.03366689, 128.0 482.0 C 167.04089084 464.41570317, 202.59072834 439.12062649, 232.0 408.0 C 261.40561459 376.88324339, 284.64959514 339.96633311, 300.0 300.0 Z" fill="rgb(53.75, 0, 77.8125)"/>
<path d="M 300.0 300.0 C 257.88805198 306.97081924, 217.18732703 322.36184969, 181.0 345.0 C 144.5789352 367.78437252, 112.76030459 397.89232407, 88.0 433.0 C 130.11194802 426.02918076, 170.81267297 410.63815031, 207.0 388.0 C 243.4210648 365.21562748, 275.23969541 335.10767593, 300.0 300.0 Z" fill="rgb(53.75, 0, 77.8125)"/>
<path d="M 300.0 300.0 C 257.30280396 295.99456452, 213.79945458 300.79020933, 173.0 314.0 C 132.24491709 327.19542429, 94.22453386 348.77456071, 62.0 377.0 C 104.44235093 380.15458228, 147.48444734 375.03052319, 188.0 362.0 C 228.87962979 348.85238313, 267.15603598 327.66365827, 300.0 300.0 Z" fill="rgb(53.75, 0, 77.8125)"/>
<path d="M 300.0 300.0 C 259.45827826 285.52253862, 215.96802197 279.35856529, 173.0 282.0 C 130.34415967 284.62224352, 88.2399415 295.91849718, 50.0 315.0 C 90.38769493 328.68670286, 133.42920904 334.49389127, 176.0 332.0 C 218.8830266 329.48781727, 261.25647074 318.55273491, 300.0 300.0 Z" fill="rgb(53.75, 0, 77.8125)"/>
<path d="M 300.0 300.0 C 263.99249665 276.40611661, 223.30048534 259.99253222, 181.0 252.0 C 139.13762789 244.09024778, 95.73262619 244.43201945, 54.0 253.0 C 89.67978118 276.5260417, 130.02920522 292.93936674, 172.0 301.0 C 214.17600214 309.10004403, 257.95570145 308.75801513, 300.0 300.0 Z" fill="rgb(53.75, 0, 77.8125)"/>
<path d="M 300.0 300.0 C 271.05786703 268.27806836, 235.84747577 242.29758548, 197.0 224.0 C 158.21020306 205.72958188, 115.82413524 195.13306492, 73.0 193.0 C 101.94213297 224.72193164, 137.15252423 250.70241452, 176.0 269.0 C 214.78979694 287.27041812, 257.17586476 297.86693508, 300.0 300.0 Z" fill="rgb(53.75, 0, 77.8125)"/>
<path d="M 300.0 300.0 C 279.72200004 262.18922095, 252.04660522 228.36373838, 219.0 201.0 C 186.05273354 173.71851756, 147.79114098 152.87961447, 107.0 140.0 C 126.8129199 177.82952934, 154.17264341 211.68718718, 187.0 239.0 C 220.12274657 266.55858135, 258.78609985 287.42994905, 300.0 300.0 Z" fill="rgb(53.75, 0, 77.8125)"/>
<path d="M 300.0 300.0 C 289.64475651 258.35395042, 271.20140745 218.73490429, 246.0 184.0 C 220.91886931 149.43087223, 189.16261232 119.72340602, 153.0 97.0 C 162.80748642 138.64938951, 180.93387116 178.3222316, 206.0 213.0 C 231.1752037 247.82866816, 263.33101619 277.58989887, 300.0 300.0 Z" fill="rgb(53.75, 0, 77.8125)"/>
<path d="M 300.0 300.0 C 300.81689092 257.0290649, 292.94613622 213.91101745, 277.0 174.0 C 261.08147035 134.15807806, 237.12915407 97.54525175, 207.0 67.0 C 206.43118318 109.63287697, 214.29330808 152.36181664, 230.0 192.0 C 245.90737374 232.14463389, 269.85091835 269.08610272, 300.0 300.0 Z" fill="rgb(53.75, 0, 77.8125)"/>
<path d="M 300.0 300.0 C 311.446207 258.49406287, 314.52552891 214.69926231, 309.0 172.0 C 303.49883829 129.48903851, 289.47400466 88.09867586, 268.0 51.0 C 256.553793 92.50593713, 253.47447109 136.30073769, 259.0 179.0 C 264.50116171 221.51096149, 278.52599534 262.90132414, 300.0 300.0 Z" fill="rgb(53.75, 0, 77.8125)"/>
<path d="M 300.0 300.0 C 320.99253298 262.76167355, 334.66145081 221.41319712, 340.0 179.0 C 345.37571097 136.29156349, 342.2991469 92.53598556, 331.0 51.0 C 309.37903814 88.02588417, 295.34022528 129.45750261, 290.0 172.0 C 284.63297093 214.75602777, 288.0579876 258.5962411, 300.0 300.0 Z" fill="rgb(53.75, 0, 77.8125)"/>
<path d="M 300.0 300.0 C 329.69783304 268.91737072, 353.27693362 232.01095243, 369.0 192.0 C 384.591178 152.32466784, 392.44764536 109.62647566, 392.0 67.0 C 361.74129682 97.43313632, 337.76390819 134.08428752, 322.0 174.0 C 306.2307153 213.92932633, 298.6948261 257.08941899, 300.0 300.0 Z" fill="rgb(53.75, 0, 77.8125)"/>
<path d="M 300.0 300.0 C 336.25931623 277.41105747, 368.04659455 247.6745713, 393.0 213.0 C 417.99000269 178.27457417, 436.10665371 138.62303608, 446.0 97.0 C 409.74068377 119.58894253, 377.95340545 149.3254287, 353.0 184.0 C 328.00999731 218.72542583, 309.89334629 258.37696392, 300.0 300.0 Z" fill="rgb(53.75, 0, 77.8125)"/>
<path d="M 300.0 300.0 C 340.84568344 287.26141404, 379.1416229 266.40380416, 412.0 239.0 C 444.79282474 211.65086634, 472.14431947 177.80339161, 492.0 140.0 C 451.15431656 152.73858596, 412.8583771 173.59619584, 380.0 201.0 C 347.20717526 228.34913366, 319.85568053 262.19660839, 300.0 300.0 Z" fill="rgb(53.75, 0, 77.8125)"/>
<path d="M 300.0 300.0 C 342.48653129 297.72965934, 384.51256723 287.13773158, 423.0 269.0 C 461.84316452 250.69462494, 497.05169569 224.71551456, 526.0 193.0 C 483.16139187 195.00657796, 440.74304386 205.61116496, 402.0 224.0 C 363.44603114 242.29909328, 328.56223177 268.29094379, 300.0 300.0 Z" fill="rgb(53.75, 0, 77.8125)"/>
<path d="M 300.0 300.0 C 341.71977174 308.66035111, 385.14902618 309.00231375, 427.0 301.0 C 468.97958939 292.97309371, 509.33746468 276.55633088, 545.0 253.0 C 503.28022826 244.33964889, 459.85097382 243.99768625, 418.0 252.0 C 376.02041061 260.02690629, 335.66253532 276.44366912, 300.0 300.0 Z" fill="rgb(53.75, 0, 77.8125)"/>
<path d="M 300.0 300.0 C 338.41054827 318.49756603, 380.44483235 329.43331474, 423.0 332.0 C 465.57117376 334.56765066, 508.63148346 328.75792634, 549.0 315.0 C 510.78225853 295.865443, 468.6631782 284.56520193, 426.0 282.0 C 383.36083122 279.43624168, 340.2157497 285.59982475, 300.0 300.0 Z" fill="rgb(53.75, 0, 77.8125)"/>
<path d="M 300.0 300.0 C 332.48333933 327.641223, 370.42993746 348.83662016, 411.0 362.0 C 451.48863246 375.13695901, 494.55882916 380.26436337, 537.0 377.0 C 504.78512672 348.76189696, 466.7610025 327.18063727, 426.0 314.0 C 385.51645795 300.90908343, 342.36975442 296.11500526, 300.0 300.0 Z" fill="rgb(53.75, 0, 77.8125)"/>
<path d="M 300.0 300.0 C 324.36012097 335.09839197, 355.85411834 365.22308512, 392.0 388.0 C 428.12100675 410.76124024, 468.85633134 426.16535458, 511.0 433.0 C 486.21727752 397.91048251, 454.40417166 367.80775869, 418.0 345.0 C 382.09867003 322.50727916, 341.76203027 307.1246623, 300.0 300.0 Z" fill="rgb(53.75, 0, 77.8125)"/>
<path d="M 300.0 300.0 C 314.90797911 339.95245183, 337.82726845 376.89697793, 367.0 408.0 C 396.29965738 439.23834628, 431.8838205 464.55784697, 471.0 482.0 C 455.58489789 442.0635271, 432.35072415 405.16219235, 403.0 374.0 C 373.83505444 343.03505212, 338.65298918 317.75861689, 300.0 300.0 Z" fill="rgb(53.75, 0, 77.8125)"/>
<path d="M 300.0 300.0 C 304.62063606 342.29434025, 317.61080393 383.65776951, 338.0 421.0 C 358.54463868 458.6269192, 386.58676593 492.14068103, 420.0 519.0 C 415.65847675 476.33985092, 402.65132471 434.58004699, 382.0 397.0 C 361.47403126 359.64806832, 333.41488274 326.45614872, 300.0 300.0 Z" fill="rgb(53.75, 0, 77.8125)"/>
<path d="M 300.0 300.0 C 293.40628036 342.15864578, 295.46102651 385.65077279, 306.0 427.0 C 316.60356546 468.60265116, 335.78749618 507.99822317, 362.0 542.0 C 368.1757709 499.43273587, 365.78085285 455.63994877, 355.0 414.0 C 344.35693483 372.89224215, 325.55204299 333.91482996, 300.0 300.0 Z" fill="rgb(53.75, 0, 77.8125)"/>
<path d="M 300.0 300.0 C 281.17276055 332.13824688, 268.85309097 368.0706165, 264.0 405.0 C 259.08993932 442.36289198, 261.82932585 480.71430336, 272.0 517.0 C 290.28336613 484.33061794, 302.23537144 448.13311616, 307.0 411.0 C 311.74698458 374.00439212, 309.35700642 336.106167, 300.0 300.0 Z" fill="rgb(82.5, 0, 86.25)"/>
<path d="M 300.0 300.0 C 273.74406647 326.52371109, 252.86813142 358.35095634, 239.0 393.0 C 225.05819607 427.83311186, 218.2117269 465.48869232, 219.0 503.0 C 245.27633368 476.10783542, 266.14351385 443.95185286, 280.0 409.0 C 293.70135638 374.43944929, 300.53914759 337.17348722, 300.0 300.0 Z" fill="rgb(82.5, 0, 86.25)"/>
<path d="M 300.0 300.0 C 268.09703567 319.29231333, 240.05496896 344.94054507, 218.0 375.0 C 195.88990868 405.13458304, 179.81497837 439.67858222, 171.0 476.0 C 202.90296433 456.70768667, 230.94503104 431.05945493, 253.0 401.0 C 275.11009132 370.86541696, 291.18502163 336.32141778, 300.0 300.0 Z" fill="rgb(82.5, 0, 86.25)"/>
<path d="M 300.0 300.0 C 263.91080083 310.32638411, 229.98404616 328.14649768, 201.0 352.0 C 172.05829752 375.81865401, 148.07160172 405.63069022, 131.0 439.0 C 166.66096097 427.83513684, 200.13535581 409.73163759, 229.0 386.0 C 257.89288464 362.24514396, 282.1458906 332.8682635, 300.0 300.0 Z" fill="rgb(82.5, 0, 86.25)"/>
<path d="M 300.0 300.0 C 262.39607022 301.05216134, 225.03007754 309.96515042, 191.0 326.0 C 157.17255136 341.93937157, 126.67274369 364.89990095, 102.0 393.0 C 139.29165724 391.08366954, 176.19379398 381.85813535, 210.0 366.0 C 243.89311743 350.10109542, 274.64877825 327.54694415, 300.0 300.0 Z" fill="rgb(82.5, 0, 86.25)"/>
<path d="M 300.0 300.0 C 263.20548645 292.39508334, 224.92443881 292.05328827, 188.0 299.0 C 151.45753967 305.87484891, 116.27063139 319.88128813, 85.0 340.0 C 121.48236161 347.41768944, 159.38991867 347.75919897, 196.0 341.0 C 232.87238894 334.19237204, 268.40163846 320.18564867, 300.0 300.0 Z" fill="rgb(82.5, 0, 86.25)"/>
<path d="M 300.0 300.0 C 266.38801533 283.32638152, 229.44310726 273.40598954, 192.0 271.0 C 154.49474317 268.5900169, 116.52035254 273.72169131, 81.0 286.0 C 114.80210371 302.03651027, 151.66422698 311.59335704, 189.0 314.0 C 226.44036485 316.41338489, 264.33141939 311.63433296, 300.0 300.0 Z" fill="rgb(82.5, 0, 86.25)"/>
<path d="M 300.0 300.0 C 271.39067091 275.43976925, 237.8682448 256.62616276, 202.0 245.0 C 166.33229656 233.43883977, 128.37385434 228.99325644, 91.0 232.0 C 119.60932909 256.56023075, 153.1317552 275.37383724, 189.0 287.0 C 224.66770344 298.56116023, 262.62614566 303.00674356, 300.0 300.0 Z" fill="rgb(82.5, 0, 86.25)"/>
<path d="M 300.0 300.0 C 278.57885612 268.93339572, 250.85255021 242.23399003, 219.0 222.0 C 187.44108637 201.95253945, 151.85903831 188.26713635, 115.0 182.0 C 136.30798196 212.55236569, 163.65591655 238.87475273, 195.0 259.0 C 226.8259977 279.43467228, 262.74794185 293.46133619, 300.0 300.0 Z" fill="rgb(82.5, 0, 86.25)"/>
<path d="M 300.0 300.0 C 286.84029601 264.86359035, 266.66142278 232.3721843, 241.0 205.0 C 215.33857722 177.6278157, 184.21523037 155.39685367, 150.0 140.0 C 163.15970399 175.13640965, 183.33857722 207.6278157, 209.0 235.0 C 234.66142278 262.3721843, 265.78476963 284.60314633, 300.0 300.0 Z" fill="rgb(82.5, 0, 86.25)"/>
<path d="M 300.0 300.0 C 295.88990125 262.5543869, 284.25855094 225.94984325, 266.0 193.0 C 247.88583581 160.31072073, 223.26470861 131.24411223, 194.0 108.0 C 198.38838256 145.07802032, 210.00262474 181.28712828, 228.0 214.0 C 246.13510768 246.96322061, 270.73913626 276.35136586, 300.0 300.0 Z" fill="rgb(82.5, 0, 86.25)"/>
<path d="M 300.0 300.0 C 304.92671812 262.68273904, 302.53488511 224.41341076, 293.0 188.0 C 283.57653154 152.01208572, 267.18473373 117.86250695, 245.0 88.0 C 239.65307973 124.91162789, 241.70541363 162.8798049, 251.0 199.0 C 260.38750917 235.4813074, 277.1568474 270.04667803, 300.0 300.0 Z" fill="rgb(82.5, 0, 86.25)"/>
<path d="M 300.0 300.0 C 313.8939834 265.10945548, 321.06344285 227.55514408, 321.0 190.0 C 320.93712026 152.77818894, 313.77066278 115.58086203, 300.0 81.0 C 285.59012413 115.41262593, 278.06579852 152.69223919, 278.0 190.0 C 277.93361359 227.6410938, 285.46137647 265.27990819, 300.0 300.0 Z" fill="rgb(82.5, 0, 86.25)"/>
<path d="M 300.0 300.0 C 322.37468372 269.88954468, 338.78303899 235.36363047, 348.0 199.0 C 357.16155538 162.85496107, 359.21198641 124.92198713, 354.0 88.0 C 331.67542192 117.77157292, 315.26504772 151.95985251, 306.0 188.0 C 296.63024752 224.44743897, 294.57778171 262.76013403, 300.0 300.0 Z" fill="rgb(82.5, 0, 86.25)"/>
<path d="M 300.0 300.0 C 328.82922676 276.17724744, 353.06716852 246.81861377, 371.0 214.0 C 388.89996388 181.24153675, 400.50586127 145.0584449, 405.0 108.0 C 375.62192198 131.11880009, 350.97191199 160.21950633, 333.0 193.0 C 314.93362512 225.95279253, 303.6325552 262.59565561, 300.0 300.0 Z" fill="rgb(82.5, 0, 86.25)"/>
<path d="M 300.0 300.0 C 333.82706964 284.42776176, 364.58214343 262.21576402, 390.0 235.0 C 415.60621126 207.58255821, 435.77525289 175.10698269, 449.0 140.0 C 414.70912773 155.25411262, 383.55092997 177.50996816, 358.0 205.0 C 332.57051135 232.35937414, 312.7164394 264.87897474, 300.0 300.0 Z" fill="rgb(82.5, 0, 86.25)"/>
<path d="M 300.0 300.0 C 336.90076825 293.30543352, 372.45804745 279.28765999, 404.0 259.0 C 435.32648281 238.8509293, 462.66888438 212.53386779, 484.0 182.0 C 447.10846105 188.13048698, 411.49146864 201.82933022, 380.0 222.0 C 348.42121097 242.22659955, 321.01945368 268.94331291, 300.0 300.0 Z" fill="rgb(82.5, 0, 86.25)"/>
<path d="M 300.0 300.0 C 337.04552592 302.88847632, 374.64837171 298.44450364, 410.0 287.0 C 445.87333451 275.38660262, 479.39891587 256.57122533, 508.0 232.0 C 470.6278866 228.88145838, 432.64017701 233.33046942, 397.0 245.0 C 361.440889 256.64298744, 328.24835456 275.46349666, 300.0 300.0 Z" fill="rgb(82.5, 0, 86.25)"/>
<path d="M 300.0 300.0 C 335.34198459 311.56051986, 372.88895692 316.33922543, 410.0 314.0 C 447.34252185 311.64618374, 484.217664 302.0859617, 518.0 286.0 C 482.5000125 273.64731267, 444.50536407 268.51290072, 407.0 271.0 C 369.88441275 273.46125195, 333.27881848 283.38239432, 300.0 300.0 Z" fill="rgb(82.5, 0, 86.25)"/>
<path d="M 300.0 300.0 C 331.25395581 320.1486891, 366.44905243 334.15838775, 403.0 341.0 C 439.59910686 347.85062671, 477.53025829 347.50890463, 514.0 340.0 C 482.74604419 319.8513109, 447.55094757 305.84161225, 411.0 299.0 C 374.40089314 292.14937329, 336.46974171 292.49109537, 300.0 300.0 Z" fill="rgb(82.5, 0, 86.25)"/>
<path d="M 300.0 300.0 C 324.97158396 327.53451504, 355.4006533 350.0998923, 389.0 366.0 C 422.75978254 381.97603022, 459.69382471 391.20954076, 497.0 393.0 C 472.32363409 364.9035493, 441.8249443 341.94386148, 408.0 326.0 C 374.27194008 310.10180633, 337.26808574 301.19347103, 300.0 300.0 Z" fill="rgb(82.5, 0, 86.25)"/>
<path d="M 300.0 300.0 C 317.43255665 332.86120513, 341.36164213 362.25979586, 370.0 386.0 C 398.77605697 409.85435191, 432.28483729 427.97644739, 468.0 439.0 C 450.88724965 405.65544608, 426.9087125 375.85354989, 398.0 352.0 C 369.28112781 328.30309372, 335.72303273 310.49675756, 300.0 300.0 Z" fill="rgb(82.5, 0, 86.25)"/>
<path d="M 300.0 300.0 C 308.35362246 336.29576135, 324.10171496 370.87309487, 346.0 401.0 C 367.92710338 431.1665524, 396.00174256 456.84457604, 428.0 476.0 C 419.09900164 439.705643, 403.03399247 405.1829637, 381.0 375.0 C 359.16830601 345.0941521, 331.49438024 319.47014676, 300.0 300.0 Z" fill="rgb(82.5, 0, 86.25)"/>
<path d="M 300.0 300.0 C 298.9735572 337.11459015, 305.4766171 374.421618, 319.0 409.0 C 332.69865788 444.02654833, 353.59115861 476.22154947, 380.0 503.0 C 380.66438897 465.49453424, 373.82379202 427.87125103, 360.0 393.0 C 346.31751793 358.48521082, 325.80636748 326.69292763, 300.0 300.0 Z" fill="rgb(82.5, 0, 86.25)"/>
<path d="M 300.0 300.0 C 290.14745753 336.00885705, 287.41292831 373.95045003, 292.0 411.0 C 296.60130632 448.16452229, 308.56672194 484.40263819, 327.0 517.0 C 337.02235068 480.68353489, 339.75886984 442.37226658, 335.0 405.0 C 330.31006334 368.16907817, 318.34660377 332.27869946, 300.0 300.0 Z" fill="rgb(82.5, 0, 86.25)"/>
<path d="M 300.0 300.0 C 280.41434229 325.45709161, 266.03445476 354.90162323, 258.0 386.0 C 250.01459214 416.90853454, 248.30325271 449.42398361, 253.0 481.0 C 271.97495671 455.29282614, 285.97475901 425.92738717, 294.0 395.0 C 302.01807765 364.10021866, 304.066742 331.6630331, 300.0 300.0 Z" fill="rgb(111.25, 0, 100.3125)"/>
<path d="M 300.0 300.0 C 274.78450875 319.92073463, 253.57587325 344.89219256, 238.0 373.0 C 222.46806006 401.02852655, 212.54932361 432.15283748, 209.0 464.0 C 234.21549125 444.07926537, 255.42412675 419.10780744, 271.0 391.0 C 286.53193994 362.97147345, 296.45067639 331.84716252, 300.0 300.0 Z" fill="rgb(111.25, 0, 100.3125)"/>
<path d="M 300.0 300.0 C 270.72454347 312.97162873, 244.04964277 331.78085358, 222.0 355.0 C 199.88545717 378.28748876, 182.44156761 405.99248981, 171.0 436.0 C 200.27545653 423.02837127, 226.95035723 404.21914642, 249.0 381.0 C 271.11454283 357.71251124, 288.55843239 330.00751019, 300.0 300.0 Z" fill="rgb(111.25, 0, 100.3125)"/>
<path d="M 300.0 300.0 C 268.1215767 305.12637553, 237.30522792 316.76810729, 210.0 334.0 C 182.90337876 351.10024437, 159.28706344 373.68976338, 141.0 400.0 C 172.4965057 394.58241079, 202.91383596 382.96230709, 230.0 366.0 C 257.35538905 348.86909475, 281.29095763 326.30127294, 300.0 300.0 Z" fill="rgb(111.25, 0, 100.3125)"/>
<path d="M 300.0 300.0 C 268.01971561 297.5180369, 235.56693082 301.27572777, 205.0 311.0 C 174.38910573 320.73825835, 145.69200591 336.45333682, 121.0 357.0 C 152.98028439 359.4819631, 185.43306918 355.72427223, 216.0 346.0 C 246.61089427 336.26174165, 275.30799409 320.54666318, 300.0 300.0 Z" fill="rgb(111.25, 0, 100.3125)"/>
<path d="M 300.0 300.0 C 269.57320112 289.57440355, 237.1090879 285.13194595, 205.0 287.0 C 172.83613404 288.87124094, 141.0528032 297.07339084, 112.0 311.0 C 142.42679888 321.42559645, 174.8909121 325.86805405, 207.0 324.0 C 239.16386596 322.12875906, 270.9471968 313.92660916, 300.0 300.0 Z" fill="rgb(111.25, 0, 100.3125)"/>
<path d="M 300.0 300.0 C 273.00582442 282.44640069, 242.60680022 270.15016618, 211.0 264.0 C 179.39493585 257.85017163, 146.60506415 257.85017163, 115.0 264.0 C 141.99417558 281.55359931, 172.39319978 293.84983382, 204.0 300.0 C 235.60506415 306.14982837, 268.39493585 306.14982837, 300.0 300.0 Z" fill="rgb(111.25, 0, 100.3125)"/>
<path d="M 300.0 300.0 C 278.41808546 276.18093578, 252.08294582 256.68609215, 223.0 243.0 C 193.91705418 229.31390785, 162.10967774 221.44756744, 130.0 220.0 C 151.58191454 243.81906422, 177.91705418 263.31390785, 207.0 277.0 C 236.08294582 290.68609215, 267.89032226 298.55243256, 300.0 300.0 Z" fill="rgb(111.25, 0, 100.3125)"/>
<path d="M 300.0 300.0 C 284.92541168 271.2755806, 264.05097596 245.61029078, 239.0 225.0 C 214.31144878 204.68788839, 185.58778383 189.30021074, 155.0 180.0 C 169.92785461 208.25814036, 190.43767837 233.55358966, 215.0 254.0 C 239.92302448 274.74667017, 269.00003289 290.48246296, 300.0 300.0 Z" fill="rgb(111.25, 0, 100.3125)"/>
<path d="M 300.0 300.0 C 292.60606814 268.73297324, 278.92072494 238.96735178, 260.0 213.0 C 240.97810988 186.8938062, 216.67990838 164.64897384, 189.0 148.0 C 196.39393186 179.26702676, 210.07927506 209.03264822, 229.0 235.0 C 248.02189012 261.1061938, 272.32009162 283.35102616, 300.0 300.0 Z" fill="rgb(111.25, 0, 100.3125)"/>
<path d="M 300.0 300.0 C 300.27943955 267.56411952, 294.1255872 235.08545436, 282.0 205.0 C 270.03638454 175.31642255, 252.27041319 147.98415893, 230.0 125.0 C 229.96765189 157.09579411, 236.11271677 189.18668848, 248.0 219.0 C 259.95605898 248.98580113, 277.71334385 276.64618717, 300.0 300.0 Z" fill="rgb(111.25, 0, 100.3125)"/>
<path d="M 300.0 300.0 C 308.08145461 268.77089708, 310.1301153 235.99232604, 306.0 204.0 C 301.88595689 172.13217091, 291.64454794 141.06656377, 276.0 113.0 C 267.27615725 144.1009831, 264.88000592 176.96248713, 269.0 209.0 C 273.11480736 240.99718033, 283.72563281 272.1450873, 300.0 300.0 Z" fill="rgb(111.25, 0, 100.3125)"/>
<path d="M 300.0 300.0 C 315.79279991 272.00446408, 326.04738373 240.89889317, 330.0 209.0 C 333.97089123 176.95362198, 331.57760302 144.13138365, 323.0 113.0 C 307.20720009 140.99553592, 296.95261627 172.10110683, 293.0 204.0 C 289.02910877 236.04637802, 291.42239698 268.86861635, 300.0 300.0 Z" fill="rgb(111.25, 0, 100.3125)"/>
<path d="M 300.0 300.0 C 321.83474682 276.48165205, 339.22931747 248.85498102, 351.0 219.0 C 362.76938265 189.14831598, 368.90861205 157.08789577, 369.0 125.0 C 346.60165369 147.87488799, 328.8118168 175.24386783, 317.0 205.0 C 305.05089007 235.10199874, 299.23148288 267.62221537, 300.0 300.0 Z" fill="rgb(111.25, 0, 100.3125)"/>
<path d="M 300.0 300.0 C 327.27106724 283.17164176, 351.20043503 260.95151453, 370.0 235.0 C 388.84542329 208.98518119, 402.52101568 179.24076776, 410.0 148.0 C 382.22365128 164.50993994, 357.8918893 186.78549669, 339.0 213.0 C 320.29092042 238.96083541, 306.932642 268.76007188, 300.0 300.0 Z" fill="rgb(111.25, 0, 100.3125)"/>
<path d="M 300.0 300.0 C 330.63139253 290.31430535, 359.34124212 274.59224486, 384.0 254.0 C 408.5277235 233.51718044, 429.02937105 208.23181513, 444.0 180.0 C 413.35953611 189.15992843, 384.60095064 204.5663135, 360.0 225.0 C 335.20206395 245.59730367, 314.65148104 271.28553232, 300.0 300.0 Z" fill="rgb(111.25, 0, 100.3125)"/>
<path d="M 300.0 300.0 C 331.77241055 298.41450223, 363.2194035 290.55275399, 392.0 277.0 C 421.07897561 263.30673959, 447.41238892 243.81317389, 469.0 220.0 C 436.8762766 221.31992682, 405.0358772 229.19443419, 376.0 243.0 C 347.21045503 256.68844326, 321.20197812 276.19480094, 300.0 300.0 Z" fill="rgb(111.25, 0, 100.3125)"/>
<path d="M 300.0 300.0 C 331.27998749 306.05350595, 363.72001251 306.05350595, 395.0 300.0 C 426.61512354 293.88163634, 457.02195207 281.58224503, 484.0 264.0 C 452.40708043 257.7565685, 419.59291957 257.7565685, 388.0 264.0 C 356.71405158 270.18276748, 326.64887281 282.4821588, 300.0 300.0 Z" fill="rgb(111.25, 0, 100.3125)"/>
<path d="M 300.0 300.0 C 328.71993993 313.87103251, 360.16400821 322.07383293, 392.0 324.0 C 424.10952782 325.94271677, 456.59283577 321.49763253, 487.0 311.0 C 457.9681827 297.02125626, 426.17072879 288.81546171, 394.0 287.0 C 362.22012986 285.20659527, 330.10028354 289.64870167, 300.0 300.0 Z" fill="rgb(111.25, 0, 100.3125)"/>
<path d="M 300.0 300.0 C 324.33209675 320.52400948, 352.69922996 336.24555319, 383.0 346.0 C 413.54013895 355.83150464, 446.02129434 359.59248052, 478.0 357.0 C 453.31573059 336.44272041, 424.61567243 320.7260219, 394.0 311.0 C 363.74977214 301.39007295, 331.65167634 297.63391281, 300.0 300.0 Z" fill="rgb(111.25, 0, 100.3125)"/>
<path d="M 300.0 300.0 C 318.30868555 326.2929473, 341.91969051 348.87738683, 369.0 366.0 C 396.02004013 383.08450545, 426.47130126 394.7175715, 458.0 400.0 C 439.69131445 373.7070527, 416.08030949 351.12261317, 389.0 334.0 C 361.97995987 316.91549455, 331.52869874 305.2824285, 300.0 300.0 Z" fill="rgb(111.25, 0, 100.3125)"/>
<path d="M 300.0 300.0 C 310.99903512 329.9923432, 328.1182101 357.72540666, 350.0 381.0 C 371.94047178 404.33701038, 398.65018638 423.1707835, 428.0 436.0 C 416.49395292 406.02213692, 399.0599387 378.33282021, 377.0 355.0 C 355.19510597 331.9369408, 328.88826487 313.14634002, 300.0 300.0 Z" fill="rgb(111.25, 0, 100.3125)"/>
<path d="M 300.0 300.0 C 303.07270876 331.805958, 312.66110708 362.96825251, 328.0 391.0 C 343.43126946 419.20056513, 364.66956498 444.20694534, 390.0 464.0 C 386.34519141 432.17181641, 376.43492404 401.07408086, 361.0 373.0 C 345.62688474 345.03834112, 324.78525577 320.09671956, 300.0 300.0 Z" fill="rgb(111.25, 0, 100.3125)"/>
<path d="M 300.0 300.0 C 295.43873919 331.58679943, 297.14819815 364.06651966, 305.0 395.0 C 312.86365831 425.98019085, 326.88228504 455.38511522, 346.0 481.0 C 350.56126081 449.41320057, 348.85180185 416.93348034, 341.0 386.0 C 333.13634169 355.01980915, 319.11771496 325.61488478, 300.0 300.0 Z" fill="rgb(111.25, 0, 100.3125)"/>
<path d="M 300.0 300.0 C 287.56820592 329.32475829, 281.06648018 361.14899478, 281.0 393.0 C 280.93282408 425.18433806, 287.43810248 457.36834699, 300.0 487.0 C 311.91716465 457.19646702, 318.06372815 425.09774649, 318.0 393.0 C 317.93693366 361.2355864, 311.79340571 329.49402533, 300.0 300.0 Z" fill="rgb(111.25, 0, 100.3125)"/>
<path d="M 300.0 300.0 C 281.02712552 318.68229893, 265.94793959 341.30107781, 256.0 366.0 C 245.93643302 390.98600393, 241.13543239 418.07736462, 242.0 445.0 C 260.41439655 425.66829413, 275.09541144 402.79322442, 285.0 378.0 C 294.88162544 353.26425699, 300.00234662 326.63650687, 300.0 300.0 Z" fill="rgb(140.0, 0, 120.0)"/>
<path d="M 300.0 300.0 C 276.98214357 313.80572755, 256.78477174 332.2914577, 241.0 354.0 C 225.37103488 375.49426397, 214.08004626 400.12914822, 208.0 426.0 C 230.51238405 411.87968506, 250.30968139 393.44771857, 266.0 372.0 C 281.76600896 350.44881729, 293.37395797 325.86727821, 300.0 300.0 Z" fill="rgb(140.0, 0, 120.0)"/>
<path d="M 300.0 300.0 C 274.12472676 307.27278688, 249.78396656 319.95740839, 229.0 337.0 C 208.324848 353.95336504, 191.1884393 375.20251182, 179.0 399.0 C 204.44610216 390.8874897, 228.3347598 377.91936127, 249.0 361.0 C 269.62894642 344.11035373, 287.03211656 323.29479728, 300.0 300.0 Z" fill="rgb(140.0, 0, 120.0)"/>
<path d="M 300.0 300.0 C 273.08567449 301.09317438, 246.40199438 307.59304517, 222.0 319.0 C 197.86798512 330.28075023, 175.98605955 346.35028932, 158.0 366.0 C 184.56334224 364.64521241, 210.85551699 358.15753292, 235.0 347.0 C 259.42274406 335.71387841, 281.62970859 319.65653483, 300.0 300.0 Z" fill="rgb(140.0, 0, 120.0)"/>
<path d="M 300.0 300.0 C 273.7527078 294.36373157, 246.3799759 294.02157242, 220.0 299.0 C 193.67227958 303.96856593, 168.35509432 314.23228969, 146.0 329.0 C 172.3538831 333.99640507, 199.6461169 333.99640507, 226.0 329.0 C 252.18042238 324.03648117, 277.41812877 314.14602866, 300.0 300.0 Z" fill="rgb(140.0, 0, 120.0)"/>
<path d="M 300.0 300.0 C 276.10122218 287.90175718, 249.7319011 280.71012416, 223.0 279.0 C 196.28512311 277.29096494, 169.23180504 281.05788264, 144.0 290.0 C 168.09111767 301.46112062, 194.37651428 308.28849636, 221.0 310.0 C 247.64902152 311.71314522, 274.61837696 308.29930276, 300.0 300.0 Z" fill="rgb(140.0, 0, 120.0)"/>
<path d="M 300.0 300.0 C 279.71593069 282.08604791, 255.73162468 268.38073019, 230.0 260.0 C 204.62805927 251.73641803, 177.58050751 248.65505138, 151.0 251.0 C 171.19890785 268.28493052, 194.77364574 281.60978237, 220.0 290.0 C 245.66596462 298.53643086, 273.02248208 301.95599554, 300.0 300.0 Z" fill="rgb(140.0, 0, 120.0)"/>
<path d="M 300.0 300.0 C 284.76492242 277.63222484, 264.88841002 258.44110942, 242.0 244.0 C 219.54402357 229.83172827, 194.21034496 220.24601203, 168.0 216.0 C 183.12585968 237.85130857, 202.6225857 256.66393894, 225.0 271.0 C 247.72184278 285.55671871, 273.39575901 295.48396632, 300.0 300.0 Z" fill="rgb(140.0, 0, 120.0)"/>
<path d="M 300.0 300.0 C 290.24089539 274.83930997, 275.54753592 251.60329964, 257.0 232.0 C 238.83489792 212.80090312, 216.98763434 197.09818242, 193.0 186.0 C 202.56330496 210.73525981, 216.90467996 233.61316755, 235.0 253.0 C 253.35862676 272.66893209, 275.56913792 288.72884016, 300.0 300.0 Z" fill="rgb(140.0, 0, 120.0)"/>
<path d="M 300.0 300.0 C 297.15886887 273.40792327, 288.9461609 247.4010147, 276.0 224.0 C 262.97865184 200.46307952, 245.17906808 179.58279857, 224.0 163.0 C 226.84113113 189.59207673, 235.0538391 215.5989853, 248.0 239.0 C 261.02134816 262.53692048, 278.82093192 283.41720143, 300.0 300.0 Z" fill="rgb(140.0, 0, 120.0)"/>
<path d="M 300.0 300.0 C 303.42060167 273.33836248, 301.71371917 246.02824247, 295.0 220.0 C 288.33137712 194.14659018, 276.7282463 169.57525431, 261.0 148.0 C 256.94690101 174.57386552, 258.31635632 201.96297162, 265.0 228.0 C 271.67994665 254.02262609, 283.66233005 278.67210052, 300.0 300.0 Z" fill="rgb(140.0, 0, 120.0)"/>
<path d="M 300.0 300.0 C 309.9427204 274.93421188, 315.06332943 247.965671, 315.0 221.0 C 314.93745341 194.36766172, 309.81981472 167.75594056, 300.0 143.0 C 289.54230091 167.58724954, 284.06660955 194.28124492, 284.0 221.0 C 283.93255946 248.05208773, 289.41183478 275.10600964, 300.0 300.0 Z" fill="rgb(140.0, 0, 120.0)"/>
<path d="M 300.0 300.0 C 315.86977426 278.51526721, 327.49119858 253.90519219, 334.0 228.0 C 340.54820228 201.93799144, 341.91584131 174.58521074, 338.0 148.0 C 322.13022574 169.48473279, 310.50880142 194.09480781, 304.0 220.0 C 297.45179772 246.06200856, 296.08415869 273.41478926, 300.0 300.0 Z" fill="rgb(140.0, 0, 120.0)"/>
<path d="M 300.0 300.0 C 320.74899141 283.24006325, 338.18104143 262.38996421, 351.0 239.0 C 363.84973012 215.55388883, 372.05402756 189.57361359, 375.0 163.0 C 353.70576334 179.45387083, 335.87581601 200.36977058, 323.0 224.0 C 310.24672232 247.40534202, 302.3645722 273.45070764, 300.0 300.0 Z" fill="rgb(140.0, 0, 120.0)"/>
<path d="M 300.0 300.0 C 324.04114617 288.55490437, 345.88432385 272.51382076, 364.0 253.0 C 382.03991805 233.56778425, 396.37170421 210.70517299, 406.0 186.0 C 381.93827136 196.96083819, 360.05853799 212.68689655, 342.0 232.0 C 323.68406223 251.58838535, 309.31516517 274.85231392, 300.0 300.0 Z" fill="rgb(140.0, 0, 120.0)"/>
<path d="M 300.0 300.0 C 326.25340568 295.32747948, 351.56229327 285.40913164, 374.0 271.0 C 396.36020557 256.64063835, 415.85146898 237.83327891, 431.0 216.0 C 404.75838638 220.1100067, 379.38938001 229.70909019, 357.0 244.0 C 334.38492703 258.4349673, 314.83294197 277.64393507, 300.0 300.0 Z" fill="rgb(140.0, 0, 120.0)"/>
<path d="M 300.0 300.0 C 326.64873759 301.83677398, 353.64945677 298.41896143, 379.0 290.0 C 404.23082385 281.62079759, 427.80822404 268.29444097, 448.0 251.0 C 421.42199333 248.54227973, 394.34413838 251.62709865, 369.0 260.0 C 343.57668412 268.39905909, 319.92232474 282.11173119, 300.0 300.0 Z" fill="rgb(140.0, 0, 120.0)"/>
<path d="M 300.0 300.0 C 325.0550503 308.22539908, 351.68029697 311.63889225, 378.0 310.0 C 404.63028276 308.34176838, 430.9288692 301.5109667, 455.0 290.0 C 429.78943937 280.98231788, 402.71508371 277.21247089, 376.0 279.0 C 349.59540334 280.76675416, 323.56570733 287.95917016, 300.0 300.0 Z" fill="rgb(140.0, 0, 120.0)"/>
<path d="M 300.0 300.0 C 322.23729207 314.11146516, 347.14118148 324.00479109, 373.0 329.0 C 399.34220684 334.08858617, 426.65779316 334.08858617, 453.0 329.0 C 430.66280836 314.20087276, 405.33674936 303.93355154, 379.0 299.0 C 352.94517899 294.1192609, 325.92292956 294.46131469, 300.0 300.0 Z" fill="rgb(140.0, 0, 120.0)"/>
<path d="M 300.0 300.0 C 317.99117124 319.64437567, 339.87154573 335.71277569, 364.0 347.0 C 388.0993633 358.27361564, 414.4225987 364.76895944, 441.0 366.0 C 423.00882876 346.35562433, 401.12845427 330.28722431, 377.0 319.0 C 352.9006367 307.72638436, 326.5774013 301.23104056, 300.0 300.0 Z" fill="rgb(140.0, 0, 120.0)"/>
<path d="M 300.0 300.0 C 312.54708093 323.28928567, 329.62632105 344.12595861, 350.0 361.0 C 370.5766545 378.04215133, 394.49918616 391.02866851, 420.0 399.0 C 407.77102281 375.22694682, 390.64268354 353.98780613, 370.0 337.0 C 349.48140336 320.11431064, 325.50949683 307.44344576, 300.0 300.0 Z" fill="rgb(140.0, 0, 120.0)"/>
<path d="M 300.0 300.0 C 306.16464526 325.84483769, 317.44596742 350.4586315, 333.0 372.0 C 348.56282095 393.55353985, 368.39115964 412.01440691, 391.0 426.0 C 384.83535474 400.15516231, 373.55403258 375.5413685, 358.0 354.0 C 342.43717905 332.44646015, 322.60884036 313.98559309, 300.0 300.0 Z" fill="rgb(140.0, 0, 120.0)"/>
<path d="M 300.0 300.0 C 299.50980234 326.58091698, 304.29633654 353.2487504, 314.0 378.0 C 323.74895615 402.86677819, 338.45390791 425.77914488, 357.0 445.0 C 357.74038449 418.08217083, 352.94529476 391.02416449, 343.0 366.0 C 333.2380255 341.43710253, 318.52469556 318.85385192, 300.0 300.0 Z" fill="rgb(140.0, 0, 120.0)"/>
<path d="M 300.0 300.0 C 292.86888338 325.60420979, 290.81762184 352.61248681, 294.0 379.0 C 297.21407005 405.6502947, 305.76527964 431.64597185, 319.0 455.0 C 326.3007453 429.08860576, 328.35410264 401.71050783, 325.0 375.0 C 321.69536473 348.68342727, 313.14623543 323.03603935, 300.0 300.0 Z" fill="rgb(140.0, 0, 120.0)"/>
<path d="M 300.0 300.0 C 286.37334903 322.89410142, 277.4674972 348.58405861, 274.0 375.0 C 270.49502829 401.70142808, 272.55142777 429.12008771, 280.0 455.0 C 293.08327876 431.57328474, 301.62091093 405.61888292, 305.0 379.0 C 308.34282855 352.66676047, 306.63617643 325.70165693, 300.0 300.0 Z" fill="rgb(140.0, 0, 120.0)"/>
<path d="M 300.0 300.0 C 282.87086297 312.85240631, 268.46488895 329.31637662, 258.0 348.0 C 247.51685368 366.71621941, 240.99922218 387.64124684, 239.0 409.0 C 255.58263785 395.43609156, 269.57366858 378.71510361, 280.0 360.0 C 290.31983251 341.47606029, 297.14150218 321.01105127, 300.0 300.0 Z" fill="rgb(168.75, 0, 145.3125)"/>
<path d="M 300.0 300.0 C 280.47955458 308.79214841, 262.70463583 321.43968676, 248.0 337.0 C 233.2971927 352.55837831, 221.67520243 371.01683345, 214.0 391.0 C 233.52044542 382.20785159, 251.29536417 369.56031324, 266.0 354.0 C 280.7028073 338.44162169, 292.32479757 319.98316655, 300.0 300.0 Z" fill="rgb(168.75, 0, 145.3125)"/>
<path d="M 300.0 300.0 C 278.77177305 303.10346291, 258.2028152 310.64541413, 240.0 322.0 C 221.86966352 333.30937496, 206.10360573 348.38995198, 194.0 366.0 C 214.84933521 362.6060231, 235.0186074 355.08527754, 253.0 344.0 C 271.3904211 332.6625621, 287.47594014 317.60377831, 300.0 300.0 Z" fill="rgb(168.75, 0, 145.3125)"/>
<path d="M 300.0 300.0 C 278.48752021 297.94542656, 256.55973653 300.3437779, 236.0 307.0 C 215.84390933 313.5255416, 197.01963573 324.13558672, 181.0 338.0 C 202.18752108 339.82302144, 223.72942316 337.42947676, 244.0 331.0 C 264.47151319 324.5067897, 283.62949296 313.90147947, 300.0 300.0 Z" fill="rgb(168.75, 0, 145.3125)"/>
<path d="M 300.0 300.0 C 279.55524449 292.76140444, 257.64820576 289.68072712, 236.0 291.0 C 214.88330935 292.28688158, 194.02975256 297.75666697, 175.0 307.0 C 195.13886607 314.09011025, 216.68145771 317.16762334, 238.0 316.0 C 259.45146786 314.82509628, 280.65881082 309.35223358, 300.0 300.0 Z" fill="rgb(168.75, 0, 145.3125)"/>
<path d="M 300.0 300.0 C 281.78977831 288.24525372, 261.29343383 280.04671593, 240.0 276.0 C 219.24747916 272.05608201, 197.75252084 272.05608201, 177.0 276.0 C 194.88102456 287.69051269, 215.0357633 295.88905048, 236.0 300.0 C 257.06603279 304.13091106, 278.93396721 304.13091106, 300.0 300.0 Z" fill="rgb(168.75, 0, 145.3125)"/>
<path d="M 300.0 300.0 C 285.27973711 284.19562109, 267.52903488 271.22395407, 248.0 262.0 C 228.58565607 252.83021676, 207.42719902 247.36996978, 186.0 246.0 C 200.72026289 261.80437891, 218.47096512 274.77604593, 238.0 284.0 C 257.41434393 293.16978324, 278.57280098 298.63003022, 300.0 300.0 Z" fill="rgb(168.75, 0, 145.3125)"/>
<path d="M 300.0 300.0 C 289.80939486 280.84756638, 275.78518829 263.74487544, 259.0 250.0 C 242.51222892 236.49867038, 223.37441121 226.24626804, 203.0 220.0 C 213.04157174 238.68685348, 226.70178288 255.42061213, 243.0 269.0 C 259.72390688 282.9340651, 279.21442161 293.5341696, 300.0 300.0 Z" fill="rgb(168.75, 0, 145.3125)"/>
<path d="M 300.0 300.0 C 294.79671978 279.18514302, 285.57793518 259.38182795, 273.0 242.0 C 260.34142853 224.50673833, 244.28900368 209.47893635, 226.0 198.0 C 231.20328022 218.81485698, 240.42206482 238.61817205, 253.0 256.0 C 265.65857147 273.49326167, 281.71099632 288.52106365, 300.0 300.0 Z" fill="rgb(168.75, 0, 145.3125)"/>
<path d="M 300.0 300.0 C 300.10479365 278.4892732, 296.00511905 256.96598153, 288.0 237.0 C 279.96733403 216.96531226, 268.00794047 198.51367649, 253.0 183.0 C 252.89520635 204.5107268, 256.99488095 226.03401847, 265.0 246.0 C 273.03266597 266.03468774, 284.99205953 284.48632351, 300.0 300.0 Z" fill="rgb(168.75, 0, 145.3125)"/>
<path d="M 300.0 300.0 C 305.36035592 279.17537622, 306.72569182 257.33000176, 304.0 236.0 C 301.27129065 214.64638448, 294.44425579 193.82392816, 284.0 175.0 C 277.99931697 195.69544294, 276.28616911 217.62373566, 279.0 239.0 C 281.72748939 260.48384935, 288.924686 281.38999191, 300.0 300.0 Z" fill="rgb(168.75, 0, 145.3125)"/>
<path d="M 300.0 300.0 C 310.59356171 281.24742181, 317.43385772 260.38451898, 320.0 239.0 C 322.56614228 217.61548102, 320.85606828 195.72653378, 315.0 175.0 C 304.40643829 193.75257819, 297.56614228 214.61548102, 295.0 236.0 C 292.43385772 257.38451898, 294.14393172 279.27346622, 300.0 300.0 Z" fill="rgb(168.75, 0, 145.3125)"/>
<path d="M 300.0 300.0 C 314.55658014 284.32116873, 326.15297461 265.90336575, 334.0 246.0 C 341.88689763 225.99550143, 345.98069088 204.50308685, 346.0 183.0 C 330.86076082 198.40154374, 318.87669208 216.8912498, 311.0 237.0 C 303.17262695 256.98284152, 299.40745399 278.54701388, 300.0 300.0 Z" fill="rgb(168.75, 0, 145.3125)"/>
<path d="M 300.0 300.0 C 317.87763633 288.34616846, 333.5635033 273.34229571, 346.0 256.0 C 358.49999295 238.5691608, 367.70903813 218.78676746, 373.0 198.0 C 354.61250126 209.34153765, 338.52795823 224.39940771, 326.0 242.0 C 313.63385347 259.3732622, 304.74196954 279.20900328, 300.0 300.0 Z" fill="rgb(168.75, 0, 145.3125)"/>
<path d="M 300.0 300.0 C 320.41628799 293.36677695, 339.54015699 282.78034947, 356.0 269.0 C 372.26349641 255.38403392, 385.91563948 238.66015865, 396.0 220.0 C 375.57302407 226.10661895, 356.40063376 236.37754233, 340.0 250.0 C 323.46804264 263.73153578, 309.76765402 280.85702155, 300.0 300.0 Z" fill="rgb(168.75, 0, 145.3125)"/>
<path d="M 300.0 300.0 C 321.08830668 298.49534302, 341.88808824 293.03966261, 361.0 284.0 C 380.52333944 274.76573795, 398.27164626 261.79582143, 413.0 246.0 C 391.55709883 247.24487334, 370.36755076 252.71314381, 351.0 262.0 C 331.76444495 271.22356346, 314.34019015 284.20634155, 300.0 300.0 Z" fill="rgb(168.75, 0, 145.3125)"/>
<path d="M 300.0 300.0 C 320.74105561 304.03402059, 342.25894439 304.03402059, 363.0 300.0 C 383.972632 295.92093908, 404.13522393 287.71920677, 422.0 276.0 C 401.25894439 271.96597941, 379.74105561 271.96597941, 359.0 276.0 C 338.027368 280.07906092, 317.86477607 288.28079323, 300.0 300.0 Z" fill="rgb(168.75, 0, 145.3125)"/>
<path d="M 300.0 300.0 C 319.00860008 309.29512253, 339.87631923 314.76862263, 361.0 316.0 C 382.31927346 317.24277919, 403.88147565 314.16246459, 424.0 307.0 C 404.99139992 297.70487747, 384.12368077 292.23137737, 363.0 291.0 C 341.68072654 289.75722081, 320.11852435 292.83753541, 300.0 300.0 Z" fill="rgb(168.75, 0, 145.3125)"/>
<path d="M 300.0 300.0 C 316.01018411 313.87692782, 334.83809737 324.48902439, 355.0 331.0 C 375.24378288 337.53741758, 396.81492504 339.93421115, 418.0 338.0 C 401.98981589 324.12307218, 383.16190263 313.51097561, 363.0 307.0 C 342.75621712 300.46258242, 321.18507496 298.06578885, 300.0 300.0 Z" fill="rgb(168.75, 0, 145.3125)"/>
<path d="M 300.0 300.0 C 312.12382088 317.59399519, 327.88480249 332.66971674, 346.0 344.0 C 363.91694815 355.20628675, 384.12014779 362.73968322, 405.0 366.0 C 392.87617912 348.40600481, 377.11519751 333.33028326, 359.0 322.0 C 341.08305185 310.79371325, 320.87985221 303.26031678, 300.0 300.0 Z" fill="rgb(168.75, 0, 145.3125)"/>
<path d="M 300.0 300.0 C 307.23252965 319.96834914, 318.52974665 338.45470423, 333.0 354.0 C 347.59427698 369.67853352, 365.40403713 382.35086286, 385.0 391.0 C 377.25928645 371.04711435, 365.64718572 352.60436613, 351.0 337.0 C 336.53968175 321.59471296, 319.13215753 308.9657248, 300.0 300.0 Z" fill="rgb(168.75, 0, 145.3125)"/>
<path d="M 300.0 300.0 C 302.38311285 320.97543532, 308.87500883 341.47615948, 319.0 360.0 C 329.28046735 378.80828679, 343.29991185 395.56323266, 360.0 409.0 C 357.89667774 387.65853743, 351.38764024 366.76110123, 341.0 348.0 C 330.73823639 329.46624436, 316.70157678 313.03308189, 300.0 300.0 Z" fill="rgb(168.75, 0, 145.3125)"/>
<path d="M 300.0 300.0 C 296.80869935 320.92113801, 297.83515818 342.47677353, 303.0 363.0 C 308.2755592 383.96317758, 317.86657232 403.83027617, 331.0 421.0 C 333.76985231 399.6728524, 332.40381736 377.81629325, 327.0 357.0 C 321.68603507 336.52983146, 312.47259606 317.079238, 300.0 300.0 Z" fill="rgb(168.75, 0, 145.3125)"/>
<path d="M 300.0 300.0 C 291.52112311 319.49880795, 287.06783102 340.73758566, 287.0 362.0 C 286.93110559 383.59574655, 291.38819923 405.19550801, 300.0 425.0 C 307.96601915 405.02122397, 312.06372815 383.5082517, 312.0 362.0 C 311.9372595 340.82508065, 307.84256272 319.6691473, 300.0 300.0 Z" fill="rgb(168.75, 0, 145.3125)"/>
<path d="M 300.0 300.0 C 287.06027016 316.92526227, 277.48698317 336.41373936, 272.0 357.0 C 266.45882998 377.78956081, 265.09053538 399.68227452, 268.0 421.0 C 280.98720973 403.73396228, 290.55807873 383.90859077, 296.0 363.0 C 301.33257683 342.5115252, 302.69849057 320.99838384, 300.0 300.0 Z" fill="rgb(168.75, 0, 145.3125)"/>
<path d="M 300.0 300.0 C 285.97279297 308.04320517, 273.63230389 319.01252879, 264.0 332.0 C 254.5183194 344.78438213, 247.66837798 359.51175618, 244.0 375.0 C 258.02720703 366.95679483, 270.36769611 355.98747121, 280.0 343.0 C 289.4816806 330.21561787, 296.33162202 315.48824382, 300.0 300.0 Z" fill="rgb(197.5, 0, 176.25)"/>
<path d="M 300.0 300.0 C 284.33923522 304.21881796, 269.58420382 311.76790379, 257.0 322.0 C 244.59214453 332.08870905, 234.30614802 344.7747714, 227.0 359.0 C 242.24478606 354.47000734, 256.59575062 346.95283542, 269.0 337.0 C 281.63138264 326.86491897, 292.23335976 314.21094628, 300.0 300.0 Z" fill="rgb(197.5, 0, 176.25)"/>
<path d="M 300.0 300.0 C 283.80196074 300.40576464, 267.69573674 304.17530643, 253.0 311.0 C 238.63400081 317.6715636, 225.62775889 327.25511028, 215.0 339.0 C 230.8493044 338.33045838, 246.56238785 334.5729819, 261.0 328.0 C 275.65819998 321.32659153, 288.99010088 311.75497038, 300.0 300.0 Z" fill="rgb(197.5, 0, 176.25)"/>
<path d="M 300.0 300.0 C 284.27984496 296.47580106, 267.85329291 296.13358122, 252.0 299.0 C 235.99404678 301.89402114, 220.5863945 308.05708206, 207.0 317.0 C 222.82604532 319.88646692, 239.17395468 319.88646692, 255.0 317.0 C 270.8607312 314.10720683, 286.18833064 308.31678037, 300.0 300.0 Z" fill="rgb(197.5, 0, 176.25)"/>
<path d="M 300.0 300.0 C 285.4847423 292.41657845, 269.3490609 287.95351764, 253.0 287.0 C 237.0748885 286.07120814, 220.96328423 288.47080877, 206.0 294.0 C 220.39967603 300.83688776, 236.09553751 304.93146032, 252.0 306.0 C 268.18693801 307.08751777, 284.5788183 305.03853273, 300.0 300.0 Z" fill="rgb(197.5, 0, 176.25)"/>
<path d="M 300.0 300.0 C 287.86573804 289.20466977, 273.46106365 280.97342727, 258.0 276.0 C 242.57585087 271.03844719, 226.11557802 269.32383543, 210.0 271.0 C 222.39934798 281.19981835, 236.7277611 289.0463303, 252.0 294.0 C 267.42984094 299.00478915, 283.8129753 301.05268095, 300.0 300.0 Z" fill="rgb(197.5, 0, 176.25)"/>
<path d="M 300.0 300.0 C 290.83781993 286.42073038, 278.8390811 274.76481267, 265.0 266.0 C 251.35978998 257.3611399, 235.94505641 251.53779611, 220.0 249.0 C 229.47296863 262.05346859, 241.41234392 273.31059386, 255.0 282.0 C 268.69125393 290.75565773, 284.04725907 296.89805978, 300.0 300.0 Z" fill="rgb(197.5, 0, 176.25)"/>
<path d="M 300.0 300.0 C 294.07250743 284.83375217, 285.19105233 270.82838067, 274.0 259.0 C 262.93461551 247.30444393, 249.61964548 237.74497827, 235.0 231.0 C 240.92749257 246.16624783, 249.80894767 260.17161933, 261.0 272.0 C 272.06538449 283.69555607, 285.38035452 293.25502173, 300.0 300.0 Z" fill="rgb(197.5, 0, 176.25)"/>
<path d="M 300.0 300.0 C 297.99466162 283.89762121, 292.87235706 268.18922053, 285.0 254.0 C 277.14638867 239.84456697, 266.56149783 227.21098758, 254.0 217.0 C 256.00533838 233.10237879, 261.12764294 248.81077947, 269.0 263.0 C 276.85361133 277.15543303, 287.43850217 289.78901242, 300.0 300.0 Z" fill="rgb(197.5, 0, 176.25)"/>
<path d="M 300.0 300.0 C 302.1558964 284.00989494, 301.13010484 267.59722998, 297.0 252.0 C 292.8907478 236.48151948, 285.71203001 221.78224019, 276.0 209.0 C 274.05175656 224.6702026, 275.07523323 240.7046704, 279.0 256.0 C 283.06473974 271.84082256, 290.24103736 286.87687473, 300.0 300.0 Z" fill="rgb(197.5, 0, 176.25)"/>
<path d="M 300.0 300.0 C 305.92823603 285.08831411, 309.0 269.04688002, 309.0 253.0 C 309.0 236.95311998, 305.92823603 220.91168589, 300.0 206.0 C 293.43128483 220.73768116, 290.0 236.86471986, 290.0 253.0 C 290.0 269.13528014, 293.43128483 285.26231884, 300.0 300.0 Z" fill="rgb(197.5, 0, 176.25)"/>
<path d="M 300.0 300.0 C 309.28742585 286.72436214, 316.10460766 271.72656218, 320.0 256.0 C 323.79463843 240.68020372, 324.81606041 224.67792599, 323.0 209.0 C 313.1477005 221.68872546, 305.94925785 236.42839374, 302.0 252.0 C 298.03502735 267.63356844, 297.34931025 284.09077896, 300.0 300.0 Z" fill="rgb(197.5, 0, 176.25)"/>
<path d="M 300.0 300.0 C 312.12951901 289.61849938, 322.3498515 277.01342265, 330.0 263.0 C 337.77195202 248.76345957, 342.88566231 233.08141466, 345.0 217.0 C 332.32315456 227.08535297, 321.70971965 239.7530011, 314.0 254.0 C 306.32052564 268.19110781, 301.52835471 283.9368123, 300.0 300.0 Z" fill="rgb(197.5, 0, 176.25)"/>
<path d="M 300.0 300.0 C 314.2304027 293.08456453, 327.17948274 283.54313713, 338.0 272.0 C 349.13299623 260.12351581, 358.00424137 246.13424463, 364.0 231.0 C 349.30516012 237.60485542, 335.95665997 247.18839399, 325.0 259.0 C 314.04093127 270.81420272, 305.48410191 284.84740288, 300.0 300.0 Z" fill="rgb(197.5, 0, 176.25)"/>
<path d="M 300.0 300.0 C 315.5994849 296.7471308, 330.59340068 290.61325617, 344.0 282.0 C 357.56765032 273.28327438, 369.50093491 262.03189177, 379.0 249.0 C 363.02355498 251.39924483, 347.57214915 257.23644258, 334.0 266.0 C 320.43380691 274.75971158, 308.75971158 286.43380691, 300.0 300.0 Z" fill="rgb(197.5, 0, 176.25)"/>
<path d="M 300.0 300.0 C 315.85758154 300.93742751, 331.88649641 298.89118306, 347.0 294.0 C 362.27612934 289.05618637, 376.60686102 281.20840474, 389.0 271.0 C 372.88870487 269.20747254, 356.39597614 270.92546511, 341.0 276.0 C 325.84753327 280.99427385, 311.77324177 289.23288351, 300.0 300.0 Z" fill="rgb(197.5, 0, 176.25)"/>
<path d="M 300.0 300.0 C 315.09466844 304.96418613, 331.14230936 307.01282114, 347.0 306.0 C 362.91123345 304.98375911, 378.61996358 300.88582951, 393.0 294.0 C 378.05885488 288.39574194, 361.92580835 285.99294778, 346.0 287.0 C 329.97781071 288.01314677, 314.18246219 292.47704962, 300.0 300.0 Z" fill="rgb(197.5, 0, 176.25)"/>
<path d="M 300.0 300.0 C 313.46765386 308.28337742, 328.46150178 314.07645503, 344.0 317.0 C 359.81511217 319.97558947, 376.18488783 319.97558947, 392.0 317.0 C 378.43261891 308.02353549, 363.01532045 301.85661611, 347.0 299.0 C 331.47222706 296.23034663, 315.39591639 296.57239579, 300.0 300.0 Z" fill="rgb(197.5, 0, 176.25)"/>
<path d="M 300.0 300.0 C 310.63123702 311.74129095, 323.63640773 321.32404832, 338.0 328.0 C 352.39296759 334.68960483, 368.13775126 338.45466179, 384.0 339.0 C 373.36876298 327.25870905, 360.36359227 317.67595168, 346.0 311.0 C 331.60703241 304.31039517, 315.86224874 300.54533821, 300.0 300.0 Z" fill="rgb(197.5, 0, 176.25)"/>
<path d="M 300.0 300.0 C 307.34527622 314.20153661, 317.62341263 326.87790486, 330.0 337.0 C 342.31837663 347.07448794, 356.70410329 354.60986858, 372.0 359.0 C 364.65472378 344.79846339, 354.37658737 332.12209514, 342.0 322.0 C 329.68162337 311.92551206, 315.29589671 304.39013142, 300.0 300.0 Z" fill="rgb(197.5, 0, 176.25)"/>
<path d="M 300.0 300.0 C 303.20856045 315.4580646, 309.73115855 330.21973399, 319.0 343.0 C 328.50030159 356.09941293, 340.87709939 367.10101098, 355.0 375.0 C 351.24948436 359.53734781, 344.40918835 344.83071139, 335.0 332.0 C 325.59081165 319.16928861, 313.62029363 308.22481499, 300.0 300.0 Z" fill="rgb(197.5, 0, 176.25)"/>
<path d="M 300.0 300.0 C 299.43644182 315.99263931, 302.17716803 332.09440582, 308.0 347.0 C 313.82672745 361.91556605, 322.73441071 375.61969414, 334.0 387.0 C 333.94939879 370.95637218, 330.88001299 354.92735748, 325.0 340.0 C 319.20499964 325.28846074, 310.68447333 311.65561865, 300.0 300.0 Z" fill="rgb(197.5, 0, 176.25)"/>
<path d="M 300.0 300.0 C 295.59015825 315.19916325, 294.2220685 331.27421775, 296.0 347.0 C 297.82431714 363.1360627, 302.96156223 378.89028098, 311.0 393.0 C 315.57907021 377.49463355, 316.94950514 361.04941439, 315.0 345.0 C 313.08053918 329.19792721, 307.94567502 313.79333473, 300.0 300.0 Z" fill="rgb(197.5, 0, 176.25)"/>
<path d="M 300.0 300.0 C 291.57443506 313.64793407, 286.08163116 329.09644503, 284.0 345.0 C 281.90037616 361.04101812, 283.27427142 377.52776125, 288.0 393.0 C 295.88338595 378.81601132, 301.00665461 363.10465409, 303.0 347.0 C 304.9396364 331.329272, 303.91629639 315.29694505, 300.0 300.0 Z" fill="rgb(197.5, 0, 176.25)"/>
<path d="M 300.0 300.0 C 288.86436488 311.49171474, 279.98130044 325.15796772, 274.0 340.0 C 268.00009854 354.88818895, 264.92472382 370.94847916, 265.0 387.0 C 276.13563512 375.50828526, 285.01869956 361.84203228, 291.0 347.0 C 296.99990146 332.11181105, 300.07527618 316.05152084, 300.0 300.0 Z" fill="rgb(197.5, 0, 176.25)"/>
<path d="M 300.0 300.0 C 290.24555552 304.17931746, 281.3454056 310.34095971, 274.0 318.0 C 266.58786955 325.72861417, 260.76574696 334.97551474, 257.0 345.0 C 266.75444448 340.82068254, 275.6545944 334.65904029, 283.0 327.0 C 290.41213045 319.27138583, 296.23425304 310.02448526, 300.0 300.0 Z" fill="rgb(226.25, 0, 212.8125)"/>
<path d="M 300.0 300.0 C 289.38588652 301.55173146, 279.1014076 305.32270706, 270.0 311.0 C 260.93483176 316.65468748, 253.05180286 324.19497599, 247.0 333.0 C 257.23457993 331.16405595, 267.12242219 327.4134951, 276.0 322.0 C 285.3242995 316.31409663, 293.52627404 308.79561996, 300.0 300.0 Z" fill="rgb(226.25, 0, 212.8125)"/>
<path d="M 300.0 300.0 C 289.2818586 298.71856223, 278.29320181 299.74874881, 268.0 303.0 C 257.67144542 306.26241786, 248.05442617 311.75785743, 240.0 319.0 C 250.79136738 319.65668502, 261.70232024 318.29281592, 272.0 315.0 C 282.1412934 311.75719064, 291.68191985 306.64614076, 300.0 300.0 Z" fill="rgb(226.25, 0, 212.8125)"/>
<path d="M 300.0 300.0 C 289.82475223 296.17038045, 278.85848501 294.4569012, 268.0 295.0 C 257.26819715 295.53676266, 246.651377 298.27658721, 237.0 303.0 C 247.17524777 306.82961955, 258.14151499 308.5430988, 269.0 308.0 C 279.73180285 307.46323734, 290.348623 304.72341279, 300.0 300.0 Z" fill="rgb(226.25, 0, 212.8125)"/>
<path d="M 300.0 300.0 C 290.88687409 294.13700991, 280.64260158 290.0393009, 270.0 288.0 C 259.46107992 285.98056621, 248.53892008 285.98056621, 238.0 288.0 C 247.11312591 293.86299009, 257.35739842 297.9606991, 268.0 300.0 C 278.53892008 302.01943379, 289.46107992 302.01943379, 300.0 300.0 Z" fill="rgb(226.25, 0, 212.8125)"/>
<path d="M 300.0 300.0 C 292.63986856 292.09781054, 283.76451744 285.61197704, 274.0 281.0 C 264.29282803 276.41510838, 253.71359951 273.68498489, 243.0 273.0 C 250.36013144 280.90218946, 259.23548256 287.38802296, 269.0 292.0 C 278.70717197 296.58489162, 289.28640049 299.31501511, 300.0 300.0 Z" fill="rgb(226.25, 0, 212.8125)"/>
<path d="M 300.0 300.0 C 294.69369045 290.42053125, 287.51977602 281.88015692, 279.0 275.0 C 270.71391823 268.3085632, 261.16127514 263.19107583, 251.0 260.0 C 256.15053806 269.11598523, 262.9622427 277.29003081, 271.0 284.0 C 279.52726586 291.11861395, 289.43069802 296.58257652, 300.0 300.0 Z" fill="rgb(226.25, 0, 212.8125)"/>
<path d="M 300.0 300.0 C 297.12371265 289.598004, 292.35604187 279.72211451, 286.0 271.0 C 279.71873483 262.38049824, 271.89002242 254.89216463, 263.0 249.0 C 265.32956713 259.40779923, 269.78018663 269.33610426, 276.0 278.0 C 282.37407522 286.87877495, 290.60150823 294.42058855, 300.0 300.0 Z" fill="rgb(226.25, 0, 212.8125)"/>
<path d="M 300.0 300.0 C 300.17828389 289.07499677, 298.12391107 278.11834168, 294.0 268.0 C 289.88991518 257.9155821, 283.72789159 248.67254672, 276.0 241.0 C 275.82171611 251.92500323, 277.87608893 262.88165832, 282.0 273.0 C 286.11008482 283.0844179, 292.27210841 292.32745328, 300.0 300.0 Z" fill="rgb(226.25, 0, 212.8125)"/>
<path d="M 300.0 300.0 C 302.64014567 289.58009545, 303.32217976 278.66754989, 302.0 268.0 C 300.6565146 257.16055293, 297.24384189 246.58126755, 292.0 237.0 C 288.72558634 247.28763753, 287.69476915 258.2830208, 289.0 269.0 C 290.33632511 279.97228772, 294.12145366 290.6394682, 300.0 300.0 Z" fill="rgb(226.25, 0, 212.8125)"/>
<path d="M 300.0 300.0 C 305.39628812 290.49104605, 308.82248126 279.8698473, 310.0 269.0 C 311.16166092 258.2765385, 310.13455029 247.3206917, 307.0 237.0 C 301.60371188 246.50895395, 298.17751874 257.1301527, 297.0 268.0 C 295.83833908 278.7234615, 296.86544971 289.6793083, 300.0 300.0 Z" fill="rgb(226.25, 0, 212.8125)"/>
<path d="M 300.0 300.0 C 307.27816136 292.16047898, 313.07633664 282.95161236, 317.0 273.0 C 321.00475559 262.8427129, 323.05311347 251.91813754, 323.0 241.0 C 315.14381389 248.5583911, 308.95536636 257.8410624, 305.0 268.0 C 301.05227298 278.13931677, 299.33346241 289.13970438, 300.0 300.0 Z" fill="rgb(226.25, 0, 212.8125)"/>
<path d="M 300.0 300.0 C 308.98811655 294.23971335, 316.84612504 286.7233574, 323.0 278.0 C 329.14464088 269.28973226, 333.58579881 259.3825338, 336.0 249.0 C 327.01188345 254.76028665, 319.15387496 262.2766426, 313.0 271.0 C 306.85535912 279.71026774, 302.41420119 289.6174662, 300.0 300.0 Z" fill="rgb(226.25, 0, 212.8125)"/>
<path d="M 300.0 300.0 C 310.19786368 296.41756082, 319.73621392 290.96707497, 328.0 284.0 C 336.00274581 277.2530042, 342.80672879 269.08822462, 348.0 260.0 C 337.78651204 263.05330948, 328.20031688 268.18877117, 320.0 275.0 C 311.73402132 281.86576789, 304.88382701 290.42851077, 300.0 300.0 Z" fill="rgb(226.25, 0, 212.8125)"/>
<path d="M 300.0 300.0 C 310.37441362 299.18097616, 320.59528918 296.45540934, 330.0 292.0 C 339.75843353 287.37701725, 348.63123094 280.89304991, 356.0 273.0 C 345.27069908 273.55782394, 334.65937912 276.2962291, 325.0 281.0 C 315.52862238 285.61222092, 306.97977035 292.10934847, 300.0 300.0 Z" fill="rgb(226.25, 0, 212.8125)"/>
<path d="M 300.0 300.0 C 310.21355172 301.92474227, 320.78644828 301.92474227, 331.0 300.0 C 341.65088129 297.99284304, 351.90304668 293.89197688, 361.0 288.0 C 350.47323138 285.88694242, 339.52676862 285.88694242, 329.0 288.0 C 318.67824929 290.07190396, 308.76782274 294.17277011, 300.0 300.0 Z" fill="rgb(226.25, 0, 212.8125)"/>
<path d="M 300.0 300.0 C 309.31953004 304.66327099, 319.59595727 307.40365158, 330.0 308.0 C 340.85975597 308.6224694, 351.84775405 306.9055947, 362.0 303.0 C 352.37186397 298.21995336, 341.73886942 295.47595477, 331.0 295.0 C 320.47035815 294.53331836, 309.84895888 296.24644727, 300.0 300.0 Z" fill="rgb(226.25, 0, 212.8125)"/>
<path d="M 300.0 300.0 C 307.9586721 306.6261883, 317.16940958 311.74326468, 327.0 315.0 C 337.26961713 318.40217865, 348.20891173 319.76959047, 359.0 319.0 C 350.95807754 311.74180653, 341.33603501 306.24349651, 331.0 303.0 C 321.02314105 299.86921463, 310.39205753 298.8404001, 300.0 300.0 Z" fill="rgb(226.25, 0, 212.8125)"/>
<path d="M 300.0 300.0 C 306.07290316 308.78825326, 313.95064862 316.32348805, 323.0 322.0 C 331.81551701 327.52983143, 341.73471445 331.29228563, 352.0 333.0 C 345.92709684 324.21174674, 338.04935138 316.67651195, 329.0 311.0 C 320.18448299 305.47016857, 310.26528555 301.70771437, 300.0 300.0 Z" fill="rgb(226.25, 0, 212.8125)"/>
<path d="M 300.0 300.0 C 303.322518 310.00482749, 308.81967519 319.28128025, 316.0 327.0 C 323.23565029 334.77819365, 332.17266184 340.96535549, 342.0 345.0 C 338.16856541 335.0055763, 332.35663039 325.77485597, 325.0 318.0 C 317.90018168 310.49655591, 309.36790832 304.35331909, 300.0 300.0 Z" fill="rgb(226.25, 0, 212.8125)"/>
<path d="M 300.0 300.0 C 300.83772026 310.48531187, 303.92764983 320.7850771, 309.0 330.0 C 314.16602531 339.38510224, 321.38370733 347.63388169, 330.0 354.0 C 328.58227728 343.49217278, 325.17051816 333.25689541, 320.0 324.0 C 314.89263427 314.8561678, 308.07293293 306.6725262, 300.0 300.0 Z" fill="rgb(226.25, 0, 212.8125)"/>
<path d="M 300.0 300.0 C 298.21259097 310.25674462, 298.5552694 320.87977602, 301.0 331.0 C 303.53964978 341.51315208, 308.3475358 351.47234454, 315.0 360.0 C 316.36472533 349.33511941, 315.68202778 338.41195852, 313.0 328.0 C 310.41880652 317.97949251, 305.9889774 308.4383221, 300.0 300.0 Z" fill="rgb(226.25, 0, 212.8125)"/>
<path d="M 300.0 300.0 C 295.41030736 309.64469974, 293.0 320.31891805, 293.0 331.0 C 293.0 341.68108195, 295.41030736 352.35530026, 300.0 362.0 C 303.9511455 352.17524305, 306.0 341.58949479, 306.0 331.0 C 306.0 320.41050521, 303.9511455 309.82475695, 300.0 300.0 Z" fill="rgb(226.25, 0, 212.8125)"/>
<path d="M 300.0 300.0 C 293.54487762 308.28596118, 288.75569552 317.86432539, 286.0 328.0 C 283.1767046 338.38431254, 282.4916641 349.3449605, 284.0 360.0 C 290.50301086 351.3731453, 295.28971648 341.45782652, 298.0 331.0 C 300.61332104 320.91631025, 301.2959282 310.33589937, 300.0 300.0 Z" fill="rgb(226.25, 0, 212.8125)"/>
<path d="M 300.0 300.0 C 291.4979087 306.4979904, 284.31188987 314.71058335, 279.0 324.0 C 273.73328619 333.21041289, 270.31287669 343.47164141, 269.0 354.0 C 277.5020913 347.5020096, 284.68811013 339.28941665, 290.0 330.0 C 295.26671381 320.78958711, 298.68712331 310.52835859, 300.0 300.0 Z" fill="rgb(226.25, 0, 212.8125)"/>
<path d="M 300.0 300.0 C 294.55778923 301.16246719, 289.38666863 303.5756568, 285.0 307.0 C 280.86437257 310.22837417, 277.42968112 314.3500039, 275.0 319.0 C 280.03434704 317.52686837, 284.80088647 315.14359865, 289.0 312.0 C 293.36907433 308.72916293, 297.12070839 304.63647123, 300.0 300.0 Z" fill="rgb(255.0, 0, 255.0)"/>
<path d="M 300.0 300.0 C 294.53032327 299.73216332, 289.00112389 300.7688882, 284.0 303.0 C 278.96056152 305.24820478, 274.4656301 308.70584433, 271.0 313.0 C 276.51842673 312.66377091, 281.97257449 311.30023397, 287.0 309.0 C 291.81759398 306.79577176, 296.24104929 303.73337962, 300.0 300.0 Z" fill="rgb(255.0, 0, 255.0)"/>
<path d="M 300.0 300.0 C 294.82698883 298.49559375, 289.32007334 298.15141154, 284.0 299.0 C 278.63799473 299.8552769, 273.47267754 301.92140377, 269.0 305.0 C 274.28668942 305.86313297, 279.71331058 305.86313297, 285.0 305.0 C 290.22382869 304.14713001, 295.30921505 302.45200122, 300.0 300.0 Z" fill="rgb(255.0, 0, 255.0)"/>
<path d="M 300.0 300.0 C 295.18919541 297.04615566, 289.63669379 295.3109989, 284.0 295.0 C 278.52939717 294.698165, 272.98967071 295.73686371, 268.0 298.0 C 273.02214008 300.31391991, 278.47979644 301.678334, 284.0 302.0 C 289.39565788 302.31440864, 294.84775526 301.63289646, 300.0 300.0 Z" fill="rgb(255.0, 0, 255.0)"/>
<path d="M 300.0 300.0 C 295.92049176 296.44687992, 291.13228456 293.71076152, 286.0 292.0 C 280.86771544 290.28923848, 275.39547864 289.60520888, 270.0 290.0 C 274.07950824 293.55312008, 278.86771544 296.28923848, 284.0 298.0 C 289.13228456 299.71076152, 294.60452136 300.39479112, 300.0 300.0 Z" fill="rgb(255.0, 0, 255.0)"/>
<path d="M 300.0 300.0 C 297.0378909 295.11652284, 292.88347716 290.9621091, 288.0 288.0 C 283.45597578 285.24378859, 278.28894623 283.5214454, 273.0 283.0 C 276.29083244 287.35201374, 280.37878953 291.09930774, 285.0 294.0 C 289.5858161 296.87847553, 294.69408108 298.92178153, 300.0 300.0 Z" fill="rgb(255.0, 0, 255.0)"/>
<path d="M 300.0 300.0 C 297.98394768 294.79080891, 294.90205826 289.9967587, 291.0 286.0 C 287.29548438 282.20557817, 282.85556833 279.13179014, 278.0 277.0 C 280.31855961 281.75570742, 283.36479083 286.15581919, 287.0 290.0 C 290.77193128 293.98876246, 295.17716916 297.37740698, 300.0 300.0 Z" fill="rgb(255.0, 0, 255.0)"/>
<path d="M 300.0 300.0 C 299.54927583 294.38387437, 297.82726981 288.87345512, 295.0 284.0 C 292.25571936 279.26959597, 288.4743706 275.14448823, 284.0 272.0 C 284.73244327 277.24917676, 286.43644856 282.36119263, 289.0 287.0 C 291.76353784 292.00068752, 295.52570064 296.44687992, 300.0 300.0 Z" fill="rgb(255.0, 0, 255.0)"/>
<path d="M 300.0 300.0 C 300.652162 294.66568168, 300.31128209 289.21160306, 299.0 284.0 C 297.64552983 278.61674879, 295.25582483 273.49595237, 292.0 269.0 C 291.347838 274.33431832, 291.68871791 279.78839694, 293.0 285.0 C 294.35447017 290.38325121, 296.74417517 295.50404763, 300.0 300.0 Z" fill="rgb(255.0, 0, 255.0)"/>
<path d="M 300.0 300.0 C 301.9770448 294.91322848, 303.0 289.45746742, 303.0 284.0 C 303.0 278.54253258, 301.9770448 273.08677152, 300.0 268.0 C 297.38689426 272.89957326, 296.0 278.4471503, 296.0 284.0 C 296.0 289.5528497, 297.38689426 295.10042674, 300.0 300.0 Z" fill="rgb(255.0, 0, 255.0)"/>
<path d="M 300.0 300.0 C 302.78129164 295.36188574, 304.81533928 290.27676663, 306.0 285.0 C 307.17547049 279.76416889, 307.51439058 274.34144743, 307.0 269.0 C 303.59474417 273.39933672, 301.18443681 278.56428107, 300.0 284.0 C 298.85575862 289.2512506, 298.85575862 294.7487494, 300.0 300.0 Z" fill="rgb(255.0, 0, 255.0)"/>
<path d="M 300.0 300.0 C 304.03805864 296.27538274, 307.43578275 291.85834141, 310.0 287.0 C 312.47115059 282.31798906, 314.16771391 277.22829911, 315.0 272.0 C 310.42077976 275.01338918, 306.60457614 279.17652039, 304.0 284.0 C 301.36052201 288.88811521, 299.97133834 294.44484987, 300.0 300.0 Z" fill="rgb(255.0, 0, 255.0)"/>
<path d="M 300.0 300.0 C 304.42397634 297.22449121, 308.47222513 293.85095056, 312.0 290.0 C 315.57115219 286.10169838, 318.60823525 281.71480062, 321.0 277.0 C 316.07484926 278.99415071, 311.60017812 282.09199995, 308.0 286.0 C 304.32730584 289.98671634, 301.57011089 294.81180751, 300.0 300.0 Z" fill="rgb(255.0, 0, 255.0)"/>
<path d="M 300.0 300.0 C 304.95107432 298.77779042, 309.70041767 296.74235756, 314.0 294.0 C 318.59813433 291.06722014, 322.67920388 287.32623972, 326.0 283.0 C 320.68812281 283.38298801, 315.47929456 285.1192641, 311.0 288.0 C 306.38532804 290.96780018, 302.55608224 295.14515924, 300.0 300.0 Z" fill="rgb(255.0, 0, 255.0)"/>
<path d="M 300.0 300.0 C 305.06625216 300.27656287, 310.1831967 299.5943036, 315.0 298.0 C 320.13660648 296.29984542, 324.92743584 293.56222864, 329.0 290.0 C 323.60627487 289.48473994, 318.10093111 290.1729079, 313.0 292.0 C 308.17528303 293.72815552, 303.71695978 296.47173905, 300.0 300.0 Z" fill="rgb(255.0, 0, 255.0)"/>
<path d="M 300.0 300.0 C 304.82518207 301.56216578, 309.93408216 302.24335246, 315.0 302.0 C 320.52681344 301.73450741, 325.99846221 300.36659522, 331.0 298.0 C 326.04222976 295.64977674, 320.47241767 294.60543697, 315.0 295.0 C 309.68812281 295.38298801, 304.47929456 297.1192641, 300.0 300.0 Z" fill="rgb(255.0, 0, 255.0)"/>
<path d="M 300.0 300.0 C 304.34891517 302.4221806, 309.10058924 304.11920705, 314.0 305.0 C 319.27696614 305.94866807, 324.72303386 305.94866807, 330.0 305.0 C 325.55324348 301.87733971, 320.37362389 299.80549188, 315.0 299.0 C 310.00575239 298.25137562, 304.85067581 298.59504739, 300.0 300.0 Z" fill="rgb(255.0, 0, 255.0)"/>
<path d="M 300.0 300.0 C 303.38283268 303.72269671, 307.47901801 306.79483571, 312.0 309.0 C 316.9771363 311.42765914, 322.46598132 312.79987039, 328.0 313.0 C 324.53921021 308.70126728, 320.04262083 305.24235237, 315.0 303.0 C 310.30271221 300.9112103, 305.13933861 299.87853558, 300.0 300.0 Z" fill="rgb(255.0, 0, 255.0)"/>
<path d="M 300.0 300.0 C 302.46208693 304.62990052, 305.88998238 308.74337506, 310.0 312.0 C 314.11855262 315.26338775, 318.91815823 317.66319056, 324.0 319.0 C 321.53791307 314.37009948, 318.11001762 310.25662494, 314.0 307.0 C 309.88144738 303.73661225, 305.08184177 301.33680944, 300.0 300.0 Z" fill="rgb(255.0, 0, 255.0)"/>
<path d="M 300.0 300.0 C 301.01609764 305.01087412, 303.07219298 309.80842991, 306.0 314.0 C 309.13228811 318.4843137, 313.26074927 322.26873643, 318.0 325.0 C 316.74551753 319.58541611, 314.34406461 314.43944556, 311.0 310.0 C 308.00100818 306.01865918, 304.24829777 302.60710427, 300.0 300.0 Z" fill="rgb(255.0, 0, 255.0)"/>
<path d="M 300.0 300.0 C 299.61298449 305.06632575, 300.29908309 310.21206524, 302.0 315.0 C 303.87361658 320.27406947, 306.97978484 325.10588676, 311.0 329.0 C 311.02054012 323.54128647, 309.99664116 318.08049204, 308.0 313.0 C 306.12915231 308.23959188, 303.40654885 303.81536126, 300.0 300.0 Z" fill="rgb(255.0, 0, 255.0)"/>
<path d="M 300.0 300.0 C 298.31077277 304.79118086, 297.6251163 309.93360435, 298.0 315.0 C 298.41595562 320.62146541, 300.14110777 326.14195228, 303.0 331.0 C 304.85682679 325.90737948, 305.54612553 320.39298956, 305.0 315.0 C 304.46465753 309.71349309, 302.74363017 304.55041101, 300.0 300.0 Z" fill="rgb(255.0, 0, 255.0)"/>
<path d="M 300.0 300.0 C 296.77935536 304.38777738, 294.69386242 309.60150973, 294.0 315.0 C 293.30749707 320.387913, 294.00254934 325.9483312, 296.0 331.0 C 298.68493232 326.05918198, 300.39390919 320.59045599, 301.0 315.0 C 301.54286752 309.99270253, 301.20274889 304.89092304, 300.0 300.0 Z" fill="rgb(255.0, 0, 255.0)"/>
<path d="M 300.0 300.0 C 296.14600248 303.65029092, 293.06006517 308.10775592, 291.0 313.0 C 288.8781074 318.03907189, 287.84771106 323.53451907, 288.0 329.0 C 291.87164137 324.97743379, 294.94784142 320.19223371, 297.0 315.0 C 298.88428378 310.23251182, 299.90568958 305.12548285, 300.0 300.0 Z" fill="rgb(255.0, 0, 255.0)"/>
<path d="M 300.0 300.0 C 295.3500039 302.42968112, 291.22837417 305.86437257, 288.0 310.0 C 284.5756568 314.38666863, 282.16246719 319.55778923, 281.0 325.0 C 285.63647123 322.12070839, 289.72916293 318.36907433, 293.0 314.0 C 296.14359865 309.80088647, 298.52686837 305.03434704, 300.0 300.0 Z" fill="rgb(255.0, 0, 255.0)"/>
</svg>
