<svg version="1.1"
     xmlns="http://www.w3.org/2000/svg"
     width="400"
     height="600">

<rect x="0" y="0" width="400" height="600" fill="rgb(145, 25, 25)"/>
<rect x="0" y="0" width="400" height="560" fill="rgb(19, 19, 139)"/>
<rect x="0" y="0" width="400" height="520" fill="rgb(138, 18, 18)"/>
<rect x="0" y="0" width="400" height="480" fill="rgb(22, 22, 142)"/>
<rect x="0" y="0" width="400" height="440" fill="rgb(141, 21, 21)"/>
<rect x="0" y="0" width="400" height="400" fill="rgb(19, 19, 139)"/>
<rect x="0" y="0" width="400" height="360" fill="rgb(145, 25, 25)"/>
<rect x="0" y="0" width="400" height="320" fill="rgb(15, 15, 135)"/>
<rect x="0" y="0" width="400" height="280" fill="rgb(150, 30, 30)"/>
<rect x="0" y="0" width="400" height="240" fill="rgb(14, 14, 134)"/>
<rect x="0" y="0" width="400" height="200" fill="rgb(149, 29, 29)"/>
<rect x="0" y="0" width="400" height="160" fill="rgb(18, 18, 138)"/>
<rect x="0" y="0" width="400" height="120" fill="rgb(143, 23, 23)"/>
<rect x="0" y="0" width="400" height="80" fill="rgb(17, 17, 137)"/>
<rect x="0" y="0" width="400" height="40" fill="rgb(144, 24, 24)"/>
<path d="M 260.0 300.0 C 284.07379853 303.59520961, 306.57908937 316.78454105, 321.4804533 336.03090853 C 336.38181722 355.27727601, 343.51491387 380.36842011, 340.96680512 404.57545317 C 338.41869638 428.78248624, 326.21748418 451.83843992, 307.63526267 467.56021946 C 289.05304117 483.28199901, 264.29474522 491.49621605, 240.0 490.0 C 212.5061688 488.30676506, 187.10266264 474.92173513, 160.0 470.0 C 138.36212374 466.07064822, 115.74157872 467.68068578, 94.87836361 474.63509082 C 74.01514849 481.58949586, 54.95268994 493.87379282, 40.0 510.0 C 62.19673439 522.41475141, 85.70191492 532.48840021, 110.0 540.0 C 156.37618831 554.33690618, 206.9199208 559.1220685, 253.39939993 545.12364926 C 276.63913949 538.12443964, 298.58236681 526.4449626, 316.6330979 510.22011939 C 334.68382899 493.99527618, 348.75026777 473.16281099, 356.0 450.0 C 366.49026536 416.483723, 361.97479706 378.5712645, 343.90591056 348.45645366 C 325.83702406 318.34164282, 294.50978105 296.51624916, 260.0 290.0 L 260.0 300.0 Z" fill="orangered" stroke="black" stroke-width="4"/>
<path d=" M 153.09106922 550.12849522 L 145.43493366 548.81748009 L 136.47188854 546.99624443 L 127.57034588 544.91057014 L 118.74236393 542.57398129 L 110.0 540.0 L 100.9263916 537.06348515 L 91.93316078 533.88936806 L 83.02634716 530.48023701 L 74.21199322 526.83868122 L 65.49613953 522.96729088 L 56.88482857 518.86865425 L 48.38410187 514.54536057 L 40.0 510.0 L 45.79539394 504.1356678 L 51.94902039 498.64895248 L 58.43381977 493.55729008 L 65.22273445 488.87811947 L 72.28870487 484.62887669 L 79.60467243 480.82699871 L 87.14357758 477.48992443 L 94.87836266 474.63508987 L 102.77909184 472.27808666 L 110.8124609 470.42440224 L 118.94636154 469.07632446 L 127.14868355 468.23613644 L 135.38731766 467.90612411 L 143.63015461 468.08857441 L 151.84508514 468.78577042 L 152.74712753 468.92008018 L 153.11697865 469.94317627 L 153.63161469 471.42726326 L 154.12678146 472.91796017 L 154.60239315 474.41501045 L 155.05836773 475.91815853 L 155.49462795 477.42714596 L 155.91109848 478.94171429 L 156.30770874 480.46160412 L 156.68439007 481.98655605 L 157.04107761 483.51630688 L 157.3777113 485.05059624 L 157.69423294 486.58916092 L 157.99058819 488.13173676 L 158.26672649 489.67805862 L 158.52260017 491.22786331 L 158.75816631 492.78088474 L 158.97338295 494.33685684 L 159.1682148 495.89551163 L 159.34262657 497.45658398 L 159.49659061 499.01980495 L 159.63007927 500.58490849 L 159.7430706 502.15162373 L 159.83554363 503.7196846 L 159.90748405 505.28882122 L 159.95887852 506.8587656 L 159.98971844 508.42924786 L 160.0 510.0 L 159.98971844 511.57075119 L 159.95887852 513.14123344 L 159.90748405 514.71117783 L 159.83554363 516.28031445 L 159.7430706 517.84837532 L 159.63007927 519.41509056 L 159.49659061 520.98019409 L 159.34262657 522.54341507 L 159.1682148 524.10448742 L 158.97338295 525.6631422 L 158.75816631 527.2191143 L 158.52260017 528.77213573 L 158.26672649 530.32194042 L 157.99058819 531.86826229 L 157.69423294 533.41083813 L 157.3777113 534.94940281 L 157.04107761 536.48369217 L 156.68439007 538.01344299 L 156.30770874 539.53839493 L 155.91109848 541.05828476 L 155.49462795 542.57285309 L 155.05836773 544.08184052 L 154.60239315 545.58498859 L 154.12678146 547.08203888 L 153.63161469 548.57273579 L 153.11697865 550.05682278 Z" fill="white" stroke="black" stroke-width="4"/>
<path d="M 200.0 150.0 C 192.5365953 150.0, 185.13080165 152.08393185, 178.56907707 155.64007869 C 172.00735249 159.19622553, 166.27527634 164.19650591, 161.56108899 169.98259676 C 152.13271429 181.55477848, 146.82900894 196.01942801, 143.93286583 210.66258321 C 138.14057959 239.9488936, 140.0 270.14638118, 140.0 300.0 L 140.0 390.0 C 140.0 401.66562575, 138.93471882 413.38042667, 140.17820278 424.97958921 C 140.79994476 430.77917048, 142.25718989 436.62642323, 145.52216848 441.45980929 C 147.15465778 443.87650232, 149.23912846 446.0090004, 151.71898877 447.54383568 C 154.19884908 449.07867096, 157.08359356 450.0, 160.0 450.0 C 162.91640644 450.0, 165.80115092 449.07867096, 168.28101123 447.54383568 C 170.76087155 446.0090004, 172.84534222 443.87650232, 174.47783152 441.45980929 C 177.74281011 436.62642322, 179.20005525 430.77917048, 179.82179723 424.97958921 C 181.06528118 413.38042667, 180.0 401.66562575, 180.0 390.0 L 180.0 320.0 C 180.0 314.76401224, 182.15546193 309.56026682, 185.85786438 305.85786438 C 189.56026682 302.15546193, 194.76401224 300.0, 200.0 300.0 C 205.23598776 300.0, 210.43973318 302.15546193, 214.14213562 305.85786438 C 217.84453807 309.56026682, 220.0 314.76401224, 220.0 320.0 L 220.0 390.0 C 220.0 401.66562575, 218.93471882 413.38042667, 220.17820278 424.97958921 C 220.79994476 430.77917048, 222.25718989 436.62642323, 225.52216848 441.45980929 C 227.15465778 443.87650232, 229.23912846 446.0090004, 231.71898877 447.54383568 C 234.19884908 449.07867096, 237.08359356 450.0, 240.0 450.0 C 242.91640644 450.0, 245.80115092 449.07867096, 248.28101123 447.54383568 C 250.76087155 446.0090004, 252.84534222 443.87650232, 254.47783152 441.45980929 C 257.74281011 436.62642322, 259.20005525 430.77917048, 259.82179723 424.97958921 C 261.06528118 413.38042667, 260.0 401.66562575, 260.0 390.0 L 260.0 300.0 C 260.0 270.14638118, 261.85942041 239.9488936, 256.06713417 210.6625832 C 253.17099105 196.01942801, 247.86728571 181.55477848, 238.43891101 169.98259676 C 233.72472366 164.19650591, 227.99264751 159.19622553, 221.43092293 155.64007869 C 214.86919835 152.08393185, 207.4634047 150.0, 200.0 150.0 Z" fill="orangered" stroke="black" stroke-width="4"/>
<path d=" M 240.0 450.0 L 237.82446289 449.83205986 L 235.69578934 449.34748077 L 233.64896774 448.57511997 L 231.71898842 447.54383564 L 229.93411255 446.28554535 L 228.30281448 444.83251858 L 225.52216816 441.45980835 L 223.39719296 437.66125584 L 221.8589716 433.58202171 L 220.81635666 429.32162666 L 220.17820263 424.97958851 L 219.62576294 416.26111031 L 219.62279415 407.51471806 L 220.0 390.0 L 220.0 350.0 L 260.0 350.0 L 260.0 390.0 L 260.3772049 407.51471806 L 260.37423611 416.26111031 L 259.82179642 424.97958851 L 259.18364239 429.32162666 L 258.14102745 433.58202171 L 256.60280609 437.66125584 L 254.47783089 441.45980835 L 251.69718456 444.83251858 L 250.0658865 446.28554535 L 248.28101063 447.54383564 L 246.3510313 448.57511997 L 244.30420971 449.34748077 L 242.17553616 449.83205986 Z M 160.0 450.0 L 157.82446289 449.83205986 L 155.69578934 449.34748077 L 153.64896774 448.57511997 L 151.71898842 447.54383564 L 149.93411255 446.28554535 L 148.30281448 444.83251858 L 145.52216816 441.45980835 L 143.39719296 437.66125584 L 141.8589716 433.58202171 L 140.81635666 429.32162666 L 140.17820263 424.97958851 L 139.62576294 416.26111031 L 139.62279415 407.51471806 L 140.0 390.0 L 140.0 350.0 L 180.0 350.0 L 180.0 390.0 L 180.3772049 407.51471806 L 180.37423611 416.26111031 L 179.82179642 424.97958851 L 179.18364239 429.32162666 L 178.14102745 433.58202171 L 176.60280609 437.66125584 L 174.47783089 441.45980835 L 171.69718456 444.83251858 L 170.0658865 446.28554535 L 168.28101063 447.54383564 L 166.3510313 448.57511997 L 164.30420971 449.34748077 L 162.17553616 449.83205986 Z" fill="white" stroke="black" stroke-width="4"/>
<path d="M 200.0 210.0 C 203.83419146 210.0, 207.62564864 208.8921876, 211.01009659 207.09037291 C 214.39454455 205.28855822, 217.39000308 202.80872572, 220.0 200.0 C 226.73250647 192.75487111, 231.00938928 183.60335878, 234.91193358 174.51552714 C 238.81447788 165.42769549, 242.40796875 156.21066782, 246.12689379 147.04616388 C 249.84581883 137.88165993, 253.64919321 128.7290719, 256.48786103 119.25487003 C 259.32652885 109.78066817, 261.1437715 99.82396675, 260.0 90.0 C 258.77615192 79.48824751, 254.22366574 69.70337015, 250.0 60.0 C 249.00153197 57.70613834, 247.99715721 55.37066128, 246.40124564 53.44405651 C 245.60328985 52.48075412, 244.65934018 51.62856506, 243.5722666 51.0097307 C 242.48519303 50.39089634, 241.25082543 50.01098549, 240.0 50.0 C 238.74359106 49.98896547, 237.4969655 50.35058561, 236.39723984 50.95827685 C 235.29751417 51.56596809, 234.34079599 52.41396529, 233.53612588 53.37894778 C 231.92678567 55.30891275, 230.9351183 57.66755611, 230.0 60.0 C 226.07513949 69.7896885, 222.73392469 79.81333289, 220.0 90.0 C 213.35553337 89.33388806, 206.67777223 89.0, 200.0 89.0 C 193.32222777 89.0, 186.64446663 89.33388806, 180.0 90.0 C 177.26607531 79.81333289, 173.92486051 69.7896885, 170.0 60.0 C 169.0648817 57.66755611, 168.07321433 55.30891275, 166.46387412 53.37894778 C 165.65920401 52.41396529, 164.70248583 51.56596809, 163.60276016 50.95827685 C 162.5030345 50.35058561, 161.25640894 49.98896547, 160.0 50.0 C 158.74917457 50.01098549, 157.51480697 50.39089634, 156.4277334 51.0097307 C 155.34065982 51.62856506, 154.39671015 52.48075412, 153.59875436 53.44405651 C 152.00284279 55.37066128, 150.99846803 57.70613834, 150.0 60.0 C 145.77633426 69.70337015, 141.22384808 79.48824751, 140.0 90.0 C 138.85622851 99.82396675, 140.67347116 109.78066816, 143.51213898 119.25487003 C 146.3508068 128.7290719, 150.15418118 137.88165992, 153.87310622 147.04616386 C 157.59203126 156.21066781, 161.18552213 165.42769549, 165.08806643 174.51552713 C 168.99061072 183.60335878, 173.26749353 192.75487111, 180.0 200.0 C 182.60999692 202.80872572, 185.60545545 205.28855822, 188.98990341 207.09037291 C 192.37435136 208.8921876, 196.16580854 210.0, 200.0 210.0 Z" fill="orangered" stroke="black" stroke-width="4"/>
<path d=" M 147.81350231 90.17426491 L 147.82365608 89.21340466 L 148.0 87.0 L 148.36469746 84.65454197 L 148.89091396 82.34543419 L 150.32503986 77.81811333 L 152.09664631 73.3817358 L 154.0 69.0 L 154.94520092 66.95058346 L 156.15925217 65.06643295 L 156.94289398 64.2586298 L 157.85663891 63.60583782 L 158.89147472 63.166152 L 160.0 63.0 L 161.11608124 63.14826965 L 162.16165543 63.57496548 L 163.08637714 64.22077656 L 163.87832355 65.02736759 L 164.53829861 65.93981361 L 165.09086132 66.92312622 L 166.0 69.0 L 167.70030499 73.43101406 L 169.26796055 77.91067886 L 170.68684959 82.38834667 L 170.65165901 82.39425945 L 169.72524548 82.56146908 L 168.8009243 82.73988056 L 167.87882996 82.92946911 L 166.95909882 83.13020706 L 166.04186535 83.34206486 L 165.12726402 83.56501102 L 164.21542835 83.79901314 L 163.30649281 84.04403687 L 162.40058994 84.30004501 L 161.49785233 84.56700325 L 160.59841251 84.84486866 L 159.70240307 85.13360405 L 158.80995464 85.4331646 L 157.92119789 85.74350739 L 157.03626347 86.06458569 L 156.15528011 86.39635468 L 155.27837849 86.73876381 L 154.40568638 87.09176445 L 153.53733158 87.45530415 L 152.67344093 87.82932854 L 151.81414223 88.21378422 L 150.95956039 88.60861492 L 150.10982132 89.01376247 L 149.26504898 89.42916584 L 148.42536736 89.85476685 Z" fill="white" stroke="none" stroke-width="4"/>
<path d="M 252.18649769 90.17426491 L 252.17634392 89.21340466 L 252.0 87.0 L 251.63530254 84.65454197 L 251.10908604 82.34543419 L 249.67496014 77.81811333 L 247.90335369 73.3817358 L 246.0 69.0 L 245.05479908 66.95058346 L 243.84074783 65.06643295 L 243.05710602 64.2586298 L 242.14336109 63.60583782 L 241.10852528 63.166152 L 240.0 63.0 L 238.88391876 63.14826965 L 237.83834457 63.57496548 L 236.91362286 64.22077656 L 236.12167645 65.02736759 L 235.46170139 65.93981361 L 234.90913868 66.92312622 L 234.0 69.0 L 232.29969501 73.43101406 L 230.73203945 77.91067886 L 229.31315041 82.38834667 L 229.34834099 82.39425945 L 230.27475452 82.56146908 L 231.1990757 82.73988056 L 232.12117004 82.92946911 L 233.04090118 83.13020706 L 233.95813465 83.34206486 L 234.87273598 83.56501102 L 235.78457165 83.79901314 L 236.69350719 84.04403687 L 237.59941006 84.30004501 L 238.50214767 84.56700325 L 239.40158749 84.84486866 L 240.29759693 85.13360405 L 241.19004536 85.4331646 L 242.07880211 85.74350739 L 242.96373653 86.06458569 L 243.84471989 86.39635468 L 244.72162151 86.73876381 L 245.59431362 87.09176445 L 246.46266842 87.45530415 L 247.32655907 87.82932854 L 248.18585777 88.21378422 L 249.04043961 88.60861492 L 249.89017868 89.01376247 L 250.73495102 89.42916584 L 251.57463264 89.85476685 Z" fill="white"/>
<path d=" M 200.0 210.0 L 197.13806057 209.79875088 L 194.32629776 209.2208662 L 191.59886169 208.3051424 L 188.9899025 207.09037209 L 187.28207493 206.06999779 L 187.47076416 205.43973064 L 188.08489799 204.01601028 L 188.86016178 202.67321301 L 189.78607368 201.42949772 L 190.85011101 200.30168438 L 192.03788471 199.30502319 L 193.33333302 198.45299435 L 194.71893597 197.75711823 L 196.17595673 197.22680569 L 197.68469048 196.86922932 L 199.22473526 196.68922424 L 200.77526379 196.68922424 L 202.31530857 196.86922932 L 203.82404232 197.22680569 L 205.28106308 197.75711823 L 206.66666603 198.45299435 L 207.96211433 199.30502319 L 209.14988804 200.30168438 L 210.21392536 201.42949772 L 211.13983727 202.67321301 L 211.91510105 204.01601028 L 212.52923489 205.43973064 L 212.71792412 206.06999779 L 211.01009655 207.09037209 L 208.40113735 208.3051424 L 205.67370129 209.2208662 L 202.86193848 209.79875088 Z"/>
<circle cx="182.85714286" cy="130.0" r="6.66666667"/>
<circle cx="217.14285714" cy="130.0" r="6.66666667"/>
</svg>
