<svg version="1.1"
     xmlns="http://www.w3.org/2000/svg"
     width="400"
     height="600">

<rect x="0" y="0" width="400" height="600" fill="rgb(145, 25, 25)"/>
<rect x="0" y="0" width="400" height="560" fill="rgb(19, 19, 139)"/>
<rect x="0" y="0" width="400" height="520" fill="rgb(138, 18, 18)"/>
<rect x="0" y="0" width="400" height="480" fill="rgb(22, 22, 142)"/>
<rect x="0" y="0" width="400" height="440" fill="rgb(141, 21, 21)"/>
<rect x="0" y="0" width="400" height="400" fill="rgb(19, 19, 139)"/>
<rect x="0" y="0" width="400" height="360" fill="rgb(145, 25, 25)"/>
<rect x="0" y="0" width="400" height="320" fill="rgb(15, 15, 135)"/>
<rect x="0" y="0" width="400" height="280" fill="rgb(150, 30, 30)"/>
<rect x="0" y="0" width="400" height="240" fill="rgb(14, 14, 134)"/>
<rect x="0" y="0" width="400" height="200" fill="rgb(149, 29, 29)"/>
<rect x="0" y="0" width="400" height="160" fill="rgb(18, 18, 138)"/>
<rect x="0" y="0" width="400" height="120" fill="rgb(143, 23, 23)"/>
<rect x="0" y="0" width="400" height="80" fill="rgb(17, 17, 137)"/>
<rect x="0" y="0" width="400" height="40" fill="rgb(144, 24, 24)"/>
<path d="M 260.0 300.0 C 284.07379853323187 303.5952096093461, 306.5790893738076 316.78454105184574, 321.4804532968139 336.0309085321756 C 336.38181721982016 355.2772760125055, 343.51491386699644 380.36842010640953, 340.96680512336786 404.575453170881 C 338.41869637973923 428.78248623535245, 326.2174841765101 451.83843992395055, 307.63526267235034 467.5602194645787 C 289.0530411681906 483.28199900520684, 264.29474522376455 491.4962160492851, 240.0 490.0 C 212.5061687964893 488.3067650586931, 187.1026626396414 474.92173512649623, 160.0 470.0 C 138.36212374420475 466.0706482220252, 115.74157871913992 467.6806857824106, 94.87836360663718 474.6350908199115 C 74.01514849413444 481.58949585741243, 54.95268993785133 493.87379282414304, 40.0 510.0 C 62.196734387461674 522.4147514140828, 85.70191491569055 532.4884002118953, 110.0 540.0 C 156.3761883095586 554.3369061829543, 206.91992080348396 559.1220685015194, 253.3993999298306 545.1236492634062 C 276.63913949300377 538.1244396443496, 298.5823668101268 526.444962603958, 316.63309790170246 510.22011939007035 C 334.68382899327804 493.99527617618276, 348.7502677673545 473.1628109868071, 356.0 450.0 C 366.49026535817063 416.48372299895453, 361.9747970646153 378.57126450150946, 343.9059105615512 348.4564536630693 C 325.8370240584871 318.34164282462916, 294.5097810518263 296.5162491550473, 260.0 290.0 L 260.0 300.0 Z" fill="orangered" stroke="black" stroke-width="4"/>
<path d=" M 153.09106922149658 550.1284952163696 L 145.43493366241455 548.8174800872803 L 136.4718885421753 546.996244430542 L 127.57034587860107 544.9105701446533 L 118.74236392974854 542.5739812850952 L 110.0 540.0 L 100.9263916015625 537.0634851455688 L 91.93316078186035 533.889368057251 L 83.02634716033936 530.4802370071411 L 74.21199321746826 526.8386812210083 L 65.49613952636719 522.9672908782959 L 56.88482856750488 518.8686542510986 L 48.38410186767578 514.5453605651855 L 40.0 510.0 L 45.79539394378662 504.1356678009033 L 51.94902038574219 498.64895248413086 L 58.43381977081299 493.5572900772095 L 65.22273445129395 488.87811946868896 L 72.28870487213135 484.6288766860962 L 79.6046724319458 480.8269987106323 L 87.1435775756836 477.48992443084717 L 94.87836265563965 474.6350898742676 L 102.77909183502197 472.2780866622925 L 110.81246089935303 470.4244022369385 L 118.94636154174805 469.0763244628906 L 127.14868354797363 468.2361364364624 L 135.3873176574707 467.90612411499023 L 143.63015460968018 468.08857440948486 L 151.84508514404297 468.78577041625977 L 152.74712753295898 468.9200801849365 L 153.1169786453247 469.94317626953125 L 153.6316146850586 471.4272632598877 L 154.12678146362305 472.91796016693115 L 154.6023931503296 474.4150104522705 L 155.058367729187 475.91815853118896 L 155.49462795257568 477.4271459579468 L 155.9110984802246 478.9417142868042 L 156.30770874023438 480.46160411834717 L 156.6843900680542 481.9865560531616 L 157.04107761383057 483.51630687713623 L 157.37771129608154 485.0505962371826 L 157.69423294067383 486.58916091918945 L 157.9905881881714 488.1317367553711 L 158.26672649383545 489.6780586242676 L 158.5226001739502 491.2278633117676 L 158.7581663131714 492.7808847427368 L 158.9733829498291 494.336856842041 L 159.16821479797363 495.89551162719727 L 159.34262657165527 497.4565839767456 L 159.49659061431885 499.0198049545288 L 159.63007926940918 500.5849084854126 L 159.743070602417 502.1516237258911 L 159.83554363250732 503.7196846008301 L 159.90748405456543 505.28882122039795 L 159.95887851715088 506.8587656021118 L 159.98971843719482 508.42924785614014 L 160.0 510.0 L 159.98971843719482 511.57075119018555 L 159.95887851715088 513.1412334442139 L 159.90748405456543 514.7111778259277 L 159.83554363250732 516.2803144454956 L 159.743070602417 517.8483753204346 L 159.63007926940918 519.4150905609131 L 159.49659061431885 520.9801940917969 L 159.34262657165527 522.5434150695801 L 159.16821479797363 524.1044874191284 L 158.9733829498291 525.6631422042847 L 158.7581663131714 527.2191143035889 L 158.5226001739502 528.7721357345581 L 158.26672649383545 530.3219404220581 L 157.9905881881714 531.8682622909546 L 157.69423294067383 533.4108381271362 L 157.37771129608154 534.9494028091431 L 157.04107761383057 536.4836921691895 L 156.6843900680542 538.0134429931641 L 156.30770874023438 539.5383949279785 L 155.9110984802246 541.0582847595215 L 155.49462795257568 542.5728530883789 L 155.058367729187 544.0818405151367 L 154.6023931503296 545.5849885940552 L 154.12678146362305 547.0820388793945 L 153.6316146850586 548.572735786438 L 153.1169786453247 550.0568227767944 Z" fill="white" stroke="black" stroke-width="4"/>
<path d="M 200.0 150.0 C 192.53659529536864 150.0, 185.13080164798615 152.08393185406212, 178.56907706907552 155.64007869237375 C 172.0073524901649 159.1962255306854, 166.27527634220513 164.19650590706954, 161.56108899089247 169.9825967637566 C 152.13271428826735 181.55477847713064, 146.82900894338303 196.0194280071241, 143.93286582600516 210.6625832061963 C 138.14057959199502 239.94889360396996, 139.99999999934022 270.1463811819832, 140.0 300.0 L 140.0 390.0 C 140.0 401.6656257487559, 138.93471881807665 413.38042666697146, 140.1782027769554 424.9795892123472 C 140.79994475620617 430.77917048444164, 142.25718989256484 436.62642322592455, 145.52216848384083 441.4598092873623 C 147.15465777947875 443.87650231808107, 149.2391284555649 446.0090004042575, 151.71898876784738 447.54383568423486 C 154.1988490801299 449.0786709642122, 157.08359356311624 449.99999999993787, 160.0 450.0 C 162.91640643718898 450.0, 165.80115092049687 449.0786709642394, 168.28101123307158 447.54383568415426 C 170.7608715456463 446.0090004040691, 172.84534222199605 443.8765023177139, 174.4778315178563 441.45980928677704 C 177.74281010957657 436.6264232249033, 179.20005524621203 430.77917048283985, 179.8217972256512 424.97958921015214 C 181.06528118359086 413.3804266654164, 180.00000000086555 401.6656257480194, 180.0 390.0 L 180.0 320.0 C 180.0 314.764012244017, 182.15546192780374 309.56026682473436, 185.85786437626905 305.85786437626905 C 189.56026682473436 302.15546192780374, 194.764012244017 300.0, 200.0 300.0 C 205.235987755983 300.0, 210.43973317526564 302.15546192780374, 214.14213562373095 305.85786437626905 C 217.84453807219626 309.56026682473436, 220.0 314.764012244017, 220.0 320.0 L 220.0 390.0 C 220.0 401.6656257487559, 218.93471881807665 413.38042666697146, 220.1782027769554 424.9795892123472 C 220.79994475620617 430.77917048444164, 222.25718989256484 436.62642322592455, 225.52216848384083 441.4598092873623 C 227.15465777947875 443.87650231808107, 229.2391284555649 446.0090004042575, 231.71898876784738 447.54383568423486 C 234.1988490801299 449.0786709642122, 237.08359356311624 449.99999999993787, 240.0 450.0 C 242.91640643718898 450.0, 245.80115092049687 449.0786709642394, 248.28101123307158 447.54383568415426 C 250.7608715456463 446.0090004040691, 252.84534222199605 443.8765023177139, 254.4778315178563 441.45980928677704 C 257.74281010957657 436.6264232249033, 259.200055246212 430.77917048283985, 259.8217972256512 424.97958921015214 C 261.06528118359086 413.3804266654164, 260.00000000086555 401.6656257480194, 260.0 390.0 L 260.0 300.0 C 260.0 270.1463811814745, 261.8594204067095 239.94889360290566, 256.06713417195346 210.662583204761 C 253.17099105475404 196.01942800610274, 247.86728571011813 181.5547784765027, 238.4389110078448 169.98259676341044 C 233.7247236567082 164.1965059068644, 227.9926475089496 159.1962255305916, 221.43092293025543 155.6400786923433 C 214.8691983515613 152.08393185409503, 207.46340470441086 150.00000000004744, 200.0 150.0 Z" fill="orangered" stroke="black" stroke-width="4"/>
<path d=" M 240.0 450.0 L 237.824462890625 449.8320598602295 L 235.6957893371582 449.3474807739258 L 233.64896774291992 448.575119972229 L 231.7189884185791 447.5438356399536 L 229.93411254882812 446.2855453491211 L 228.30281448364258 444.8325185775757 L 225.52216815948486 441.4598083496094 L 223.3971929550171 437.6612558364868 L 221.85897159576416 433.58202171325684 L 220.81635665893555 429.321626663208 L 220.17820262908936 424.97958850860596 L 219.62576293945312 416.26111030578613 L 219.62279415130615 407.5147180557251 L 220.0 390.0 L 220.0 350.0 L 260.0 350.0 L 260.0 390.0 L 260.37720489501953 407.5147180557251 L 260.37423610687256 416.26111030578613 L 259.8217964172363 424.97958850860596 L 259.18364238739014 429.321626663208 L 258.1410274505615 433.58202171325684 L 256.6028060913086 437.6612558364868 L 254.47783088684082 441.4598083496094 L 251.6971845626831 444.8325185775757 L 250.06588649749756 446.2855453491211 L 248.28101062774658 447.5438356399536 L 246.35103130340576 448.575119972229 L 244.30420970916748 449.3474807739258 L 242.17553615570068 449.8320598602295 Z M 160.0 450.0 L 157.824462890625 449.8320598602295 L 155.6957893371582 449.3474807739258 L 153.64896774291992 448.575119972229 L 151.7189884185791 447.5438356399536 L 149.93411254882812 446.2855453491211 L 148.30281448364258 444.8325185775757 L 145.52216815948486 441.4598083496094 L 143.3971929550171 437.6612558364868 L 141.85897159576416 433.58202171325684 L 140.81635665893555 429.321626663208 L 140.17820262908936 424.97958850860596 L 139.62576293945312 416.26111030578613 L 139.62279415130615 407.5147180557251 L 140.0 390.0 L 140.0 350.0 L 180.0 350.0 L 180.0 390.0 L 180.37720489501953 407.5147180557251 L 180.37423610687256 416.26111030578613 L 179.82179641723633 424.97958850860596 L 179.18364238739014 429.321626663208 L 178.14102745056152 433.58202171325684 L 176.6028060913086 437.6612558364868 L 174.47783088684082 441.4598083496094 L 171.6971845626831 444.8325185775757 L 170.06588649749756 446.2855453491211 L 168.28101062774658 447.5438356399536 L 166.35103130340576 448.575119972229 L 164.30420970916748 449.3474807739258 L 162.17553615570068 449.8320598602295 Z" fill="white" stroke="black" stroke-width="4"/>
<path d="M 200.0 210.0 C 203.83419145760882 210.0, 207.62564863821186 208.89218760026228, 211.01009659247973 207.09037290988687 C 214.3945445467476 205.28855821951146, 217.3900030764616 202.8087257240109, 220.0 200.0 C 226.73250647083785 192.75487111070004, 231.00938928311083 183.6033587835116, 234.91193358196853 174.51552713906 C 238.8144778808254 165.42769549460635, 242.40796874943723 156.210667820763, 246.12689379303734 147.04616387769235 C 249.84581883425477 137.88165993204734, 253.6491932099563 128.72907190324574, 256.4878610293785 119.25487003486055 C 259.3265288488007 109.78066816647537, 261.1437714966013 99.82396675460065, 260.0 90.0 C 258.77615192061813 79.48824750933096, 254.22366574448105 69.703370147809, 250.0 60.0 C 249.00153196774636 57.706138344311185, 247.9971572095378 55.37066128014706, 246.40124563573318 53.44405650607732 C 245.60328984883088 52.48075411904248, 244.65934017807308 51.62856506193902, 243.57226660168791 51.00973070102892 C 242.48519302530275 50.39089634011883, 241.25082542575302 50.01098549077889, 240.0 50.0 C 238.74359106154472 49.98896547150084, 237.49696550080273 50.35058560577421, 236.39723983579572 50.95827684577554 C 235.29751417078867 51.56596808577687, 234.3407959910534 52.41396528892052, 233.53612588314715 53.37894777523397 C 231.92678566733474 55.308912747860816, 230.93511830295384 57.66755611315546, 230.0 60.0 C 226.07513949207518 69.78968850198905, 222.73392469485358 79.81333289365388, 220.0 90.0 C 213.3555333689816 89.33388805704077, 206.67777222816636 89.0, 200.0 89.0 C 193.32222777183364 89.0, 186.6444666310184 89.33388805704077, 180.0 90.0 C 177.26607530514642 79.81333289365388, 173.92486050792482 69.78968850198905, 170.0 60.0 C 169.06488169704613 57.6675561131554, 168.07321433266517 55.308912747860695, 166.4638741168527 53.3789477752338 C 165.6592040089465 52.41396528892039, 164.7024858292112 51.565968085776774, 163.6027601642042 50.95827684577547 C 162.50303449919718 50.35058560577417, 161.25640893845525 49.988965471500826, 160.0 50.0 C 158.74917457424695 50.010985490778914, 157.51480697469717 50.39089634011888, 156.42773339831197 51.009730701029014 C 155.34065982192678 51.62856506193914, 154.39671015116897 52.48075411904264, 153.59875436426668 53.444056506077516 C 152.00284279046213 55.3706612801472, 150.99846803225358 57.706138344311256, 150.0 60.0 C 145.77633425551895 69.703370147809, 141.2238480793819 79.48824750933096, 140.0 90.0 C 138.8562285067272 99.82396675348704, 140.6734711574526 109.7806681632769, 143.51213897949054 119.25487002932181 C 146.35080680152845 128.72907189536667, 150.15418117959695 137.88165992156652, 153.87310622319788 147.0461638646351 C 157.59203126392757 156.21066780968698, 161.1855221296413 165.4276954854724, 165.0880664256682 174.51552713196466 C 168.99061072169397 183.60335877845884, 173.26749353114178 192.75487110782376, 180.0 200.0 C 182.6099969235384 202.8087257240109, 185.6054554532524 205.28855821951146, 188.98990340752025 207.09037290988687 C 192.37435136178811 208.89218760026228, 196.16580854239115 210.0, 200.0 210.0 Z" fill="orangered" stroke="black" stroke-width="4"/>
<path d=" M 147.81350231170654 90.17426490783691 L 147.82365608215332 89.21340465545654 L 148.0 87.0 L 148.36469745635986 84.65454196929932 L 148.89091396331787 82.34543418884277 L 150.32503986358643 77.81811332702637 L 152.09664630889893 73.38173580169678 L 154.0 69.0 L 154.94520092010498 66.95058345794678 L 156.15925216674805 65.06643295288086 L 156.9428939819336 64.25862979888916 L 157.85663890838623 63.60583782196045 L 158.89147472381592 63.166152000427246 L 160.0 63.0 L 161.11608123779297 63.14826965332031 L 162.1616554260254 63.574965476989746 L 163.08637714385986 64.22077655792236 L 163.87832355499268 65.02736759185791 L 164.53829860687256 65.9398136138916 L 165.0908613204956 66.92312622070312 L 166.0 69.0 L 167.7003049850464 73.43101406097412 L 169.26796054840088 77.91067886352539 L 170.6868495941162 82.3883466720581 L 170.65165901184082 82.39425945281982 L 169.72524547576904 82.56146907806396 L 168.80092430114746 82.73988056182861 L 167.8788299560547 82.92946910858154 L 166.95909881591797 83.13020706176758 L 166.04186534881592 83.34206485748291 L 165.12726402282715 83.5650110244751 L 164.21542835235596 83.79901313781738 L 163.30649280548096 84.04403686523438 L 162.40058994293213 84.30004501342773 L 161.49785232543945 84.56700325012207 L 160.5984125137329 84.84486865997314 L 159.70240306854248 85.13360404968262 L 158.8099546432495 85.43316459655762 L 157.92119789123535 85.7435073852539 L 157.03626346588135 86.06458568572998 L 156.15528011322021 86.39635467529297 L 155.2783784866333 86.7387638092041 L 154.405686378479 87.09176445007324 L 153.53733158111572 87.45530414581299 L 152.67344093322754 87.8293285369873 L 151.81414222717285 88.21378421783447 L 150.9595603942871 88.60861492156982 L 150.10982131958008 89.01376247406006 L 149.2650489807129 89.42916584014893 L 148.42536735534668 89.85476684570312 Z" fill="white" stroke="none" stroke-width="4"/>
<path d="M 252.18649768829346 90.17426490783691 L 252.17634391784668 89.21340465545654 L 252.0 87.0 L 251.63530254364014 84.65454196929932 L 251.10908603668213 82.34543418884277 L 249.67496013641357 77.81811332702637 L 247.90335369110107 73.38173580169678 L 246.0 69.0 L 245.05479907989502 66.95058345794678 L 243.84074783325195 65.06643295288086 L 243.0571060180664 64.25862979888916 L 242.14336109161377 63.60583782196045 L 241.10852527618408 63.166152000427246 L 240.0 63.0 L 238.88391876220703 63.14826965332031 L 237.8383445739746 63.574965476989746 L 236.91362285614014 64.22077655792236 L 236.12167644500732 65.02736759185791 L 235.46170139312744 65.9398136138916 L 234.9091386795044 66.92312622070312 L 234.0 69.0 L 232.2996950149536 73.43101406097412 L 230.73203945159912 77.91067886352539 L 229.3131504058838 82.3883466720581 L 229.34834098815918 82.39425945281982 L 230.27475452423096 82.56146907806396 L 231.19907569885254 82.73988056182861 L 232.1211700439453 82.92946910858154 L 233.04090118408203 83.13020706176758 L 233.95813465118408 83.34206485748291 L 234.87273597717285 83.5650110244751 L 235.78457164764404 83.79901313781738 L 236.69350719451904 84.04403686523438 L 237.59941005706787 84.30004501342773 L 238.50214767456055 84.56700325012207 L 239.4015874862671 84.84486865997314 L 240.29759693145752 85.13360404968262 L 241.1900453567505 85.43316459655762 L 242.07880210876465 85.7435073852539 L 242.96373653411865 86.06458568572998 L 243.84471988677979 86.39635467529297 L 244.7216215133667 86.7387638092041 L 245.594313621521 87.09176445007324 L 246.46266841888428 87.45530414581299 L 247.32655906677246 87.8293285369873 L 248.18585777282715 88.21378421783447 L 249.0404396057129 88.60861492156982 L 249.89017868041992 89.01376247406006 L 250.7349510192871 89.42916584014893 L 251.57463264465332 89.85476684570312 Z" fill="white"/>
<path d=" M 200.0 210.0 L 197.13806056976318 209.79875087738037 L 194.32629776000977 209.2208662033081 L 191.59886169433594 208.30514240264893 L 188.9899024963379 207.0903720855713 L 187.2820749282837 206.0699977874756 L 187.47076416015625 205.43973064422607 L 188.08489799499512 204.01601028442383 L 188.86016178131104 202.67321300506592 L 189.78607368469238 201.42949771881104 L 190.85011100769043 200.30168437957764 L 192.03788471221924 199.30502319335938 L 193.3333330154419 198.45299434661865 L 194.7189359664917 197.75711822509766 L 196.17595672607422 197.22680568695068 L 197.68469047546387 196.86922931671143 L 199.22473526000977 196.68922424316406 L 200.77526378631592 196.68922424316406 L 202.31530857086182 196.86922931671143 L 203.82404232025146 197.22680568695068 L 205.28106307983398 197.75711822509766 L 206.6666660308838 198.45299434661865 L 207.96211433410645 199.30502319335938 L 209.14988803863525 200.30168437957764 L 210.2139253616333 201.42949771881104 L 211.13983726501465 202.67321300506592 L 211.91510105133057 204.01601028442383 L 212.52923488616943 205.43973064422607 L 212.717924118042 206.0699977874756 L 211.0100965499878 207.0903720855713 L 208.40113735198975 208.30514240264893 L 205.67370128631592 209.2208662033081 L 202.8619384765625 209.79875087738037 Z"/>
<circle cx="182.85714285714286" cy="130.0" r="6.666666666666667"/>
<circle cx="217.14285714285714" cy="130.0" r="6.666666666666667"/>
</svg>
