<svg version="1.1"
     xmlns="http://www.w3.org/2000/svg"
     width="390"
     height="200">

<rect x="0" y="0" width="390" height="200" fill="beige"/>
<path d=" M 65.0 125.0 L 57.78312110900879 112.5 L 43.349365234375 112.5 L 50.566243171691895 100.0 L 43.349365234375 87.5 L 57.78312110900879 87.5 L 65.0 75.0 L 72.21687889099121 87.50000095367432 L 86.650634765625 87.50000095367432 L 79.4337568283081 100.0 L 86.650634765625 112.49999904632568 L 72.21687889099121 112.49999904632568 Z" fill="gold" stroke-width="3" stroke="black"/>
<path d=" M 130.0 125.0 L 122.78312110900879 112.5 L 108.349365234375 112.5 L 115.5662431716919 100.0 L 108.349365234375 87.5 L 122.78312110900879 87.5 L 130.0 75.0 L 137.2168788909912 87.50000095367432 L 151.650634765625 87.50000095367432 L 144.4337568283081 100.0 L 151.650634765625 112.49999904632568 L 137.2168788909912 112.49999904632568 Z" fill="gold" stroke-width="3" stroke="black"/>
<path d=" M 195.0 125.0 L 187.7831211090088 112.5 L 173.349365234375 112.5 L 180.5662431716919 100.0 L 173.349365234375 87.5 L 187.7831211090088 87.5 L 195.0 75.0 L 202.2168788909912 87.50000095367432 L 216.650634765625 87.50000095367432 L 209.4337568283081 100.0 L 216.650634765625 112.49999904632568 L 202.2168788909912 112.49999904632568 Z" fill="gold" stroke-width="3" stroke="black"/>
<path d=" M 260.0 125.0 L 252.7831211090088 112.5 L 238.349365234375 112.5 L 245.5662431716919 100.0 L 238.349365234375 87.5 L 252.7831211090088 87.5 L 260.0 75.0 L 267.2168788909912 87.50000095367432 L 281.650634765625 87.50000095367432 L 274.4337568283081 100.0 L 281.650634765625 112.49999904632568 L 267.2168788909912 112.49999904632568 Z" fill="gold" stroke-width="3" stroke="black"/>
<path d=" M 325.0 125.0 L 317.7831211090088 112.5 L 303.349365234375 112.5 L 310.5662431716919 100.0 L 303.349365234375 87.5 L 317.7831211090088 87.5 L 325.0 75.0 L 332.2168788909912 87.50000095367432 L 346.650634765625 87.50000095367432 L 339.4337568283081 100.0 L 346.650634765625 112.49999904632568 L 332.2168788909912 112.49999904632568 Z" fill="gold" stroke-width="3" stroke="black"/>
</svg>
