
<svg version="1.1"
     xmlns="http://www.w3.org/2000/svg"
     width="390"
     height="200">
<rect x="0" y="0" width="390" height="200" fill="beige"/>
<path d=" M 65.0 125.0 L 57.78312111 112.5 L 43.34936523 112.5 L 50.56624317 100.0 L 43.34936523 87.5 L 57.78312111 87.5 L 65.0 75.0 L 72.21687889 87.50000095 L 86.65063477 87.50000095 L 79.43375683 100.0 L 86.65063477 112.49999905 L 72.21687889 112.49999905 Z" fill="gold" stroke-width="3" stroke="black"/>
<path d=" M 130.0 125.0 L 122.78312111 112.5 L 108.34936523 112.5 L 115.56624317 100.0 L 108.34936523 87.5 L 122.78312111 87.5 L 130.0 75.0 L 137.21687889 87.50000095 L 151.65063477 87.50000095 L 144.43375683 100.0 L 151.65063477 112.49999905 L 137.21687889 112.49999905 Z" fill="gold" stroke-width="3" stroke="black"/>
<path d=" M 195.0 125.0 L 187.78312111 112.5 L 173.34936523 112.5 L 180.56624317 100.0 L 173.34936523 87.5 L 187.78312111 87.5 L 195.0 75.0 L 202.21687889 87.50000095 L 216.65063477 87.50000095 L 209.43375683 100.0 L 216.65063477 112.49999905 L 202.21687889 112.49999905 Z" fill="gold" stroke-width="3" stroke="black"/>
<path d=" M 260.0 125.0 L 252.78312111 112.5 L 238.34936523 112.5 L 245.56624317 100.0 L 238.34936523 87.5 L 252.78312111 87.5 L 260.0 75.0 L 267.21687889 87.50000095 L 281.65063477 87.50000095 L 274.43375683 100.0 L 281.65063477 112.49999905 L 267.21687889 112.49999905 Z" fill="gold" stroke-width="3" stroke="black"/>
<path d=" M 325.0 125.0 L 317.78312111 112.5 L 303.34936523 112.5 L 310.56624317 100.0 L 303.34936523 87.5 L 317.78312111 87.5 L 325.0 75.0 L 332.21687889 87.50000095 L 346.65063477 87.50000095 L 339.43375683 100.0 L 346.65063477 112.49999905 L 332.21687889 112.49999905 Z" fill="gold" stroke-width="3" stroke="black"/>
</svg>
