<svg version="1.1"
     xmlns="http://www.w3.org/2000/svg"
     width="500"
     height="700.0">

<path d="M 0 0 L 100 10 L 70 100 Z"/>
<path d="M 150 50 L 200 20 L 250 50 L 250 150 L 210 150 L 210 100 Q 200 90, 190 100 L 190 150 L 150 150 Z" fill="red" stroke="black" stroke-width="2"/>
<path d="M 300 100 Q 380 0, 400 100 Q 420 200, 500 100 L 500 200 L 300 200 Z" fill="blue"/>
<path d="M 105 200 C 95 220, 95 240, 110 255 C 125 270, 120 300, 90 300 C 60 300, 55 275, 65 250 C 75 225, 80 220, 105 200 Z" fill="yellow" stroke="orange" stroke-width="5" stroke-linejoin="miter" stroke-miterlimit="10"/>
<path d="M 100.0 370.0 C 104.66240025627245 390.80364055942914, 119.0594473373335 409.2088158546345, 138.1283631256129 418.7432737487742 C 157.19727891389232 428.2777316429139, 180.55964739869322 428.7522641306395, 200.0 420.0 C 208.31014455965678 416.2586799919964, 215.8300253947433 410.9825576723767, 223.8919403523991 406.732674706905 C 231.953855310055 402.48279174143346, 240.92064793752195 399.2117461511311, 250.0 400.0 C 255.45423203767444 400.47352711589275, 260.7215052240687 402.40946505079023, 265.4447686086849 405.17779632609387 C 270.1680319933011 407.94612760139745, 274.3715355225831 411.5320615320023, 278.2129422796331 415.43289082552053 C 285.89575579373314 423.2345494125566, 292.1937005506367 432.32190198630013, 300.0 440.0 C 317.8789076748777 457.5852856268289, 343.6309105843935 466.84573729699446, 368.6145167366008 464.67386394540455 C 393.5981228888081 462.50199059381464, 417.3658391899783 448.9366936632542, 431.9420324124711 428.5300231517642 C 446.51822563496364 408.12335264027433, 451.64181474187086 381.24082199952636, 445.59349834941554 356.9032896874635 C 439.5451819569602 332.56575737540055, 422.433294298312 311.2091443540206, 400.0 300.0 L 100.0 370.0 Z" fill="purple"/>
<path d="M 100.0 450.0 C 93.66557493738986 449.99999999994026, 87.3749203221214 451.6884539824017, 81.74276917876306 454.58738729867355 C 76.1106180354047 457.4863206149454, 71.12749576903826 461.57492423932905, 66.94282582585038 466.3302873527415 C 58.57348593947468 475.84101357956627, 53.48517962804135 487.81996361025233, 50.0 500.0 C 44.04747114220032 520.8029501594925, 42.546475521310896 543.6749482031747, 50.743229095165375 563.7001464791163 C 54.841605882092296 573.7127456170866, 61.354898283968026 582.8170293955553, 69.93136040392191 589.4119616385964 C 78.5078225238758 596.0068938816374, 89.18108906657855 600.0000000000756, 100.0 600.0 C 110.81891093336367 599.9999999999243, 121.4921774759533 596.0068938813818, 130.0686395958021 589.4119616382989 C 138.6451017156509 582.817029395216, 145.158394117432 573.7127456167656, 149.25677090431978 563.7001464788416 C 157.45352447809435 543.6749482029936, 155.95252885736153 520.8029501594963, 150.0 500.0 C 146.51482037216712 487.81996361008026, 141.42651406097835 475.84101357914153, 133.05717417459903 466.33028735217596 C 128.87250423140938 461.5749242386932, 123.88938196498037 457.4863206142762, 118.25723082152406 454.5873872980768 C 112.62507967806775 451.6884539818774, 106.3344250626641 449.99999999960005, 100.0 450.0 Z" fill="turquoise"/>
<path d="M 200.0 500.0 L 300.0 500.0 C 308.34258636740196 500.0, 316.68287945150706 499.76988387775174, 325.0182751279732 499.4235802330838 C 333.35367080443893 499.07727658841566, 341.7487071321922 498.76918185453, 350.0 500.0 C 359.88060364964514 501.4738570615556, 369.58954362870753 505.4476445088784, 376.69561977697293 512.4692016648326 C 383.80169592523833 519.4907588207868, 387.9802016563458 529.4331471109792, 387.8030321026812 539.4215000316831 C 387.625862549044 549.4098529525121, 383.1772627392383 559.1413639162881, 376.1580590294321 566.2497647492471 C 369.13885531962586 573.3581655822061, 359.7631983491393 577.8837436078933, 350.0 580.0 C 338.30696707545854 582.5345644720517, 326.19481694843904 581.8220294939678, 314.23429918295756 582.1335592983189 C 302.27378141747585 582.4450891026703, 290.0802188064798 583.9649977745896, 279.35855920167853 589.2750873553947 C 268.636899598464 594.58517693362, 259.8688570007988 603.7487901004351, 255.17525487152412 614.7542948606924 C 250.48165274225198 625.7597996209475, 250.00000000160594 638.0354257921183, 250.0 650.0 L 250.0 700.0" fill="none" stroke="green" stroke-width="6"/>
</svg>
