<svg version="1.1"
     xmlns="http://www.w3.org/2000/svg"
     width="500"
     height="700.0">

<path d="M 0 0 L 100 10 L 70 100 Z"/>
<path d="M 150 50 L 200 20 L 250 50 L 250 150 L 210 150 L 210 100 Q 200 90, 190 100 L 190 150 L 150 150 Z" fill="red" stroke="black" stroke-width="2"/>
<path d="M 300 100 Q 380 0, 400 100 Q 420 200, 500 100 L 500 200 L 300 200 Z" fill="blue"/>
<path d="M 105 200 C 95 220, 95 240, 110 255 C 125 270, 120 300, 90 300 C 60 300, 55 275, 65 250 C 75 225, 80 220, 105 200 Z" fill="yellow" stroke="orange" stroke-width="5" stroke-linejoin="miter" stroke-miterlimit="10"/>
<path d="M 100.0 370.0 C 104.66240026 390.80364056, 119.05944734 409.20881585, 138.12836313 418.74327375 C 157.19727891 428.27773164, 180.5596474 428.75226413, 200.0 420.0 C 208.31014456 416.25867999, 215.83002539 410.98255767, 223.89194035 406.73267471 C 231.95385531 402.48279174, 240.92064794 399.21174615, 250.0 400.0 C 255.45423204 400.47352712, 260.72150522 402.40946505, 265.44476861 405.17779633 C 270.16803199 407.9461276, 274.37153552 411.53206153, 278.21294228 415.43289083 C 285.89575579 423.23454941, 292.19370055 432.32190199, 300.0 440.0 C 317.87890767 457.58528563, 343.63091058 466.8457373, 368.61451674 464.67386395 C 393.59812289 462.50199059, 417.36583919 448.93669366, 431.94203241 428.53002315 C 446.51822563 408.12335264, 451.64181474 381.240822, 445.59349835 356.90328969 C 439.54518196 332.56575738, 422.4332943 311.20914435, 400.0 300.0 L 100.0 370.0 Z" fill="purple"/>
<path d="M 100.0 450.0 C 93.66557494 450.0, 87.37492032 451.68845398, 81.74276918 454.5873873 C 76.11061804 457.48632061, 71.12749577 461.57492424, 66.94282583 466.33028735 C 58.57348594 475.84101358, 53.48517963 487.81996361, 50.0 500.0 C 44.04747114 520.80295016, 42.54647552 543.6749482, 50.7432291 563.70014648 C 54.84160588 573.71274562, 61.35489828 582.8170294, 69.9313604 589.41196164 C 78.50782252 596.00689388, 89.18108907 600.0, 100.0 600.0 C 110.81891093 600.0, 121.49217748 596.00689388, 130.0686396 589.41196164 C 138.64510172 582.8170294, 145.15839412 573.71274562, 149.2567709 563.70014648 C 157.45352448 543.6749482, 155.95252886 520.80295016, 150.0 500.0 C 146.51482037 487.81996361, 141.42651406 475.84101358, 133.05717417 466.33028735 C 128.87250423 461.57492424, 123.88938196 457.48632061, 118.25723082 454.5873873 C 112.62507968 451.68845398, 106.33442506 450.0, 100.0 450.0 Z" fill="turquoise"/>
<path d="M 200.0 500.0 L 300.0 500.0 C 308.34258637 500.0, 316.68287945 499.76988388, 325.01827513 499.42358023 C 333.3536708 499.07727659, 341.74870713 498.76918185, 350.0 500.0 C 359.88060365 501.47385706, 369.58954363 505.44764451, 376.69561978 512.46920166 C 383.80169593 519.49075882, 387.98020166 529.43314711, 387.8030321 539.42150003 C 387.62586255 549.40985295, 383.17726274 559.14136392, 376.15805903 566.24976475 C 369.13885532 573.35816558, 359.76319835 577.88374361, 350.0 580.0 C 338.30696708 582.53456447, 326.19481695 581.82202949, 314.23429918 582.1335593 C 302.27378142 582.4450891, 290.08021881 583.96499777, 279.3585592 589.27508736 C 268.6368996 594.58517693, 259.868857 603.7487901, 255.17525487 614.75429486 C 250.48165274 625.75979962, 250.0 638.03542579, 250.0 650.0 L 250.0 700.0" fill="none" stroke="green" stroke-width="6"/>
</svg>
