
<svg version="1.1"
     xmlns="http://www.w3.org/2000/svg"
     width="500"
     height="500">
<rect x="0" y="0" width="500" height="500" fill="#01205C"/>
<circle cx="250" cy="250" r="200" fill="white"/>
<path d=" M 93.2343235 357.34964275 L 92.67832184 356.53586006 L 91.80293846 355.23160076 L 90.9383688 353.9201498 L 90.08467007 352.60159492 L 89.2419014 351.27602768 L 88.41012096 349.94353867 L 87.58938408 348.60421848 L 86.77974796 347.25815868 L 85.98126793 345.90545177 L 85.19399834 344.54618931 L 84.41799355 343.1804657 L 83.65330505 341.8083725 L 82.89998722 340.43000412 L 82.15808964 339.04545498 L 81.4276638 337.65482044 L 80.70876026 336.25819492 L 80.0014267 334.85567284 L 79.3057127 333.44735146 L 78.62166595 332.03332615 L 77.94933224 330.61369419 L 77.28875828 329.18855286 L 76.63998795 327.75799847 L 76.00306702 326.3221302 L 75.37803936 324.88104534 L 74.76494598 323.43484211 L 74.1638298 321.98361969 L 73.57473183 320.52747726 L 72.99769306 319.06651402 L 72.43275166 317.60083008 L 71.87994576 316.13052654 L 71.33931541 314.65570259 L 70.81089592 313.17645931 L 70.29472351 311.69289875 L 69.79083443 310.20512104 L 69.29926109 308.71322823 L 68.82003975 307.2173233 L 68.35320091 305.71750641 L 67.89877796 304.21388245 L 67.45680141 302.70655251 L 67.02730083 301.19561958 L 66.61030674 299.68118858 L 66.20584679 298.16336155 L 65.81394863 296.64224243 L 65.43463993 295.11793518 L 65.06794643 293.5905447 L 64.71389198 292.06017399 L 64.37250137 290.5269289 L 64.04379845 288.99091434 L 63.72780609 287.45223427 L 63.42454433 285.91099548 L 63.13403511 284.36730099 L 62.85629845 282.82125759 L 62.59135151 281.27297211 L 62.33921528 279.72254753 L 62.09990406 278.17009258 L 61.87343597 276.61571217 L 61.65982628 275.05951214 L 61.45908928 273.50159931 L 61.27123928 271.9420805 L 61.09628773 270.38106155 L 60.93424797 268.81865025 L 60.7851305 267.25495243 L 60.64894581 265.69007492 L 60.52570248 264.12412548 L 60.41541004 262.55721092 L 60.31807518 260.9894371 L 60.23370552 259.42091274 L 60.16230583 257.85174465 L 60.10388088 256.28203964 L 60.05843544 254.71190548 L 60.02597141 253.14144897 L 60.00649261 251.57077789 L 60.0 249.99999905 L 60.00649261 248.42922115 L 60.02597141 246.85855007 L 60.05843544 245.28809357 L 60.10388088 243.7179594 L 60.16230583 242.14825439 L 60.23370552 240.5790863 L 60.31807518 239.01056194 L 60.41541004 237.44278812 L 60.52570248 235.87587357 L 60.64894581 234.30992413 L 60.7851305 232.74504662 L 60.93424797 231.1813488 L 61.09628773 229.61893749 L 61.27123928 228.05791855 L 61.45908928 226.49839973 L 61.65982628 224.94048691 L 61.87343597 223.38428688 L 62.09990406 221.82990646 L 62.33921528 220.27745152 L 62.59135151 218.72702694 L 62.85629845 217.17874146 L 63.13403511 215.63269806 L 63.42454433 214.08900356 L 63.72780609 212.54776478 L 64.04379845 211.0090847 L 64.37250137 209.47307014 L 64.71389198 207.93982506 L 65.06794643 206.40945435 L 65.43463993 204.88206387 L 65.81394863 203.35775661 L 66.20584679 201.8366375 L 66.61030674 200.31881046 L 67.02730083 198.80437946 L 67.45680141 197.29344654 L 67.89877796 195.7861166 L 68.35320091 194.28249264 L 68.82003975 192.78267574 L 69.29926109 191.28677082 L 69.79083443 189.79487801 L 70.29472351 188.3071003 L 70.81089592 186.82353973 L 71.33931541 185.34429646 L 71.87994576 183.8694725 L 72.43275166 182.39916897 L 72.99769306 180.93348503 L 73.57473183 179.47252178 L 74.1638298 178.01637936 L 74.76494598 176.56515694 L 75.37803936 175.1189537 L 76.00306702 173.67786884 L 76.63998795 172.24200058 L 77.28875828 170.81144619 L 77.94933224 169.38630486 L 78.62166595 167.9666729 L 79.3057127 166.55264759 L 80.0014267 165.14432621 L 80.70876026 163.74180412 L 81.4276638 162.3451786 L 82.15808964 160.95454407 L 82.89998722 159.56999493 L 83.65330505 158.19162655 L 84.41799355 156.81953335 L 85.19399834 155.45380974 L 85.98126793 154.09454727 L 86.77974796 152.74184036 L 87.58938408 151.39578056 L 88.41012096 150.05646038 L 89.2419014 148.72397137 L 90.08467007 147.39840412 L 90.9383688 146.07984924 L 91.80293846 144.76839828 L 92.67832184 143.46413898 L 93.56445694 142.16716099 L 94.46128464 140.87755394 L 95.36874294 139.59540462 L 96.28677082 138.32080173 L 97.21530437 137.05383205 L 98.15427971 135.79458141 L 99.10363483 134.54313755 L 100.06330299 133.29958439 L 101.03321838 132.06400776 L 102.01331615 130.83649158 L 103.00352859 129.61711979 L 104.00378799 128.40597725 L 105.01402664 127.20314407 L 106.03417397 126.00870514 L 107.06416225 124.8227396 L 108.10391903 123.64533043 L 109.15337467 122.47655773 L 110.2124567 121.31650066 L 111.28109264 120.16523933 L 112.35921097 119.02285194 L 113.44673634 117.88941669 L 114.54359436 116.76501083 L 115.64971066 115.64971066 L 116.76501083 114.54359436 L 117.88941669 113.44673634 L 119.02285194 112.35921097 L 120.16523933 111.28109264 L 121.31650066 110.2124567 L 122.47655773 109.15337467 L 123.64533043 108.10391903 L 124.8227396 107.06416225 L 126.00870514 106.03417397 L 127.20314407 105.01402664 L 128.40597725 104.00378799 L 129.61711979 103.00352859 L 130.83649158 102.01331615 L 132.06400776 101.03321838 L 133.29958439 100.06330299 L 134.54313755 99.10363483 L 135.79458141 98.15427971 L 137.05383205 97.21530437 L 138.32080173 96.28677082 L 139.59540462 95.36874294 L 140.87755394 94.46128464 L 142.16716099 93.56445694 L 143.46413898 92.67832184 L 144.76839828 91.80293846 L 146.07984924 90.9383688 L 147.39840412 90.08467007 L 148.72397137 89.2419014 L 150.05646038 88.41012096 L 151.39578056 87.58938408 L 152.74184036 86.77974796 L 154.09454727 85.98126793 L 155.45380974 85.19399834 L 156.81953335 84.41799355 L 158.19162655 83.65330505 L 159.56999493 82.89998722 L 160.95454407 82.15808964 L 162.3451786 81.4276638 L 163.74180412 80.70876026 L 165.14432621 80.0014267 L 166.55264759 79.3057127 L 167.9666729 78.62166595 L 169.38630486 77.94933224 L 170.81144619 77.28875828 L 172.24200058 76.63998795 L 173.67786884 76.00306702 L 175.1189537 75.37803936 L 176.56515694 74.76494598 L 178.01637936 74.1638298 L 179.47252178 73.57473183 L 180.93348503 72.99769306 L 182.39916897 72.43275166 L 183.8694725 71.87994576 L 185.34429646 71.33931541 L 186.82353973 70.81089592 L 188.3071003 70.29472351 L 189.79487801 69.79083443 L 191.28677082 69.29926109 L 192.78267574 68.82003975 L 194.28249264 68.35320091 L 195.7861166 67.89877796 L 197.29344654 67.45680141 L 198.80437946 67.02730083 L 200.31881046 66.61030674 L 201.8366375 66.20584679 L 203.35775661 65.81394863 L 204.88206387 65.43463993 L 206.40945435 65.06794643 L 207.93982506 64.71389198 L 209.47307014 64.37250137 L 211.0090847 64.04379845 L 212.54776478 63.72780609 L 214.08900356 63.42454433 L 215.63269806 63.13403511 L 217.17874146 62.85629845 L 218.72702694 62.59135151 L 220.27745152 62.33921528 L 221.82990646 62.09990406 L 223.38428688 61.87343597 L 224.94048691 61.65982628 L 226.49839973 61.45908928 L 228.05791855 61.27123928 L 229.61893749 61.09628773 L 231.1813488 60.93424797 L 232.74504662 60.7851305 L 234.30992413 60.64894581 L 235.87587357 60.52570248 L 237.44278812 60.41541004 L 239.01056194 60.31807518 L 240.5790863 60.23370552 L 242.14825439 60.16230583 L 243.7179594 60.10388088 L 245.28809357 60.05843544 L 246.85855007 60.02597141 L 248.42922115 60.00649261 L 250.0 60.0 L 251.57077789 60.00649261 L 253.14144897 60.02597141 L 254.71190548 60.05843544 L 256.28203964 60.10388088 L 257.85174465 60.16230583 L 259.42091274 60.23370552 L 260.9894371 60.31807518 L 262.55721092 60.41541004 L 264.12412548 60.52570248 L 265.69007492 60.64894581 L 267.25495243 60.7851305 L 268.81865025 60.93424797 L 270.38106155 61.09628773 L 271.9420805 61.27123928 L 273.50159931 61.45908928 L 275.05951214 61.65982628 L 276.61571217 61.87343597 L 278.17009258 62.09990406 L 279.72254753 62.33921528 L 281.27297211 62.59135151 L 282.82125759 62.85629845 L 284.36730099 63.13403511 L 285.91099548 63.42454433 L 287.45223427 63.72780609 L 288.99091434 64.04379845 L 290.5269289 64.37250137 L 292.06017399 64.71389198 L 293.5905447 65.06794643 L 295.11793518 65.43463993 L 296.64224243 65.81394863 L 298.16336155 66.20584679 L 299.68118858 66.61030674 L 301.19561958 67.02730083 L 302.70655251 67.45680141 L 304.21388245 67.89877796 L 305.71750641 68.35320091 L 307.2173233 68.82003975 L 308.71322823 69.29926109 L 310.20512104 69.79083443 L 311.69289875 70.29472351 L 313.17645931 70.81089592 L 314.65570259 71.33931541 L 316.13052654 71.87994576 L 317.60083008 72.43275166 L 319.06651402 72.99769306 L 320.52747726 73.57473183 L 321.98361969 74.1638298 L 323.43484211 74.76494598 L 324.88104534 75.37803936 L 326.3221302 76.00306702 L 327.75799847 76.63998795 L 329.18855286 77.28875828 L 330.61369419 77.94933224 L 332.03332615 78.62166595 L 333.387393 79.27670765 L 333.31441689 80.40499878 L 333.20493412 81.97197342 L 333.08735561 83.53836155 L 332.96168518 85.10412025 L 332.82792664 86.66920948 L 332.68608189 88.23358727 L 332.53615665 89.79720974 L 332.3781538 91.3600378 L 332.21207714 92.92202854 L 332.0379324 94.48313999 L 331.85572338 96.04333115 L 331.66545582 97.60255909 L 331.46713352 99.16078377 L 331.26076317 100.71796322 L 331.04634857 102.27405548 L 330.82389641 103.82901859 L 330.59341335 105.38281155 L 330.35490417 106.93539333 L 330.1083765 108.48672104 L 329.85383606 110.03675461 L 329.59128952 111.58545303 L 329.32074451 113.1327734 L 329.04220772 114.67867565 L 328.75568771 116.22311783 L 328.46119022 117.76605892 L 328.15872478 119.30745697 L 327.84829903 120.84727287 L 327.52992058 122.38546371 L 327.20359898 123.92198849 L 326.86934185 125.45680714 L 326.52715874 126.98987865 L 326.17705917 128.52116013 L 325.81905174 130.0506134 L 325.45314598 131.57819653 L 325.07935238 133.10386753 L 324.69768047 134.62758732 L 324.30814075 136.14931488 L 323.91074276 137.66900921 L 323.50549793 139.18663025 L 323.09241676 140.70213604 L 322.6715107 142.21548843 L 322.24279022 143.72664452 L 321.80626774 145.23556614 L 321.36195374 146.74221134 L 320.90986156 148.24654102 L 320.45000172 149.74851513 L 319.98238754 151.24809265 L 319.50703144 152.74523354 L 319.02394581 154.23989868 L 318.53314304 155.73204803 L 318.03463745 157.22164059 L 317.52844143 158.70863819 L 317.01456833 160.19299984 L 316.49303246 161.67468739 L 315.96384811 163.15365887 L 315.4270277 164.62987709 L 314.88258743 166.103302 L 314.33054161 167.5738945 L 313.77090454 169.04161358 L 313.20369053 170.506423 L 312.62891483 171.96828079 L 312.04659462 173.42714977 L 311.45674324 174.88298988 L 310.85937786 176.33576298 L 310.25451279 177.78542995 L 309.64216614 179.23195267 L 309.02235317 180.67529106 L 308.39509106 182.1154089 L 307.760396 183.55226517 L 307.11828423 184.98582363 L 306.4687748 186.41604424 L 305.81188297 187.84289074 L 305.14762783 189.26632309 L 304.47602654 190.68630505 L 303.79709721 192.10279751 L 303.11085796 193.51576233 L 302.41732693 194.92516327 L 301.71652222 196.33096123 L 301.00846386 197.73311996 L 300.29316902 199.13160133 L 299.57065773 200.52636719 L 298.84095001 201.91738224 L 298.10406399 203.30460739 L 297.36001968 204.68800735 L 296.60883808 206.06754303 L 295.8505373 207.44318008 L 295.08513927 208.81488037 L 294.31266308 210.18260765 L 293.53313065 211.54632473 L 292.74656296 212.90599537 L 291.95297909 214.26158428 L 291.15240192 215.61305428 L 290.34485149 216.96037006 L 289.53035069 218.30349445 L 288.70892143 219.64239311 L 287.88058472 220.97702885 L 287.04536247 222.30736732 L 286.20327759 223.63337231 L 285.354352 224.95500755 L 284.49860859 226.27223969 L 283.63607121 227.58503246 L 282.76676178 228.8933506 L 281.8907032 230.19715977 L 281.00792027 231.49642467 L 280.11843586 232.79111004 L 279.22227287 234.08118343 L 278.3194561 235.36660862 L 277.41000938 236.64735126 L 276.49395752 237.92337799 L 275.57132435 239.19465446 L 274.64213467 240.46114635 L 273.70641327 241.72282028 L 272.76418591 242.97964287 L 271.81547642 244.23157978 L 270.86031055 245.47859764 L 269.89871407 246.72066402 L 268.9307127 247.9577446 L 267.95633221 249.18980789 L 266.97559929 250.41681957 L 265.98853874 251.63874722 L 264.99517727 252.85555744 L 263.99554253 254.06721973 L 262.98965931 255.27370071 L 261.97755623 256.47496796 L 260.95925999 257.67098904 L 259.93479633 258.86173344 L 258.90419483 260.04716778 L 257.86748123 261.22726154 L 256.82468414 262.40198231 L 255.77583027 263.57129955 L 254.72094917 264.73518181 L 253.66006851 265.8935976 L 252.59321594 267.04651642 L 251.52042103 268.19390678 L 250.44171047 269.33573914 L 249.35711575 270.471982 L 248.26666355 271.60260677 L 247.17038441 272.72758102 L 246.06830692 273.84687519 L 244.96046066 274.96046066 L 243.84687519 276.06830692 L 242.72758102 277.17038441 L 241.60260677 278.26666355 L 240.471982 279.35711575 L 239.33573914 280.44171047 L 238.19390678 281.52042103 L 237.04651642 282.59321594 L 235.8935976 283.66006851 L 234.73518181 284.72094917 L 233.57129955 285.77583027 L 232.40198231 286.82468414 L 231.22726154 287.86748123 L 230.04716778 288.90419483 L 228.86173344 289.93479633 L 227.67098904 290.95925999 L 226.47496796 291.97755623 L 225.27370071 292.98965931 L 224.06721973 293.99554253 L 222.85555744 294.99517727 L 221.63874722 295.98853874 L 220.41681957 296.97559929 L 219.18980789 297.95633221 L 217.9577446 298.9307127 L 216.72066402 299.89871407 L 215.47859764 300.86031055 L 214.23157978 301.81547642 L 212.97964287 302.76418591 L 211.72282028 303.70641327 L 210.46114635 304.64213467 L 209.19465446 305.57132435 L 207.92337799 306.49395752 L 206.64735126 307.41000938 L 205.36660862 308.3194561 L 204.08118343 309.22227287 L 202.79111004 310.11843586 L 201.49642467 311.00792027 L 200.19715977 311.8907032 L 198.8933506 312.76676178 L 197.58503246 313.63607121 L 196.27223969 314.49860859 L 194.95500755 315.354352 L 193.63337231 316.20327759 L 192.30736732 317.04536247 L 190.97702885 317.88058472 L 189.64239311 318.70892143 L 188.30349445 319.53035069 L 186.96037006 320.34485149 L 185.61305428 321.15240192 L 184.26158428 321.95297909 L 182.90599537 322.74656296 L 181.54632473 323.53313065 L 180.18260765 324.31266308 L 178.81488037 325.08513927 L 177.44318008 325.8505373 L 176.06754303 326.60883808 L 174.68800735 327.36001968 L 173.30460739 328.10406399 L 171.91738224 328.84095001 L 170.52636719 329.57065773 L 169.13160133 330.29316902 L 167.73311996 331.00846386 L 166.33096123 331.71652222 L 164.92516327 332.41732693 L 163.51576233 333.11085796 L 162.10279751 333.79709721 L 160.68630505 334.47602654 L 159.26632309 335.14762783 L 157.84289074 335.81188297 L 156.41604424 336.4687748 L 154.98582363 337.11828423 L 153.55226517 337.760396 L 152.1154089 338.39509106 L 150.67529106 339.02235317 L 149.23195267 339.64216614 L 147.78542995 340.25451279 L 146.33576298 340.85937786 L 144.88298988 341.45674324 L 143.42714977 342.04659462 L 141.96828079 342.62891483 L 140.506423 343.20369053 L 139.04161358 343.77090454 L 137.5738945 344.33054161 L 136.103302 344.88258743 L 134.62987709 345.4270277 L 133.15365887 345.96384811 L 131.67468739 346.49303246 L 130.19299984 347.01456833 L 128.70863819 347.52844143 L 127.22164059 348.03463745 L 125.73204803 348.53314304 L 124.23989868 349.02394581 L 122.74523354 349.50703144 L 121.24809265 349.98238754 L 119.74851513 350.45000172 L 118.24654102 350.90986156 L 116.74221134 351.36195374 L 115.23556614 351.80626774 L 113.72664452 352.24279022 L 112.21548843 352.6715107 L 110.70213604 353.09241676 L 109.18663025 353.50549793 L 107.66900921 353.91074276 L 106.14931488 354.30814075 L 104.62758732 354.69768047 L 103.10386753 355.07935238 L 101.57819653 355.45314598 L 100.0506134 355.81905174 L 98.52116013 356.17705917 L 96.98987865 356.52715874 L 95.45680714 356.86934185 L 93.92198849 357.20359898 Z" fill="#FC002C"/>
<path d=" M 249.99999905 440.0 L 248.42922115 439.99350643 L 246.85855007 439.97402763 L 245.28809357 439.94156361 L 243.7179594 439.89611816 L 242.14825439 439.83769321 L 240.5790863 439.76629353 L 239.01056194 439.68192387 L 237.44278812 439.584589 L 235.87587357 439.47429657 L 234.30992413 439.35105324 L 232.74504662 439.21486855 L 231.1813488 439.06575108 L 229.61893749 438.90371132 L 228.05791855 438.72875977 L 226.49839973 438.54090977 L 224.94048691 438.34017277 L 223.38428688 438.12656307 L 221.82990646 437.90009499 L 220.27745152 437.66078377 L 218.72702694 437.40864754 L 217.17874146 437.1437006 L 215.63269806 436.86596394 L 214.08900356 436.57545471 L 212.54776478 436.27219296 L 211.0090847 435.9562006 L 209.47307014 435.62749767 L 207.93982506 435.28610706 L 206.40945435 434.93205261 L 204.88206387 434.56535912 L 203.35775661 434.18605042 L 201.8366375 433.79415226 L 200.31881046 433.38969231 L 198.80437946 432.97269821 L 197.29344654 432.54319763 L 195.7861166 432.10122108 L 194.28249264 431.64679813 L 192.78267574 431.1799593 L 191.28677082 430.70073795 L 189.79487801 430.20916462 L 188.3071003 429.70527554 L 186.82353973 429.18910313 L 185.34429646 428.66068363 L 183.8694725 428.12005329 L 182.39916897 427.56724739 L 180.93348503 427.00230598 L 179.47252178 426.42526722 L 178.01637936 425.83616924 L 176.56515694 425.23505306 L 175.1189537 424.62195969 L 173.67786884 423.99693203 L 172.24200058 423.3600111 L 170.81144619 422.71124077 L 169.38630486 422.05066681 L 167.9666729 421.37833309 L 166.55264759 420.69428635 L 165.14432621 419.99857235 L 163.74180412 419.29123878 L 162.3451786 418.57233524 L 160.95454407 417.84190941 L 159.56999493 417.10001183 L 158.19162655 416.34669399 L 156.81953335 415.5820055 L 155.45380974 414.80600071 L 154.09454727 414.01873112 L 152.74184036 413.22025108 L 151.39578056 412.41061497 L 150.05646038 411.58987808 L 148.72397137 410.75809765 L 147.39840412 409.91532898 L 146.07984924 409.06163025 L 144.76839828 408.19706059 L 143.46413898 407.32167721 L 142.16716099 406.43554211 L 140.87755394 405.53871441 L 139.59540462 404.6312561 L 138.32080173 403.71322823 L 137.05383205 402.78469467 L 135.79458141 401.84571934 L 134.54313755 400.89636421 L 133.29958439 399.93669605 L 132.06400776 398.96678066 L 130.83649158 397.98668289 L 129.61711979 396.99647045 L 128.40597725 395.99621105 L 127.20314407 394.9859724 L 126.00870514 393.96582508 L 124.8227396 392.93583679 L 123.64533043 391.89608002 L 122.47655773 390.84662437 L 121.31650066 389.78754234 L 120.16523933 388.7189064 L 119.02285194 387.64078808 L 117.88941669 386.55326271 L 116.76501083 385.45640469 L 115.64971066 384.35028839 L 114.54359436 383.23498821 L 113.44673634 382.11058235 L 112.35921097 380.9771471 L 111.28109264 379.83475971 L 110.2124567 378.68349838 L 109.15337467 377.52344131 L 108.10391903 376.35466862 L 107.06416225 375.17725945 L 106.03417397 373.99129391 L 105.01402664 372.79685497 L 104.00378799 371.5940218 L 103.00352859 370.38287926 L 102.01331615 369.16350746 L 101.03321838 367.93599129 L 100.06330299 366.70041466 L 99.10363483 365.4568615 L 98.75705624 365.0 L 100.0 365.0 L 129.84267807 356.88273621 L 159.79400921 349.17603874 L 189.84833622 341.88132191 L 220.0 335.0 L 240.31460571 330.53137207 L 260.57304764 325.81424522 L 270.6372385 323.23012924 L 280.63462639 320.42504883 L 290.54762363 317.34605789 L 300.35864353 313.94020939 L 310.05264091 310.14536572 L 319.58575058 305.91738129 L 328.89715576 301.2303009 L 337.92603874 296.05816841 L 346.6115818 290.37502766 L 354.89296818 284.15492344 L 362.70938015 277.3718996 L 370.0 270.0 L 373.56171131 265.92354202 L 376.94259167 261.6973896 L 380.13889313 257.33037949 L 383.1468668 252.83134747 L 385.96276379 248.20913029 L 388.58283615 243.4725647 L 391.003335 238.63048744 L 393.22051239 233.69173431 L 395.23062038 228.66514301 L 397.02990818 223.55954933 L 398.61462975 218.38378906 L 399.98103619 213.14669991 L 401.12537861 207.85711861 L 402.04390812 202.52388096 L 402.73287678 197.15582371 L 403.18853664 191.76178265 L 403.40805435 186.35298347 L 403.39284325 180.94091511 L 403.14552212 175.53481197 L 402.66871071 170.1439085 L 401.96502686 164.77743816 L 401.0370903 159.4446373 L 399.88751984 154.15474033 L 398.5189352 148.91697979 L 396.93395424 143.740592 L 395.13519573 138.6348114 L 393.12528038 133.60887146 L 390.90682602 128.67200756 L 388.48245144 123.83345413 L 385.85477638 119.10244465 L 383.02641964 114.48821545 L 382.73464394 114.05550766 L 383.23498821 114.54359436 L 384.35028839 115.64971066 L 385.45640469 116.76501083 L 386.55326271 117.88941669 L 387.64078808 119.02285194 L 388.7189064 120.16523933 L 389.78754234 121.31650066 L 390.84662437 122.47655773 L 391.89608002 123.64533043 L 392.93583679 124.8227396 L 393.96582508 126.00870514 L 394.9859724 127.20314407 L 395.99621105 128.40597725 L 396.99647045 129.61711979 L 397.98668289 130.83649158 L 398.96678066 132.06400776 L 399.93669605 133.29958439 L 400.89636421 134.54313755 L 401.84571934 135.79458141 L 402.78469467 137.05383205 L 403.71322823 138.32080173 L 404.6312561 139.59540462 L 405.53871441 140.87755394 L 406.43554211 142.16716099 L 407.32167721 143.46413898 L 408.19706059 144.76839828 L 409.06163025 146.07984924 L 409.91532898 147.39840412 L 410.75809765 148.72397137 L 411.58987808 150.05646038 L 412.41061497 151.39578056 L 413.22025108 152.74184036 L 414.01873112 154.09454727 L 414.80600071 155.45380974 L 415.5820055 156.81953335 L 416.34669399 158.19162655 L 417.10001183 159.56999493 L 417.84190941 160.95454407 L 418.57233524 162.3451786 L 419.29123878 163.74180412 L 419.99857235 165.14432621 L 420.69428635 166.55264759 L 421.37833309 167.9666729 L 422.05066681 169.38630486 L 422.71124077 170.81144619 L 423.3600111 172.24200058 L 423.99693203 173.67786884 L 424.62195969 175.1189537 L 425.23505306 176.56515694 L 425.83616924 178.01637936 L 426.42526722 179.47252178 L 427.00230598 180.93348503 L 427.56724739 182.39916897 L 428.12005329 183.8694725 L 428.66068363 185.34429646 L 429.18910313 186.82353973 L 429.70527554 188.3071003 L 430.20916462 189.79487801 L 430.70073795 191.28677082 L 431.1799593 192.78267574 L 431.64679813 194.28249264 L 432.10122108 195.7861166 L 432.54319763 197.29344654 L 432.97269821 198.80437946 L 433.38969231 200.31881046 L 433.79415226 201.8366375 L 434.18605042 203.35775661 L 434.56535912 204.88206387 L 434.93205261 206.40945435 L 435.28610706 207.93982506 L 435.62749767 209.47307014 L 435.9562006 211.0090847 L 436.27219296 212.54776478 L 436.57545471 214.08900356 L 436.86596394 215.63269806 L 437.1437006 217.17874146 L 437.40864754 218.72702694 L 437.66078377 220.27745152 L 437.90009499 221.82990646 L 438.12656307 223.38428688 L 438.34017277 224.94048691 L 438.54090977 226.49839973 L 438.72875977 228.05791855 L 438.90371132 229.61893749 L 439.06575108 231.1813488 L 439.21486855 232.74504662 L 439.35105324 234.30992413 L 439.47429657 235.87587357 L 439.584589 237.44278812 L 439.68192387 239.01056194 L 439.76629353 240.5790863 L 439.83769321 242.14825439 L 439.89611816 243.7179594 L 439.94156361 245.28809357 L 439.97402763 246.85855007 L 439.99350643 248.42922115 L 440.0 250.0 L 439.99350643 251.57077789 L 439.97402763 253.14144897 L 439.94156361 254.71190548 L 439.89611816 256.28203964 L 439.83769321 257.85174465 L 439.76629353 259.42091274 L 439.68192387 260.9894371 L 439.584589 262.55721092 L 439.47429657 264.12412548 L 439.35105324 265.69007492 L 439.21486855 267.25495243 L 439.06575108 268.81865025 L 438.90371132 270.38106155 L 438.72875977 271.9420805 L 438.54090977 273.50159931 L 438.34017277 275.05951214 L 438.12656307 276.61571217 L 437.90009499 278.17009258 L 437.66078377 279.72254753 L 437.40864754 281.27297211 L 437.1437006 282.82125759 L 436.86596394 284.36730099 L 436.57545471 285.91099548 L 436.27219296 287.45223427 L 435.9562006 288.99091434 L 435.62749767 290.5269289 L 435.28610706 292.06017399 L 434.93205261 293.5905447 L 434.56535912 295.11793518 L 434.18605042 296.64224243 L 433.79415226 298.16336155 L 433.38969231 299.68118858 L 432.97269821 301.19561958 L 432.54319763 302.70655251 L 432.10122108 304.21388245 L 431.64679813 305.71750641 L 431.1799593 307.2173233 L 430.70073795 308.71322823 L 430.20916462 310.20512104 L 429.70527554 311.69289875 L 429.18910313 313.17645931 L 428.66068363 314.65570259 L 428.12005329 316.13052654 L 427.56724739 317.60083008 L 427.00230598 319.06651402 L 426.42526722 320.52747726 L 425.83616924 321.98361969 L 425.23505306 323.43484211 L 424.62195969 324.88104534 L 423.99693203 326.3221302 L 423.3600111 327.75799847 L 422.71124077 329.18855286 L 422.05066681 330.61369419 L 421.37833309 332.03332615 L 420.69428635 333.44735146 L 419.99857235 334.85567284 L 419.29123878 336.25819492 L 418.57233524 337.65482044 L 417.84190941 339.04545498 L 417.10001183 340.43000412 L 416.34669399 341.8083725 L 415.5820055 343.1804657 L 414.80600071 344.54618931 L 414.01873112 345.90545177 L 413.22025108 347.25815868 L 412.41061497 348.60421848 L 411.58987808 349.94353867 L 410.75809765 351.27602768 L 409.91532898 352.60159492 L 409.06163025 353.9201498 L 408.19706059 355.23160076 L 407.32167721 356.53586006 L 406.43554211 357.83283806 L 405.53871441 359.12244511 L 404.6312561 360.40459442 L 403.71322823 361.67919731 L 402.78469467 362.94616699 L 401.84571934 364.20541763 L 400.89636421 365.4568615 L 399.93669605 366.70041466 L 398.96678066 367.93599129 L 397.98668289 369.16350746 L 396.99647045 370.38287926 L 395.99621105 371.5940218 L 394.9859724 372.79685497 L 393.96582508 373.99129391 L 392.93583679 375.17725945 L 391.89608002 376.35466862 L 390.84662437 377.52344131 L 389.78754234 378.68349838 L 388.7189064 379.83475971 L 387.64078808 380.9771471 L 386.55326271 382.11058235 L 385.45640469 383.23498821 L 384.35028839 384.35028839 L 383.23498821 385.45640469 L 382.11058235 386.55326271 L 380.9771471 387.64078808 L 379.83475971 388.7189064 L 378.68349838 389.78754234 L 377.52344131 390.84662437 L 376.35466862 391.89608002 L 375.17725945 392.93583679 L 373.99129391 393.96582508 L 372.79685497 394.9859724 L 371.5940218 395.99621105 L 370.38287926 396.99647045 L 369.16350746 397.98668289 L 367.93599129 398.96678066 L 366.70041466 399.93669605 L 365.4568615 400.89636421 L 364.20541763 401.84571934 L 362.94616699 402.78469467 L 361.67919731 403.71322823 L 360.40459442 404.6312561 L 359.12244511 405.53871441 L 357.83283806 406.43554211 L 356.53586006 407.32167721 L 355.23160076 408.19706059 L 353.9201498 409.06163025 L 352.60159492 409.91532898 L 351.27602768 410.75809765 L 349.94353867 411.58987808 L 348.60421848 412.41061497 L 347.25815868 413.22025108 L 345.90545177 414.01873112 L 344.54618931 414.80600071 L 343.1804657 415.5820055 L 341.8083725 416.34669399 L 340.43000412 417.10001183 L 339.04545498 417.84190941 L 337.65482044 418.57233524 L 336.25819492 419.29123878 L 334.85567284 419.99857235 L 333.44735146 420.69428635 L 332.03332615 421.37833309 L 330.61369419 422.05066681 L 329.18855286 422.71124077 L 327.75799847 423.3600111 L 326.3221302 423.99693203 L 324.88104534 424.62195969 L 323.43484211 425.23505306 L 321.98361969 425.83616924 L 320.52747726 426.42526722 L 319.06651402 427.00230598 L 317.60083008 427.56724739 L 316.13052654 428.12005329 L 314.65570259 428.66068363 L 313.17645931 429.18910313 L 311.69289875 429.70527554 L 310.20512104 430.20916462 L 308.71322823 430.70073795 L 307.2173233 431.1799593 L 305.71750641 431.64679813 L 304.21388245 432.10122108 L 302.70655251 432.54319763 L 301.19561958 432.97269821 L 299.68118858 433.38969231 L 298.16336155 433.79415226 L 296.64224243 434.18605042 L 295.11793518 434.56535912 L 293.5905447 434.93205261 L 292.06017399 435.28610706 L 290.5269289 435.62749767 L 288.99091434 435.9562006 L 287.45223427 436.27219296 L 285.91099548 436.57545471 L 284.36730099 436.86596394 L 282.82125759 437.1437006 L 281.27297211 437.40864754 L 279.72254753 437.66078377 L 278.17009258 437.90009499 L 276.61571217 438.12656307 L 275.05951214 438.34017277 L 273.50159931 438.54090977 L 271.9420805 438.72875977 L 270.38106155 438.90371132 L 268.81865025 439.06575108 L 267.25495243 439.21486855 L 265.69007492 439.35105324 L 264.12412548 439.47429657 L 262.55721092 439.584589 L 260.9894371 439.68192387 L 259.42091274 439.76629353 L 257.85174465 439.83769321 L 256.28203964 439.89611816 L 254.71190548 439.94156361 L 253.14144897 439.97402763 L 251.57077789 439.99350643 Z" fill="#0B60BB"/>
</svg>
