<svg version="1.1"
     xmlns="http://www.w3.org/2000/svg"
     width="500"
     height="500">

<rect x="0" y="0" width="500" height="500" fill="#01205C"/>
<circle cx="250" cy="250" r="200" fill="white"/>
<path d=" M 93.23725605010986 357.346718788147 L 92.6783218383789 356.5358600616455 L 90.93836879730225 353.9201498031616 L 89.24190139770508 351.27602767944336 L 87.58938407897949 348.6042184829712 L 85.98126792907715 345.90545177459717 L 84.41799354553223 343.1804656982422 L 82.89998722076416 340.43000411987305 L 81.42766380310059 337.6548204421997 L 80.00142669677734 334.8556728363037 L 78.62166595458984 332.0333261489868 L 77.28875827789307 329.1885528564453 L 76.00306701660156 326.32213020324707 L 74.76494598388672 323.4348421096802 L 73.57473182678223 320.5274772644043 L 72.43275165557861 317.600830078125 L 71.33931541442871 314.6557025909424 L 70.29472351074219 311.6928987503052 L 69.29926109313965 308.713228225708 L 68.35320091247559 305.7175064086914 L 67.45680141448975 302.70655250549316 L 66.61030673980713 299.681188583374 L 65.81394863128662 296.6422424316406 L 65.067946434021 293.59054470062256 L 64.37250137329102 290.52692890167236 L 63.727806091308594 287.4522342681885 L 63.13403511047363 284.36730098724365 L 62.59135150909424 281.2729721069336 L 62.09990406036377 278.17009258270264 L 61.65982627868652 275.0595121383667 L 61.271239280700684 271.9420804977417 L 60.934247970581055 268.8186502456665 L 60.648945808410645 265.6900749206543 L 60.41541004180908 262.5572109222412 L 60.23370552062988 259.42091274261475 L 60.103880882263184 256.282039642334 L 60.02597141265869 253.14144897460938 L 60.0 249.99999904632568 L 60.02597141265869 246.8585500717163 L 60.103880882263184 243.7179594039917 L 60.23370552062988 240.57908630371094 L 60.41541004180908 237.44278812408447 L 60.648945808410645 234.3099241256714 L 60.934247970581055 231.18134880065918 L 61.271239280700684 228.05791854858398 L 61.65982627868652 224.94048690795898 L 62.09990406036377 221.82990646362305 L 62.59135150909424 218.7270269393921 L 63.13403511047363 215.63269805908203 L 63.727806091308594 212.5477647781372 L 64.37250137329102 209.47307014465332 L 65.067946434021 206.40945434570312 L 65.81394863128662 203.35775661468506 L 66.61030673980713 200.31881046295166 L 67.45680141448975 197.29344654083252 L 68.35320091247559 194.28249263763428 L 69.29926109313965 191.28677082061768 L 70.29472351074219 188.3071002960205 L 71.33931541442871 185.3442964553833 L 72.43275165557861 182.39916896820068 L 73.57473182678223 179.4725217819214 L 74.76494598388672 176.5651569366455 L 76.00306701660156 173.6778688430786 L 77.28875827789307 170.81144618988037 L 78.62166595458984 167.96667289733887 L 80.00142669677734 165.14432621002197 L 81.42766380310059 162.34517860412598 L 82.89998722076416 159.56999492645264 L 84.41799354553223 156.8195333480835 L 85.98126792907715 154.09454727172852 L 87.58938407897949 151.3957805633545 L 89.24190139770508 148.72397136688232 L 90.93836879730225 146.07984924316406 L 92.6783218383789 143.46413898468018 L 94.46128463745117 140.87755393981934 L 96.28677082061768 138.32080173492432 L 98.1542797088623 135.79458141326904 L 100.06330299377441 133.2995843887329 L 102.01331615447998 130.83649158477783 L 104.00378799438477 128.4059772491455 L 106.0341739654541 126.00870513916016 L 108.10391902923584 123.64533042907715 L 110.21245670318604 121.31650066375732 L 112.35921096801758 119.02285194396973 L 114.54359436035156 116.76501083374023 L 116.76501083374023 114.54359436035156 L 119.02285194396973 112.35921096801758 L 121.31650066375732 110.21245670318604 L 123.64533042907715 108.10391902923584 L 126.00870513916016 106.0341739654541 L 128.4059772491455 104.00378799438477 L 130.83649158477783 102.01331615447998 L 133.2995843887329 100.06330299377441 L 135.79458141326904 98.1542797088623 L 138.32080173492432 96.28677082061768 L 140.87755393981934 94.46128463745117 L 143.46413898468018 92.6783218383789 L 146.07984924316406 90.93836879730225 L 148.72397136688232 89.24190139770508 L 151.3957805633545 87.58938407897949 L 154.09454727172852 85.98126792907715 L 156.8195333480835 84.41799354553223 L 159.56999492645264 82.89998722076416 L 162.34517860412598 81.42766380310059 L 165.14432621002197 80.00142669677734 L 167.96667289733887 78.62166595458984 L 170.81144618988037 77.28875827789307 L 173.6778688430786 76.00306701660156 L 176.5651569366455 74.76494598388672 L 179.4725217819214 73.57473182678223 L 182.39916896820068 72.43275165557861 L 185.3442964553833 71.33931541442871 L 188.3071002960205 70.29472351074219 L 191.28677082061768 69.29926109313965 L 194.28249263763428 68.35320091247559 L 197.29344654083252 67.45680141448975 L 200.31881046295166 66.61030673980713 L 203.35775661468506 65.81394863128662 L 206.40945434570312 65.067946434021 L 209.47307014465332 64.37250137329102 L 212.5477647781372 63.727806091308594 L 215.63269805908203 63.13403511047363 L 218.7270269393921 62.59135150909424 L 221.82990646362305 62.09990406036377 L 224.94048690795898 61.65982627868652 L 228.05791854858398 61.271239280700684 L 231.18134880065918 60.934247970581055 L 234.3099241256714 60.648945808410645 L 237.44278812408447 60.41541004180908 L 240.57908630371094 60.23370552062988 L 243.7179594039917 60.103880882263184 L 246.8585500717163 60.02597141265869 L 250.0 60.0 L 253.14144897460938 60.02597141265869 L 256.282039642334 60.103880882263184 L 259.42091274261475 60.23370552062988 L 262.5572109222412 60.41541004180908 L 265.6900749206543 60.648945808410645 L 268.8186502456665 60.934247970581055 L 271.9420804977417 61.271239280700684 L 275.0595121383667 61.65982627868652 L 278.17009258270264 62.09990406036377 L 281.2729721069336 62.59135150909424 L 284.36730098724365 63.13403511047363 L 287.4522342681885 63.727806091308594 L 290.52692890167236 64.37250137329102 L 293.59054470062256 65.067946434021 L 296.6422424316406 65.81394863128662 L 299.681188583374 66.61030673980713 L 302.70655250549316 67.45680141448975 L 305.7175064086914 68.35320091247559 L 308.713228225708 69.29926109313965 L 311.6928987503052 70.29472351074219 L 314.6557025909424 71.33931541442871 L 317.600830078125 72.43275165557861 L 320.5274772644043 73.57473182678223 L 323.4348421096802 74.76494598388672 L 326.32213020324707 76.00306701660156 L 329.1885528564453 77.28875827789307 L 332.0333261489868 78.62166595458984 L 333.3858394622803 79.28286933898926 L 333.2049341201782 81.97197341918945 L 332.96168518066406 85.1041202545166 L 332.6860818862915 88.23358726501465 L 332.37815380096436 91.3600378036499 L 332.03793239593506 94.48313999176025 L 331.66545581817627 97.60255908966064 L 331.26076316833496 100.71796321868896 L 330.82389640808105 103.82901859283447 L 330.3549041748047 106.93539333343506 L 329.8538360595703 110.0367546081543 L 329.32074451446533 113.13277339935303 L 328.75568771362305 116.22311782836914 L 328.1587247848511 119.30745697021484 L 327.52992057800293 122.38546371459961 L 326.86934185028076 125.45680713653564 L 326.177059173584 128.52116012573242 L 325.45314598083496 131.57819652557373 L 324.69768047332764 134.6275873184204 L 323.9107427597046 137.6690092086792 L 323.09241676330566 140.7021360397339 L 322.24279022216797 143.7266445159912 L 321.36195373535156 146.7422113418579 L 320.45000171661377 149.74851512908936 L 319.50703144073486 152.7452335357666 L 318.53314304351807 155.73204803466797 L 317.5284414291382 158.70863819122314 L 316.49303245544434 161.67468738555908 L 315.42702770233154 164.6298770904541 L 314.3305416107178 167.57389450073242 L 313.20369052886963 170.506422996521 L 312.046594619751 173.42714977264404 L 310.85937786102295 176.3357629776001 L 309.6421661376953 179.23195266723633 L 308.39509105682373 182.1154088973999 L 307.11828422546387 184.98582363128662 L 305.8118829727173 187.84289073944092 L 304.4760265350342 190.68630504608154 L 303.110857963562 193.51576232910156 L 301.7165222167969 196.330961227417 L 300.29316902160645 199.13160133361816 L 298.84095001220703 201.9173822402954 L 297.3600196838379 204.68800735473633 L 295.85053730010986 207.44318008422852 L 294.3126630783081 210.18260765075684 L 292.7465629577637 212.90599536895752 L 291.1524019241333 215.6130542755127 L 289.53035068511963 218.30349445343018 L 287.8805847167969 220.97702884674072 L 286.2032775878906 223.63337230682373 L 284.49860858917236 226.2722396850586 L 282.76676177978516 228.8933506011963 L 281.00792026519775 231.4964246749878 L 279.2222728729248 234.08118343353271 L 277.4100093841553 236.6473512649536 L 275.5713243484497 239.19465446472168 L 273.70641326904297 241.72282028198242 L 271.8154764175415 244.2315797805786 L 269.89871406555176 246.72066402435303 L 267.9563322067261 249.1898078918457 L 265.98853874206543 251.638747215271 L 263.9955425262451 254.0672197341919 L 261.9775562286377 256.47496795654297 L 259.934796333313 258.8617334365845 L 257.86748123168945 261.2272615432739 L 255.77583026885986 263.5712995529175 L 253.6600685119629 265.89359760284424 L 251.5204210281372 268.1939067840576 L 249.35711574554443 270.4719820022583 L 247.17038440704346 272.7275810241699 L 244.9604606628418 274.9604606628418 L 242.72758102416992 277.17038440704346 L 240.4719820022583 279.35711574554443 L 238.19390678405762 281.5204210281372 L 235.89359760284424 283.6600685119629 L 233.57129955291748 285.77583026885986 L 231.22726154327393 287.86748123168945 L 228.86173343658447 289.934796333313 L 226.47496795654297 291.9775562286377 L 224.0672197341919 293.9955425262451 L 221.638747215271 295.98853874206543 L 219.1898078918457 297.9563322067261 L 216.72066402435303 299.89871406555176 L 214.2315797805786 301.8154764175415 L 211.72282028198242 303.70641326904297 L 209.19465446472168 305.5713243484497 L 206.6473512649536 307.4100093841553 L 204.08118343353271 309.2222728729248 L 201.4964246749878 311.00792026519775 L 198.8933506011963 312.76676177978516 L 196.2722396850586 314.49860858917236 L 193.63337230682373 316.2032775878906 L 190.97702884674072 317.8805847167969 L 188.30349445343018 319.53035068511963 L 185.6130542755127 321.1524019241333 L 182.90599536895752 322.7465629577637 L 180.18260765075684 324.3126630783081 L 177.44318008422852 325.85053730010986 L 174.68800735473633 327.3600196838379 L 171.9173822402954 328.84095001220703 L 169.13160133361816 330.29316902160645 L 166.330961227417 331.7165222167969 L 163.51576232910156 333.110857963562 L 160.68630504608154 334.4760265350342 L 157.84289073944092 335.8118829727173 L 154.98582363128662 337.11828422546387 L 152.1154088973999 338.39509105682373 L 149.23195266723633 339.6421661376953 L 146.3357629776001 340.85937786102295 L 143.42714977264404 342.046594619751 L 140.506422996521 343.20369052886963 L 137.57389450073242 344.3305416107178 L 134.6298770904541 345.42702770233154 L 131.67468738555908 346.49303245544434 L 128.70863819122314 347.5284414291382 L 125.73204803466797 348.53314304351807 L 122.7452335357666 349.50703144073486 L 119.74851512908936 350.45000171661377 L 116.74221134185791 351.36195373535156 L 113.72664451599121 352.24279022216797 L 110.70213603973389 353.09241676330566 L 107.6690092086792 353.9107427597046 L 104.62758731842041 354.69768047332764 L 101.57819652557373 355.45314598083496 L 98.52116012573242 356.177059173584 L 95.45680713653564 356.86934185028076 Z" fill="#FC002C"/>
<path d=" M 249.99999904632568 440.0 L 246.8585500717163 439.974027633667 L 243.7179594039917 439.8961181640625 L 240.57908630371094 439.7662935256958 L 237.44278812408447 439.5845890045166 L 234.3099241256714 439.35105323791504 L 231.18134880065918 439.06575107574463 L 228.05791854858398 438.728759765625 L 224.94048690795898 438.34017276763916 L 221.82990646362305 437.9000949859619 L 218.7270269393921 437.40864753723145 L 215.63269805908203 436.86596393585205 L 212.5477647781372 436.2721929550171 L 209.47307014465332 435.62749767303467 L 206.40945434570312 434.9320526123047 L 203.35775661468506 434.18605041503906 L 200.31881046295166 433.38969230651855 L 197.29344654083252 432.54319763183594 L 194.28249263763428 431.6467981338501 L 191.28677082061768 430.70073795318604 L 188.3071002960205 429.7052755355835 L 185.3442964553833 428.660683631897 L 182.39916896820068 427.56724739074707 L 179.4725217819214 426.42526721954346 L 176.5651569366455 425.23505306243896 L 173.6778688430786 423.9969320297241 L 170.81144618988037 422.7112407684326 L 167.96667289733887 421.37833309173584 L 165.14432621002197 419.99857234954834 L 162.34517860412598 418.5723352432251 L 159.56999492645264 417.1000118255615 L 156.8195333480835 415.58200550079346 L 154.09454727172852 414.01873111724854 L 151.3957805633545 412.4106149673462 L 148.72397136688232 410.7580976486206 L 146.07984924316406 409.06163024902344 L 143.46413898468018 407.3216772079468 L 140.87755393981934 405.5387144088745 L 138.32080173492432 403.713228225708 L 135.79458141326904 401.8457193374634 L 133.2995843887329 399.93669605255127 L 130.83649158477783 397.9866828918457 L 128.4059772491455 395.9962110519409 L 126.00870513916016 393.9658250808716 L 123.64533042907715 391.89608001708984 L 121.31650066375732 389.78754234313965 L 119.02285194396973 387.6407880783081 L 116.76501083374023 385.4564046859741 L 114.54359436035156 383.23498821258545 L 112.35921096801758 380.97714710235596 L 110.21245670318604 378.68349838256836 L 108.10391902923584 376.35466861724854 L 106.0341739654541 373.9912939071655 L 104.00378799438477 371.5940217971802 L 102.01331615447998 369.16350746154785 L 100.06330299377441 366.7004146575928 L 98.76224708557129 365.0 L 100.0 365.0 L 129.84267807006836 356.8827362060547 L 159.7940092086792 349.17603874206543 L 189.8483362197876 341.88132190704346 L 220.0 335.0 L 240.31460571289062 330.5313720703125 L 260.57304763793945 325.814245223999 L 270.63723850250244 323.23012924194336 L 280.6346263885498 320.425048828125 L 290.5476236343384 317.3460578918457 L 300.3586435317993 313.9402093887329 L 310.052640914917 310.14536571502686 L 319.585750579834 305.9173812866211 L 328.89715576171875 301.2303009033203 L 337.92603874206543 296.0581684112549 L 346.61158180236816 290.3750276565552 L 354.8929681777954 284.1549234390259 L 362.7093801498413 277.37189960479736 L 370.0 270.0 L 373.56171131134033 265.9235420227051 L 376.9425916671753 261.69738960266113 L 380.1388931274414 257.330379486084 L 383.1468667984009 252.83134746551514 L 385.9627637863159 248.2091302871704 L 388.58283615112305 243.47256469726562 L 391.0033349990845 238.6304874420166 L 393.2205123901367 233.69173431396484 L 395.2306203842163 228.6651430130005 L 397.0299081802368 223.55954933166504 L 398.6146297454834 218.3837890625 L 399.98103618621826 213.1466999053955 L 401.1253786087036 207.85711860656738 L 402.04390811920166 202.52388095855713 L 402.7328767776489 197.15582370758057 L 403.18853664398193 191.7617826461792 L 403.40805435180664 186.35298347473145 L 403.39284324645996 180.94091510772705 L 403.14552211761475 175.53481197357178 L 402.66871070861816 170.1439085006714 L 401.96502685546875 164.77743816375732 L 401.0370903015137 159.44463729858398 L 399.8875198364258 154.15474033355713 L 398.51893520355225 148.9169797897339 L 396.9339542388916 143.74059200286865 L 395.1351957321167 138.6348114013672 L 393.125280380249 133.60887145996094 L 390.9068260192871 128.67200756072998 L 388.4824514389038 123.83345413208008 L 385.8547763824463 119.10244464874268 L 383.0264196395874 114.48821544647217 L 382.74244117736816 114.06707191467285 L 383.23498821258545 114.54359436035156 L 385.4564046859741 116.76501083374023 L 387.6407880783081 119.02285194396973 L 389.78754234313965 121.31650066375732 L 391.89608001708984 123.64533042907715 L 393.9658250808716 126.00870513916016 L 395.9962110519409 128.4059772491455 L 397.9866828918457 130.83649158477783 L 399.93669605255127 133.2995843887329 L 401.8457193374634 135.79458141326904 L 403.713228225708 138.32080173492432 L 405.5387144088745 140.87755393981934 L 407.3216772079468 143.46413898468018 L 409.06163024902344 146.07984924316406 L 410.7580976486206 148.72397136688232 L 412.4106149673462 151.3957805633545 L 414.01873111724854 154.09454727172852 L 415.58200550079346 156.8195333480835 L 417.1000118255615 159.56999492645264 L 418.5723352432251 162.34517860412598 L 419.99857234954834 165.14432621002197 L 421.37833309173584 167.96667289733887 L 422.7112407684326 170.81144618988037 L 423.9969320297241 173.6778688430786 L 425.23505306243896 176.5651569366455 L 426.42526721954346 179.4725217819214 L 427.56724739074707 182.39916896820068 L 428.660683631897 185.3442964553833 L 429.7052755355835 188.3071002960205 L 430.70073795318604 191.28677082061768 L 431.6467981338501 194.28249263763428 L 432.54319763183594 197.29344654083252 L 433.38969230651855 200.31881046295166 L 434.18605041503906 203.35775661468506 L 434.9320526123047 206.40945434570312 L 435.62749767303467 209.47307014465332 L 436.2721929550171 212.5477647781372 L 436.86596393585205 215.63269805908203 L 437.40864753723145 218.7270269393921 L 437.9000949859619 221.82990646362305 L 438.34017276763916 224.94048690795898 L 438.728759765625 228.05791854858398 L 439.06575107574463 231.18134880065918 L 439.35105323791504 234.3099241256714 L 439.5845890045166 237.44278812408447 L 439.7662935256958 240.57908630371094 L 439.8961181640625 243.7179594039917 L 439.974027633667 246.8585500717163 L 440.0 250.0 L 439.974027633667 253.14144897460938 L 439.8961181640625 256.282039642334 L 439.7662935256958 259.42091274261475 L 439.5845890045166 262.5572109222412 L 439.35105323791504 265.6900749206543 L 439.06575107574463 268.8186502456665 L 438.728759765625 271.9420804977417 L 438.34017276763916 275.0595121383667 L 437.9000949859619 278.17009258270264 L 437.40864753723145 281.2729721069336 L 436.86596393585205 284.36730098724365 L 436.2721929550171 287.4522342681885 L 435.62749767303467 290.52692890167236 L 434.9320526123047 293.59054470062256 L 434.18605041503906 296.6422424316406 L 433.38969230651855 299.681188583374 L 432.54319763183594 302.70655250549316 L 431.6467981338501 305.7175064086914 L 430.70073795318604 308.713228225708 L 429.7052755355835 311.6928987503052 L 428.660683631897 314.6557025909424 L 427.56724739074707 317.600830078125 L 426.42526721954346 320.5274772644043 L 425.23505306243896 323.4348421096802 L 423.9969320297241 326.32213020324707 L 422.7112407684326 329.1885528564453 L 421.37833309173584 332.0333261489868 L 419.99857234954834 334.8556728363037 L 418.5723352432251 337.6548204421997 L 417.1000118255615 340.43000411987305 L 415.58200550079346 343.1804656982422 L 414.01873111724854 345.90545177459717 L 412.4106149673462 348.6042184829712 L 410.7580976486206 351.27602767944336 L 409.06163024902344 353.9201498031616 L 407.3216772079468 356.5358600616455 L 405.5387144088745 359.12244510650635 L 403.713228225708 361.67919731140137 L 401.8457193374634 364.20541763305664 L 399.93669605255127 366.7004146575928 L 397.9866828918457 369.16350746154785 L 395.9962110519409 371.5940217971802 L 393.9658250808716 373.9912939071655 L 391.89608001708984 376.35466861724854 L 389.78754234313965 378.68349838256836 L 387.6407880783081 380.97714710235596 L 385.4564046859741 383.23498821258545 L 383.23498821258545 385.4564046859741 L 380.97714710235596 387.6407880783081 L 378.68349838256836 389.78754234313965 L 376.35466861724854 391.89608001708984 L 373.9912939071655 393.9658250808716 L 371.5940217971802 395.9962110519409 L 369.16350746154785 397.9866828918457 L 366.7004146575928 399.93669605255127 L 364.20541763305664 401.8457193374634 L 361.67919731140137 403.713228225708 L 359.12244510650635 405.5387144088745 L 356.5358600616455 407.3216772079468 L 353.9201498031616 409.06163024902344 L 351.27602767944336 410.7580976486206 L 348.6042184829712 412.4106149673462 L 345.90545177459717 414.01873111724854 L 343.1804656982422 415.58200550079346 L 340.43000411987305 417.1000118255615 L 337.6548204421997 418.5723352432251 L 334.8556728363037 419.99857234954834 L 332.0333261489868 421.37833309173584 L 329.1885528564453 422.7112407684326 L 326.32213020324707 423.9969320297241 L 323.4348421096802 425.23505306243896 L 320.5274772644043 426.42526721954346 L 317.600830078125 427.56724739074707 L 314.6557025909424 428.660683631897 L 311.6928987503052 429.7052755355835 L 308.713228225708 430.70073795318604 L 305.7175064086914 431.6467981338501 L 302.70655250549316 432.54319763183594 L 299.681188583374 433.38969230651855 L 296.6422424316406 434.18605041503906 L 293.59054470062256 434.9320526123047 L 290.52692890167236 435.62749767303467 L 287.4522342681885 436.2721929550171 L 284.36730098724365 436.86596393585205 L 281.2729721069336 437.40864753723145 L 278.17009258270264 437.9000949859619 L 275.0595121383667 438.34017276763916 L 271.9420804977417 438.728759765625 L 268.8186502456665 439.06575107574463 L 265.6900749206543 439.35105323791504 L 262.5572109222412 439.5845890045166 L 259.42091274261475 439.7662935256958 L 256.282039642334 439.8961181640625 L 253.14144897460938 439.974027633667 Z" fill="#0B60BB"/>
</svg>
