<svg version="1.1"
     xmlns="http://www.w3.org/2000/svg"
     width="500"
     height="500">

<rect x="0" y="0" width="500" height="500" fill="#01205C"/>
<circle cx="250" cy="250" r="200" fill="white"/>
<path d=" M 93.23432350158691 357.3496427536011 L 92.6783218383789 356.5358600616455 L 91.80293846130371 355.2316007614136 L 90.93836879730225 353.9201498031616 L 90.0846700668335 352.60159492492676 L 89.24190139770508 351.27602767944336 L 88.4101209640503 349.9435386657715 L 87.58938407897949 348.6042184829712 L 86.77974796295166 347.25815868377686 L 85.98126792907715 345.90545177459717 L 85.19399833679199 344.5461893081665 L 84.41799354553223 343.1804656982422 L 83.65330505371094 341.8083724975586 L 82.89998722076416 340.43000411987305 L 82.15808963775635 339.04545497894287 L 81.42766380310059 337.6548204421997 L 80.70876026153564 336.2581949234009 L 80.00142669677734 334.8556728363037 L 79.30571269989014 333.4473514556885 L 78.62166595458984 332.0333261489868 L 77.94933223724365 330.613694190979 L 77.28875827789307 329.1885528564453 L 76.63998794555664 327.7579984664917 L 76.00306701660156 326.32213020324707 L 75.37803936004639 324.8810453414917 L 74.76494598388672 323.4348421096802 L 74.1638298034668 321.9836196899414 L 73.57473182678223 320.5274772644043 L 72.99769306182861 319.06651401519775 L 72.43275165557861 317.600830078125 L 71.87994575500488 316.1305265426636 L 71.33931541442871 314.6557025909424 L 70.8108959197998 313.17645931243896 L 70.29472351074219 311.6928987503052 L 69.79083442687988 310.20512104034424 L 69.29926109313965 308.713228225708 L 68.82003974914551 307.21732330322266 L 68.35320091247559 305.7175064086914 L 67.89877796173096 304.21388244628906 L 67.45680141448975 302.70655250549316 L 67.02730083465576 301.1956195831299 L 66.61030673980713 299.681188583374 L 66.20584678649902 298.16336154937744 L 65.81394863128662 296.6422424316406 L 65.4346399307251 295.11793518066406 L 65.067946434021 293.59054470062256 L 64.71389198303223 292.0601739883423 L 64.37250137329102 290.52692890167236 L 64.04379844665527 288.9909143447876 L 63.727806091308594 287.4522342681885 L 63.42454433441162 285.91099548339844 L 63.13403511047363 284.36730098724365 L 62.85629844665527 282.82125759124756 L 62.59135150909424 281.2729721069336 L 62.33921527862549 279.72254753112793 L 62.09990406036377 278.17009258270264 L 61.873435974121094 276.6157121658325 L 61.65982627868652 275.0595121383667 L 61.459089279174805 273.5015993118286 L 61.271239280700684 271.9420804977417 L 61.09628772735596 270.3810615539551 L 60.934247970581055 268.8186502456665 L 60.78513050079346 267.2549524307251 L 60.648945808410645 265.6900749206543 L 60.525702476501465 264.12412548065186 L 60.41541004180908 262.5572109222412 L 60.31807518005371 260.9894371032715 L 60.23370552062988 259.42091274261475 L 60.16230583190918 257.85174465179443 L 60.103880882263184 256.282039642334 L 60.05843544006348 254.71190547943115 L 60.02597141265869 253.14144897460938 L 60.006492614746094 251.5707778930664 L 60.0 249.99999904632568 L 60.006492614746094 248.42922115325928 L 60.02597141265869 246.8585500717163 L 60.05843544006348 245.28809356689453 L 60.103880882263184 243.7179594039917 L 60.16230583190918 242.14825439453125 L 60.23370552062988 240.57908630371094 L 60.31807518005371 239.0105619430542 L 60.41541004180908 237.44278812408447 L 60.525702476501465 235.87587356567383 L 60.648945808410645 234.3099241256714 L 60.78513050079346 232.7450466156006 L 60.934247970581055 231.18134880065918 L 61.09628772735596 229.6189374923706 L 61.271239280700684 228.05791854858398 L 61.459089279174805 226.49839973449707 L 61.65982627868652 224.94048690795898 L 61.873435974121094 223.38428688049316 L 62.09990406036377 221.82990646362305 L 62.33921527862549 220.27745151519775 L 62.59135150909424 218.7270269393921 L 62.85629844665527 217.17874145507812 L 63.13403511047363 215.63269805908203 L 63.42454433441162 214.08900356292725 L 63.727806091308594 212.5477647781372 L 64.04379844665527 211.0090847015381 L 64.37250137329102 209.47307014465332 L 64.71389198303223 207.9398250579834 L 65.067946434021 206.40945434570312 L 65.4346399307251 204.88206386566162 L 65.81394863128662 203.35775661468506 L 66.20584678649902 201.83663749694824 L 66.61030673980713 200.31881046295166 L 67.02730083465576 198.8043794631958 L 67.45680141448975 197.29344654083252 L 67.89877796173096 195.78611660003662 L 68.35320091247559 194.28249263763428 L 68.82003974914551 192.78267574310303 L 69.29926109313965 191.28677082061768 L 69.79083442687988 189.79487800598145 L 70.29472351074219 188.3071002960205 L 70.8108959197998 186.82353973388672 L 71.33931541442871 185.3442964553833 L 71.87994575500488 183.8694725036621 L 72.43275165557861 182.39916896820068 L 72.99769306182861 180.93348503112793 L 73.57473182678223 179.4725217819214 L 74.1638298034668 178.01637935638428 L 74.76494598388672 176.5651569366455 L 75.37803936004639 175.11895370483398 L 76.00306701660156 173.6778688430786 L 76.63998794555664 172.24200057983398 L 77.28875827789307 170.81144618988037 L 77.94933223724365 169.38630485534668 L 78.62166595458984 167.96667289733887 L 79.30571269989014 166.5526475906372 L 80.00142669677734 165.14432621002197 L 80.70876026153564 163.7418041229248 L 81.42766380310059 162.34517860412598 L 82.15808963775635 160.9545440673828 L 82.89998722076416 159.56999492645264 L 83.65330505371094 158.1916265487671 L 84.41799354553223 156.8195333480835 L 85.19399833679199 155.45380973815918 L 85.98126792907715 154.09454727172852 L 86.77974796295166 152.74184036254883 L 87.58938407897949 151.3957805633545 L 88.4101209640503 150.0564603805542 L 89.24190139770508 148.72397136688232 L 90.0846700668335 147.39840412139893 L 90.93836879730225 146.07984924316406 L 91.80293846130371 144.7683982849121 L 92.6783218383789 143.46413898468018 L 93.56445693969727 142.167160987854 L 94.46128463745117 140.87755393981934 L 95.36874294281006 139.59540462493896 L 96.28677082061768 138.32080173492432 L 97.21530437469482 137.05383205413818 L 98.1542797088623 135.79458141326904 L 99.10363483428955 134.543137550354 L 100.06330299377441 133.2995843887329 L 101.03321838378906 132.06400775909424 L 102.01331615447998 130.83649158477783 L 103.0035285949707 129.61711978912354 L 104.00378799438477 128.4059772491455 L 105.0140266418457 127.20314407348633 L 106.0341739654541 126.00870513916016 L 107.0641622543335 124.82273960113525 L 108.10391902923584 123.64533042907715 L 109.15337467193604 122.47655773162842 L 110.21245670318604 121.31650066375732 L 111.2810926437378 120.16523933410645 L 112.35921096801758 119.02285194396973 L 113.4467363357544 117.88941669464111 L 114.54359436035156 116.76501083374023 L 115.6497106552124 115.6497106552124 L 116.76501083374023 114.54359436035156 L 117.88941669464111 113.4467363357544 L 119.02285194396973 112.35921096801758 L 120.16523933410645 111.2810926437378 L 121.31650066375732 110.21245670318604 L 122.47655773162842 109.15337467193604 L 123.64533042907715 108.10391902923584 L 124.82273960113525 107.0641622543335 L 126.00870513916016 106.0341739654541 L 127.20314407348633 105.0140266418457 L 128.4059772491455 104.00378799438477 L 129.61711978912354 103.0035285949707 L 130.83649158477783 102.01331615447998 L 132.06400775909424 101.03321838378906 L 133.2995843887329 100.06330299377441 L 134.543137550354 99.10363483428955 L 135.79458141326904 98.1542797088623 L 137.05383205413818 97.21530437469482 L 138.32080173492432 96.28677082061768 L 139.59540462493896 95.36874294281006 L 140.87755393981934 94.46128463745117 L 142.167160987854 93.56445693969727 L 143.46413898468018 92.6783218383789 L 144.7683982849121 91.80293846130371 L 146.07984924316406 90.93836879730225 L 147.39840412139893 90.0846700668335 L 148.72397136688232 89.24190139770508 L 150.0564603805542 88.4101209640503 L 151.3957805633545 87.58938407897949 L 152.74184036254883 86.77974796295166 L 154.09454727172852 85.98126792907715 L 155.45380973815918 85.19399833679199 L 156.8195333480835 84.41799354553223 L 158.1916265487671 83.65330505371094 L 159.56999492645264 82.89998722076416 L 160.9545440673828 82.15808963775635 L 162.34517860412598 81.42766380310059 L 163.7418041229248 80.70876026153564 L 165.14432621002197 80.00142669677734 L 166.5526475906372 79.30571269989014 L 167.96667289733887 78.62166595458984 L 169.38630485534668 77.94933223724365 L 170.81144618988037 77.28875827789307 L 172.24200057983398 76.63998794555664 L 173.6778688430786 76.00306701660156 L 175.11895370483398 75.37803936004639 L 176.5651569366455 74.76494598388672 L 178.01637935638428 74.1638298034668 L 179.4725217819214 73.57473182678223 L 180.93348503112793 72.99769306182861 L 182.39916896820068 72.43275165557861 L 183.8694725036621 71.87994575500488 L 185.3442964553833 71.33931541442871 L 186.82353973388672 70.8108959197998 L 188.3071002960205 70.29472351074219 L 189.79487800598145 69.79083442687988 L 191.28677082061768 69.29926109313965 L 192.78267574310303 68.82003974914551 L 194.28249263763428 68.35320091247559 L 195.78611660003662 67.89877796173096 L 197.29344654083252 67.45680141448975 L 198.8043794631958 67.02730083465576 L 200.31881046295166 66.61030673980713 L 201.83663749694824 66.20584678649902 L 203.35775661468506 65.81394863128662 L 204.88206386566162 65.4346399307251 L 206.40945434570312 65.067946434021 L 207.9398250579834 64.71389198303223 L 209.47307014465332 64.37250137329102 L 211.0090847015381 64.04379844665527 L 212.5477647781372 63.727806091308594 L 214.08900356292725 63.42454433441162 L 215.63269805908203 63.13403511047363 L 217.17874145507812 62.85629844665527 L 218.7270269393921 62.59135150909424 L 220.27745151519775 62.33921527862549 L 221.82990646362305 62.09990406036377 L 223.38428688049316 61.873435974121094 L 224.94048690795898 61.65982627868652 L 226.49839973449707 61.459089279174805 L 228.05791854858398 61.271239280700684 L 229.6189374923706 61.09628772735596 L 231.18134880065918 60.934247970581055 L 232.7450466156006 60.78513050079346 L 234.3099241256714 60.648945808410645 L 235.87587356567383 60.525702476501465 L 237.44278812408447 60.41541004180908 L 239.0105619430542 60.31807518005371 L 240.57908630371094 60.23370552062988 L 242.14825439453125 60.16230583190918 L 243.7179594039917 60.103880882263184 L 245.28809356689453 60.05843544006348 L 246.8585500717163 60.02597141265869 L 248.42922115325928 60.006492614746094 L 250.0 60.0 L 251.5707778930664 60.006492614746094 L 253.14144897460938 60.02597141265869 L 254.71190547943115 60.05843544006348 L 256.282039642334 60.103880882263184 L 257.85174465179443 60.16230583190918 L 259.42091274261475 60.23370552062988 L 260.9894371032715 60.31807518005371 L 262.5572109222412 60.41541004180908 L 264.12412548065186 60.525702476501465 L 265.6900749206543 60.648945808410645 L 267.2549524307251 60.78513050079346 L 268.8186502456665 60.934247970581055 L 270.3810615539551 61.09628772735596 L 271.9420804977417 61.271239280700684 L 273.5015993118286 61.459089279174805 L 275.0595121383667 61.65982627868652 L 276.6157121658325 61.873435974121094 L 278.17009258270264 62.09990406036377 L 279.72254753112793 62.33921527862549 L 281.2729721069336 62.59135150909424 L 282.82125759124756 62.85629844665527 L 284.36730098724365 63.13403511047363 L 285.91099548339844 63.42454433441162 L 287.4522342681885 63.727806091308594 L 288.9909143447876 64.04379844665527 L 290.52692890167236 64.37250137329102 L 292.0601739883423 64.71389198303223 L 293.59054470062256 65.067946434021 L 295.11793518066406 65.4346399307251 L 296.6422424316406 65.81394863128662 L 298.16336154937744 66.20584678649902 L 299.681188583374 66.61030673980713 L 301.1956195831299 67.02730083465576 L 302.70655250549316 67.45680141448975 L 304.21388244628906 67.89877796173096 L 305.7175064086914 68.35320091247559 L 307.21732330322266 68.82003974914551 L 308.713228225708 69.29926109313965 L 310.20512104034424 69.79083442687988 L 311.6928987503052 70.29472351074219 L 313.17645931243896 70.8108959197998 L 314.6557025909424 71.33931541442871 L 316.1305265426636 71.87994575500488 L 317.600830078125 72.43275165557861 L 319.06651401519775 72.99769306182861 L 320.5274772644043 73.57473182678223 L 321.9836196899414 74.1638298034668 L 323.4348421096802 74.76494598388672 L 324.8810453414917 75.37803936004639 L 326.32213020324707 76.00306701660156 L 327.7579984664917 76.63998794555664 L 329.1885528564453 77.28875827789307 L 330.613694190979 77.94933223724365 L 332.0333261489868 78.62166595458984 L 333.3873929977417 79.27670764923096 L 333.314416885376 80.40499877929688 L 333.2049341201782 81.97197341918945 L 333.0873556137085 83.53836154937744 L 332.96168518066406 85.1041202545166 L 332.8279266357422 86.66920948028564 L 332.6860818862915 88.23358726501465 L 332.5361566543579 89.79720973968506 L 332.37815380096436 91.3600378036499 L 332.2120771408081 92.92202854156494 L 332.03793239593506 94.48313999176025 L 331.8557233810425 96.04333114624023 L 331.66545581817627 97.60255908966064 L 331.4671335220337 99.1607837677002 L 331.26076316833496 100.71796321868896 L 331.04634857177734 102.27405548095703 L 330.82389640808105 103.82901859283447 L 330.5934133529663 105.38281154632568 L 330.3549041748047 106.93539333343506 L 330.1083765029907 108.48672103881836 L 329.8538360595703 110.0367546081543 L 329.5912895202637 111.58545303344727 L 329.32074451446533 113.13277339935303 L 329.0422077178955 114.6786756515503 L 328.75568771362305 116.22311782836914 L 328.46119022369385 117.76605892181396 L 328.1587247848511 119.30745697021484 L 327.84829902648926 120.8472728729248 L 327.52992057800293 122.38546371459961 L 327.20359897613525 123.92198848724365 L 326.86934185028076 125.45680713653564 L 326.5271587371826 126.98987865447998 L 326.177059173584 128.52116012573242 L 325.8190517425537 130.0506134033203 L 325.45314598083496 131.57819652557373 L 325.0793523788452 133.10386753082275 L 324.69768047332764 134.6275873184204 L 324.3081407546997 136.1493148803711 L 323.9107427597046 137.6690092086792 L 323.5054979324341 139.18663024902344 L 323.09241676330566 140.7021360397339 L 322.67151069641113 142.2154884338379 L 322.24279022216797 143.7266445159912 L 321.8062677383423 145.2355661392212 L 321.36195373535156 146.7422113418579 L 320.90986156463623 148.2465410232544 L 320.45000171661377 149.74851512908936 L 319.9823875427246 151.2480926513672 L 319.50703144073486 152.7452335357666 L 319.02394580841064 154.23989868164062 L 318.53314304351807 155.73204803466797 L 318.0346374511719 157.22164058685303 L 317.5284414291382 158.70863819122314 L 317.0145683288574 160.19299983978271 L 316.49303245544434 161.67468738555908 L 315.9638481140137 163.15365886688232 L 315.42702770233154 164.6298770904541 L 314.8825874328613 166.10330200195312 L 314.3305416107178 167.57389450073242 L 313.7709045410156 169.0416135787964 L 313.20369052886963 170.506422996521 L 312.62891483306885 171.96828079223633 L 312.046594619751 173.42714977264404 L 311.45674324035645 174.88298988342285 L 310.85937786102295 176.3357629776001 L 310.25451278686523 177.7854299545288 L 309.6421661376953 179.23195266723633 L 309.02235317230225 180.67529106140137 L 308.39509105682373 182.1154088973999 L 307.76039600372314 183.55226516723633 L 307.11828422546387 184.98582363128662 L 306.4687747955322 186.4160442352295 L 305.8118829727173 187.84289073944092 L 305.14762783050537 189.2663230895996 L 304.4760265350342 190.68630504608154 L 303.7970972061157 192.10279750823975 L 303.110857963562 193.51576232910156 L 302.41732692718506 194.92516326904297 L 301.7165222167969 196.330961227417 L 301.0084638595581 197.7331199645996 L 300.29316902160645 199.13160133361816 L 299.57065773010254 200.5263671875 L 298.84095001220703 201.9173822402954 L 298.10406398773193 203.30460739135742 L 297.3600196838379 204.68800735473633 L 296.60883808135986 206.06754302978516 L 295.85053730010986 207.44318008422852 L 295.08513927459717 208.81488037109375 L 294.3126630783081 210.18260765075684 L 293.53313064575195 211.54632472991943 L 292.7465629577637 212.90599536895752 L 291.9529790878296 214.2615842819214 L 291.1524019241333 215.6130542755127 L 290.34485149383545 216.96037006378174 L 289.53035068511963 218.30349445343018 L 288.7089214324951 219.64239311218262 L 287.8805847167969 220.97702884674072 L 287.0453624725342 222.3073673248291 L 286.2032775878906 223.63337230682373 L 285.3543519973755 224.9550075531006 L 284.49860858917236 226.2722396850586 L 283.63607120513916 227.58503246307373 L 282.76676177978516 228.8933506011963 L 281.89070320129395 230.19715976715088 L 281.00792026519775 231.4964246749878 L 280.1184358596802 232.79111003875732 L 279.2222728729248 234.08118343353271 L 278.31945610046387 235.36660861968994 L 277.4100093841553 236.6473512649536 L 276.49395751953125 237.92337799072266 L 275.5713243484497 239.19465446472168 L 274.64213466644287 240.4611463546753 L 273.70641326904297 241.72282028198242 L 272.76418590545654 242.979642868042 L 271.8154764175415 244.2315797805786 L 270.8603105545044 245.4785976409912 L 269.89871406555176 246.72066402435303 L 268.93071269989014 247.95774459838867 L 267.9563322067261 249.1898078918457 L 266.97559928894043 250.41681957244873 L 265.98853874206543 251.638747215271 L 264.99517726898193 252.85555744171143 L 263.9955425262451 254.0672197341919 L 262.9896593093872 255.27370071411133 L 261.9775562286377 256.47496795654297 L 260.95925998687744 257.67098903656006 L 259.934796333313 258.8617334365845 L 258.90419483184814 260.04716777801514 L 257.86748123168945 261.2272615432739 L 256.8246841430664 262.4019823074341 L 255.77583026885986 263.5712995529175 L 254.72094917297363 264.7351818084717 L 253.6600685119629 265.89359760284424 L 252.5932159423828 267.04651641845703 L 251.5204210281372 268.1939067840576 L 250.44171047210693 269.3357391357422 L 249.35711574554443 270.4719820022583 L 248.26666355133057 271.60260677337646 L 247.17038440704346 272.7275810241699 L 246.0683069229126 273.84687519073486 L 244.9604606628418 274.9604606628418 L 243.84687519073486 276.0683069229126 L 242.72758102416992 277.17038440704346 L 241.60260677337646 278.26666355133057 L 240.4719820022583 279.35711574554443 L 239.3357391357422 280.44171047210693 L 238.19390678405762 281.5204210281372 L 237.04651641845703 282.5932159423828 L 235.89359760284424 283.6600685119629 L 234.73518180847168 284.72094917297363 L 233.57129955291748 285.77583026885986 L 232.40198230743408 286.8246841430664 L 231.22726154327393 287.86748123168945 L 230.04716777801514 288.90419483184814 L 228.86173343658447 289.934796333313 L 227.67098903656006 290.95925998687744 L 226.47496795654297 291.9775562286377 L 225.27370071411133 292.9896593093872 L 224.0672197341919 293.9955425262451 L 222.85555744171143 294.99517726898193 L 221.638747215271 295.98853874206543 L 220.41681957244873 296.97559928894043 L 219.1898078918457 297.9563322067261 L 217.95774459838867 298.93071269989014 L 216.72066402435303 299.89871406555176 L 215.4785976409912 300.8603105545044 L 214.2315797805786 301.8154764175415 L 212.979642868042 302.76418590545654 L 211.72282028198242 303.70641326904297 L 210.4611463546753 304.64213466644287 L 209.19465446472168 305.5713243484497 L 207.92337799072266 306.49395751953125 L 206.6473512649536 307.4100093841553 L 205.36660861968994 308.31945610046387 L 204.08118343353271 309.2222728729248 L 202.79111003875732 310.1184358596802 L 201.4964246749878 311.00792026519775 L 200.19715976715088 311.89070320129395 L 198.8933506011963 312.76676177978516 L 197.58503246307373 313.63607120513916 L 196.2722396850586 314.49860858917236 L 194.9550075531006 315.3543519973755 L 193.63337230682373 316.2032775878906 L 192.3073673248291 317.0453624725342 L 190.97702884674072 317.8805847167969 L 189.64239311218262 318.7089214324951 L 188.30349445343018 319.53035068511963 L 186.96037006378174 320.34485149383545 L 185.6130542755127 321.1524019241333 L 184.2615842819214 321.9529790878296 L 182.90599536895752 322.7465629577637 L 181.54632472991943 323.53313064575195 L 180.18260765075684 324.3126630783081 L 178.81488037109375 325.08513927459717 L 177.44318008422852 325.85053730010986 L 176.06754302978516 326.60883808135986 L 174.68800735473633 327.3600196838379 L 173.30460739135742 328.10406398773193 L 171.9173822402954 328.84095001220703 L 170.5263671875 329.57065773010254 L 169.13160133361816 330.29316902160645 L 167.7331199645996 331.0084638595581 L 166.330961227417 331.7165222167969 L 164.92516326904297 332.41732692718506 L 163.51576232910156 333.110857963562 L 162.10279750823975 333.7970972061157 L 160.68630504608154 334.4760265350342 L 159.2663230895996 335.14762783050537 L 157.84289073944092 335.8118829727173 L 156.4160442352295 336.4687747955322 L 154.98582363128662 337.11828422546387 L 153.55226516723633 337.76039600372314 L 152.1154088973999 338.39509105682373 L 150.67529106140137 339.02235317230225 L 149.23195266723633 339.6421661376953 L 147.7854299545288 340.25451278686523 L 146.3357629776001 340.85937786102295 L 144.88298988342285 341.45674324035645 L 143.42714977264404 342.046594619751 L 141.96828079223633 342.62891483306885 L 140.506422996521 343.20369052886963 L 139.0416135787964 343.7709045410156 L 137.57389450073242 344.3305416107178 L 136.10330200195312 344.8825874328613 L 134.6298770904541 345.42702770233154 L 133.15365886688232 345.9638481140137 L 131.67468738555908 346.49303245544434 L 130.19299983978271 347.0145683288574 L 128.70863819122314 347.5284414291382 L 127.22164058685303 348.0346374511719 L 125.73204803466797 348.53314304351807 L 124.23989868164062 349.02394580841064 L 122.7452335357666 349.50703144073486 L 121.24809265136719 349.9823875427246 L 119.74851512908936 350.45000171661377 L 118.2465410232544 350.90986156463623 L 116.74221134185791 351.36195373535156 L 115.23556613922119 351.8062677383423 L 113.72664451599121 352.24279022216797 L 112.21548843383789 352.67151069641113 L 110.70213603973389 353.09241676330566 L 109.18663024902344 353.5054979324341 L 107.6690092086792 353.9107427597046 L 106.1493148803711 354.3081407546997 L 104.62758731842041 354.69768047332764 L 103.10386753082275 355.0793523788452 L 101.57819652557373 355.45314598083496 L 100.05061340332031 355.8190517425537 L 98.52116012573242 356.177059173584 L 96.98987865447998 356.5271587371826 L 95.45680713653564 356.86934185028076 L 93.92198848724365 357.20359897613525 Z" fill="#FC002C"/>
<path d=" M 249.99999904632568 440.0 L 248.42922115325928 439.9935064315796 L 246.8585500717163 439.974027633667 L 245.28809356689453 439.9415636062622 L 243.7179594039917 439.8961181640625 L 242.14825439453125 439.8376932144165 L 240.57908630371094 439.7662935256958 L 239.0105619430542 439.681923866272 L 237.44278812408447 439.5845890045166 L 235.87587356567383 439.4742965698242 L 234.3099241256714 439.35105323791504 L 232.7450466156006 439.2148685455322 L 231.18134880065918 439.06575107574463 L 229.6189374923706 438.9037113189697 L 228.05791854858398 438.728759765625 L 226.49839973449707 438.5409097671509 L 224.94048690795898 438.34017276763916 L 223.38428688049316 438.1265630722046 L 221.82990646362305 437.9000949859619 L 220.27745151519775 437.6607837677002 L 218.7270269393921 437.40864753723145 L 217.17874145507812 437.1437005996704 L 215.63269805908203 436.86596393585205 L 214.08900356292725 436.57545471191406 L 212.5477647781372 436.2721929550171 L 211.0090847015381 435.9562005996704 L 209.47307014465332 435.62749767303467 L 207.9398250579834 435.28610706329346 L 206.40945434570312 434.9320526123047 L 204.88206386566162 434.5653591156006 L 203.35775661468506 434.18605041503906 L 201.83663749694824 433.79415225982666 L 200.31881046295166 433.38969230651855 L 198.8043794631958 432.9726982116699 L 197.29344654083252 432.54319763183594 L 195.78611660003662 432.1012210845947 L 194.28249263763428 431.6467981338501 L 192.78267574310303 431.1799592971802 L 191.28677082061768 430.70073795318604 L 189.79487800598145 430.2091646194458 L 188.3071002960205 429.7052755355835 L 186.82353973388672 429.1891031265259 L 185.3442964553833 428.660683631897 L 183.8694725036621 428.1200532913208 L 182.39916896820068 427.56724739074707 L 180.93348503112793 427.00230598449707 L 179.4725217819214 426.42526721954346 L 178.01637935638428 425.8361692428589 L 176.5651569366455 425.23505306243896 L 175.11895370483398 424.6219596862793 L 173.6778688430786 423.9969320297241 L 172.24200057983398 423.36001110076904 L 170.81144618988037 422.7112407684326 L 169.38630485534668 422.05066680908203 L 167.96667289733887 421.37833309173584 L 166.5526475906372 420.69428634643555 L 165.14432621002197 419.99857234954834 L 163.7418041229248 419.29123878479004 L 162.34517860412598 418.5723352432251 L 160.9545440673828 417.84190940856934 L 159.56999492645264 417.1000118255615 L 158.1916265487671 416.34669399261475 L 156.8195333480835 415.58200550079346 L 155.45380973815918 414.8060007095337 L 154.09454727172852 414.01873111724854 L 152.74184036254883 413.220251083374 L 151.3957805633545 412.4106149673462 L 150.0564603805542 411.5898780822754 L 148.72397136688232 410.7580976486206 L 147.39840412139893 409.9153289794922 L 146.07984924316406 409.06163024902344 L 144.7683982849121 408.197060585022 L 143.46413898468018 407.3216772079468 L 142.167160987854 406.4355421066284 L 140.87755393981934 405.5387144088745 L 139.59540462493896 404.6312561035156 L 138.32080173492432 403.713228225708 L 137.05383205413818 402.78469467163086 L 135.79458141326904 401.8457193374634 L 134.543137550354 400.89636421203613 L 133.2995843887329 399.93669605255127 L 132.06400775909424 398.9667806625366 L 130.83649158477783 397.9866828918457 L 129.61711978912354 396.996470451355 L 128.4059772491455 395.9962110519409 L 127.20314407348633 394.98597240448 L 126.00870513916016 393.9658250808716 L 124.82273960113525 392.9358367919922 L 123.64533042907715 391.89608001708984 L 122.47655773162842 390.84662437438965 L 121.31650066375732 389.78754234313965 L 120.16523933410645 388.7189064025879 L 119.02285194396973 387.6407880783081 L 117.88941669464111 386.5532627105713 L 116.76501083374023 385.4564046859741 L 115.6497106552124 384.3502883911133 L 114.54359436035156 383.23498821258545 L 113.4467363357544 382.11058235168457 L 112.35921096801758 380.97714710235596 L 111.2810926437378 379.83475971221924 L 110.21245670318604 378.68349838256836 L 109.15337467193604 377.52344131469727 L 108.10391902923584 376.35466861724854 L 107.0641622543335 375.17725944519043 L 106.0341739654541 373.9912939071655 L 105.0140266418457 372.79685497283936 L 104.00378799438477 371.5940217971802 L 103.0035285949707 370.38287925720215 L 102.01331615447998 369.16350746154785 L 101.03321838378906 367.93599128723145 L 100.06330299377441 366.7004146575928 L 99.10363483428955 365.4568614959717 L 98.75705623626709 365.0 L 100.0 365.0 L 129.84267807006836 356.8827362060547 L 159.7940092086792 349.17603874206543 L 189.8483362197876 341.88132190704346 L 220.0 335.0 L 240.31460571289062 330.5313720703125 L 260.57304763793945 325.814245223999 L 270.63723850250244 323.23012924194336 L 280.6346263885498 320.425048828125 L 290.5476236343384 317.3460578918457 L 300.3586435317993 313.9402093887329 L 310.052640914917 310.14536571502686 L 319.585750579834 305.9173812866211 L 328.89715576171875 301.2303009033203 L 337.92603874206543 296.0581684112549 L 346.61158180236816 290.3750276565552 L 354.8929681777954 284.1549234390259 L 362.7093801498413 277.37189960479736 L 370.0 270.0 L 373.56171131134033 265.9235420227051 L 376.9425916671753 261.69738960266113 L 380.1388931274414 257.330379486084 L 383.1468667984009 252.83134746551514 L 385.9627637863159 248.2091302871704 L 388.58283615112305 243.47256469726562 L 391.0033349990845 238.6304874420166 L 393.2205123901367 233.69173431396484 L 395.2306203842163 228.6651430130005 L 397.0299081802368 223.55954933166504 L 398.6146297454834 218.3837890625 L 399.98103618621826 213.1466999053955 L 401.1253786087036 207.85711860656738 L 402.04390811920166 202.52388095855713 L 402.7328767776489 197.15582370758057 L 403.18853664398193 191.7617826461792 L 403.40805435180664 186.35298347473145 L 403.39284324645996 180.94091510772705 L 403.14552211761475 175.53481197357178 L 402.66871070861816 170.1439085006714 L 401.96502685546875 164.77743816375732 L 401.0370903015137 159.44463729858398 L 399.8875198364258 154.15474033355713 L 398.51893520355225 148.9169797897339 L 396.9339542388916 143.74059200286865 L 395.1351957321167 138.6348114013672 L 393.125280380249 133.60887145996094 L 390.9068260192871 128.67200756072998 L 388.4824514389038 123.83345413208008 L 385.8547763824463 119.10244464874268 L 383.0264196395874 114.48821544647217 L 382.7346439361572 114.05550765991211 L 383.23498821258545 114.54359436035156 L 384.3502883911133 115.6497106552124 L 385.4564046859741 116.76501083374023 L 386.5532627105713 117.88941669464111 L 387.6407880783081 119.02285194396973 L 388.7189064025879 120.16523933410645 L 389.78754234313965 121.31650066375732 L 390.84662437438965 122.47655773162842 L 391.89608001708984 123.64533042907715 L 392.9358367919922 124.82273960113525 L 393.9658250808716 126.00870513916016 L 394.98597240448 127.20314407348633 L 395.9962110519409 128.4059772491455 L 396.996470451355 129.61711978912354 L 397.9866828918457 130.83649158477783 L 398.9667806625366 132.06400775909424 L 399.93669605255127 133.2995843887329 L 400.89636421203613 134.543137550354 L 401.8457193374634 135.79458141326904 L 402.78469467163086 137.05383205413818 L 403.713228225708 138.32080173492432 L 404.6312561035156 139.59540462493896 L 405.5387144088745 140.87755393981934 L 406.4355421066284 142.167160987854 L 407.3216772079468 143.46413898468018 L 408.197060585022 144.7683982849121 L 409.06163024902344 146.07984924316406 L 409.9153289794922 147.39840412139893 L 410.7580976486206 148.72397136688232 L 411.5898780822754 150.0564603805542 L 412.4106149673462 151.3957805633545 L 413.220251083374 152.74184036254883 L 414.01873111724854 154.09454727172852 L 414.8060007095337 155.45380973815918 L 415.58200550079346 156.8195333480835 L 416.34669399261475 158.1916265487671 L 417.1000118255615 159.56999492645264 L 417.84190940856934 160.9545440673828 L 418.5723352432251 162.34517860412598 L 419.29123878479004 163.7418041229248 L 419.99857234954834 165.14432621002197 L 420.69428634643555 166.5526475906372 L 421.37833309173584 167.96667289733887 L 422.05066680908203 169.38630485534668 L 422.7112407684326 170.81144618988037 L 423.36001110076904 172.24200057983398 L 423.9969320297241 173.6778688430786 L 424.6219596862793 175.11895370483398 L 425.23505306243896 176.5651569366455 L 425.8361692428589 178.01637935638428 L 426.42526721954346 179.4725217819214 L 427.00230598449707 180.93348503112793 L 427.56724739074707 182.39916896820068 L 428.1200532913208 183.8694725036621 L 428.660683631897 185.3442964553833 L 429.1891031265259 186.82353973388672 L 429.7052755355835 188.3071002960205 L 430.2091646194458 189.79487800598145 L 430.70073795318604 191.28677082061768 L 431.1799592971802 192.78267574310303 L 431.6467981338501 194.28249263763428 L 432.1012210845947 195.78611660003662 L 432.54319763183594 197.29344654083252 L 432.9726982116699 198.8043794631958 L 433.38969230651855 200.31881046295166 L 433.79415225982666 201.83663749694824 L 434.18605041503906 203.35775661468506 L 434.5653591156006 204.88206386566162 L 434.9320526123047 206.40945434570312 L 435.28610706329346 207.9398250579834 L 435.62749767303467 209.47307014465332 L 435.9562005996704 211.0090847015381 L 436.2721929550171 212.5477647781372 L 436.57545471191406 214.08900356292725 L 436.86596393585205 215.63269805908203 L 437.1437005996704 217.17874145507812 L 437.40864753723145 218.7270269393921 L 437.6607837677002 220.27745151519775 L 437.9000949859619 221.82990646362305 L 438.1265630722046 223.38428688049316 L 438.34017276763916 224.94048690795898 L 438.5409097671509 226.49839973449707 L 438.728759765625 228.05791854858398 L 438.9037113189697 229.6189374923706 L 439.06575107574463 231.18134880065918 L 439.2148685455322 232.7450466156006 L 439.35105323791504 234.3099241256714 L 439.4742965698242 235.87587356567383 L 439.5845890045166 237.44278812408447 L 439.681923866272 239.0105619430542 L 439.7662935256958 240.57908630371094 L 439.8376932144165 242.14825439453125 L 439.8961181640625 243.7179594039917 L 439.9415636062622 245.28809356689453 L 439.974027633667 246.8585500717163 L 439.9935064315796 248.42922115325928 L 440.0 250.0 L 439.9935064315796 251.5707778930664 L 439.974027633667 253.14144897460938 L 439.9415636062622 254.71190547943115 L 439.8961181640625 256.282039642334 L 439.8376932144165 257.85174465179443 L 439.7662935256958 259.42091274261475 L 439.681923866272 260.9894371032715 L 439.5845890045166 262.5572109222412 L 439.4742965698242 264.12412548065186 L 439.35105323791504 265.6900749206543 L 439.2148685455322 267.2549524307251 L 439.06575107574463 268.8186502456665 L 438.9037113189697 270.3810615539551 L 438.728759765625 271.9420804977417 L 438.5409097671509 273.5015993118286 L 438.34017276763916 275.0595121383667 L 438.1265630722046 276.6157121658325 L 437.9000949859619 278.17009258270264 L 437.6607837677002 279.72254753112793 L 437.40864753723145 281.2729721069336 L 437.1437005996704 282.82125759124756 L 436.86596393585205 284.36730098724365 L 436.57545471191406 285.91099548339844 L 436.2721929550171 287.4522342681885 L 435.9562005996704 288.9909143447876 L 435.62749767303467 290.52692890167236 L 435.28610706329346 292.0601739883423 L 434.9320526123047 293.59054470062256 L 434.5653591156006 295.11793518066406 L 434.18605041503906 296.6422424316406 L 433.79415225982666 298.16336154937744 L 433.38969230651855 299.681188583374 L 432.9726982116699 301.1956195831299 L 432.54319763183594 302.70655250549316 L 432.1012210845947 304.21388244628906 L 431.6467981338501 305.7175064086914 L 431.1799592971802 307.21732330322266 L 430.70073795318604 308.713228225708 L 430.2091646194458 310.20512104034424 L 429.7052755355835 311.6928987503052 L 429.1891031265259 313.17645931243896 L 428.660683631897 314.6557025909424 L 428.1200532913208 316.1305265426636 L 427.56724739074707 317.600830078125 L 427.00230598449707 319.06651401519775 L 426.42526721954346 320.5274772644043 L 425.8361692428589 321.9836196899414 L 425.23505306243896 323.4348421096802 L 424.6219596862793 324.8810453414917 L 423.9969320297241 326.32213020324707 L 423.36001110076904 327.7579984664917 L 422.7112407684326 329.1885528564453 L 422.05066680908203 330.613694190979 L 421.37833309173584 332.0333261489868 L 420.69428634643555 333.4473514556885 L 419.99857234954834 334.8556728363037 L 419.29123878479004 336.2581949234009 L 418.5723352432251 337.6548204421997 L 417.84190940856934 339.04545497894287 L 417.1000118255615 340.43000411987305 L 416.34669399261475 341.8083724975586 L 415.58200550079346 343.1804656982422 L 414.8060007095337 344.5461893081665 L 414.01873111724854 345.90545177459717 L 413.220251083374 347.25815868377686 L 412.4106149673462 348.6042184829712 L 411.5898780822754 349.9435386657715 L 410.7580976486206 351.27602767944336 L 409.9153289794922 352.60159492492676 L 409.06163024902344 353.9201498031616 L 408.197060585022 355.2316007614136 L 407.3216772079468 356.5358600616455 L 406.4355421066284 357.8328380584717 L 405.5387144088745 359.12244510650635 L 404.6312561035156 360.4045944213867 L 403.713228225708 361.67919731140137 L 402.78469467163086 362.9461669921875 L 401.8457193374634 364.20541763305664 L 400.89636421203613 365.4568614959717 L 399.93669605255127 366.7004146575928 L 398.9667806625366 367.93599128723145 L 397.9866828918457 369.16350746154785 L 396.996470451355 370.38287925720215 L 395.9962110519409 371.5940217971802 L 394.98597240448 372.79685497283936 L 393.9658250808716 373.9912939071655 L 392.9358367919922 375.17725944519043 L 391.89608001708984 376.35466861724854 L 390.84662437438965 377.52344131469727 L 389.78754234313965 378.68349838256836 L 388.7189064025879 379.83475971221924 L 387.6407880783081 380.97714710235596 L 386.5532627105713 382.11058235168457 L 385.4564046859741 383.23498821258545 L 384.3502883911133 384.3502883911133 L 383.23498821258545 385.4564046859741 L 382.11058235168457 386.5532627105713 L 380.97714710235596 387.6407880783081 L 379.83475971221924 388.7189064025879 L 378.68349838256836 389.78754234313965 L 377.52344131469727 390.84662437438965 L 376.35466861724854 391.89608001708984 L 375.17725944519043 392.9358367919922 L 373.9912939071655 393.9658250808716 L 372.79685497283936 394.98597240448 L 371.5940217971802 395.9962110519409 L 370.38287925720215 396.996470451355 L 369.16350746154785 397.9866828918457 L 367.93599128723145 398.9667806625366 L 366.7004146575928 399.93669605255127 L 365.4568614959717 400.89636421203613 L 364.20541763305664 401.8457193374634 L 362.9461669921875 402.78469467163086 L 361.67919731140137 403.713228225708 L 360.4045944213867 404.6312561035156 L 359.12244510650635 405.5387144088745 L 357.8328380584717 406.4355421066284 L 356.5358600616455 407.3216772079468 L 355.2316007614136 408.197060585022 L 353.9201498031616 409.06163024902344 L 352.60159492492676 409.9153289794922 L 351.27602767944336 410.7580976486206 L 349.9435386657715 411.5898780822754 L 348.6042184829712 412.4106149673462 L 347.25815868377686 413.220251083374 L 345.90545177459717 414.01873111724854 L 344.5461893081665 414.8060007095337 L 343.1804656982422 415.58200550079346 L 341.8083724975586 416.34669399261475 L 340.43000411987305 417.1000118255615 L 339.04545497894287 417.84190940856934 L 337.6548204421997 418.5723352432251 L 336.2581949234009 419.29123878479004 L 334.8556728363037 419.99857234954834 L 333.4473514556885 420.69428634643555 L 332.0333261489868 421.37833309173584 L 330.613694190979 422.05066680908203 L 329.1885528564453 422.7112407684326 L 327.7579984664917 423.36001110076904 L 326.32213020324707 423.9969320297241 L 324.8810453414917 424.6219596862793 L 323.4348421096802 425.23505306243896 L 321.9836196899414 425.8361692428589 L 320.5274772644043 426.42526721954346 L 319.06651401519775 427.00230598449707 L 317.600830078125 427.56724739074707 L 316.1305265426636 428.1200532913208 L 314.6557025909424 428.660683631897 L 313.17645931243896 429.1891031265259 L 311.6928987503052 429.7052755355835 L 310.20512104034424 430.2091646194458 L 308.713228225708 430.70073795318604 L 307.21732330322266 431.1799592971802 L 305.7175064086914 431.6467981338501 L 304.21388244628906 432.1012210845947 L 302.70655250549316 432.54319763183594 L 301.1956195831299 432.9726982116699 L 299.681188583374 433.38969230651855 L 298.16336154937744 433.79415225982666 L 296.6422424316406 434.18605041503906 L 295.11793518066406 434.5653591156006 L 293.59054470062256 434.9320526123047 L 292.0601739883423 435.28610706329346 L 290.52692890167236 435.62749767303467 L 288.9909143447876 435.9562005996704 L 287.4522342681885 436.2721929550171 L 285.91099548339844 436.57545471191406 L 284.36730098724365 436.86596393585205 L 282.82125759124756 437.1437005996704 L 281.2729721069336 437.40864753723145 L 279.72254753112793 437.6607837677002 L 278.17009258270264 437.9000949859619 L 276.6157121658325 438.1265630722046 L 275.0595121383667 438.34017276763916 L 273.5015993118286 438.5409097671509 L 271.9420804977417 438.728759765625 L 270.3810615539551 438.9037113189697 L 268.8186502456665 439.06575107574463 L 267.2549524307251 439.2148685455322 L 265.6900749206543 439.35105323791504 L 264.12412548065186 439.4742965698242 L 262.5572109222412 439.5845890045166 L 260.9894371032715 439.681923866272 L 259.42091274261475 439.7662935256958 L 257.85174465179443 439.8376932144165 L 256.282039642334 439.8961181640625 L 254.71190547943115 439.9415636062622 L 253.14144897460938 439.974027633667 L 251.5707778930664 439.9935064315796 Z" fill="#0B60BB"/>
</svg>
