<svg version="1.1"
     xmlns="http://www.w3.org/2000/svg"
     width="500"
     height="800">

<path d="M 329.3782217350893 565.0 L 390.0 460.0 L 450.62177826491074 565.0 Z" fill="yellow"/>
<path d="M 340.50252531694167 219.49747468305833 L 340.50252531694167 120.50252531694167 L 439.49747468305833 120.50252531694167 L 439.49747468305833 219.49747468305833 Z" fill="blue"/>
<path d="M 77.09932729367742 192.81152949374527 L 44.40491353343617 92.18847050625475 L 129.99999999999997 30.0 L 215.59508646656383 92.18847050625472 L 182.9006727063226 192.81152949374524 Z" fill="red"/>
<path d="M 250.00000000000003 436.6025403784439 L 200.0 350.0 L 249.99999999999994 263.39745962155615 L 349.99999999999994 263.3974596215561 L 400.0 350.0 L 350.0000000000001 436.6025403784438 Z" fill="green"/>
<path d="M 73.96697565294652 414.05813207414513 L 41.504325269090586 373.35125603737885 L 53.09011105191821 322.590611888476 L 99.99999999999999 300.0 L 146.90988894808177 322.59061188847596 L 158.4956747309094 373.35125603737885 L 126.0330243470535 414.05813207414513 Z" fill="orange"/>
<path d="M 144.07798811618923 760.8655439013544 L 79.13445609864559 695.9220118838108 L 79.13445609864559 604.0779881161892 L 144.07798811618915 539.1344560986456 L 235.9220118838108 539.1344560986456 L 300.8655439013544 604.0779881161892 L 300.8655439013544 695.9220118838108 L 235.92201188381085 760.8655439013544 Z" fill="purple"/>
<rect x="500" y="800" width="10" height="10"/>
</svg>
