<svg version="1.1"
     xmlns="http://www.w3.org/2000/svg"
     width="510"
     height="810">

<path d="M 329.37822174 565.0 L 390.0 460.0 L 450.62177826 565.0 Z" fill="yellow"/>
<path d="M 340.50252532 219.49747468 L 340.50252532 120.50252532 L 439.49747468 120.50252532 L 439.49747468 219.49747468 Z" fill="blue"/>
<path d="M 77.09932729 192.81152949 L 44.40491353 92.18847051 L 130.0 30.0 L 215.59508647 92.18847051 L 182.90067271 192.81152949 Z" fill="red"/>
<path d="M 250.0 436.60254038 L 200.0 350.0 L 250.0 263.39745962 L 350.0 263.39745962 L 400.0 350.0 L 350.0 436.60254038 Z" fill="green"/>
<path d="M 73.96697565 414.05813207 L 41.50432527 373.35125604 L 53.09011105 322.59061189 L 100.0 300.0 L 146.90988895 322.59061189 L 158.49567473 373.35125604 L 126.03302435 414.05813207 Z" fill="orange"/>
<path d="M 144.07798812 760.8655439 L 79.1344561 695.92201188 L 79.1344561 604.07798812 L 144.07798812 539.1344561 L 235.92201188 539.1344561 L 300.8655439 604.07798812 L 300.8655439 695.92201188 L 235.92201188 760.8655439 Z" fill="purple"/>
<rect x="500" y="800" width="10" height="10"/>
</svg>
