<svg version="1.1"
     xmlns="http://www.w3.org/2000/svg"
     width="300"
     height="300">

<path d="M 0 0 L 2.41641998 9.26456451 L 4.97589111 18.30596924 L 7.67498016 27.12078094 L 10.51025391 35.70556641 L 13.47827911 44.0568924 L 16.57562256 52.17132568 L 19.79885101 60.04543304 L 23.14453125 67.67578125 L 26.60923004 75.05893707 L 30.18951416 82.19146729 L 33.88195038 89.06993866 L 37.68310547 95.69091797 L 41.5895462 102.05097198 L 45.59783936 108.14666748 L 49.7045517 113.97457123 L 53.90625 119.53125 L 58.19950104 124.81327057 L 62.58087158 129.81719971 L 67.04692841 134.53960419 L 71.59423828 138.97705078 L 76.21936798 143.12610626 L 80.91888428 146.9833374 L 85.68935394 150.54531097 L 90.52734375 153.80859375 L 95.42942047 156.7697525 L 100.39215088 159.425354 L 105.41210175 161.77196503 L 110.48583984 163.80615234 L 115.60993195 165.52448273 L 120.78094482 166.92352295 L 125.99544525 167.99983978 L 131.25 168.75 L 136.54117584 169.17057037 L 141.86553955 169.25811768 L 147.2196579 169.00920868 L 152.60009766 168.42041016 L 158.0034256 167.48828888 L 163.4262085 166.20941162 L 168.86501312 164.58034515 L 174.31640625 162.59765625 L 179.77695465 160.25791168 L 185.2432251 157.55767822 L 190.71178436 154.49352264 L 196.17919922 151.06201172 L 201.64203644 147.25971222 L 207.09686279 143.08319092 L 212.54024506 138.52901459 L 217.96875 133.59375 L 223.3789444 128.27396393 L 228.76739502 122.56622314 L 234.13066864 116.46709442 L 239.46533203 109.97314453 L 244.76795197 103.08094025 L 250.03509521 95.78704834 L 255.26332855 88.08803558 L 260.44921875 79.98046875 L 265.58933258 71.46091461 L 270.68023682 62.52593994 L 275.71849823 53.17211151 L 280.70068359 43.39599609 L 285.62335968 33.19416046 L 290.48309326 22.56317139 L 295.27645111 11.49959564 L 300 0 Z"/>
<path d="M 105 200 L 103.2434082 203.7487793 L 101.72851563 207.49023438 L 100.46264648 211.21704102 L 99.453125 214.921875 L 98.70727539 218.59741211 L 98.23242188 222.23632813 L 98.03588867 225.83129883 L 98.125 229.375 L 98.50708008 232.86010742 L 99.18945313 236.27929688 L 100.17944336 239.62524414 L 101.484375 242.890625 L 103.11157227 246.06811523 L 105.06835938 249.15039063 L 107.36206055 252.13012695 L 110 255 L 112.5769043 257.97729492 L 114.67773438 261.24023438 L 116.29516602 264.72290039 L 117.421875 268.359375 L 118.05053711 272.08374023 L 118.17382813 275.83007813 L 117.78442383 279.5324707 L 116.875 283.125 L 115.43823242 286.54174805 L 113.46679688 289.71679688 L 110.95336914 292.58422852 L 107.890625 295.078125 L 104.27124023 297.13256836 L 100.08789063 298.68164063 L 95.33325195 299.65942383 L 92.7394104 299.91348267 L 90 300 L 84.66552734 299.71313477 L 79.90234375 298.87695313 L 75.69580078 297.52807617 L 72.03125 295.703125 L 68.89404297 293.4387207 L 66.26953125 290.77148438 L 64.14306641 287.73803711 L 62.5 284.375 L 61.32568359 280.71899414 L 60.60546875 276.80664063 L 60.32470703 272.67456055 L 60.46875 268.359375 L 61.02294922 263.89770508 L 61.97265625 259.32617188 L 63.30322266 254.68139648 L 65 250 L 66.82250977 245.53833008 L 68.56445313 241.49414063 L 70.26245117 237.81616211 L 71.953125 234.453125 L 73.6730957 231.35375977 L 75.45898438 228.46679688 L 79.375 223.125 L 81.57836914 220.56762695 L 83.99414063 218.01757813 L 86.65893555 215.42358398 L 89.609375 212.734375 L 92.88208008 209.89868164 L 96.51367188 206.86523438 L 100.54077148 203.58276367 L 105 200 Z" fill="yellow" stroke="orange" stroke-width="5" stroke-linejoin="miter" stroke-miterlimit="10"/>
</svg>
