<svg version="1.1"
     xmlns="http://www.w3.org/2000/svg"
     width="300"
     height="300">

<path d="M 0 0 L 2.4164199829101562 9.264564514160156 L 4.97589111328125 18.30596923828125 L 7.674980163574219 27.12078094482422 L 10.51025390625 35.70556640625 L 13.478279113769531 44.05689239501953 L 16.57562255859375 52.17132568359375 L 19.798851013183594 60.045433044433594 L 23.14453125 67.67578125 L 26.609230041503906 75.0589370727539 L 30.18951416015625 82.19146728515625 L 33.88195037841797 89.06993865966797 L 37.68310546875 95.69091796875 L 41.58954620361328 102.05097198486328 L 45.59783935546875 108.14666748046875 L 49.704551696777344 113.97457122802734 L 53.90625 119.53125 L 58.199501037597656 124.81327056884766 L 62.58087158203125 129.81719970703125 L 67.04692840576172 134.53960418701172 L 71.59423828125 138.97705078125 L 76.21936798095703 143.12610626220703 L 80.91888427734375 146.98333740234375 L 85.6893539428711 150.5453109741211 L 90.52734375 153.80859375 L 95.4294204711914 156.7697525024414 L 100.39215087890625 159.42535400390625 L 105.41210174560547 161.77196502685547 L 110.48583984375 163.80615234375 L 115.60993194580078 165.52448272705078 L 120.78094482421875 166.92352294921875 L 125.99544525146484 167.99983978271484 L 131.25 168.75 L 136.54117584228516 169.17057037353516 L 141.86553955078125 169.25811767578125 L 147.21965789794922 169.00920867919922 L 152.60009765625 168.42041015625 L 158.00342559814453 167.48828887939453 L 163.42620849609375 166.20941162109375 L 168.8650131225586 164.5803451538086 L 174.31640625 162.59765625 L 179.7769546508789 160.2579116821289 L 185.24322509765625 157.55767822265625 L 190.71178436279297 154.49352264404297 L 196.17919921875 151.06201171875 L 201.64203643798828 147.25971221923828 L 207.09686279296875 143.08319091796875 L 212.54024505615234 138.52901458740234 L 217.96875 133.59375 L 223.37894439697266 128.27396392822266 L 228.76739501953125 122.56622314453125 L 234.13066864013672 116.46709442138672 L 239.46533203125 109.97314453125 L 244.76795196533203 103.08094024658203 L 250.03509521484375 95.78704833984375 L 255.2633285522461 88.0880355834961 L 260.44921875 79.98046875 L 265.5893325805664 71.4609146118164 L 270.68023681640625 62.52593994140625 L 275.71849822998047 53.17211151123047 L 280.70068359375 43.39599609375 L 285.6233596801758 33.19416046142578 L 290.48309326171875 22.56317138671875 L 295.27645111083984 11.499595642089844 L 300 0 Z"/>
<path d="M 105 200 L 103.243408203125 203.748779296875 L 101.728515625 207.490234375 L 100.462646484375 211.217041015625 L 99.453125 214.921875 L 98.707275390625 218.597412109375 L 98.232421875 222.236328125 L 98.035888671875 225.831298828125 L 98.125 229.375 L 98.507080078125 232.860107421875 L 99.189453125 236.279296875 L 100.179443359375 239.625244140625 L 101.484375 242.890625 L 103.111572265625 246.068115234375 L 105.068359375 249.150390625 L 107.362060546875 252.130126953125 L 110 255 L 112.576904296875 257.977294921875 L 114.677734375 261.240234375 L 116.295166015625 264.722900390625 L 117.421875 268.359375 L 118.050537109375 272.083740234375 L 118.173828125 275.830078125 L 117.784423828125 279.532470703125 L 116.875 283.125 L 115.438232421875 286.541748046875 L 113.466796875 289.716796875 L 110.953369140625 292.584228515625 L 107.890625 295.078125 L 104.271240234375 297.132568359375 L 100.087890625 298.681640625 L 95.333251953125 299.659423828125 L 92.73941040039062 299.9134826660156 L 90 300 L 84.66552734375 299.713134765625 L 79.90234375 298.876953125 L 75.69580078125 297.528076171875 L 72.03125 295.703125 L 68.89404296875 293.438720703125 L 66.26953125 290.771484375 L 64.14306640625 287.738037109375 L 62.5 284.375 L 61.32568359375 280.718994140625 L 60.60546875 276.806640625 L 60.32470703125 272.674560546875 L 60.46875 268.359375 L 61.02294921875 263.897705078125 L 61.97265625 259.326171875 L 63.30322265625 254.681396484375 L 65 250 L 66.822509765625 245.538330078125 L 68.564453125 241.494140625 L 70.262451171875 237.816162109375 L 71.953125 234.453125 L 73.673095703125 231.353759765625 L 75.458984375 228.466796875 L 79.375 223.125 L 81.578369140625 220.567626953125 L 83.994140625 218.017578125 L 86.658935546875 215.423583984375 L 89.609375 212.734375 L 92.882080078125 209.898681640625 L 96.513671875 206.865234375 L 100.540771484375 203.582763671875 L 105 200 Z" fill="yellow" stroke="orange" stroke-width="5" stroke-linejoin="miter" stroke-miterlimit="10"/>
</svg>
