
<svg version="1.1"
     xmlns="http://www.w3.org/2000/svg"
     width="450"
     height="250">
<rect x="0" y="0" width="450" height="250" fill="none"/>
<path d="M 50.0 120.0 C 54.66240026 140.80364056, 69.05944734 159.20881585, 88.12836313 168.74327375 C 107.19727891 178.27773164, 130.5596474 178.75226413, 150.0 170.0 C 158.31014456 166.25867999, 165.83002539 160.98255767, 173.89194035 156.73267471 C 181.95385531 152.48279174, 190.92064794 149.21174615, 200.0 150.0 C 205.45423204 150.47352712, 210.72150522 152.40946505, 215.44476861 155.17779633 C 220.16803199 157.9461276, 224.37153552 161.53206153, 228.21294228 165.43289083 C 235.89575579 173.23454941, 242.19370055 182.32190199, 250.0 190.0 C 267.87890767 207.58528563, 293.63091058 216.8457373, 318.61451674 214.67386395 C 343.59812289 212.50199059, 367.36583919 198.93669366, 381.94203241 178.53002315 C 396.51822563 158.12335264, 401.64181474 131.240822, 395.59349835 106.90328969 C 389.54518196 82.56575738, 372.4332943 61.20914435, 350.0 50.0" fill="red" stroke="black" stroke-width="4"/>
<circle cx="50" cy="120" r="5" fill="green"/>
<circle cx="350" cy="50" r="5" fill="green"/>
<circle cx="150" cy="170" r="5" fill="blue"/>
<circle cx="200" cy="150" r="5" fill="blue"/>
<circle cx="250" cy="190" r="5" fill="blue"/>
</svg>
