<svg version="1.1"
     xmlns="http://www.w3.org/2000/svg"
     width="450"
     height="250">

<rect x="0" y="0" width="450" height="250" fill="none"/>
<path d="M 50.0 120.0 C 54.66240025627245 140.80364055942914, 69.0594473373335 159.20881585463448, 88.1283631256129 168.7432737487742 C 107.19727891389232 178.2777316429139, 130.55964739869322 178.75226413063953, 150.0 170.0 C 158.31014455965678 166.25867999199644, 165.8300253947433 160.9825576723767, 173.8919403523991 156.73267470690502 C 181.953855310055 152.48279174143346, 190.92064793752195 149.2117461511311, 200.0 150.0 C 205.45423203767442 150.47352711589272, 210.7215052240687 152.40946505079023, 215.44476860868485 155.17779632609384 C 220.16803199330104 157.94612760139745, 224.37153552258303 161.53206153200225, 228.21294227963307 165.43289082552053 C 235.89575579373312 173.2345494125566, 242.1937005506367 182.32190198630013, 250.0 190.0 C 267.8789076748777 207.58528562682895, 293.6309105843936 216.84573729699446, 318.6145167366009 214.67386394540452 C 343.5981228888082 212.5019905938146, 367.3658391899783 198.93669366325412, 381.9420324124711 178.5300231517642 C 396.51822563496364 158.1233526402743, 401.64181474187086 131.24082199952633, 395.59349834941554 106.90328968746344 C 389.5451819569602 82.56575737540054, 372.433294298312 61.20914435402063, 350.0 50.0" fill="red" stroke="black" stroke-width="4"/>
<circle cx="50" cy="120" r="5" fill="green"/>
<circle cx="350" cy="50" r="5" fill="green"/>
<circle cx="150" cy="170" r="5" fill="blue"/>
<circle cx="200" cy="150" r="5" fill="blue"/>
<circle cx="250" cy="190" r="5" fill="blue"/>
</svg>
