
<svg version="1.1"
     xmlns="http://www.w3.org/2000/svg"
     width="320.0"
     height="640.0">
<rect x="0" y="0" width="320.0" height="640.0" fill="tan"/>
<circle cx="20.0" cy="15" r="5" fill="darkorange"/>
<circle cx="40.0" cy="15" r="5" fill="black"/>
<circle cx="60.0" cy="15" r="5" fill="firebrick"/>
<circle cx="80.0" cy="15" r="5" fill="saddlebrown"/>
<circle cx="100.0" cy="15" r="5" fill="white"/>
<circle cx="120.0" cy="15" r="5" fill="darkorange"/>
<circle cx="140.0" cy="15" r="5" fill="black"/>
<circle cx="160.0" cy="15" r="5" fill="firebrick"/>
<circle cx="180.0" cy="15" r="5" fill="saddlebrown"/>
<circle cx="200.0" cy="15" r="5" fill="white"/>
<circle cx="220.0" cy="15" r="5" fill="darkorange"/>
<circle cx="240.0" cy="15" r="5" fill="black"/>
<circle cx="260.0" cy="15" r="5" fill="firebrick"/>
<circle cx="280.0" cy="15" r="5" fill="saddlebrown"/>
<circle cx="300.0" cy="15" r="5" fill="white"/>
<path d="M 40 30 L 10 60 L 70 60 Z" fill="firebrick"/>
<path d="M 80 60 L 50 30 L 110 30 Z" fill="darkorange"/>
<path d="M 120 30 L 90 60 L 150 60 Z" fill="firebrick"/>
<path d="M 160 60 L 130 30 L 190 30 Z" fill="darkorange"/>
<path d="M 200 30 L 170 60 L 230 60 Z" fill="firebrick"/>
<path d="M 240 60 L 210 30 L 270 30 Z" fill="darkorange"/>
<path d="M 280 30 L 250 60 L 310 60 Z" fill="firebrick"/>
<path d="M 16.47328849 84.85410197 L 14.2936609 78.14589803 L 20.0 74.0 L 25.7063391 78.14589803 L 23.52671151 84.85410197 Z" fill="white"/>
<path d="M 36.47328849 84.85410197 L 34.2936609 78.14589803 L 40.0 74.0 L 45.7063391 78.14589803 L 43.52671151 84.85410197 Z" fill="black"/>
<path d="M 56.47328849 84.85410197 L 54.2936609 78.14589803 L 60.0 74.0 L 65.7063391 78.14589803 L 63.52671151 84.85410197 Z" fill="saddlebrown"/>
<path d="M 76.47328849 84.85410197 L 74.2936609 78.14589803 L 80.0 74.0 L 85.7063391 78.14589803 L 83.52671151 84.85410197 Z" fill="darkorange"/>
<path d="M 96.47328849 84.85410197 L 94.2936609 78.14589803 L 100.0 74.0 L 105.7063391 78.14589803 L 103.52671151 84.85410197 Z" fill="firebrick"/>
<path d="M 116.47328849 84.85410197 L 114.2936609 78.14589803 L 120.0 74.0 L 125.7063391 78.14589803 L 123.52671151 84.85410197 Z" fill="white"/>
<path d="M 136.47328849 84.85410197 L 134.2936609 78.14589803 L 140.0 74.0 L 145.7063391 78.14589803 L 143.52671151 84.85410197 Z" fill="black"/>
<path d="M 156.47328849 84.85410197 L 154.2936609 78.14589803 L 160.0 74.0 L 165.7063391 78.14589803 L 163.52671151 84.85410197 Z" fill="saddlebrown"/>
<path d="M 176.47328849 84.85410197 L 174.2936609 78.14589803 L 180.0 74.0 L 185.7063391 78.14589803 L 183.52671151 84.85410197 Z" fill="darkorange"/>
<path d="M 196.47328849 84.85410197 L 194.2936609 78.14589803 L 200.0 74.0 L 205.7063391 78.14589803 L 203.52671151 84.85410197 Z" fill="firebrick"/>
<path d="M 216.47328849 84.85410197 L 214.2936609 78.14589803 L 220.0 74.0 L 225.7063391 78.14589803 L 223.52671151 84.85410197 Z" fill="white"/>
<path d="M 236.47328849 84.85410197 L 234.2936609 78.14589803 L 240.0 74.0 L 245.7063391 78.14589803 L 243.52671151 84.85410197 Z" fill="black"/>
<path d="M 256.47328849 84.85410197 L 254.2936609 78.14589803 L 260.0 74.0 L 265.7063391 78.14589803 L 263.52671151 84.85410197 Z" fill="saddlebrown"/>
<path d="M 276.47328849 84.85410197 L 274.2936609 78.14589803 L 280.0 74.0 L 285.7063391 78.14589803 L 283.52671151 84.85410197 Z" fill="darkorange"/>
<path d="M 296.47328849 84.85410197 L 294.2936609 78.14589803 L 300.0 74.0 L 305.7063391 78.14589803 L 303.52671151 84.85410197 Z" fill="firebrick"/>
<rect x="0" y="100" width="320" height="160" fill="saddlebrown"/>
<path d="M 85 200 L 70 100 L 100 100 Z" fill="white"/>
<path d="M 115 200 L 100 100 L 130 100 Z" fill="white"/>
<path d="M 145 200 L 130 100 L 160 100 Z" fill="white"/>
<path d="M 175 200 L 160 100 L 190 100 Z" fill="white"/>
<path d="M 205 200 L 190 100 L 220 100 Z" fill="white"/>
<path d="M 235 200 L 220 100 L 250 100 Z" fill="white"/>
<path d="M 35 145 L 10 125 L 60 125 Z" fill="black"/>
<path d="M 285 145 L 260 125 L 310 125 Z" fill="black"/>
<path d="M 42 160 C 42 156.13659483, 38.86340517 153, 35 153 C 31.13659483 153, 28 156.13659483, 28 160 C 28 163.86340517, 31.13659483 167, 35 167 C 38.86340517 167, 42 163.86340517, 42 160 Z" fill="firebrick"/>
<path d="M 292 160 C 292 156.13659483, 288.86340517 153, 285 153 C 281.13659483 153, 278 156.13659483, 278 160 C 278 163.86340517, 281.13659483 167, 285 167 C 288.86340517 167, 292 163.86340517, 292 160 Z" fill="firebrick"/>
<path d="M 70 160.0 L 55 260.0 L 85 260.0 Z" fill="white"/>
<path d="M 100 160.0 L 85 260.0 L 115 260.0 Z" fill="white"/>
<path d="M 130 160.0 L 115 260.0 L 145 260.0 Z" fill="white"/>
<path d="M 160 160.0 L 145 260.0 L 175 260.0 Z" fill="white"/>
<path d="M 190 160.0 L 175 260.0 L 205 260.0 Z" fill="white"/>
<path d="M 220 160.0 L 205 260.0 L 235 260.0 Z" fill="white"/>
<path d="M 250 160.0 L 235 260.0 L 265 260.0 Z" fill="white"/>
<path d="M 16.47328849 284.85410197 L 14.2936609 278.14589803 L 20.0 274.0 L 25.7063391 278.14589803 L 23.52671151 284.85410197 Z" fill="saddlebrown"/>
<path d="M 36.47328849 284.85410197 L 34.2936609 278.14589803 L 40.0 274.0 L 45.7063391 278.14589803 L 43.52671151 284.85410197 Z" fill="darkorange"/>
<path d="M 56.47328849 284.85410197 L 54.2936609 278.14589803 L 60.0 274.0 L 65.7063391 278.14589803 L 63.52671151 284.85410197 Z" fill="black"/>
<path d="M 76.47328849 284.85410197 L 74.2936609 278.14589803 L 80.0 274.0 L 85.7063391 278.14589803 L 83.52671151 284.85410197 Z" fill="firebrick"/>
<path d="M 96.47328849 284.85410197 L 94.2936609 278.14589803 L 100.0 274.0 L 105.7063391 278.14589803 L 103.52671151 284.85410197 Z" fill="white"/>
<path d="M 116.47328849 284.85410197 L 114.2936609 278.14589803 L 120.0 274.0 L 125.7063391 278.14589803 L 123.52671151 284.85410197 Z" fill="saddlebrown"/>
<path d="M 136.47328849 284.85410197 L 134.2936609 278.14589803 L 140.0 274.0 L 145.7063391 278.14589803 L 143.52671151 284.85410197 Z" fill="darkorange"/>
<path d="M 156.47328849 284.85410197 L 154.2936609 278.14589803 L 160.0 274.0 L 165.7063391 278.14589803 L 163.52671151 284.85410197 Z" fill="black"/>
<path d="M 176.47328849 284.85410197 L 174.2936609 278.14589803 L 180.0 274.0 L 185.7063391 278.14589803 L 183.52671151 284.85410197 Z" fill="firebrick"/>
<path d="M 196.47328849 284.85410197 L 194.2936609 278.14589803 L 200.0 274.0 L 205.7063391 278.14589803 L 203.52671151 284.85410197 Z" fill="white"/>
<path d="M 216.47328849 284.85410197 L 214.2936609 278.14589803 L 220.0 274.0 L 225.7063391 278.14589803 L 223.52671151 284.85410197 Z" fill="saddlebrown"/>
<path d="M 236.47328849 284.85410197 L 234.2936609 278.14589803 L 240.0 274.0 L 245.7063391 278.14589803 L 243.52671151 284.85410197 Z" fill="darkorange"/>
<path d="M 256.47328849 284.85410197 L 254.2936609 278.14589803 L 260.0 274.0 L 265.7063391 278.14589803 L 263.52671151 284.85410197 Z" fill="black"/>
<path d="M 276.47328849 284.85410197 L 274.2936609 278.14589803 L 280.0 274.0 L 285.7063391 278.14589803 L 283.52671151 284.85410197 Z" fill="firebrick"/>
<path d="M 296.47328849 284.85410197 L 294.2936609 278.14589803 L 300.0 274.0 L 305.7063391 278.14589803 L 303.52671151 284.85410197 Z" fill="white"/>
<path d="M 160.0 330.0 L 140.0 350.0 L 180.0 350.0 Z" fill="black"/>
<path d="M 133.29748793 566.99134946 L 103.36126677 585.80152392 L 152.10766238 596.92757062 Z" fill="white"/>
<path d="M 212.06604869 341.88373585 L 185.36899655 351.22543843 L 221.40775127 368.58078799 Z" fill="darkorange"/>
<path d="M 85.18122378 543.8197779 L 50.04819167 547.77831991 L 89.13976579 578.95281 Z" fill="firebrick"/>
<path d="M 253.8197779 375.18122378 L 225.71335221 372.01439016 L 250.65294428 403.28764946 Z" fill="black"/>
<path d="M 51.88373585 502.06604869 L 18.51242068 490.38892047 L 40.20660763 535.43736387 Z" fill="white"/>
<path d="M 276.99134946 423.29748793 L 253.04237254 408.24934836 L 261.9432099 447.24646485 Z" fill="darkorange"/>
<path d="M 40.0 450.0 L 15.0 425.0 L 15.0 475.0 Z" fill="firebrick"/>
<path d="M 276.99134946 476.70251207 L 261.9432099 452.75353515 L 253.04237254 491.75065164 Z" fill="black"/>
<path d="M 51.88373585 397.93395131 L 40.20660763 364.56263613 L 18.51242068 409.61107953 Z" fill="white"/>
<path d="M 253.8197779 524.81877622 L 250.65294428 496.71235054 L 225.71335221 527.98560984 Z" fill="darkorange"/>
<path d="M 85.18122378 356.1802221 L 89.13976579 321.04719 L 50.04819167 352.22168009 Z" fill="firebrick"/>
<path d="M 212.06604869 558.11626415 L 221.40775127 531.41921201 L 185.36899655 548.77456157 Z" fill="black"/>
<path d="M 133.29748793 333.00865054 L 152.10766238 303.07242938 L 103.36126677 314.19847608 Z" fill="white"/>
<path d="M 160.0 570.0 L 180.0 550.0 L 140.0 550.0 Z" fill="darkorange"/>
<path d="M 186.70251207 333.00865054 L 216.63873323 314.19847608 L 167.89233762 303.07242938 Z" fill="firebrick"/>
<path d="M 107.93395131 558.11626415 L 134.63100345 548.77456157 L 98.59224873 531.41921201 Z" fill="black"/>
<path d="M 234.81877622 356.1802221 L 269.95180833 352.22168009 L 230.86023421 321.04719 Z" fill="white"/>
<path d="M 66.1802221 524.81877622 L 94.28664779 527.98560984 L 69.34705572 496.71235054 Z" fill="darkorange"/>
<path d="M 268.11626415 397.93395131 L 301.48757932 409.61107953 L 279.79339237 364.56263613 Z" fill="firebrick"/>
<path d="M 43.00865054 476.70251207 L 66.95762746 491.75065164 L 58.0567901 452.75353515 Z" fill="black"/>
<path d="M 280.0 450.0 L 305.0 475.0 L 305.0 425.0 Z" fill="white"/>
<path d="M 43.00865054 423.29748793 L 58.0567901 447.24646485 L 66.95762746 408.24934836 Z" fill="darkorange"/>
<path d="M 268.11626415 502.06604869 L 279.79339237 535.43736387 L 301.48757932 490.38892047 Z" fill="firebrick"/>
<path d="M 66.1802221 375.18122378 L 69.34705572 403.28764946 L 94.28664779 372.01439016 Z" fill="black"/>
<path d="M 234.81877622 543.8197779 L 230.86023421 578.95281 L 269.95180833 547.77831991 Z" fill="white"/>
<path d="M 107.93395131 341.88373585 L 98.59224873 368.58078799 L 134.63100345 351.22543843 Z" fill="darkorange"/>
<path d="M 186.70251207 566.99134946 L 167.89233762 596.92757062 L 216.63873323 585.80152392 Z" fill="firebrick"/>
<path d=" M 141.83714962 498.54101944 L 103.05687046 431.37160587 L 132.47236156 410.0 L 187.52763939 410.00000095 L 216.94313049 431.37160587 L 178.16285133 498.54101944 Z" fill="firebrick"/>
<circle cx="20.0" cy="625" r="5" fill="firebrick"/>
<circle cx="40.0" cy="625" r="5" fill="darkorange"/>
<circle cx="60.0" cy="625" r="5" fill="white"/>
<circle cx="80.0" cy="625" r="5" fill="black"/>
<circle cx="100.0" cy="625" r="5" fill="saddlebrown"/>
<circle cx="120.0" cy="625" r="5" fill="firebrick"/>
<circle cx="140.0" cy="625" r="5" fill="darkorange"/>
<circle cx="160.0" cy="625" r="5" fill="white"/>
<circle cx="180.0" cy="625" r="5" fill="black"/>
<circle cx="200.0" cy="625" r="5" fill="saddlebrown"/>
<circle cx="220.0" cy="625" r="5" fill="firebrick"/>
<circle cx="240.0" cy="625" r="5" fill="darkorange"/>
<circle cx="260.0" cy="625" r="5" fill="white"/>
<circle cx="280.0" cy="625" r="5" fill="black"/>
<circle cx="300.0" cy="625" r="5" fill="saddlebrown"/>
</svg>
