<svg version="1.1"
     xmlns="http://www.w3.org/2000/svg"
     width="320.0"
     height="640.0">

<rect x="0" y="0" width="320.0" height="640.0" fill="tan"/>
<circle cx="20.0" cy="15" r="5" fill="darkorange"/>
<circle cx="40.0" cy="15" r="5" fill="black"/>
<circle cx="60.0" cy="15" r="5" fill="firebrick"/>
<circle cx="80.0" cy="15" r="5" fill="saddlebrown"/>
<circle cx="100.0" cy="15" r="5" fill="white"/>
<circle cx="120.0" cy="15" r="5" fill="darkorange"/>
<circle cx="140.0" cy="15" r="5" fill="black"/>
<circle cx="160.0" cy="15" r="5" fill="firebrick"/>
<circle cx="180.0" cy="15" r="5" fill="saddlebrown"/>
<circle cx="200.0" cy="15" r="5" fill="white"/>
<circle cx="220.0" cy="15" r="5" fill="darkorange"/>
<circle cx="240.0" cy="15" r="5" fill="black"/>
<circle cx="260.0" cy="15" r="5" fill="firebrick"/>
<circle cx="280.0" cy="15" r="5" fill="saddlebrown"/>
<circle cx="300.0" cy="15" r="5" fill="white"/>
<path d="M 40 30 L 10 60 L 70 60 Z" fill="firebrick"/>
<path d="M 80 60 L 50 30 L 110 30 Z" fill="darkorange"/>
<path d="M 120 30 L 90 60 L 150 60 Z" fill="firebrick"/>
<path d="M 160 60 L 130 30 L 190 30 Z" fill="darkorange"/>
<path d="M 200 30 L 170 60 L 230 60 Z" fill="firebrick"/>
<path d="M 240 60 L 210 30 L 270 30 Z" fill="darkorange"/>
<path d="M 280 30 L 250 60 L 310 60 Z" fill="firebrick"/>
<path d="M 16.47328848624516 84.85410196624969 L 14.293660902229078 78.14589803375031 L 20.0 74.0 L 25.706339097770922 78.14589803375031 L 23.52671151375484 84.85410196624969 Z" fill="white"/>
<path d="M 36.47328848624516 84.85410196624969 L 34.29366090222908 78.14589803375031 L 40.0 74.0 L 45.70633909777092 78.14589803375031 L 43.52671151375484 84.85410196624969 Z" fill="black"/>
<path d="M 56.47328848624516 84.85410196624969 L 54.29366090222908 78.14589803375031 L 60.0 74.0 L 65.70633909777092 78.14589803375031 L 63.52671151375484 84.85410196624969 Z" fill="saddlebrown"/>
<path d="M 76.47328848624517 84.85410196624969 L 74.29366090222908 78.14589803375031 L 80.0 74.0 L 85.70633909777092 78.14589803375031 L 83.52671151375483 84.85410196624969 Z" fill="darkorange"/>
<path d="M 96.47328848624517 84.85410196624969 L 94.29366090222908 78.14589803375031 L 100.0 74.0 L 105.70633909777092 78.14589803375031 L 103.52671151375483 84.85410196624969 Z" fill="firebrick"/>
<path d="M 116.47328848624517 84.85410196624969 L 114.29366090222908 78.14589803375031 L 120.0 74.0 L 125.70633909777092 78.14589803375031 L 123.52671151375483 84.85410196624969 Z" fill="white"/>
<path d="M 136.47328848624517 84.85410196624969 L 134.29366090222908 78.14589803375031 L 140.0 74.0 L 145.70633909777092 78.14589803375031 L 143.52671151375483 84.85410196624969 Z" fill="black"/>
<path d="M 156.47328848624517 84.85410196624969 L 154.29366090222908 78.14589803375031 L 160.0 74.0 L 165.70633909777092 78.14589803375031 L 163.52671151375483 84.85410196624969 Z" fill="saddlebrown"/>
<path d="M 176.47328848624517 84.85410196624969 L 174.29366090222908 78.14589803375031 L 180.0 74.0 L 185.70633909777092 78.14589803375031 L 183.52671151375483 84.85410196624969 Z" fill="darkorange"/>
<path d="M 196.47328848624517 84.85410196624969 L 194.29366090222908 78.14589803375031 L 200.0 74.0 L 205.70633909777092 78.14589803375031 L 203.52671151375483 84.85410196624969 Z" fill="firebrick"/>
<path d="M 216.47328848624517 84.85410196624969 L 214.29366090222908 78.14589803375031 L 220.0 74.0 L 225.70633909777092 78.14589803375031 L 223.52671151375483 84.85410196624969 Z" fill="white"/>
<path d="M 236.47328848624517 84.85410196624969 L 234.29366090222908 78.14589803375031 L 240.0 74.0 L 245.70633909777092 78.14589803375031 L 243.52671151375483 84.85410196624969 Z" fill="black"/>
<path d="M 256.47328848624517 84.85410196624969 L 254.29366090222908 78.14589803375031 L 260.0 74.0 L 265.7063390977709 78.14589803375031 L 263.52671151375483 84.85410196624969 Z" fill="saddlebrown"/>
<path d="M 276.47328848624517 84.85410196624969 L 274.2936609022291 78.14589803375031 L 280.0 74.0 L 285.7063390977709 78.14589803375031 L 283.52671151375483 84.85410196624969 Z" fill="darkorange"/>
<path d="M 296.47328848624517 84.85410196624969 L 294.2936609022291 78.14589803375031 L 300.0 74.0 L 305.7063390977709 78.14589803375031 L 303.52671151375483 84.85410196624969 Z" fill="firebrick"/>
<rect x="0" y="100" width="320" height="160" fill="saddlebrown"/>
<path d="M 85 200 L 70 100 L 100 100 Z" fill="white"/>
<path d="M 115 200 L 100 100 L 130 100 Z" fill="white"/>
<path d="M 145 200 L 130 100 L 160 100 Z" fill="white"/>
<path d="M 175 200 L 160 100 L 190 100 Z" fill="white"/>
<path d="M 205 200 L 190 100 L 220 100 Z" fill="white"/>
<path d="M 235 200 L 220 100 L 250 100 Z" fill="white"/>
<path d="M 35 145 L 10 125 L 60 125 Z" fill="black"/>
<path d="M 285 145 L 260 125 L 310 125 Z" fill="black"/>
<path d="M 42 160 C 42 156.136594828542, 38.863405171458 153, 35 153 C 31.136594828542002 153, 28 156.136594828542, 28 160 C 28 163.863405171458, 31.136594828542002 167, 35 167 C 38.863405171458 167, 42 163.863405171458, 42 160 Z" fill="firebrick"/>
<path d="M 292 160 C 292 156.136594828542, 288.863405171458 153, 285 153 C 281.136594828542 153, 278 156.136594828542, 278 160 C 278 163.863405171458, 281.136594828542 167, 285 167 C 288.863405171458 167, 292 163.863405171458, 292 160 Z" fill="firebrick"/>
<path d="M 70 160.0 L 55 260.0 L 85 260.0 Z" fill="white"/>
<path d="M 100 160.0 L 85 260.0 L 115 260.0 Z" fill="white"/>
<path d="M 130 160.0 L 115 260.0 L 145 260.0 Z" fill="white"/>
<path d="M 160 160.0 L 145 260.0 L 175 260.0 Z" fill="white"/>
<path d="M 190 160.0 L 175 260.0 L 205 260.0 Z" fill="white"/>
<path d="M 220 160.0 L 205 260.0 L 235 260.0 Z" fill="white"/>
<path d="M 250 160.0 L 235 260.0 L 265 260.0 Z" fill="white"/>
<path d="M 16.47328848624516 284.8541019662497 L 14.293660902229078 278.1458980337503 L 20.0 274.0 L 25.706339097770922 278.1458980337503 L 23.52671151375484 284.8541019662497 Z" fill="saddlebrown"/>
<path d="M 36.47328848624516 284.8541019662497 L 34.29366090222908 278.1458980337503 L 40.0 274.0 L 45.70633909777092 278.1458980337503 L 43.52671151375484 284.8541019662497 Z" fill="darkorange"/>
<path d="M 56.47328848624516 284.8541019662497 L 54.29366090222908 278.1458980337503 L 60.0 274.0 L 65.70633909777092 278.1458980337503 L 63.52671151375484 284.8541019662497 Z" fill="black"/>
<path d="M 76.47328848624517 284.8541019662497 L 74.29366090222908 278.1458980337503 L 80.0 274.0 L 85.70633909777092 278.1458980337503 L 83.52671151375483 284.8541019662497 Z" fill="firebrick"/>
<path d="M 96.47328848624517 284.8541019662497 L 94.29366090222908 278.1458980337503 L 100.0 274.0 L 105.70633909777092 278.1458980337503 L 103.52671151375483 284.8541019662497 Z" fill="white"/>
<path d="M 116.47328848624517 284.8541019662497 L 114.29366090222908 278.1458980337503 L 120.0 274.0 L 125.70633909777092 278.1458980337503 L 123.52671151375483 284.8541019662497 Z" fill="saddlebrown"/>
<path d="M 136.47328848624517 284.8541019662497 L 134.29366090222908 278.1458980337503 L 140.0 274.0 L 145.70633909777092 278.1458980337503 L 143.52671151375483 284.8541019662497 Z" fill="darkorange"/>
<path d="M 156.47328848624517 284.8541019662497 L 154.29366090222908 278.1458980337503 L 160.0 274.0 L 165.70633909777092 278.1458980337503 L 163.52671151375483 284.8541019662497 Z" fill="black"/>
<path d="M 176.47328848624517 284.8541019662497 L 174.29366090222908 278.1458980337503 L 180.0 274.0 L 185.70633909777092 278.1458980337503 L 183.52671151375483 284.8541019662497 Z" fill="firebrick"/>
<path d="M 196.47328848624517 284.8541019662497 L 194.29366090222908 278.1458980337503 L 200.0 274.0 L 205.70633909777092 278.1458980337503 L 203.52671151375483 284.8541019662497 Z" fill="white"/>
<path d="M 216.47328848624517 284.8541019662497 L 214.29366090222908 278.1458980337503 L 220.0 274.0 L 225.70633909777092 278.1458980337503 L 223.52671151375483 284.8541019662497 Z" fill="saddlebrown"/>
<path d="M 236.47328848624517 284.8541019662497 L 234.29366090222908 278.1458980337503 L 240.0 274.0 L 245.70633909777092 278.1458980337503 L 243.52671151375483 284.8541019662497 Z" fill="darkorange"/>
<path d="M 256.47328848624517 284.8541019662497 L 254.29366090222908 278.1458980337503 L 260.0 274.0 L 265.7063390977709 278.1458980337503 L 263.52671151375483 284.8541019662497 Z" fill="black"/>
<path d="M 276.47328848624517 284.8541019662497 L 274.2936609022291 278.1458980337503 L 280.0 274.0 L 285.7063390977709 278.1458980337503 L 283.52671151375483 284.8541019662497 Z" fill="firebrick"/>
<path d="M 296.47328848624517 284.8541019662497 L 294.2936609022291 278.1458980337503 L 300.0 274.0 L 305.7063390977709 278.1458980337503 L 303.52671151375483 284.8541019662497 Z" fill="white"/>
<path d="M 160.0 330.0 L 140.0 350.0 L 180.0 350.0 Z" fill="black"/>
<path d="M 133.29748792524228 566.9913494618188 L 103.36126677178882 585.8015239174565 L 152.10766238088002 596.9275706152723 Z" fill="white"/>
<path d="M 212.06604869410697 341.88373585170973 L 185.36899655370743 351.2254384274069 L 221.40775126980418 368.58078799210926 Z" fill="darkorange"/>
<path d="M 85.18122377695198 543.8197778961636 L 50.04819166878289 547.778319911396 L 89.13976579218439 578.9528100043326 Z" fill="firebrick"/>
<path d="M 253.81977789616354 375.181223776952 L 225.71335220962828 372.01439016476604 L 250.65294428397766 403.28764946348724 Z" fill="black"/>
<path d="M 51.8837358517097 502.066048694107 L 18.51242067621027 490.3889204744855 L 40.20660763208818 535.4373638696064 Z" fill="white"/>
<path d="M 276.9913494618188 423.29748792524225 L 253.0423725390561 408.2493483607321 L 261.94320989730863 447.246464848005 Z" fill="darkorange"/>
<path d="M 40.0 450.0 L 15.0 425.0 L 15.0 475.0 Z" fill="firebrick"/>
<path d="M 276.9913494618188 476.7025120747577 L 261.94320989730863 452.753535151995 L 253.0423725390561 491.7506516392679 Z" fill="black"/>
<path d="M 51.8837358517097 397.93395130589306 L 40.20660763208818 364.56263613039357 L 18.51242067621027 409.6110795255146 Z" fill="white"/>
<path d="M 253.8197778961636 524.818776223048 L 250.65294428397766 496.71235053651276 L 225.7133522096283 527.985609835234 Z" fill="darkorange"/>
<path d="M 85.18122377695201 356.1802221038364 L 89.13976579218443 321.0471899956673 L 50.048191668782934 352.221680088604 Z" fill="firebrick"/>
<path d="M 212.066048694107 558.1162641482903 L 221.4077512698042 531.4192120078908 L 185.36899655370743 548.774561572593 Z" fill="black"/>
<path d="M 133.29748792524225 333.0086505381812 L 152.10766238088 303.0724293847277 L 103.3612667717888 314.1984760825435 Z" fill="white"/>
<path d="M 160.00000000000003 570.0 L 180.0 550.0 L 140.0 550.0 Z" fill="darkorange"/>
<path d="M 186.70251207475772 333.0086505381812 L 216.63873322821115 314.19847608254344 L 167.89233761911998 303.07242938472774 Z" fill="firebrick"/>
<path d="M 107.93395130589303 558.1162641482903 L 134.6310034462926 548.774561572593 L 98.59224873019582 531.4192120078908 Z" fill="black"/>
<path d="M 234.81877622304808 356.18022210383646 L 269.95180833121714 352.22168008860405 L 230.86023420781567 321.0471899956674 Z" fill="white"/>
<path d="M 66.18022210383644 524.8187762230481 L 94.2866477903717 527.985609835234 L 69.34705571602235 496.71235053651276 Z" fill="darkorange"/>
<path d="M 268.11626414829027 397.933951305893 L 301.4875793237897 409.6110795255145 L 279.7933923679118 364.56263613039357 Z" fill="firebrick"/>
<path d="M 43.00865053818117 476.70251207475775 L 66.95762746094394 491.7506516392679 L 58.056790102691366 452.753535151995 Z" fill="black"/>
<path d="M 280.0 450.0 L 305.0 475.0 L 305.0 425.0 Z" fill="white"/>
<path d="M 43.00865053818117 423.2974879252422 L 58.05679010269135 447.24646484800496 L 66.95762746094395 408.24934836073203 Z" fill="darkorange"/>
<path d="M 268.1162641482903 502.06604869410694 L 279.79339236791185 535.4373638696064 L 301.48757932378976 490.3889204744854 Z" fill="firebrick"/>
<path d="M 66.18022210383641 375.181223776952 L 69.34705571602234 403.28764946348724 L 94.28664779037169 372.01439016476604 Z" fill="black"/>
<path d="M 234.81877622304805 543.8197778961636 L 230.86023420781564 578.9528100043326 L 269.95180833121714 547.778319911396 Z" fill="white"/>
<path d="M 107.933951305893 341.88373585170973 L 98.59224873019579 368.58078799210926 L 134.63100344629254 351.2254384274069 Z" fill="darkorange"/>
<path d="M 186.70251207475786 566.9913494618188 L 167.89233761912016 596.9275706152723 L 216.63873322821132 585.8015239174565 Z" fill="firebrick"/>
<path d=" M 141.83714962005615 498.54101943969727 L 103.05687046051025 431.3716058731079 L 132.47236156463623 410.0 L 187.5276393890381 410.0000009536743 L 216.94313049316406 431.3716058731079 L 178.16285133361816 498.54101943969727 Z" fill="firebrick"/>
<circle cx="20.0" cy="625" r="5" fill="firebrick"/>
<circle cx="40.0" cy="625" r="5" fill="darkorange"/>
<circle cx="60.0" cy="625" r="5" fill="white"/>
<circle cx="80.0" cy="625" r="5" fill="black"/>
<circle cx="100.0" cy="625" r="5" fill="saddlebrown"/>
<circle cx="120.0" cy="625" r="5" fill="firebrick"/>
<circle cx="140.0" cy="625" r="5" fill="darkorange"/>
<circle cx="160.0" cy="625" r="5" fill="white"/>
<circle cx="180.0" cy="625" r="5" fill="black"/>
<circle cx="200.0" cy="625" r="5" fill="saddlebrown"/>
<circle cx="220.0" cy="625" r="5" fill="firebrick"/>
<circle cx="240.0" cy="625" r="5" fill="darkorange"/>
<circle cx="260.0" cy="625" r="5" fill="white"/>
<circle cx="280.0" cy="625" r="5" fill="black"/>
<circle cx="300.0" cy="625" r="5" fill="saddlebrown"/>
</svg>
